G04 ================== begin FILE IDENTIFICATION RECORD ==================*
G04 Layout Name:  C:/Users/lzf/Desktop/ALTERA/0320/max10_dk_c/max10_dk_c.brd*
G04 Film Name:    ART03*
G04 File Format:  Gerber RS274X*
G04 File Origin:  Cadence Allegro 16.6-S023*
G04 Origin Date:  Fri Mar 20 16:34:19 2015*
G04 *
G04 Layer:  ETCH/ART03*
G04 Layer:  PIN/ART03*
G04 Layer:  VIA CLASS/ART03*
G04 *
G04 Offset:    (0.00 0.00)*
G04 Mirror:    No*
G04 Mode:      Positive*
G04 Rotation:  0*
G04 FullContactRelief:  No*
G04 UndefLineWidth:     6.00*
G04 ================== end FILE IDENTIFICATION RECORD ====================*
%FSAX55Y55*MOIN*%
%IR0*IPPOS*OFA0.00000B0.00000*MIA0B0*SFA1.00000B1.00000*%
%ADD26O,.06X.13*%
%ADD27O,.06X.108*%
%ADD22O,.064X.103*%
%ADD17C,.02*%
%ADD23C,.04*%
%ADD18C,.022*%
%ADD25C,.015*%
%ADD19C,.06*%
%ADD24C,.025*%
%ADD20C,.052*%
%ADD14C,.016*%
%ADD28O,.055X.168*%
%ADD30O,.168X.055*%
%ADD13C,.083*%
%ADD10C,.093*%
%ADD29C,.049*%
%ADD16C,.05118*%
%ADD31R,.049X.049*%
%ADD21C,.05906*%
%ADD11C,.15*%
%ADD12C,.11811*%
%ADD15C,.12795*%
%ADD32C,.01*%
%ADD33C,.03*%
%ADD34C,.013*%
%ADD35C,.004*%
%ADD36C,.0049*%
%ADD38C,.03204*%
%ADD37C,.02604*%
G75*
%LPD*%
G75*
G36*
G01X-0000088720Y0000242530D02*
X-0000087351Y0000241161D01*
G02X-0000087391Y0000240560I-0000000283J-0000000283D01*
G03X-0000085566Y0000238735I0000000790J-0000001035D01*
G02X-0000084965Y0000238775I0000000318J-0000000243D01*
G01X-0000084720Y0000238530D01*
X-0000084720Y0000234030D01*
X-0000085720Y0000233030D01*
X-0000095720Y0000233030D01*
X-0000097220Y0000234530D01*
X-0000097220Y0000234675D01*
G03X-0000098208Y0000237076I-0000001192J0000000913D01*
G01X-0000098275Y0000237085D01*
X-0000098720Y0000237530D01*
X-0000101220Y0000237530D01*
X-0000105220Y0000241530D01*
X-0000106097Y0000241530D01*
X-0000106098Y0000241532D01*
X-0000108222Y0000241532D01*
X-0000109260Y0000242570D01*
X-0000109162Y0000242708D01*
G03X-0000110680Y0000244681I-0000001061J0000000754D01*
G02X-0000111220Y0000245056I-0000000140J0000000375D01*
G01X-0000111220Y0000248030D01*
X-0000110720Y0000248530D01*
X-0000109343Y0000248530D01*
X-0000104911Y0000244098D01*
X-0000104788Y0000244098D01*
X-0000104720Y0000244030D01*
X-0000098220Y0000244030D01*
X-0000096720Y0000242530D01*
X-0000095384Y0000242530D01*
G03X-0000093566Y0000242530I0000000909J0000000932D01*
G01X-0000091447Y0000242530D01*
G03X-0000089629Y0000242530I0000000909J0000000932D01*
G01X-0000088720Y0000242530D01*
G37*
G36*
G01X0000084280Y0000269530D02*
X0000080780Y0000273030D01*
X0000080780Y0000297030D01*
X0000081694Y0000297944D01*
G02X0000082337Y0000297835I0000000283J-0000000283D01*
G03X0000085310Y0000299006I0000001443J0000000695D01*
G02X0000085691Y0000299525I0000000382J0000000119D01*
G01X0000094230Y0000299525D01*
G03X0000096170Y0000299525I0000000970J0000001275D01*
G01X0000097285Y0000299525D01*
X0000099780Y0000297030D01*
X0000099780Y0000274030D01*
X0000095280Y0000269530D01*
X0000084280Y0000269530D01*
G37*
G36*
G01X0000165900Y0000279900D02*
X0000165000Y0000280800D01*
X0000165000Y0000294810D01*
X0000146905Y0000312905D01*
X0000146905Y0000321200D01*
X0000144550Y0000323555D01*
X0000120755Y0000323555D01*
X0000100110Y0000344200D01*
X0000088300Y0000344200D01*
X0000077404Y0000355096D01*
G03X0000076937Y0000355563I-0000001124J-0000000657D01*
G01X0000076550Y0000355950D01*
X0000076550Y0000376280D01*
X0000077735Y0000377465D01*
X0000085235Y0000377465D01*
X0000086550Y0000376150D01*
X0000086550Y0000357850D01*
X0000091675Y0000352725D01*
X0000103725Y0000352725D01*
X0000126550Y0000329900D01*
X0000150300Y0000329900D01*
X0000156500Y0000323700D01*
X0000156500Y0000316100D01*
X0000177900Y0000294700D01*
X0000177900Y0000281000D01*
X0000176800Y0000279900D01*
X0000165900Y0000279900D01*
G37*
G36*
G01X0000135030Y0000175780D02*
X0000133780Y0000174530D01*
X0000111280Y0000174530D01*
X0000109280Y0000176530D01*
X0000109280Y0000179030D01*
X0000110280Y0000180030D01*
X0000125280Y0000180030D01*
X0000127280Y0000182030D01*
X0000127280Y0000194030D01*
X0000128780Y0000195530D01*
X0000134280Y0000195530D01*
X0000135030Y0000194780D01*
X0000135030Y0000175780D01*
G37*
%LPC*%
G75*
G54D38*
X0000083780Y0000284030D03*
X0000092280Y0000275530D03*
X0000095280Y0000288530D03*
X0000083000Y0000369000D03*
X0000155280Y0000309530D03*
X0000118430Y0000177130D03*
X0000132780Y0000189130D03*
G54D37*
X-0000090538Y0000235588D03*
X-0000090538Y0000239525D03*
X-0000098412Y0000239525D03*
X-0000094475Y0000239525D03*
X-0000094475Y0000235588D03*
X0000082280Y0000354439D03*
%LPD*%
G75*
G54D10*
X-0000226720Y0000259530D03*
X-0000226720Y0000279530D03*
X-0000226720Y0000296530D03*
X-0000226720Y0000316530D03*
X-0000226720Y0000334280D03*
X-0000226720Y0000354280D03*
X-0000206720Y0000259530D03*
X-0000206720Y0000279530D03*
X-0000206720Y0000296530D03*
X-0000206720Y0000316530D03*
X-0000206720Y0000334280D03*
X-0000206720Y0000354280D03*
G54D11*
X-0000220220Y0000382530D03*
X-0000105720Y0000118530D03*
X0000122280Y0000382530D03*
X0000174280Y0000118530D03*
G54D20*
X-0000181634Y0000374530D03*
X-0000195807Y0000374530D03*
X-0000188720Y0000381617D03*
G54D12*
X-0000221220Y0000087530D03*
X-0000221220Y0000406530D03*
X0000179280Y0000087530D03*
X0000179280Y0000406530D03*
G54D21*
X-0000164720Y0000299030D03*
X-0000164720Y0000309030D03*
X-0000164720Y0000319030D03*
X-0000164720Y0000329030D03*
X-0000164720Y0000339030D03*
X-0000164720Y0000349030D03*
X-0000164720Y0000359030D03*
X-0000164720Y0000379030D03*
X-0000164720Y0000369030D03*
X-0000164720Y0000389030D03*
X-0000154720Y0000299030D03*
X-0000154720Y0000309030D03*
X-0000154720Y0000329030D03*
X-0000154720Y0000319030D03*
X-0000154720Y0000339030D03*
X-0000154720Y0000359030D03*
X-0000154720Y0000349030D03*
X-0000154720Y0000369030D03*
X-0000154720Y0000379030D03*
X-0000154720Y0000389030D03*
G54D30*
X0000174969Y0000183534D03*
G54D31*
X0000187280Y0000200030D03*
G54D13*
X-0000224612Y0000106146D03*
X-0000224612Y0000173114D03*
X-0000161620Y0000106146D03*
X-0000145636Y0000173114D03*
G54D22*
X-0000126590Y0000371530D03*
X-0000126590Y0000389837D03*
X-0000097850Y0000371530D03*
X-0000097850Y0000389837D03*
X-0000084590Y0000371530D03*
X-0000084590Y0000389837D03*
X-0000055850Y0000371530D03*
X-0000055850Y0000389837D03*
G54D32*
G01X-0000168970Y0000259530D02*
X-0000175620Y0000266180D01*
X-0000175620Y0000269500D01*
X-0000181820Y0000275700D01*
X-0000181820Y0000290680D01*
X-0000179120Y0000293380D01*
X-0000179120Y0000353880D01*
X-0000168470Y0000364530D01*
X-0000159220Y0000364530D01*
X-0000154720Y0000369030D01*
G01X-0000168970Y0000264101D02*
X-0000171120Y0000266251D01*
X-0000171120Y0000273620D01*
X-0000175500Y0000278000D01*
X-0000175500Y0000338250D01*
X-0000164720Y0000349030D01*
G01X-0000164720Y0000329030D02*
X-0000172000Y0000321750D01*
X-0000172000Y0000291000D01*
X-0000170059Y0000289059D01*
X-0000167059Y0000289059D01*
X-0000165500Y0000287500D01*
X-0000165500Y0000282347D01*
X-0000163183Y0000280030D01*
X-0000154184Y0000280030D01*
X-0000151970Y0000277816D01*
G01X-0000164720Y0000319030D02*
X-0000169000Y0000314750D01*
X-0000169000Y0000296310D01*
X-0000166720Y0000294030D01*
X-0000162100Y0000294030D01*
X-0000159720Y0000291650D01*
X-0000159720Y0000286030D01*
X-0000156077Y0000282387D01*
X-0000151970Y0000282387D01*
G01X-0000151970Y0000291530D02*
X-0000154219Y0000291530D01*
X-0000160220Y0000297531D01*
X-0000160220Y0000343530D01*
X-0000154720Y0000349030D01*
G01X-0000094475Y0000247399D02*
X-0000096275Y0000245599D01*
X-0000104289Y0000245599D01*
X-0000110220Y0000251530D01*
X-0000118720Y0000251530D01*
X-0000124720Y0000257530D01*
X-0000133720Y0000257530D01*
X-0000138220Y0000262030D01*
X-0000143499Y0000262030D01*
X-0000145570Y0000264101D01*
G01X-0000098412Y0000235588D02*
X-0000102278Y0000235588D01*
X-0000106720Y0000240030D01*
X-0000112320Y0000240030D01*
X-0000126820Y0000254530D01*
X-0000140570Y0000254530D01*
X-0000145570Y0000259530D01*
G01X-0000098412Y0000247399D02*
X-0000102589Y0000247399D01*
X-0000111970Y0000256780D01*
X-0000117570Y0000256780D01*
X-0000122320Y0000261530D01*
X-0000128420Y0000261530D01*
X-0000133420Y0000266530D01*
X-0000143427Y0000266530D01*
X-0000145570Y0000268673D01*
G01X-0000090538Y0000247399D02*
X-0000092675Y0000249536D01*
X-0000101226Y0000249536D01*
X-0000111220Y0000259530D01*
X-0000114720Y0000259530D01*
X-0000121220Y0000266030D01*
X-0000127720Y0000266030D01*
X-0000134934Y0000273244D01*
X-0000145570Y0000273244D01*
G54D14*
X-0000227720Y0000180030D03*
X-0000217320Y0000180030D03*
X-0000217320Y0000186780D03*
X-0000217220Y0000175530D03*
X-0000216082Y0000202330D03*
X-0000224320Y0000189830D03*
X-0000220320Y0000189930D03*
X-0000223820Y0000200932D03*
X-0000217320Y0000194530D03*
X-0000223820Y0000197783D03*
X-0000227720Y0000190030D03*
X-0000223820Y0000204081D03*
X-0000226969Y0000216681D03*
X-0000223820Y0000216681D03*
X-0000223820Y0000213532D03*
X-0000226969Y0000213532D03*
X-0000226969Y0000210383D03*
X-0000223720Y0000207530D03*
X-0000216220Y0000208530D03*
X-0000216220Y0000206030D03*
X-0000216052Y0000217073D03*
X-0000223820Y0000211168D03*
X-0000223820Y0000222979D03*
X-0000218993Y0000232530D03*
X-0000224818Y0000226128D03*
X-0000226969Y0000219830D03*
X-0000224818Y0000229277D03*
X-0000223820Y0000219830D03*
X-0000215844Y0000232530D03*
X-0000222320Y0000232530D03*
X-0000216052Y0000221798D03*
X-0000215844Y0000235679D03*
X-0000222420Y0000235830D03*
X-0000198320Y0000180030D03*
X-0000205220Y0000180030D03*
X-0000210320Y0000186780D03*
X-0000213820Y0000186780D03*
X-0000206820Y0000186730D03*
X-0000198320Y0000186780D03*
X-0000198220Y0000175530D03*
X-0000210726Y0000202030D03*
X-0000201277Y0000202030D03*
X-0000206001Y0000202030D03*
X-0000206844Y0000194525D03*
X-0000213320Y0000202030D03*
X-0000208600Y0000224800D03*
X-0000200099Y0000232530D03*
X-0000212695Y0000232530D03*
X-0000203248Y0000232530D03*
X-0000209546Y0000232530D03*
X-0000206397Y0000232530D03*
X-0000212695Y0000235679D03*
X-0000185220Y0000180030D03*
X-0000184720Y0000175030D03*
X-0000187320Y0000186780D03*
X-0000190820Y0000186780D03*
X-0000194820Y0000186780D03*
X-0000192420Y0000175030D03*
X-0000188220Y0000175030D03*
X-0000193320Y0000202900D03*
X-0000195371Y0000194530D03*
X-0000192222Y0000194530D03*
X-0000189073Y0000194530D03*
X-0000185820Y0000211168D03*
X-0000185820Y0000215892D03*
X-0000193177Y0000209987D03*
X-0000193220Y0000216030D03*
X-0000185820Y0000218254D03*
X-0000185820Y0000204081D03*
X-0000193220Y0000213030D03*
X-0000185820Y0000208806D03*
X-0000182671Y0000208806D03*
X-0000193320Y0000225030D03*
X-0000196552Y0000224780D03*
X-0000193320Y0000219436D03*
X-0000183000Y0000223155D03*
X-0000190652Y0000232530D03*
X-0000182720Y0000219530D03*
X-0000187320Y0000232530D03*
X-0000183720Y0000232530D03*
X-0000185820Y0000220617D03*
X-0000193720Y0000232530D03*
X-0000191220Y0000259030D03*
X-0000187720Y0000259030D03*
X-0000194220Y0000259030D03*
X-0000174220Y0000180030D03*
X-0000166720Y0000175530D03*
X-0000166748Y0000186730D03*
X-0000177720Y0000175030D03*
X-0000181220Y0000175030D03*
X-0000166722Y0000180032D03*
X-0000173220Y0000175030D03*
X-0000177820Y0000180030D03*
X-0000166720Y0000202530D03*
X-0000167720Y0000194530D03*
X-0000176350Y0000189530D03*
X-0000174220Y0000200932D03*
X-0000172165Y0000189475D03*
X-0000182020Y0000189530D03*
X-0000174220Y0000204081D03*
X-0000166720Y0000208530D03*
X-0000166720Y0000206030D03*
X-0000174220Y0000207530D03*
X-0000174220Y0000211168D03*
X-0000166452Y0000217073D03*
X-0000174220Y0000213532D03*
X-0000177369Y0000216681D03*
X-0000177369Y0000213532D03*
X-0000177220Y0000211030D03*
X-0000174220Y0000216681D03*
X-0000174220Y0000222979D03*
X-0000169393Y0000232530D03*
X-0000172720Y0000232530D03*
X-0000166500Y0000222330D03*
X-0000177369Y0000229277D03*
X-0000174220Y0000219830D03*
X-0000174220Y0000229277D03*
X-0000177369Y0000219830D03*
X-0000177026Y0000240404D03*
X-0000155720Y0000180030D03*
X-0000163220Y0000186780D03*
X-0000159223Y0000186780D03*
X-0000155720Y0000186780D03*
X-0000156401Y0000202030D03*
X-0000156720Y0000194530D03*
X-0000161126Y0000202030D03*
X-0000151677Y0000202030D03*
X-0000163720Y0000202030D03*
X-0000158720Y0000225210D03*
X-0000156797Y0000232530D03*
X-0000166244Y0000232530D03*
X-0000153648Y0000232530D03*
X-0000163095Y0000232530D03*
X-0000159946Y0000232530D03*
X-0000153157Y0000240030D03*
X-0000157094Y0000240030D03*
X-0000161031Y0000240030D03*
X-0000164968Y0000240030D03*
X-0000163095Y0000235679D03*
X-0000166244Y0000235679D03*
X-0000143233Y0000180043D03*
X-0000143233Y0000186805D03*
X-0000135720Y0000186780D03*
X-0000139220Y0000186780D03*
X-0000146753Y0000186830D03*
X-0000145771Y0000195288D03*
X-0000143700Y0000202500D03*
X-0000139220Y0000195030D03*
X-0000142720Y0000195030D03*
X-0000136220Y0000211168D03*
X-0000136220Y0000215892D03*
X-0000143720Y0000216030D03*
X-0000136100Y0000203325D03*
X-0000136220Y0000207530D03*
X-0000143720Y0000213030D03*
X-0000143720Y0000209030D03*
X-0000136220Y0000218254D03*
X-0000143720Y0000206030D03*
X-0000146606Y0000225014D03*
X-0000143530Y0000224921D03*
X-0000143720Y0000219436D03*
X-0000137720Y0000232530D03*
X-0000136220Y0000220617D03*
X-0000136420Y0000229530D03*
X-0000150499Y0000232530D03*
X-0000141052Y0000232530D03*
X-0000136220Y0000223602D03*
X-0000144220Y0000232530D03*
X-0000149220Y0000240030D03*
X-0000139500Y0000240030D03*
X-0000135220Y0000239985D03*
X-0000120220Y0000212030D03*
X-0000122500Y0000219000D03*
X-0000132220Y0000236990D03*
X-0000106286Y0000184407D03*
X-0000106286Y0000180470D03*
X-0000106286Y0000188344D03*
X-0000106286Y0000200155D03*
X-0000106286Y0000192281D03*
X-0000109700Y0000192200D03*
X-0000110223Y0000196218D03*
X-0000114160Y0000196218D03*
X-0000106286Y0000211966D03*
X-0000114160Y0000208530D03*
X-0000110223Y0000204092D03*
X-0000106286Y0000215903D03*
X-0000106286Y0000204092D03*
X-0000117220Y0000211966D03*
X-0000109100Y0000227800D03*
X-0000106286Y0000227714D03*
X-0000113720Y0000227485D03*
X-0000106286Y0000219840D03*
X-0000115000Y0000219000D03*
X-0000110223Y0000247399D03*
X-0000110223Y0000243462D03*
X-0000106286Y0000263147D03*
X-0000106286Y0000267084D03*
X-0000106220Y0000292030D03*
X-0000106578Y0000296529D03*
X-0000106578Y0000300466D03*
X-0000106090Y0000304550D03*
X-0000087720Y0000146000D03*
X-0000090538Y0000180470D03*
X-0000102349Y0000184407D03*
X-0000098412Y0000180470D03*
X-0000090538Y0000184407D03*
X-0000094475Y0000184407D03*
X-0000094475Y0000180470D03*
X-0000098412Y0000184407D03*
X-0000102349Y0000180470D03*
X-0000094475Y0000192281D03*
X-0000098412Y0000192281D03*
X-0000090538Y0000192281D03*
X-0000094475Y0000196218D03*
X-0000090538Y0000196218D03*
X-0000094475Y0000188344D03*
X-0000098412Y0000188344D03*
X-0000102349Y0000188344D03*
X-0000102349Y0000192281D03*
X-0000102349Y0000196218D03*
X-0000098412Y0000200155D03*
X-0000098412Y0000196218D03*
X-0000094475Y0000200155D03*
X-0000090538Y0000200155D03*
X-0000090538Y0000188344D03*
X-0000094475Y0000208029D03*
X-0000090538Y0000208029D03*
X-0000094475Y0000211966D03*
X-0000090538Y0000211966D03*
X-0000098412Y0000211966D03*
X-0000090538Y0000204092D03*
X-0000102349Y0000204092D03*
X-0000098412Y0000204092D03*
X-0000094475Y0000215903D03*
X-0000094475Y0000204092D03*
X-0000102349Y0000211966D03*
X-0000102349Y0000215903D03*
X-0000098412Y0000215903D03*
X-0000098412Y0000208029D03*
X-0000090538Y0000215903D03*
X-0000098412Y0000219840D03*
X-0000094475Y0000219840D03*
X-0000090538Y0000231651D03*
X-0000094475Y0000231651D03*
X-0000090538Y0000227714D03*
X-0000094475Y0000227714D03*
X-0000102349Y0000227714D03*
X-0000102349Y0000219840D03*
X-0000090538Y0000243462D03*
X-0000090538Y0000235588D03*
X-0000098412Y0000247399D03*
X-0000094475Y0000247399D03*
X-0000090538Y0000239525D03*
X-0000098412Y0000239525D03*
X-0000094475Y0000243462D03*
X-0000094475Y0000239525D03*
X-0000094475Y0000235588D03*
X-0000090538Y0000247399D03*
X-0000098412Y0000235588D03*
X-0000098412Y0000259210D03*
X-0000090538Y0000259210D03*
X-0000102349Y0000259210D03*
X-0000094475Y0000251336D03*
X-0000098412Y0000251336D03*
X-0000102349Y0000255273D03*
X-0000090538Y0000255273D03*
X-0000090538Y0000263147D03*
X-0000094475Y0000259210D03*
X-0000102349Y0000271021D03*
X-0000098412Y0000271021D03*
X-0000094475Y0000267084D03*
X-0000098412Y0000267084D03*
X-0000090720Y0000296530D03*
X-0000102813Y0000291937D03*
X-0000094767Y0000300466D03*
X-0000090830Y0000300466D03*
X-0000094767Y0000304525D03*
X-0000098704Y0000304525D03*
X-0000098704Y0000300466D03*
X-0000090830Y0000304525D03*
X-0000102641Y0000300466D03*
X-0000102641Y0000304525D03*
X-0000071535Y0000113841D03*
X-0000082620Y0000115830D03*
X-0000073735Y0000113841D03*
X-0000078587Y0000122429D03*
X-0000078587Y0000124629D03*
X-0000075488Y0000136130D03*
X-0000082664Y0000184407D03*
X-0000086601Y0000184407D03*
X-0000074790Y0000184407D03*
X-0000078727Y0000184407D03*
X-0000078727Y0000180470D03*
X-0000082664Y0000180470D03*
X-0000086601Y0000180470D03*
X-0000074790Y0000180470D03*
X-0000086601Y0000200155D03*
X-0000078727Y0000192281D03*
X-0000074790Y0000192281D03*
X-0000082664Y0000200155D03*
X-0000078727Y0000196218D03*
X-0000078727Y0000188344D03*
X-0000074790Y0000196218D03*
X-0000074790Y0000200155D03*
X-0000078727Y0000200155D03*
X-0000082664Y0000196218D03*
X-0000074790Y0000188344D03*
X-0000086601Y0000196218D03*
X-0000086601Y0000192281D03*
X-0000082664Y0000188344D03*
X-0000082664Y0000192281D03*
X-0000086601Y0000188344D03*
X-0000078727Y0000208029D03*
X-0000082664Y0000204092D03*
X-0000082664Y0000215903D03*
X-0000082664Y0000211966D03*
X-0000086601Y0000208029D03*
X-0000074790Y0000204092D03*
X-0000074790Y0000215903D03*
X-0000078727Y0000215903D03*
X-0000078727Y0000204092D03*
X-0000086601Y0000211966D03*
X-0000086601Y0000204092D03*
X-0000078727Y0000211966D03*
X-0000082664Y0000208029D03*
X-0000074790Y0000211966D03*
X-0000074790Y0000208029D03*
X-0000074790Y0000227714D03*
X-0000078727Y0000231651D03*
X-0000086601Y0000231651D03*
X-0000082664Y0000219840D03*
X-0000082664Y0000231651D03*
X-0000074790Y0000231651D03*
X-0000074790Y0000219840D03*
X-0000078720Y0000219840D03*
X-0000078727Y0000227714D03*
X-0000078727Y0000239525D03*
X-0000078727Y0000243462D03*
X-0000082664Y0000235588D03*
X-0000078727Y0000235588D03*
X-0000074790Y0000235588D03*
X-0000082664Y0000247399D03*
X-0000086601Y0000247399D03*
X-0000074790Y0000243462D03*
X-0000082664Y0000243462D03*
X-0000086601Y0000235588D03*
X-0000074790Y0000239525D03*
X-0000074790Y0000247399D03*
X-0000078727Y0000247399D03*
X-0000086601Y0000239525D03*
X-0000082664Y0000255273D03*
X-0000086601Y0000259210D03*
X-0000086601Y0000263147D03*
X-0000074790Y0000263147D03*
X-0000082664Y0000251336D03*
X-0000078727Y0000259210D03*
X-0000082664Y0000259210D03*
X-0000082664Y0000263147D03*
X-0000074790Y0000255273D03*
X-0000074790Y0000251336D03*
X-0000078727Y0000251336D03*
X-0000086601Y0000255273D03*
X-0000078727Y0000255273D03*
X-0000082664Y0000267084D03*
X-0000074790Y0000267084D03*
X-0000086725Y0000276280D03*
X-0000082664Y0000270530D03*
X-0000086720Y0000270530D03*
X-0000086601Y0000267084D03*
X-0000086631Y0000273919D03*
X-0000072900Y0000284800D03*
X-0000071600Y0000292530D03*
X-0000086893Y0000300466D03*
X-0000083220Y0000304530D03*
X-0000086893Y0000304403D03*
X-0000073220Y0000335530D03*
X-0000081220Y0000343530D03*
X-0000081220Y0000339530D03*
X-0000077188Y0000337089D03*
X-0000073720Y0000346030D03*
X-0000078600Y0000346000D03*
X-0000063677Y0000101530D03*
X-0000057771Y0000101530D03*
X-0000069582Y0000101530D03*
X-0000066720Y0000121330D03*
X-0000065530Y0000116688D03*
X-0000067730Y0000116688D03*
X-0000058720Y0000116730D03*
X-0000055669Y0000113779D03*
X-0000060920Y0000116730D03*
X-0000059464Y0000119030D03*
X-0000070720Y0000119030D03*
X-0000059625Y0000124272D03*
X-0000061825Y0000124272D03*
X-0000069220Y0000124530D03*
X-0000057771Y0000136130D03*
X-0000069582Y0000136130D03*
X-0000063677Y0000136130D03*
X-0000066720Y0000123530D03*
X-0000059042Y0000184407D03*
X-0000066916Y0000184407D03*
X-0000070853Y0000184407D03*
X-0000070853Y0000180470D03*
X-0000059042Y0000180470D03*
X-0000066916Y0000180470D03*
X-0000066916Y0000196218D03*
X-0000070853Y0000188344D03*
X-0000059042Y0000196218D03*
X-0000070853Y0000192281D03*
X-0000070853Y0000196218D03*
X-0000066916Y0000192281D03*
X-0000059042Y0000192281D03*
X-0000066916Y0000188344D03*
X-0000059042Y0000200155D03*
X-0000066916Y0000200155D03*
X-0000059042Y0000188344D03*
X-0000070853Y0000200155D03*
X-0000059042Y0000211966D03*
X-0000070853Y0000208029D03*
X-0000070853Y0000215903D03*
X-0000059042Y0000204092D03*
X-0000070853Y0000204092D03*
X-0000066916Y0000204092D03*
X-0000066916Y0000215903D03*
X-0000059042Y0000215903D03*
X-0000066916Y0000211966D03*
X-0000066916Y0000208029D03*
X-0000059042Y0000208029D03*
X-0000070853Y0000211966D03*
X-0000070853Y0000227714D03*
X-0000066916Y0000227714D03*
X-0000066916Y0000219840D03*
X-0000059042Y0000219840D03*
X-0000066916Y0000231651D03*
X-0000059042Y0000227714D03*
X-0000070853Y0000219840D03*
X-0000070853Y0000231651D03*
X-0000059042Y0000231651D03*
X-0000059042Y0000235588D03*
X-0000066916Y0000235588D03*
X-0000066916Y0000239530D03*
X-0000070853Y0000235588D03*
X-0000070853Y0000247399D03*
X-0000070853Y0000243462D03*
X-0000059042Y0000243462D03*
X-0000059042Y0000247399D03*
X-0000066916Y0000247399D03*
X-0000066916Y0000243462D03*
X-0000059042Y0000239525D03*
X-0000070853Y0000239525D03*
X-0000059042Y0000263147D03*
X-0000066916Y0000263147D03*
X-0000066916Y0000259210D03*
X-0000059042Y0000255273D03*
X-0000059042Y0000259210D03*
X-0000059042Y0000251336D03*
X-0000070853Y0000259210D03*
X-0000066916Y0000255273D03*
X-0000070853Y0000255273D03*
X-0000070853Y0000263147D03*
X-0000066916Y0000251336D03*
X-0000059042Y0000267084D03*
X-0000066916Y0000267084D03*
X-0000070853Y0000267084D03*
X-0000070000Y0000285300D03*
X-0000057500Y0000292800D03*
X-0000068220Y0000287030D03*
X-0000068220Y0000290030D03*
X-0000058141Y0000297601D03*
X-0000069420Y0000300155D03*
X-0000069420Y0000303255D03*
X-0000063830Y0000299409D03*
X-0000063830Y0000302909D03*
X-0000056863Y0000306680D03*
X-0000061593Y0000309093D03*
X-0000055488Y0000328651D03*
X-0000059425Y0000328651D03*
X-0000067220Y0000320730D03*
X-0000063220Y0000316959D03*
X-0000067236Y0000324714D03*
X-0000067299Y0000328651D03*
X-0000063299Y0000324714D03*
X-0000063283Y0000320730D03*
X-0000064720Y0000343404D03*
X-0000064720Y0000339467D03*
X-0000064600Y0000335135D03*
X-0000040055Y0000101530D03*
X-0000051866Y0000101530D03*
X-0000045960Y0000101530D03*
X-0000051911Y0000121330D03*
X-0000042320Y0000116730D03*
X-0000051213Y0000115341D03*
X-0000049013Y0000115341D03*
X-0000044520Y0000116730D03*
X-0000053520Y0000113830D03*
X-0000044107Y0000137643D03*
X-0000051911Y0000123530D03*
X-0000041907Y0000137643D03*
X-0000051866Y0000136130D03*
X-0000046720Y0000136530D03*
X-0000047120Y0000140230D03*
X-0000047120Y0000142430D03*
X-0000042412Y0000156088D03*
X-0000042412Y0000158680D03*
X-0000051168Y0000184407D03*
X-0000043294Y0000180470D03*
X-0000051168Y0000180470D03*
X-0000055105Y0000180470D03*
X-0000047231Y0000184407D03*
X-0000043294Y0000184407D03*
X-0000055105Y0000184407D03*
X-0000047231Y0000200155D03*
X-0000051168Y0000196218D03*
X-0000043294Y0000196218D03*
X-0000047231Y0000196218D03*
X-0000051168Y0000188344D03*
X-0000055105Y0000188344D03*
X-0000043294Y0000188344D03*
X-0000055105Y0000192281D03*
X-0000043294Y0000200155D03*
X-0000051168Y0000200155D03*
X-0000047231Y0000188344D03*
X-0000055105Y0000200155D03*
X-0000047231Y0000192281D03*
X-0000055105Y0000196218D03*
X-0000043294Y0000192281D03*
X-0000051168Y0000192281D03*
X-0000047231Y0000204092D03*
X-0000047231Y0000208029D03*
X-0000051168Y0000208029D03*
X-0000051168Y0000211966D03*
X-0000055105Y0000211966D03*
X-0000047231Y0000211966D03*
X-0000055105Y0000208029D03*
X-0000055105Y0000204092D03*
X-0000043294Y0000204092D03*
X-0000051168Y0000204092D03*
X-0000055105Y0000215903D03*
X-0000051168Y0000215903D03*
X-0000043294Y0000215903D03*
X-0000043294Y0000211966D03*
X-0000043294Y0000208029D03*
X-0000055105Y0000231651D03*
X-0000055105Y0000219840D03*
X-0000043294Y0000219840D03*
X-0000055105Y0000227714D03*
X-0000047231Y0000227714D03*
X-0000051168Y0000219840D03*
X-0000051168Y0000231651D03*
X-0000047231Y0000231651D03*
X-0000051168Y0000227714D03*
X-0000047231Y0000219840D03*
X-0000043294Y0000227714D03*
X-0000043294Y0000231651D03*
X-0000047231Y0000239525D03*
X-0000043294Y0000247399D03*
X-0000047231Y0000247399D03*
X-0000055105Y0000239525D03*
X-0000043294Y0000243462D03*
X-0000051168Y0000235588D03*
X-0000043294Y0000235588D03*
X-0000055105Y0000247399D03*
X-0000047231Y0000243462D03*
X-0000055105Y0000243462D03*
X-0000051168Y0000247399D03*
X-0000051168Y0000243462D03*
X-0000055105Y0000235588D03*
X-0000051168Y0000239525D03*
X-0000047231Y0000235588D03*
X-0000043294Y0000239525D03*
X-0000055105Y0000251336D03*
X-0000047231Y0000259210D03*
X-0000055105Y0000255273D03*
X-0000051168Y0000251336D03*
X-0000055105Y0000259210D03*
X-0000051168Y0000263147D03*
X-0000043294Y0000263147D03*
X-0000043294Y0000259210D03*
X-0000051168Y0000259210D03*
X-0000043294Y0000255273D03*
X-0000055105Y0000263147D03*
X-0000047231Y0000255273D03*
X-0000047231Y0000263147D03*
X-0000047231Y0000251336D03*
X-0000051168Y0000255273D03*
X-0000043294Y0000251336D03*
X-0000051168Y0000267084D03*
X-0000043294Y0000267084D03*
X-0000055105Y0000267084D03*
X-0000047231Y0000267084D03*
X-0000049720Y0000278930D03*
X-0000053370Y0000278880D03*
X-0000048800Y0000317030D03*
X-0000034149Y0000101530D03*
X-0000028244Y0000101530D03*
X-0000038220Y0000123373D03*
X-0000024820Y0000122430D03*
X-0000027019Y0000122430D03*
X-0000029820Y0000116630D03*
X-0000027123Y0000116669D03*
X-0000038202Y0000113541D03*
X-0000024923Y0000116669D03*
X-0000032020Y0000116630D03*
X-0000036002Y0000113541D03*
X-0000034464Y0000119030D03*
X-0000036020Y0000123373D03*
X-0000032296Y0000137643D03*
X-0000030096Y0000137643D03*
X-0000039120Y0000137530D03*
X-0000028244Y0000136130D03*
X-0000034149Y0000136130D03*
X-0000023720Y0000136130D03*
X-0000025220Y0000158030D03*
X-0000033720Y0000157530D03*
X-0000039357Y0000184407D03*
X-0000027546Y0000184407D03*
X-0000027546Y0000180470D03*
X-0000035420Y0000180470D03*
X-0000031483Y0000180470D03*
X-0000023609Y0000184407D03*
X-0000039357Y0000180470D03*
X-0000035420Y0000184407D03*
X-0000031483Y0000184407D03*
X-0000039357Y0000192281D03*
X-0000039357Y0000188344D03*
X-0000039357Y0000196218D03*
X-0000031483Y0000188344D03*
X-0000035420Y0000192281D03*
X-0000035420Y0000200155D03*
X-0000039357Y0000200155D03*
X-0000031483Y0000192281D03*
X-0000035420Y0000196218D03*
X-0000027546Y0000188344D03*
X-0000035420Y0000188344D03*
X-0000027546Y0000200155D03*
X-0000031483Y0000200155D03*
X-0000027546Y0000196218D03*
X-0000027546Y0000192281D03*
X-0000023609Y0000192281D03*
X-0000031483Y0000196218D03*
X-0000023609Y0000196218D03*
X-0000031483Y0000215903D03*
X-0000035420Y0000204092D03*
X-0000027546Y0000208029D03*
X-0000031483Y0000204092D03*
X-0000031483Y0000211966D03*
X-0000027546Y0000211966D03*
X-0000035420Y0000208029D03*
X-0000035420Y0000211966D03*
X-0000035420Y0000215903D03*
X-0000023609Y0000208029D03*
X-0000031483Y0000208029D03*
X-0000039357Y0000211966D03*
X-0000027546Y0000215903D03*
X-0000039357Y0000215903D03*
X-0000039357Y0000208029D03*
X-0000039357Y0000204092D03*
X-0000023609Y0000211966D03*
X-0000031483Y0000219840D03*
X-0000039357Y0000227714D03*
X-0000023609Y0000227714D03*
X-0000035420Y0000231651D03*
X-0000035420Y0000219840D03*
X-0000027546Y0000227714D03*
X-0000031483Y0000227714D03*
X-0000035420Y0000227714D03*
X-0000031483Y0000231651D03*
X-0000039357Y0000219840D03*
X-0000039357Y0000231651D03*
X-0000031483Y0000243462D03*
X-0000031483Y0000247399D03*
X-0000023609Y0000247399D03*
X-0000027546Y0000247399D03*
X-0000035420Y0000247399D03*
X-0000027546Y0000243462D03*
X-0000039357Y0000247399D03*
X-0000039357Y0000243462D03*
X-0000035420Y0000243462D03*
X-0000023609Y0000243462D03*
X-0000031483Y0000235588D03*
X-0000031483Y0000239525D03*
X-0000035420Y0000239525D03*
X-0000027546Y0000235588D03*
X-0000039357Y0000239525D03*
X-0000035420Y0000235588D03*
X-0000039357Y0000235588D03*
X-0000039357Y0000255273D03*
X-0000031483Y0000259210D03*
X-0000035420Y0000259210D03*
X-0000031483Y0000263147D03*
X-0000039357Y0000263147D03*
X-0000031483Y0000255273D03*
X-0000035420Y0000251336D03*
X-0000023609Y0000251336D03*
X-0000031483Y0000251337D03*
X-0000035420Y0000255273D03*
X-0000027546Y0000251336D03*
X-0000027546Y0000263147D03*
X-0000027546Y0000255273D03*
X-0000035420Y0000263147D03*
X-0000039357Y0000259210D03*
X-0000023609Y0000255273D03*
X-0000039357Y0000267084D03*
X-0000035420Y0000267084D03*
X-0000031483Y0000267084D03*
X-0000035220Y0000292530D03*
X-0000035220Y0000289130D03*
X-0000029720Y0000306680D03*
X-0000034720Y0000306680D03*
X-0000026400Y0000306675D03*
X-0000025220Y0000327530D03*
X-0000025220Y0000332530D03*
X-0000022338Y0000101530D03*
X-0000014477Y0000115830D03*
X-0000014477Y0000113630D03*
X-0000022720Y0000115230D03*
X-0000020486Y0000121672D03*
X-0000018286Y0000121672D03*
X-0000016720Y0000155780D03*
X-0000019672Y0000180470D03*
X-0000019672Y0000196218D03*
X-0000019672Y0000192281D03*
X-0000015735Y0000196218D03*
X-0000015735Y0000208029D03*
X-0000015735Y0000211966D03*
X-0000019672Y0000211966D03*
X-0000019672Y0000208029D03*
X-0000019672Y0000227714D03*
X-0000015735Y0000219840D03*
X-0000019672Y0000231651D03*
X-0000019672Y0000263147D03*
X-0000019300Y0000259900D03*
X-0000019672Y0000255273D03*
X-0000017695Y0000257600D03*
X-0000015100Y0000255273D03*
X-0000019672Y0000251336D03*
X-0000021210Y0000271690D03*
X-0000019672Y0000267084D03*
X-0000019320Y0000295030D03*
X-0000022720Y0000295030D03*
X-0000018220Y0000290380D03*
X-0000020220Y0000332530D03*
X-0000020220Y0000342530D03*
X0000003252Y0000101530D03*
X0000007305Y0000114741D03*
X0000005105Y0000114741D03*
X0000002280Y0000114530D03*
X0000007780Y0000119030D03*
X0000007305Y0000124020D03*
X0000005105Y0000124020D03*
X0000003252Y0000136130D03*
X0000007780Y0000153030D03*
X0000007780Y0000148030D03*
X-0000000939Y0000231680D03*
X-0000000939Y0000228180D03*
X0000002280Y0000220530D03*
X-0000007220Y0000250530D03*
X-0000007220Y0000240530D03*
X-0000004270Y0000246500D03*
X-0000007220Y0000235530D03*
X-0000000770Y0000246530D03*
X0000002280Y0000237530D03*
X0000002780Y0000246530D03*
X0000002780Y0000250375D03*
X-0000007220Y0000255375D03*
X0000003835Y0000255475D03*
X0000002280Y0000337530D03*
X0000007280Y0000335030D03*
X-0000005220Y0000346030D03*
X0000020969Y0000101530D03*
X0000015063Y0000101530D03*
X0000009158Y0000101530D03*
X0000012326Y0000114730D03*
X0000023680Y0000114630D03*
X0000019116Y0000114741D03*
X0000016916Y0000114741D03*
X0000010126Y0000114730D03*
X0000019276Y0000119030D03*
X0000022822Y0000137643D03*
X0000011011Y0000137643D03*
X0000016916Y0000124020D03*
X0000013211Y0000137643D03*
X0000009680Y0000124030D03*
X0000015063Y0000136130D03*
X0000020969Y0000136130D03*
X0000019116Y0000124020D03*
X0000021853Y0000216030D03*
X0000011607Y0000212760D03*
X0000011607Y0000209611D03*
X0000017905Y0000212760D03*
X0000014756Y0000215909D03*
X0000014756Y0000212760D03*
X0000017905Y0000215909D03*
X0000021054Y0000209611D03*
X0000011608Y0000215910D03*
X0000014756Y0000209611D03*
X0000021056Y0000219061D03*
X0000017905Y0000225358D03*
X0000008280Y0000219030D03*
X0000011608Y0000222209D03*
X0000014757Y0000222209D03*
X0000011608Y0000228508D03*
X0000014756Y0000228507D03*
X0000014756Y0000225358D03*
X0000017907Y0000219061D03*
X0000021056Y0000225358D03*
X0000017906Y0000231657D03*
X0000011608Y0000219060D03*
X0000011608Y0000225358D03*
X0000017906Y0000228506D03*
X0000014756Y0000219058D03*
X0000017906Y0000222207D03*
X0000011607Y0000247405D03*
X0000017906Y0000237955D03*
X0000017906Y0000234806D03*
X0000014757Y0000234806D03*
X0000011607Y0000250554D03*
X0000014757Y0000237955D03*
X0000011607Y0000253703D03*
X0000011607Y0000260001D03*
X0000011607Y0000256852D03*
X0000019280Y0000343530D03*
X0000019280Y0000335030D03*
X0000019780Y0000354439D03*
X0000038686Y0000101530D03*
X0000032780Y0000101530D03*
X0000026874Y0000101530D03*
X0000038280Y0000121330D03*
X0000028727Y0000114741D03*
X0000034633Y0000114741D03*
X0000036833Y0000114741D03*
X0000025880Y0000114630D03*
X0000030927Y0000114741D03*
X0000032780Y0000119030D03*
X0000025022Y0000137643D03*
X0000028727Y0000123972D03*
X0000036833Y0000137643D03*
X0000030926Y0000123972D03*
X0000026874Y0000136130D03*
X0000032480Y0000136230D03*
X0000038686Y0000136130D03*
X0000034633Y0000137643D03*
X0000035080Y0000185830D03*
X0000037080Y0000183430D03*
X0000037280Y0000187985D03*
X0000030505Y0000215912D03*
X0000024957Y0000216030D03*
X0000030505Y0000212763D03*
X0000039952Y0000212763D03*
X0000036803Y0000209614D03*
X0000033654Y0000212763D03*
X0000033654Y0000209614D03*
X0000033654Y0000215912D03*
X0000039952Y0000209411D03*
X0000039952Y0000215709D03*
X0000039952Y0000206262D03*
X0000030503Y0000222210D03*
X0000036803Y0000225359D03*
X0000027354Y0000222210D03*
X0000027280Y0000219030D03*
X0000030503Y0000231657D03*
X0000025854Y0000232511D03*
X0000025780Y0000230030D03*
X0000036803Y0000231657D03*
X0000039952Y0000219059D03*
X0000039952Y0000228508D03*
X0000036803Y0000222210D03*
X0000033654Y0000228508D03*
X0000030503Y0000219061D03*
X0000030503Y0000225359D03*
X0000027354Y0000225359D03*
X0000036803Y0000228508D03*
X0000033654Y0000225359D03*
X0000033654Y0000231657D03*
X0000039952Y0000231657D03*
X0000039952Y0000225359D03*
X0000039952Y0000222210D03*
X0000033654Y0000219061D03*
X0000036803Y0000234806D03*
X0000027354Y0000237958D03*
X0000027354Y0000247405D03*
X0000024205Y0000234809D03*
X0000027354Y0000241107D03*
X0000024205Y0000244256D03*
X0000024205Y0000247405D03*
X0000024205Y0000250554D03*
X0000024205Y0000237958D03*
X0000027354Y0000250554D03*
X0000024205Y0000241107D03*
X0000027354Y0000244256D03*
X0000033654Y0000234806D03*
X0000030505Y0000234806D03*
X0000039952Y0000250554D03*
X0000036803Y0000241107D03*
X0000027354Y0000256852D03*
X0000024205Y0000260001D03*
X0000027354Y0000253703D03*
X0000027354Y0000266299D03*
X0000024205Y0000256852D03*
X0000024205Y0000266299D03*
X0000027354Y0000260001D03*
X0000027354Y0000263150D03*
X0000024205Y0000253703D03*
X0000024205Y0000263150D03*
X0000039952Y0000260001D03*
X0000036803Y0000253703D03*
X0000034750Y0000265500D03*
X0000039952Y0000256852D03*
X0000037500Y0000264000D03*
X0000039235Y0000278203D03*
X0000038485Y0000281735D03*
X0000034359Y0000281735D03*
X0000024205Y0000272597D03*
X0000024205Y0000269448D03*
X0000027354Y0000269448D03*
X0000038422Y0000285672D03*
X0000034359Y0000285672D03*
X0000038359Y0000289609D03*
X0000034359Y0000289609D03*
X0000038296Y0000293546D03*
X0000034359Y0000293546D03*
X0000038327Y0000297483D03*
X0000034359Y0000297483D03*
X0000038390Y0000301420D03*
X0000034359Y0000305357D03*
X0000038453Y0000305357D03*
X0000032280Y0000342286D03*
X0000032280Y0000335030D03*
X0000039280Y0000354439D03*
X0000034189Y0000354439D03*
X0000050497Y0000101530D03*
X0000044591Y0000101530D03*
X0000052249Y0000114688D03*
X0000044980Y0000116654D03*
X0000054449Y0000114688D03*
X0000042738Y0000114688D03*
X0000040538Y0000114688D03*
X0000047180Y0000116654D03*
X0000044276Y0000119030D03*
X0000050280Y0000122030D03*
X0000044780Y0000122030D03*
X0000040480Y0000121330D03*
X0000046444Y0000137643D03*
X0000052349Y0000123972D03*
X0000054549Y0000123972D03*
X0000048644Y0000137643D03*
X0000050497Y0000136247D03*
X0000044591Y0000136130D03*
X0000043101Y0000215709D03*
X0000043101Y0000212560D03*
X0000043101Y0000206262D03*
X0000043101Y0000209411D03*
X0000043101Y0000218858D03*
X0000041780Y0000245530D03*
X0000051030Y0000245530D03*
X0000055780Y0000278030D03*
X0000052480Y0000278030D03*
X0000046900Y0000322500D03*
X0000050100Y0000322500D03*
X0000041780Y0000327030D03*
X0000041780Y0000332030D03*
X0000056402Y0000101530D03*
X0000060780Y0000114960D03*
X0000065280Y0000115030D03*
X0000056280Y0000119030D03*
X0000058280Y0000136430D03*
X0000063380Y0000125530D03*
X0000068780Y0000266030D03*
X0000063780Y0000266030D03*
X0000063780Y0000262030D03*
X0000059780Y0000262030D03*
X0000059890Y0000266030D03*
X0000069780Y0000278030D03*
X0000065280Y0000278030D03*
X0000058950Y0000278050D03*
X0000061800Y0000278000D03*
X0000057000Y0000322530D03*
X0000071730Y0000322530D03*
X0000060280Y0000322530D03*
X0000085717Y0000114530D03*
X0000081780Y0000114530D03*
X0000081200Y0000122400D03*
X0000081000Y0000126100D03*
X0000084955Y0000124070D03*
X0000077200Y0000126100D03*
X0000082280Y0000262030D03*
X0000077280Y0000262030D03*
X0000073280Y0000266030D03*
X0000086280Y0000262030D03*
X0000073780Y0000278030D03*
X0000082280Y0000354439D03*
X0000076280Y0000354439D03*
X0000072280Y0000354439D03*
X0000090780Y0000114530D03*
X0000094780Y0000114530D03*
X0000088045Y0000124070D03*
X0000091280Y0000262030D03*
X0000091280Y0000258030D03*
X0000095280Y0000307600D03*
X0000093300Y0000314380D03*
X0000095780Y0000354439D03*
X0000092030Y0000354439D03*
G54D23*
X-0000118519Y0000367987D03*
X-0000115370Y0000372711D03*
X-0000112220Y0000367987D03*
X-0000109070Y0000372711D03*
X-0000105921Y0000367987D03*
X-0000086551Y0000108518D03*
X-0000076519Y0000367987D03*
X-0000073370Y0000372711D03*
X-0000070220Y0000367987D03*
X-0000067070Y0000372711D03*
X-0000063921Y0000367987D03*
X0000150142Y0000108518D03*
G54D33*
G01X-0000179500Y0000267500D02*
X-0000189000Y0000277000D01*
X-0000189000Y0000287500D01*
X-0000185500Y0000291000D01*
X-0000185500Y0000298000D01*
X-0000183220Y0000300280D01*
G01X-0000193960Y0000336000D02*
X-0000193960Y0000290270D01*
G01X-0000193960Y0000336000D02*
X-0000193960Y0000372683D01*
X-0000195807Y0000374530D01*
G54D15*
X-0000206620Y0000117130D03*
X-0000206620Y0000162130D03*
G54D24*
X-0000106115Y0000153910D03*
X-0000110840Y0000153910D03*
X-0000108477Y0000153910D03*
X-0000106115Y0000151547D03*
X-0000110840Y0000151547D03*
X-0000108477Y0000151547D03*
X-0000108477Y0000158634D03*
X-0000110840Y0000158634D03*
X-0000106115Y0000158634D03*
X-0000106115Y0000156272D03*
X-0000110840Y0000156272D03*
X-0000108477Y0000156272D03*
X0000014123Y0000177026D03*
X0000011760Y0000177026D03*
X0000016485Y0000177026D03*
X0000016485Y0000179388D03*
X0000011760Y0000179388D03*
X0000014123Y0000179388D03*
X0000016485Y0000181750D03*
X0000011760Y0000181750D03*
X0000014123Y0000181750D03*
X0000016485Y0000184113D03*
X0000011760Y0000184113D03*
X0000014123Y0000184113D03*
X0000102066Y0000194051D03*
X0000102066Y0000198776D03*
X0000102066Y0000196414D03*
X0000116240Y0000198776D03*
X0000116240Y0000196414D03*
X0000118602Y0000198776D03*
X0000118602Y0000196414D03*
X0000111515Y0000194051D03*
X0000109153Y0000194051D03*
X0000106791Y0000194051D03*
X0000104429Y0000194051D03*
X0000113877Y0000194051D03*
X0000116240Y0000194051D03*
X0000118602Y0000194051D03*
X0000113877Y0000198776D03*
X0000113877Y0000196414D03*
X0000104429Y0000196414D03*
X0000104429Y0000198776D03*
X0000106791Y0000196414D03*
X0000106791Y0000198776D03*
X0000109153Y0000196414D03*
X0000109153Y0000198776D03*
X0000111515Y0000196414D03*
X0000111515Y0000198776D03*
X0000120964Y0000198776D03*
X0000120964Y0000196414D03*
X0000123326Y0000198776D03*
X0000123326Y0000196414D03*
X0000120964Y0000194051D03*
X0000123326Y0000194051D03*
X0000167197Y0000308325D03*
X0000167197Y0000313050D03*
X0000167197Y0000310687D03*
X0000174284Y0000310687D03*
X0000174284Y0000313050D03*
X0000174284Y0000308325D03*
X0000171922Y0000308325D03*
X0000171922Y0000313050D03*
X0000171922Y0000310687D03*
X0000169560Y0000308325D03*
X0000169560Y0000313050D03*
X0000169560Y0000310687D03*
G54D34*
G01X-0000086601Y0000235588D02*
X-0000088551Y0000237538D01*
X-0000095246Y0000237538D01*
X-0000096425Y0000238717D01*
X-0000096425Y0000240735D01*
X-0000098870Y0000243180D01*
X-0000106004Y0000243180D01*
X-0000110223Y0000247399D01*
G54D16*
X-0000202644Y0000127642D03*
X-0000202644Y0000135634D03*
X-0000195557Y0000127642D03*
X-0000195557Y0000135634D03*
X-0000202644Y0000143626D03*
X-0000202644Y0000151618D03*
X-0000195557Y0000143626D03*
X-0000195557Y0000151618D03*
X-0000188116Y0000126638D03*
X-0000183116Y0000131638D03*
X-0000188116Y0000152622D03*
X-0000183116Y0000147622D03*
X-0000178116Y0000126638D03*
X-0000173116Y0000131638D03*
X-0000168116Y0000126638D03*
X-0000178116Y0000152622D03*
X-0000173116Y0000147622D03*
X-0000168116Y0000152622D03*
X-0000163116Y0000131638D03*
X-0000158116Y0000126638D03*
X-0000153116Y0000131638D03*
X-0000148116Y0000126638D03*
X-0000163116Y0000147622D03*
X-0000158116Y0000152622D03*
X-0000153116Y0000147622D03*
X-0000148116Y0000152622D03*
X-0000143116Y0000131638D03*
X-0000143116Y0000147622D03*
G54D25*
G01X0000089000Y0000297500D02*
X0000089000Y0000311200D01*
X0000082900Y0000317300D01*
X0000058200Y0000317300D01*
X0000053000Y0000322500D01*
X-0000008309Y0000283593D03*
X-0000014657Y0000293040D03*
X-0000014700Y0000296400D03*
X-0000017806Y0000299338D03*
X-0000014657Y0000299337D03*
X-0000020955Y0000305636D03*
X-0000017806Y0000308680D03*
X-0000014657Y0000308575D03*
X-0000014657Y0000305636D03*
X-0000011508Y0000324530D03*
X-0000011508Y0000327679D03*
X-0000008720Y0000324530D03*
X-0000014220Y0000324530D03*
X-0000014720Y0000315530D03*
X-0000017720Y0000315530D03*
X-0000017720Y0000321219D03*
X-0000002011Y0000280444D03*
X0000001128Y0000280444D03*
X0000007436Y0000280444D03*
X0000007436Y0000277295D03*
X0000004287Y0000277295D03*
X0000004287Y0000280444D03*
X-0000005160Y0000280444D03*
X0000005683Y0000293530D03*
X-0000001220Y0000296381D03*
X0000007100Y0000283593D03*
X-0000004720Y0000296381D03*
X-0000005196Y0000293506D03*
X0000001128Y0000283593D03*
X0000002827Y0000293483D03*
X-0000002021Y0000283593D03*
X0000007780Y0000293530D03*
X-0000005160Y0000283593D03*
X0000007280Y0000313530D03*
X-0000004720Y0000302530D03*
X-0000001335Y0000311922D03*
X0000001030Y0000301780D03*
X0000001600Y0000313500D03*
X-0000004720Y0000299530D03*
X-0000004720Y0000308530D03*
X-0000004720Y0000305530D03*
X0000004530Y0000301780D03*
X0000004380Y0000313530D03*
X0000007386Y0000324530D03*
X-0000003276Y0000314976D03*
X-0000002061Y0000324530D03*
X0000007386Y0000327679D03*
X-0000004720Y0000324530D03*
X0000001088Y0000324530D03*
X0000001088Y0000327679D03*
X0000004237Y0000327679D03*
X-0000002061Y0000327679D03*
X0000004237Y0000324530D03*
X-0000005315Y0000314906D03*
X0000020032Y0000280444D03*
X0000016883Y0000280444D03*
X0000010625Y0000277295D03*
X0000010605Y0000280444D03*
X0000023181Y0000280444D03*
X0000016780Y0000293030D03*
X0000013774Y0000283593D03*
X0000012780Y0000293030D03*
X0000010780Y0000293530D03*
X0000015200Y0000297255D03*
X0000014280Y0000294535D03*
X0000010475Y0000283585D03*
X0000020032Y0000283593D03*
X0000023181Y0000283593D03*
X0000016883Y0000283593D03*
X0000015335Y0000305840D03*
X0000015296Y0000302833D03*
X0000009780Y0000307530D03*
X0000010600Y0000301800D03*
X0000010230Y0000304780D03*
X0000010280Y0000313530D03*
X0000015300Y0000299955D03*
X0000015280Y0000308530D03*
X0000008530Y0000301780D03*
X0000010535Y0000327679D03*
X0000019982Y0000324530D03*
X0000023131Y0000324530D03*
X0000016833Y0000327679D03*
X0000010535Y0000324530D03*
X0000016833Y0000324530D03*
X0000013684Y0000324530D03*
X0000013684Y0000327679D03*
X0000023131Y0000327679D03*
X0000015362Y0000314948D03*
X0000026330Y0000293040D03*
X0000026330Y0000289891D03*
X0000026330Y0000283593D03*
X0000026330Y0000286742D03*
X0000029680Y0000302530D03*
X0000026300Y0000310485D03*
X0000026260Y0000308350D03*
X0000026330Y0000305636D03*
X0000026330Y0000302487D03*
X0000029780Y0000299338D03*
X0000026330Y0000299338D03*
X0000026330Y0000324530D03*
X0000026330Y0000321381D03*
X0000026330Y0000314325D03*
X0000026330Y0000318232D03*
G54D35*
G01X-0000059042Y0000211966D02*
X-0000059042Y0000210898D01*
X-0000059320Y0000210620D01*
X-0000061646Y0000210620D01*
X-0000065724Y0000206542D01*
X-0000075806Y0000206542D01*
X-0000077259Y0000205089D01*
X-0000077259Y0000187306D01*
X-0000077671Y0000186894D01*
X-0000079706Y0000186894D01*
X-0000081177Y0000185423D01*
X-0000081177Y0000183023D01*
X-0000080074Y0000181920D01*
X-0000078126Y0000181920D01*
X-0000077240Y0000181034D01*
X-0000077240Y0000178808D01*
X-0000077818Y0000178230D01*
X-0000081768Y0000178230D01*
X-0000083298Y0000176700D01*
X-0000092318Y0000176700D01*
X-0000093420Y0000175598D01*
X-0000093420Y0000155930D01*
X-0000092620Y0000155130D01*
X-0000092620Y0000153148D01*
X-0000091518Y0000152046D01*
X-0000089720Y0000152046D01*
X-0000089320Y0000151646D01*
X-0000089320Y0000150846D01*
X-0000089720Y0000150446D01*
X-0000091518Y0000150446D01*
X-0000092620Y0000149344D01*
X-0000092620Y0000147548D01*
X-0000091518Y0000146446D01*
X-0000090820Y0000146446D01*
X-0000090420Y0000146046D01*
X-0000090420Y0000145246D01*
X-0000090820Y0000144846D01*
X-0000091518Y0000144846D01*
X-0000092620Y0000143744D01*
X-0000092620Y0000141948D01*
X-0000091518Y0000140846D01*
X-0000090820Y0000140846D01*
X-0000090420Y0000140446D01*
X-0000090420Y0000139130D01*
X-0000087220Y0000135930D01*
X-0000087220Y0000133430D01*
X-0000087620Y0000133030D01*
X-0000090418Y0000133030D01*
X-0000091520Y0000131928D01*
X-0000091520Y0000130132D01*
X-0000090418Y0000129030D01*
X-0000087820Y0000129030D01*
X-0000087220Y0000128430D01*
X-0000087220Y0000127630D01*
X-0000087620Y0000127230D01*
X-0000089418Y0000127230D01*
X-0000090520Y0000126128D01*
X-0000090520Y0000124332D01*
X-0000089418Y0000123230D01*
X-0000087620Y0000123230D01*
X-0000087220Y0000122830D01*
X-0000087220Y0000120532D01*
X-0000084401Y0000117713D01*
X-0000082839Y0000117713D01*
X-0000081351Y0000119201D01*
X-0000080163Y0000119201D01*
X-0000079591Y0000118629D01*
X-0000079591Y0000118067D01*
X-0000081020Y0000116638D01*
X-0000081020Y0000114332D01*
X-0000077220Y0000110532D01*
X-0000077220Y0000107430D01*
X-0000076020Y0000106230D01*
X-0000069722Y0000106230D01*
X-0000068620Y0000107332D01*
X-0000068620Y0000115428D01*
X-0000070222Y0000117030D01*
X-0000071622Y0000117030D01*
X-0000072407Y0000117815D01*
X-0000072407Y0000121430D01*
X-0000072007Y0000121830D01*
X-0000067220Y0000121830D01*
X-0000066720Y0000121330D01*
G01X-0000059042Y0000208029D02*
X-0000059042Y0000209097D01*
X-0000059565Y0000209620D01*
X-0000061231Y0000209620D01*
X-0000065309Y0000205542D01*
X-0000075391Y0000205542D01*
X-0000076259Y0000204674D01*
X-0000076259Y0000186891D01*
X-0000077256Y0000185894D01*
X-0000079291Y0000185894D01*
X-0000080177Y0000185008D01*
X-0000080177Y0000183438D01*
X-0000079659Y0000182920D01*
X-0000077711Y0000182920D01*
X-0000076240Y0000181449D01*
X-0000076240Y0000179869D01*
X-0000076040Y0000179669D01*
X-0000076040Y0000178310D01*
X-0000077320Y0000177030D01*
X-0000081270Y0000177030D01*
X-0000082800Y0000175500D01*
X-0000091820Y0000175500D01*
X-0000092220Y0000175100D01*
X-0000092220Y0000156428D01*
X-0000091420Y0000155628D01*
X-0000091420Y0000153646D01*
X-0000091020Y0000153246D01*
X-0000089222Y0000153246D01*
X-0000088120Y0000152144D01*
X-0000088120Y0000150348D01*
X-0000089222Y0000149246D01*
X-0000091020Y0000149246D01*
X-0000091420Y0000148846D01*
X-0000091420Y0000148046D01*
X-0000091020Y0000147646D01*
X-0000090322Y0000147646D01*
X-0000089220Y0000146544D01*
X-0000089220Y0000144748D01*
X-0000090322Y0000143646D01*
X-0000091020Y0000143646D01*
X-0000091420Y0000143246D01*
X-0000091420Y0000142446D01*
X-0000091020Y0000142046D01*
X-0000090322Y0000142046D01*
X-0000089220Y0000140944D01*
X-0000089220Y0000139628D01*
X-0000086020Y0000136428D01*
X-0000086020Y0000132932D01*
X-0000087122Y0000131830D01*
X-0000089920Y0000131830D01*
X-0000090320Y0000131430D01*
X-0000090320Y0000130630D01*
X-0000089920Y0000130230D01*
X-0000087322Y0000130230D01*
X-0000086020Y0000128928D01*
X-0000086020Y0000127132D01*
X-0000087122Y0000126030D01*
X-0000088920Y0000126030D01*
X-0000089320Y0000125630D01*
X-0000089320Y0000124830D01*
X-0000088920Y0000124430D01*
X-0000087122Y0000124430D01*
X-0000086020Y0000123328D01*
X-0000086020Y0000121030D01*
X-0000083903Y0000118913D01*
X-0000083337Y0000118913D01*
X-0000081849Y0000120401D01*
X-0000079665Y0000120401D01*
X-0000078391Y0000119127D01*
X-0000078391Y0000117569D01*
X-0000079820Y0000116140D01*
X-0000079820Y0000114830D01*
X-0000076020Y0000111030D01*
X-0000076020Y0000107928D01*
X-0000075522Y0000107430D01*
X-0000070220Y0000107430D01*
X-0000069820Y0000107830D01*
X-0000069820Y0000114930D01*
X-0000070720Y0000115830D01*
X-0000072120Y0000115830D01*
X-0000073607Y0000117317D01*
X-0000073607Y0000121928D01*
X-0000072505Y0000123030D01*
X-0000067220Y0000123030D01*
X-0000066720Y0000123530D01*
G01X-0000051168Y0000196218D02*
X-0000051135Y0000196185D01*
X-0000049965Y0000196185D01*
X-0000049681Y0000196469D01*
X-0000049681Y0000197430D01*
X-0000050220Y0000197969D01*
X-0000050220Y0000198930D01*
X-0000049681Y0000199469D01*
X-0000049681Y0000200756D01*
X-0000050555Y0000201630D01*
X-0000051920Y0000201630D01*
X-0000052520Y0000201030D01*
X-0000053820Y0000201030D01*
X-0000054420Y0000201630D01*
X-0000056489Y0000201630D01*
X-0000057592Y0000202733D01*
X-0000057592Y0000204693D01*
X-0000058478Y0000205579D01*
X-0000060055Y0000205579D01*
X-0000060820Y0000204814D01*
X-0000060820Y0000203530D01*
X-0000060320Y0000203030D01*
X-0000060320Y0000201430D01*
X-0000060820Y0000200930D01*
X-0000060820Y0000199733D01*
X-0000061923Y0000198630D01*
X-0000064318Y0000198630D01*
X-0000065420Y0000199732D01*
X-0000065420Y0000201205D01*
X-0000065820Y0000201605D01*
X-0000067920Y0000201605D01*
X-0000068495Y0000201030D01*
X-0000069620Y0000201030D01*
X-0000070195Y0000201605D01*
X-0000071834Y0000201605D01*
X-0000072320Y0000201119D01*
X-0000072320Y0000199231D01*
X-0000071794Y0000198705D01*
X-0000069595Y0000198705D01*
X-0000068366Y0000197476D01*
X-0000068366Y0000195239D01*
X-0000069837Y0000193768D01*
X-0000071802Y0000193768D01*
X-0000072320Y0000193250D01*
X-0000072320Y0000191530D01*
X-0000071720Y0000190930D01*
X-0000071720Y0000189830D01*
X-0000072320Y0000189230D01*
X-0000072320Y0000187730D01*
X-0000071720Y0000187130D01*
X-0000071720Y0000185830D01*
X-0000072320Y0000185230D01*
X-0000072320Y0000183830D01*
X-0000072303Y0000183813D01*
X-0000072303Y0000183806D01*
X-0000071620Y0000183123D01*
X-0000071620Y0000182130D01*
X-0000072320Y0000181430D01*
X-0000072320Y0000180228D01*
X-0000072303Y0000180211D01*
X-0000072303Y0000179869D01*
X-0000072120Y0000179686D01*
X-0000072120Y0000179130D01*
X-0000071620Y0000178630D01*
X-0000071620Y0000176530D01*
X-0000072120Y0000176030D01*
X-0000072120Y0000174632D01*
X-0000075122Y0000171630D01*
X-0000078500Y0000171630D01*
X-0000079300Y0000170830D01*
X-0000079300Y0000165403D01*
X-0000080502Y0000164201D01*
X-0000082598Y0000164201D01*
X-0000083700Y0000165303D01*
X-0000083700Y0000171830D01*
X-0000084100Y0000172230D01*
X-0000085962Y0000172230D01*
X-0000086620Y0000171572D01*
X-0000086620Y0000165530D01*
X-0000089120Y0000163030D01*
X-0000089120Y0000160930D01*
X-0000088720Y0000160530D01*
X-0000086129Y0000160530D01*
X-0000084120Y0000158521D01*
X-0000084120Y0000157521D01*
X-0000084720Y0000156921D01*
X-0000084720Y0000155921D01*
X-0000084120Y0000155321D01*
X-0000084120Y0000154321D01*
X-0000084720Y0000153721D01*
X-0000084720Y0000152721D01*
X-0000084120Y0000152121D01*
X-0000084120Y0000151121D01*
X-0000084720Y0000150521D01*
X-0000084720Y0000149330D01*
X-0000084120Y0000148730D01*
X-0000084120Y0000147730D01*
X-0000084720Y0000147130D01*
X-0000084720Y0000146130D01*
X-0000084120Y0000145530D01*
X-0000084120Y0000144530D01*
X-0000084720Y0000143930D01*
X-0000084720Y0000142930D01*
X-0000084120Y0000142330D01*
X-0000084120Y0000141330D01*
X-0000084720Y0000140730D01*
X-0000084720Y0000139830D01*
X-0000084170Y0000139280D01*
X-0000083170Y0000139280D01*
X-0000082220Y0000138330D01*
X-0000082220Y0000137430D01*
X-0000081120Y0000136330D01*
X-0000081120Y0000135130D01*
X-0000081520Y0000134730D01*
X-0000081620Y0000134730D01*
X-0000082020Y0000134330D01*
X-0000082020Y0000133130D01*
X-0000081620Y0000132730D01*
X-0000081520Y0000132730D01*
X-0000081120Y0000132330D01*
X-0000081120Y0000131130D01*
X-0000081520Y0000130730D01*
X-0000081620Y0000130730D01*
X-0000082020Y0000130330D01*
X-0000082020Y0000129130D01*
X-0000081620Y0000128730D01*
X-0000081520Y0000128730D01*
X-0000081120Y0000128330D01*
X-0000081120Y0000127130D01*
X-0000081520Y0000126730D01*
X-0000081620Y0000126730D01*
X-0000082020Y0000126330D01*
X-0000082020Y0000124328D01*
X-0000081389Y0000123697D01*
X-0000079420Y0000123697D01*
X-0000078587Y0000124530D01*
X-0000078587Y0000124629D01*
G01X-0000047231Y0000192281D02*
X-0000048681Y0000193731D01*
X-0000048681Y0000201171D01*
X-0000050140Y0000202630D01*
X-0000056074Y0000202630D01*
X-0000056592Y0000203148D01*
X-0000056592Y0000205108D01*
X-0000058063Y0000206579D01*
X-0000060470Y0000206579D01*
X-0000061820Y0000205229D01*
X-0000061820Y0000200148D01*
X-0000062338Y0000199630D01*
X-0000063903Y0000199630D01*
X-0000064420Y0000200147D01*
X-0000064420Y0000201620D01*
X-0000065405Y0000202605D01*
X-0000072249Y0000202605D01*
X-0000073320Y0000201534D01*
X-0000073320Y0000198816D01*
X-0000072209Y0000197705D01*
X-0000070010Y0000197705D01*
X-0000069366Y0000197061D01*
X-0000069366Y0000195654D01*
X-0000070252Y0000194768D01*
X-0000072217Y0000194768D01*
X-0000073320Y0000193665D01*
X-0000073320Y0000175130D01*
X-0000075620Y0000172830D01*
X-0000078998Y0000172830D01*
X-0000080500Y0000171328D01*
X-0000080500Y0000165901D01*
X-0000081000Y0000165401D01*
X-0000082100Y0000165401D01*
X-0000082500Y0000165801D01*
X-0000082500Y0000172328D01*
X-0000083602Y0000173430D01*
X-0000086460Y0000173430D01*
X-0000087820Y0000172070D01*
X-0000087820Y0000166028D01*
X-0000090320Y0000163528D01*
X-0000090320Y0000160432D01*
X-0000089218Y0000159330D01*
X-0000086627Y0000159330D01*
X-0000085920Y0000158623D01*
X-0000085920Y0000139332D01*
X-0000083220Y0000136632D01*
X-0000083220Y0000123830D01*
X-0000081887Y0000122497D01*
X-0000078655Y0000122497D01*
X-0000078587Y0000122429D01*
G01X-0000059042Y0000184407D02*
X-0000059965Y0000185330D01*
X-0000062320Y0000185330D01*
X-0000062720Y0000184930D01*
X-0000062720Y0000183445D01*
X-0000062479Y0000183204D01*
X-0000062479Y0000180581D01*
X-0000061712Y0000179814D01*
X-0000061712Y0000179531D01*
X-0000055520Y0000173339D01*
X-0000055520Y0000160332D01*
X-0000056622Y0000159230D01*
X-0000059578Y0000159230D01*
X-0000060680Y0000160332D01*
X-0000060680Y0000171630D01*
X-0000061080Y0000172030D01*
X-0000062480Y0000172030D01*
X-0000062880Y0000171630D01*
X-0000062880Y0000163532D01*
X-0000063982Y0000162430D01*
X-0000066178Y0000162430D01*
X-0000067280Y0000163532D01*
X-0000067280Y0000166130D01*
X-0000067680Y0000166530D01*
X-0000068480Y0000166530D01*
X-0000068880Y0000166130D01*
X-0000068880Y0000162832D01*
X-0000069982Y0000161730D01*
X-0000073620Y0000161730D01*
X-0000074020Y0000161330D01*
X-0000074020Y0000160382D01*
X-0000073520Y0000159882D01*
X-0000063622Y0000159882D01*
X-0000062520Y0000158780D01*
X-0000062520Y0000156932D01*
X-0000063622Y0000155830D01*
X-0000076820Y0000155830D01*
X-0000077220Y0000155430D01*
X-0000077220Y0000154482D01*
X-0000076820Y0000154082D01*
X-0000068922Y0000154082D01*
X-0000067720Y0000152880D01*
X-0000067720Y0000151084D01*
X-0000068722Y0000150082D01*
X-0000076820Y0000150082D01*
X-0000077220Y0000149682D01*
X-0000077220Y0000148882D01*
X-0000076820Y0000148482D01*
X-0000068422Y0000148482D01*
X-0000067220Y0000147280D01*
X-0000067220Y0000145484D01*
X-0000068222Y0000144482D01*
X-0000076820Y0000144482D01*
X-0000077220Y0000144082D01*
X-0000077220Y0000143282D01*
X-0000076820Y0000142882D01*
X-0000068422Y0000142882D01*
X-0000067220Y0000141680D01*
X-0000067220Y0000139884D01*
X-0000068322Y0000138782D01*
X-0000072220Y0000138782D01*
X-0000072620Y0000138382D01*
X-0000072620Y0000131630D01*
X-0000072220Y0000131230D01*
X-0000066022Y0000131230D01*
X-0000060625Y0000125833D01*
X-0000060625Y0000125272D01*
X-0000059625Y0000124272D01*
G01X-0000066916Y0000196218D02*
X-0000063879Y0000196218D01*
X-0000063479Y0000195818D01*
X-0000063479Y0000193590D01*
X-0000061720Y0000191831D01*
X-0000061720Y0000188830D01*
X-0000062120Y0000188430D01*
X-0000064020Y0000188430D01*
X-0000064420Y0000188830D01*
X-0000064420Y0000189729D01*
X-0000065521Y0000190830D01*
X-0000068301Y0000190830D01*
X-0000069403Y0000189728D01*
X-0000069403Y0000181142D01*
X-0000069366Y0000181105D01*
X-0000069366Y0000179530D01*
X-0000069566Y0000179330D01*
X-0000069566Y0000177702D01*
X-0000068464Y0000176600D01*
X-0000065920Y0000176600D01*
X-0000065520Y0000176200D01*
X-0000065520Y0000175400D01*
X-0000065920Y0000175000D01*
X-0000068464Y0000175000D01*
X-0000069566Y0000173898D01*
X-0000069566Y0000172082D01*
X-0000081920Y0000159728D01*
X-0000081920Y0000140632D01*
X-0000078520Y0000137232D01*
X-0000078520Y0000127632D01*
X-0000077418Y0000126530D01*
X-0000067020Y0000126530D01*
X-0000064920Y0000124430D01*
X-0000064920Y0000121832D01*
X-0000063818Y0000120730D01*
X-0000056120Y0000120730D01*
X-0000055720Y0000120330D01*
X-0000055720Y0000117549D01*
X-0000058639Y0000114630D01*
X-0000065218Y0000114630D01*
X-0000066320Y0000113528D01*
X-0000066320Y0000107432D01*
X-0000065218Y0000106330D01*
X-0000058212Y0000106330D01*
X-0000057110Y0000107432D01*
X-0000057110Y0000110130D01*
X-0000056710Y0000110530D01*
X-0000055910Y0000110530D01*
X-0000055510Y0000110130D01*
X-0000055510Y0000107432D01*
X-0000054408Y0000106330D01*
X-0000051912Y0000106330D01*
X-0000050810Y0000107432D01*
X-0000050810Y0000112230D01*
X-0000050410Y0000112630D01*
X-0000049610Y0000112630D01*
X-0000049210Y0000112230D01*
X-0000049210Y0000107432D01*
X-0000048108Y0000106330D01*
X-0000044120Y0000106330D01*
X-0000043120Y0000107330D01*
X-0000043120Y0000114027D01*
X-0000044223Y0000115130D01*
X-0000045820Y0000115130D01*
X-0000046220Y0000115530D01*
X-0000046220Y0000119629D01*
X-0000049821Y0000123230D01*
X-0000051611Y0000123230D01*
X-0000051911Y0000123530D01*
G01X-0000066916Y0000184407D02*
X-0000065097Y0000184407D01*
X-0000063479Y0000182789D01*
X-0000063479Y0000179883D01*
X-0000062912Y0000179316D01*
X-0000062912Y0000179033D01*
X-0000056720Y0000172841D01*
X-0000056720Y0000160830D01*
X-0000057120Y0000160430D01*
X-0000059080Y0000160430D01*
X-0000059480Y0000160830D01*
X-0000059480Y0000172128D01*
X-0000060582Y0000173230D01*
X-0000062978Y0000173230D01*
X-0000064080Y0000172128D01*
X-0000064080Y0000164030D01*
X-0000064480Y0000163630D01*
X-0000065680Y0000163630D01*
X-0000066080Y0000164030D01*
X-0000066080Y0000166628D01*
X-0000067182Y0000167730D01*
X-0000068978Y0000167730D01*
X-0000070080Y0000166628D01*
X-0000070080Y0000163330D01*
X-0000070480Y0000162930D01*
X-0000074118Y0000162930D01*
X-0000075220Y0000161828D01*
X-0000075220Y0000159884D01*
X-0000074018Y0000158682D01*
X-0000064120Y0000158682D01*
X-0000063720Y0000158282D01*
X-0000063720Y0000157430D01*
X-0000064120Y0000157030D01*
X-0000077318Y0000157030D01*
X-0000078420Y0000155928D01*
X-0000078420Y0000153984D01*
X-0000077318Y0000152882D01*
X-0000069420Y0000152882D01*
X-0000068920Y0000152382D01*
X-0000068920Y0000151682D01*
X-0000069320Y0000151282D01*
X-0000077318Y0000151282D01*
X-0000078420Y0000150180D01*
X-0000078420Y0000148384D01*
X-0000077318Y0000147282D01*
X-0000068920Y0000147282D01*
X-0000068420Y0000146782D01*
X-0000068420Y0000146082D01*
X-0000068820Y0000145682D01*
X-0000077318Y0000145682D01*
X-0000078420Y0000144580D01*
X-0000078420Y0000142784D01*
X-0000077318Y0000141682D01*
X-0000068920Y0000141682D01*
X-0000068420Y0000141182D01*
X-0000068420Y0000140382D01*
X-0000068820Y0000139982D01*
X-0000072718Y0000139982D01*
X-0000073820Y0000138880D01*
X-0000073820Y0000131132D01*
X-0000072718Y0000130030D01*
X-0000067873Y0000130030D01*
X-0000067872Y0000130029D01*
X-0000067625Y0000130029D01*
X-0000067624Y0000130030D01*
X-0000066520Y0000130030D01*
X-0000061825Y0000125335D01*
X-0000061825Y0000124272D01*
G01X-0000059042Y0000196218D02*
X-0000059754Y0000196930D01*
X-0000062019Y0000196930D01*
X-0000062479Y0000196470D01*
X-0000062479Y0000194005D01*
X-0000060720Y0000192246D01*
X-0000060720Y0000188415D01*
X-0000061705Y0000187430D01*
X-0000064435Y0000187430D01*
X-0000065420Y0000188415D01*
X-0000065420Y0000189314D01*
X-0000065936Y0000189830D01*
X-0000067886Y0000189830D01*
X-0000068403Y0000189313D01*
X-0000068403Y0000181557D01*
X-0000068366Y0000181520D01*
X-0000068366Y0000178200D01*
X-0000067966Y0000177800D01*
X-0000065422Y0000177800D01*
X-0000064320Y0000176698D01*
X-0000064320Y0000174902D01*
X-0000065422Y0000173800D01*
X-0000067966Y0000173800D01*
X-0000068366Y0000173400D01*
X-0000068366Y0000171584D01*
X-0000080720Y0000159230D01*
X-0000080720Y0000141130D01*
X-0000077320Y0000137730D01*
X-0000077320Y0000128130D01*
X-0000076920Y0000127730D01*
X-0000066522Y0000127730D01*
X-0000063720Y0000124928D01*
X-0000063720Y0000122330D01*
X-0000063320Y0000121930D01*
X-0000055622Y0000121930D01*
X-0000054520Y0000120828D01*
X-0000054520Y0000117051D01*
X-0000058141Y0000113430D01*
X-0000064720Y0000113430D01*
X-0000065120Y0000113030D01*
X-0000065120Y0000107930D01*
X-0000064720Y0000107530D01*
X-0000058710Y0000107530D01*
X-0000058310Y0000107930D01*
X-0000058310Y0000110628D01*
X-0000057208Y0000111730D01*
X-0000055412Y0000111730D01*
X-0000054310Y0000110628D01*
X-0000054310Y0000107930D01*
X-0000053910Y0000107530D01*
X-0000052410Y0000107530D01*
X-0000052010Y0000107930D01*
X-0000052010Y0000112728D01*
X-0000050908Y0000113830D01*
X-0000049112Y0000113830D01*
X-0000048010Y0000112728D01*
X-0000048010Y0000107930D01*
X-0000047610Y0000107530D01*
X-0000044618Y0000107530D01*
X-0000044320Y0000107828D01*
X-0000044320Y0000113529D01*
X-0000044721Y0000113930D01*
X-0000046318Y0000113930D01*
X-0000047420Y0000115032D01*
X-0000047420Y0000119131D01*
X-0000050319Y0000122030D01*
X-0000051211Y0000122030D01*
X-0000051911Y0000121330D01*
G01X-0000047231Y0000196218D02*
X-0000045520Y0000196218D01*
X-0000045120Y0000195818D01*
X-0000045120Y0000191900D01*
X-0000045781Y0000191239D01*
X-0000045781Y0000187331D01*
X-0000046218Y0000186894D01*
X-0000048615Y0000186894D01*
X-0000049718Y0000185791D01*
X-0000049718Y0000182976D01*
X-0000048571Y0000181829D01*
X-0000046134Y0000181829D01*
X-0000045781Y0000181476D01*
X-0000045781Y0000168632D01*
X-0000044679Y0000167530D01*
X-0000032347Y0000167530D01*
X-0000031947Y0000167130D01*
X-0000031947Y0000154847D01*
X-0000030845Y0000153745D01*
X-0000028623Y0000153745D01*
X-0000027520Y0000154848D01*
X-0000027520Y0000167130D01*
X-0000027120Y0000167530D01*
X-0000022218Y0000167530D01*
X-0000021720Y0000167032D01*
X-0000021720Y0000165051D01*
X-0000022120Y0000164651D01*
X-0000024418Y0000164651D01*
X-0000025520Y0000163549D01*
X-0000025520Y0000161753D01*
X-0000024418Y0000160651D01*
X-0000022120Y0000160651D01*
X-0000021720Y0000160251D01*
X-0000021720Y0000154132D01*
X-0000020618Y0000153030D01*
X-0000016620Y0000153030D01*
X-0000016220Y0000152630D01*
X-0000016220Y0000151115D01*
X-0000016505Y0000150830D01*
X-0000052818Y0000150830D01*
X-0000054120Y0000149528D01*
X-0000054120Y0000148855D01*
X-0000054520Y0000148455D01*
X-0000055918Y0000148455D01*
X-0000057020Y0000147353D01*
X-0000057020Y0000145557D01*
X-0000055918Y0000144455D01*
X-0000054120Y0000144455D01*
X-0000053720Y0000144055D01*
X-0000053720Y0000142430D01*
X-0000054120Y0000142030D01*
X-0000057518Y0000142030D01*
X-0000058620Y0000140928D01*
X-0000058620Y0000139132D01*
X-0000057518Y0000138030D01*
X-0000055220Y0000138030D01*
X-0000054820Y0000137630D01*
X-0000054820Y0000133632D01*
X-0000052218Y0000131030D01*
X-0000038418Y0000131030D01*
X-0000037703Y0000130315D01*
X-0000037703Y0000123890D01*
X-0000038220Y0000123373D01*
G01X-0000051168Y0000188344D02*
X-0000052236Y0000188344D01*
X-0000052636Y0000187944D01*
X-0000052636Y0000178729D01*
X-0000052236Y0000178329D01*
X-0000049022Y0000178329D01*
X-0000047883Y0000177190D01*
X-0000047883Y0000167593D01*
X-0000045820Y0000165530D01*
X-0000043595Y0000165530D01*
X-0000042493Y0000164428D01*
X-0000042493Y0000161930D01*
X-0000042093Y0000161530D01*
X-0000041293Y0000161530D01*
X-0000040893Y0000161930D01*
X-0000040893Y0000164428D01*
X-0000039791Y0000165530D01*
X-0000035622Y0000165530D01*
X-0000034420Y0000164328D01*
X-0000034420Y0000160032D01*
X-0000036120Y0000158332D01*
X-0000036120Y0000154490D01*
X-0000037222Y0000153388D01*
X-0000053662Y0000153388D01*
X-0000056970Y0000150080D01*
X-0000059270Y0000150080D01*
X-0000060620Y0000148730D01*
X-0000060620Y0000135828D01*
X-0000053822Y0000129030D01*
X-0000041422Y0000129030D01*
X-0000039720Y0000127328D01*
X-0000039720Y0000122228D01*
X-0000035964Y0000118472D01*
X-0000035964Y0000117874D01*
X-0000031220Y0000113130D01*
X-0000018720Y0000113130D01*
X-0000017720Y0000114130D01*
X-0000017720Y0000118030D01*
X-0000018120Y0000118430D01*
X-0000031318Y0000118430D01*
X-0000033620Y0000120732D01*
X-0000033620Y0000128581D01*
X-0000032518Y0000129683D01*
X-0000030520Y0000129683D01*
X-0000030120Y0000130083D01*
X-0000030120Y0000132328D01*
X-0000029018Y0000133430D01*
X-0000026622Y0000133430D01*
X-0000025520Y0000132328D01*
X-0000025520Y0000123130D01*
X-0000024820Y0000122430D01*
G01X-0000055105Y0000188344D02*
X-0000053636Y0000186875D01*
X-0000053636Y0000179730D01*
X-0000053836Y0000179530D01*
X-0000053836Y0000178231D01*
X-0000052734Y0000177129D01*
X-0000049520Y0000177129D01*
X-0000049083Y0000176692D01*
X-0000049083Y0000167095D01*
X-0000046318Y0000164330D01*
X-0000044093Y0000164330D01*
X-0000043693Y0000163930D01*
X-0000043693Y0000161432D01*
X-0000042591Y0000160330D01*
X-0000040795Y0000160330D01*
X-0000039693Y0000161432D01*
X-0000039693Y0000163930D01*
X-0000039293Y0000164330D01*
X-0000036120Y0000164330D01*
X-0000035620Y0000163830D01*
X-0000035620Y0000160530D01*
X-0000037320Y0000158830D01*
X-0000037320Y0000154988D01*
X-0000037720Y0000154588D01*
X-0000054160Y0000154588D01*
X-0000057468Y0000151280D01*
X-0000059768Y0000151280D01*
X-0000061820Y0000149228D01*
X-0000061820Y0000135330D01*
X-0000054320Y0000127830D01*
X-0000041920Y0000127830D01*
X-0000040920Y0000126830D01*
X-0000040920Y0000121730D01*
X-0000037164Y0000117974D01*
X-0000037164Y0000117376D01*
X-0000031718Y0000111930D01*
X-0000018222Y0000111930D01*
X-0000016520Y0000113632D01*
X-0000016520Y0000118528D01*
X-0000017622Y0000119630D01*
X-0000030820Y0000119630D01*
X-0000032420Y0000121230D01*
X-0000032420Y0000128083D01*
X-0000032020Y0000128483D01*
X-0000030022Y0000128483D01*
X-0000028920Y0000129585D01*
X-0000028920Y0000131830D01*
X-0000028520Y0000132230D01*
X-0000027120Y0000132230D01*
X-0000026720Y0000131830D01*
X-0000026720Y0000122729D01*
X-0000027019Y0000122430D01*
G01X-0000055105Y0000196218D02*
X-0000055105Y0000195845D01*
X-0000057555Y0000193395D01*
X-0000057555Y0000179730D01*
X-0000057755Y0000179530D01*
X-0000057755Y0000177965D01*
X-0000052920Y0000173130D01*
X-0000052920Y0000165332D01*
X-0000049620Y0000162032D01*
X-0000049620Y0000158630D01*
X-0000050020Y0000158230D01*
X-0000055018Y0000158230D01*
X-0000058418Y0000154830D01*
X-0000061318Y0000154830D01*
X-0000065120Y0000151028D01*
X-0000065120Y0000138528D01*
X-0000066620Y0000137028D01*
X-0000066620Y0000134630D01*
X-0000057020Y0000125030D01*
X-0000046020Y0000125030D01*
X-0000044720Y0000123730D01*
X-0000044720Y0000121252D01*
X-0000040820Y0000117352D01*
X-0000040820Y0000115928D01*
X-0000041020Y0000115728D01*
X-0000041020Y0000112230D01*
X-0000039420Y0000110630D01*
X-0000035418Y0000110630D01*
X-0000032118Y0000107330D01*
X-0000010622Y0000107330D01*
X-0000009520Y0000108432D01*
X-0000009520Y0000116930D01*
X-0000009120Y0000117330D01*
X-0000006856Y0000117330D01*
X-0000006456Y0000116930D01*
X-0000006456Y0000108466D01*
X-0000005320Y0000107330D01*
X-0000000520Y0000107330D01*
X0000000780Y0000108630D01*
X0000000780Y0000121128D01*
X-0000000786Y0000122694D01*
X-0000013984Y0000122694D01*
X-0000014620Y0000123330D01*
X-0000018828Y0000123330D01*
X-0000020486Y0000121672D01*
G01X-0000051168Y0000192281D02*
X-0000052772Y0000192281D01*
X-0000054378Y0000193887D01*
X-0000055648Y0000193887D01*
X-0000056555Y0000192980D01*
X-0000056555Y0000178463D01*
X-0000051720Y0000173628D01*
X-0000051720Y0000165830D01*
X-0000048420Y0000162530D01*
X-0000048420Y0000158132D01*
X-0000049522Y0000157030D01*
X-0000054520Y0000157030D01*
X-0000057920Y0000153630D01*
X-0000060820Y0000153630D01*
X-0000063920Y0000150530D01*
X-0000063920Y0000138030D01*
X-0000065420Y0000136530D01*
X-0000065420Y0000135128D01*
X-0000056522Y0000126230D01*
X-0000045522Y0000126230D01*
X-0000043520Y0000124228D01*
X-0000043520Y0000121750D01*
X-0000039620Y0000117850D01*
X-0000039620Y0000115430D01*
X-0000039820Y0000115230D01*
X-0000039820Y0000112728D01*
X-0000038922Y0000111830D01*
X-0000034920Y0000111830D01*
X-0000031620Y0000108530D01*
X-0000011120Y0000108530D01*
X-0000010720Y0000108930D01*
X-0000010720Y0000117428D01*
X-0000009618Y0000118530D01*
X-0000006358Y0000118530D01*
X-0000005256Y0000117428D01*
X-0000005256Y0000108964D01*
X-0000004822Y0000108530D01*
X-0000001018Y0000108530D01*
X-0000000420Y0000109128D01*
X-0000000420Y0000120630D01*
X-0000001284Y0000121494D01*
X-0000014482Y0000121494D01*
X-0000015118Y0000122130D01*
X-0000017828Y0000122130D01*
X-0000018286Y0000121672D01*
G01X-0000043294Y0000192281D02*
X-0000043324Y0000192281D01*
X-0000044781Y0000190824D01*
X-0000044781Y0000186916D01*
X-0000045803Y0000185894D01*
X-0000048200Y0000185894D01*
X-0000048718Y0000185376D01*
X-0000048718Y0000183391D01*
X-0000048156Y0000182829D01*
X-0000045719Y0000182829D01*
X-0000044781Y0000181891D01*
X-0000044781Y0000179730D01*
X-0000044581Y0000179530D01*
X-0000044581Y0000169130D01*
X-0000044181Y0000168730D01*
X-0000031849Y0000168730D01*
X-0000030747Y0000167628D01*
X-0000030747Y0000155345D01*
X-0000030347Y0000154945D01*
X-0000029121Y0000154945D01*
X-0000028720Y0000155346D01*
X-0000028720Y0000167628D01*
X-0000027618Y0000168730D01*
X-0000021720Y0000168730D01*
X-0000020520Y0000167530D01*
X-0000020520Y0000164553D01*
X-0000021622Y0000163451D01*
X-0000023920Y0000163451D01*
X-0000024320Y0000163051D01*
X-0000024320Y0000162251D01*
X-0000023920Y0000161851D01*
X-0000021622Y0000161851D01*
X-0000020520Y0000160749D01*
X-0000020520Y0000154630D01*
X-0000020120Y0000154230D01*
X-0000016122Y0000154230D01*
X-0000015020Y0000153128D01*
X-0000015020Y0000150617D01*
X-0000016007Y0000149630D01*
X-0000052320Y0000149630D01*
X-0000052920Y0000149030D01*
X-0000052920Y0000148357D01*
X-0000054022Y0000147255D01*
X-0000055420Y0000147255D01*
X-0000055820Y0000146855D01*
X-0000055820Y0000146055D01*
X-0000055420Y0000145655D01*
X-0000053622Y0000145655D01*
X-0000052520Y0000144553D01*
X-0000052520Y0000141932D01*
X-0000053622Y0000140830D01*
X-0000057020Y0000140830D01*
X-0000057420Y0000140430D01*
X-0000057420Y0000139630D01*
X-0000057020Y0000139230D01*
X-0000054722Y0000139230D01*
X-0000053620Y0000138128D01*
X-0000053620Y0000134130D01*
X-0000051720Y0000132230D01*
X-0000037920Y0000132230D01*
X-0000036503Y0000130813D01*
X-0000036503Y0000123856D01*
X-0000036020Y0000123373D01*
G01X-0000068220Y0000287030D02*
X-0000068220Y0000287930D01*
X-0000067520Y0000288630D01*
X-0000065920Y0000288630D01*
X-0000065147Y0000287857D01*
X-0000065147Y0000253932D01*
X-0000063200Y0000251985D01*
X-0000063200Y0000213466D01*
X-0000066169Y0000210497D01*
X-0000066515Y0000210497D01*
X-0000066916Y0000210898D01*
X-0000066916Y0000211966D01*
G01X-0000068220Y0000290030D02*
X-0000068020Y0000289830D01*
X-0000065422Y0000289830D01*
X-0000063947Y0000288355D01*
X-0000063947Y0000271530D01*
X-0000064147Y0000271330D01*
X-0000064147Y0000254347D01*
X-0000062200Y0000252400D01*
X-0000062200Y0000213051D01*
X-0000065754Y0000209497D01*
X-0000066516Y0000209497D01*
X-0000066916Y0000209097D01*
X-0000066916Y0000208029D01*
G01X-0000055105Y0000215903D02*
X-0000055105Y0000216915D01*
X-0000055580Y0000217390D01*
X-0000056595Y0000217390D01*
X-0000057580Y0000218375D01*
X-0000057580Y0000221254D01*
X-0000058120Y0000221794D01*
X-0000058120Y0000222854D01*
X-0000057580Y0000223394D01*
X-0000057580Y0000224454D01*
X-0000058120Y0000224994D01*
X-0000058120Y0000226054D01*
X-0000057580Y0000226594D01*
X-0000057580Y0000255975D01*
X-0000058365Y0000256760D01*
X-0000060365Y0000256760D01*
X-0000061720Y0000258115D01*
X-0000061720Y0000268945D01*
X-0000061220Y0000269445D01*
X-0000061220Y0000271530D01*
X-0000061420Y0000271730D01*
X-0000061420Y0000300821D01*
X-0000062308Y0000301709D01*
X-0000062892Y0000301709D01*
X-0000064200Y0000300401D01*
X-0000064200Y0000299779D01*
X-0000063830Y0000299409D01*
G01X-0000063830Y0000302909D02*
X-0000061810Y0000302909D01*
X-0000060220Y0000301319D01*
X-0000060220Y0000271430D01*
X-0000060195Y0000271405D01*
X-0000060195Y0000271355D01*
X-0000060220Y0000271330D01*
X-0000060220Y0000269030D01*
X-0000060720Y0000268530D01*
X-0000060720Y0000258530D01*
X-0000059950Y0000257760D01*
X-0000057950Y0000257760D01*
X-0000056580Y0000256390D01*
X-0000056580Y0000218790D01*
X-0000056180Y0000218390D01*
X-0000054780Y0000218390D01*
X-0000052293Y0000215903D01*
X-0000051168Y0000215903D01*
G01X-0000039357Y0000192281D02*
X-0000038270Y0000192281D01*
X-0000037870Y0000191881D01*
X-0000037870Y0000187328D01*
X-0000036436Y0000185894D01*
X-0000034856Y0000185894D01*
X-0000033933Y0000184971D01*
X-0000033933Y0000183391D01*
X-0000033920Y0000183378D01*
X-0000033920Y0000181499D01*
X-0000033933Y0000181486D01*
X-0000033933Y0000179454D01*
X-0000033907Y0000179428D01*
X-0000033907Y0000178732D01*
X-0000032805Y0000177630D01*
X-0000012120Y0000177630D01*
X-0000010920Y0000176430D01*
X-0000010920Y0000164532D01*
X-0000009218Y0000162830D01*
X0000002282Y0000162830D01*
X0000003580Y0000161532D01*
X0000003580Y0000146532D01*
X0000005082Y0000145030D01*
X0000027782Y0000145030D01*
X0000029480Y0000143332D01*
X0000029480Y0000128228D01*
X0000027982Y0000126730D01*
X-0000012020Y0000126730D01*
X-0000020520Y0000135230D01*
X-0000020520Y0000139729D01*
X-0000021622Y0000140831D01*
X-0000040919Y0000140831D01*
X-0000044107Y0000137643D01*
G01X-0000047231Y0000200155D02*
X-0000044744Y0000197668D01*
X-0000042693Y0000197668D01*
X-0000040807Y0000195782D01*
X-0000040807Y0000179730D01*
X-0000040607Y0000179530D01*
X-0000040607Y0000178732D01*
X-0000040707Y0000178632D01*
X-0000040707Y0000174517D01*
X-0000038120Y0000171930D01*
X-0000018720Y0000171930D01*
X-0000017020Y0000170230D01*
X-0000017020Y0000161730D01*
X-0000011120Y0000155830D01*
X-0000011120Y0000151130D01*
X-0000006720Y0000146730D01*
X-0000006720Y0000141430D01*
X-0000004820Y0000139530D01*
X0000008265Y0000139530D01*
X0000009367Y0000138428D01*
X0000009367Y0000132717D01*
X0000008180Y0000131530D01*
X-0000007918Y0000131530D01*
X-0000014520Y0000138132D01*
X-0000014520Y0000143330D01*
X-0000017520Y0000146330D01*
X-0000047422Y0000146330D01*
X-0000049020Y0000144732D01*
X-0000049020Y0000136528D01*
X-0000047522Y0000135030D01*
X-0000035822Y0000135030D01*
X-0000034922Y0000134130D01*
X-0000033918Y0000134130D01*
X-0000031796Y0000136252D01*
X-0000031796Y0000137143D01*
X-0000032296Y0000137643D01*
G01X-0000043294Y0000196218D02*
X-0000042658Y0000196218D01*
X-0000041807Y0000195367D01*
X-0000041807Y0000179230D01*
X-0000041907Y0000179130D01*
X-0000041907Y0000174019D01*
X-0000038618Y0000170730D01*
X-0000019218Y0000170730D01*
X-0000018220Y0000169732D01*
X-0000018220Y0000161232D01*
X-0000012320Y0000155332D01*
X-0000012320Y0000150632D01*
X-0000007920Y0000146232D01*
X-0000007920Y0000140932D01*
X-0000005318Y0000138330D01*
X0000007767Y0000138330D01*
X0000008167Y0000137930D01*
X0000008167Y0000133215D01*
X0000007682Y0000132730D01*
X-0000007420Y0000132730D01*
X-0000013320Y0000138630D01*
X-0000013320Y0000143828D01*
X-0000017022Y0000147530D01*
X-0000047920Y0000147530D01*
X-0000050220Y0000145230D01*
X-0000050220Y0000136030D01*
X-0000048020Y0000133830D01*
X-0000036320Y0000133830D01*
X-0000035420Y0000132930D01*
X-0000033420Y0000132930D01*
X-0000030596Y0000135754D01*
X-0000030596Y0000137143D01*
X-0000030096Y0000137643D01*
G01X-0000039357Y0000196218D02*
X-0000039357Y0000195034D01*
X-0000037455Y0000193132D01*
X-0000037407Y0000193132D01*
X-0000036870Y0000192595D01*
X-0000036870Y0000187743D01*
X-0000036021Y0000186894D01*
X-0000034584Y0000186894D01*
X-0000034547Y0000186857D01*
X-0000034404Y0000186857D01*
X-0000033898Y0000186352D01*
X-0000032933Y0000185386D01*
X-0000032933Y0000183806D01*
X-0000032920Y0000183793D01*
X-0000032920Y0000181084D01*
X-0000032933Y0000181071D01*
X-0000032933Y0000179869D01*
X-0000032707Y0000179643D01*
X-0000032707Y0000179230D01*
X-0000032307Y0000178830D01*
X-0000011622Y0000178830D01*
X-0000009720Y0000176928D01*
X-0000009720Y0000165030D01*
X-0000008720Y0000164030D01*
X0000002780Y0000164030D01*
X0000004780Y0000162030D01*
X0000004780Y0000147030D01*
X0000005580Y0000146230D01*
X0000028280Y0000146230D01*
X0000030680Y0000143830D01*
X0000030680Y0000127730D01*
X0000028480Y0000125530D01*
X-0000012518Y0000125530D01*
X-0000021720Y0000134732D01*
X-0000021720Y0000139231D01*
X-0000022120Y0000139631D01*
X-0000040421Y0000139631D01*
X-0000041907Y0000138145D01*
X-0000041907Y0000137643D01*
G01X-0000039357Y0000188344D02*
X-0000039220Y0000188207D01*
X-0000039220Y0000186545D01*
X-0000036870Y0000184195D01*
X-0000036870Y0000179869D01*
X-0000036820Y0000179819D01*
X-0000036820Y0000176430D01*
X-0000035720Y0000175330D01*
X-0000014620Y0000175330D01*
X-0000013120Y0000173830D01*
X-0000013120Y0000162730D01*
X-0000011320Y0000160930D01*
X-0000003820Y0000160930D01*
X-0000002120Y0000159230D01*
X-0000002120Y0000144430D01*
X-0000000820Y0000143130D01*
X0000016380Y0000143130D01*
X0000018280Y0000141230D01*
X0000018280Y0000129632D01*
X0000017178Y0000128530D01*
X-0000009820Y0000128530D01*
X-0000018120Y0000136830D01*
X-0000018120Y0000141232D01*
X-0000020018Y0000143130D01*
X-0000041820Y0000143130D01*
X-0000044820Y0000140130D01*
X-0000047020Y0000140130D01*
X-0000047120Y0000140230D01*
G01X-0000039357Y0000184407D02*
X-0000038497Y0000184407D01*
X-0000037870Y0000183780D01*
X-0000037870Y0000179680D01*
X-0000038020Y0000179530D01*
X-0000038020Y0000175932D01*
X-0000036218Y0000174130D01*
X-0000015118Y0000174130D01*
X-0000014320Y0000173332D01*
X-0000014320Y0000162232D01*
X-0000011818Y0000159730D01*
X-0000004318Y0000159730D01*
X-0000003320Y0000158732D01*
X-0000003320Y0000143932D01*
X-0000001318Y0000141930D01*
X0000015882Y0000141930D01*
X0000017080Y0000140732D01*
X0000017080Y0000130130D01*
X0000016680Y0000129730D01*
X-0000009322Y0000129730D01*
X-0000016920Y0000137328D01*
X-0000016920Y0000141730D01*
X-0000019520Y0000144330D01*
X-0000042318Y0000144330D01*
X-0000045318Y0000141330D01*
X-0000046020Y0000141330D01*
X-0000047120Y0000142430D01*
G01X-0000051168Y0000231651D02*
X-0000050100Y0000231651D01*
X-0000049699Y0000232052D01*
X-0000049699Y0000236586D01*
X-0000048247Y0000238038D01*
X-0000029212Y0000238038D01*
X-0000026008Y0000241242D01*
X-0000019723Y0000241242D01*
X-0000015760Y0000245205D01*
X-0000009598Y0000245205D01*
X-0000007923Y0000243530D01*
X-0000006318Y0000243530D01*
X-0000005318Y0000244530D01*
X-0000000720Y0000244530D01*
X0000001080Y0000242730D01*
X0000004182Y0000242730D01*
X0000005382Y0000243930D01*
X0000019478Y0000243930D01*
X0000022755Y0000240653D01*
X0000022755Y0000234053D01*
X0000023980Y0000232828D01*
X0000023980Y0000229718D01*
X0000025364Y0000228334D01*
X0000028476Y0000228334D01*
X0000029529Y0000227281D01*
X0000029529Y0000226333D01*
X0000030503Y0000225359D01*
G01X-0000047231Y0000231651D02*
X-0000048699Y0000233119D01*
X-0000048699Y0000236171D01*
X-0000047832Y0000237038D01*
X-0000028797Y0000237038D01*
X-0000025593Y0000240242D01*
X-0000019308Y0000240242D01*
X-0000015345Y0000244205D01*
X-0000014920Y0000244205D01*
X-0000014720Y0000244005D01*
X-0000010096Y0000244005D01*
X-0000008421Y0000242330D01*
X-0000005820Y0000242330D01*
X-0000004820Y0000243330D01*
X-0000001218Y0000243330D01*
X0000000582Y0000241530D01*
X0000004680Y0000241530D01*
X0000005880Y0000242730D01*
X0000018980Y0000242730D01*
X0000021555Y0000240155D01*
X0000021555Y0000233555D01*
X0000022780Y0000232330D01*
X0000022780Y0000229220D01*
X0000024866Y0000227134D01*
X0000027978Y0000227134D01*
X0000028329Y0000226783D01*
X0000028329Y0000226334D01*
X0000027354Y0000225359D01*
G01X0000021853Y0000216030D02*
X0000022280Y0000215603D01*
X0000022280Y0000212830D01*
X0000024880Y0000210230D01*
X0000024880Y0000207928D01*
X0000024052Y0000207100D01*
X-0000000252Y0000207100D01*
X-0000001354Y0000205998D01*
X-0000001354Y0000203153D01*
X-0000001754Y0000202753D01*
X-0000002712Y0000202753D01*
X-0000003112Y0000203153D01*
X-0000003112Y0000206728D01*
X-0000004514Y0000208130D01*
X-0000006110Y0000208130D01*
X-0000007512Y0000206728D01*
X-0000007512Y0000203331D01*
X-0000008113Y0000202730D01*
X-0000009583Y0000202730D01*
X-0000010083Y0000203230D01*
X-0000010083Y0000206028D01*
X-0000011185Y0000207130D01*
X-0000012138Y0000207130D01*
X-0000012619Y0000207611D01*
X-0000012619Y0000208662D01*
X-0000014436Y0000210479D01*
X-0000016299Y0000210479D01*
X-0000017222Y0000211402D01*
X-0000017222Y0000213046D01*
X-0000020605Y0000216431D01*
X-0000021434Y0000216431D01*
X-0000021436Y0000216430D01*
X-0000024605Y0000216430D01*
X-0000026565Y0000218390D01*
X-0000036851Y0000218390D01*
X-0000037907Y0000217334D01*
X-0000037907Y0000212201D01*
X-0000036672Y0000210966D01*
X-0000036672Y0000210782D01*
X-0000035420Y0000209530D01*
X-0000035420Y0000208029D01*
G01X0000024957Y0000216030D02*
X0000023480Y0000214553D01*
X0000023480Y0000213328D01*
X0000026080Y0000210728D01*
X0000026080Y0000207430D01*
X0000024550Y0000205900D01*
X0000000246Y0000205900D01*
X-0000000154Y0000205500D01*
X-0000000154Y0000202655D01*
X-0000001256Y0000201553D01*
X-0000003210Y0000201553D01*
X-0000004312Y0000202655D01*
X-0000004312Y0000206230D01*
X-0000005012Y0000206930D01*
X-0000005612Y0000206930D01*
X-0000006312Y0000206230D01*
X-0000006312Y0000202833D01*
X-0000007615Y0000201530D01*
X-0000010081Y0000201530D01*
X-0000011283Y0000202732D01*
X-0000011283Y0000205530D01*
X-0000011683Y0000205930D01*
X-0000012636Y0000205930D01*
X-0000013820Y0000207114D01*
X-0000013820Y0000208165D01*
X-0000015134Y0000209479D01*
X-0000016714Y0000209479D01*
X-0000018222Y0000210987D01*
X-0000018222Y0000212631D01*
X-0000021020Y0000215430D01*
X-0000025020Y0000215430D01*
X-0000026980Y0000217390D01*
X-0000036436Y0000217390D01*
X-0000036907Y0000216919D01*
X-0000036907Y0000212616D01*
X-0000036257Y0000211966D01*
X-0000035420Y0000211966D01*
G54D17*
G01X-0000188720Y0000381617D02*
X-0000187100Y0000379997D01*
X-0000187100Y0000350100D01*
X-0000186000Y0000349000D01*
X-0000186000Y0000330250D01*
X-0000186720Y0000329530D01*
G01X-0000136720Y0000303280D02*
X-0000136720Y0000301220D01*
X-0000129500Y0000294000D01*
X-0000124000Y0000294000D01*
X-0000119500Y0000289500D01*
G01X-0000119500Y0000289500D02*
X-0000119354Y0000289500D01*
X-0000116177Y0000286323D01*
G01X-0000002720Y0000342286D02*
X-0000005426Y0000342286D01*
X-0000014340Y0000351200D01*
X-0000014340Y0000370000D01*
G01X0000083780Y0000275530D02*
X0000079280Y0000271030D01*
X0000060280Y0000271030D01*
X0000055280Y0000266030D01*
X-0000202820Y0000187030D03*
X-0000202820Y0000182730D03*
X-0000151220Y0000187030D03*
X-0000151320Y0000181730D03*
X-0000007022Y0000227376D03*
X-0000007022Y0000231376D03*
G54D26*
X0000034237Y0000363991D03*
X0000091323Y0000363991D03*
G54D36*
G01X-0000078727Y0000196218D02*
X-0000080720Y0000194225D01*
X-0000087275Y0000194225D01*
X-0000088500Y0000193000D01*
X-0000088500Y0000192000D01*
X-0000090000Y0000190500D01*
X-0000094500Y0000190500D01*
X-0000096820Y0000188180D01*
X-0000096820Y0000187680D01*
X-0000098000Y0000186500D01*
X-0000102500Y0000186500D01*
X-0000104000Y0000185000D01*
X-0000104000Y0000184300D01*
X-0000105500Y0000182800D01*
X-0000106700Y0000182800D01*
X-0000109470Y0000180030D01*
X-0000116530Y0000180030D01*
X-0000118088Y0000181588D01*
X-0000146412Y0000181588D01*
X-0000150000Y0000178000D01*
X-0000193390Y0000178000D01*
X-0000200420Y0000185030D01*
X-0000219520Y0000185030D01*
X-0000224320Y0000189830D01*
G01X-0000090538Y0000208029D02*
X-0000090538Y0000206530D01*
X-0000088700Y0000204692D01*
X-0000088700Y0000199050D01*
X-0000089720Y0000198030D01*
X-0000095170Y0000198030D01*
X-0000096420Y0000196780D01*
X-0000096420Y0000195730D01*
X-0000098150Y0000194000D01*
X-0000113200Y0000194000D01*
X-0000113730Y0000194530D01*
X-0000130420Y0000194530D01*
X-0000131920Y0000193030D01*
X-0000147818Y0000193030D01*
X-0000148308Y0000193520D01*
X-0000148308Y0000194010D01*
X-0000148798Y0000194500D01*
X-0000150268Y0000194500D01*
X-0000150758Y0000194010D01*
X-0000150758Y0000193520D01*
X-0000151248Y0000193030D01*
X-0000162634Y0000193030D01*
X-0000163124Y0000193520D01*
X-0000163124Y0000194610D01*
X-0000163614Y0000195100D01*
X-0000165084Y0000195100D01*
X-0000165574Y0000194610D01*
X-0000165574Y0000193520D01*
X-0000166064Y0000193030D01*
X-0000172907Y0000193030D01*
X-0000173397Y0000193520D01*
X-0000173397Y0000194210D01*
X-0000173887Y0000194700D01*
X-0000175357Y0000194700D01*
X-0000175847Y0000194210D01*
X-0000175847Y0000193120D01*
X-0000176337Y0000192630D01*
X-0000177707Y0000192630D01*
X-0000178297Y0000193220D01*
X-0000178297Y0000194410D01*
X-0000178787Y0000194900D01*
X-0000180257Y0000194900D01*
X-0000180747Y0000194410D01*
X-0000180747Y0000193190D01*
X-0000181237Y0000192700D01*
X-0000182510Y0000192700D01*
X-0000183000Y0000193190D01*
X-0000183000Y0000194200D01*
X-0000183400Y0000194600D01*
X-0000186810Y0000194600D01*
X-0000187300Y0000195090D01*
X-0000187300Y0000195710D01*
X-0000187790Y0000196200D01*
X-0000197020Y0000196200D01*
X-0000197428Y0000195792D01*
X-0000197428Y0000194420D01*
X-0000197918Y0000193930D01*
X-0000199388Y0000193930D01*
X-0000199978Y0000194520D01*
X-0000199978Y0000197540D01*
X-0000200468Y0000198030D01*
X-0000201938Y0000198030D01*
X-0000202428Y0000197540D01*
X-0000202428Y0000194420D01*
X-0000202918Y0000193930D01*
X-0000204288Y0000193930D01*
X-0000204778Y0000194420D01*
X-0000204778Y0000197540D01*
X-0000205268Y0000198030D01*
X-0000219520Y0000198030D01*
X-0000220900Y0000199410D01*
X-0000220900Y0000202300D01*
X-0000222295Y0000203695D01*
X-0000222295Y0000216086D01*
X-0000222890Y0000216681D01*
X-0000223820Y0000216681D01*
G01X-0000106286Y0000192281D02*
X-0000107318Y0000192281D01*
X-0000108999Y0000190600D01*
X-0000111500Y0000190600D01*
X-0000112376Y0000189724D01*
X-0000112376Y0000187720D01*
X-0000112866Y0000187230D01*
X-0000114336Y0000187230D01*
X-0000114826Y0000187720D01*
X-0000114826Y0000192340D01*
X-0000115316Y0000192830D01*
X-0000116786Y0000192830D01*
X-0000117276Y0000192340D01*
X-0000117276Y0000187720D01*
X-0000117766Y0000187230D01*
X-0000119236Y0000187230D01*
X-0000119726Y0000187720D01*
X-0000119726Y0000189840D01*
X-0000120216Y0000190330D01*
X-0000121686Y0000190330D01*
X-0000122176Y0000189840D01*
X-0000122176Y0000187720D01*
X-0000122666Y0000187230D01*
X-0000124136Y0000187230D01*
X-0000124626Y0000187720D01*
X-0000124626Y0000189140D01*
X-0000125116Y0000189630D01*
X-0000126711Y0000189630D01*
X-0000127201Y0000190120D01*
X-0000127201Y0000192140D01*
X-0000127691Y0000192630D01*
X-0000129161Y0000192630D01*
X-0000129651Y0000192140D01*
X-0000129651Y0000190020D01*
X-0000130141Y0000189530D01*
X-0000131530Y0000189530D01*
X-0000132020Y0000190020D01*
X-0000132020Y0000190530D01*
X-0000132620Y0000191130D01*
X-0000183630Y0000191130D01*
X-0000184930Y0000192430D01*
X-0000209412Y0000192430D01*
X-0000209902Y0000192920D01*
X-0000209902Y0000195940D01*
X-0000210392Y0000196430D01*
X-0000211862Y0000196430D01*
X-0000212352Y0000195940D01*
X-0000212352Y0000192920D01*
X-0000212842Y0000192430D01*
X-0000214730Y0000192430D01*
X-0000215220Y0000192920D01*
X-0000215220Y0000195855D01*
X-0000215820Y0000196455D01*
X-0000217920Y0000196455D01*
X-0000218945Y0000195430D01*
X-0000221620Y0000195430D01*
X-0000222220Y0000196030D01*
X-0000222220Y0000201348D01*
X-0000223472Y0000202600D01*
X-0000224600Y0000202600D01*
X-0000225303Y0000203303D01*
X-0000225303Y0000212049D01*
X-0000223820Y0000213532D01*
G01X-0000090538Y0000211966D02*
X-0000090538Y0000210838D01*
X-0000088220Y0000208520D01*
X-0000088220Y0000207030D01*
X-0000087220Y0000206030D01*
X-0000086320Y0000206030D01*
X-0000084720Y0000204430D01*
X-0000084720Y0000199530D01*
X-0000086350Y0000197900D01*
X-0000087550Y0000197900D01*
X-0000088520Y0000196930D01*
X-0000088520Y0000196030D01*
X-0000090020Y0000194530D01*
X-0000095220Y0000194530D01*
X-0000096420Y0000193330D01*
X-0000096420Y0000191830D01*
X-0000097720Y0000190530D01*
X-0000102278Y0000190530D01*
X-0000104000Y0000188808D01*
X-0000104000Y0000187500D01*
X-0000105500Y0000186000D01*
X-0000106900Y0000186000D01*
X-0000108870Y0000184030D01*
X-0000190330Y0000184030D01*
X-0000192900Y0000186600D01*
X-0000192900Y0000187100D01*
X-0000194730Y0000188930D01*
X-0000217120Y0000188930D01*
X-0000220220Y0000192030D01*
X-0000224630Y0000192030D01*
X-0000228720Y0000196120D01*
X-0000228720Y0000211781D01*
X-0000226969Y0000213532D01*
G01X-0000102349Y0000192281D02*
X-0000103219Y0000192281D01*
X-0000104970Y0000190530D01*
X-0000106620Y0000190530D01*
X-0000111620Y0000185530D01*
X-0000133020Y0000185530D01*
X-0000133620Y0000186130D01*
X-0000133620Y0000187930D01*
X-0000134520Y0000188830D01*
X-0000169520Y0000188830D01*
X-0000170120Y0000188230D01*
X-0000170120Y0000186530D01*
X-0000170720Y0000185930D01*
X-0000172539Y0000185930D01*
X-0000173029Y0000186420D01*
X-0000173029Y0000187440D01*
X-0000173519Y0000187930D01*
X-0000174499Y0000187930D01*
X-0000174989Y0000187440D01*
X-0000174989Y0000186420D01*
X-0000175479Y0000185930D01*
X-0000176459Y0000185930D01*
X-0000176949Y0000186420D01*
X-0000176949Y0000187440D01*
X-0000177439Y0000187930D01*
X-0000178419Y0000187930D01*
X-0000178909Y0000187440D01*
X-0000178909Y0000186420D01*
X-0000179399Y0000185930D01*
X-0000182330Y0000185930D01*
X-0000187030Y0000190630D01*
X-0000216320Y0000190630D01*
X-0000219320Y0000193630D01*
X-0000223520Y0000193630D01*
X-0000226969Y0000197079D01*
X-0000226969Y0000210383D01*
G01X-0000090538Y0000204092D02*
X-0000090538Y0000202900D01*
X-0000091028Y0000202410D01*
X-0000095040Y0000202410D01*
X-0000096520Y0000200930D01*
X-0000096520Y0000198580D01*
X-0000097170Y0000197930D01*
X-0000100766Y0000197930D01*
X-0000101256Y0000198420D01*
X-0000101256Y0000199840D01*
X-0000101746Y0000200330D01*
X-0000103830Y0000200330D01*
X-0000104320Y0000199840D01*
X-0000104320Y0000196290D01*
X-0000104810Y0000195800D01*
X-0000106730Y0000195800D01*
X-0000107220Y0000196290D01*
X-0000107220Y0000197430D01*
X-0000107720Y0000197930D01*
X-0000110797Y0000197930D01*
X-0000111287Y0000198420D01*
X-0000111287Y0000199840D01*
X-0000111777Y0000200330D01*
X-0000113247Y0000200330D01*
X-0000113737Y0000199840D01*
X-0000113737Y0000198420D01*
X-0000114227Y0000197930D01*
X-0000115697Y0000197930D01*
X-0000116187Y0000198420D01*
X-0000116187Y0000199840D01*
X-0000116677Y0000200330D01*
X-0000118147Y0000200330D01*
X-0000118637Y0000199840D01*
X-0000118637Y0000196920D01*
X-0000119127Y0000196430D01*
X-0000120597Y0000196430D01*
X-0000121087Y0000196920D01*
X-0000121087Y0000199840D01*
X-0000121577Y0000200330D01*
X-0000122847Y0000200330D01*
X-0000123337Y0000199840D01*
X-0000123337Y0000197120D01*
X-0000123827Y0000196630D01*
X-0000125130Y0000196630D01*
X-0000125620Y0000197120D01*
X-0000125620Y0000200030D01*
X-0000126020Y0000200430D01*
X-0000129070Y0000200430D01*
X-0000132570Y0000196930D01*
X-0000134207Y0000196930D01*
X-0000134697Y0000197420D01*
X-0000134697Y0000198310D01*
X-0000135187Y0000198800D01*
X-0000136657Y0000198800D01*
X-0000137147Y0000198310D01*
X-0000137147Y0000197420D01*
X-0000137767Y0000196800D01*
X-0000154200Y0000196800D01*
X-0000155000Y0000196000D01*
X-0000160170Y0000196000D01*
X-0000161100Y0000196930D01*
X-0000183430Y0000196930D01*
X-0000185300Y0000198800D01*
X-0000195800Y0000198800D01*
X-0000197400Y0000200400D01*
X-0000216300Y0000200400D01*
X-0000219900Y0000204000D01*
X-0000219900Y0000219000D01*
X-0000220730Y0000219830D01*
X-0000223820Y0000219830D01*
G01X-0000094475Y0000208029D02*
X-0000096221Y0000208029D01*
X-0000098220Y0000206030D01*
X-0000110919Y0000206030D01*
X-0000112519Y0000204430D01*
X-0000132420Y0000204430D01*
X-0000134950Y0000201900D01*
X-0000142100Y0000201900D01*
X-0000143770Y0000200230D01*
X-0000166930Y0000200230D01*
X-0000169130Y0000202430D01*
X-0000175530Y0000202430D01*
X-0000179200Y0000206100D01*
X-0000190400Y0000206100D01*
X-0000191195Y0000205305D01*
X-0000213035Y0000205305D01*
X-0000214220Y0000206490D01*
X-0000214220Y0000218530D01*
X-0000215720Y0000220030D01*
X-0000216330Y0000220030D01*
X-0000220704Y0000224404D01*
X-0000225346Y0000224404D01*
X-0000228720Y0000221030D01*
X-0000228720Y0000218530D01*
X-0000226969Y0000216779D01*
X-0000226969Y0000216681D01*
G01X-0000094475Y0000211966D02*
X-0000092720Y0000210211D01*
X-0000092720Y0000207530D01*
X-0000094220Y0000206030D01*
X-0000096220Y0000206030D01*
X-0000096720Y0000205530D01*
X-0000096720Y0000203669D01*
X-0000097792Y0000202597D01*
X-0000097803Y0000202597D01*
X-0000097900Y0000202500D01*
X-0000131350Y0000202500D01*
X-0000133050Y0000200800D01*
X-0000140500Y0000200800D01*
X-0000142570Y0000198730D01*
X-0000167830Y0000198730D01*
X-0000168600Y0000199500D01*
X-0000175700Y0000199500D01*
X-0000177500Y0000201300D01*
X-0000194100Y0000201300D01*
X-0000196330Y0000203530D01*
X-0000214720Y0000203530D01*
X-0000215795Y0000204605D01*
X-0000216811Y0000204605D01*
X-0000217645Y0000205439D01*
X-0000217645Y0000205495D01*
X-0000217720Y0000205570D01*
X-0000217720Y0000219120D01*
X-0000220130Y0000221530D01*
X-0000225269Y0000221530D01*
X-0000226969Y0000219830D01*
G01X-0000182671Y0000208806D02*
X-0000177607Y0000208806D01*
X-0000174501Y0000205700D01*
X-0000168900Y0000205700D01*
X-0000167155Y0000203955D01*
X-0000145795Y0000203955D01*
X-0000143720Y0000206030D01*
G01X-0000117220Y0000211966D02*
X-0000117284Y0000211966D01*
X-0000120220Y0000209030D01*
X-0000138520Y0000209030D01*
X-0000141720Y0000212230D01*
X-0000141720Y0000220530D01*
X-0000144955Y0000223765D01*
X-0000144955Y0000225766D01*
X-0000145720Y0000226530D01*
X-0000148000Y0000226530D01*
X-0000148770Y0000227300D01*
X-0000155800Y0000227300D01*
X-0000156830Y0000228330D01*
X-0000170020Y0000228330D01*
X-0000172720Y0000231030D01*
X-0000175616Y0000231030D01*
X-0000177369Y0000229277D01*
G01X-0000098412Y0000208029D02*
X-0000112321Y0000208029D01*
X-0000113720Y0000206630D01*
X-0000133720Y0000206630D01*
X-0000134420Y0000205930D01*
X-0000138420Y0000205930D01*
X-0000143120Y0000210630D01*
X-0000143520Y0000210630D01*
X-0000145720Y0000212830D01*
X-0000145720Y0000222030D01*
X-0000148290Y0000224600D01*
X-0000155800Y0000224600D01*
X-0000158030Y0000226830D01*
X-0000171773Y0000226830D01*
X-0000174220Y0000229277D01*
G01X-0000066916Y0000251336D02*
X-0000068720Y0000249532D01*
X-0000068720Y0000231530D01*
X-0000070820Y0000229430D01*
X-0000081570Y0000229430D01*
X-0000085400Y0000225600D01*
X-0000109399Y0000225600D01*
X-0000112829Y0000229030D01*
X-0000120530Y0000229030D01*
X-0000133100Y0000241600D01*
X-0000175830Y0000241600D01*
X-0000177026Y0000240404D01*
G01X-0000120220Y0000212030D02*
X-0000121250Y0000211000D01*
X-0000133500Y0000211000D01*
X-0000135093Y0000212593D01*
X-0000138283Y0000212593D01*
X-0000140220Y0000214530D01*
X-0000140220Y0000224030D01*
X-0000144220Y0000228030D01*
X-0000147100Y0000228030D01*
X-0000147875Y0000228805D01*
X-0000154505Y0000228805D01*
X-0000155900Y0000230200D01*
X-0000163914Y0000230200D01*
X-0000166244Y0000232530D01*
G01X-0000098412Y0000215903D02*
X-0000100285Y0000214030D01*
X-0000100285Y0000211465D01*
X-0000101329Y0000210421D01*
X-0000113111Y0000210421D01*
X-0000116720Y0000214030D01*
X-0000121470Y0000214030D01*
X-0000122500Y0000213000D01*
X-0000133470Y0000213000D01*
X-0000134500Y0000214030D01*
X-0000136720Y0000214030D01*
X-0000138120Y0000215430D01*
X-0000138120Y0000224530D01*
X-0000143120Y0000229530D01*
X-0000145830Y0000229530D01*
X-0000146500Y0000230200D01*
X-0000151318Y0000230200D01*
X-0000153648Y0000232530D01*
G01X-0000106286Y0000219840D02*
X-0000107526Y0000218600D01*
X-0000111900Y0000218600D01*
X-0000114400Y0000221100D01*
X-0000116845Y0000221100D01*
X-0000117335Y0000220610D01*
X-0000117335Y0000218990D01*
X-0000117825Y0000218500D01*
X-0000119809Y0000218500D01*
X-0000120300Y0000218991D01*
X-0000120300Y0000220610D01*
X-0000120790Y0000221100D01*
X-0000123910Y0000221100D01*
X-0000124400Y0000220610D01*
X-0000124400Y0000219143D01*
X-0000124890Y0000218653D01*
X-0000130253Y0000218653D01*
X-0000130800Y0000219200D01*
X-0000130800Y0000220610D01*
X-0000130310Y0000221100D01*
X-0000127090Y0000221100D01*
X-0000126600Y0000221590D01*
X-0000126600Y0000222800D01*
X-0000127000Y0000223200D01*
X-0000130210Y0000223200D01*
X-0000130800Y0000223790D01*
X-0000130800Y0000225910D01*
X-0000132243Y0000227353D01*
X-0000132243Y0000228045D01*
X-0000131140Y0000229148D01*
X-0000131140Y0000229840D01*
X-0000132730Y0000231430D01*
X-0000134434Y0000231430D01*
X-0000138497Y0000235493D01*
X-0000160132Y0000235493D01*
X-0000163095Y0000232530D01*
G01X-0000082664Y0000208029D02*
X-0000081310Y0000208029D01*
X-0000080820Y0000208519D01*
X-0000080820Y0000217130D01*
X-0000081720Y0000218030D01*
X-0000084330Y0000218030D01*
X-0000084820Y0000217540D01*
X-0000084820Y0000215590D01*
X-0000085310Y0000215100D01*
X-0000088130Y0000215100D01*
X-0000088620Y0000215590D01*
X-0000088620Y0000217210D01*
X-0000089110Y0000217700D01*
X-0000106840Y0000217700D01*
X-0000107440Y0000217100D01*
X-0000131190Y0000217100D01*
X-0000132620Y0000218530D01*
X-0000132620Y0000225130D01*
X-0000135020Y0000227530D01*
X-0000136520Y0000227530D01*
X-0000139265Y0000230275D01*
X-0000139265Y0000233075D01*
X-0000140265Y0000234075D01*
X-0000158401Y0000234075D01*
X-0000159946Y0000232530D01*
G01X-0000102349Y0000219840D02*
X-0000101909Y0000219400D01*
X-0000100510Y0000219400D01*
X-0000099900Y0000220010D01*
X-0000099900Y0000221790D01*
X-0000100510Y0000222400D01*
X-0000102104Y0000222400D01*
X-0000102594Y0000221910D01*
X-0000102594Y0000221875D01*
X-0000103084Y0000221385D01*
X-0000104064Y0000221385D01*
X-0000104979Y0000222300D01*
X-0000106024Y0000222300D01*
X-0000106514Y0000221810D01*
X-0000106514Y0000221798D01*
X-0000107212Y0000221100D01*
X-0000107900Y0000221100D01*
X-0000108474Y0000221674D01*
X-0000108474Y0000221910D01*
X-0000108964Y0000222400D01*
X-0000109944Y0000222400D01*
X-0000110434Y0000221910D01*
X-0000110434Y0000221274D01*
X-0000111008Y0000220700D01*
X-0000111820Y0000220700D01*
X-0000112394Y0000221274D01*
X-0000112394Y0000222094D01*
X-0000113260Y0000222960D01*
X-0000114310Y0000222960D01*
X-0000114800Y0000223450D01*
X-0000114800Y0000224510D01*
X-0000115720Y0000225430D01*
X-0000117870Y0000225430D01*
X-0000119500Y0000223800D01*
X-0000120200Y0000223800D01*
X-0000121830Y0000225430D01*
X-0000123770Y0000225430D01*
X-0000124500Y0000224700D01*
X-0000127880Y0000224700D01*
X-0000129100Y0000225920D01*
X-0000129100Y0000230000D01*
X-0000132430Y0000233330D01*
X-0000134020Y0000233330D01*
X-0000137602Y0000236912D01*
X-0000161862Y0000236912D01*
X-0000163095Y0000235679D01*
G01X-0000078727Y0000211966D02*
X-0000077511Y0000211966D01*
X-0000076520Y0000212957D01*
X-0000076520Y0000222330D01*
X-0000077890Y0000223700D01*
X-0000112190Y0000223700D01*
X-0000115345Y0000226855D01*
X-0000125355Y0000226855D01*
X-0000127000Y0000228500D01*
X-0000127000Y0000230200D01*
X-0000131930Y0000235130D01*
X-0000132820Y0000235130D01*
X-0000136020Y0000238330D01*
X-0000163593Y0000238330D01*
X-0000166244Y0000235679D01*
G01X-0000102349Y0000215903D02*
X-0000102349Y0000215901D01*
X-0000104220Y0000214030D01*
X-0000114720Y0000214030D01*
X-0000116220Y0000215530D01*
X-0000133520Y0000215530D01*
X-0000134520Y0000216530D01*
X-0000134520Y0000224330D01*
X-0000135720Y0000225530D01*
X-0000136720Y0000225530D01*
X-0000142220Y0000231030D01*
X-0000145131Y0000231030D01*
X-0000146631Y0000232530D01*
X-0000150499Y0000232530D01*
G01X-0000098412Y0000259210D02*
X-0000096790Y0000259210D01*
X-0000089900Y0000266100D01*
X-0000089900Y0000285300D01*
X-0000102979Y0000298379D01*
X-0000109069Y0000298379D01*
X-0000113720Y0000303030D01*
X-0000121720Y0000303030D01*
X-0000128100Y0000309410D01*
X-0000128100Y0000326767D01*
X-0000129984Y0000328651D01*
G01X-0000120720Y0000305030D02*
X-0000109220Y0000305030D01*
X-0000106720Y0000302530D01*
X-0000081720Y0000302530D01*
X-0000076950Y0000307300D01*
X-0000060200Y0000307300D01*
X-0000057930Y0000305030D01*
X-0000054370Y0000305030D01*
X-0000052300Y0000307100D01*
X-0000036700Y0000307100D01*
X-0000035575Y0000308225D01*
X-0000024915Y0000308225D01*
X-0000022720Y0000306030D01*
X-0000022720Y0000304252D01*
X-0000017806Y0000299338D01*
G01X-0000102349Y0000259210D02*
X-0000100541Y0000259210D01*
X-0000096720Y0000263031D01*
X-0000096720Y0000289020D01*
X-0000102230Y0000294530D01*
X-0000109500Y0000294530D01*
X-0000113970Y0000299000D01*
X-0000121500Y0000299000D01*
X-0000132500Y0000310000D01*
X-0000132500Y0000327230D01*
X-0000133921Y0000328651D01*
G01X-0000124547Y0000328651D02*
X-0000127600Y0000331704D01*
X-0000127600Y0000347650D01*
X-0000122220Y0000353030D01*
X-0000105720Y0000353030D01*
X-0000097805Y0000360945D01*
X-0000031975Y0000360945D01*
X-0000010400Y0000339370D01*
X0000008440Y0000339370D01*
X0000018328Y0000329482D01*
X0000018328Y0000326184D01*
X0000019982Y0000324530D01*
G01X-0000020220Y0000332530D02*
X-0000039690Y0000352000D01*
X-0000059100Y0000352000D01*
X-0000060085Y0000351015D01*
X-0000065315Y0000351015D01*
X-0000066175Y0000351875D01*
X-0000080725Y0000351875D01*
X-0000084865Y0000347735D01*
X-0000111915Y0000347735D01*
X-0000115320Y0000344330D01*
X-0000115320Y0000339730D01*
X-0000118220Y0000336830D01*
X-0000118220Y0000327530D01*
X-0000119186Y0000326564D01*
X-0000125314Y0000326564D01*
X-0000126400Y0000325478D01*
X-0000126400Y0000322630D01*
X-0000124547Y0000320777D01*
G01X-0000120704Y0000324714D02*
X-0000118036Y0000324714D01*
X-0000116420Y0000326330D01*
X-0000116420Y0000336330D01*
X-0000111120Y0000341630D01*
X-0000111120Y0000344480D01*
X-0000109570Y0000346030D01*
X-0000081103Y0000346030D01*
X-0000079187Y0000344114D01*
X-0000066786Y0000344114D01*
X-0000065951Y0000344949D01*
X-0000063349Y0000344949D01*
X-0000055200Y0000336800D01*
X-0000046599Y0000336800D01*
X-0000045329Y0000335530D01*
X-0000028220Y0000335530D01*
X-0000025220Y0000332530D01*
G01X-0000124547Y0000324714D02*
X-0000122697Y0000322864D01*
X-0000117220Y0000322864D01*
X-0000114620Y0000325464D01*
X-0000114620Y0000335930D01*
X-0000109170Y0000341380D01*
X-0000063960Y0000341380D01*
X-0000057700Y0000335120D01*
X-0000048310Y0000335120D01*
X-0000044075Y0000330885D01*
X-0000028575Y0000330885D01*
X-0000025220Y0000327530D01*
G01X0000016833Y0000327679D02*
X0000011342Y0000333170D01*
X-0000008310Y0000333170D01*
X-0000031540Y0000356400D01*
X-0000084200Y0000356400D01*
X-0000085570Y0000355030D01*
X-0000099720Y0000355030D01*
X-0000104220Y0000350530D01*
X-0000112720Y0000350530D01*
X-0000114220Y0000349030D01*
X-0000121220Y0000349030D01*
X-0000123400Y0000346850D01*
X-0000123400Y0000334058D01*
X-0000122697Y0000333355D01*
X-0000122697Y0000330507D01*
X-0000120841Y0000328651D01*
X-0000120641Y0000328651D01*
G01X0000016833Y0000324530D02*
X0000011903Y0000319600D01*
X-0000025790Y0000319600D01*
X-0000030220Y0000324030D01*
X-0000037730Y0000324030D01*
X-0000039300Y0000325600D01*
X-0000047573Y0000325600D01*
X-0000052503Y0000330530D01*
X-0000080720Y0000330530D01*
X-0000086420Y0000336230D01*
X-0000107837Y0000336230D01*
X-0000109220Y0000334847D01*
X-0000109220Y0000322030D01*
X-0000114410Y0000316840D01*
X-0000120610Y0000316840D01*
G01X0000013684Y0000324530D02*
X0000011954Y0000322800D01*
X-0000026490Y0000322800D01*
X-0000029375Y0000325685D01*
X-0000036285Y0000325685D01*
X-0000038100Y0000327500D01*
X-0000046390Y0000327500D01*
X-0000050950Y0000332060D01*
X-0000079740Y0000332060D01*
X-0000085710Y0000338030D01*
X-0000108120Y0000338030D01*
X-0000111020Y0000335130D01*
X-0000111020Y0000322730D01*
X-0000115060Y0000318690D01*
X-0000122697Y0000318690D01*
X-0000124547Y0000316840D01*
G01X0000013684Y0000327679D02*
X0000012105Y0000326100D01*
X-0000015150Y0000326100D01*
X-0000015720Y0000325530D01*
X-0000026220Y0000325530D01*
X-0000030065Y0000329375D01*
X-0000045265Y0000329375D01*
X-0000049480Y0000333590D01*
X-0000079380Y0000333590D01*
X-0000085320Y0000339530D01*
X-0000108920Y0000339530D01*
X-0000112820Y0000335630D01*
X-0000112820Y0000323430D01*
X-0000115473Y0000320777D01*
X-0000120673Y0000320777D01*
G01X-0000106286Y0000263147D02*
X-0000104669Y0000261530D01*
X-0000101219Y0000261530D01*
X-0000100220Y0000262529D01*
X-0000100220Y0000264742D01*
X-0000100710Y0000265232D01*
X-0000104230Y0000265232D01*
X-0000104720Y0000265722D01*
X-0000104720Y0000267192D01*
X-0000104230Y0000267682D01*
X-0000100710Y0000267682D01*
X-0000100220Y0000268172D01*
X-0000100220Y0000274810D01*
X-0000100710Y0000275300D01*
X-0000104450Y0000275300D01*
X-0000104720Y0000275030D01*
X-0000104720Y0000271030D01*
X-0000105220Y0000270530D01*
X-0000107220Y0000270530D01*
X-0000107720Y0000271030D01*
X-0000107720Y0000277260D01*
X-0000107230Y0000277750D01*
X-0000099710Y0000277750D01*
X-0000099220Y0000278240D01*
X-0000099220Y0000279710D01*
X-0000099710Y0000280200D01*
X-0000107230Y0000280200D01*
X-0000107720Y0000280690D01*
X-0000107720Y0000282160D01*
X-0000107230Y0000282650D01*
X-0000099710Y0000282650D01*
X-0000099220Y0000283140D01*
X-0000099220Y0000284500D01*
X-0000099820Y0000285100D01*
X-0000111230Y0000285100D01*
X-0000111720Y0000285590D01*
X-0000111720Y0000287060D01*
X-0000111230Y0000287550D01*
X-0000104600Y0000287550D01*
X-0000104000Y0000288150D01*
X-0000104000Y0000289430D01*
X-0000104600Y0000290030D01*
X-0000105720Y0000290030D01*
X-0000106220Y0000290530D01*
X-0000106220Y0000292030D01*
G01X0000060780Y0000114960D02*
X0000050150Y0000104330D01*
X-0000077120Y0000104330D01*
X-0000079720Y0000106930D01*
X-0000079720Y0000110030D01*
X-0000093920Y0000124230D01*
X-0000093920Y0000132230D01*
X-0000092120Y0000134030D01*
X-0000092120Y0000137620D01*
X-0000094520Y0000140020D01*
X-0000094520Y0000152820D01*
X-0000097420Y0000155720D01*
X-0000097420Y0000175080D01*
X-0000096500Y0000176000D01*
X-0000096500Y0000181500D01*
X-0000095500Y0000182500D01*
X-0000086000Y0000182500D01*
X-0000084200Y0000184300D01*
X-0000084200Y0000185850D01*
X-0000083699Y0000186351D01*
X-0000082500Y0000186351D01*
X-0000080507Y0000188344D01*
X-0000078727Y0000188344D01*
G01X0000063380Y0000125530D02*
X0000061480Y0000123630D01*
X0000061480Y0000119830D01*
X0000062780Y0000118530D01*
X0000062780Y0000111530D01*
X0000054280Y0000103030D01*
X0000051183Y0000103030D01*
X0000051138Y0000103075D01*
X-0000079165Y0000103075D01*
X-0000081720Y0000105630D01*
X-0000081720Y0000109730D01*
X-0000096320Y0000124330D01*
X-0000096320Y0000138320D01*
X-0000098620Y0000140620D01*
X-0000098620Y0000151820D01*
X-0000099870Y0000153070D01*
X-0000099870Y0000163580D01*
X-0000102065Y0000165775D01*
X-0000102065Y0000168295D01*
X-0000101920Y0000168440D01*
X-0000101920Y0000168530D01*
X-0000100000Y0000170450D01*
X-0000100000Y0000182000D01*
X-0000099500Y0000182500D01*
X-0000098000Y0000182500D01*
X-0000096500Y0000184000D01*
X-0000096500Y0000185500D01*
X-0000095212Y0000186788D01*
X-0000085462Y0000186788D01*
X-0000083906Y0000188344D01*
X-0000082664Y0000188344D01*
G01X-0000090720Y0000296530D02*
X-0000080710Y0000296530D01*
X-0000080220Y0000296040D01*
X-0000080220Y0000294265D01*
X-0000080710Y0000293775D01*
X-0000090730Y0000293775D01*
X-0000091220Y0000293285D01*
X-0000091220Y0000291815D01*
X-0000090730Y0000291325D01*
X-0000079826Y0000291325D01*
X-0000078800Y0000290299D01*
X-0000078800Y0000285261D01*
X-0000079390Y0000284671D01*
X-0000084906Y0000284671D01*
X-0000085396Y0000284181D01*
X-0000085396Y0000282711D01*
X-0000084906Y0000282221D01*
X-0000083190Y0000282221D01*
X-0000082700Y0000281731D01*
X-0000082700Y0000280261D01*
X-0000083190Y0000279771D01*
X-0000085406Y0000279771D01*
X-0000085896Y0000279281D01*
X-0000085896Y0000277811D01*
X-0000085406Y0000277321D01*
X-0000079290Y0000277321D01*
X-0000078800Y0000276831D01*
X-0000078800Y0000275396D01*
X-0000079290Y0000274906D01*
X-0000083379Y0000274906D01*
X-0000083869Y0000274416D01*
X-0000083869Y0000272946D01*
X-0000083379Y0000272456D01*
X-0000079490Y0000272456D01*
X-0000078800Y0000271766D01*
X-0000078800Y0000263200D01*
X-0000081000Y0000261000D01*
X-0000084811Y0000261000D01*
X-0000086601Y0000259210D01*
G01X-0000078727Y0000247399D02*
X-0000078727Y0000247523D01*
X-0000076720Y0000249530D01*
X-0000076720Y0000299530D01*
X-0000071450Y0000304800D01*
X-0000060990Y0000304800D01*
X-0000049890Y0000293700D01*
X-0000040700Y0000293700D01*
X-0000038300Y0000296100D01*
X-0000038300Y0000298600D01*
X-0000034600Y0000302300D01*
X-0000030775Y0000302300D01*
X-0000026400Y0000306675D01*
G01X-0000014657Y0000299337D02*
X-0000014657Y0000302467D01*
X-0000021720Y0000309530D01*
X-0000037570Y0000309530D01*
X-0000038500Y0000308600D01*
X-0000057100Y0000308600D01*
X-0000059184Y0000310684D01*
X-0000077066Y0000310684D01*
X-0000083220Y0000304530D01*
G01X-0000055105Y0000259210D02*
X-0000056601Y0000259210D01*
X-0000057420Y0000260029D01*
X-0000057420Y0000286980D01*
X-0000056310Y0000288090D01*
X-0000048790Y0000288090D01*
X-0000048034Y0000287334D01*
X-0000034616Y0000287334D01*
X-0000033420Y0000288530D01*
X-0000016620Y0000288530D01*
X-0000015620Y0000289530D01*
X0000003010Y0000289530D01*
X0000003500Y0000289040D01*
X0000003500Y0000286020D01*
X0000003010Y0000285530D01*
X-0000000230Y0000285530D01*
X-0000000600Y0000285160D01*
X-0000000600Y0000283300D01*
X0000001128Y0000281572D01*
X0000001128Y0000280444D01*
G01X-0000057500Y0000292800D02*
X-0000056700Y0000292000D01*
X-0000039700Y0000292000D01*
X-0000038685Y0000290985D01*
X-0000025721Y0000290985D01*
X-0000024176Y0000292530D01*
X-0000016720Y0000292530D01*
X-0000015720Y0000291530D01*
X0000017780Y0000291530D01*
X0000024150Y0000297900D01*
X0000028342Y0000297900D01*
X0000029780Y0000299338D01*
G01X-0000067236Y0000324714D02*
X-0000065386Y0000326564D01*
X-0000062664Y0000326564D01*
X-0000057700Y0000321600D01*
X-0000040800Y0000321600D01*
X-0000039825Y0000322575D01*
X-0000031765Y0000322575D01*
X-0000027010Y0000317820D01*
X-0000017010Y0000317820D01*
X-0000014720Y0000315530D01*
G01X-0000017806Y0000308680D02*
X-0000020311Y0000311185D01*
X-0000038215Y0000311185D01*
X-0000039100Y0000310300D01*
X-0000052900Y0000310300D01*
X-0000056600Y0000314000D01*
X-0000062690Y0000314000D01*
X-0000069220Y0000320530D01*
X-0000069220Y0000326730D01*
X-0000067299Y0000328651D01*
G01X-0000014657Y0000308575D02*
X-0000019612Y0000313530D01*
X-0000031220Y0000313530D01*
X-0000032720Y0000315030D01*
X-0000049530Y0000315030D01*
X-0000051500Y0000317000D01*
X-0000060690Y0000317000D01*
X-0000062720Y0000319030D01*
X-0000064220Y0000319030D01*
X-0000065220Y0000320030D01*
X-0000065220Y0000322793D01*
X-0000063299Y0000324714D01*
G01X-0000063283Y0000320730D02*
X-0000061831Y0000320730D01*
X-0000060901Y0000319800D01*
X-0000037490Y0000319800D01*
X-0000036520Y0000318830D01*
X-0000030720Y0000318830D01*
X-0000028260Y0000316370D01*
X-0000018560Y0000316370D01*
X-0000017720Y0000315530D01*
G01X-0000051168Y0000208029D02*
X-0000049519Y0000208029D01*
X-0000047920Y0000206430D01*
X-0000041610Y0000206430D01*
X-0000041120Y0000205940D01*
X-0000041120Y0000202220D01*
X-0000040630Y0000201730D01*
X-0000038010Y0000201730D01*
X-0000037520Y0000202220D01*
X-0000037520Y0000209530D01*
X-0000038020Y0000210030D01*
X-0000040220Y0000210030D01*
X-0000040852Y0000210662D01*
X-0000040852Y0000220460D01*
X-0000039977Y0000221335D01*
X-0000026725Y0000221335D01*
X-0000023720Y0000218330D01*
X-0000019720Y0000218330D01*
X-0000011320Y0000209930D01*
X0000009080Y0000209930D01*
X0000010256Y0000211106D01*
X0000015376Y0000211106D01*
X0000016252Y0000210230D01*
X0000018880Y0000210230D01*
X0000019480Y0000210830D01*
X0000019480Y0000215930D01*
X0000021056Y0000217506D01*
X0000021056Y0000219061D01*
G01X-0000047231Y0000208029D02*
X-0000047231Y0000209040D01*
X-0000046741Y0000209530D01*
X-0000042820Y0000209530D01*
X-0000041799Y0000210551D01*
X-0000041799Y0000221452D01*
X-0000040918Y0000222333D01*
X-0000025923Y0000222333D01*
X-0000023020Y0000219430D01*
X-0000019120Y0000219430D01*
X-0000010820Y0000211130D01*
X0000004480Y0000211130D01*
X0000007605Y0000214255D01*
X0000016035Y0000214255D01*
X0000016410Y0000214630D01*
X0000016410Y0000216970D01*
X0000016970Y0000217530D01*
X0000018880Y0000217530D01*
X0000019480Y0000218130D01*
X0000019480Y0000219730D01*
X0000020306Y0000220556D01*
X0000021676Y0000220556D01*
X0000023202Y0000219030D01*
X0000027280Y0000219030D01*
G01X-0000051168Y0000211966D02*
X-0000051368Y0000211966D01*
X-0000052098Y0000211236D01*
X-0000052098Y0000210013D01*
X-0000051609Y0000209524D01*
X-0000050548Y0000209524D01*
X-0000050547Y0000209523D01*
X-0000049317Y0000209523D01*
X-0000048726Y0000210114D01*
X-0000048726Y0000212824D01*
X-0000048020Y0000213530D01*
X-0000046610Y0000213530D01*
X-0000046120Y0000214020D01*
X-0000046120Y0000215304D01*
X-0000046610Y0000215794D01*
X-0000047230Y0000215794D01*
X-0000047720Y0000216284D01*
X-0000047720Y0000217764D01*
X-0000047230Y0000218254D01*
X-0000046226Y0000218254D01*
X-0000045736Y0000218744D01*
X-0000045736Y0000223840D01*
X-0000045246Y0000224330D01*
X-0000024420Y0000224330D01*
X-0000021920Y0000221830D01*
X-0000020517Y0000221830D01*
X-0000019617Y0000222730D01*
X-0000018557Y0000222730D01*
X-0000017657Y0000221830D01*
X-0000013510Y0000221830D01*
X-0000013020Y0000221340D01*
X-0000013020Y0000216730D01*
X-0000009920Y0000213630D01*
X0000003480Y0000213630D01*
X0000006680Y0000216830D01*
X0000006680Y0000220140D01*
X0000007170Y0000220630D01*
X0000009390Y0000220630D01*
X0000009880Y0000220140D01*
X0000009880Y0000217895D01*
X0000010370Y0000217405D01*
X0000012690Y0000217405D01*
X0000013180Y0000217895D01*
X0000013180Y0000220140D01*
X0000013670Y0000220630D01*
X0000018480Y0000220630D01*
X0000020380Y0000222530D01*
X0000020380Y0000223919D01*
X0000019561Y0000224738D01*
X0000019561Y0000224750D01*
X0000018953Y0000225358D01*
X0000017905Y0000225358D01*
G01X-0000047231Y0000211966D02*
X-0000045279Y0000211966D01*
X-0000044789Y0000212456D01*
X-0000044789Y0000222411D01*
X-0000043868Y0000223332D01*
X-0000025222Y0000223332D01*
X-0000022520Y0000220630D01*
X-0000018730Y0000220630D01*
X-0000010430Y0000212330D01*
X0000003980Y0000212330D01*
X0000008280Y0000216630D01*
X0000008280Y0000219030D01*
G01X-0000035420Y0000231651D02*
X-0000035420Y0000233339D01*
X-0000035911Y0000233830D01*
X-0000041309Y0000233830D01*
X-0000041799Y0000233340D01*
X-0000041799Y0000230935D01*
X-0000041020Y0000230156D01*
X-0000037346Y0000230156D01*
X-0000036420Y0000229230D01*
X-0000034032Y0000229230D01*
X-0000033232Y0000230030D01*
X-0000032072Y0000230030D01*
X-0000031272Y0000229230D01*
X-0000028305Y0000229230D01*
X-0000027815Y0000229720D01*
X-0000027815Y0000230540D01*
X-0000027325Y0000231030D01*
X-0000026345Y0000231030D01*
X-0000025855Y0000230540D01*
X-0000025855Y0000229720D01*
X-0000025365Y0000229230D01*
X-0000024385Y0000229230D01*
X-0000023895Y0000229720D01*
X-0000023895Y0000230540D01*
X-0000023405Y0000231030D01*
X-0000022425Y0000231030D01*
X-0000021935Y0000230540D01*
X-0000021935Y0000227745D01*
X-0000020120Y0000225930D01*
X-0000010620Y0000225930D01*
X-0000009320Y0000224630D01*
X-0000009320Y0000219930D01*
X-0000006320Y0000216930D01*
X-0000004050Y0000216930D01*
X-0000003560Y0000217420D01*
X-0000003560Y0000218566D01*
X-0000004050Y0000219056D01*
X-0000005430Y0000219056D01*
X-0000005920Y0000219546D01*
X-0000005920Y0000220526D01*
X-0000005430Y0000221016D01*
X-0000004050Y0000221016D01*
X-0000003560Y0000221506D01*
X-0000003560Y0000223840D01*
X-0000003070Y0000224330D01*
X-0000002090Y0000224330D01*
X-0000001600Y0000223840D01*
X-0000001600Y0000219720D01*
X-0000001110Y0000219230D01*
X0000000090Y0000219230D01*
X0000000580Y0000219720D01*
X0000000580Y0000223540D01*
X0000001070Y0000224030D01*
X0000008680Y0000224030D01*
X0000010080Y0000225430D01*
X0000010080Y0000226613D01*
X0000010480Y0000227013D01*
X0000012197Y0000227013D01*
X0000013852Y0000225358D01*
X0000014756Y0000225358D01*
G01X-0000047231Y0000235588D02*
X-0000045310Y0000235588D01*
X-0000044820Y0000235098D01*
X-0000044820Y0000230420D01*
X-0000045310Y0000229930D01*
X-0000049182Y0000229930D01*
X-0000049673Y0000229439D01*
X-0000049673Y0000226577D01*
X-0000050220Y0000226030D01*
X-0000051320Y0000226030D01*
X-0000051920Y0000225430D01*
X-0000051920Y0000221930D01*
X-0000051325Y0000221335D01*
X-0000050548Y0000221335D01*
X-0000049943Y0000220730D01*
X-0000048815Y0000220730D01*
X-0000047720Y0000221825D01*
X-0000047720Y0000225530D01*
X-0000047220Y0000226030D01*
X-0000042220Y0000226030D01*
X-0000041720Y0000226530D01*
X-0000041720Y0000228726D01*
X-0000041230Y0000229216D01*
X-0000038744Y0000229216D01*
X-0000037862Y0000228334D01*
X-0000037862Y0000228282D01*
X-0000037820Y0000228240D01*
X-0000037820Y0000227010D01*
X-0000037029Y0000226219D01*
X-0000022409Y0000226219D01*
X-0000020820Y0000224630D01*
X-0000011830Y0000224630D01*
X-0000010720Y0000223520D01*
X-0000010720Y0000219030D01*
X-0000007120Y0000215430D01*
X-0000002327Y0000215430D01*
X-0000001537Y0000216220D01*
X-0000001537Y0000217240D01*
X-0000001047Y0000217730D01*
X-0000000067Y0000217730D01*
X0000000423Y0000217240D01*
X0000000423Y0000216220D01*
X0000000913Y0000215730D01*
X0000002780Y0000215730D01*
X0000004125Y0000217075D01*
X0000004125Y0000222139D01*
X0000004616Y0000222630D01*
X0000009914Y0000222630D01*
X0000010988Y0000223704D01*
X0000017415Y0000223704D01*
X0000017906Y0000223213D01*
X0000017906Y0000222207D01*
G01X-0000047231Y0000251336D02*
X-0000048729Y0000251336D01*
X-0000049220Y0000250845D01*
X-0000049220Y0000246330D01*
X-0000050020Y0000245530D01*
X-0000051920Y0000245530D01*
X-0000052670Y0000246280D01*
X-0000052670Y0000256130D01*
X-0000051370Y0000257430D01*
X-0000050120Y0000257430D01*
X-0000049420Y0000258130D01*
X-0000049420Y0000259330D01*
X-0000047148Y0000261602D01*
X-0000045998Y0000261602D01*
X-0000044839Y0000262761D01*
X-0000044839Y0000264311D01*
X-0000043620Y0000265530D01*
X-0000042120Y0000265530D01*
X-0000040852Y0000266798D01*
X-0000040852Y0000267704D01*
X-0000040820Y0000267736D01*
X-0000040820Y0000269740D01*
X-0000040330Y0000270230D01*
X-0000037110Y0000270230D01*
X-0000036620Y0000270720D01*
X-0000036620Y0000271740D01*
X-0000037210Y0000272330D01*
X-0000040430Y0000272330D01*
X-0000040920Y0000272820D01*
X-0000040920Y0000274135D01*
X-0000040430Y0000274625D01*
X0000007375Y0000274625D01*
X0000009000Y0000276250D01*
X0000009000Y0000282110D01*
X0000010475Y0000283585D01*
G01X-0000055105Y0000235588D02*
X-0000055105Y0000237410D01*
X-0000053610Y0000238905D01*
X-0000053610Y0000276340D01*
X-0000051520Y0000278430D01*
X-0000051520Y0000282330D01*
X-0000048150Y0000285700D01*
X-0000033750Y0000285700D01*
X-0000032620Y0000286830D01*
X-0000004410Y0000286830D01*
X-0000003520Y0000285940D01*
X-0000003520Y0000282830D01*
X-0000002720Y0000282030D01*
X-0000001220Y0000282030D01*
X-0000000367Y0000281177D01*
X-0000000367Y0000279824D01*
X0000000508Y0000278949D01*
X0000001748Y0000278949D01*
X0000003243Y0000280444D01*
X0000004287Y0000280444D01*
G01X-0000051168Y0000239525D02*
X-0000051168Y0000241082D01*
X-0000049220Y0000243030D01*
X-0000049220Y0000244030D01*
X-0000048220Y0000245030D01*
X-0000047220Y0000245030D01*
X-0000045220Y0000247030D01*
X-0000045220Y0000248530D01*
X-0000044220Y0000249530D01*
X-0000042720Y0000249530D01*
X-0000041720Y0000250530D01*
X-0000041720Y0000255680D01*
X-0000039870Y0000257530D01*
X-0000038720Y0000257530D01*
X-0000037220Y0000259030D01*
X-0000037220Y0000260030D01*
X-0000036220Y0000261030D01*
X-0000025170Y0000261030D01*
X-0000024400Y0000261800D01*
X-0000024400Y0000268144D01*
X-0000023910Y0000268634D01*
X-0000018066Y0000268634D01*
X-0000017300Y0000269400D01*
X0000011900Y0000269400D01*
X0000018800Y0000276300D01*
X0000026524Y0000276300D01*
X0000027015Y0000276791D01*
X0000027015Y0000279786D01*
X0000026357Y0000280444D01*
X0000023181Y0000280444D01*
G01X-0000051168Y0000263147D02*
X-0000051168Y0000264883D01*
X-0000049620Y0000266431D01*
X-0000049620Y0000274830D01*
X-0000046220Y0000278230D01*
X-0000046220Y0000280910D01*
X-0000045620Y0000281510D01*
X-0000044220Y0000281510D01*
X-0000043620Y0000280910D01*
X-0000043620Y0000278020D01*
X-0000043130Y0000277530D01*
X-0000041310Y0000277530D01*
X-0000040820Y0000278020D01*
X-0000040820Y0000281640D01*
X-0000040130Y0000282330D01*
X-0000038950Y0000282330D01*
X-0000038460Y0000281840D01*
X-0000038460Y0000280820D01*
X-0000037970Y0000280330D01*
X-0000036790Y0000280330D01*
X-0000036300Y0000280820D01*
X-0000036300Y0000281640D01*
X-0000035810Y0000282130D01*
X-0000034230Y0000282130D01*
X-0000033740Y0000281640D01*
X-0000033740Y0000280720D01*
X-0000033250Y0000280230D01*
X-0000032270Y0000280230D01*
X-0000031780Y0000280720D01*
X-0000031780Y0000281840D01*
X-0000031290Y0000282330D01*
X-0000030310Y0000282330D01*
X-0000029820Y0000281840D01*
X-0000029820Y0000278920D01*
X-0000029330Y0000278430D01*
X-0000017010Y0000278430D01*
X-0000016520Y0000278920D01*
X-0000016520Y0000280340D01*
X-0000016030Y0000280830D01*
X-0000014810Y0000280830D01*
X-0000014320Y0000280340D01*
X-0000014320Y0000277935D01*
X-0000013615Y0000277230D01*
X-0000012619Y0000277230D01*
X-0000012120Y0000277729D01*
X-0000012120Y0000283340D01*
X-0000011630Y0000283830D01*
X-0000010211Y0000283830D01*
X-0000009720Y0000283339D01*
X-0000009720Y0000278061D01*
X-0000009189Y0000277530D01*
X0000002330Y0000277530D01*
X0000003630Y0000278830D01*
X0000006776Y0000278830D01*
X0000007436Y0000279490D01*
X0000007436Y0000280444D01*
G01X-0000051168Y0000259210D02*
X-0000051168Y0000260082D01*
X-0000049623Y0000261627D01*
X-0000049623Y0000263977D01*
X-0000048061Y0000265539D01*
X-0000045510Y0000265539D01*
X-0000045020Y0000266029D01*
X-0000045020Y0000268340D01*
X-0000045510Y0000268830D01*
X-0000047630Y0000268830D01*
X-0000048120Y0000269320D01*
X-0000048120Y0000270340D01*
X-0000047430Y0000271030D01*
X-0000042810Y0000271030D01*
X-0000042320Y0000271520D01*
X-0000042320Y0000272740D01*
X-0000042810Y0000273230D01*
X-0000046720Y0000273230D01*
X-0000047323Y0000273833D01*
X-0000047323Y0000275227D01*
X-0000046700Y0000275850D01*
X-0000039446Y0000275850D01*
X-0000038956Y0000276340D01*
X-0000038956Y0000278340D01*
X-0000038466Y0000278830D01*
X-0000037486Y0000278830D01*
X-0000036996Y0000278340D01*
X-0000036996Y0000276340D01*
X-0000036506Y0000275850D01*
X-0000035390Y0000275850D01*
X-0000034900Y0000276340D01*
X-0000034900Y0000278240D01*
X-0000034410Y0000278730D01*
X-0000033430Y0000278730D01*
X-0000032940Y0000278240D01*
X-0000032940Y0000276340D01*
X-0000032450Y0000275850D01*
X-0000030712Y0000275850D01*
X-0000029732Y0000276830D01*
X-0000028752Y0000276830D01*
X-0000027772Y0000275850D01*
X-0000026792Y0000275850D01*
X-0000025812Y0000276830D01*
X-0000024832Y0000276830D01*
X-0000023852Y0000275850D01*
X-0000022872Y0000275850D01*
X-0000021892Y0000276830D01*
X-0000020912Y0000276830D01*
X-0000019932Y0000275850D01*
X-0000018952Y0000275850D01*
X-0000017972Y0000276830D01*
X-0000016992Y0000276830D01*
X-0000015962Y0000275800D01*
X0000006515Y0000275800D01*
X0000007436Y0000276721D01*
X0000007436Y0000277295D01*
G01X-0000047231Y0000255273D02*
X-0000047231Y0000256869D01*
X-0000045220Y0000258880D01*
X-0000045220Y0000260030D01*
X-0000044220Y0000261030D01*
X-0000042720Y0000261030D01*
X-0000041220Y0000262530D01*
X-0000041220Y0000264030D01*
X-0000040220Y0000265030D01*
X-0000038720Y0000265030D01*
X-0000037720Y0000266030D01*
X-0000037720Y0000268040D01*
X-0000037181Y0000268579D01*
X-0000035561Y0000268579D01*
X-0000034920Y0000269220D01*
X-0000034920Y0000272730D01*
X-0000034350Y0000273300D01*
X0000008850Y0000273300D01*
X0000014380Y0000278830D01*
X0000017480Y0000278830D01*
X0000018400Y0000279750D01*
X0000018400Y0000281150D01*
X0000019280Y0000282030D01*
X0000020780Y0000282030D01*
X0000021780Y0000283030D01*
X0000021780Y0000284530D01*
X0000022280Y0000285030D01*
X0000031280Y0000285030D01*
X0000032780Y0000283530D01*
X0000039078Y0000283530D01*
X0000043280Y0000287732D01*
X0000043280Y0000321180D01*
X0000046500Y0000324400D01*
X0000058410Y0000324400D01*
X0000060280Y0000322530D01*
G01X-0000043294Y0000251336D02*
X-0000045030Y0000251336D01*
X-0000045520Y0000251826D01*
X-0000045520Y0000256330D01*
X-0000044190Y0000257660D01*
X-0000042440Y0000257660D01*
X-0000041220Y0000258880D01*
X-0000041220Y0000260030D01*
X-0000040220Y0000261030D01*
X-0000038720Y0000261030D01*
X-0000037220Y0000262530D01*
X-0000037220Y0000264530D01*
X-0000036720Y0000265030D01*
X-0000034920Y0000265030D01*
X-0000034220Y0000265730D01*
X-0000032620Y0000265730D01*
X-0000031920Y0000265030D01*
X-0000027210Y0000265030D01*
X-0000026720Y0000265520D01*
X-0000026720Y0000268340D01*
X-0000027210Y0000268830D01*
X-0000032730Y0000268830D01*
X-0000033220Y0000269320D01*
X-0000033220Y0000271040D01*
X-0000032730Y0000271530D01*
X-0000024520Y0000271530D01*
X-0000023090Y0000270100D01*
X-0000020500Y0000270100D01*
X-0000019600Y0000271000D01*
X0000011500Y0000271000D01*
X0000013845Y0000273345D01*
X0000013845Y0000274037D01*
X0000013162Y0000274720D01*
X0000013162Y0000275616D01*
X0000013652Y0000276106D01*
X0000014548Y0000276106D01*
X0000015081Y0000275573D01*
X0000015773Y0000275573D01*
X0000018000Y0000277800D01*
X0000021037Y0000277800D01*
X0000021527Y0000278290D01*
X0000021527Y0000280905D01*
X0000023181Y0000282559D01*
X0000023181Y0000283593D01*
G01X-0000051168Y0000267084D02*
X-0000051168Y0000268650D01*
X-0000052120Y0000269602D01*
X-0000052120Y0000270610D01*
X-0000051168Y0000271562D01*
X-0000051168Y0000272570D01*
X-0000052120Y0000273522D01*
X-0000052120Y0000274530D01*
X-0000051168Y0000275482D01*
X-0000051168Y0000276382D01*
X-0000050320Y0000277230D01*
X-0000049120Y0000277230D01*
X-0000048120Y0000278230D01*
X-0000048120Y0000282680D01*
X-0000047620Y0000283180D01*
X-0000042050Y0000283180D01*
X-0000041300Y0000283930D01*
X-0000033320Y0000283930D01*
X-0000032220Y0000285030D01*
X-0000028630Y0000285030D01*
X-0000028140Y0000284540D01*
X-0000028140Y0000280324D01*
X-0000027566Y0000279750D01*
X-0000026754Y0000279750D01*
X-0000026180Y0000280324D01*
X-0000026180Y0000284840D01*
X-0000025690Y0000285330D01*
X-0000024710Y0000285330D01*
X-0000024220Y0000284840D01*
X-0000024220Y0000280354D01*
X-0000023646Y0000279780D01*
X-0000022834Y0000279780D01*
X-0000022260Y0000280354D01*
X-0000022260Y0000284840D01*
X-0000021770Y0000285330D01*
X-0000020790Y0000285330D01*
X-0000020300Y0000284840D01*
X-0000020300Y0000280354D01*
X-0000019726Y0000279780D01*
X-0000018914Y0000279780D01*
X-0000018340Y0000280354D01*
X-0000018340Y0000284840D01*
X-0000017850Y0000285330D01*
X-0000016870Y0000285330D01*
X-0000016280Y0000284740D01*
X-0000016280Y0000283120D01*
X-0000015790Y0000282630D01*
X-0000014600Y0000282630D01*
X-0000014000Y0000283230D01*
X-0000014000Y0000284730D01*
X-0000013400Y0000285330D01*
X-0000007420Y0000285330D01*
X-0000006700Y0000284610D01*
X-0000006700Y0000279410D01*
X-0000006220Y0000278930D01*
X-0000002501Y0000278930D01*
X-0000002011Y0000279420D01*
X-0000002011Y0000280444D01*
G01X-0000048800Y0000317030D02*
X-0000031720Y0000317030D01*
X-0000029720Y0000315030D01*
X-0000019335Y0000315030D01*
X-0000018340Y0000314035D01*
X-0000018335Y0000314035D01*
X-0000017330Y0000313030D01*
X-0000002220Y0000313030D01*
X0000001280Y0000316530D01*
X0000018330Y0000316530D01*
X0000026330Y0000324530D01*
G01X-0000035420Y0000192281D02*
X-0000035420Y0000190459D01*
X-0000032978Y0000188017D01*
X-0000032978Y0000187724D01*
X-0000031784Y0000186530D01*
X-0000031490Y0000186530D01*
X-0000031000Y0000186040D01*
X-0000031000Y0000186039D01*
X-0000029988Y0000185027D01*
X-0000029988Y0000184000D01*
X-0000028688Y0000182700D01*
X0000004700Y0000182700D01*
X0000009030Y0000187030D01*
X0000029480Y0000187030D01*
X0000031980Y0000189530D01*
X0000042530Y0000189530D01*
X0000057700Y0000204700D01*
X0000057700Y0000223200D01*
X0000058700Y0000224200D01*
X0000060700Y0000224200D01*
X0000061800Y0000225300D01*
X0000061800Y0000234000D01*
X0000063400Y0000235600D01*
X0000078350Y0000235600D01*
X0000107780Y0000265030D01*
X0000107780Y0000311920D01*
X0000067170Y0000352530D01*
X0000044780Y0000352530D01*
X0000040780Y0000356530D01*
X0000036280Y0000356530D01*
X0000034189Y0000354439D01*
G01X0000030505Y0000215912D02*
X0000031669Y0000215912D01*
X0000032159Y0000215422D01*
X0000032159Y0000206909D01*
X0000023350Y0000198100D01*
X0000004000Y0000198100D01*
X0000002580Y0000196680D01*
X-0000012470Y0000196680D01*
X-0000014920Y0000199130D01*
X-0000022520Y0000199130D01*
X-0000027623Y0000204233D01*
X-0000027623Y0000205227D01*
X-0000026020Y0000206830D01*
X-0000026020Y0000206994D01*
X-0000026044Y0000207019D01*
X-0000026044Y0000208654D01*
X-0000027420Y0000210030D01*
X-0000032530Y0000210030D01*
X-0000033020Y0000209540D01*
X-0000033020Y0000204830D01*
X-0000033758Y0000204092D01*
X-0000035420Y0000204092D01*
G01X-0000027546Y0000208029D02*
X-0000029130Y0000208029D01*
X-0000029620Y0000207539D01*
X-0000029620Y0000202530D01*
X-0000028820Y0000201730D01*
X-0000027006Y0000201730D01*
X-0000026051Y0000200775D01*
X-0000026051Y0000198961D01*
X-0000024820Y0000197730D01*
X-0000015120Y0000197730D01*
X-0000012645Y0000195255D01*
X0000003855Y0000195255D01*
X0000005300Y0000196700D01*
X0000023950Y0000196700D01*
X0000035280Y0000208030D01*
X0000035280Y0000212126D01*
X0000035770Y0000212616D01*
X0000036490Y0000212616D01*
X0000036980Y0000213106D01*
X0000036980Y0000214576D01*
X0000036490Y0000215066D01*
X0000035770Y0000215066D01*
X0000035280Y0000215556D01*
X0000035280Y0000217026D01*
X0000035770Y0000217516D01*
X0000036490Y0000217516D01*
X0000036980Y0000218006D01*
X0000036980Y0000219476D01*
X0000036490Y0000219966D01*
X0000035770Y0000219966D01*
X0000035280Y0000220456D01*
X0000035280Y0000223030D01*
X0000036803Y0000224553D01*
X0000036803Y0000225359D01*
G01X-0000031483Y0000204092D02*
X-0000031483Y0000202392D01*
X-0000029720Y0000200629D01*
X-0000029720Y0000200214D01*
X-0000027236Y0000197730D01*
X-0000026820Y0000197730D01*
X-0000025720Y0000196630D01*
X-0000025720Y0000196030D01*
X-0000023520Y0000193830D01*
X0000005230Y0000193830D01*
X0000006600Y0000195200D01*
X0000024950Y0000195200D01*
X0000038380Y0000208630D01*
X0000038380Y0000233229D01*
X0000036803Y0000234806D01*
G01X-0000031483Y0000188344D02*
X-0000029727Y0000190100D01*
X-0000025300Y0000190100D01*
X-0000024730Y0000189530D01*
X0000027780Y0000189530D01*
X0000033280Y0000195030D01*
X0000042580Y0000195030D01*
X0000055000Y0000207450D01*
X0000055000Y0000225400D01*
X0000057400Y0000227800D01*
X0000057400Y0000234300D01*
X0000062400Y0000239300D01*
X0000075550Y0000239300D01*
X0000101780Y0000265530D01*
X0000101780Y0000310820D01*
X0000063570Y0000349030D01*
X0000056467Y0000349030D01*
X0000055977Y0000348540D01*
X0000055977Y0000346490D01*
X0000055487Y0000346000D01*
X0000054017Y0000346000D01*
X0000053527Y0000346490D01*
X0000053527Y0000348540D01*
X0000053037Y0000349030D01*
X0000050897Y0000349030D01*
X0000050407Y0000348540D01*
X0000050407Y0000346390D01*
X0000049917Y0000345900D01*
X0000048447Y0000345900D01*
X0000047957Y0000346390D01*
X0000047957Y0000348440D01*
X0000047367Y0000349030D01*
X0000044689Y0000349030D01*
X0000039280Y0000354439D01*
G01X0000027354Y0000222210D02*
X0000028804Y0000220760D01*
X0000028804Y0000218055D01*
X0000026980Y0000216231D01*
X0000026980Y0000212330D01*
X0000028580Y0000210730D01*
X0000028580Y0000207430D01*
X0000025150Y0000204000D01*
X0000004450Y0000204000D01*
X-0000000020Y0000199530D01*
X-0000011820Y0000199530D01*
X-0000014420Y0000202130D01*
X-0000020820Y0000202130D01*
X-0000022520Y0000203830D01*
X-0000022520Y0000205040D01*
X-0000022030Y0000205530D01*
X-0000018110Y0000205530D01*
X-0000017620Y0000206020D01*
X-0000017620Y0000208092D01*
X-0000019052Y0000209524D01*
X-0000020023Y0000209524D01*
X-0000021720Y0000211221D01*
X-0000021720Y0000212330D01*
X-0000022851Y0000213461D01*
X-0000030762Y0000213461D01*
X-0000031483Y0000212740D01*
X-0000031483Y0000211966D01*
G01X0000030503Y0000231657D02*
X0000029580Y0000230734D01*
X0000029580Y0000230030D01*
X0000032597Y0000227013D01*
X0000034789Y0000227013D01*
X0000035280Y0000226522D01*
X0000035280Y0000224530D01*
X0000031998Y0000221248D01*
X0000031998Y0000218020D01*
X0000031508Y0000217530D01*
X0000030008Y0000217530D01*
X0000028780Y0000216302D01*
X0000028780Y0000212330D01*
X0000030280Y0000210830D01*
X0000030280Y0000207030D01*
X0000022750Y0000199500D01*
X0000002700Y0000199500D01*
X0000001305Y0000198105D01*
X-0000012195Y0000198105D01*
X-0000014720Y0000200630D01*
X-0000021820Y0000200630D01*
X-0000025120Y0000203930D01*
X-0000025120Y0000205540D01*
X-0000024130Y0000206530D01*
X-0000022223Y0000206530D01*
X-0000021224Y0000207529D01*
X-0000021224Y0000209033D01*
X-0000021715Y0000209524D01*
X-0000023282Y0000209524D01*
X-0000025724Y0000211966D01*
X-0000027546Y0000211966D01*
G01X-0000031483Y0000231651D02*
X-0000030704Y0000232430D01*
X-0000021120Y0000232430D01*
X-0000020320Y0000233230D01*
X-0000018520Y0000233230D01*
X-0000017820Y0000232530D01*
X-0000017820Y0000231030D01*
X-0000015320Y0000228530D01*
X-0000014330Y0000228530D01*
X-0000013360Y0000229500D01*
X-0000012360Y0000229500D01*
X-0000011390Y0000228530D01*
X-0000009258Y0000228530D01*
X-0000008767Y0000229021D01*
X-0000008767Y0000232573D01*
X-0000008110Y0000233230D01*
X-0000005410Y0000233230D01*
X-0000004920Y0000232740D01*
X-0000004920Y0000227420D01*
X-0000004430Y0000226930D01*
X-0000003020Y0000226930D01*
X-0000002484Y0000227466D01*
X-0000002484Y0000232766D01*
X-0000002020Y0000233230D01*
X0000000606Y0000233230D01*
X0000001096Y0000232740D01*
X0000001096Y0000227520D01*
X0000001586Y0000227030D01*
X0000002566Y0000227030D01*
X0000003056Y0000227520D01*
X0000003056Y0000232740D01*
X0000003546Y0000233230D01*
X0000004426Y0000233230D01*
X0000004916Y0000232740D01*
X0000004916Y0000227720D01*
X0000005406Y0000227230D01*
X0000006386Y0000227230D01*
X0000006876Y0000227720D01*
X0000006876Y0000232640D01*
X0000007466Y0000233230D01*
X0000008595Y0000233230D01*
X0000009085Y0000232740D01*
X0000009085Y0000231720D01*
X0000009575Y0000231230D01*
X0000010555Y0000231230D01*
X0000011045Y0000231720D01*
X0000011045Y0000232740D01*
X0000011535Y0000233230D01*
X0000012580Y0000233230D01*
X0000013380Y0000232430D01*
X0000013380Y0000231230D01*
X0000014480Y0000230130D01*
X0000017415Y0000230130D01*
X0000017906Y0000230621D01*
X0000017906Y0000231657D01*
G01X-0000031483Y0000239525D02*
X-0000030225Y0000239525D01*
X-0000029720Y0000240030D01*
X-0000029720Y0000244330D01*
X-0000028520Y0000245530D01*
X-0000019470Y0000245530D01*
X-0000019000Y0000246000D01*
X-0000019000Y0000247040D01*
X-0000018510Y0000247530D01*
X-0000005630Y0000247530D01*
X-0000003630Y0000249530D01*
X-0000001120Y0000249530D01*
X0000000780Y0000247630D01*
X0000000780Y0000245531D01*
X0000001381Y0000244930D01*
X0000003990Y0000244930D01*
X0000004480Y0000245420D01*
X0000004480Y0000246029D01*
X0000005281Y0000246830D01*
X0000009009Y0000246830D01*
X0000010009Y0000245830D01*
X0000012680Y0000245830D01*
X0000013880Y0000247030D01*
X0000019180Y0000247030D01*
X0000023480Y0000242730D01*
X0000028280Y0000242730D01*
X0000028880Y0000242130D01*
X0000028880Y0000239930D01*
X0000028480Y0000239530D01*
X0000026380Y0000239530D01*
X0000025780Y0000238930D01*
X0000025780Y0000234730D01*
X0000027358Y0000233152D01*
X0000031123Y0000233152D01*
X0000031745Y0000232530D01*
X0000031790Y0000232530D01*
X0000032159Y0000232161D01*
X0000032159Y0000230003D01*
X0000033654Y0000228508D01*
G01X-0000035420Y0000239525D02*
X-0000034210Y0000239525D01*
X-0000033120Y0000240615D01*
X-0000033120Y0000245040D01*
X-0000032630Y0000245530D01*
X-0000030920Y0000245530D01*
X-0000029920Y0000246530D01*
X-0000029920Y0000248280D01*
X-0000029270Y0000248930D01*
X-0000026106Y0000248930D01*
X-0000025206Y0000249830D01*
X-0000024146Y0000249830D01*
X-0000023246Y0000248930D01*
X-0000018638Y0000248930D01*
X-0000018148Y0000249420D01*
X-0000018148Y0000250740D01*
X-0000017615Y0000251273D01*
X-0000016221Y0000251273D01*
X-0000015588Y0000250640D01*
X-0000015588Y0000249720D01*
X-0000015098Y0000249230D01*
X-0000013318Y0000249230D01*
X-0000012728Y0000249820D01*
X-0000012728Y0000250540D01*
X-0000012238Y0000251030D01*
X-0000009558Y0000251030D01*
X-0000008968Y0000250440D01*
X-0000008968Y0000249520D01*
X-0000008433Y0000248985D01*
X-0000006515Y0000248985D01*
X-0000005500Y0000250000D01*
X-0000005500Y0000250640D01*
X-0000005010Y0000251130D01*
X0000000479Y0000251130D01*
X0000001180Y0000250429D01*
X0000001180Y0000249330D01*
X0000002380Y0000248130D01*
X0000004930Y0000248130D01*
X0000005665Y0000248865D01*
X0000005665Y0000250340D01*
X0000006155Y0000250830D01*
X0000007135Y0000250830D01*
X0000007625Y0000250340D01*
X0000007625Y0000248865D01*
X0000008115Y0000248375D01*
X0000010462Y0000248375D01*
X0000010987Y0000248900D01*
X0000013837Y0000248900D01*
X0000014327Y0000249390D01*
X0000014327Y0000250440D01*
X0000014817Y0000250930D01*
X0000015797Y0000250930D01*
X0000016287Y0000250440D01*
X0000016287Y0000249390D01*
X0000016777Y0000248900D01*
X0000020595Y0000248900D01*
X0000023585Y0000245910D01*
X0000029590Y0000245910D01*
X0000030505Y0000244995D01*
X0000030505Y0000234806D01*
G01X-0000027546Y0000235588D02*
X-0000024371Y0000235588D01*
X-0000023881Y0000236078D01*
X-0000023881Y0000238040D01*
X-0000023391Y0000238530D01*
X-0000021911Y0000238530D01*
X-0000021421Y0000238040D01*
X-0000021421Y0000236620D01*
X-0000020931Y0000236130D01*
X-0000019951Y0000236130D01*
X-0000019461Y0000236620D01*
X-0000019461Y0000237840D01*
X-0000018971Y0000238330D01*
X-0000017991Y0000238330D01*
X-0000017501Y0000237840D01*
X-0000017501Y0000236620D01*
X-0000017011Y0000236130D01*
X-0000015510Y0000236130D01*
X-0000015020Y0000236620D01*
X-0000015020Y0000241510D01*
X-0000014530Y0000242000D01*
X-0000013090Y0000242000D01*
X-0000012600Y0000241510D01*
X-0000012600Y0000238190D01*
X-0000012110Y0000237700D01*
X-0000009800Y0000237700D01*
X-0000008700Y0000238800D01*
X-0000006000Y0000238800D01*
X-0000005500Y0000239300D01*
X-0000005500Y0000240500D01*
X-0000005000Y0000241000D01*
X-0000002000Y0000241000D01*
X-0000000530Y0000239530D01*
X0000003490Y0000239530D01*
X0000003980Y0000239040D01*
X0000003980Y0000236621D01*
X0000004471Y0000236130D01*
X0000006010Y0000236130D01*
X0000006500Y0000236620D01*
X0000006500Y0000240010D01*
X0000006990Y0000240500D01*
X0000008145Y0000240500D01*
X0000008635Y0000240010D01*
X0000008635Y0000236620D01*
X0000009125Y0000236130D01*
X0000010005Y0000236130D01*
X0000010595Y0000236720D01*
X0000010595Y0000240010D01*
X0000011085Y0000240500D01*
X0000012590Y0000240500D01*
X0000013080Y0000240010D01*
X0000013080Y0000236791D01*
X0000013570Y0000236301D01*
X0000015751Y0000236301D01*
X0000016380Y0000236930D01*
X0000016380Y0000240010D01*
X0000016870Y0000240500D01*
X0000019090Y0000240500D01*
X0000019580Y0000240010D01*
X0000019580Y0000235397D01*
X0000018989Y0000234806D01*
X0000017906Y0000234806D01*
G01X-0000039357Y0000239525D02*
X-0000037339Y0000241543D01*
X-0000037339Y0000243948D01*
X-0000035957Y0000245330D01*
X-0000035020Y0000245330D01*
X-0000033620Y0000246730D01*
X-0000033620Y0000248130D01*
X-0000032520Y0000249230D01*
X-0000031320Y0000249230D01*
X-0000029820Y0000250730D01*
X-0000029820Y0000251430D01*
X-0000028420Y0000252830D01*
X-0000028167Y0000252830D01*
X-0000028166Y0000252831D01*
X-0000019052Y0000252831D01*
X-0000019051Y0000252830D01*
X0000010365Y0000252830D01*
X0000010987Y0000252208D01*
X0000020002Y0000252208D01*
X0000023180Y0000249030D01*
X0000028870Y0000249030D01*
X0000032000Y0000245900D01*
X0000032000Y0000234310D01*
X0000033158Y0000233152D01*
X0000034274Y0000233152D01*
X0000035149Y0000232277D01*
X0000035149Y0000230162D01*
X0000036803Y0000228508D01*
G01X-0000035420Y0000235588D02*
X-0000035420Y0000235120D01*
X-0000034393Y0000234093D01*
X-0000022557Y0000234093D01*
X-0000022120Y0000234530D01*
X-0000016210Y0000234530D01*
X-0000015720Y0000234040D01*
X-0000015720Y0000231520D01*
X-0000015200Y0000231000D01*
X-0000010810Y0000231000D01*
X-0000010320Y0000231490D01*
X-0000010320Y0000233210D01*
X-0000010810Y0000233700D01*
X-0000012830Y0000233700D01*
X-0000013320Y0000234190D01*
X-0000013320Y0000235800D01*
X-0000013020Y0000236100D01*
X-0000008900Y0000236100D01*
X-0000007925Y0000237075D01*
X-0000006085Y0000237075D01*
X-0000005520Y0000236510D01*
X-0000005520Y0000235120D01*
X-0000005030Y0000234630D01*
X-0000003594Y0000234630D01*
X-0000003104Y0000235120D01*
X-0000003104Y0000237510D01*
X-0000002614Y0000238000D01*
X-0000001634Y0000238000D01*
X-0000001144Y0000237510D01*
X-0000001144Y0000235120D01*
X-0000000654Y0000234630D01*
X0000012818Y0000234630D01*
X0000014296Y0000233152D01*
X0000019758Y0000233152D01*
X0000020380Y0000232530D01*
X0000020380Y0000228329D01*
X0000022980Y0000225729D01*
X0000022980Y0000224730D01*
X0000022080Y0000223830D01*
X0000022080Y0000222230D01*
X0000023580Y0000220730D01*
X0000025190Y0000220730D01*
X0000025680Y0000221220D01*
X0000025680Y0000223340D01*
X0000026170Y0000223830D01*
X0000032681Y0000223830D01*
X0000033654Y0000224803D01*
X0000033654Y0000225359D01*
G01X0000010625Y0000277295D02*
X0000015280Y0000281950D01*
X0000015280Y0000284030D01*
X0000018320Y0000287070D01*
X0000020820Y0000287070D01*
X0000025280Y0000291530D01*
X0000039280Y0000291530D01*
X0000040280Y0000292530D01*
X0000040280Y0000306530D01*
X0000038000Y0000308810D01*
X0000038000Y0000338920D01*
X0000021280Y0000355640D01*
X0000021280Y0000383530D01*
X0000015410Y0000389400D01*
X0000008150Y0000389400D01*
X0000003780Y0000385030D01*
X-0000006720Y0000385030D01*
X-0000011720Y0000390030D01*
X-0000032720Y0000390030D01*
X-0000035205Y0000387545D01*
G01X-0000019672Y0000231651D02*
X-0000019672Y0000230783D01*
X-0000016219Y0000227330D01*
X-0000009620Y0000227330D01*
X-0000007920Y0000225630D01*
X0000007580Y0000225630D01*
X0000009280Y0000227330D01*
X0000009280Y0000228430D01*
X0000010880Y0000230030D01*
X0000012580Y0000230030D01*
X0000013103Y0000229507D01*
X0000013103Y0000227997D01*
X0000014170Y0000226930D01*
X0000019484Y0000226930D01*
X0000021056Y0000225358D01*
G01X-0000019300Y0000259900D02*
X-0000016351Y0000262849D01*
X-0000016351Y0000264150D01*
X-0000015316Y0000265185D01*
X0000013185Y0000265185D01*
X0000020597Y0000272597D01*
X0000024205Y0000272597D01*
G01X-0000019672Y0000255273D02*
X-0000017628Y0000255273D01*
X-0000015800Y0000257101D01*
X-0000015800Y0000260300D01*
X-0000015100Y0000261000D01*
X-0000013633Y0000261000D01*
X-0000013143Y0000260510D01*
X-0000013143Y0000258190D01*
X-0000012653Y0000257700D01*
X-0000011283Y0000257700D01*
X-0000010793Y0000258190D01*
X-0000010793Y0000260695D01*
X-0000010303Y0000261185D01*
X-0000006115Y0000261185D01*
X-0000003900Y0000263400D01*
X-0000002184Y0000263400D01*
X-0000001694Y0000262910D01*
X-0000001694Y0000259790D01*
X-0000001204Y0000259300D01*
X0000000266Y0000259300D01*
X0000000756Y0000259790D01*
X0000000756Y0000262910D01*
X0000001246Y0000263400D01*
X0000005246Y0000263400D01*
X0000005736Y0000262910D01*
X0000005736Y0000259486D01*
X0000006226Y0000258996D01*
X0000007696Y0000258996D01*
X0000008186Y0000259486D01*
X0000008186Y0000262910D01*
X0000008676Y0000263400D01*
X0000010146Y0000263400D01*
X0000010636Y0000262910D01*
X0000010636Y0000261986D01*
X0000011126Y0000261496D01*
X0000016810Y0000261496D01*
X0000017300Y0000261986D01*
X0000017300Y0000267000D01*
X0000019748Y0000269448D01*
X0000024205Y0000269448D01*
G01X-0000015100Y0000255273D02*
X-0000009897Y0000255273D01*
X-0000007985Y0000257185D01*
X-0000006455Y0000257185D01*
X-0000006440Y0000257200D01*
X0000009500Y0000257200D01*
X0000010647Y0000258347D01*
X0000019910Y0000258347D01*
X0000022900Y0000255357D01*
X0000028857Y0000255357D01*
X0000029500Y0000256000D01*
X0000029500Y0000264100D01*
X0000028900Y0000264700D01*
X0000020590Y0000264700D01*
X0000020000Y0000265290D01*
X0000020000Y0000267410D01*
X0000020490Y0000267900D01*
X0000025800Y0000267900D01*
X0000027348Y0000269448D01*
X0000027354Y0000269448D01*
G01X-0000019320Y0000295030D02*
X0000013785Y0000295030D01*
X0000014280Y0000294535D01*
G01X-0000014700Y0000296400D02*
X-0000009720Y0000301380D01*
X-0000009720Y0000306530D01*
X-0000006220Y0000310030D01*
X0000014900Y0000310030D01*
X0000024570Y0000319700D01*
X0000027400Y0000319700D01*
X0000028600Y0000320900D01*
X0000028600Y0000328210D01*
X0000001130Y0000355680D01*
X0000001130Y0000371680D01*
X-0000014720Y0000387530D01*
G01X0000017030Y0000385030D02*
X0000017030Y0000351870D01*
X0000030600Y0000338300D01*
X0000030600Y0000334110D01*
X0000032280Y0000332430D01*
X0000032280Y0000299030D01*
X0000029280Y0000296030D01*
X0000024780Y0000296030D01*
X0000018220Y0000289470D01*
X0000009670Y0000289470D01*
X0000003793Y0000283593D01*
X0000001128Y0000283593D01*
G01X-0000008220Y0000370030D02*
X-0000001900Y0000363710D01*
X-0000001900Y0000353210D01*
X0000019935Y0000331375D01*
X0000019935Y0000327875D01*
X0000021530Y0000326280D01*
X0000021530Y0000322280D01*
X0000017280Y0000318030D01*
X-0000000170Y0000318030D01*
X-0000003224Y0000314976D01*
X-0000003276Y0000314976D01*
G01X-0000001220Y0000387530D02*
X0000002780Y0000391530D01*
X0000016281Y0000391530D01*
X0000023280Y0000384531D01*
X0000023280Y0000356530D01*
X0000040000Y0000339810D01*
X0000040000Y0000310500D01*
X0000041780Y0000308720D01*
X0000041780Y0000290030D01*
X0000039450Y0000287700D01*
X0000030700Y0000287700D01*
X0000030313Y0000288087D01*
X0000024837Y0000288087D01*
X0000022780Y0000286030D01*
X0000020280Y0000286030D01*
X0000018280Y0000284030D01*
X0000018280Y0000282880D01*
X0000016883Y0000281483D01*
X0000016883Y0000280444D01*
G01X0000063780Y0000226530D02*
X0000063780Y0000224680D01*
X0000061802Y0000222702D01*
X0000061802Y0000205852D01*
X0000033280Y0000177330D01*
X0000033280Y0000166030D01*
X0000028280Y0000161030D01*
X0000022780Y0000161030D01*
X0000014780Y0000153030D01*
X0000007780Y0000153030D01*
G01X0000063780Y0000233030D02*
X0000065780Y0000231030D01*
X0000065780Y0000204130D01*
X0000036780Y0000175130D01*
X0000036780Y0000165530D01*
X0000029280Y0000158030D01*
X0000023780Y0000158030D01*
X0000015780Y0000150030D01*
X0000009780Y0000150030D01*
X0000007780Y0000148030D01*
G01X0000010605Y0000280444D02*
X0000011900Y0000281739D01*
X0000011900Y0000284150D01*
X0000015860Y0000288110D01*
X0000019360Y0000288110D01*
X0000025780Y0000294530D01*
X0000030780Y0000294530D01*
X0000031780Y0000295530D01*
X0000035280Y0000295530D01*
X0000036125Y0000296375D01*
X0000036125Y0000336255D01*
X0000019780Y0000352600D01*
X0000019780Y0000354439D01*
G01X0000012780Y0000293030D02*
X0000014780Y0000293030D01*
X0000017900Y0000296150D01*
X0000017900Y0000308400D01*
X0000025600Y0000316100D01*
X0000026500Y0000316100D01*
X0000030280Y0000319880D01*
X0000030280Y0000331630D01*
X0000028700Y0000333210D01*
X0000028700Y0000337110D01*
X0000009530Y0000356280D01*
X0000009530Y0000387530D01*
G54D18*
X-0000207320Y0000207030D03*
X-0000212320Y0000217030D03*
X-0000202320Y0000207030D03*
X-0000202320Y0000217030D03*
X-0000202320Y0000212030D03*
X-0000207320Y0000217030D03*
X-0000212320Y0000212030D03*
X-0000212320Y0000207030D03*
X-0000207320Y0000212030D03*
X-0000207320Y0000221630D03*
X-0000212320Y0000221630D03*
X-0000202320Y0000221630D03*
X-0000198720Y0000303030D03*
X-0000198720Y0000348030D03*
X-0000197320Y0000207030D03*
X-0000197320Y0000217030D03*
X-0000197320Y0000212030D03*
X-0000197320Y0000221030D03*
X-0000197392Y0000241500D03*
X-0000185000Y0000241500D03*
X-0000185542Y0000267000D03*
X-0000193960Y0000290270D03*
X-0000185720Y0000284030D03*
X-0000197551Y0000290030D03*
X-0000189486Y0000292130D03*
X-0000189261Y0000296162D03*
X-0000183220Y0000300280D03*
X-0000189220Y0000300280D03*
X-0000190220Y0000310800D03*
X-0000185200Y0000311020D03*
X-0000193960Y0000336000D03*
X-0000189000Y0000337500D03*
X-0000189261Y0000342412D03*
X-0000183220Y0000346530D03*
X-0000190220Y0000358030D03*
X-0000189220Y0000346530D03*
X-0000184500Y0000358000D03*
X-0000168970Y0000259530D03*
X-0000168970Y0000264101D03*
X-0000168970Y0000277816D03*
X-0000168970Y0000268673D03*
X-0000168970Y0000273244D03*
X-0000168970Y0000282387D03*
X-0000179500Y0000267500D03*
X-0000175500Y0000273454D03*
X-0000168970Y0000286959D03*
X-0000168970Y0000291530D03*
X-0000173220Y0000287000D03*
X-0000179720Y0000284030D03*
X-0000177720Y0000291510D03*
X-0000158220Y0000207030D03*
X-0000163220Y0000217030D03*
X-0000153220Y0000207030D03*
X-0000153220Y0000217030D03*
X-0000153220Y0000212030D03*
X-0000158220Y0000217030D03*
X-0000163220Y0000207030D03*
X-0000163220Y0000212030D03*
X-0000158220Y0000212030D03*
X-0000158220Y0000222030D03*
X-0000163220Y0000222030D03*
X-0000153220Y0000222030D03*
X-0000162570Y0000259530D03*
X-0000162570Y0000264101D03*
X-0000151970Y0000259530D03*
X-0000151970Y0000264101D03*
X-0000156470Y0000259530D03*
X-0000151970Y0000273244D03*
X-0000162570Y0000268673D03*
X-0000162570Y0000273244D03*
X-0000162570Y0000277816D03*
X-0000162570Y0000282387D03*
X-0000151970Y0000268673D03*
X-0000151970Y0000277816D03*
X-0000151970Y0000282387D03*
X-0000156470Y0000277816D03*
X-0000156470Y0000268673D03*
X-0000162570Y0000286959D03*
X-0000162570Y0000291530D03*
X-0000151970Y0000291530D03*
X-0000151970Y0000286959D03*
X-0000156470Y0000286959D03*
X-0000138720Y0000116030D03*
X-0000141470Y0000156780D03*
X-0000134720Y0000172530D03*
X-0000134720Y0000177530D03*
X-0000148220Y0000207030D03*
X-0000148220Y0000217030D03*
X-0000148220Y0000212030D03*
X-0000148220Y0000222030D03*
X-0000145570Y0000264101D03*
X-0000145570Y0000259530D03*
X-0000139470Y0000259530D03*
X-0000145570Y0000268673D03*
X-0000145570Y0000282387D03*
X-0000145570Y0000277816D03*
X-0000145570Y0000273244D03*
X-0000139470Y0000268673D03*
X-0000139470Y0000277816D03*
X-0000145570Y0000291530D03*
X-0000145570Y0000286959D03*
X-0000139470Y0000286959D03*
X-0000136720Y0000303280D03*
X-0000136720Y0000343730D03*
X-0000136500Y0000339500D03*
X-0000134700Y0000332530D03*
X-0000136720Y0000360530D03*
X-0000135720Y0000352530D03*
X-0000140220Y0000360530D03*
X-0000140220Y0000357030D03*
X-0000138500Y0000354500D03*
X-0000135720Y0000356030D03*
X-0000135000Y0000375000D03*
X-0000140000Y0000375000D03*
X-0000135000Y0000380000D03*
X-0000140000Y0000380000D03*
X-0000122500Y0000130000D03*
X-0000123720Y0000144530D03*
X-0000129220Y0000172530D03*
X-0000129220Y0000177530D03*
X-0000119220Y0000192530D03*
X-0000123220Y0000192530D03*
X-0000129120Y0000187530D03*
X-0000128890Y0000197110D03*
X-0000132720Y0000195030D03*
X-0000123600Y0000229400D03*
X-0000122663Y0000223530D03*
X-0000121720Y0000268530D03*
X-0000126720Y0000268530D03*
X-0000127720Y0000277530D03*
X-0000133720Y0000277530D03*
X-0000121000Y0000297000D03*
X-0000119500Y0000289500D03*
X-0000120720Y0000305030D03*
X-0000130500Y0000299000D03*
X-0000120547Y0000309030D03*
X-0000130250Y0000302500D03*
X-0000120740Y0000301185D03*
X-0000120547Y0000312903D03*
X-0000129984Y0000328651D03*
X-0000133921Y0000328651D03*
X-0000124547Y0000328651D03*
X-0000124547Y0000320777D03*
X-0000120704Y0000324714D03*
X-0000124547Y0000324714D03*
X-0000120641Y0000328651D03*
X-0000120610Y0000316840D03*
X-0000124547Y0000316840D03*
X-0000120673Y0000320777D03*
X-0000130000Y0000324500D03*
X-0000124547Y0000332588D03*
X-0000129700Y0000343300D03*
X-0000125700Y0000343600D03*
X-0000120641Y0000332707D03*
X-0000120220Y0000347030D03*
X-0000120220Y0000355030D03*
X-0000120220Y0000351030D03*
X-0000123000Y0000361200D03*
X-0000128000Y0000361200D03*
X-0000132800Y0000361200D03*
X-0000112520Y0000134030D03*
X-0000106020Y0000136880D03*
X-0000114207Y0000144572D03*
X-0000105220Y0000167530D03*
X-0000110620Y0000167530D03*
X-0000114557Y0000167530D03*
X-0000107257Y0000171230D03*
X-0000118220Y0000172530D03*
X-0000118220Y0000177530D03*
X-0000114720Y0000172530D03*
X-0000114720Y0000177530D03*
X-0000114720Y0000182030D03*
X-0000110783Y0000182030D03*
X-0000107257Y0000175167D03*
X-0000116720Y0000223530D03*
X-0000117720Y0000254030D03*
X-0000116177Y0000286323D03*
X-0000107220Y0000313030D03*
X-0000107220Y0000319230D03*
X-0000107220Y0000326730D03*
X-0000109120Y0000343730D03*
X-0000117220Y0000340500D03*
X-0000113220Y0000343730D03*
X-0000107220Y0000334230D03*
X-0000104720Y0000343730D03*
X-0000107220Y0000359030D03*
X-0000107220Y0000355530D03*
X-0000115370Y0000355030D03*
X-0000115370Y0000347030D03*
X-0000115370Y0000351030D03*
X-0000111220Y0000359030D03*
X-0000098520Y0000136880D03*
X-0000102020Y0000136880D03*
X-0000089220Y0000135030D03*
X-0000096470Y0000151280D03*
X-0000090220Y0000167530D03*
X-0000095220Y0000167530D03*
X-0000095220Y0000162530D03*
X-0000100220Y0000167530D03*
X-0000102320Y0000171230D03*
X-0000090220Y0000172530D03*
X-0000102300Y0000175200D03*
X-0000092720Y0000281530D03*
X-0000087720Y0000285030D03*
X-0000087220Y0000313230D03*
X-0000101220Y0000313230D03*
X-0000094220Y0000313230D03*
X-0000087220Y0000326730D03*
X-0000087220Y0000319230D03*
X-0000094220Y0000319230D03*
X-0000101220Y0000319230D03*
X-0000094220Y0000326730D03*
X-0000101220Y0000326730D03*
X-0000101220Y0000334230D03*
X-0000087220Y0000334230D03*
X-0000094220Y0000334230D03*
X-0000088691Y0000343730D03*
X-0000095720Y0000343730D03*
X-0000095120Y0000349580D03*
X-0000089620Y0000353080D03*
X-0000095120Y0000353080D03*
X-0000089620Y0000349580D03*
X-0000088220Y0000357030D03*
X-0000093220Y0000357030D03*
X-0000090000Y0000377500D03*
X-0000092500Y0000380000D03*
X-0000087500Y0000380000D03*
X-0000090000Y0000382500D03*
X-0000095000Y0000382500D03*
X-0000076220Y0000116030D03*
X-0000080220Y0000175030D03*
X-0000080550Y0000280350D03*
X-0000073820Y0000350030D03*
X-0000077720Y0000350030D03*
X-0000083800Y0000353100D03*
X-0000076519Y0000363800D03*
X-0000058820Y0000147430D03*
X-0000058820Y0000157230D03*
X-0000067220Y0000312980D03*
X-0000069720Y0000339530D03*
X-0000055720Y0000340030D03*
X-0000055720Y0000345030D03*
X-0000065220Y0000359030D03*
X-0000069220Y0000359030D03*
X-0000064550Y0000352860D03*
X-0000055720Y0000350030D03*
X-0000058700Y0000359000D03*
X-0000064720Y0000347341D03*
X-0000052720Y0000160030D03*
X-0000049863Y0000296679D03*
X-0000041863Y0000296679D03*
X-0000045863Y0000296679D03*
X-0000045863Y0000289179D03*
X-0000048863Y0000312980D03*
X-0000052363Y0000312980D03*
X-0000045720Y0000312980D03*
X-0000049863Y0000300679D03*
X-0000041863Y0000304679D03*
X-0000041863Y0000300679D03*
X-0000045863Y0000304679D03*
X-0000049863Y0000304679D03*
X-0000045863Y0000300679D03*
X-0000049220Y0000324630D03*
X-0000045720Y0000340030D03*
X-0000045720Y0000345030D03*
X-0000050720Y0000345030D03*
X-0000050720Y0000340030D03*
X-0000048200Y0000359100D03*
X-0000050720Y0000350030D03*
X-0000045720Y0000350030D03*
X-0000043720Y0000377530D03*
X-0000041200Y0000366180D03*
X-0000047720Y0000377530D03*
X-0000045720Y0000393030D03*
X-0000039720Y0000387530D03*
X-0000025220Y0000154130D03*
X-0000034720Y0000297726D03*
X-0000034720Y0000313030D03*
X-0000034720Y0000320730D03*
X-0000034720Y0000327530D03*
X-0000034720Y0000332730D03*
X-0000034720Y0000337530D03*
X-0000025220Y0000342530D03*
X-0000024720Y0000367030D03*
X-0000029600Y0000367200D03*
X-0000035205Y0000387545D03*
X-0000024720Y0000387530D03*
X-0000008720Y0000152030D03*
X-0000008720Y0000156030D03*
X-0000011125Y0000263125D03*
X-0000020220Y0000327530D03*
X-0000014340Y0000370000D03*
X-0000008220Y0000370030D03*
X-0000018220Y0000367030D03*
X-0000014720Y0000387530D03*
X-0000000220Y0000148030D03*
X0000000843Y0000170030D03*
X-0000003094Y0000170030D03*
X-0000007031Y0000170030D03*
X-0000003094Y0000166093D03*
X0000000843Y0000166093D03*
X-0000007031Y0000166030D03*
X-0000000270Y0000157130D03*
X-0000000220Y0000161030D03*
X-0000007031Y0000173967D03*
X0000004780Y0000191530D03*
X0000007820Y0000211870D03*
X-0000007220Y0000223530D03*
X-0000007220Y0000263030D03*
X-0000007220Y0000259030D03*
X0000003091Y0000259504D03*
X-0000002720Y0000342286D03*
X0000003780Y0000367530D03*
X-0000001220Y0000387530D03*
X-0000005720Y0000387530D03*
X0000003280Y0000387530D03*
X0000013280Y0000148030D03*
X0000017280Y0000148030D03*
X0000012280Y0000155030D03*
X0000023780Y0000169030D03*
X0000012780Y0000160030D03*
X0000008780Y0000160030D03*
X0000010900Y0000167700D03*
X0000009100Y0000170100D03*
X0000009200Y0000164600D03*
X0000012900Y0000170100D03*
X0000021800Y0000165100D03*
X0000017680Y0000169230D03*
X0000017800Y0000165300D03*
X0000012500Y0000164700D03*
X0000023780Y0000173030D03*
X0000018031Y0000191780D03*
X0000022280Y0000202030D03*
X0000008918Y0000191798D03*
X0000012280Y0000202030D03*
X0000017280Y0000202030D03*
X0000009780Y0000331180D03*
X0000021780Y0000331180D03*
X0000011780Y0000367030D03*
X0000017030Y0000385030D03*
X0000009530Y0000387530D03*
X0000034500Y0000150000D03*
X0000024780Y0000154530D03*
X0000028780Y0000154953D03*
X0000028280Y0000169030D03*
X0000034500Y0000157530D03*
X0000025680Y0000165230D03*
X0000028280Y0000173030D03*
X0000028280Y0000181030D03*
X0000028280Y0000177030D03*
X0000036280Y0000197030D03*
X0000032361Y0000197030D03*
X0000035780Y0000192030D03*
X0000034280Y0000331185D03*
X0000027030Y0000358400D03*
X0000054000Y0000150500D03*
X0000055800Y0000147200D03*
X0000048374Y0000147000D03*
X0000044437Y0000147000D03*
X0000040500Y0000147000D03*
X0000048874Y0000141500D03*
X0000044937Y0000141500D03*
X0000041000Y0000141500D03*
X0000044680Y0000170030D03*
X0000044680Y0000165030D03*
X0000049680Y0000170030D03*
X0000055600Y0000168400D03*
X0000044680Y0000175030D03*
X0000045880Y0000187130D03*
X0000044680Y0000180030D03*
X0000041680Y0000197030D03*
X0000041780Y0000192830D03*
X0000045780Y0000228530D03*
X0000055280Y0000228530D03*
X0000051100Y0000221700D03*
X0000048500Y0000225359D03*
X0000051000Y0000228500D03*
X0000055611Y0000245630D03*
X0000055280Y0000236030D03*
X0000051830Y0000235980D03*
X0000048000Y0000236000D03*
X0000049000Y0000248530D03*
X0000055280Y0000266030D03*
X0000056049Y0000252000D03*
X0000051000Y0000252000D03*
X0000049000Y0000255530D03*
X0000049478Y0000283030D03*
X0000053280Y0000283030D03*
X0000045280Y0000311730D03*
X0000049780Y0000311730D03*
X0000055780Y0000326530D03*
X0000053000Y0000322500D03*
X0000049780Y0000336030D03*
X0000047032Y0000368530D03*
X0000052937Y0000368530D03*
X0000063528Y0000122030D03*
X0000071337Y0000163400D03*
X0000071100Y0000171000D03*
X0000071100Y0000167300D03*
X0000058700Y0000170900D03*
X0000059680Y0000183630D03*
X0000059680Y0000179530D03*
X0000056780Y0000187030D03*
X0000059680Y0000175030D03*
X0000072000Y0000187600D03*
X0000071800Y0000192000D03*
X0000067700Y0000192030D03*
X0000067717Y0000214030D03*
X0000071654Y0000214030D03*
X0000063802Y0000215055D03*
X0000059865Y0000215055D03*
X0000059843Y0000217967D03*
X0000063780Y0000217967D03*
X0000067717Y0000217967D03*
X0000071654Y0000217967D03*
X0000067717Y0000206530D03*
X0000071654Y0000206530D03*
X0000059843Y0000221904D03*
X0000063780Y0000221904D03*
X0000067717Y0000221904D03*
X0000071654Y0000221904D03*
X0000059780Y0000233030D03*
X0000059843Y0000226530D03*
X0000063780Y0000226530D03*
X0000063780Y0000233030D03*
X0000071717Y0000243530D03*
X0000067717Y0000243530D03*
X0000059780Y0000255660D03*
X0000067780Y0000297530D03*
X0000067780Y0000285530D03*
X0000067780Y0000291530D03*
X0000062780Y0000297530D03*
X0000057780Y0000297530D03*
X0000062780Y0000285530D03*
X0000062780Y0000291530D03*
X0000057780Y0000291530D03*
X0000058280Y0000285530D03*
X0000057800Y0000311600D03*
X0000061600Y0000311700D03*
X0000064780Y0000311730D03*
X0000069280Y0000311730D03*
X0000067780Y0000302030D03*
X0000062780Y0000302030D03*
X0000057780Y0000302030D03*
X0000065796Y0000322530D03*
X0000058843Y0000368530D03*
X0000064749Y0000368530D03*
X0000082600Y0000101500D03*
X0000077280Y0000122530D03*
X0000077280Y0000115030D03*
X0000085780Y0000119030D03*
X0000081100Y0000154600D03*
X0000075974Y0000163400D03*
X0000079811Y0000171000D03*
X0000079811Y0000167300D03*
X0000075874Y0000171000D03*
X0000075874Y0000167300D03*
X0000080900Y0000158500D03*
X0000080700Y0000162500D03*
X0000087402Y0000189530D03*
X0000083465Y0000189530D03*
X0000079528Y0000189530D03*
X0000079528Y0000194030D03*
X0000075591Y0000192030D03*
X0000075591Y0000197030D03*
X0000087402Y0000206530D03*
X0000083465Y0000206530D03*
X0000079528Y0000206530D03*
X0000075591Y0000206530D03*
X0000086780Y0000247030D03*
X0000083780Y0000275530D03*
X0000083780Y0000284030D03*
X0000083780Y0000298530D03*
X0000073280Y0000297530D03*
X0000073280Y0000285530D03*
X0000073280Y0000291530D03*
X0000083780Y0000311730D03*
X0000083780Y0000302530D03*
X0000083280Y0000306530D03*
X0000073780Y0000311730D03*
X0000073280Y0000302030D03*
X0000077607Y0000322530D03*
X0000078100Y0000375800D03*
X0000078281Y0000369030D03*
X0000083000Y0000369000D03*
X0000074780Y0000369030D03*
X0000097600Y0000101500D03*
X0000098016Y0000122030D03*
X0000098016Y0000116030D03*
X0000093000Y0000153280D03*
X0000093000Y0000165780D03*
X0000093000Y0000156900D03*
X0000101200Y0000158030D03*
X0000101000Y0000162200D03*
X0000093000Y0000160400D03*
X0000096900Y0000161900D03*
X0000091339Y0000177593D03*
X0000095276Y0000193467D03*
X0000095276Y0000189530D03*
X0000091339Y0000189530D03*
X0000095276Y0000202593D03*
X0000095276Y0000206530D03*
X0000091339Y0000206530D03*
X0000095780Y0000247530D03*
X0000088280Y0000275530D03*
X0000092280Y0000275530D03*
X0000095300Y0000297350D03*
X0000095280Y0000288530D03*
X0000095200Y0000304400D03*
X0000095200Y0000300800D03*
X0000095280Y0000311030D03*
X0000088780Y0000327530D03*
X0000094189Y0000342421D03*
X0000094080Y0000338530D03*
X0000094080Y0000334530D03*
X0000094080Y0000346530D03*
X0000098007Y0000361957D03*
X0000112600Y0000101500D03*
X0000110280Y0000119030D03*
X0000112616Y0000153280D03*
X0000115780Y0000159630D03*
X0000112616Y0000158030D03*
X0000112800Y0000162300D03*
X0000118430Y0000177130D03*
X0000111530Y0000177593D03*
X0000107280Y0000177593D03*
X0000118601Y0000183709D03*
X0000111434Y0000239784D03*
X0000117280Y0000237530D03*
X0000112434Y0000261984D03*
X0000117280Y0000267030D03*
X0000117280Y0000282030D03*
X0000117280Y0000277530D03*
X0000111780Y0000277530D03*
X0000111780Y0000273796D03*
X0000111686Y0000295936D03*
X0000104952Y0000289358D03*
X0000116957Y0000310707D03*
X0000119780Y0000306530D03*
X0000104952Y0000301358D03*
X0000104952Y0000311358D03*
X0000112127Y0000317877D03*
X0000104952Y0000322530D03*
X0000116280Y0000342530D03*
X0000107000Y0000335000D03*
X0000117780Y0000358530D03*
X0000127600Y0000101500D03*
X0000123016Y0000122294D03*
X0000123016Y0000116266D03*
X0000134780Y0000119030D03*
X0000128780Y0000177130D03*
X0000132780Y0000185630D03*
X0000132780Y0000189130D03*
X0000132280Y0000194030D03*
X0000132280Y0000197530D03*
X0000133280Y0000227530D03*
X0000122280Y0000237530D03*
X0000126780Y0000237530D03*
X0000132280Y0000267030D03*
X0000128280Y0000267030D03*
X0000122280Y0000267030D03*
X0000126780Y0000278030D03*
X0000122280Y0000278030D03*
X0000122280Y0000282030D03*
X0000126780Y0000282030D03*
X0000125280Y0000306530D03*
X0000127280Y0000321500D03*
X0000122280Y0000321500D03*
X0000125627Y0000317877D03*
X0000130600Y0000335300D03*
X0000132479Y0000344367D03*
X0000126300Y0000335200D03*
X0000133900Y0000332700D03*
X0000126200Y0000339817D03*
X0000126200Y0000343800D03*
X0000121780Y0000358530D03*
X0000132000Y0000366313D03*
X0000142600Y0000101500D03*
X0000142268Y0000122018D03*
X0000142268Y0000116030D03*
X0000150280Y0000119030D03*
X0000147280Y0000127530D03*
X0000147280Y0000132530D03*
X0000145380Y0000185230D03*
X0000145380Y0000189130D03*
X0000142280Y0000208530D03*
X0000142280Y0000215630D03*
X0000142280Y0000220530D03*
X0000140780Y0000238030D03*
X0000138934Y0000261984D03*
X0000139186Y0000295936D03*
X0000143592Y0000309030D03*
X0000143592Y0000305030D03*
X0000143593Y0000321905D03*
X0000139433Y0000317877D03*
X0000143592Y0000316030D03*
X0000136416Y0000344367D03*
X0000138500Y0000359000D03*
X0000138500Y0000363500D03*
X0000157280Y0000127530D03*
X0000152280Y0000127530D03*
X0000157280Y0000132530D03*
X0000152280Y0000132530D03*
X0000164780Y0000244030D03*
X0000164000Y0000262500D03*
X0000166435Y0000281530D03*
X0000164780Y0000271030D03*
X0000166435Y0000286030D03*
X0000155280Y0000309530D03*
X0000160280Y0000321030D03*
X0000160426Y0000315540D03*
X0000166280Y0000359530D03*
X0000166780Y0000386530D03*
X0000167137Y0000378363D03*
X0000162500Y0000378500D03*
X0000169500Y0000192500D03*
X0000171333Y0000262500D03*
X0000175000Y0000262500D03*
X0000167667Y0000262500D03*
X0000178500Y0000253000D03*
X0000182678Y0000253000D03*
X0000176780Y0000281530D03*
X0000171435Y0000281530D03*
X0000181454Y0000281530D03*
X0000176780Y0000291030D03*
X0000171435Y0000286030D03*
X0000176780Y0000286030D03*
X0000177280Y0000337530D03*
X0000169780Y0000337619D03*
X0000173780Y0000337619D03*
X0000173780Y0000342619D03*
X0000169780Y0000342619D03*
X0000177280Y0000346530D03*
X0000169780Y0000346619D03*
X0000173780Y0000346619D03*
X0000178423Y0000369000D03*
X0000182280Y0000369000D03*
X0000170709Y0000369180D03*
X0000174566Y0000369066D03*
X0000186780Y0000244030D03*
X0000190000Y0000253000D03*
X0000186339Y0000253000D03*
X0000191454Y0000281530D03*
X0000186454Y0000281530D03*
X0000186780Y0000270030D03*
X0000186454Y0000291030D03*
X0000191454Y0000291030D03*
X0000191454Y0000297619D03*
X0000186454Y0000297619D03*
X0000191454Y0000286030D03*
X0000186454Y0000327619D03*
X0000191454Y0000327619D03*
X0000188454Y0000337619D03*
X0000191454Y0000342619D03*
X0000191454Y0000337619D03*
X0000191454Y0000332619D03*
X0000186454Y0000332619D03*
X0000188454Y0000346619D03*
X0000191454Y0000346619D03*
X0000186780Y0000359530D03*
X0000186780Y0000386530D03*
X0000185500Y0000378500D03*
X0000189000Y0000378500D03*
G54D27*
X0000034237Y0000387495D03*
X0000091323Y0000387495D03*
G54D28*
X0000162371Y0000165030D03*
X0000186780Y0000165030D03*
G54D19*
X-0000186720Y0000329530D03*
X-0000186720Y0000319530D03*
X0000146280Y0000247030D03*
X0000146280Y0000257030D03*
X0000146280Y0000267030D03*
X0000146280Y0000277030D03*
X0000146280Y0000287030D03*
X0000146280Y0000297030D03*
X0000146280Y0000337030D03*
X0000146280Y0000347030D03*
X0000146280Y0000357030D03*
X0000146280Y0000367030D03*
X0000146280Y0000377030D03*
X0000146280Y0000387030D03*
X0000156280Y0000247030D03*
X0000156280Y0000257030D03*
X0000156280Y0000267030D03*
X0000156280Y0000277030D03*
X0000156280Y0000287030D03*
X0000156280Y0000297030D03*
X0000156280Y0000337030D03*
X0000156280Y0000347030D03*
X0000156280Y0000357030D03*
X0000156280Y0000367030D03*
X0000156280Y0000377030D03*
X0000156280Y0000387030D03*
G54D29*
X0000163280Y0000200030D03*
X0000163280Y0000210030D03*
X0000163280Y0000220030D03*
X0000187280Y0000220030D03*
X0000187280Y0000210030D03*
M02*
