G04 ================== begin FILE IDENTIFICATION RECORD ==================*
G04 Layout Name:  C:/Users/lzf/Desktop/ALTERA/0320/max10_dk_c/max10_dk_c.brd*
G04 Film Name:    ART04*
G04 File Format:  Gerber RS274X*
G04 File Origin:  Cadence Allegro 16.6-S023*
G04 Origin Date:  Fri Mar 20 16:34:19 2015*
G04 *
G04 Layer:  ETCH/ART04*
G04 Layer:  PIN/ART04*
G04 Layer:  VIA CLASS/ART04*
G04 *
G04 Offset:    (0.00 0.00)*
G04 Mirror:    No*
G04 Mode:      Positive*
G04 Rotation:  0*
G04 FullContactRelief:  No*
G04 UndefLineWidth:     6.00*
G04 ================== end FILE IDENTIFICATION RECORD ====================*
%FSAX55Y55*MOIN*%
%IR0*IPPOS*OFA0.00000B0.00000*MIA0B0*SFA1.00000B1.00000*%
%ADD26O,.06X.13*%
%ADD27O,.06X.108*%
%ADD22O,.064X.103*%
%ADD17C,.02*%
%ADD23C,.04*%
%ADD18C,.022*%
%ADD25C,.015*%
%ADD19C,.06*%
%ADD24C,.025*%
%ADD20C,.052*%
%ADD14C,.016*%
%ADD28O,.055X.168*%
%ADD30O,.168X.055*%
%ADD13C,.083*%
%ADD10C,.093*%
%ADD29C,.049*%
%ADD16C,.05118*%
%ADD31R,.049X.049*%
%ADD21C,.05906*%
%ADD11C,.15*%
%ADD12C,.11811*%
%ADD15C,.12795*%
%ADD32C,.01*%
%ADD33C,.004*%
%ADD34C,.0049*%
%ADD35C,.03204*%
G75*
%LPD*%
G75*
G36*
G01X0000128562Y0000281000D02*
X0000128562Y0000275938D01*
X0000127625Y0000275000D01*
X0000122000Y0000275000D01*
X0000119750Y0000272750D01*
X0000119750Y0000255750D01*
X0000109500Y0000245500D01*
X0000088432Y0000245500D01*
G02X0000088102Y0000246126I0J0000000400D01*
G03X0000085458Y0000246126I-0000001322J0000000904D01*
G02X0000085128Y0000245500I-0000000330J-0000000226D01*
G01X0000057219Y0000245500D01*
X0000057212Y0000245692D01*
G03X0000054010Y0000245692I-0000001601J-0000000062D01*
G01X0000054003Y0000245500D01*
X0000052344Y0000245500D01*
X0000052324Y0000245677D01*
G03X0000049736Y0000245677I-0000001294J-0000000147D01*
G01X0000049716Y0000245500D01*
X0000043094Y0000245500D01*
X0000043074Y0000245677D01*
G03X0000040944Y0000246528I-0000001294J-0000000147D01*
G02X0000040675Y0000246540I-0000000128J0000000154D01*
G01X0000038880Y0000248335D01*
X0000038880Y0000257130D01*
X0000039780Y0000258030D01*
X0000048430Y0000258030D01*
X0000053985Y0000252475D01*
X0000054049Y0000252475D01*
G02X0000054448Y0000252060I-0000000001J-0000000400D01*
G03X0000057650Y0000252060I0000001601J-0000000060D01*
G02X0000058049Y0000252475I0000000400J0000000015D01*
G01X0000102525Y0000252475D01*
X0000109780Y0000259730D01*
X0000109780Y0000272593D01*
G02X0000110493Y0000272842I0000000400J0D01*
G03X0000110493Y0000274750I0000001287J0000000954D01*
G02X0000109780Y0000274999I-0000000313J0000000249D01*
G01X0000109780Y0000281560D01*
X0000110360Y0000282140D01*
X0000112000Y0000283781D01*
X0000120803Y0000283781D01*
G02X0000121098Y0000283111I0J-0000000400D01*
G03X0000123462Y0000283111I0000001182J-0000001081D01*
G02X0000123757Y0000283781I0000000295J0000000270D01*
G01X0000125781Y0000283781D01*
X0000126045Y0000283517D01*
X0000125890Y0000283363D01*
X0000125875Y0000283352D01*
G03X0000128102Y0000281125I0000000905J-0000001322D01*
G01X0000128113Y0000281140D01*
X0000128267Y0000281295D01*
X0000128562Y0000281000D01*
G37*
%LPC*%
G75*
G54D35*
X0000117280Y0000267030D03*
X0000112434Y0000261984D03*
X0000095780Y0000247530D03*
%LPD*%
G75*
G54D10*
X-0000226720Y0000259530D03*
X-0000226720Y0000279530D03*
X-0000226720Y0000296530D03*
X-0000226720Y0000316530D03*
X-0000226720Y0000334280D03*
X-0000226720Y0000354280D03*
X-0000206720Y0000259530D03*
X-0000206720Y0000279530D03*
X-0000206720Y0000296530D03*
X-0000206720Y0000316530D03*
X-0000206720Y0000334280D03*
X-0000206720Y0000354280D03*
G54D11*
X-0000220220Y0000382530D03*
X-0000105720Y0000118530D03*
X0000122280Y0000382530D03*
X0000174280Y0000118530D03*
G54D20*
X-0000181634Y0000374530D03*
X-0000195807Y0000374530D03*
X-0000188720Y0000381617D03*
G54D12*
X-0000221220Y0000087530D03*
X-0000221220Y0000406530D03*
X0000179280Y0000087530D03*
X0000179280Y0000406530D03*
G54D21*
X-0000164720Y0000299030D03*
X-0000164720Y0000309030D03*
X-0000164720Y0000319030D03*
X-0000164720Y0000329030D03*
X-0000164720Y0000339030D03*
X-0000164720Y0000349030D03*
X-0000164720Y0000359030D03*
X-0000164720Y0000379030D03*
X-0000164720Y0000369030D03*
X-0000164720Y0000389030D03*
X-0000154720Y0000299030D03*
X-0000154720Y0000309030D03*
X-0000154720Y0000329030D03*
X-0000154720Y0000319030D03*
X-0000154720Y0000339030D03*
X-0000154720Y0000359030D03*
X-0000154720Y0000349030D03*
X-0000154720Y0000369030D03*
X-0000154720Y0000379030D03*
X-0000154720Y0000389030D03*
G54D30*
X0000174969Y0000183534D03*
G54D31*
X0000187280Y0000200030D03*
G54D13*
X-0000224612Y0000106146D03*
X-0000224612Y0000173114D03*
X-0000161620Y0000106146D03*
X-0000145636Y0000173114D03*
G54D22*
X-0000126590Y0000371530D03*
X-0000126590Y0000389837D03*
X-0000097850Y0000371530D03*
X-0000097850Y0000389837D03*
X-0000084590Y0000371530D03*
X-0000084590Y0000389837D03*
X-0000055850Y0000371530D03*
X-0000055850Y0000389837D03*
G54D32*
G01X-0000186720Y0000319530D02*
X-0000187720Y0000318530D01*
X-0000187720Y0000310030D01*
X-0000186320Y0000308630D01*
X-0000186320Y0000289680D01*
X-0000189000Y0000287000D01*
X-0000189000Y0000282500D01*
X-0000175173Y0000268673D01*
X-0000168970Y0000268673D01*
G01X-0000164720Y0000369030D02*
X-0000170720Y0000369030D01*
X-0000181120Y0000358630D01*
X-0000181120Y0000325130D01*
X-0000186720Y0000319530D01*
G01X-0000164720Y0000359030D02*
X-0000173853Y0000349897D01*
X-0000173853Y0000313500D01*
X-0000177620Y0000309733D01*
X-0000177620Y0000298380D01*
X-0000179840Y0000296160D01*
X-0000179840Y0000288686D01*
X-0000168970Y0000277816D01*
G01X-0000164720Y0000379030D02*
X-0000159720Y0000374030D01*
X-0000159720Y0000366030D01*
X-0000161720Y0000364030D01*
X-0000166520Y0000364030D01*
X-0000177487Y0000353063D01*
X-0000177487Y0000315500D01*
X-0000180720Y0000312267D01*
X-0000180720Y0000298780D01*
X-0000182000Y0000297500D01*
X-0000182000Y0000282500D01*
X-0000177500Y0000278000D01*
X-0000173726Y0000278000D01*
X-0000168970Y0000273244D01*
G01X-0000151970Y0000268673D02*
X-0000159720Y0000276423D01*
X-0000159720Y0000287530D01*
X-0000161620Y0000289430D01*
X-0000163440Y0000289430D01*
X-0000169020Y0000295010D01*
X-0000169020Y0000301930D01*
X-0000166420Y0000304530D01*
X-0000162721Y0000304530D01*
X-0000160220Y0000307031D01*
X-0000160220Y0000323530D01*
X-0000154720Y0000329030D01*
G01X-0000164720Y0000309030D02*
X-0000167720Y0000309030D01*
X-0000171070Y0000305680D01*
X-0000171070Y0000290660D01*
X-0000171000Y0000290590D01*
X-0000171000Y0000290500D01*
X-0000169559Y0000289059D01*
X-0000167749Y0000289059D01*
X-0000165720Y0000287030D01*
X-0000165720Y0000268481D01*
X-0000163440Y0000266201D01*
X-0000154070Y0000266201D01*
X-0000151970Y0000264101D01*
G01X-0000168970Y0000282387D02*
X-0000171120Y0000284536D01*
X-0000171120Y0000287870D01*
X-0000174000Y0000290750D01*
X-0000174000Y0000308000D01*
X-0000170220Y0000311780D01*
X-0000170220Y0000340030D01*
X-0000165720Y0000344530D01*
X-0000161720Y0000344530D01*
X-0000159720Y0000346530D01*
X-0000159720Y0000354030D01*
X-0000154720Y0000359030D01*
G01X-0000154720Y0000309030D02*
X-0000159720Y0000304030D01*
X-0000159720Y0000297530D01*
X-0000156720Y0000294530D01*
X-0000150720Y0000294530D01*
X-0000148720Y0000292530D01*
X-0000148720Y0000262780D01*
X-0000151970Y0000259530D01*
G01X-0000164720Y0000299030D02*
X-0000164720Y0000298179D01*
X-0000154220Y0000287679D01*
X-0000154220Y0000275494D01*
X-0000151970Y0000273244D01*
G01X-0000074790Y0000235588D02*
X-0000076590Y0000233788D01*
X-0000100478Y0000233788D01*
X-0000108352Y0000241662D01*
X-0000115852Y0000241662D01*
X-0000142220Y0000268030D01*
X-0000142220Y0000273530D01*
X-0000145570Y0000276880D01*
X-0000145570Y0000277816D01*
G01X-0000078727Y0000235588D02*
X-0000080669Y0000237530D01*
X-0000100220Y0000237530D01*
X-0000107952Y0000245262D01*
X-0000114553Y0000245262D01*
X-0000134220Y0000264929D01*
X-0000134220Y0000269530D01*
X-0000141720Y0000277030D01*
X-0000141720Y0000278537D01*
X-0000145570Y0000282387D01*
G01X-0000094475Y0000239525D02*
X-0000096480Y0000241530D01*
X-0000100220Y0000241530D01*
X-0000114820Y0000256130D01*
X-0000119320Y0000256130D01*
X-0000129220Y0000266030D01*
X-0000129220Y0000269530D01*
X-0000136720Y0000277030D01*
X-0000136720Y0000278109D01*
X-0000145570Y0000286959D01*
G01X-0000090538Y0000239525D02*
X-0000092675Y0000241662D01*
X-0000092675Y0000244208D01*
X-0000093997Y0000245530D01*
X-0000099220Y0000245530D01*
X-0000113220Y0000259530D01*
X-0000117320Y0000259530D01*
X-0000123820Y0000266030D01*
X-0000123820Y0000270630D01*
X-0000137720Y0000284530D01*
X-0000140220Y0000284530D01*
X-0000141720Y0000286030D01*
X-0000141720Y0000287680D01*
X-0000145570Y0000291530D01*
G01X-0000123720Y0000144530D02*
X-0000123720Y0000151380D01*
X-0000112600Y0000162500D01*
X-0000101800Y0000162500D01*
X-0000097700Y0000166600D01*
X-0000097700Y0000168400D01*
X-0000093570Y0000172530D01*
X-0000090220Y0000172530D01*
G01X0000132780Y0000189130D02*
X0000115880Y0000189130D01*
X0000111450Y0000184700D01*
X0000064610Y0000184700D01*
X0000054380Y0000194930D01*
X0000038380Y0000194930D01*
X0000036280Y0000197030D01*
G54D14*
X-0000227720Y0000180030D03*
X-0000217320Y0000180030D03*
X-0000217320Y0000186780D03*
X-0000217220Y0000175530D03*
X-0000216082Y0000202330D03*
X-0000224320Y0000189830D03*
X-0000220320Y0000189930D03*
X-0000223820Y0000200932D03*
X-0000217320Y0000194530D03*
X-0000223820Y0000197783D03*
X-0000227720Y0000190030D03*
X-0000223820Y0000204081D03*
X-0000226969Y0000216681D03*
X-0000223820Y0000216681D03*
X-0000223820Y0000213532D03*
X-0000226969Y0000213532D03*
X-0000226969Y0000210383D03*
X-0000223720Y0000207530D03*
X-0000216220Y0000208530D03*
X-0000216220Y0000206030D03*
X-0000216052Y0000217073D03*
X-0000223820Y0000211168D03*
X-0000223820Y0000222979D03*
X-0000218993Y0000232530D03*
X-0000224818Y0000226128D03*
X-0000226969Y0000219830D03*
X-0000224818Y0000229277D03*
X-0000223820Y0000219830D03*
X-0000215844Y0000232530D03*
X-0000222320Y0000232530D03*
X-0000216052Y0000221798D03*
X-0000215844Y0000235679D03*
X-0000222420Y0000235830D03*
X-0000198320Y0000180030D03*
X-0000205220Y0000180030D03*
X-0000210320Y0000186780D03*
X-0000213820Y0000186780D03*
X-0000206820Y0000186730D03*
X-0000198320Y0000186780D03*
X-0000198220Y0000175530D03*
X-0000210726Y0000202030D03*
X-0000201277Y0000202030D03*
X-0000206001Y0000202030D03*
X-0000206844Y0000194525D03*
X-0000213320Y0000202030D03*
X-0000208600Y0000224800D03*
X-0000200099Y0000232530D03*
X-0000212695Y0000232530D03*
X-0000203248Y0000232530D03*
X-0000209546Y0000232530D03*
X-0000206397Y0000232530D03*
X-0000212695Y0000235679D03*
X-0000185220Y0000180030D03*
X-0000184720Y0000175030D03*
X-0000187320Y0000186780D03*
X-0000190820Y0000186780D03*
X-0000194820Y0000186780D03*
X-0000192420Y0000175030D03*
X-0000188220Y0000175030D03*
X-0000193320Y0000202900D03*
X-0000195371Y0000194530D03*
X-0000192222Y0000194530D03*
X-0000189073Y0000194530D03*
X-0000185820Y0000211168D03*
X-0000185820Y0000215892D03*
X-0000193177Y0000209987D03*
X-0000193220Y0000216030D03*
X-0000185820Y0000218254D03*
X-0000185820Y0000204081D03*
X-0000193220Y0000213030D03*
X-0000185820Y0000208806D03*
X-0000182671Y0000208806D03*
X-0000193320Y0000225030D03*
X-0000196552Y0000224780D03*
X-0000193320Y0000219436D03*
X-0000183000Y0000223155D03*
X-0000190652Y0000232530D03*
X-0000182720Y0000219530D03*
X-0000187320Y0000232530D03*
X-0000183720Y0000232530D03*
X-0000185820Y0000220617D03*
X-0000193720Y0000232530D03*
X-0000191220Y0000259030D03*
X-0000187720Y0000259030D03*
X-0000194220Y0000259030D03*
X-0000174220Y0000180030D03*
X-0000166720Y0000175530D03*
X-0000166748Y0000186730D03*
X-0000177720Y0000175030D03*
X-0000181220Y0000175030D03*
X-0000166722Y0000180032D03*
X-0000173220Y0000175030D03*
X-0000177820Y0000180030D03*
X-0000166720Y0000202530D03*
X-0000167720Y0000194530D03*
X-0000176350Y0000189530D03*
X-0000174220Y0000200932D03*
X-0000172165Y0000189475D03*
X-0000182020Y0000189530D03*
X-0000174220Y0000204081D03*
X-0000166720Y0000208530D03*
X-0000166720Y0000206030D03*
X-0000174220Y0000207530D03*
X-0000174220Y0000211168D03*
X-0000166452Y0000217073D03*
X-0000174220Y0000213532D03*
X-0000177369Y0000216681D03*
X-0000177369Y0000213532D03*
X-0000177220Y0000211030D03*
X-0000174220Y0000216681D03*
X-0000174220Y0000222979D03*
X-0000169393Y0000232530D03*
X-0000172720Y0000232530D03*
X-0000166500Y0000222330D03*
X-0000177369Y0000229277D03*
X-0000174220Y0000219830D03*
X-0000174220Y0000229277D03*
X-0000177369Y0000219830D03*
X-0000177026Y0000240404D03*
X-0000155720Y0000180030D03*
X-0000163220Y0000186780D03*
X-0000159223Y0000186780D03*
X-0000155720Y0000186780D03*
X-0000156401Y0000202030D03*
X-0000156720Y0000194530D03*
X-0000161126Y0000202030D03*
X-0000151677Y0000202030D03*
X-0000163720Y0000202030D03*
X-0000158720Y0000225210D03*
X-0000156797Y0000232530D03*
X-0000166244Y0000232530D03*
X-0000153648Y0000232530D03*
X-0000163095Y0000232530D03*
X-0000159946Y0000232530D03*
X-0000153157Y0000240030D03*
X-0000157094Y0000240030D03*
X-0000161031Y0000240030D03*
X-0000164968Y0000240030D03*
X-0000163095Y0000235679D03*
X-0000166244Y0000235679D03*
X-0000143233Y0000180043D03*
X-0000143233Y0000186805D03*
X-0000135720Y0000186780D03*
X-0000139220Y0000186780D03*
X-0000146753Y0000186830D03*
X-0000145771Y0000195288D03*
X-0000143700Y0000202500D03*
X-0000139220Y0000195030D03*
X-0000142720Y0000195030D03*
X-0000136220Y0000211168D03*
X-0000136220Y0000215892D03*
X-0000143720Y0000216030D03*
X-0000136100Y0000203325D03*
X-0000136220Y0000207530D03*
X-0000143720Y0000213030D03*
X-0000143720Y0000209030D03*
X-0000136220Y0000218254D03*
X-0000143720Y0000206030D03*
X-0000146606Y0000225014D03*
X-0000143530Y0000224921D03*
X-0000143720Y0000219436D03*
X-0000137720Y0000232530D03*
X-0000136220Y0000220617D03*
X-0000136420Y0000229530D03*
X-0000150499Y0000232530D03*
X-0000141052Y0000232530D03*
X-0000136220Y0000223602D03*
X-0000144220Y0000232530D03*
X-0000149220Y0000240030D03*
X-0000139500Y0000240030D03*
X-0000135220Y0000239985D03*
X-0000120220Y0000212030D03*
X-0000122500Y0000219000D03*
X-0000132220Y0000236990D03*
X-0000106286Y0000184407D03*
X-0000106286Y0000180470D03*
X-0000106286Y0000188344D03*
X-0000106286Y0000200155D03*
X-0000106286Y0000192281D03*
X-0000109700Y0000192200D03*
X-0000110223Y0000196218D03*
X-0000114160Y0000196218D03*
X-0000106286Y0000211966D03*
X-0000114160Y0000208530D03*
X-0000110223Y0000204092D03*
X-0000106286Y0000215903D03*
X-0000106286Y0000204092D03*
X-0000117220Y0000211966D03*
X-0000109100Y0000227800D03*
X-0000106286Y0000227714D03*
X-0000113720Y0000227485D03*
X-0000106286Y0000219840D03*
X-0000115000Y0000219000D03*
X-0000110223Y0000247399D03*
X-0000110223Y0000243462D03*
X-0000106286Y0000263147D03*
X-0000106286Y0000267084D03*
X-0000106220Y0000292030D03*
X-0000106578Y0000296529D03*
X-0000106578Y0000300466D03*
X-0000106090Y0000304550D03*
X-0000087720Y0000146000D03*
X-0000090538Y0000180470D03*
X-0000102349Y0000184407D03*
X-0000098412Y0000180470D03*
X-0000090538Y0000184407D03*
X-0000094475Y0000184407D03*
X-0000094475Y0000180470D03*
X-0000098412Y0000184407D03*
X-0000102349Y0000180470D03*
X-0000094475Y0000192281D03*
X-0000098412Y0000192281D03*
X-0000090538Y0000192281D03*
X-0000094475Y0000196218D03*
X-0000090538Y0000196218D03*
X-0000094475Y0000188344D03*
X-0000098412Y0000188344D03*
X-0000102349Y0000188344D03*
X-0000102349Y0000192281D03*
X-0000102349Y0000196218D03*
X-0000098412Y0000200155D03*
X-0000098412Y0000196218D03*
X-0000094475Y0000200155D03*
X-0000090538Y0000200155D03*
X-0000090538Y0000188344D03*
X-0000094475Y0000208029D03*
X-0000090538Y0000208029D03*
X-0000094475Y0000211966D03*
X-0000090538Y0000211966D03*
X-0000098412Y0000211966D03*
X-0000090538Y0000204092D03*
X-0000102349Y0000204092D03*
X-0000098412Y0000204092D03*
X-0000094475Y0000215903D03*
X-0000094475Y0000204092D03*
X-0000102349Y0000211966D03*
X-0000102349Y0000215903D03*
X-0000098412Y0000215903D03*
X-0000098412Y0000208029D03*
X-0000090538Y0000215903D03*
X-0000098412Y0000219840D03*
X-0000094475Y0000219840D03*
X-0000090538Y0000231651D03*
X-0000094475Y0000231651D03*
X-0000090538Y0000227714D03*
X-0000094475Y0000227714D03*
X-0000102349Y0000227714D03*
X-0000102349Y0000219840D03*
X-0000090538Y0000243462D03*
X-0000090538Y0000235588D03*
X-0000098412Y0000247399D03*
X-0000094475Y0000247399D03*
X-0000090538Y0000239525D03*
X-0000098412Y0000239525D03*
X-0000094475Y0000243462D03*
X-0000094475Y0000239525D03*
X-0000094475Y0000235588D03*
X-0000090538Y0000247399D03*
X-0000098412Y0000235588D03*
X-0000098412Y0000259210D03*
X-0000090538Y0000259210D03*
X-0000102349Y0000259210D03*
X-0000094475Y0000251336D03*
X-0000098412Y0000251336D03*
X-0000102349Y0000255273D03*
X-0000090538Y0000255273D03*
X-0000090538Y0000263147D03*
X-0000094475Y0000259210D03*
X-0000102349Y0000271021D03*
X-0000098412Y0000271021D03*
X-0000094475Y0000267084D03*
X-0000098412Y0000267084D03*
X-0000090720Y0000296530D03*
X-0000102813Y0000291937D03*
X-0000094767Y0000300466D03*
X-0000090830Y0000300466D03*
X-0000094767Y0000304525D03*
X-0000098704Y0000304525D03*
X-0000098704Y0000300466D03*
X-0000090830Y0000304525D03*
X-0000102641Y0000300466D03*
X-0000102641Y0000304525D03*
X-0000071535Y0000113841D03*
X-0000082620Y0000115830D03*
X-0000073735Y0000113841D03*
X-0000078587Y0000122429D03*
X-0000078587Y0000124629D03*
X-0000075488Y0000136130D03*
X-0000082664Y0000184407D03*
X-0000086601Y0000184407D03*
X-0000074790Y0000184407D03*
X-0000078727Y0000184407D03*
X-0000078727Y0000180470D03*
X-0000082664Y0000180470D03*
X-0000086601Y0000180470D03*
X-0000074790Y0000180470D03*
X-0000086601Y0000200155D03*
X-0000078727Y0000192281D03*
X-0000074790Y0000192281D03*
X-0000082664Y0000200155D03*
X-0000078727Y0000196218D03*
X-0000078727Y0000188344D03*
X-0000074790Y0000196218D03*
X-0000074790Y0000200155D03*
X-0000078727Y0000200155D03*
X-0000082664Y0000196218D03*
X-0000074790Y0000188344D03*
X-0000086601Y0000196218D03*
X-0000086601Y0000192281D03*
X-0000082664Y0000188344D03*
X-0000082664Y0000192281D03*
X-0000086601Y0000188344D03*
X-0000078727Y0000208029D03*
X-0000082664Y0000204092D03*
X-0000082664Y0000215903D03*
X-0000082664Y0000211966D03*
X-0000086601Y0000208029D03*
X-0000074790Y0000204092D03*
X-0000074790Y0000215903D03*
X-0000078727Y0000215903D03*
X-0000078727Y0000204092D03*
X-0000086601Y0000211966D03*
X-0000086601Y0000204092D03*
X-0000078727Y0000211966D03*
X-0000082664Y0000208029D03*
X-0000074790Y0000211966D03*
X-0000074790Y0000208029D03*
X-0000074790Y0000227714D03*
X-0000078727Y0000231651D03*
X-0000086601Y0000231651D03*
X-0000082664Y0000219840D03*
X-0000082664Y0000231651D03*
X-0000074790Y0000231651D03*
X-0000074790Y0000219840D03*
X-0000078720Y0000219840D03*
X-0000078727Y0000227714D03*
X-0000078727Y0000239525D03*
X-0000078727Y0000243462D03*
X-0000082664Y0000235588D03*
X-0000078727Y0000235588D03*
X-0000074790Y0000235588D03*
X-0000082664Y0000247399D03*
X-0000086601Y0000247399D03*
X-0000074790Y0000243462D03*
X-0000082664Y0000243462D03*
X-0000086601Y0000235588D03*
X-0000074790Y0000239525D03*
X-0000074790Y0000247399D03*
X-0000078727Y0000247399D03*
X-0000086601Y0000239525D03*
X-0000082664Y0000255273D03*
X-0000086601Y0000259210D03*
X-0000086601Y0000263147D03*
X-0000074790Y0000263147D03*
X-0000082664Y0000251336D03*
X-0000078727Y0000259210D03*
X-0000082664Y0000259210D03*
X-0000082664Y0000263147D03*
X-0000074790Y0000255273D03*
X-0000074790Y0000251336D03*
X-0000078727Y0000251336D03*
X-0000086601Y0000255273D03*
X-0000078727Y0000255273D03*
X-0000082664Y0000267084D03*
X-0000074790Y0000267084D03*
X-0000086725Y0000276280D03*
X-0000082664Y0000270530D03*
X-0000086720Y0000270530D03*
X-0000086601Y0000267084D03*
X-0000086631Y0000273919D03*
X-0000072900Y0000284800D03*
X-0000071600Y0000292530D03*
X-0000086893Y0000300466D03*
X-0000083220Y0000304530D03*
X-0000086893Y0000304403D03*
X-0000073220Y0000335530D03*
X-0000081220Y0000343530D03*
X-0000081220Y0000339530D03*
X-0000077188Y0000337089D03*
X-0000073720Y0000346030D03*
X-0000078600Y0000346000D03*
X-0000063677Y0000101530D03*
X-0000057771Y0000101530D03*
X-0000069582Y0000101530D03*
X-0000066720Y0000121330D03*
X-0000065530Y0000116688D03*
X-0000067730Y0000116688D03*
X-0000058720Y0000116730D03*
X-0000055669Y0000113779D03*
X-0000060920Y0000116730D03*
X-0000059464Y0000119030D03*
X-0000070720Y0000119030D03*
X-0000059625Y0000124272D03*
X-0000061825Y0000124272D03*
X-0000069220Y0000124530D03*
X-0000057771Y0000136130D03*
X-0000069582Y0000136130D03*
X-0000063677Y0000136130D03*
X-0000066720Y0000123530D03*
X-0000059042Y0000184407D03*
X-0000066916Y0000184407D03*
X-0000070853Y0000184407D03*
X-0000070853Y0000180470D03*
X-0000059042Y0000180470D03*
X-0000066916Y0000180470D03*
X-0000066916Y0000196218D03*
X-0000070853Y0000188344D03*
X-0000059042Y0000196218D03*
X-0000070853Y0000192281D03*
X-0000070853Y0000196218D03*
X-0000066916Y0000192281D03*
X-0000059042Y0000192281D03*
X-0000066916Y0000188344D03*
X-0000059042Y0000200155D03*
X-0000066916Y0000200155D03*
X-0000059042Y0000188344D03*
X-0000070853Y0000200155D03*
X-0000059042Y0000211966D03*
X-0000070853Y0000208029D03*
X-0000070853Y0000215903D03*
X-0000059042Y0000204092D03*
X-0000070853Y0000204092D03*
X-0000066916Y0000204092D03*
X-0000066916Y0000215903D03*
X-0000059042Y0000215903D03*
X-0000066916Y0000211966D03*
X-0000066916Y0000208029D03*
X-0000059042Y0000208029D03*
X-0000070853Y0000211966D03*
X-0000070853Y0000227714D03*
X-0000066916Y0000227714D03*
X-0000066916Y0000219840D03*
X-0000059042Y0000219840D03*
X-0000066916Y0000231651D03*
X-0000059042Y0000227714D03*
X-0000070853Y0000219840D03*
X-0000070853Y0000231651D03*
X-0000059042Y0000231651D03*
X-0000059042Y0000235588D03*
X-0000066916Y0000235588D03*
X-0000066916Y0000239530D03*
X-0000070853Y0000235588D03*
X-0000070853Y0000247399D03*
X-0000070853Y0000243462D03*
X-0000059042Y0000243462D03*
X-0000059042Y0000247399D03*
X-0000066916Y0000247399D03*
X-0000066916Y0000243462D03*
X-0000059042Y0000239525D03*
X-0000070853Y0000239525D03*
X-0000059042Y0000263147D03*
X-0000066916Y0000263147D03*
X-0000066916Y0000259210D03*
X-0000059042Y0000255273D03*
X-0000059042Y0000259210D03*
X-0000059042Y0000251336D03*
X-0000070853Y0000259210D03*
X-0000066916Y0000255273D03*
X-0000070853Y0000255273D03*
X-0000070853Y0000263147D03*
X-0000066916Y0000251336D03*
X-0000059042Y0000267084D03*
X-0000066916Y0000267084D03*
X-0000070853Y0000267084D03*
X-0000070000Y0000285300D03*
X-0000057500Y0000292800D03*
X-0000068220Y0000287030D03*
X-0000068220Y0000290030D03*
X-0000058141Y0000297601D03*
X-0000069420Y0000300155D03*
X-0000069420Y0000303255D03*
X-0000063830Y0000299409D03*
X-0000063830Y0000302909D03*
X-0000056863Y0000306680D03*
X-0000061593Y0000309093D03*
X-0000055488Y0000328651D03*
X-0000059425Y0000328651D03*
X-0000067220Y0000320730D03*
X-0000063220Y0000316959D03*
X-0000067236Y0000324714D03*
X-0000067299Y0000328651D03*
X-0000063299Y0000324714D03*
X-0000063283Y0000320730D03*
X-0000064720Y0000343404D03*
X-0000064720Y0000339467D03*
X-0000064600Y0000335135D03*
X-0000040055Y0000101530D03*
X-0000051866Y0000101530D03*
X-0000045960Y0000101530D03*
X-0000051911Y0000121330D03*
X-0000042320Y0000116730D03*
X-0000051213Y0000115341D03*
X-0000049013Y0000115341D03*
X-0000044520Y0000116730D03*
X-0000053520Y0000113830D03*
X-0000044107Y0000137643D03*
X-0000051911Y0000123530D03*
X-0000041907Y0000137643D03*
X-0000051866Y0000136130D03*
X-0000046720Y0000136530D03*
X-0000047120Y0000140230D03*
X-0000047120Y0000142430D03*
X-0000042412Y0000156088D03*
X-0000042412Y0000158680D03*
X-0000051168Y0000184407D03*
X-0000043294Y0000180470D03*
X-0000051168Y0000180470D03*
X-0000055105Y0000180470D03*
X-0000047231Y0000184407D03*
X-0000043294Y0000184407D03*
X-0000055105Y0000184407D03*
X-0000047231Y0000200155D03*
X-0000051168Y0000196218D03*
X-0000043294Y0000196218D03*
X-0000047231Y0000196218D03*
X-0000051168Y0000188344D03*
X-0000055105Y0000188344D03*
X-0000043294Y0000188344D03*
X-0000055105Y0000192281D03*
X-0000043294Y0000200155D03*
X-0000051168Y0000200155D03*
X-0000047231Y0000188344D03*
X-0000055105Y0000200155D03*
X-0000047231Y0000192281D03*
X-0000055105Y0000196218D03*
X-0000043294Y0000192281D03*
X-0000051168Y0000192281D03*
X-0000047231Y0000204092D03*
X-0000047231Y0000208029D03*
X-0000051168Y0000208029D03*
X-0000051168Y0000211966D03*
X-0000055105Y0000211966D03*
X-0000047231Y0000211966D03*
X-0000055105Y0000208029D03*
X-0000055105Y0000204092D03*
X-0000043294Y0000204092D03*
X-0000051168Y0000204092D03*
X-0000055105Y0000215903D03*
X-0000051168Y0000215903D03*
X-0000043294Y0000215903D03*
X-0000043294Y0000211966D03*
X-0000043294Y0000208029D03*
X-0000055105Y0000231651D03*
X-0000055105Y0000219840D03*
X-0000043294Y0000219840D03*
X-0000055105Y0000227714D03*
X-0000047231Y0000227714D03*
X-0000051168Y0000219840D03*
X-0000051168Y0000231651D03*
X-0000047231Y0000231651D03*
X-0000051168Y0000227714D03*
X-0000047231Y0000219840D03*
X-0000043294Y0000227714D03*
X-0000043294Y0000231651D03*
X-0000047231Y0000239525D03*
X-0000043294Y0000247399D03*
X-0000047231Y0000247399D03*
X-0000055105Y0000239525D03*
X-0000043294Y0000243462D03*
X-0000051168Y0000235588D03*
X-0000043294Y0000235588D03*
X-0000055105Y0000247399D03*
X-0000047231Y0000243462D03*
X-0000055105Y0000243462D03*
X-0000051168Y0000247399D03*
X-0000051168Y0000243462D03*
X-0000055105Y0000235588D03*
X-0000051168Y0000239525D03*
X-0000047231Y0000235588D03*
X-0000043294Y0000239525D03*
X-0000055105Y0000251336D03*
X-0000047231Y0000259210D03*
X-0000055105Y0000255273D03*
X-0000051168Y0000251336D03*
X-0000055105Y0000259210D03*
X-0000051168Y0000263147D03*
X-0000043294Y0000263147D03*
X-0000043294Y0000259210D03*
X-0000051168Y0000259210D03*
X-0000043294Y0000255273D03*
X-0000055105Y0000263147D03*
X-0000047231Y0000255273D03*
X-0000047231Y0000263147D03*
X-0000047231Y0000251336D03*
X-0000051168Y0000255273D03*
X-0000043294Y0000251336D03*
X-0000051168Y0000267084D03*
X-0000043294Y0000267084D03*
X-0000055105Y0000267084D03*
X-0000047231Y0000267084D03*
X-0000049720Y0000278930D03*
X-0000053370Y0000278880D03*
X-0000048800Y0000317030D03*
X-0000034149Y0000101530D03*
X-0000028244Y0000101530D03*
X-0000038220Y0000123373D03*
X-0000024820Y0000122430D03*
X-0000027019Y0000122430D03*
X-0000029820Y0000116630D03*
X-0000027123Y0000116669D03*
X-0000038202Y0000113541D03*
X-0000024923Y0000116669D03*
X-0000032020Y0000116630D03*
X-0000036002Y0000113541D03*
X-0000034464Y0000119030D03*
X-0000036020Y0000123373D03*
X-0000032296Y0000137643D03*
X-0000030096Y0000137643D03*
X-0000039120Y0000137530D03*
X-0000028244Y0000136130D03*
X-0000034149Y0000136130D03*
X-0000023720Y0000136130D03*
X-0000025220Y0000158030D03*
X-0000033720Y0000157530D03*
X-0000039357Y0000184407D03*
X-0000027546Y0000184407D03*
X-0000027546Y0000180470D03*
X-0000035420Y0000180470D03*
X-0000031483Y0000180470D03*
X-0000023609Y0000184407D03*
X-0000039357Y0000180470D03*
X-0000035420Y0000184407D03*
X-0000031483Y0000184407D03*
X-0000039357Y0000192281D03*
X-0000039357Y0000188344D03*
X-0000039357Y0000196218D03*
X-0000031483Y0000188344D03*
X-0000035420Y0000192281D03*
X-0000035420Y0000200155D03*
X-0000039357Y0000200155D03*
X-0000031483Y0000192281D03*
X-0000035420Y0000196218D03*
X-0000027546Y0000188344D03*
X-0000035420Y0000188344D03*
X-0000027546Y0000200155D03*
X-0000031483Y0000200155D03*
X-0000027546Y0000196218D03*
X-0000027546Y0000192281D03*
X-0000023609Y0000192281D03*
X-0000031483Y0000196218D03*
X-0000023609Y0000196218D03*
X-0000031483Y0000215903D03*
X-0000035420Y0000204092D03*
X-0000027546Y0000208029D03*
X-0000031483Y0000204092D03*
X-0000031483Y0000211966D03*
X-0000027546Y0000211966D03*
X-0000035420Y0000208029D03*
X-0000035420Y0000211966D03*
X-0000035420Y0000215903D03*
X-0000023609Y0000208029D03*
X-0000031483Y0000208029D03*
X-0000039357Y0000211966D03*
X-0000027546Y0000215903D03*
X-0000039357Y0000215903D03*
X-0000039357Y0000208029D03*
X-0000039357Y0000204092D03*
X-0000023609Y0000211966D03*
X-0000031483Y0000219840D03*
X-0000039357Y0000227714D03*
X-0000023609Y0000227714D03*
X-0000035420Y0000231651D03*
X-0000035420Y0000219840D03*
X-0000027546Y0000227714D03*
X-0000031483Y0000227714D03*
X-0000035420Y0000227714D03*
X-0000031483Y0000231651D03*
X-0000039357Y0000219840D03*
X-0000039357Y0000231651D03*
X-0000031483Y0000243462D03*
X-0000031483Y0000247399D03*
X-0000023609Y0000247399D03*
X-0000027546Y0000247399D03*
X-0000035420Y0000247399D03*
X-0000027546Y0000243462D03*
X-0000039357Y0000247399D03*
X-0000039357Y0000243462D03*
X-0000035420Y0000243462D03*
X-0000023609Y0000243462D03*
X-0000031483Y0000235588D03*
X-0000031483Y0000239525D03*
X-0000035420Y0000239525D03*
X-0000027546Y0000235588D03*
X-0000039357Y0000239525D03*
X-0000035420Y0000235588D03*
X-0000039357Y0000235588D03*
X-0000039357Y0000255273D03*
X-0000031483Y0000259210D03*
X-0000035420Y0000259210D03*
X-0000031483Y0000263147D03*
X-0000039357Y0000263147D03*
X-0000031483Y0000255273D03*
X-0000035420Y0000251336D03*
X-0000023609Y0000251336D03*
X-0000031483Y0000251337D03*
X-0000035420Y0000255273D03*
X-0000027546Y0000251336D03*
X-0000027546Y0000263147D03*
X-0000027546Y0000255273D03*
X-0000035420Y0000263147D03*
X-0000039357Y0000259210D03*
X-0000023609Y0000255273D03*
X-0000039357Y0000267084D03*
X-0000035420Y0000267084D03*
X-0000031483Y0000267084D03*
X-0000035220Y0000292530D03*
X-0000035220Y0000289130D03*
X-0000029720Y0000306680D03*
X-0000034720Y0000306680D03*
X-0000026400Y0000306675D03*
X-0000025220Y0000327530D03*
X-0000025220Y0000332530D03*
X-0000022338Y0000101530D03*
X-0000014477Y0000115830D03*
X-0000014477Y0000113630D03*
X-0000022720Y0000115230D03*
X-0000020486Y0000121672D03*
X-0000018286Y0000121672D03*
X-0000016720Y0000155780D03*
X-0000019672Y0000180470D03*
X-0000019672Y0000196218D03*
X-0000019672Y0000192281D03*
X-0000015735Y0000196218D03*
X-0000015735Y0000208029D03*
X-0000015735Y0000211966D03*
X-0000019672Y0000211966D03*
X-0000019672Y0000208029D03*
X-0000019672Y0000227714D03*
X-0000015735Y0000219840D03*
X-0000019672Y0000231651D03*
X-0000019672Y0000263147D03*
X-0000019300Y0000259900D03*
X-0000019672Y0000255273D03*
X-0000017695Y0000257600D03*
X-0000015100Y0000255273D03*
X-0000019672Y0000251336D03*
X-0000021210Y0000271690D03*
X-0000019672Y0000267084D03*
X-0000019320Y0000295030D03*
X-0000022720Y0000295030D03*
X-0000018220Y0000290380D03*
X-0000020220Y0000332530D03*
X-0000020220Y0000342530D03*
X0000003252Y0000101530D03*
X0000007305Y0000114741D03*
X0000005105Y0000114741D03*
X0000002280Y0000114530D03*
X0000007780Y0000119030D03*
X0000007305Y0000124020D03*
X0000005105Y0000124020D03*
X0000003252Y0000136130D03*
X0000007780Y0000153030D03*
X0000007780Y0000148030D03*
X-0000000939Y0000231680D03*
X-0000000939Y0000228180D03*
X0000002280Y0000220530D03*
X-0000007220Y0000250530D03*
X-0000007220Y0000240530D03*
X-0000004270Y0000246500D03*
X-0000007220Y0000235530D03*
X-0000000770Y0000246530D03*
X0000002280Y0000237530D03*
X0000002780Y0000246530D03*
X0000002780Y0000250375D03*
X-0000007220Y0000255375D03*
X0000003835Y0000255475D03*
X0000002280Y0000337530D03*
X0000007280Y0000335030D03*
X-0000005220Y0000346030D03*
X0000020969Y0000101530D03*
X0000015063Y0000101530D03*
X0000009158Y0000101530D03*
X0000012326Y0000114730D03*
X0000023680Y0000114630D03*
X0000019116Y0000114741D03*
X0000016916Y0000114741D03*
X0000010126Y0000114730D03*
X0000019276Y0000119030D03*
X0000022822Y0000137643D03*
X0000011011Y0000137643D03*
X0000016916Y0000124020D03*
X0000013211Y0000137643D03*
X0000009680Y0000124030D03*
X0000015063Y0000136130D03*
X0000020969Y0000136130D03*
X0000019116Y0000124020D03*
X0000021853Y0000216030D03*
X0000011607Y0000212760D03*
X0000011607Y0000209611D03*
X0000017905Y0000212760D03*
X0000014756Y0000215909D03*
X0000014756Y0000212760D03*
X0000017905Y0000215909D03*
X0000021054Y0000209611D03*
X0000011608Y0000215910D03*
X0000014756Y0000209611D03*
X0000021056Y0000219061D03*
X0000017905Y0000225358D03*
X0000008280Y0000219030D03*
X0000011608Y0000222209D03*
X0000014757Y0000222209D03*
X0000011608Y0000228508D03*
X0000014756Y0000228507D03*
X0000014756Y0000225358D03*
X0000017907Y0000219061D03*
X0000021056Y0000225358D03*
X0000017906Y0000231657D03*
X0000011608Y0000219060D03*
X0000011608Y0000225358D03*
X0000017906Y0000228506D03*
X0000014756Y0000219058D03*
X0000017906Y0000222207D03*
X0000011607Y0000247405D03*
X0000017906Y0000237955D03*
X0000017906Y0000234806D03*
X0000014757Y0000234806D03*
X0000011607Y0000250554D03*
X0000014757Y0000237955D03*
X0000011607Y0000253703D03*
X0000011607Y0000260001D03*
X0000011607Y0000256852D03*
X0000019280Y0000343530D03*
X0000019280Y0000335030D03*
X0000019780Y0000354439D03*
X0000038686Y0000101530D03*
X0000032780Y0000101530D03*
X0000026874Y0000101530D03*
X0000038280Y0000121330D03*
X0000028727Y0000114741D03*
X0000034633Y0000114741D03*
X0000036833Y0000114741D03*
X0000025880Y0000114630D03*
X0000030927Y0000114741D03*
X0000032780Y0000119030D03*
X0000025022Y0000137643D03*
X0000028727Y0000123972D03*
X0000036833Y0000137643D03*
X0000030926Y0000123972D03*
X0000026874Y0000136130D03*
X0000032480Y0000136230D03*
X0000038686Y0000136130D03*
X0000034633Y0000137643D03*
X0000035080Y0000185830D03*
X0000037080Y0000183430D03*
X0000037280Y0000187985D03*
X0000030505Y0000215912D03*
X0000024957Y0000216030D03*
X0000030505Y0000212763D03*
X0000039952Y0000212763D03*
X0000036803Y0000209614D03*
X0000033654Y0000212763D03*
X0000033654Y0000209614D03*
X0000033654Y0000215912D03*
X0000039952Y0000209411D03*
X0000039952Y0000215709D03*
X0000039952Y0000206262D03*
X0000030503Y0000222210D03*
X0000036803Y0000225359D03*
X0000027354Y0000222210D03*
X0000027280Y0000219030D03*
X0000030503Y0000231657D03*
X0000025854Y0000232511D03*
X0000025780Y0000230030D03*
X0000036803Y0000231657D03*
X0000039952Y0000219059D03*
X0000039952Y0000228508D03*
X0000036803Y0000222210D03*
X0000033654Y0000228508D03*
X0000030503Y0000219061D03*
X0000030503Y0000225359D03*
X0000027354Y0000225359D03*
X0000036803Y0000228508D03*
X0000033654Y0000225359D03*
X0000033654Y0000231657D03*
X0000039952Y0000231657D03*
X0000039952Y0000225359D03*
X0000039952Y0000222210D03*
X0000033654Y0000219061D03*
X0000036803Y0000234806D03*
X0000027354Y0000237958D03*
X0000027354Y0000247405D03*
X0000024205Y0000234809D03*
X0000027354Y0000241107D03*
X0000024205Y0000244256D03*
X0000024205Y0000247405D03*
X0000024205Y0000250554D03*
X0000024205Y0000237958D03*
X0000027354Y0000250554D03*
X0000024205Y0000241107D03*
X0000027354Y0000244256D03*
X0000033654Y0000234806D03*
X0000030505Y0000234806D03*
X0000039952Y0000250554D03*
X0000036803Y0000241107D03*
X0000027354Y0000256852D03*
X0000024205Y0000260001D03*
X0000027354Y0000253703D03*
X0000027354Y0000266299D03*
X0000024205Y0000256852D03*
X0000024205Y0000266299D03*
X0000027354Y0000260001D03*
X0000027354Y0000263150D03*
X0000024205Y0000253703D03*
X0000024205Y0000263150D03*
X0000039952Y0000260001D03*
X0000036803Y0000253703D03*
X0000034750Y0000265500D03*
X0000039952Y0000256852D03*
X0000037500Y0000264000D03*
X0000039235Y0000278203D03*
X0000038485Y0000281735D03*
X0000034359Y0000281735D03*
X0000024205Y0000272597D03*
X0000024205Y0000269448D03*
X0000027354Y0000269448D03*
X0000038422Y0000285672D03*
X0000034359Y0000285672D03*
X0000038359Y0000289609D03*
X0000034359Y0000289609D03*
X0000038296Y0000293546D03*
X0000034359Y0000293546D03*
X0000038327Y0000297483D03*
X0000034359Y0000297483D03*
X0000038390Y0000301420D03*
X0000034359Y0000305357D03*
X0000038453Y0000305357D03*
X0000032280Y0000342286D03*
X0000032280Y0000335030D03*
X0000039280Y0000354439D03*
X0000034189Y0000354439D03*
X0000050497Y0000101530D03*
X0000044591Y0000101530D03*
X0000052249Y0000114688D03*
X0000044980Y0000116654D03*
X0000054449Y0000114688D03*
X0000042738Y0000114688D03*
X0000040538Y0000114688D03*
X0000047180Y0000116654D03*
X0000044276Y0000119030D03*
X0000050280Y0000122030D03*
X0000044780Y0000122030D03*
X0000040480Y0000121330D03*
X0000046444Y0000137643D03*
X0000052349Y0000123972D03*
X0000054549Y0000123972D03*
X0000048644Y0000137643D03*
X0000050497Y0000136247D03*
X0000044591Y0000136130D03*
X0000043101Y0000215709D03*
X0000043101Y0000212560D03*
X0000043101Y0000206262D03*
X0000043101Y0000209411D03*
X0000043101Y0000218858D03*
X0000041780Y0000245530D03*
X0000051030Y0000245530D03*
X0000055780Y0000278030D03*
X0000052480Y0000278030D03*
X0000046900Y0000322500D03*
X0000050100Y0000322500D03*
X0000041780Y0000327030D03*
X0000041780Y0000332030D03*
X0000056402Y0000101530D03*
X0000060780Y0000114960D03*
X0000065280Y0000115030D03*
X0000056280Y0000119030D03*
X0000058280Y0000136430D03*
X0000063380Y0000125530D03*
X0000068780Y0000266030D03*
X0000063780Y0000266030D03*
X0000063780Y0000262030D03*
X0000059780Y0000262030D03*
X0000059890Y0000266030D03*
X0000069780Y0000278030D03*
X0000065280Y0000278030D03*
X0000058950Y0000278050D03*
X0000061800Y0000278000D03*
X0000057000Y0000322530D03*
X0000071730Y0000322530D03*
X0000060280Y0000322530D03*
X0000085717Y0000114530D03*
X0000081780Y0000114530D03*
X0000081200Y0000122400D03*
X0000081000Y0000126100D03*
X0000084955Y0000124070D03*
X0000077200Y0000126100D03*
X0000082280Y0000262030D03*
X0000077280Y0000262030D03*
X0000073280Y0000266030D03*
X0000086280Y0000262030D03*
X0000073780Y0000278030D03*
X0000082280Y0000354439D03*
X0000076280Y0000354439D03*
X0000072280Y0000354439D03*
X0000090780Y0000114530D03*
X0000094780Y0000114530D03*
X0000088045Y0000124070D03*
X0000091280Y0000262030D03*
X0000091280Y0000258030D03*
X0000095280Y0000307600D03*
X0000093300Y0000314380D03*
X0000095780Y0000354439D03*
X0000092030Y0000354439D03*
G54D23*
X-0000118519Y0000367987D03*
X-0000115370Y0000372711D03*
X-0000112220Y0000367987D03*
X-0000109070Y0000372711D03*
X-0000105921Y0000367987D03*
X-0000086551Y0000108518D03*
X-0000076519Y0000367987D03*
X-0000073370Y0000372711D03*
X-0000070220Y0000367987D03*
X-0000067070Y0000372711D03*
X-0000063921Y0000367987D03*
X0000150142Y0000108518D03*
G54D33*
G01X-0000173116Y0000147622D02*
X-0000173116Y0000153134D01*
X-0000168720Y0000157530D01*
X-0000168720Y0000162120D01*
X-0000178130Y0000171530D01*
X-0000201200Y0000171530D01*
X-0000209170Y0000179500D01*
X-0000209170Y0000185580D01*
X-0000210320Y0000186730D01*
X-0000210320Y0000186780D01*
G01X-0000158116Y0000152622D02*
X-0000163052Y0000152622D01*
X-0000167520Y0000157090D01*
X-0000167520Y0000162618D01*
X-0000177632Y0000172730D01*
X-0000200702Y0000172730D01*
X-0000207970Y0000179998D01*
X-0000207970Y0000185580D01*
X-0000206820Y0000186730D01*
G01X-0000071535Y0000113841D02*
X-0000072535Y0000114841D01*
X-0000072535Y0000118043D01*
X-0000073722Y0000119230D01*
X-0000077818Y0000119230D01*
X-0000079520Y0000117528D01*
X-0000079520Y0000113630D01*
X-0000074520Y0000108630D01*
X-0000065908Y0000108630D01*
X-0000065220Y0000107942D01*
X-0000065220Y0000105228D01*
X-0000065505Y0000104943D01*
X-0000078835Y0000104943D01*
X-0000081120Y0000107228D01*
X-0000081120Y0000111530D01*
X-0000083620Y0000114030D01*
X-0000085520Y0000114030D01*
X-0000086220Y0000114730D01*
X-0000086220Y0000115927D01*
X-0000087322Y0000117029D01*
X-0000093020Y0000117029D01*
X-0000093420Y0000117429D01*
X-0000093420Y0000118229D01*
X-0000093020Y0000118629D01*
X-0000085522Y0000118629D01*
X-0000084420Y0000119731D01*
X-0000084420Y0000121527D01*
X-0000085522Y0000122629D01*
X-0000093020Y0000122629D01*
X-0000093420Y0000123029D01*
X-0000093420Y0000123829D01*
X-0000093020Y0000124229D01*
X-0000088402Y0000124229D01*
X-0000087300Y0000125331D01*
X-0000087300Y0000128207D01*
X-0000088822Y0000129729D01*
X-0000104800Y0000129729D01*
X-0000105200Y0000130129D01*
X-0000105200Y0000132030D01*
X-0000104800Y0000132430D01*
X-0000092122Y0000132430D01*
X-0000091020Y0000133532D01*
X-0000091020Y0000136928D01*
X-0000092322Y0000138230D01*
X-0000094600Y0000138230D01*
X-0000095000Y0000138630D01*
X-0000095000Y0000140330D01*
X-0000094600Y0000140730D01*
X-0000092122Y0000140730D01*
X-0000091020Y0000141832D01*
X-0000091020Y0000144628D01*
X-0000092122Y0000145730D01*
X-0000097320Y0000145730D01*
X-0000097720Y0000146130D01*
X-0000097720Y0000147030D01*
X-0000097320Y0000147430D01*
X-0000093620Y0000147430D01*
X-0000092120Y0000148930D01*
X-0000092120Y0000153030D01*
X-0000093782Y0000154692D01*
X-0000097620Y0000154692D01*
X-0000098020Y0000155092D01*
X-0000098020Y0000155892D01*
X-0000097620Y0000156292D01*
X-0000094522Y0000156292D01*
X-0000093420Y0000157394D01*
X-0000093420Y0000159632D01*
X-0000087150Y0000165902D01*
X-0000087150Y0000171202D01*
X-0000080177Y0000178175D01*
X-0000080177Y0000181071D01*
X-0000079291Y0000181957D01*
X-0000073322Y0000181957D01*
X-0000072340Y0000182939D01*
X-0000072340Y0000185423D01*
X-0000073774Y0000186857D01*
X-0000079696Y0000186857D01*
X-0000080214Y0000187375D01*
X-0000080214Y0000189360D01*
X-0000079743Y0000189831D01*
X-0000073619Y0000189831D01*
X-0000072322Y0000191128D01*
X-0000072322Y0000195818D01*
X-0000071922Y0000196218D01*
X-0000070853Y0000196218D01*
G01X-0000073735Y0000113841D02*
X-0000073735Y0000117545D01*
X-0000074220Y0000118030D01*
X-0000077320Y0000118030D01*
X-0000078320Y0000117030D01*
X-0000078320Y0000114128D01*
X-0000074022Y0000109830D01*
X-0000065410Y0000109830D01*
X-0000064020Y0000108440D01*
X-0000064020Y0000104730D01*
X-0000065007Y0000103743D01*
X-0000079333Y0000103743D01*
X-0000082320Y0000106730D01*
X-0000082320Y0000111032D01*
X-0000084118Y0000112830D01*
X-0000086018Y0000112830D01*
X-0000087420Y0000114232D01*
X-0000087420Y0000115429D01*
X-0000087820Y0000115829D01*
X-0000093518Y0000115829D01*
X-0000094620Y0000116931D01*
X-0000094620Y0000118727D01*
X-0000093518Y0000119829D01*
X-0000086020Y0000119829D01*
X-0000085620Y0000120229D01*
X-0000085620Y0000121029D01*
X-0000086020Y0000121429D01*
X-0000093518Y0000121429D01*
X-0000094620Y0000122531D01*
X-0000094620Y0000124327D01*
X-0000093518Y0000125429D01*
X-0000088900Y0000125429D01*
X-0000088500Y0000125829D01*
X-0000088500Y0000127709D01*
X-0000089320Y0000128529D01*
X-0000105298Y0000128529D01*
X-0000106400Y0000129631D01*
X-0000106400Y0000132528D01*
X-0000105298Y0000133630D01*
X-0000092620Y0000133630D01*
X-0000092220Y0000134030D01*
X-0000092220Y0000136430D01*
X-0000092820Y0000137030D01*
X-0000095098Y0000137030D01*
X-0000096200Y0000138132D01*
X-0000096200Y0000140828D01*
X-0000095098Y0000141930D01*
X-0000092620Y0000141930D01*
X-0000092220Y0000142330D01*
X-0000092220Y0000144130D01*
X-0000092620Y0000144530D01*
X-0000097818Y0000144530D01*
X-0000098920Y0000145632D01*
X-0000098920Y0000147528D01*
X-0000097818Y0000148630D01*
X-0000094118Y0000148630D01*
X-0000093320Y0000149428D01*
X-0000093320Y0000152532D01*
X-0000094280Y0000153492D01*
X-0000098118Y0000153492D01*
X-0000099220Y0000154594D01*
X-0000099220Y0000156390D01*
X-0000098118Y0000157492D01*
X-0000095020Y0000157492D01*
X-0000094620Y0000157892D01*
X-0000094620Y0000160130D01*
X-0000088350Y0000166400D01*
X-0000088350Y0000171700D01*
X-0000081377Y0000178673D01*
X-0000081377Y0000179530D01*
X-0000081177Y0000179730D01*
X-0000081177Y0000181486D01*
X-0000079706Y0000182957D01*
X-0000073737Y0000182957D01*
X-0000073340Y0000183354D01*
X-0000073340Y0000185008D01*
X-0000074189Y0000185857D01*
X-0000080111Y0000185857D01*
X-0000081214Y0000186960D01*
X-0000081214Y0000189775D01*
X-0000080158Y0000190831D01*
X-0000074034Y0000190831D01*
X-0000073322Y0000191543D01*
X-0000073322Y0000194750D01*
X-0000074790Y0000196218D01*
G01X-0000055669Y0000113779D02*
X-0000055669Y0000113852D01*
X-0000055220Y0000114301D01*
X-0000055220Y0000115432D01*
X-0000057920Y0000118132D01*
X-0000057920Y0000119732D01*
X-0000059518Y0000121330D01*
X-0000063020Y0000121330D01*
X-0000064720Y0000123030D01*
X-0000064720Y0000125830D01*
X-0000065120Y0000126230D01*
X-0000078318Y0000126230D01*
X-0000083420Y0000131332D01*
X-0000083420Y0000141832D01*
X-0000085920Y0000144332D01*
X-0000085920Y0000146832D01*
X-0000086625Y0000147537D01*
X-0000088327Y0000147537D01*
X-0000089314Y0000148524D01*
X-0000089314Y0000152436D01*
X-0000088327Y0000153423D01*
X-0000075220Y0000153423D01*
X-0000074820Y0000153823D01*
X-0000074820Y0000155023D01*
X-0000075320Y0000155523D01*
X-0000088418Y0000155523D01*
X-0000089520Y0000156625D01*
X-0000089520Y0000158821D01*
X-0000088418Y0000159923D01*
X-0000068320Y0000159923D01*
X-0000067920Y0000160323D01*
X-0000067920Y0000161423D01*
X-0000068320Y0000161823D01*
X-0000083118Y0000161823D01*
X-0000084220Y0000162925D01*
X-0000084220Y0000165121D01*
X-0000083118Y0000166223D01*
X-0000068320Y0000166223D01*
X-0000067920Y0000166623D01*
X-0000067920Y0000167823D01*
X-0000068320Y0000168223D01*
X-0000083118Y0000168223D01*
X-0000084220Y0000169325D01*
X-0000084220Y0000171730D01*
X-0000082920Y0000173030D01*
X-0000069884Y0000173030D01*
X-0000069484Y0000173430D01*
X-0000069484Y0000179101D01*
X-0000070853Y0000180470D01*
G01X-0000053520Y0000113830D02*
X-0000053620Y0000113830D01*
X-0000054020Y0000114230D01*
X-0000054020Y0000115930D01*
X-0000056720Y0000118630D01*
X-0000056720Y0000120230D01*
X-0000059020Y0000122530D01*
X-0000062522Y0000122530D01*
X-0000063520Y0000123528D01*
X-0000063520Y0000126328D01*
X-0000064622Y0000127430D01*
X-0000077820Y0000127430D01*
X-0000082220Y0000131830D01*
X-0000082220Y0000142330D01*
X-0000084720Y0000144830D01*
X-0000084720Y0000147330D01*
X-0000086127Y0000148737D01*
X-0000087829Y0000148737D01*
X-0000088114Y0000149022D01*
X-0000088114Y0000151938D01*
X-0000087829Y0000152223D01*
X-0000074722Y0000152223D01*
X-0000073620Y0000153325D01*
X-0000073620Y0000155521D01*
X-0000074822Y0000156723D01*
X-0000087920Y0000156723D01*
X-0000088320Y0000157123D01*
X-0000088320Y0000158323D01*
X-0000087920Y0000158723D01*
X-0000067822Y0000158723D01*
X-0000066720Y0000159825D01*
X-0000066720Y0000161921D01*
X-0000067822Y0000163023D01*
X-0000082620Y0000163023D01*
X-0000083020Y0000163423D01*
X-0000083020Y0000164623D01*
X-0000082620Y0000165023D01*
X-0000067822Y0000165023D01*
X-0000066720Y0000166125D01*
X-0000066720Y0000168321D01*
X-0000067822Y0000169423D01*
X-0000082620Y0000169423D01*
X-0000083020Y0000169823D01*
X-0000083020Y0000171232D01*
X-0000082422Y0000171830D01*
X-0000069386Y0000171830D01*
X-0000068284Y0000172932D01*
X-0000068284Y0000179102D01*
X-0000066916Y0000180470D01*
G01X-0000051213Y0000115341D02*
X-0000051620Y0000115748D01*
X-0000051620Y0000119128D01*
X-0000050411Y0000120337D01*
X-0000050411Y0000124423D01*
X-0000055618Y0000129630D01*
X-0000059314Y0000129630D01*
X-0000060416Y0000130732D01*
X-0000060416Y0000132930D01*
X-0000060816Y0000133330D01*
X-0000061616Y0000133330D01*
X-0000062016Y0000132930D01*
X-0000062016Y0000130732D01*
X-0000063118Y0000129630D01*
X-0000076320Y0000129630D01*
X-0000079520Y0000132830D01*
X-0000079520Y0000140830D01*
X-0000078320Y0000142030D01*
X-0000073422Y0000142030D01*
X-0000071920Y0000140528D01*
X-0000071920Y0000134928D01*
X-0000071622Y0000134630D01*
X-0000068318Y0000134630D01*
X-0000068020Y0000134928D01*
X-0000068020Y0000141028D01*
X-0000067018Y0000142030D01*
X-0000063122Y0000142030D01*
X-0000062020Y0000140928D01*
X-0000062020Y0000139230D01*
X-0000061620Y0000138830D01*
X-0000058720Y0000138830D01*
X-0000058320Y0000139230D01*
X-0000058320Y0000143945D01*
X-0000058705Y0000144330D01*
X-0000081018Y0000144330D01*
X-0000082220Y0000145532D01*
X-0000082220Y0000148628D01*
X-0000081118Y0000149730D01*
X-0000060928Y0000149730D01*
X-0000060528Y0000150130D01*
X-0000060528Y0000151808D01*
X-0000060928Y0000152208D01*
X-0000069718Y0000152208D01*
X-0000070820Y0000153310D01*
X-0000070820Y0000155106D01*
X-0000069718Y0000156208D01*
X-0000064928Y0000156208D01*
X-0000064528Y0000156608D01*
X-0000064528Y0000180123D01*
X-0000065466Y0000181061D01*
X-0000065466Y0000181071D01*
X-0000066316Y0000181921D01*
X-0000066326Y0000181921D01*
X-0000066335Y0000181930D01*
X-0000068535Y0000181930D01*
X-0000069403Y0000182798D01*
X-0000069403Y0000188446D01*
X-0000066916Y0000190933D01*
X-0000066916Y0000192281D01*
G01X-0000049013Y0000115341D02*
X-0000050420Y0000116748D01*
X-0000050420Y0000118630D01*
X-0000049211Y0000119839D01*
X-0000049211Y0000124921D01*
X-0000055120Y0000130830D01*
X-0000058816Y0000130830D01*
X-0000059216Y0000131230D01*
X-0000059216Y0000133428D01*
X-0000060318Y0000134530D01*
X-0000062114Y0000134530D01*
X-0000063216Y0000133428D01*
X-0000063216Y0000131230D01*
X-0000063616Y0000130830D01*
X-0000075822Y0000130830D01*
X-0000078320Y0000133328D01*
X-0000078320Y0000140332D01*
X-0000077822Y0000140830D01*
X-0000073920Y0000140830D01*
X-0000073120Y0000140030D01*
X-0000073120Y0000134430D01*
X-0000072120Y0000133430D01*
X-0000067820Y0000133430D01*
X-0000066820Y0000134430D01*
X-0000066820Y0000140530D01*
X-0000066520Y0000140830D01*
X-0000063620Y0000140830D01*
X-0000063220Y0000140430D01*
X-0000063220Y0000138732D01*
X-0000062118Y0000137630D01*
X-0000058222Y0000137630D01*
X-0000057120Y0000138732D01*
X-0000057120Y0000144443D01*
X-0000058207Y0000145530D01*
X-0000080520Y0000145530D01*
X-0000081020Y0000146030D01*
X-0000081020Y0000148130D01*
X-0000080620Y0000148530D01*
X-0000060430Y0000148530D01*
X-0000059328Y0000149632D01*
X-0000059328Y0000152306D01*
X-0000060430Y0000153408D01*
X-0000069220Y0000153408D01*
X-0000069620Y0000153808D01*
X-0000069620Y0000154608D01*
X-0000069220Y0000155008D01*
X-0000064430Y0000155008D01*
X-0000063328Y0000156110D01*
X-0000063328Y0000160844D01*
X-0000062720Y0000161452D01*
X-0000062720Y0000162844D01*
X-0000063328Y0000163452D01*
X-0000063328Y0000164844D01*
X-0000062720Y0000165452D01*
X-0000062720Y0000166844D01*
X-0000063328Y0000167452D01*
X-0000063328Y0000168844D01*
X-0000062720Y0000169452D01*
X-0000062720Y0000170844D01*
X-0000063328Y0000171452D01*
X-0000063328Y0000172520D01*
X-0000062720Y0000173128D01*
X-0000062720Y0000174520D01*
X-0000063328Y0000175128D01*
X-0000063328Y0000176520D01*
X-0000062720Y0000177128D01*
X-0000062720Y0000178520D01*
X-0000063328Y0000179128D01*
X-0000063328Y0000180028D01*
X-0000063528Y0000180228D01*
X-0000063528Y0000180538D01*
X-0000064466Y0000181476D01*
X-0000064466Y0000181486D01*
X-0000065901Y0000182921D01*
X-0000065911Y0000182921D01*
X-0000065920Y0000182930D01*
X-0000068120Y0000182930D01*
X-0000068403Y0000183213D01*
X-0000068403Y0000188031D01*
X-0000068090Y0000188344D01*
X-0000066916Y0000188344D01*
G01X-0000065530Y0000116688D02*
X-0000066030Y0000117188D01*
X-0000066030Y0000117730D01*
X-0000065430Y0000118330D01*
X-0000064618Y0000118330D01*
X-0000063820Y0000117532D01*
X-0000063820Y0000112432D01*
X-0000054818Y0000103430D01*
X0000011778Y0000103430D01*
X0000022180Y0000113832D01*
X0000022180Y0000116230D01*
X0000024880Y0000118930D01*
X0000024880Y0000129928D01*
X0000019380Y0000135428D01*
X0000019380Y0000139030D01*
X0000011280Y0000147130D01*
X0000011280Y0000148930D01*
X0000009180Y0000151030D01*
X0000006280Y0000151030D01*
X0000002080Y0000155230D01*
X-0000000922Y0000155230D01*
X-0000002120Y0000156428D01*
X-0000002120Y0000158530D01*
X-0000009020Y0000165430D01*
X-0000009020Y0000174524D01*
X-0000012526Y0000178030D01*
X-0000028522Y0000178030D01*
X-0000029015Y0000178523D01*
X-0000029015Y0000179001D01*
X-0000027546Y0000180470D01*
G01X-0000067730Y0000116688D02*
X-0000067230Y0000117188D01*
X-0000067230Y0000118228D01*
X-0000065928Y0000119530D01*
X-0000064120Y0000119530D01*
X-0000062620Y0000118030D01*
X-0000062620Y0000112930D01*
X-0000054320Y0000104630D01*
X0000011280Y0000104630D01*
X0000020980Y0000114330D01*
X0000020980Y0000116728D01*
X0000023680Y0000119428D01*
X0000023680Y0000129430D01*
X0000018180Y0000134930D01*
X0000018180Y0000138532D01*
X0000010080Y0000146632D01*
X0000010080Y0000148432D01*
X0000008682Y0000149830D01*
X0000005782Y0000149830D01*
X0000001582Y0000154030D01*
X-0000001420Y0000154030D01*
X-0000003320Y0000155930D01*
X-0000003320Y0000158032D01*
X-0000010220Y0000164932D01*
X-0000010220Y0000174026D01*
X-0000013024Y0000176830D01*
X-0000029020Y0000176830D01*
X-0000030215Y0000178025D01*
X-0000030215Y0000179202D01*
X-0000031483Y0000180470D01*
G01X-0000058720Y0000116730D02*
X-0000059020Y0000116430D01*
X-0000059020Y0000114228D01*
X-0000056322Y0000111530D01*
X-0000051622Y0000111530D01*
X-0000050520Y0000110428D01*
X-0000050520Y0000108430D01*
X-0000050120Y0000108030D01*
X-0000045705Y0000108030D01*
X-0000045420Y0000108315D01*
X-0000045420Y0000111230D01*
X-0000045820Y0000111630D01*
X-0000046218Y0000111630D01*
X-0000047320Y0000112732D01*
X-0000047320Y0000120228D01*
X-0000042818Y0000124730D01*
X-0000041120Y0000124730D01*
X-0000040720Y0000125130D01*
X-0000040720Y0000126670D01*
X-0000041120Y0000127070D01*
X-0000047418Y0000127070D01*
X-0000048520Y0000128172D01*
X-0000048520Y0000129968D01*
X-0000047418Y0000131070D01*
X-0000040020Y0000131070D01*
X-0000039620Y0000131470D01*
X-0000039620Y0000133632D01*
X-0000040918Y0000134930D01*
X-0000044222Y0000134930D01*
X-0000045722Y0000133430D01*
X-0000053420Y0000133430D01*
X-0000054820Y0000134830D01*
X-0000054820Y0000137727D01*
X-0000053717Y0000138830D01*
X-0000050309Y0000138830D01*
X-0000049909Y0000139230D01*
X-0000049909Y0000140529D01*
X-0000050310Y0000140930D01*
X-0000053718Y0000140930D01*
X-0000054820Y0000142032D01*
X-0000054820Y0000144028D01*
X-0000053718Y0000145130D01*
X-0000048820Y0000145130D01*
X-0000048420Y0000145530D01*
X-0000048420Y0000146727D01*
X-0000048820Y0000147127D01*
X-0000055918Y0000147127D01*
X-0000057020Y0000148229D01*
X-0000057020Y0000150525D01*
X-0000055818Y0000151727D01*
X-0000049220Y0000151727D01*
X-0000048820Y0000152127D01*
X-0000048820Y0000153030D01*
X-0000049220Y0000153430D01*
X-0000056118Y0000153430D01*
X-0000057220Y0000154532D01*
X-0000057220Y0000156284D01*
X-0000055574Y0000157930D01*
X-0000049320Y0000157930D01*
X-0000048820Y0000158430D01*
X-0000048820Y0000161545D01*
X-0000049105Y0000161830D01*
X-0000053334Y0000161830D01*
X-0000054636Y0000163132D01*
X-0000054636Y0000168930D01*
X-0000055036Y0000169330D01*
X-0000055836Y0000169330D01*
X-0000056236Y0000168930D01*
X-0000056236Y0000160453D01*
X-0000057338Y0000159351D01*
X-0000059576Y0000159351D01*
X-0000060878Y0000160653D01*
X-0000060878Y0000180685D01*
X-0000059643Y0000181920D01*
X-0000057910Y0000181920D01*
X-0000056460Y0000180470D01*
X-0000055105Y0000180470D01*
G01X-0000060920Y0000116730D02*
X-0000060220Y0000116030D01*
X-0000060220Y0000113730D01*
X-0000056820Y0000110330D01*
X-0000052120Y0000110330D01*
X-0000051720Y0000109930D01*
X-0000051720Y0000107932D01*
X-0000050618Y0000106830D01*
X-0000045207Y0000106830D01*
X-0000044220Y0000107817D01*
X-0000044220Y0000111728D01*
X-0000045322Y0000112830D01*
X-0000045720Y0000112830D01*
X-0000046120Y0000113230D01*
X-0000046120Y0000119730D01*
X-0000042320Y0000123530D01*
X-0000040622Y0000123530D01*
X-0000039520Y0000124632D01*
X-0000039520Y0000127168D01*
X-0000040622Y0000128270D01*
X-0000046920Y0000128270D01*
X-0000047320Y0000128670D01*
X-0000047320Y0000129470D01*
X-0000046920Y0000129870D01*
X-0000039522Y0000129870D01*
X-0000038420Y0000130972D01*
X-0000038420Y0000134130D01*
X-0000040420Y0000136130D01*
X-0000044720Y0000136130D01*
X-0000046220Y0000134630D01*
X-0000052922Y0000134630D01*
X-0000053620Y0000135328D01*
X-0000053620Y0000137229D01*
X-0000053219Y0000137630D01*
X-0000049811Y0000137630D01*
X-0000048709Y0000138732D01*
X-0000048709Y0000141027D01*
X-0000049812Y0000142130D01*
X-0000053220Y0000142130D01*
X-0000053620Y0000142530D01*
X-0000053620Y0000143530D01*
X-0000053220Y0000143930D01*
X-0000048322Y0000143930D01*
X-0000047220Y0000145032D01*
X-0000047220Y0000147225D01*
X-0000048322Y0000148327D01*
X-0000055420Y0000148327D01*
X-0000055820Y0000148727D01*
X-0000055820Y0000150027D01*
X-0000055320Y0000150527D01*
X-0000048722Y0000150527D01*
X-0000047620Y0000151629D01*
X-0000047620Y0000153528D01*
X-0000048722Y0000154630D01*
X-0000055620Y0000154630D01*
X-0000056020Y0000155030D01*
X-0000056020Y0000155786D01*
X-0000055076Y0000156730D01*
X-0000048822Y0000156730D01*
X-0000047620Y0000157932D01*
X-0000047620Y0000162043D01*
X-0000048607Y0000163030D01*
X-0000052836Y0000163030D01*
X-0000053436Y0000163630D01*
X-0000053436Y0000169428D01*
X-0000054538Y0000170530D01*
X-0000056334Y0000170530D01*
X-0000057436Y0000169428D01*
X-0000057436Y0000160951D01*
X-0000057836Y0000160551D01*
X-0000059078Y0000160551D01*
X-0000059678Y0000161151D01*
X-0000059678Y0000172376D01*
X-0000059120Y0000172934D01*
X-0000059120Y0000174376D01*
X-0000059678Y0000174934D01*
X-0000059678Y0000176376D01*
X-0000059120Y0000176934D01*
X-0000059120Y0000178376D01*
X-0000059678Y0000178934D01*
X-0000059678Y0000179834D01*
X-0000059042Y0000180470D01*
G01X-0000027123Y0000116669D02*
X-0000027123Y0000119030D01*
X-0000027523Y0000119430D01*
X-0000032720Y0000119430D01*
X-0000034320Y0000121030D01*
X-0000034320Y0000125330D01*
X-0000034720Y0000125730D01*
X-0000035818Y0000125730D01*
X-0000036920Y0000126832D01*
X-0000036920Y0000129828D01*
X-0000035818Y0000130930D01*
X-0000030622Y0000130930D01*
X-0000029520Y0000129828D01*
X-0000029520Y0000126530D01*
X-0000029120Y0000126130D01*
X-0000024920Y0000126130D01*
X-0000024220Y0000126830D01*
X-0000024220Y0000132930D01*
X-0000024619Y0000133329D01*
X-0000035218Y0000133329D01*
X-0000037120Y0000135231D01*
X-0000037120Y0000138830D01*
X-0000037520Y0000139230D01*
X-0000044018Y0000139230D01*
X-0000045120Y0000140332D01*
X-0000045120Y0000142828D01*
X-0000044018Y0000143930D01*
X-0000032322Y0000143930D01*
X-0000031220Y0000142828D01*
X-0000031220Y0000140930D01*
X-0000030820Y0000140530D01*
X-0000028518Y0000140530D01*
X-0000028175Y0000140873D01*
X-0000028175Y0000145430D01*
X-0000028575Y0000145830D01*
X-0000044018Y0000145830D01*
X-0000045120Y0000146932D01*
X-0000045120Y0000149154D01*
X-0000044018Y0000150256D01*
X-0000028575Y0000150256D01*
X-0000028175Y0000150656D01*
X-0000028175Y0000151456D01*
X-0000028575Y0000151856D01*
X-0000044018Y0000151856D01*
X-0000045120Y0000152958D01*
X-0000045120Y0000165230D01*
X-0000045520Y0000165630D01*
X-0000049720Y0000165630D01*
X-0000050820Y0000166730D01*
X-0000050820Y0000171132D01*
X-0000052418Y0000172730D01*
X-0000055918Y0000172730D01*
X-0000057020Y0000173832D01*
X-0000057020Y0000176928D01*
X-0000055918Y0000178030D01*
X-0000054220Y0000178030D01*
X-0000053820Y0000178430D01*
X-0000053820Y0000179530D01*
X-0000053620Y0000179730D01*
X-0000053620Y0000180485D01*
X-0000051168Y0000182937D01*
X-0000051168Y0000184407D01*
G01X-0000014477Y0000115830D02*
X-0000012022Y0000115830D01*
X-0000010920Y0000114728D01*
X-0000010920Y0000111130D01*
X-0000010520Y0000110730D01*
X-0000000820Y0000110730D01*
X-0000000420Y0000111130D01*
X-0000000420Y0000121328D01*
X0000000682Y0000122430D01*
X0000003878Y0000122430D01*
X0000004980Y0000121328D01*
X0000004980Y0000117930D01*
X0000005380Y0000117530D01*
X0000009182Y0000117530D01*
X0000010080Y0000118428D01*
X0000010080Y0000121930D01*
X0000011380Y0000123230D01*
X0000012980Y0000123230D01*
X0000013380Y0000123630D01*
X0000013380Y0000129430D01*
X0000012980Y0000129830D01*
X0000008980Y0000129830D01*
X0000007780Y0000128630D01*
X0000007780Y0000126832D01*
X0000006678Y0000125730D01*
X0000003982Y0000125730D01*
X0000002880Y0000126832D01*
X0000002880Y0000131128D01*
X0000004780Y0000133028D01*
X0000004780Y0000141532D01*
X0000001482Y0000144830D01*
X-0000003618Y0000144830D01*
X-0000007618Y0000148830D01*
X-0000015618Y0000148830D01*
X-0000016720Y0000149932D01*
X-0000016720Y0000152778D01*
X-0000015618Y0000153880D01*
X-0000012620Y0000153880D01*
X-0000012220Y0000154280D01*
X-0000012220Y0000156830D01*
X-0000012620Y0000157230D01*
X-0000015118Y0000157230D01*
X-0000016420Y0000158532D01*
X-0000016420Y0000169730D01*
X-0000017120Y0000170430D01*
X-0000035718Y0000170430D01*
X-0000041920Y0000176632D01*
X-0000041920Y0000179793D01*
X-0000041844Y0000179869D01*
X-0000041844Y0000188945D01*
X-0000042693Y0000189794D01*
X-0000048156Y0000189794D01*
X-0000048718Y0000189232D01*
X-0000048718Y0000187328D01*
X-0000050152Y0000185894D01*
X-0000052261Y0000185894D01*
X-0000053655Y0000187288D01*
X-0000053655Y0000189277D01*
X-0000054172Y0000189794D01*
X-0000054669Y0000189794D01*
X-0000056270Y0000191395D01*
X-0000058156Y0000191395D01*
X-0000059042Y0000192281D01*
G01X-0000042320Y0000116730D02*
X-0000042820Y0000117230D01*
X-0000042820Y0000117930D01*
X-0000042420Y0000118330D01*
X-0000040618Y0000118330D01*
X-0000039820Y0000117532D01*
X-0000039820Y0000116528D01*
X-0000041720Y0000114628D01*
X-0000041720Y0000108730D01*
X-0000039220Y0000106230D01*
X0000003622Y0000106230D01*
X0000004724Y0000107332D01*
X0000004724Y0000110930D01*
X0000005124Y0000111330D01*
X0000005924Y0000111330D01*
X0000006324Y0000110930D01*
X0000006324Y0000107332D01*
X0000007426Y0000106230D01*
X0000009880Y0000106230D01*
X0000015416Y0000111766D01*
X0000015416Y0000117468D01*
X0000018478Y0000120530D01*
X0000020280Y0000120530D01*
X0000021816Y0000122066D01*
X0000021816Y0000127794D01*
X0000015080Y0000134530D01*
X0000011978Y0000134530D01*
X0000009480Y0000137028D01*
X0000009480Y0000143428D01*
X0000001678Y0000151230D01*
X-0000003522Y0000151230D01*
X-0000005520Y0000153228D01*
X-0000005520Y0000157130D01*
X-0000012220Y0000163830D01*
X-0000012220Y0000173130D01*
X-0000013820Y0000174730D01*
X-0000033723Y0000174730D01*
X-0000036720Y0000177727D01*
X-0000036720Y0000179170D01*
X-0000035420Y0000180470D01*
G01X-0000044520Y0000116730D02*
X-0000044020Y0000117230D01*
X-0000044020Y0000118428D01*
X-0000042918Y0000119530D01*
X-0000040120Y0000119530D01*
X-0000038620Y0000118030D01*
X-0000038620Y0000116030D01*
X-0000040520Y0000114130D01*
X-0000040520Y0000109228D01*
X-0000038722Y0000107430D01*
X0000003124Y0000107430D01*
X0000003524Y0000107830D01*
X0000003524Y0000111428D01*
X0000004626Y0000112530D01*
X0000006422Y0000112530D01*
X0000007524Y0000111428D01*
X0000007524Y0000107830D01*
X0000007924Y0000107430D01*
X0000009382Y0000107430D01*
X0000014216Y0000112264D01*
X0000014216Y0000117966D01*
X0000017980Y0000121730D01*
X0000019782Y0000121730D01*
X0000020616Y0000122564D01*
X0000020616Y0000127296D01*
X0000014582Y0000133330D01*
X0000011480Y0000133330D01*
X0000008280Y0000136530D01*
X0000008280Y0000142930D01*
X0000001180Y0000150030D01*
X-0000004020Y0000150030D01*
X-0000006720Y0000152730D01*
X-0000006720Y0000156632D01*
X-0000013420Y0000163332D01*
X-0000013420Y0000172632D01*
X-0000014318Y0000173530D01*
X-0000034221Y0000173530D01*
X-0000037920Y0000177229D01*
X-0000037920Y0000179230D01*
X-0000039160Y0000180470D01*
X-0000039357Y0000180470D01*
G01X-0000024923Y0000116669D02*
X-0000025001Y0000116669D01*
X-0000025923Y0000117591D01*
X-0000025923Y0000119528D01*
X-0000027025Y0000120630D01*
X-0000028320Y0000120630D01*
X-0000028820Y0000121130D01*
X-0000030820Y0000121130D01*
X-0000031320Y0000120630D01*
X-0000032222Y0000120630D01*
X-0000033120Y0000121528D01*
X-0000033120Y0000125828D01*
X-0000034222Y0000126930D01*
X-0000035320Y0000126930D01*
X-0000035720Y0000127330D01*
X-0000035720Y0000129330D01*
X-0000035320Y0000129730D01*
X-0000031120Y0000129730D01*
X-0000030720Y0000129330D01*
X-0000030720Y0000126032D01*
X-0000029618Y0000124930D01*
X-0000024422Y0000124930D01*
X-0000023020Y0000126332D01*
X-0000023020Y0000133428D01*
X-0000024121Y0000134529D01*
X-0000034720Y0000134529D01*
X-0000035920Y0000135729D01*
X-0000035920Y0000139328D01*
X-0000037022Y0000140430D01*
X-0000043520Y0000140430D01*
X-0000043920Y0000140830D01*
X-0000043920Y0000142330D01*
X-0000043520Y0000142730D01*
X-0000032820Y0000142730D01*
X-0000032420Y0000142330D01*
X-0000032420Y0000140432D01*
X-0000031318Y0000139330D01*
X-0000028020Y0000139330D01*
X-0000026975Y0000140375D01*
X-0000026975Y0000145928D01*
X-0000028077Y0000147030D01*
X-0000043520Y0000147030D01*
X-0000043920Y0000147430D01*
X-0000043920Y0000148656D01*
X-0000043520Y0000149056D01*
X-0000028077Y0000149056D01*
X-0000026975Y0000150158D01*
X-0000026975Y0000151954D01*
X-0000028077Y0000153056D01*
X-0000043520Y0000153056D01*
X-0000043920Y0000153456D01*
X-0000043920Y0000165728D01*
X-0000045022Y0000166830D01*
X-0000049222Y0000166830D01*
X-0000049620Y0000167228D01*
X-0000049620Y0000171630D01*
X-0000051920Y0000173930D01*
X-0000055420Y0000173930D01*
X-0000055820Y0000174330D01*
X-0000055820Y0000176430D01*
X-0000055420Y0000176830D01*
X-0000053722Y0000176830D01*
X-0000052620Y0000177932D01*
X-0000052620Y0000180070D01*
X-0000051977Y0000180713D01*
X-0000051411Y0000180713D01*
X-0000051168Y0000180470D01*
G01X-0000029820Y0000116630D02*
X-0000029820Y0000113730D01*
X-0000029420Y0000113330D01*
X-0000021320Y0000113330D01*
X-0000020920Y0000113730D01*
X-0000020920Y0000117732D01*
X-0000023186Y0000119998D01*
X-0000023186Y0000122792D01*
X-0000021606Y0000124372D01*
X-0000021077Y0000124372D01*
X-0000020745Y0000124704D01*
X-0000020745Y0000137428D01*
X-0000019643Y0000138530D01*
X-0000017847Y0000138530D01*
X-0000016320Y0000137003D01*
X-0000016320Y0000123779D01*
X-0000015920Y0000123379D01*
X-0000014645Y0000123379D01*
X-0000014245Y0000123779D01*
X-0000014245Y0000137128D01*
X-0000013143Y0000138230D01*
X-0000010747Y0000138230D01*
X-0000009645Y0000137128D01*
X-0000009645Y0000129630D01*
X-0000009245Y0000129230D01*
X-0000007920Y0000129230D01*
X-0000007520Y0000129630D01*
X-0000007520Y0000139230D01*
X-0000009720Y0000141430D01*
X-0000022318Y0000141430D01*
X-0000023420Y0000142532D01*
X-0000023420Y0000158630D01*
X-0000024420Y0000159630D01*
X-0000026520Y0000159630D01*
X-0000027020Y0000159130D01*
X-0000027020Y0000156317D01*
X-0000028007Y0000155330D01*
X-0000030933Y0000155330D01*
X-0000031920Y0000156317D01*
X-0000031920Y0000159030D01*
X-0000032520Y0000159630D01*
X-0000034522Y0000159630D01*
X-0000035420Y0000158732D01*
X-0000035420Y0000156494D01*
X-0000036522Y0000155392D01*
X-0000039882Y0000155392D01*
X-0000040869Y0000156379D01*
X-0000040869Y0000165581D01*
X-0000049420Y0000174132D01*
X-0000049420Y0000180028D01*
X-0000049220Y0000180228D01*
X-0000049220Y0000184469D01*
X-0000047359Y0000186330D01*
X-0000045308Y0000186330D01*
X-0000043294Y0000188344D01*
G01X-0000032020Y0000116630D02*
X-0000031020Y0000115630D01*
X-0000031020Y0000113232D01*
X-0000029918Y0000112130D01*
X-0000020822Y0000112130D01*
X-0000019720Y0000113232D01*
X-0000019720Y0000118230D01*
X-0000021986Y0000120496D01*
X-0000021986Y0000122294D01*
X-0000021108Y0000123172D01*
X-0000020579Y0000123172D01*
X-0000019545Y0000124206D01*
X-0000019545Y0000136930D01*
X-0000019145Y0000137330D01*
X-0000018345Y0000137330D01*
X-0000017520Y0000136505D01*
X-0000017520Y0000123281D01*
X-0000016418Y0000122179D01*
X-0000014147Y0000122179D01*
X-0000013045Y0000123281D01*
X-0000013045Y0000136630D01*
X-0000012645Y0000137030D01*
X-0000011245Y0000137030D01*
X-0000010845Y0000136630D01*
X-0000010845Y0000129132D01*
X-0000009743Y0000128030D01*
X-0000007422Y0000128030D01*
X-0000006320Y0000129132D01*
X-0000006320Y0000139728D01*
X-0000009222Y0000142630D01*
X-0000021820Y0000142630D01*
X-0000022220Y0000143030D01*
X-0000022220Y0000159128D01*
X-0000023922Y0000160830D01*
X-0000027018Y0000160830D01*
X-0000028220Y0000159628D01*
X-0000028220Y0000156815D01*
X-0000028505Y0000156530D01*
X-0000030435Y0000156530D01*
X-0000030720Y0000156815D01*
X-0000030720Y0000159528D01*
X-0000032022Y0000160830D01*
X-0000035020Y0000160830D01*
X-0000036620Y0000159230D01*
X-0000036620Y0000156992D01*
X-0000037020Y0000156592D01*
X-0000039384Y0000156592D01*
X-0000039669Y0000156877D01*
X-0000039669Y0000166079D01*
X-0000048220Y0000174630D01*
X-0000048220Y0000177018D01*
X-0000047520Y0000177718D01*
X-0000047520Y0000178618D01*
X-0000048220Y0000179318D01*
X-0000048220Y0000180218D01*
X-0000047520Y0000180918D01*
X-0000047520Y0000181818D01*
X-0000048220Y0000182518D01*
X-0000048220Y0000183418D01*
X-0000047231Y0000184407D01*
G01X-0000038202Y0000113541D02*
X-0000037702Y0000113041D01*
X-0000037702Y0000110232D01*
X-0000036600Y0000109130D01*
X-0000017222Y0000109130D01*
X-0000016120Y0000110232D01*
X-0000016120Y0000118530D01*
X-0000015720Y0000118930D01*
X-0000008620Y0000118930D01*
X-0000008220Y0000118530D01*
X-0000008220Y0000114032D01*
X-0000007118Y0000112930D01*
X-0000003922Y0000112930D01*
X-0000002820Y0000114032D01*
X-0000002820Y0000122190D01*
X-0000003922Y0000123292D01*
X-0000009120Y0000123292D01*
X-0000009520Y0000123692D01*
X-0000009520Y0000124630D01*
X-0000009120Y0000125030D01*
X-0000000274Y0000125030D01*
X0000000829Y0000126133D01*
X0000000829Y0000128228D01*
X-0000000273Y0000129330D01*
X-0000002720Y0000129330D01*
X-0000003120Y0000129730D01*
X-0000003120Y0000130930D01*
X-0000002720Y0000131330D01*
X0000000378Y0000131330D01*
X0000001480Y0000132432D01*
X0000001480Y0000134698D01*
X0000000378Y0000135800D01*
X-0000002620Y0000135800D01*
X-0000003020Y0000136200D01*
X-0000003020Y0000137000D01*
X-0000002620Y0000137400D01*
X0000000378Y0000137400D01*
X0000001480Y0000138502D01*
X0000001480Y0000141130D01*
X0000000180Y0000142430D01*
X-0000004222Y0000142430D01*
X-0000008022Y0000146230D01*
X-0000018220Y0000146230D01*
X-0000018720Y0000146730D01*
X-0000018720Y0000167130D01*
X-0000020020Y0000168430D01*
X-0000025018Y0000168430D01*
X-0000026120Y0000167328D01*
X-0000026120Y0000164530D01*
X-0000026520Y0000164130D01*
X-0000028510Y0000164130D01*
X-0000028910Y0000164530D01*
X-0000028910Y0000167328D01*
X-0000030012Y0000168430D01*
X-0000032718Y0000168430D01*
X-0000033820Y0000167328D01*
X-0000033820Y0000164530D01*
X-0000034220Y0000164130D01*
X-0000035620Y0000164130D01*
X-0000036020Y0000164530D01*
X-0000036020Y0000167930D01*
X-0000043620Y0000175530D01*
X-0000043620Y0000180144D01*
X-0000043294Y0000180470D01*
G01X-0000014477Y0000113630D02*
X-0000013477Y0000114630D01*
X-0000012520Y0000114630D01*
X-0000012120Y0000114230D01*
X-0000012120Y0000110632D01*
X-0000011018Y0000109530D01*
X-0000000322Y0000109530D01*
X0000000780Y0000110632D01*
X0000000780Y0000120830D01*
X0000001180Y0000121230D01*
X0000003380Y0000121230D01*
X0000003780Y0000120830D01*
X0000003780Y0000117432D01*
X0000004882Y0000116330D01*
X0000009680Y0000116330D01*
X0000011280Y0000117930D01*
X0000011280Y0000121432D01*
X0000011878Y0000122030D01*
X0000013478Y0000122030D01*
X0000014580Y0000123132D01*
X0000014580Y0000129928D01*
X0000013478Y0000131030D01*
X0000008482Y0000131030D01*
X0000006580Y0000129128D01*
X0000006580Y0000127330D01*
X0000006180Y0000126930D01*
X0000004480Y0000126930D01*
X0000004080Y0000127330D01*
X0000004080Y0000130630D01*
X0000005980Y0000132530D01*
X0000005980Y0000142030D01*
X0000001980Y0000146030D01*
X-0000003120Y0000146030D01*
X-0000007120Y0000150030D01*
X-0000015120Y0000150030D01*
X-0000015520Y0000150430D01*
X-0000015520Y0000152280D01*
X-0000015120Y0000152680D01*
X-0000012122Y0000152680D01*
X-0000011020Y0000153782D01*
X-0000011020Y0000157328D01*
X-0000012122Y0000158430D01*
X-0000014620Y0000158430D01*
X-0000015220Y0000159030D01*
X-0000015220Y0000170228D01*
X-0000016622Y0000171630D01*
X-0000035220Y0000171630D01*
X-0000040720Y0000177130D01*
X-0000040720Y0000179461D01*
X-0000040844Y0000179585D01*
X-0000040844Y0000189360D01*
X-0000042278Y0000190794D01*
X-0000048571Y0000190794D01*
X-0000049718Y0000189647D01*
X-0000049718Y0000187743D01*
X-0000050567Y0000186894D01*
X-0000051846Y0000186894D01*
X-0000052655Y0000187703D01*
X-0000052655Y0000189692D01*
X-0000053757Y0000190794D01*
X-0000054254Y0000190794D01*
X-0000055105Y0000191645D01*
X-0000055105Y0000192281D01*
G01X-0000036002Y0000113541D02*
X-0000036002Y0000113530D01*
X-0000036502Y0000113030D01*
X-0000036502Y0000110730D01*
X-0000036102Y0000110330D01*
X-0000017720Y0000110330D01*
X-0000017320Y0000110730D01*
X-0000017320Y0000119028D01*
X-0000016218Y0000120130D01*
X-0000008122Y0000120130D01*
X-0000007020Y0000119028D01*
X-0000007020Y0000114530D01*
X-0000006620Y0000114130D01*
X-0000004420Y0000114130D01*
X-0000004020Y0000114530D01*
X-0000004020Y0000121692D01*
X-0000004420Y0000122092D01*
X-0000009618Y0000122092D01*
X-0000010720Y0000123194D01*
X-0000010720Y0000125128D01*
X-0000009618Y0000126230D01*
X-0000000772Y0000126230D01*
X-0000000371Y0000126631D01*
X-0000000371Y0000127730D01*
X-0000000771Y0000128130D01*
X-0000003218Y0000128130D01*
X-0000004320Y0000129232D01*
X-0000004320Y0000131428D01*
X-0000003218Y0000132530D01*
X-0000000120Y0000132530D01*
X0000000280Y0000132930D01*
X0000000280Y0000134200D01*
X-0000000120Y0000134600D01*
X-0000003118Y0000134600D01*
X-0000004220Y0000135702D01*
X-0000004220Y0000137498D01*
X-0000003118Y0000138600D01*
X-0000000120Y0000138600D01*
X0000000280Y0000139000D01*
X0000000280Y0000140632D01*
X-0000000318Y0000141230D01*
X-0000004720Y0000141230D01*
X-0000008520Y0000145030D01*
X-0000018718Y0000145030D01*
X-0000019920Y0000146232D01*
X-0000019920Y0000166632D01*
X-0000020518Y0000167230D01*
X-0000024520Y0000167230D01*
X-0000024920Y0000166830D01*
X-0000024920Y0000164032D01*
X-0000026022Y0000162930D01*
X-0000029008Y0000162930D01*
X-0000030110Y0000164032D01*
X-0000030110Y0000166830D01*
X-0000030510Y0000167230D01*
X-0000032220Y0000167230D01*
X-0000032620Y0000166830D01*
X-0000032620Y0000164032D01*
X-0000033722Y0000162930D01*
X-0000036118Y0000162930D01*
X-0000037220Y0000164032D01*
X-0000037220Y0000167432D01*
X-0000044820Y0000175032D01*
X-0000044820Y0000178832D01*
X-0000045021Y0000179033D01*
X-0000045021Y0000180027D01*
X-0000044820Y0000180228D01*
X-0000044820Y0000182881D01*
X-0000043294Y0000184407D01*
G01X0000017905Y0000212760D02*
X0000017905Y0000213530D01*
X0000018505Y0000214130D01*
X0000019982Y0000214130D01*
X0000021032Y0000213080D01*
X0000024880Y0000213080D01*
X0000025280Y0000212680D01*
X0000025280Y0000207930D01*
X0000024880Y0000207530D01*
X0000006280Y0000207530D01*
X0000004310Y0000209500D01*
X-0000012752Y0000209500D01*
X-0000013920Y0000208332D01*
X-0000013920Y0000206778D01*
X-0000015168Y0000205530D01*
X-0000016505Y0000205530D01*
X-0000017222Y0000206247D01*
X-0000017222Y0000215547D01*
X-0000022205Y0000220530D01*
X-0000028305Y0000220530D01*
X-0000030105Y0000222330D01*
X-0000047982Y0000222330D01*
X-0000049720Y0000224068D01*
X-0000049720Y0000227111D01*
X-0000049718Y0000227113D01*
X-0000049718Y0000228329D01*
X-0000049317Y0000228730D01*
X-0000047631Y0000228730D01*
X-0000047231Y0000228330D01*
X-0000047231Y0000227714D01*
G01X0000017905Y0000215909D02*
X0000018484Y0000215330D01*
X0000020480Y0000215330D01*
X0000021530Y0000214280D01*
X0000025378Y0000214280D01*
X0000026480Y0000213178D01*
X0000026480Y0000207432D01*
X0000025378Y0000206330D01*
X0000005782Y0000206330D01*
X0000003812Y0000208300D01*
X-0000012254Y0000208300D01*
X-0000012720Y0000207834D01*
X-0000012720Y0000206280D01*
X-0000014470Y0000204530D01*
X-0000016298Y0000204530D01*
X-0000016299Y0000204529D01*
X-0000016920Y0000204529D01*
X-0000016920Y0000204530D01*
X-0000018222Y0000205832D01*
X-0000018222Y0000215132D01*
X-0000022620Y0000219530D01*
X-0000028720Y0000219530D01*
X-0000030520Y0000221330D01*
X-0000048397Y0000221330D01*
X-0000050720Y0000223653D01*
X-0000050720Y0000227266D01*
X-0000051168Y0000227714D01*
G01X-0000035420Y0000251336D02*
X-0000035420Y0000252205D01*
X-0000036020Y0000252805D01*
X-0000036979Y0000252805D01*
X-0000037900Y0000251884D01*
X-0000037900Y0000249600D01*
X-0000036907Y0000248607D01*
X-0000036907Y0000246807D01*
X-0000036400Y0000246300D01*
X-0000036400Y0000245007D01*
X-0000036907Y0000244500D01*
X-0000036907Y0000242600D01*
X-0000036300Y0000241993D01*
X-0000036300Y0000241000D01*
X-0000036907Y0000240393D01*
X-0000036907Y0000230807D01*
X-0000036264Y0000230164D01*
X-0000026523Y0000230164D01*
X-0000026123Y0000230564D01*
X-0000026123Y0000233259D01*
X-0000025138Y0000234244D01*
X-0000023108Y0000234244D01*
X-0000022123Y0000233259D01*
X-0000022123Y0000230564D01*
X-0000021723Y0000230164D01*
X-0000008234Y0000230164D01*
X-0000007022Y0000231376D01*
G01X-0000035420Y0000255273D02*
X-0000036688Y0000254005D01*
X-0000037194Y0000254005D01*
X-0000038900Y0000252299D01*
X-0000038900Y0000249185D01*
X-0000037907Y0000248192D01*
X-0000037907Y0000230392D01*
X-0000036679Y0000229164D01*
X-0000026108Y0000229164D01*
X-0000025123Y0000230149D01*
X-0000025123Y0000232844D01*
X-0000024723Y0000233244D01*
X-0000023523Y0000233244D01*
X-0000023123Y0000232844D01*
X-0000023123Y0000230149D01*
X-0000022138Y0000229164D01*
X-0000014920Y0000229164D01*
X-0000014720Y0000228964D01*
X-0000008610Y0000228964D01*
X-0000007022Y0000227376D01*
G01X0000025854Y0000232511D02*
X0000025254Y0000231911D01*
X0000023996Y0000231911D01*
X0000023653Y0000232254D01*
X0000023653Y0000233047D01*
X0000022800Y0000233900D01*
X0000022007Y0000233900D01*
X0000021280Y0000234627D01*
X0000021280Y0000235280D01*
X0000021800Y0000235800D01*
X0000021800Y0000237280D01*
X0000021280Y0000237800D01*
X0000021280Y0000238520D01*
X0000019195Y0000240605D01*
X0000013105Y0000240605D01*
X0000011144Y0000238644D01*
X0000010344Y0000238644D01*
X0000009329Y0000237629D01*
X0000009329Y0000236829D01*
X0000008314Y0000235814D01*
X0000007514Y0000235814D01*
X0000006499Y0000234799D01*
X0000006499Y0000233999D01*
X0000005484Y0000232984D01*
X0000004684Y0000232984D01*
X0000003669Y0000231969D01*
X0000003669Y0000231169D01*
X0000003030Y0000230530D01*
X0000000211Y0000230530D01*
X-0000000939Y0000231680D01*
G01X-0000007022Y0000231376D02*
X-0000005622Y0000229976D01*
X-0000004472Y0000229976D01*
X-0000003918Y0000230530D01*
X-0000002089Y0000230530D01*
X-0000000939Y0000231680D01*
G01X0000025780Y0000230030D02*
X0000025779Y0000230030D01*
X0000025098Y0000230711D01*
X0000023498Y0000230711D01*
X0000020080Y0000234129D01*
X0000020080Y0000238022D01*
X0000018697Y0000239405D01*
X0000013603Y0000239405D01*
X0000003528Y0000229330D01*
X0000000211Y0000229330D01*
X-0000000939Y0000228180D01*
G01X-0000000939Y0000228180D02*
X-0000002089Y0000229330D01*
X-0000003420Y0000229330D01*
X-0000003974Y0000228776D01*
X-0000005622Y0000228776D01*
X-0000007022Y0000227376D01*
G54D15*
X-0000206620Y0000117130D03*
X-0000206620Y0000162130D03*
G54D24*
X-0000106115Y0000153910D03*
X-0000110840Y0000153910D03*
X-0000108477Y0000153910D03*
X-0000106115Y0000151547D03*
X-0000110840Y0000151547D03*
X-0000108477Y0000151547D03*
X-0000108477Y0000158634D03*
X-0000110840Y0000158634D03*
X-0000106115Y0000158634D03*
X-0000106115Y0000156272D03*
X-0000110840Y0000156272D03*
X-0000108477Y0000156272D03*
X0000014123Y0000177026D03*
X0000011760Y0000177026D03*
X0000016485Y0000177026D03*
X0000016485Y0000179388D03*
X0000011760Y0000179388D03*
X0000014123Y0000179388D03*
X0000016485Y0000181750D03*
X0000011760Y0000181750D03*
X0000014123Y0000181750D03*
X0000016485Y0000184113D03*
X0000011760Y0000184113D03*
X0000014123Y0000184113D03*
X0000102066Y0000194051D03*
X0000102066Y0000198776D03*
X0000102066Y0000196414D03*
X0000116240Y0000198776D03*
X0000116240Y0000196414D03*
X0000118602Y0000198776D03*
X0000118602Y0000196414D03*
X0000111515Y0000194051D03*
X0000109153Y0000194051D03*
X0000106791Y0000194051D03*
X0000104429Y0000194051D03*
X0000113877Y0000194051D03*
X0000116240Y0000194051D03*
X0000118602Y0000194051D03*
X0000113877Y0000198776D03*
X0000113877Y0000196414D03*
X0000104429Y0000196414D03*
X0000104429Y0000198776D03*
X0000106791Y0000196414D03*
X0000106791Y0000198776D03*
X0000109153Y0000196414D03*
X0000109153Y0000198776D03*
X0000111515Y0000196414D03*
X0000111515Y0000198776D03*
X0000120964Y0000198776D03*
X0000120964Y0000196414D03*
X0000123326Y0000198776D03*
X0000123326Y0000196414D03*
X0000120964Y0000194051D03*
X0000123326Y0000194051D03*
X0000167197Y0000308325D03*
X0000167197Y0000313050D03*
X0000167197Y0000310687D03*
X0000174284Y0000310687D03*
X0000174284Y0000313050D03*
X0000174284Y0000308325D03*
X0000171922Y0000308325D03*
X0000171922Y0000313050D03*
X0000171922Y0000310687D03*
X0000169560Y0000308325D03*
X0000169560Y0000313050D03*
X0000169560Y0000310687D03*
G54D34*
G01X-0000082664Y0000196218D02*
X-0000084352Y0000194530D01*
X-0000087220Y0000194530D01*
X-0000088100Y0000193650D01*
X-0000088100Y0000179150D01*
X-0000090470Y0000176780D01*
X-0000096520Y0000176780D01*
X-0000100170Y0000173130D01*
X-0000108120Y0000173130D01*
X-0000111420Y0000169830D01*
X-0000122470Y0000169830D01*
X-0000127800Y0000164500D01*
X-0000157900Y0000164500D01*
X-0000168970Y0000175570D01*
X-0000168970Y0000177080D01*
X-0000176420Y0000184530D01*
X-0000179620Y0000184530D01*
X-0000187620Y0000192530D01*
X-0000195820Y0000192530D01*
X-0000199648Y0000196358D01*
X-0000224411Y0000196358D01*
X-0000225245Y0000197192D01*
X-0000225245Y0000199507D01*
X-0000223820Y0000200932D01*
G01X-0000182020Y0000189530D02*
X-0000189690Y0000197200D01*
X-0000197900Y0000197200D01*
X-0000199230Y0000198530D01*
X-0000223073Y0000198530D01*
X-0000223820Y0000197783D01*
G01X-0000177820Y0000180030D02*
X-0000178230Y0000180030D01*
X-0000187830Y0000189630D01*
X-0000198520Y0000189630D01*
X-0000200920Y0000192030D01*
X-0000225720Y0000192030D01*
X-0000227720Y0000190030D01*
G01X-0000106286Y0000200155D02*
X-0000106541Y0000199900D01*
X-0000123090Y0000199900D01*
X-0000125090Y0000201900D01*
X-0000139840Y0000201900D01*
X-0000142340Y0000204400D01*
X-0000163590Y0000204400D01*
X-0000165027Y0000205837D01*
X-0000165027Y0000217927D01*
X-0000168600Y0000221500D01*
X-0000184687Y0000221500D01*
X-0000185229Y0000222042D01*
X-0000195094Y0000222042D01*
X-0000196407Y0000223355D01*
X-0000215055Y0000223355D01*
X-0000217828Y0000226128D01*
X-0000224818Y0000226128D01*
G01X-0000098412Y0000211966D02*
X-0000099976Y0000213530D01*
X-0000107220Y0000213530D01*
X-0000107720Y0000213030D01*
X-0000116098Y0000213030D01*
X-0000116643Y0000213575D01*
X-0000126465Y0000213575D01*
X-0000133220Y0000220330D01*
X-0000133220Y0000223230D01*
X-0000135520Y0000225530D01*
X-0000136220Y0000225530D01*
X-0000141675Y0000230985D01*
X-0000141693Y0000230985D01*
X-0000142597Y0000231889D01*
X-0000142597Y0000233307D01*
X-0000143424Y0000234134D01*
X-0000167734Y0000234134D01*
X-0000169130Y0000235530D01*
X-0000174720Y0000235530D01*
X-0000175520Y0000234730D01*
X-0000210020Y0000234730D01*
X-0000210616Y0000234134D01*
X-0000222916Y0000234134D01*
X-0000224818Y0000232232D01*
X-0000224818Y0000229277D01*
G01X-0000102349Y0000204092D02*
X-0000104411Y0000202030D01*
X-0000122720Y0000202030D01*
X-0000124720Y0000204030D01*
X-0000133220Y0000204030D01*
X-0000134720Y0000205530D01*
X-0000140720Y0000205530D01*
X-0000142645Y0000207455D01*
X-0000144161Y0000207455D01*
X-0000146220Y0000209514D01*
X-0000146220Y0000222530D01*
X-0000147220Y0000223530D01*
X-0000147280Y0000223530D01*
X-0000147505Y0000223755D01*
X-0000172156Y0000223755D01*
X-0000173101Y0000224700D01*
X-0000186600Y0000224700D01*
X-0000187770Y0000223530D01*
X-0000193836Y0000223530D01*
X-0000194745Y0000224439D01*
X-0000194745Y0000225555D01*
X-0000195415Y0000226225D01*
X-0000214215Y0000226225D01*
X-0000215844Y0000227854D01*
X-0000215844Y0000232530D01*
G01X-0000074790Y0000215903D02*
X-0000075593Y0000215903D01*
X-0000077623Y0000217933D01*
X-0000079817Y0000217933D01*
X-0000080720Y0000217030D01*
X-0000080720Y0000215530D01*
X-0000082220Y0000214030D01*
X-0000095720Y0000214030D01*
X-0000096720Y0000215030D01*
X-0000096720Y0000216520D01*
X-0000097700Y0000217500D01*
X-0000108030Y0000217500D01*
X-0000109930Y0000215600D01*
X-0000115640Y0000215600D01*
X-0000116340Y0000216300D01*
X-0000122490Y0000216300D01*
X-0000127720Y0000221530D01*
X-0000127720Y0000223220D01*
X-0000135295Y0000230795D01*
X-0000135295Y0000232605D01*
X-0000141190Y0000238500D01*
X-0000148564Y0000238500D01*
X-0000148579Y0000238485D01*
X-0000176265Y0000238485D01*
X-0000176720Y0000238030D01*
X-0000213493Y0000238030D01*
X-0000215844Y0000235679D01*
G01X-0000070853Y0000247399D02*
X-0000070853Y0000245653D01*
X-0000069220Y0000244020D01*
X-0000069220Y0000231030D01*
X-0000070220Y0000230030D01*
X-0000082570Y0000230030D01*
X-0000086431Y0000226169D01*
X-0000109668Y0000226169D01*
X-0000112529Y0000229030D01*
X-0000119530Y0000229030D01*
X-0000132670Y0000242170D01*
X-0000180730Y0000242170D01*
X-0000183370Y0000239530D01*
X-0000226420Y0000239530D01*
X-0000227173Y0000238777D01*
X-0000227173Y0000236320D01*
X-0000226683Y0000235830D01*
X-0000222420Y0000235830D01*
G01X-0000106286Y0000211966D02*
X-0000106722Y0000211530D01*
X-0000115220Y0000211530D01*
X-0000116720Y0000210030D01*
X-0000127220Y0000210030D01*
X-0000134720Y0000217530D01*
X-0000134720Y0000221133D01*
X-0000135629Y0000222042D01*
X-0000136835Y0000222042D01*
X-0000137720Y0000222927D01*
X-0000137720Y0000225030D01*
X-0000143720Y0000231030D01*
X-0000170079Y0000231030D01*
X-0000170938Y0000231889D01*
X-0000170938Y0000233293D01*
X-0000171720Y0000234075D01*
X-0000173675Y0000234075D01*
X-0000174720Y0000233030D01*
X-0000179720Y0000233030D01*
X-0000181765Y0000230985D01*
X-0000198554Y0000230985D01*
X-0000200099Y0000232530D01*
G01X-0000106286Y0000204092D02*
X-0000106286Y0000205147D01*
X-0000106776Y0000205637D01*
X-0000111612Y0000205637D01*
X-0000113319Y0000203930D01*
X-0000122220Y0000203930D01*
X-0000123820Y0000205530D01*
X-0000131220Y0000205530D01*
X-0000134720Y0000209030D01*
X-0000141120Y0000209030D01*
X-0000142220Y0000210130D01*
X-0000142220Y0000220030D01*
X-0000145181Y0000222991D01*
X-0000145181Y0000225991D01*
X-0000145825Y0000226635D01*
X-0000159465Y0000226635D01*
X-0000160070Y0000226030D01*
X-0000192220Y0000226030D01*
X-0000193605Y0000227415D01*
X-0000212905Y0000227415D01*
X-0000214020Y0000228530D01*
X-0000214020Y0000232039D01*
X-0000213529Y0000232530D01*
X-0000212695Y0000232530D01*
G01X-0000078727Y0000215903D02*
X-0000078727Y0000215023D01*
X-0000080720Y0000213030D01*
X-0000080720Y0000211030D01*
X-0000081675Y0000210075D01*
X-0000115175Y0000210075D01*
X-0000116720Y0000208530D01*
X-0000129220Y0000208530D01*
X-0000135157Y0000214467D01*
X-0000137157Y0000214467D01*
X-0000139220Y0000216530D01*
X-0000139220Y0000224530D01*
X-0000144220Y0000229530D01*
X-0000172457Y0000229530D01*
X-0000173749Y0000230822D01*
X-0000178928Y0000230822D01*
X-0000179955Y0000229795D01*
X-0000200513Y0000229795D01*
X-0000203248Y0000232530D01*
G01X-0000098412Y0000204092D02*
X-0000098412Y0000205722D01*
X-0000100720Y0000208030D01*
X-0000101836Y0000208030D01*
X-0000102326Y0000207540D01*
X-0000102326Y0000206220D01*
X-0000102816Y0000205730D01*
X-0000103796Y0000205730D01*
X-0000104286Y0000206220D01*
X-0000104286Y0000207540D01*
X-0000104776Y0000208030D01*
X-0000111820Y0000208030D01*
X-0000114320Y0000205530D01*
X-0000121020Y0000205530D01*
X-0000122520Y0000207030D01*
X-0000129720Y0000207030D01*
X-0000135720Y0000213030D01*
X-0000139720Y0000213030D01*
X-0000140720Y0000214030D01*
X-0000140720Y0000224127D01*
X-0000144623Y0000228030D01*
X-0000160270Y0000228030D01*
X-0000160770Y0000227530D01*
X-0000191720Y0000227530D01*
X-0000192795Y0000228605D01*
X-0000208295Y0000228605D01*
X-0000209546Y0000229856D01*
X-0000209546Y0000232530D01*
G01X-0000106286Y0000215903D02*
X-0000107347Y0000215903D01*
X-0000108892Y0000214358D01*
X-0000115918Y0000214358D01*
X-0000116360Y0000214800D01*
X-0000125090Y0000214800D01*
X-0000130620Y0000220330D01*
X-0000130620Y0000223920D01*
X-0000134230Y0000227530D01*
X-0000136436Y0000227530D01*
X-0000139265Y0000230359D01*
X-0000139265Y0000234475D01*
X-0000142014Y0000237224D01*
X-0000146605Y0000237224D01*
X-0000147095Y0000236734D01*
X-0000147095Y0000235820D01*
X-0000147585Y0000235330D01*
X-0000148565Y0000235330D01*
X-0000149055Y0000235820D01*
X-0000149055Y0000236734D01*
X-0000149545Y0000237224D01*
X-0000150525Y0000237224D01*
X-0000151015Y0000236734D01*
X-0000151015Y0000235820D01*
X-0000151505Y0000235330D01*
X-0000152485Y0000235330D01*
X-0000152975Y0000235820D01*
X-0000152975Y0000236734D01*
X-0000153465Y0000237224D01*
X-0000154445Y0000237224D01*
X-0000154935Y0000236734D01*
X-0000154935Y0000235820D01*
X-0000155425Y0000235330D01*
X-0000156405Y0000235330D01*
X-0000156895Y0000235820D01*
X-0000156895Y0000236734D01*
X-0000157385Y0000237224D01*
X-0000158365Y0000237224D01*
X-0000158855Y0000236734D01*
X-0000158855Y0000235820D01*
X-0000159345Y0000235330D01*
X-0000160325Y0000235330D01*
X-0000160815Y0000235820D01*
X-0000160815Y0000236734D01*
X-0000161305Y0000237224D01*
X-0000175126Y0000237224D01*
X-0000175820Y0000236530D01*
X-0000211844Y0000236530D01*
X-0000212695Y0000235679D01*
G01X-0000090538Y0000200155D02*
X-0000092720Y0000197973D01*
X-0000092720Y0000191530D01*
X-0000093720Y0000190530D01*
X-0000099870Y0000190530D01*
X-0000100720Y0000189680D01*
X-0000100720Y0000187780D01*
X-0000101701Y0000186799D01*
X-0000107201Y0000186799D01*
X-0000109870Y0000184130D01*
X-0000118370Y0000184130D01*
X-0000121500Y0000181000D01*
X-0000138690Y0000181000D01*
X-0000141120Y0000183430D01*
X-0000150120Y0000183430D01*
X-0000151220Y0000184530D01*
X-0000166734Y0000184530D01*
X-0000169420Y0000187216D01*
X-0000169420Y0000189130D01*
X-0000171420Y0000191130D01*
X-0000181120Y0000191130D01*
X-0000184220Y0000194230D01*
X-0000184220Y0000215231D01*
X-0000179621Y0000219830D01*
X-0000177369Y0000219830D01*
G01X-0000176350Y0000189530D02*
X-0000175030Y0000189530D01*
X-0000167077Y0000181577D01*
X-0000166081Y0000181577D01*
X-0000166079Y0000181575D01*
X-0000155079Y0000181575D01*
X-0000155004Y0000181500D01*
X-0000155000Y0000181500D01*
X-0000153485Y0000179985D01*
X-0000149015Y0000179985D01*
X-0000147370Y0000181630D01*
X-0000142630Y0000181630D01*
X-0000136500Y0000175500D01*
X-0000123500Y0000175500D01*
X-0000119500Y0000179500D01*
X-0000110600Y0000179500D01*
X-0000108085Y0000182015D01*
X-0000096020Y0000182015D01*
X-0000094475Y0000180470D01*
G01X-0000090538Y0000188344D02*
X-0000092220Y0000186662D01*
X-0000092220Y0000179530D01*
X-0000093420Y0000178330D01*
X-0000106920Y0000178330D01*
X-0000109720Y0000175530D01*
X-0000120720Y0000175530D01*
X-0000129450Y0000166800D01*
X-0000155790Y0000166800D01*
X-0000175920Y0000186930D01*
X-0000179420Y0000186930D01*
X-0000182020Y0000189530D01*
G01X-0000086601Y0000188344D02*
X-0000085100Y0000186843D01*
X-0000085100Y0000178650D01*
X-0000088720Y0000175030D01*
X-0000095400Y0000175030D01*
X-0000101055Y0000169375D01*
X-0000105985Y0000169375D01*
X-0000109760Y0000165600D01*
X-0000123700Y0000165600D01*
X-0000126800Y0000162500D01*
X-0000158504Y0000162500D01*
X-0000173434Y0000177430D01*
X-0000175220Y0000177430D01*
X-0000177820Y0000180030D01*
G01X-0000098412Y0000200155D02*
X-0000100595Y0000200155D01*
X-0000104220Y0000196530D01*
X-0000107556Y0000196530D01*
X-0000111400Y0000192686D01*
X-0000111400Y0000190150D01*
X-0000112350Y0000189200D01*
X-0000113190Y0000189200D01*
X-0000113755Y0000189765D01*
X-0000113755Y0000192240D01*
X-0000114245Y0000192730D01*
X-0000115715Y0000192730D01*
X-0000116205Y0000192240D01*
X-0000116205Y0000189765D01*
X-0000116695Y0000189275D01*
X-0000127466Y0000189275D01*
X-0000129220Y0000191029D01*
X-0000129220Y0000192140D01*
X-0000129710Y0000192630D01*
X-0000131320Y0000192630D01*
X-0000131820Y0000192130D01*
X-0000131820Y0000187120D01*
X-0000132310Y0000186630D01*
X-0000133630Y0000186630D01*
X-0000134120Y0000187120D01*
X-0000134120Y0000191740D01*
X-0000134610Y0000192230D01*
X-0000148329Y0000192230D01*
X-0000149219Y0000193120D01*
X-0000149219Y0000194940D01*
X-0000149709Y0000195430D01*
X-0000151179Y0000195430D01*
X-0000151669Y0000194940D01*
X-0000151669Y0000193120D01*
X-0000152159Y0000192630D01*
X-0000160422Y0000192630D01*
X-0000160912Y0000193120D01*
X-0000160912Y0000194740D01*
X-0000161402Y0000195230D01*
X-0000162872Y0000195230D01*
X-0000163362Y0000194740D01*
X-0000163362Y0000193120D01*
X-0000163852Y0000192630D01*
X-0000165620Y0000192630D01*
X-0000166220Y0000193230D01*
X-0000166220Y0000195530D01*
X-0000166720Y0000196030D01*
X-0000176420Y0000196030D01*
X-0000177420Y0000197030D01*
X-0000177420Y0000208830D01*
X-0000176645Y0000209605D01*
X-0000176629Y0000209605D01*
X-0000175795Y0000210439D01*
X-0000175795Y0000210455D01*
X-0000175720Y0000210530D01*
X-0000175720Y0000212032D01*
X-0000174220Y0000213532D01*
G01X-0000098412Y0000196218D02*
X-0000098412Y0000195338D01*
X-0000100220Y0000193530D01*
X-0000100220Y0000192030D01*
X-0000102220Y0000190030D01*
X-0000106920Y0000190030D01*
X-0000111120Y0000185830D01*
X-0000120170Y0000185830D01*
X-0000122670Y0000183330D01*
X-0000138220Y0000183330D01*
X-0000140150Y0000185260D01*
X-0000147760Y0000185260D01*
X-0000149020Y0000186520D01*
X-0000149020Y0000188530D01*
X-0000149320Y0000188830D01*
X-0000166520Y0000188830D01*
X-0000170320Y0000192630D01*
X-0000179920Y0000192630D01*
X-0000182220Y0000194930D01*
X-0000182220Y0000206730D01*
X-0000181120Y0000207830D01*
X-0000181120Y0000215730D01*
X-0000180169Y0000216681D01*
X-0000177369Y0000216681D01*
G01X-0000110223Y0000196218D02*
X-0000112041Y0000194400D01*
X-0000120630Y0000194400D01*
X-0000121120Y0000193910D01*
X-0000121120Y0000191130D01*
X-0000121620Y0000190630D01*
X-0000126530Y0000190630D01*
X-0000127020Y0000191120D01*
X-0000127020Y0000194440D01*
X-0000127510Y0000194930D01*
X-0000129320Y0000194930D01*
X-0000131920Y0000197530D01*
X-0000143620Y0000197530D01*
X-0000144320Y0000196830D01*
X-0000144320Y0000194230D01*
X-0000144820Y0000193730D01*
X-0000146920Y0000193730D01*
X-0000147420Y0000194230D01*
X-0000147420Y0000197040D01*
X-0000147910Y0000197530D01*
X-0000175420Y0000197530D01*
X-0000176020Y0000198130D01*
X-0000176020Y0000201930D01*
X-0000175420Y0000202530D01*
X-0000172710Y0000202530D01*
X-0000172220Y0000203020D01*
X-0000172220Y0000204930D01*
X-0000173020Y0000205730D01*
X-0000175330Y0000205730D01*
X-0000175820Y0000206220D01*
X-0000175820Y0000208530D01*
X-0000175220Y0000209130D01*
X-0000172920Y0000209130D01*
X-0000172220Y0000209830D01*
X-0000172220Y0000214030D01*
X-0000173220Y0000215030D01*
X-0000175871Y0000215030D01*
X-0000177369Y0000213532D01*
G01X-0000086601Y0000204092D02*
X-0000086601Y0000205539D01*
X-0000086110Y0000206030D01*
X-0000081490Y0000206030D01*
X-0000081000Y0000205540D01*
X-0000081000Y0000198890D01*
X-0000081490Y0000198400D01*
X-0000087710Y0000198400D01*
X-0000088200Y0000198890D01*
X-0000088200Y0000201300D01*
X-0000088930Y0000202030D01*
X-0000091820Y0000202030D01*
X-0000092520Y0000202730D01*
X-0000092520Y0000205430D01*
X-0000093320Y0000206230D01*
X-0000095720Y0000206230D01*
X-0000096520Y0000205430D01*
X-0000096520Y0000202520D01*
X-0000097010Y0000202030D01*
X-0000101220Y0000202030D01*
X-0000104650Y0000198600D01*
X-0000124900Y0000198600D01*
X-0000126830Y0000200530D01*
X-0000167220Y0000200530D01*
X-0000168220Y0000201530D01*
X-0000168220Y0000217720D01*
X-0000170330Y0000219830D01*
X-0000174220Y0000219830D01*
G01X-0000094475Y0000200155D02*
X-0000094475Y0000198675D01*
X-0000095020Y0000198130D01*
X-0000099620Y0000198130D01*
X-0000100220Y0000197530D01*
X-0000100220Y0000196030D01*
X-0000101720Y0000194530D01*
X-0000106720Y0000194530D01*
X-0000108155Y0000193095D01*
X-0000108155Y0000190995D01*
X-0000111620Y0000187530D01*
X-0000121470Y0000187530D01*
X-0000123970Y0000185030D01*
X-0000136920Y0000185030D01*
X-0000137420Y0000185530D01*
X-0000137420Y0000190440D01*
X-0000137910Y0000190930D01*
X-0000139229Y0000190930D01*
X-0000139719Y0000190440D01*
X-0000139719Y0000188920D01*
X-0000140209Y0000188430D01*
X-0000141679Y0000188430D01*
X-0000142169Y0000188920D01*
X-0000142169Y0000190440D01*
X-0000142659Y0000190930D01*
X-0000144129Y0000190930D01*
X-0000144619Y0000190440D01*
X-0000144619Y0000188920D01*
X-0000145109Y0000188430D01*
X-0000146579Y0000188430D01*
X-0000147069Y0000188920D01*
X-0000147069Y0000190040D01*
X-0000147559Y0000190530D01*
X-0000166220Y0000190530D01*
X-0000169820Y0000194130D01*
X-0000178320Y0000194130D01*
X-0000179020Y0000194830D01*
X-0000179020Y0000196823D01*
X-0000179510Y0000197313D01*
X-0000180130Y0000197313D01*
X-0000180620Y0000197803D01*
X-0000180620Y0000199273D01*
X-0000180130Y0000199763D01*
X-0000179510Y0000199763D01*
X-0000179020Y0000200253D01*
X-0000179020Y0000201723D01*
X-0000179510Y0000202213D01*
X-0000180130Y0000202213D01*
X-0000180620Y0000202703D01*
X-0000180620Y0000204173D01*
X-0000180130Y0000204663D01*
X-0000179510Y0000204663D01*
X-0000179020Y0000205153D01*
X-0000179020Y0000210540D01*
X-0000178530Y0000211030D01*
X-0000177220Y0000211030D01*
G01X-0000114160Y0000196218D02*
X-0000114478Y0000195900D01*
X-0000124900Y0000195900D01*
X-0000128030Y0000199030D01*
X-0000168220Y0000199030D01*
X-0000170220Y0000201030D01*
X-0000170220Y0000216190D01*
X-0000170711Y0000216681D01*
X-0000174220Y0000216681D01*
G01X-0000070853Y0000263147D02*
X-0000070853Y0000262147D01*
X-0000072720Y0000260280D01*
X-0000072720Y0000258530D01*
X-0000071013Y0000256823D01*
X-0000070210Y0000256823D01*
X-0000068466Y0000255079D01*
X-0000068466Y0000254579D01*
X-0000067417Y0000253530D01*
X-0000066220Y0000253530D01*
X-0000062620Y0000249930D01*
X-0000062620Y0000223879D01*
X-0000063799Y0000222700D01*
X-0000082100Y0000222700D01*
X-0000085100Y0000219700D01*
X-0000091900Y0000219700D01*
X-0000093585Y0000221385D01*
X-0000106927Y0000221385D01*
X-0000110912Y0000217400D01*
X-0000116010Y0000217400D01*
X-0000116955Y0000218345D01*
X-0000119645Y0000218345D01*
X-0000122450Y0000221150D01*
X-0000123340Y0000221150D01*
X-0000133200Y0000231010D01*
X-0000133200Y0000232510D01*
X-0000138000Y0000237310D01*
X-0000138000Y0000238530D01*
X-0000139500Y0000240030D01*
G01X-0000082664Y0000267084D02*
X-0000080720Y0000265140D01*
X-0000080720Y0000254820D01*
X-0000078930Y0000253030D01*
X-0000074331Y0000253030D01*
X-0000068800Y0000247499D01*
X-0000068800Y0000247000D01*
X-0000067330Y0000245530D01*
X-0000066430Y0000245530D01*
X-0000065421Y0000244521D01*
X-0000065421Y0000227016D01*
X-0000066237Y0000226200D01*
X-0000083000Y0000226200D01*
X-0000085170Y0000224030D01*
X-0000113350Y0000224030D01*
X-0000115790Y0000226470D01*
X-0000119770Y0000226470D01*
X-0000120800Y0000227500D01*
X-0000124500Y0000227500D01*
X-0000126100Y0000229100D01*
X-0000126100Y0000230870D01*
X-0000132220Y0000236990D01*
G01X-0000074790Y0000267084D02*
X-0000073200Y0000265494D01*
X-0000073200Y0000262300D01*
X-0000074250Y0000261250D01*
X-0000074250Y0000257250D01*
X-0000072800Y0000255800D01*
X-0000072800Y0000254610D01*
X-0000067720Y0000249530D01*
X-0000066220Y0000249530D01*
X-0000063600Y0000246910D01*
X-0000063600Y0000225001D01*
X-0000064701Y0000223900D01*
X-0000082800Y0000223900D01*
X-0000085100Y0000221600D01*
X-0000091900Y0000221600D01*
X-0000092675Y0000222375D01*
X-0000108625Y0000222375D01*
X-0000109470Y0000221530D01*
X-0000117720Y0000221530D01*
X-0000121565Y0000225375D01*
X-0000124975Y0000225375D01*
X-0000131200Y0000231600D01*
X-0000131200Y0000232900D01*
X-0000135220Y0000236920D01*
X-0000135220Y0000239985D01*
G01X-0000129700Y0000343300D02*
X-0000123970Y0000349030D01*
X-0000104220Y0000349030D01*
X-0000096811Y0000341621D01*
X-0000080512Y0000341621D01*
X-0000073948Y0000348185D01*
X-0000066515Y0000348185D01*
X-0000060900Y0000353800D01*
X-0000003990Y0000353800D01*
X0000022131Y0000327679D01*
X0000023131Y0000327679D01*
G01X0000010535Y0000327679D02*
X0000011431Y0000327679D01*
X0000013010Y0000326100D01*
X0000014210Y0000326100D01*
X0000015080Y0000325230D01*
X0000015080Y0000321180D01*
X0000008780Y0000314880D01*
X0000008780Y0000313030D01*
X0000002780Y0000307030D01*
X0000001280Y0000307030D01*
X-0000001720Y0000304030D01*
X-0000007220Y0000304030D01*
X-0000010321Y0000307131D01*
X-0000022119Y0000307131D01*
X-0000025350Y0000303900D01*
X-0000034800Y0000303900D01*
X-0000039220Y0000299480D01*
X-0000039220Y0000296481D01*
X-0000041101Y0000294600D01*
X-0000073000Y0000294600D01*
X-0000080470Y0000287130D01*
X-0000095819Y0000287130D01*
X-0000105218Y0000296529D01*
X-0000106578Y0000296529D01*
G01X-0000106578Y0000300466D02*
X-0000095512Y0000289400D01*
X-0000080900Y0000289400D01*
X-0000072900Y0000297400D01*
X-0000060850Y0000297400D01*
X-0000051720Y0000306530D01*
X-0000038120Y0000306530D01*
X-0000036720Y0000305130D01*
X-0000028720Y0000305130D01*
X-0000028000Y0000305850D01*
X-0000028000Y0000307750D01*
X-0000025575Y0000310175D01*
X-0000011366Y0000310175D01*
X-0000008221Y0000307030D01*
X-0000001720Y0000307030D01*
X-0000000220Y0000308530D01*
X0000001530Y0000308530D01*
X0000005780Y0000312780D01*
X0000005780Y0000315380D01*
X0000012030Y0000321630D01*
X0000012030Y0000325080D01*
X0000011080Y0000326030D01*
X0000009035Y0000326030D01*
X0000007386Y0000327679D01*
G01X-0000109120Y0000343730D02*
X-0000102190Y0000336800D01*
X-0000085740Y0000336800D01*
X-0000084340Y0000335400D01*
X-0000076250Y0000335400D01*
X-0000074120Y0000337530D01*
X-0000044270Y0000337530D01*
X-0000037300Y0000344500D01*
X-0000013200Y0000344500D01*
X-0000005890Y0000337190D01*
X-0000000879Y0000337190D01*
X0000005780Y0000330531D01*
X0000005780Y0000326136D01*
X0000007386Y0000324530D01*
G01X-0000117220Y0000340500D02*
X-0000117220Y0000342430D01*
X-0000114075Y0000345575D01*
X-0000103765Y0000345575D01*
X-0000097290Y0000339100D01*
X-0000083700Y0000339100D01*
X-0000082400Y0000337800D01*
X-0000079350Y0000337800D01*
X-0000072050Y0000345100D01*
X-0000063900Y0000345100D01*
X-0000056800Y0000352200D01*
X-0000005391Y0000352200D01*
X0000022279Y0000324530D01*
X0000023131Y0000324530D01*
G01X-0000094475Y0000215903D02*
X-0000092348Y0000218030D01*
X-0000082359Y0000218030D01*
X-0000081169Y0000219220D01*
X-0000081169Y0000220581D01*
X-0000080415Y0000221335D01*
X-0000077525Y0000221335D01*
X-0000076720Y0000220530D01*
X-0000076720Y0000219530D01*
X-0000075220Y0000218030D01*
X-0000073720Y0000218030D01*
X-0000072720Y0000217030D01*
X-0000072720Y0000215530D01*
X-0000071220Y0000214030D01*
X-0000058720Y0000214030D01*
X-0000057220Y0000212530D01*
X-0000057220Y0000199530D01*
X-0000055720Y0000198030D01*
X-0000042220Y0000198030D01*
X-0000041220Y0000197030D01*
X-0000041220Y0000195530D01*
X-0000040220Y0000194530D01*
X-0000038720Y0000194530D01*
X-0000037220Y0000193030D01*
X-0000037220Y0000191030D01*
X-0000036220Y0000190030D01*
X-0000034720Y0000190030D01*
X-0000033220Y0000188530D01*
X-0000033220Y0000187030D01*
X-0000032220Y0000186030D01*
X-0000030730Y0000186030D01*
X-0000029400Y0000184700D01*
X-0000029400Y0000183900D01*
X-0000028405Y0000182905D01*
X-0000022395Y0000182905D01*
X-0000021300Y0000184000D01*
X-0000008300Y0000184000D01*
X0000002780Y0000172920D01*
X0000002780Y0000163330D01*
X0000008080Y0000158030D01*
X0000015780Y0000158030D01*
X0000028780Y0000145030D01*
X0000052290Y0000145030D01*
X0000063320Y0000134000D01*
X0000079000Y0000134000D01*
X0000086500Y0000126500D01*
X0000086500Y0000122720D01*
X0000083780Y0000120000D01*
X0000083780Y0000116530D01*
X0000081780Y0000114530D01*
G01X-0000094767Y0000300466D02*
X-0000092831Y0000298530D01*
X-0000090103Y0000298530D01*
X-0000088275Y0000296702D01*
X-0000083548Y0000296702D01*
X-0000069220Y0000311030D01*
X-0000066120Y0000311030D01*
X-0000062220Y0000314930D01*
X-0000032820Y0000314930D01*
X-0000030725Y0000317025D01*
X-0000009715Y0000317025D01*
X-0000006251Y0000313561D01*
X-0000002788Y0000313561D01*
X-0000001931Y0000314418D01*
X-0000001931Y0000324400D01*
X-0000002061Y0000324530D01*
G01X0000004237Y0000327679D02*
X0000002780Y0000326222D01*
X0000002780Y0000322680D01*
X0000000600Y0000320500D01*
X0000000600Y0000315761D01*
X-0000002861Y0000312300D01*
X-0000006990Y0000312300D01*
X-0000008725Y0000314035D01*
X-0000030715Y0000314035D01*
X-0000033920Y0000310830D01*
X-0000063920Y0000310830D01*
X-0000066050Y0000308700D01*
X-0000069050Y0000308700D01*
X-0000083220Y0000294530D01*
X-0000092720Y0000294530D01*
X-0000098656Y0000300466D01*
X-0000098704Y0000300466D01*
G01X0000010535Y0000324530D02*
X0000003035Y0000317030D01*
X0000003035Y0000312785D01*
X0000000150Y0000309900D01*
X-0000009000Y0000309900D01*
X-0000010562Y0000311462D01*
X-0000027788Y0000311462D01*
X-0000031025Y0000308225D01*
X-0000052725Y0000308225D01*
X-0000059920Y0000301030D01*
X-0000065530Y0000301030D01*
X-0000066200Y0000301700D01*
X-0000071150Y0000301700D01*
X-0000081891Y0000290959D01*
X-0000094149Y0000290959D01*
X-0000102641Y0000299451D01*
X-0000102641Y0000300466D01*
G01X-0000102641Y0000304525D02*
X-0000100720Y0000302604D01*
X-0000100720Y0000299730D01*
X-0000093863Y0000292873D01*
X-0000082376Y0000292873D01*
X-0000069149Y0000306100D01*
X-0000059899Y0000306100D01*
X-0000056569Y0000309430D01*
X-0000032820Y0000309430D01*
X-0000029502Y0000312748D01*
X-0000009438Y0000312748D01*
X-0000007790Y0000311100D01*
X-0000002157Y0000311100D01*
X-0000001335Y0000311922D01*
G01X-0000004720Y0000324530D02*
X-0000007850Y0000321400D01*
X-0000015000Y0000321400D01*
X-0000016676Y0000319724D01*
X-0000019414Y0000319724D01*
X-0000020220Y0000320530D01*
X-0000032220Y0000320530D01*
X-0000033870Y0000318880D01*
X-0000036270Y0000318880D01*
X-0000038020Y0000320630D01*
X-0000060870Y0000320630D01*
X-0000062900Y0000318600D01*
X-0000065500Y0000318600D01*
X-0000072720Y0000311380D01*
X-0000072720Y0000310030D01*
X-0000084134Y0000298616D01*
X-0000087806Y0000298616D01*
X-0000089656Y0000300466D01*
X-0000090830Y0000300466D01*
G01X0000001088Y0000324530D02*
X-0000000407Y0000326025D01*
X-0000000407Y0000328367D01*
X-0000002550Y0000330510D01*
X-0000008340Y0000330510D01*
X-0000016290Y0000338460D01*
X-0000028830Y0000338460D01*
X-0000030400Y0000340030D01*
X-0000035220Y0000340030D01*
X-0000042120Y0000333130D01*
X-0000060120Y0000333130D01*
X-0000061620Y0000331630D01*
X-0000069720Y0000331630D01*
X-0000079820Y0000321530D01*
X-0000079820Y0000314930D01*
X-0000085720Y0000309030D01*
X-0000090262Y0000309030D01*
X-0000094767Y0000304525D01*
G01X0000001088Y0000327679D02*
X0000001088Y0000330212D01*
X-0000003180Y0000334480D01*
X-0000007680Y0000334480D01*
X-0000013600Y0000340400D01*
X-0000027520Y0000340400D01*
X-0000028890Y0000341770D01*
X-0000035980Y0000341770D01*
X-0000043154Y0000334596D01*
X-0000061654Y0000334596D01*
X-0000063220Y0000333030D01*
X-0000071220Y0000333030D01*
X-0000081920Y0000322330D01*
X-0000081920Y0000315830D01*
X-0000087220Y0000310530D01*
X-0000092699Y0000310530D01*
X-0000098704Y0000304525D01*
G01X-0000002061Y0000327679D02*
X-0000008169Y0000327679D01*
X-0000017020Y0000336530D01*
X-0000032720Y0000336530D01*
X-0000033720Y0000335530D01*
X-0000036220Y0000335530D01*
X-0000040087Y0000331663D01*
X-0000059087Y0000331663D01*
X-0000060420Y0000330330D01*
X-0000068620Y0000330330D01*
X-0000077720Y0000321230D01*
X-0000077720Y0000313530D01*
X-0000084720Y0000306530D01*
X-0000088825Y0000306530D01*
X-0000090830Y0000304525D01*
G01X-0000087720Y0000146000D02*
X-0000087720Y0000138530D01*
X-0000086420Y0000137230D01*
X-0000086420Y0000131030D01*
X-0000081720Y0000126330D01*
X-0000081720Y0000116730D01*
X-0000082620Y0000115830D01*
G01X-0000074790Y0000219840D02*
X-0000073030Y0000219840D01*
X-0000071220Y0000218030D01*
X-0000065220Y0000218030D01*
X-0000060620Y0000222630D01*
X-0000060620Y0000252620D01*
X-0000063000Y0000255000D01*
X-0000063000Y0000263800D01*
X-0000062500Y0000264300D01*
X-0000062500Y0000279700D01*
X-0000059700Y0000282500D01*
X-0000043000Y0000282500D01*
X-0000040900Y0000284600D01*
X-0000031800Y0000284600D01*
X-0000029700Y0000286700D01*
X-0000029700Y0000289000D01*
X-0000027500Y0000291200D01*
X-0000019040Y0000291200D01*
X-0000018220Y0000290380D01*
G01X-0000078727Y0000255273D02*
X-0000076500Y0000257500D01*
X-0000076500Y0000267310D01*
X-0000083109Y0000273919D01*
X-0000086631Y0000273919D01*
G01X-0000070853Y0000267084D02*
X-0000074500Y0000270731D01*
X-0000074500Y0000286050D01*
X-0000068720Y0000291830D01*
X-0000061720Y0000291830D01*
X-0000061090Y0000291200D01*
X-0000056650Y0000291200D01*
X-0000055013Y0000292837D01*
X-0000040363Y0000292837D01*
X-0000036920Y0000296280D01*
X-0000036920Y0000298380D01*
X-0000034100Y0000301200D01*
X-0000029900Y0000301200D01*
X-0000028670Y0000302430D01*
X-0000013120Y0000302430D01*
X-0000005720Y0000295030D01*
X-0000000220Y0000295030D01*
X0000005180Y0000300430D01*
X0000011680Y0000300430D01*
X0000012980Y0000301730D01*
X0000012980Y0000302680D01*
X0000014500Y0000304200D01*
X0000017250Y0000304200D01*
X0000020031Y0000306981D01*
X0000036829Y0000306981D01*
X0000038453Y0000305357D01*
G01X-0000086893Y0000300466D02*
X-0000084934Y0000300466D01*
X-0000075220Y0000310180D01*
X-0000075220Y0000320030D01*
X-0000068686Y0000326564D01*
X-0000038754Y0000326564D01*
X-0000037220Y0000325030D01*
X-0000014720Y0000325030D01*
X-0000014220Y0000324530D01*
G01X-0000020955Y0000305636D02*
X-0000019349Y0000304030D01*
X-0000012120Y0000304030D01*
X-0000006120Y0000298030D01*
X-0000000220Y0000298030D01*
X0000002780Y0000301030D01*
X0000002780Y0000302531D01*
X0000010849Y0000310600D01*
X0000013646Y0000310600D01*
X0000025772Y0000322726D01*
X0000026726Y0000322726D01*
X0000027780Y0000323780D01*
X0000027780Y0000332730D01*
X0000003410Y0000357100D01*
X-0000076300Y0000357100D01*
X-0000082300Y0000351100D01*
X-0000082300Y0000344610D01*
X-0000081220Y0000343530D01*
G01X-0000014657Y0000305636D02*
X-0000011326Y0000305636D01*
X-0000006720Y0000301030D01*
X-0000002220Y0000301030D01*
X0000002280Y0000305530D01*
X0000003280Y0000305530D01*
X0000009850Y0000312100D01*
X0000011200Y0000312100D01*
X0000013200Y0000314100D01*
X0000013200Y0000315200D01*
X0000020530Y0000322530D01*
X0000023445Y0000322530D01*
X0000024780Y0000323865D01*
X0000024780Y0000333230D01*
X0000002710Y0000355300D01*
X-0000075300Y0000355300D01*
X-0000079565Y0000351035D01*
X-0000079565Y0000346965D01*
X-0000078600Y0000346000D01*
G01X-0000055105Y0000184407D02*
X-0000055105Y0000184415D01*
X-0000057220Y0000186530D01*
X-0000060720Y0000186530D01*
X-0000061720Y0000187530D01*
X-0000061720Y0000193030D01*
X-0000060220Y0000194530D01*
X-0000042220Y0000194530D01*
X-0000041220Y0000193530D01*
X-0000041220Y0000191530D01*
X-0000040220Y0000190530D01*
X-0000038720Y0000190530D01*
X-0000037720Y0000189530D01*
X-0000037720Y0000187030D01*
X-0000037220Y0000186530D01*
X-0000035220Y0000186530D01*
X-0000033720Y0000185030D01*
X-0000033720Y0000182490D01*
X-0000033195Y0000181965D01*
X-0000011865Y0000181965D01*
X-0000005186Y0000175286D01*
X-0000005186Y0000165330D01*
X-0000003326Y0000163470D01*
X0000000140Y0000163470D01*
X0000011080Y0000152530D01*
X0000016780Y0000152530D01*
X0000029780Y0000139530D01*
X0000049990Y0000139530D01*
X0000057520Y0000132000D01*
X0000077955Y0000132000D01*
X0000084955Y0000125000D01*
X0000084955Y0000124070D01*
G01X-0000055105Y0000239525D02*
X-0000057029Y0000239525D01*
X-0000057520Y0000240016D01*
X-0000057520Y0000245340D01*
X-0000057030Y0000245830D01*
X-0000055120Y0000245830D01*
X-0000054320Y0000245030D01*
X-0000052420Y0000245030D01*
X-0000051620Y0000245830D01*
X-0000049510Y0000245830D01*
X-0000049020Y0000246320D01*
X-0000049020Y0000248540D01*
X-0000049510Y0000249030D01*
X-0000051620Y0000249030D01*
X-0000052420Y0000249830D01*
X-0000054520Y0000249830D01*
X-0000055320Y0000249030D01*
X-0000056730Y0000249030D01*
X-0000057547Y0000249847D01*
X-0000057547Y0000252240D01*
X-0000056956Y0000252831D01*
X-0000053153Y0000252831D01*
X-0000052663Y0000253321D01*
X-0000052663Y0000255883D01*
X-0000053810Y0000257030D01*
X-0000056730Y0000257030D01*
X-0000057220Y0000257520D01*
X-0000057220Y0000260540D01*
X-0000056730Y0000261030D01*
X-0000054720Y0000261030D01*
X-0000053220Y0000262530D01*
X-0000053220Y0000275140D01*
X-0000052730Y0000275630D01*
X-0000048220Y0000275630D01*
X-0000046370Y0000277480D01*
X-0000040270Y0000277480D01*
X-0000037820Y0000279930D01*
X-0000007820Y0000279930D01*
X-0000005720Y0000282030D01*
X0000001580Y0000282030D01*
X0000003080Y0000283530D01*
X0000005260Y0000283530D01*
X0000006542Y0000282248D01*
X0000007998Y0000282248D01*
X0000008780Y0000283030D01*
X0000008780Y0000285030D01*
X0000009980Y0000286230D01*
X0000014380Y0000286230D01*
X0000016880Y0000288730D01*
X0000022370Y0000288730D01*
X0000026070Y0000285030D01*
X0000027250Y0000285030D01*
X0000028750Y0000283530D01*
X0000037880Y0000283530D01*
X0000038485Y0000282925D01*
X0000038485Y0000281735D01*
G01X-0000059042Y0000239525D02*
X-0000059042Y0000238352D01*
X-0000058220Y0000237530D01*
X-0000054720Y0000237530D01*
X-0000052720Y0000239530D01*
X-0000052720Y0000240530D01*
X-0000051338Y0000241912D01*
X-0000050525Y0000241912D01*
X-0000049220Y0000243217D01*
X-0000049220Y0000243630D01*
X-0000047520Y0000245330D01*
X-0000045620Y0000245330D01*
X-0000045120Y0000245830D01*
X-0000045120Y0000252030D01*
X-0000044120Y0000253030D01*
X-0000042620Y0000253030D01*
X-0000041220Y0000254430D01*
X-0000041220Y0000264530D01*
X-0000042120Y0000265430D01*
X-0000044020Y0000265430D01*
X-0000045220Y0000266630D01*
X-0000045220Y0000268030D01*
X-0000043220Y0000270030D01*
X-0000039220Y0000270030D01*
X-0000037920Y0000271330D01*
X-0000035620Y0000271330D01*
X-0000034520Y0000272430D01*
X-0000026820Y0000272430D01*
X-0000022811Y0000276439D01*
X-0000019028Y0000276439D01*
X-0000018119Y0000275530D01*
X0000011080Y0000275530D01*
X0000013780Y0000278230D01*
X0000013780Y0000281529D01*
X0000015844Y0000283593D01*
X0000016883Y0000283593D01*
G01X0000065280Y0000278030D02*
X0000065280Y0000279330D01*
X0000066180Y0000280230D01*
X0000081580Y0000280230D01*
X0000082180Y0000280830D01*
X0000082180Y0000282640D01*
X0000081690Y0000283130D01*
X0000059080Y0000283130D01*
X0000057400Y0000281450D01*
X0000057400Y0000276650D01*
X0000056880Y0000276130D01*
X0000049680Y0000276130D01*
X0000047280Y0000278530D01*
X0000047280Y0000294530D01*
X0000045872Y0000295938D01*
X0000036880Y0000295938D01*
X0000036180Y0000296638D01*
X0000036180Y0000298230D01*
X0000035080Y0000299330D01*
X0000032080Y0000299330D01*
X0000030580Y0000297830D01*
X0000018800Y0000297830D01*
X0000016870Y0000295900D01*
X0000010550Y0000295900D01*
X0000009380Y0000294730D01*
X0000009380Y0000292420D01*
X0000008890Y0000291930D01*
X0000005480Y0000291930D01*
X0000002820Y0000289270D01*
X-0000008270Y0000289270D01*
X-0000013630Y0000294630D01*
X-0000016621Y0000294630D01*
X-0000018921Y0000296930D01*
X-0000026570Y0000296930D01*
X-0000033675Y0000289825D01*
X-0000033675Y0000288489D01*
X-0000033700Y0000288464D01*
X-0000033700Y0000288400D01*
X-0000034515Y0000287585D01*
X-0000043115Y0000287585D01*
X-0000044900Y0000285800D01*
X-0000061300Y0000285800D01*
X-0000066090Y0000281010D01*
X-0000066090Y0000268970D01*
X-0000065421Y0000268301D01*
X-0000065421Y0000266179D01*
X-0000066916Y0000264684D01*
X-0000066916Y0000263147D01*
G01X0000055780Y0000278030D02*
X0000055780Y0000288875D01*
X0000055290Y0000289365D01*
X0000053670Y0000289365D01*
X0000053180Y0000289855D01*
X0000053180Y0000291325D01*
X0000053670Y0000291815D01*
X0000055290Y0000291815D01*
X0000055780Y0000292305D01*
X0000055780Y0000293775D01*
X0000055290Y0000294265D01*
X0000053670Y0000294265D01*
X0000053180Y0000294755D01*
X0000053180Y0000296225D01*
X0000053670Y0000296715D01*
X0000055290Y0000296715D01*
X0000055780Y0000297205D01*
X0000055780Y0000298675D01*
X0000055290Y0000299165D01*
X0000053670Y0000299165D01*
X0000053180Y0000299655D01*
X0000053180Y0000301125D01*
X0000053670Y0000301615D01*
X0000055290Y0000301615D01*
X0000055780Y0000302105D01*
X0000055780Y0000303575D01*
X0000055290Y0000304065D01*
X0000053670Y0000304065D01*
X0000053180Y0000304555D01*
X0000053180Y0000306025D01*
X0000053670Y0000306515D01*
X0000055290Y0000306515D01*
X0000055780Y0000307005D01*
X0000055780Y0000309030D01*
X0000055280Y0000309530D01*
X0000041560Y0000309530D01*
X0000040960Y0000308930D01*
X0000040960Y0000303830D01*
X0000040360Y0000303230D01*
X0000033880Y0000303230D01*
X0000032880Y0000304230D01*
X0000019880Y0000304230D01*
X0000017050Y0000301400D01*
X0000014600Y0000301400D01*
X0000012330Y0000299130D01*
X0000006380Y0000299130D01*
X-0000000650Y0000292100D01*
X-0000006100Y0000292100D01*
X-0000007920Y0000293920D01*
X-0000007920Y0000294830D01*
X-0000013923Y0000300833D01*
X-0000028167Y0000300833D01*
X-0000034270Y0000294730D01*
X-0000035770Y0000294730D01*
X-0000039220Y0000291280D01*
X-0000053270Y0000291280D01*
X-0000055120Y0000289430D01*
X-0000062170Y0000289430D01*
X-0000069220Y0000282380D01*
X-0000069220Y0000261514D01*
X-0000066916Y0000259210D01*
G01X-0000059042Y0000255273D02*
X-0000060010Y0000255273D01*
X-0000060500Y0000255763D01*
X-0000060500Y0000258553D01*
X-0000060537Y0000258590D01*
X-0000060537Y0000271563D01*
X-0000059640Y0000272460D01*
X-0000059640Y0000279260D01*
X-0000058270Y0000280630D01*
X-0000041120Y0000280630D01*
X-0000039050Y0000282700D01*
X-0000028000Y0000282700D01*
X-0000027274Y0000283426D01*
X-0000027274Y0000288510D01*
X-0000026784Y0000289000D01*
X-0000025604Y0000289000D01*
X-0000025114Y0000288510D01*
X-0000025114Y0000283820D01*
X-0000024624Y0000283330D01*
X-0000023744Y0000283330D01*
X-0000023254Y0000283820D01*
X-0000023254Y0000288810D01*
X-0000022764Y0000289300D01*
X-0000021684Y0000289300D01*
X-0000021194Y0000288810D01*
X-0000021194Y0000283820D01*
X-0000020704Y0000283330D01*
X-0000019924Y0000283330D01*
X-0000019234Y0000284020D01*
X-0000019234Y0000287940D01*
X-0000018744Y0000288430D01*
X-0000017764Y0000288430D01*
X-0000017274Y0000287940D01*
X-0000017274Y0000283484D01*
X-0000016920Y0000283130D01*
X-0000015252Y0000283130D01*
X-0000014762Y0000283620D01*
X-0000014762Y0000289040D01*
X-0000014272Y0000289530D01*
X-0000013292Y0000289530D01*
X-0000012802Y0000289040D01*
X-0000012802Y0000283620D01*
X-0000012312Y0000283130D01*
X-0000010820Y0000283130D01*
X-0000010520Y0000283430D01*
X-0000010520Y0000285830D01*
X-0000009840Y0000286510D01*
X0000004760Y0000286510D01*
X0000007347Y0000289097D01*
X0000013047Y0000289097D01*
X0000015480Y0000291530D01*
X0000019722Y0000291530D01*
X0000020212Y0000292020D01*
X0000020212Y0000293740D01*
X0000020702Y0000294230D01*
X0000021682Y0000294230D01*
X0000022172Y0000293740D01*
X0000022172Y0000292020D01*
X0000022662Y0000291530D01*
X0000028825Y0000291530D01*
X0000029315Y0000292020D01*
X0000029315Y0000293210D01*
X0000029805Y0000293700D01*
X0000030785Y0000293700D01*
X0000031275Y0000293210D01*
X0000031275Y0000292020D01*
X0000031765Y0000291530D01*
X0000035080Y0000291530D01*
X0000036180Y0000290430D01*
X0000036180Y0000288930D01*
X0000037280Y0000287830D01*
X0000040580Y0000287830D01*
X0000041080Y0000288330D01*
X0000041080Y0000290840D01*
X0000041570Y0000291330D01*
X0000043390Y0000291330D01*
X0000043880Y0000290840D01*
X0000043880Y0000281320D01*
X0000043390Y0000280830D01*
X0000041670Y0000280830D01*
X0000041180Y0000281320D01*
X0000041180Y0000285230D01*
X0000040880Y0000285530D01*
X0000038564Y0000285530D01*
X0000038422Y0000285672D01*
G01X-0000059042Y0000259210D02*
X-0000059042Y0000260808D01*
X-0000056620Y0000263230D01*
X-0000056620Y0000264130D01*
X-0000057420Y0000264930D01*
X-0000057420Y0000266030D01*
X-0000056620Y0000266830D01*
X-0000056620Y0000268040D01*
X-0000057110Y0000268530D01*
X-0000058629Y0000268530D01*
X-0000059120Y0000269021D01*
X-0000059120Y0000270539D01*
X-0000058630Y0000271029D01*
X-0000055410Y0000271029D01*
X-0000054920Y0000271519D01*
X-0000054920Y0000273040D01*
X-0000055410Y0000273530D01*
X-0000057670Y0000273530D01*
X-0000058270Y0000274130D01*
X-0000058270Y0000278530D01*
X-0000057670Y0000279130D01*
X-0000055770Y0000279130D01*
X-0000055170Y0000278530D01*
X-0000055170Y0000277830D01*
X-0000054570Y0000277230D01*
X-0000048819Y0000277230D01*
X-0000046970Y0000279079D01*
X-0000040770Y0000279079D01*
X-0000038419Y0000281430D01*
X-0000008320Y0000281430D01*
X-0000006820Y0000282930D01*
X-0000006820Y0000284830D01*
X-0000006520Y0000285130D01*
X0000006081Y0000285130D01*
X0000008614Y0000287663D01*
X0000013713Y0000287663D01*
X0000016210Y0000290160D01*
X0000024050Y0000290160D01*
X0000025680Y0000288530D01*
X0000027740Y0000288530D01*
X0000028340Y0000287930D01*
X0000028340Y0000285990D01*
X0000028830Y0000285500D01*
X0000030180Y0000285500D01*
X0000030670Y0000285990D01*
X0000030670Y0000289350D01*
X0000031270Y0000289950D01*
X0000032220Y0000289950D01*
X0000032820Y0000289350D01*
X0000032820Y0000286272D01*
X0000033420Y0000285672D01*
X0000034359Y0000285672D01*
G01X0000086280Y0000262030D02*
X0000087825Y0000263575D01*
X0000097775Y0000263575D01*
X0000098800Y0000264600D01*
X0000098800Y0000277440D01*
X0000098310Y0000277930D01*
X0000076430Y0000277930D01*
X0000074530Y0000276030D01*
X0000058880Y0000276030D01*
X0000057480Y0000274630D01*
X0000048180Y0000274630D01*
X0000045280Y0000277530D01*
X0000045280Y0000291720D01*
X0000044000Y0000293000D01*
X0000040000Y0000293000D01*
X0000038930Y0000291930D01*
X0000037080Y0000291930D01*
X0000036080Y0000292930D01*
X0000036080Y0000294430D01*
X0000034680Y0000295830D01*
X0000020030Y0000295830D01*
X0000018700Y0000294500D01*
X0000016300Y0000294500D01*
X0000012330Y0000290530D01*
X0000006280Y0000290530D01*
X0000003640Y0000287890D01*
X-0000009390Y0000287890D01*
X-0000012830Y0000291330D01*
X-0000014920Y0000291330D01*
X-0000016920Y0000293330D01*
X-0000028370Y0000293330D01*
X-0000032200Y0000289500D01*
X-0000032200Y0000287900D01*
X-0000033700Y0000286400D01*
X-0000042600Y0000286400D01*
X-0000044600Y0000284400D01*
X-0000060400Y0000284400D01*
X-0000064800Y0000280000D01*
X-0000064800Y0000269610D01*
X-0000064300Y0000269110D01*
X-0000064300Y0000265240D01*
X-0000064600Y0000264940D01*
X-0000064600Y0000259230D01*
X-0000066300Y0000257530D01*
X-0000068221Y0000257530D01*
X-0000069901Y0000259210D01*
X-0000070853Y0000259210D01*
G01X0000052480Y0000278030D02*
X0000051435Y0000279075D01*
X0000051435Y0000285424D01*
X0000050945Y0000285914D01*
X0000049370Y0000285914D01*
X0000048880Y0000286404D01*
X0000048880Y0000287874D01*
X0000049370Y0000288364D01*
X0000050945Y0000288364D01*
X0000051435Y0000288854D01*
X0000051435Y0000290324D01*
X0000050945Y0000290814D01*
X0000049370Y0000290814D01*
X0000048880Y0000291304D01*
X0000048880Y0000292774D01*
X0000049370Y0000293264D01*
X0000050945Y0000293264D01*
X0000051435Y0000293754D01*
X0000051435Y0000296423D01*
X0000050945Y0000296913D01*
X0000048070Y0000296913D01*
X0000047580Y0000297403D01*
X0000047580Y0000298873D01*
X0000048070Y0000299363D01*
X0000050945Y0000299363D01*
X0000051435Y0000299853D01*
X0000051435Y0000301323D01*
X0000050945Y0000301813D01*
X0000045970Y0000301813D01*
X0000045480Y0000302303D01*
X0000045480Y0000303773D01*
X0000045970Y0000304263D01*
X0000050945Y0000304263D01*
X0000051435Y0000304753D01*
X0000051435Y0000306375D01*
X0000050580Y0000307230D01*
X0000043130Y0000307230D01*
X0000042530Y0000306630D01*
X0000042530Y0000300230D01*
X0000041930Y0000299630D01*
X0000037480Y0000299630D01*
X0000036180Y0000300930D01*
X0000018930Y0000300930D01*
X0000016610Y0000298610D01*
X0000014060Y0000298610D01*
X0000013080Y0000297630D01*
X0000007380Y0000297630D01*
X0000004280Y0000294530D01*
X0000004280Y0000292930D01*
X0000002000Y0000290650D01*
X-0000006940Y0000290650D01*
X-0000014090Y0000297800D01*
X-0000018390Y0000297800D01*
X-0000019820Y0000299230D01*
X-0000026120Y0000299230D01*
X-0000034520Y0000290830D01*
X-0000036920Y0000290830D01*
X-0000038120Y0000289630D01*
X-0000042770Y0000289630D01*
X-0000045200Y0000287200D01*
X-0000062200Y0000287200D01*
X-0000067430Y0000281970D01*
X-0000067430Y0000267598D01*
X-0000066916Y0000267084D01*
G01X-0000011508Y0000327679D02*
X-0000017989Y0000334160D01*
X-0000030090Y0000334160D01*
X-0000033365Y0000330885D01*
X-0000037365Y0000330885D01*
X-0000038054Y0000330196D01*
X-0000057880Y0000330196D01*
X-0000059425Y0000328651D01*
G01X-0000008720Y0000324530D02*
X-0000010220Y0000323030D01*
X-0000046970Y0000323030D01*
X-0000047400Y0000322600D01*
X-0000065350Y0000322600D01*
X-0000067220Y0000320730D01*
G01X-0000003276Y0000314976D02*
X-0000006830Y0000318530D01*
X-0000031720Y0000318530D01*
X-0000033220Y0000317030D01*
X-0000037520Y0000317030D01*
X-0000039420Y0000318930D01*
X-0000060321Y0000318930D01*
X-0000062292Y0000316959D01*
X-0000063220Y0000316959D01*
G01X-0000051168Y0000219840D02*
X-0000049340Y0000219840D01*
X-0000048726Y0000219226D01*
X-0000048726Y0000219220D01*
X-0000043914Y0000214408D01*
X-0000043908Y0000214408D01*
X-0000043530Y0000214030D01*
X-0000043220Y0000214030D01*
X-0000041220Y0000212030D01*
X-0000041220Y0000211530D01*
X-0000040161Y0000210471D01*
X-0000039661Y0000210471D01*
X-0000037220Y0000208030D01*
X-0000037220Y0000207030D01*
X-0000035777Y0000205587D01*
X-0000034800Y0000205587D01*
X-0000034743Y0000205530D01*
X-0000034720Y0000205530D01*
X-0000033220Y0000204030D01*
X-0000033220Y0000203720D01*
X-0000032978Y0000203478D01*
X-0000032978Y0000203472D01*
X-0000032103Y0000202597D01*
X-0000032097Y0000202597D01*
X-0000031230Y0000201730D01*
X-0000026820Y0000201730D01*
X-0000021720Y0000196630D01*
X-0000021720Y0000196119D01*
X-0000020131Y0000194530D01*
X0000001980Y0000194530D01*
X0000003150Y0000195700D01*
X0000026400Y0000195700D01*
X0000036803Y0000206103D01*
X0000036803Y0000209614D01*
G01X-0000047231Y0000219840D02*
X-0000046530Y0000219840D01*
X-0000044720Y0000218030D01*
X-0000041610Y0000218030D01*
X-0000041120Y0000217540D01*
X-0000041120Y0000214320D01*
X-0000040630Y0000213830D01*
X-0000038220Y0000213830D01*
X-0000037620Y0000214430D01*
X-0000037620Y0000217530D01*
X-0000037120Y0000218030D01*
X-0000034210Y0000218030D01*
X-0000033720Y0000217540D01*
X-0000033720Y0000215330D01*
X-0000034520Y0000214530D01*
X-0000034520Y0000213430D01*
X-0000033720Y0000212630D01*
X-0000033720Y0000211330D01*
X-0000034520Y0000210530D01*
X-0000034520Y0000209330D01*
X-0000033720Y0000208530D01*
X-0000033720Y0000206730D01*
X-0000033020Y0000206030D01*
X-0000031220Y0000206030D01*
X-0000028420Y0000203230D01*
X-0000025920Y0000203230D01*
X-0000020720Y0000198030D01*
X-0000015120Y0000198030D01*
X-0000013320Y0000196230D01*
X-0000011693Y0000196230D01*
X-0000010993Y0000196930D01*
X-0000009733Y0000196930D01*
X-0000009033Y0000196230D01*
X-0000007773Y0000196230D01*
X-0000007073Y0000196930D01*
X-0000005813Y0000196930D01*
X-0000005113Y0000196230D01*
X-0000003853Y0000196230D01*
X-0000003153Y0000196930D01*
X-0000001893Y0000196930D01*
X-0000001193Y0000196230D01*
X0000001080Y0000196230D01*
X0000002250Y0000197400D01*
X0000025700Y0000197400D01*
X0000033654Y0000205354D01*
X0000033654Y0000209614D01*
G01X-0000051168Y0000251336D02*
X-0000051168Y0000252540D01*
X-0000050678Y0000253030D01*
X-0000045820Y0000253030D01*
X-0000044820Y0000254030D01*
X-0000044820Y0000257040D01*
X-0000045310Y0000257530D01*
X-0000047820Y0000257530D01*
X-0000048620Y0000256730D01*
X-0000050220Y0000256730D01*
X-0000051120Y0000257630D01*
X-0000052120Y0000257630D01*
X-0000052720Y0000258230D01*
X-0000052720Y0000261030D01*
X-0000052220Y0000261530D01*
X-0000050420Y0000261530D01*
X-0000049720Y0000260830D01*
X-0000048020Y0000260830D01*
X-0000047520Y0000261330D01*
X-0000045410Y0000261330D01*
X-0000044920Y0000261820D01*
X-0000044920Y0000264540D01*
X-0000045410Y0000265030D01*
X-0000049130Y0000265030D01*
X-0000049620Y0000265520D01*
X-0000049620Y0000267830D01*
X-0000049020Y0000268430D01*
X-0000048220Y0000268430D01*
X-0000047780Y0000268870D01*
X-0000047780Y0000269909D01*
X-0000048270Y0000270399D01*
X-0000050930Y0000270399D01*
X-0000051420Y0000270889D01*
X-0000051420Y0000271869D01*
X-0000050930Y0000272359D01*
X-0000048270Y0000272359D01*
X-0000047780Y0000272849D01*
X-0000047780Y0000273940D01*
X-0000047290Y0000274430D01*
X-0000046310Y0000274430D01*
X-0000045820Y0000273940D01*
X-0000045820Y0000271820D01*
X-0000045330Y0000271330D01*
X-0000044350Y0000271330D01*
X-0000043760Y0000271920D01*
X-0000043760Y0000275640D01*
X-0000043270Y0000276130D01*
X-0000042390Y0000276130D01*
X-0000041900Y0000275640D01*
X-0000041900Y0000271820D01*
X-0000041410Y0000271330D01*
X-0000040420Y0000271330D01*
X-0000039717Y0000272033D01*
X-0000039717Y0000272725D01*
X-0000040175Y0000273183D01*
X-0000040175Y0000273875D01*
X-0000039481Y0000274569D01*
X-0000038789Y0000274569D01*
X-0000037031Y0000272811D01*
X-0000036339Y0000272811D01*
X-0000035645Y0000273505D01*
X-0000035645Y0000274397D01*
X-0000037803Y0000276555D01*
X-0000037803Y0000277247D01*
X-0000037109Y0000277941D01*
X-0000036417Y0000277941D01*
X-0000035459Y0000276983D01*
X-0000034767Y0000276983D01*
X-0000033520Y0000278230D01*
X-0000032500Y0000278230D01*
X-0000032010Y0000277740D01*
X-0000032010Y0000274320D01*
X-0000031520Y0000273830D01*
X-0000030540Y0000273830D01*
X-0000030050Y0000274320D01*
X-0000030050Y0000277740D01*
X-0000029560Y0000278230D01*
X-0000028580Y0000278230D01*
X-0000028090Y0000277740D01*
X-0000028090Y0000274920D01*
X-0000027600Y0000274430D01*
X-0000026620Y0000274430D01*
X-0000026130Y0000274920D01*
X-0000026130Y0000277740D01*
X-0000025640Y0000278230D01*
X-0000018720Y0000278230D01*
X-0000017520Y0000277030D01*
X-0000013910Y0000277030D01*
X-0000013420Y0000277520D01*
X-0000013420Y0000278040D01*
X-0000012930Y0000278530D01*
X-0000011950Y0000278530D01*
X-0000011460Y0000278040D01*
X-0000011460Y0000277520D01*
X-0000010970Y0000277030D01*
X-0000009990Y0000277030D01*
X-0000009500Y0000277520D01*
X-0000009500Y0000278040D01*
X-0000009010Y0000278530D01*
X-0000008030Y0000278530D01*
X-0000007540Y0000278040D01*
X-0000007540Y0000277520D01*
X-0000007050Y0000277030D01*
X-0000006170Y0000277030D01*
X-0000005680Y0000277520D01*
X-0000005680Y0000278440D01*
X-0000005190Y0000278930D01*
X-0000004210Y0000278930D01*
X-0000003720Y0000278440D01*
X-0000003720Y0000277620D01*
X-0000003130Y0000277030D01*
X-0000002250Y0000277030D01*
X-0000001760Y0000277520D01*
X-0000001760Y0000278440D01*
X-0000001270Y0000278930D01*
X-0000000290Y0000278930D01*
X0000000200Y0000278440D01*
X0000000200Y0000277620D01*
X0000000790Y0000277030D01*
X0000001780Y0000277030D01*
X0000002680Y0000277930D01*
X0000002680Y0000281230D01*
X0000003380Y0000281930D01*
X0000003658Y0000281930D01*
X0000003667Y0000281939D01*
X0000004907Y0000281939D01*
X0000005782Y0000281064D01*
X0000005782Y0000279228D01*
X0000006110Y0000278900D01*
X0000011650Y0000278900D01*
X0000012280Y0000279530D01*
X0000012280Y0000284030D01*
X0000013280Y0000285030D01*
X0000016210Y0000285030D01*
X0000016700Y0000285520D01*
X0000016700Y0000286740D01*
X0000017190Y0000287230D01*
X0000018170Y0000287230D01*
X0000018660Y0000286740D01*
X0000018660Y0000285520D01*
X0000019150Y0000285030D01*
X0000020130Y0000285030D01*
X0000020620Y0000285520D01*
X0000020620Y0000286740D01*
X0000021110Y0000287230D01*
X0000022090Y0000287230D01*
X0000022580Y0000286740D01*
X0000022580Y0000285520D01*
X0000023070Y0000285030D01*
X0000023780Y0000285030D01*
X0000024780Y0000284030D01*
X0000024780Y0000283030D01*
X0000026380Y0000281430D01*
X0000034054Y0000281430D01*
X0000034359Y0000281735D01*
G01X-0000043294Y0000267084D02*
X-0000041744Y0000268634D01*
X-0000038116Y0000268634D01*
X-0000036720Y0000270030D01*
X-0000034820Y0000270030D01*
X-0000033620Y0000271230D01*
X-0000026120Y0000271230D01*
X-0000022343Y0000275007D01*
X-0000019820Y0000275007D01*
X-0000018961Y0000274148D01*
X0000011562Y0000274148D01*
X0000015280Y0000277866D01*
X0000015280Y0000281030D01*
X0000016280Y0000282030D01*
X0000023780Y0000282030D01*
X0000025780Y0000280030D01*
X0000040080Y0000280030D01*
X0000041936Y0000278174D01*
X0000041936Y0000276582D01*
X0000041028Y0000275674D01*
X0000041028Y0000274982D01*
X0000042069Y0000273941D01*
X0000042761Y0000273941D01*
X0000043669Y0000274849D01*
X0000044361Y0000274849D01*
X0000045402Y0000273808D01*
X0000045402Y0000273116D01*
X0000044494Y0000272208D01*
X0000044494Y0000271516D01*
X0000045535Y0000270475D01*
X0000046227Y0000270475D01*
X0000047135Y0000271383D01*
X0000047827Y0000271383D01*
X0000048619Y0000270591D01*
X0000048619Y0000267820D01*
X0000049109Y0000267330D01*
X0000050579Y0000267330D01*
X0000051069Y0000267820D01*
X0000051069Y0000272240D01*
X0000051559Y0000272730D01*
X0000052790Y0000272730D01*
X0000053280Y0000272240D01*
X0000053280Y0000264520D01*
X0000053770Y0000264030D01*
X0000056380Y0000264030D01*
X0000057180Y0000264830D01*
X0000057180Y0000272740D01*
X0000057670Y0000273230D01*
X0000059490Y0000273230D01*
X0000059980Y0000272740D01*
X0000059980Y0000268365D01*
X0000060470Y0000267875D01*
X0000062254Y0000267875D01*
X0000063044Y0000268665D01*
X0000063044Y0000274040D01*
X0000063534Y0000274530D01*
X0000065004Y0000274530D01*
X0000065494Y0000274040D01*
X0000065494Y0000268365D01*
X0000065984Y0000267875D01*
X0000067154Y0000267875D01*
X0000067944Y0000268665D01*
X0000067944Y0000274040D01*
X0000068434Y0000274530D01*
X0000070003Y0000274530D01*
X0000070493Y0000274040D01*
X0000070493Y0000270320D01*
X0000070983Y0000269830D01*
X0000071963Y0000269830D01*
X0000072453Y0000270320D01*
X0000072453Y0000273540D01*
X0000072943Y0000274030D01*
X0000073923Y0000274030D01*
X0000074413Y0000273540D01*
X0000074413Y0000270320D01*
X0000074903Y0000269830D01*
X0000075883Y0000269830D01*
X0000076480Y0000270427D01*
X0000076480Y0000275840D01*
X0000076970Y0000276330D01*
X0000078510Y0000276330D01*
X0000079000Y0000275840D01*
X0000079000Y0000268420D01*
X0000078510Y0000267930D01*
X0000071380Y0000267930D01*
X0000070980Y0000267530D01*
X0000070980Y0000266520D01*
X0000070490Y0000266030D01*
X0000068780Y0000266030D01*
G01X-0000011508Y0000324530D02*
X-0000016508Y0000329530D01*
X-0000035720Y0000329530D01*
X-0000036599Y0000328651D01*
X-0000055488Y0000328651D01*
G01X-0000031483Y0000215903D02*
X-0000031483Y0000214193D01*
X-0000029988Y0000212698D01*
X-0000029988Y0000211346D01*
X-0000030520Y0000210814D01*
X-0000030520Y0000209181D01*
X-0000029988Y0000208649D01*
X-0000029988Y0000206398D01*
X-0000028320Y0000204730D01*
X-0000025020Y0000204730D01*
X-0000019820Y0000199530D01*
X-0000014220Y0000199530D01*
X-0000013290Y0000198600D01*
X0000024700Y0000198600D01*
X0000032159Y0000206059D01*
X0000032159Y0000210234D01*
X0000033034Y0000211109D01*
X0000036809Y0000211109D01*
X0000038100Y0000212400D01*
X0000038100Y0000218310D01*
X0000037280Y0000219130D01*
X0000035780Y0000219130D01*
X0000034280Y0000220630D01*
X0000030993Y0000220630D01*
X0000030503Y0000221120D01*
X0000030503Y0000222210D01*
G01X0000030503Y0000219061D02*
X0000030503Y0000218107D01*
X0000031180Y0000217430D01*
X0000036090Y0000217430D01*
X0000036700Y0000216820D01*
X0000036700Y0000214868D01*
X0000036090Y0000214258D01*
X0000029308Y0000214258D01*
X0000028780Y0000213730D01*
X0000028780Y0000207330D01*
X0000025650Y0000204200D01*
X0000011200Y0000204200D01*
X0000010000Y0000203000D01*
X0000005322Y0000203000D01*
X0000001792Y0000206530D01*
X0000000600Y0000206530D01*
X0000000110Y0000206040D01*
X0000000110Y0000206020D01*
X-0000000380Y0000205530D01*
X-0000001850Y0000205530D01*
X-0000002340Y0000206020D01*
X-0000002340Y0000206040D01*
X-0000002830Y0000206530D01*
X-0000004300Y0000206530D01*
X-0000004790Y0000206040D01*
X-0000004790Y0000206020D01*
X-0000005280Y0000205530D01*
X-0000006750Y0000205530D01*
X-0000007240Y0000206020D01*
X-0000007240Y0000206040D01*
X-0000007730Y0000206530D01*
X-0000009220Y0000206530D01*
X-0000013220Y0000202530D01*
X-0000018120Y0000202530D01*
X-0000021220Y0000205630D01*
X-0000021220Y0000215730D01*
X-0000023020Y0000217530D01*
X-0000031420Y0000217530D01*
X-0000033730Y0000219840D01*
X-0000035420Y0000219840D01*
G01X-0000027546Y0000215903D02*
X-0000027319Y0000216130D01*
X-0000023410Y0000216130D01*
X-0000022920Y0000215640D01*
X-0000022920Y0000214130D01*
X-0000023589Y0000213461D01*
X-0000025230Y0000213461D01*
X-0000025720Y0000212971D01*
X-0000025720Y0000207030D01*
X-0000024920Y0000206230D01*
X-0000023920Y0000206230D01*
X-0000018720Y0000201030D01*
X-0000012220Y0000201030D01*
X-0000011220Y0000200030D01*
X-0000010042Y0000200030D01*
X-0000009552Y0000200520D01*
X-0000009552Y0000202540D01*
X-0000009062Y0000203030D01*
X-0000007592Y0000203030D01*
X-0000007102Y0000202540D01*
X-0000007102Y0000200520D01*
X-0000006612Y0000200030D01*
X-0000005142Y0000200030D01*
X-0000004652Y0000200520D01*
X-0000004652Y0000202540D01*
X-0000004162Y0000203030D01*
X-0000002692Y0000203030D01*
X-0000002202Y0000202540D01*
X-0000002202Y0000200520D01*
X-0000001712Y0000200030D01*
X-0000000242Y0000200030D01*
X0000000248Y0000200520D01*
X0000000248Y0000202040D01*
X0000000738Y0000202530D01*
X0000002208Y0000202530D01*
X0000002698Y0000202040D01*
X0000002698Y0000200700D01*
X0000003298Y0000200100D01*
X0000024400Y0000200100D01*
X0000030505Y0000206205D01*
X0000030505Y0000210554D01*
X0000032714Y0000212763D01*
X0000033654Y0000212763D01*
G01X-0000027546Y0000227714D02*
X-0000025862Y0000226030D01*
X-0000009720Y0000226030D01*
X-0000009220Y0000225530D01*
X-0000009220Y0000222030D01*
X-0000008875Y0000221685D01*
X-0000005710Y0000221685D01*
X-0000005220Y0000222175D01*
X-0000005220Y0000225030D01*
X-0000004220Y0000226030D01*
X0000006130Y0000226030D01*
X0000010130Y0000230030D01*
X0000021780Y0000230030D01*
X0000024797Y0000227013D01*
X0000034790Y0000227013D01*
X0000035280Y0000226523D01*
X0000035280Y0000224530D01*
X0000034614Y0000223864D01*
X0000029683Y0000223864D01*
X0000028849Y0000223030D01*
X0000028849Y0000218599D01*
X0000028775Y0000218525D01*
X0000028775Y0000218410D01*
X0000027900Y0000217535D01*
X0000027785Y0000217535D01*
X0000027780Y0000217530D01*
X0000019438Y0000217530D01*
X0000017907Y0000219061D01*
G01X-0000031483Y0000227714D02*
X-0000031483Y0000226520D01*
X-0000030993Y0000226030D01*
X-0000028220Y0000226030D01*
X-0000026720Y0000224530D01*
X-0000012490Y0000224530D01*
X-0000012000Y0000224040D01*
X-0000012000Y0000221810D01*
X-0000010220Y0000220030D01*
X-0000004720Y0000220030D01*
X-0000003220Y0000221530D01*
X-0000003220Y0000224030D01*
X-0000002720Y0000224530D01*
X0000008280Y0000224530D01*
X0000010761Y0000227011D01*
X0000015799Y0000227011D01*
X0000016280Y0000226530D01*
X0000016280Y0000224192D01*
X0000016770Y0000223702D01*
X0000019071Y0000223702D01*
X0000019561Y0000224192D01*
X0000019561Y0000226520D01*
X0000020052Y0000227011D01*
X0000022298Y0000227011D01*
X0000025780Y0000223529D01*
X0000025780Y0000220030D01*
X0000025280Y0000219530D01*
X0000022806Y0000219530D01*
X0000021780Y0000220556D01*
X0000016796Y0000220556D01*
X0000016280Y0000220040D01*
X0000016280Y0000213250D01*
X0000015790Y0000212760D01*
X0000014756Y0000212760D01*
G01X-0000035420Y0000227714D02*
X-0000036420Y0000226714D01*
X-0000036420Y0000225020D01*
X-0000035930Y0000224530D01*
X-0000029220Y0000224530D01*
X-0000027720Y0000223030D01*
X-0000018220Y0000223030D01*
X-0000017720Y0000222530D01*
X-0000017720Y0000219710D01*
X-0000016355Y0000218345D01*
X-0000015034Y0000218345D01*
X-0000014220Y0000217531D01*
X-0000014220Y0000213030D01*
X-0000013521Y0000212331D01*
X-0000012274Y0000212331D01*
X-0000011784Y0000212821D01*
X-0000011784Y0000215540D01*
X-0000011294Y0000216030D01*
X-0000010314Y0000216030D01*
X-0000009824Y0000215540D01*
X-0000009824Y0000212821D01*
X-0000009334Y0000212331D01*
X-0000008354Y0000212331D01*
X-0000007864Y0000212821D01*
X-0000007864Y0000215540D01*
X-0000007374Y0000216030D01*
X-0000006394Y0000216030D01*
X-0000005904Y0000215540D01*
X-0000005904Y0000212821D01*
X-0000005414Y0000212331D01*
X-0000004434Y0000212331D01*
X-0000003944Y0000212821D01*
X-0000003944Y0000215540D01*
X-0000003454Y0000216030D01*
X-0000002474Y0000216030D01*
X-0000001984Y0000215540D01*
X-0000001984Y0000212821D01*
X-0000001494Y0000212331D01*
X-0000000514Y0000212331D01*
X-0000000024Y0000212821D01*
X-0000000024Y0000215540D01*
X0000000466Y0000216030D01*
X0000001446Y0000216030D01*
X0000001936Y0000215540D01*
X0000001936Y0000212821D01*
X0000002426Y0000212331D01*
X0000003979Y0000212331D01*
X0000006280Y0000210030D01*
X0000008680Y0000210030D01*
X0000009865Y0000211215D01*
X0000015790Y0000211215D01*
X0000016280Y0000210725D01*
X0000016280Y0000209720D01*
X0000016970Y0000209030D01*
X0000018190Y0000209030D01*
X0000018680Y0000209520D01*
X0000018680Y0000210530D01*
X0000019365Y0000211215D01*
X0000020564Y0000211215D01*
X0000021054Y0000210725D01*
X0000021054Y0000209611D01*
G01X-0000031483Y0000251337D02*
X-0000029200Y0000249054D01*
X-0000029200Y0000239990D01*
X-0000028710Y0000239500D01*
X-0000022098Y0000239500D01*
X-0000021608Y0000239990D01*
X-0000021608Y0000245710D01*
X-0000021118Y0000246200D01*
X-0000019648Y0000246200D01*
X-0000019158Y0000245710D01*
X-0000019158Y0000240490D01*
X-0000018668Y0000240000D01*
X-0000017198Y0000240000D01*
X-0000016708Y0000240490D01*
X-0000016708Y0000245710D01*
X-0000016218Y0000246200D01*
X-0000014748Y0000246200D01*
X-0000014258Y0000245710D01*
X-0000014258Y0000239490D01*
X-0000013768Y0000239000D01*
X-0000012298Y0000239000D01*
X-0000011808Y0000239490D01*
X-0000011808Y0000245710D01*
X-0000011318Y0000246200D01*
X-0000009848Y0000246200D01*
X-0000009358Y0000245710D01*
X-0000009358Y0000239490D01*
X-0000008868Y0000239000D01*
X-0000007876Y0000239000D01*
X-0000007861Y0000238985D01*
X-0000006579Y0000238985D01*
X-0000006564Y0000239000D01*
X0000001564Y0000239000D01*
X0000001639Y0000239075D01*
X0000004575Y0000239075D01*
X0000010900Y0000245400D01*
X0000017800Y0000245400D01*
X0000019000Y0000246600D01*
X0000019000Y0000257100D01*
X0000020400Y0000258500D01*
X0000025853Y0000258500D01*
X0000027354Y0000260001D01*
G01X0000027354Y0000263150D02*
X0000025859Y0000261655D01*
X0000019856Y0000261655D01*
X0000017000Y0000258799D01*
X0000017000Y0000249800D01*
X0000016200Y0000249000D01*
X0000010900Y0000249000D01*
X0000002500Y0000240600D01*
X0000001690Y0000240600D01*
X0000001100Y0000241190D01*
X0000001100Y0000247900D01*
X0000000500Y0000248500D01*
X-0000002110Y0000248500D01*
X-0000002600Y0000248010D01*
X-0000002600Y0000241590D01*
X-0000003090Y0000241100D01*
X-0000005185Y0000241100D01*
X-0000006500Y0000242415D01*
X-0000006500Y0000248410D01*
X-0000006990Y0000248900D01*
X-0000026656Y0000248900D01*
X-0000027546Y0000249790D01*
X-0000027546Y0000251336D01*
G01X-0000035420Y0000267084D02*
X-0000037520Y0000264984D01*
X-0000037520Y0000261320D01*
X-0000037030Y0000260830D01*
X-0000030300Y0000260830D01*
X-0000029800Y0000260330D01*
X-0000029800Y0000259290D01*
X-0000029310Y0000258800D01*
X-0000025990Y0000258800D01*
X-0000025500Y0000259290D01*
X-0000025500Y0000263700D01*
X-0000027230Y0000265430D01*
X-0000032330Y0000265430D01*
X-0000032978Y0000266078D01*
X-0000032978Y0000268040D01*
X-0000032188Y0000268830D01*
X-0000022420Y0000268830D01*
X-0000021250Y0000270000D01*
X-0000019749Y0000270000D01*
X-0000018366Y0000271383D01*
X0000012521Y0000271383D01*
X0000018418Y0000277280D01*
X0000034030Y0000277280D01*
X0000051880Y0000259430D01*
X0000064810Y0000259430D01*
X0000065325Y0000259945D01*
X0000065325Y0000262165D01*
X0000066090Y0000262930D01*
X0000067203Y0000262930D01*
X0000067693Y0000262440D01*
X0000067693Y0000257600D01*
X0000068293Y0000257000D01*
X0000069343Y0000257000D01*
X0000069943Y0000257600D01*
X0000069943Y0000262144D01*
X0000070529Y0000262730D01*
X0000072203Y0000262730D01*
X0000072693Y0000262240D01*
X0000072693Y0000257600D01*
X0000073293Y0000257000D01*
X0000074700Y0000257000D01*
X0000075300Y0000257600D01*
X0000075300Y0000261340D01*
X0000075990Y0000262030D01*
X0000077280Y0000262030D01*
G01X-0000031483Y0000267084D02*
X-0000026874Y0000267084D01*
X-0000025220Y0000265430D01*
X-0000022320Y0000265430D01*
X-0000021520Y0000266230D01*
X-0000021520Y0000267834D01*
X-0000020720Y0000268634D01*
X-0000019116Y0000268634D01*
X-0000017750Y0000270000D01*
X0000013001Y0000270000D01*
X0000019031Y0000276030D01*
X0000033138Y0000276030D01*
X0000051638Y0000257530D01*
X0000054451Y0000257530D01*
X0000054941Y0000257040D01*
X0000054941Y0000255600D01*
X0000055541Y0000255000D01*
X0000056791Y0000255000D01*
X0000057391Y0000255600D01*
X0000057391Y0000257040D01*
X0000057881Y0000257530D01*
X0000061410Y0000257530D01*
X0000061900Y0000257040D01*
X0000061900Y0000255600D01*
X0000062500Y0000255000D01*
X0000077140Y0000255000D01*
X0000077740Y0000255600D01*
X0000077740Y0000257040D01*
X0000078230Y0000257530D01*
X0000079700Y0000257530D01*
X0000080190Y0000257040D01*
X0000080190Y0000255600D01*
X0000080790Y0000255000D01*
X0000082040Y0000255000D01*
X0000082640Y0000255600D01*
X0000082640Y0000259040D01*
X0000083130Y0000259530D01*
X0000084600Y0000259530D01*
X0000085090Y0000259040D01*
X0000085090Y0000255600D01*
X0000085690Y0000255000D01*
X0000102000Y0000255000D01*
X0000103000Y0000256000D01*
X0000103000Y0000261000D01*
X0000102000Y0000262000D01*
X0000100500Y0000262000D01*
X0000099431Y0000260931D01*
X0000099431Y0000258990D01*
X0000098941Y0000258500D01*
X0000096981Y0000258500D01*
X0000096491Y0000258990D01*
X0000096491Y0000261510D01*
X0000096001Y0000262000D01*
X0000091310Y0000262000D01*
X0000091280Y0000262030D01*
G01X-0000039357Y0000267084D02*
X-0000037665Y0000267084D01*
X-0000035919Y0000268830D01*
X-0000034020Y0000268830D01*
X-0000032820Y0000270030D01*
X-0000025420Y0000270030D01*
X-0000021875Y0000273575D01*
X-0000020164Y0000273575D01*
X-0000019354Y0000272765D01*
X0000012041Y0000272765D01*
X0000017806Y0000278530D01*
X0000035094Y0000278530D01*
X0000052294Y0000261330D01*
X0000057080Y0000261330D01*
X0000057935Y0000262185D01*
X0000057935Y0000263385D01*
X0000058730Y0000264180D01*
X0000075542Y0000264180D01*
X0000076032Y0000264670D01*
X0000076032Y0000265510D01*
X0000076522Y0000266000D01*
X0000077992Y0000266000D01*
X0000078482Y0000265510D01*
X0000078482Y0000264670D01*
X0000078972Y0000264180D01*
X0000080330Y0000264180D01*
X0000081000Y0000264850D01*
X0000081000Y0000273040D01*
X0000081490Y0000273530D01*
X0000083010Y0000273530D01*
X0000083500Y0000273040D01*
X0000083500Y0000267921D01*
X0000084191Y0000267230D01*
X0000085510Y0000267230D01*
X0000086000Y0000267720D01*
X0000086000Y0000273110D01*
X0000086490Y0000273600D01*
X0000095909Y0000273600D01*
X0000096400Y0000273109D01*
X0000096400Y0000271090D01*
X0000095910Y0000270600D01*
X0000088990Y0000270600D01*
X0000088500Y0000270110D01*
X0000088500Y0000268752D01*
X0000088990Y0000268262D01*
X0000096199Y0000268262D01*
X0000096689Y0000267772D01*
X0000096689Y0000265490D01*
X0000096199Y0000265000D01*
X0000084990Y0000265000D01*
X0000084500Y0000264510D01*
X0000084500Y0000262500D01*
X0000084000Y0000262000D01*
X0000082310Y0000262000D01*
X0000082280Y0000262030D01*
G01X-0000015735Y0000219840D02*
X-0000013530Y0000219840D01*
X-0000011720Y0000218030D01*
X-0000002612Y0000218030D01*
X-0000002122Y0000218520D01*
X-0000002122Y0000219540D01*
X-0000001632Y0000220030D01*
X-0000000162Y0000220030D01*
X0000000328Y0000219540D01*
X0000000328Y0000218520D01*
X0000000818Y0000218030D01*
X0000002914Y0000218030D01*
X0000003825Y0000218941D01*
X0000003825Y0000221540D01*
X0000004315Y0000222030D01*
X0000006280Y0000222030D01*
X0000006780Y0000221530D01*
X0000006780Y0000214155D01*
X0000007270Y0000213665D01*
X0000009290Y0000213665D01*
X0000009780Y0000214155D01*
X0000009780Y0000223030D01*
X0000010613Y0000223863D01*
X0000012439Y0000223863D01*
X0000013262Y0000223040D01*
X0000013262Y0000221589D01*
X0000013261Y0000221588D01*
X0000013261Y0000216549D01*
X0000013901Y0000215909D01*
X0000014756Y0000215909D01*
G01X0000027354Y0000256852D02*
X0000029048Y0000256852D01*
X0000029700Y0000256200D01*
X0000029700Y0000245990D01*
X0000030190Y0000245500D01*
X0000032610Y0000245500D01*
X0000033100Y0000245990D01*
X0000033100Y0000259810D01*
X0000032610Y0000260300D01*
X0000029790Y0000260300D01*
X0000029300Y0000260790D01*
X0000029300Y0000262260D01*
X0000029790Y0000262750D01*
X0000032610Y0000262750D01*
X0000033100Y0000263240D01*
X0000033100Y0000266400D01*
X0000031600Y0000267900D01*
X0000016100Y0000267900D01*
X0000013900Y0000265700D01*
X-0000015400Y0000265700D01*
X-0000017953Y0000263147D01*
X-0000019672Y0000263147D01*
G01X0000027354Y0000266299D02*
X0000025755Y0000264700D01*
X0000018900Y0000264700D01*
X0000015100Y0000260900D01*
X0000015100Y0000253200D01*
X0000014108Y0000252208D01*
X0000009125Y0000252208D01*
X0000008635Y0000252698D01*
X0000008635Y0000255510D01*
X0000008145Y0000256000D01*
X0000006675Y0000256000D01*
X0000006185Y0000255510D01*
X0000006185Y0000252698D01*
X0000005695Y0000252208D01*
X0000002558Y0000252208D01*
X0000002068Y0000252698D01*
X0000002068Y0000255740D01*
X0000001578Y0000256230D01*
X0000000108Y0000256230D01*
X-0000000382Y0000255740D01*
X-0000000382Y0000252898D01*
X-0000001072Y0000252208D01*
X-0000002342Y0000252208D01*
X-0000002832Y0000252698D01*
X-0000002832Y0000255740D01*
X-0000003322Y0000256230D01*
X-0000004792Y0000256230D01*
X-0000005282Y0000255740D01*
X-0000005282Y0000252898D01*
X-0000005972Y0000252208D01*
X-0000017308Y0000252208D01*
X-0000017931Y0000252831D01*
X-0000022114Y0000252831D01*
X-0000023609Y0000251336D01*
G01X-0000017695Y0000257600D02*
X-0000015648Y0000257600D01*
X-0000015158Y0000258090D01*
X-0000015158Y0000260891D01*
X-0000014668Y0000261381D01*
X-0000013198Y0000261381D01*
X-0000012708Y0000260891D01*
X-0000012708Y0000257708D01*
X-0000011900Y0000256900D01*
X-0000010100Y0000256900D01*
X-0000009200Y0000257800D01*
X-0000009200Y0000260610D01*
X-0000008710Y0000261100D01*
X-0000004276Y0000261100D01*
X-0000003786Y0000260610D01*
X-0000003786Y0000258790D01*
X-0000003296Y0000258300D01*
X-0000001826Y0000258300D01*
X-0000001336Y0000258790D01*
X-0000001336Y0000262609D01*
X-0000000845Y0000263100D01*
X0000005479Y0000263100D01*
X0000005969Y0000262610D01*
X0000005969Y0000259490D01*
X0000006459Y0000259000D01*
X0000007929Y0000259000D01*
X0000008419Y0000259490D01*
X0000008419Y0000261110D01*
X0000008909Y0000261600D01*
X0000012800Y0000261600D01*
X0000017499Y0000266299D01*
X0000024205Y0000266299D01*
G01X0000010600Y0000301800D02*
X0000010600Y0000303150D01*
X0000014635Y0000307185D01*
X0000017985Y0000307185D01*
X0000022900Y0000312100D01*
X0000027700Y0000312100D01*
X0000031630Y0000316030D01*
X0000107280Y0000316030D01*
X0000116780Y0000306530D01*
X0000119780Y0000306530D01*
G01X0000010230Y0000304780D02*
X0000010230Y0000305480D01*
X0000014780Y0000310030D01*
X0000017430Y0000310030D01*
X0000023100Y0000315700D01*
X0000027900Y0000315700D01*
X0000032230Y0000320030D01*
X0000106280Y0000320030D01*
X0000112280Y0000314030D01*
X0000117780Y0000314030D01*
X0000125280Y0000306530D01*
G01X0000041780Y0000327030D02*
X0000044280Y0000329530D01*
X0000089080Y0000329530D01*
X0000094080Y0000334530D01*
G01X0000041780Y0000332030D02*
X0000087580Y0000332030D01*
X0000094080Y0000338530D01*
G54D16*
X-0000202644Y0000127642D03*
X-0000202644Y0000135634D03*
X-0000195557Y0000127642D03*
X-0000195557Y0000135634D03*
X-0000202644Y0000143626D03*
X-0000202644Y0000151618D03*
X-0000195557Y0000143626D03*
X-0000195557Y0000151618D03*
X-0000188116Y0000126638D03*
X-0000183116Y0000131638D03*
X-0000188116Y0000152622D03*
X-0000183116Y0000147622D03*
X-0000178116Y0000126638D03*
X-0000173116Y0000131638D03*
X-0000168116Y0000126638D03*
X-0000178116Y0000152622D03*
X-0000173116Y0000147622D03*
X-0000168116Y0000152622D03*
X-0000163116Y0000131638D03*
X-0000158116Y0000126638D03*
X-0000153116Y0000131638D03*
X-0000148116Y0000126638D03*
X-0000163116Y0000147622D03*
X-0000158116Y0000152622D03*
X-0000153116Y0000147622D03*
X-0000148116Y0000152622D03*
X-0000143116Y0000131638D03*
X-0000143116Y0000147622D03*
G54D25*
X-0000008309Y0000283593D03*
X-0000014657Y0000293040D03*
X-0000014700Y0000296400D03*
X-0000017806Y0000299338D03*
X-0000014657Y0000299337D03*
X-0000020955Y0000305636D03*
X-0000017806Y0000308680D03*
X-0000014657Y0000308575D03*
X-0000014657Y0000305636D03*
X-0000011508Y0000324530D03*
X-0000011508Y0000327679D03*
X-0000008720Y0000324530D03*
X-0000014220Y0000324530D03*
X-0000014720Y0000315530D03*
X-0000017720Y0000315530D03*
X-0000017720Y0000321219D03*
X-0000002011Y0000280444D03*
X0000001128Y0000280444D03*
X0000007436Y0000280444D03*
X0000007436Y0000277295D03*
X0000004287Y0000277295D03*
X0000004287Y0000280444D03*
X-0000005160Y0000280444D03*
X0000005683Y0000293530D03*
X-0000001220Y0000296381D03*
X0000007100Y0000283593D03*
X-0000004720Y0000296381D03*
X-0000005196Y0000293506D03*
X0000001128Y0000283593D03*
X0000002827Y0000293483D03*
X-0000002021Y0000283593D03*
X0000007780Y0000293530D03*
X-0000005160Y0000283593D03*
X0000007280Y0000313530D03*
X-0000004720Y0000302530D03*
X-0000001335Y0000311922D03*
X0000001030Y0000301780D03*
X0000001600Y0000313500D03*
X-0000004720Y0000299530D03*
X-0000004720Y0000308530D03*
X-0000004720Y0000305530D03*
X0000004530Y0000301780D03*
X0000004380Y0000313530D03*
X0000007386Y0000324530D03*
X-0000003276Y0000314976D03*
X-0000002061Y0000324530D03*
X0000007386Y0000327679D03*
X-0000004720Y0000324530D03*
X0000001088Y0000324530D03*
X0000001088Y0000327679D03*
X0000004237Y0000327679D03*
X-0000002061Y0000327679D03*
X0000004237Y0000324530D03*
X-0000005315Y0000314906D03*
X0000020032Y0000280444D03*
X0000016883Y0000280444D03*
X0000010625Y0000277295D03*
X0000010605Y0000280444D03*
X0000023181Y0000280444D03*
X0000016780Y0000293030D03*
X0000013774Y0000283593D03*
X0000012780Y0000293030D03*
X0000010780Y0000293530D03*
X0000015200Y0000297255D03*
X0000014280Y0000294535D03*
X0000010475Y0000283585D03*
X0000020032Y0000283593D03*
X0000023181Y0000283593D03*
X0000016883Y0000283593D03*
X0000015335Y0000305840D03*
X0000015296Y0000302833D03*
X0000009780Y0000307530D03*
X0000010600Y0000301800D03*
X0000010230Y0000304780D03*
X0000010280Y0000313530D03*
X0000015300Y0000299955D03*
X0000015280Y0000308530D03*
X0000008530Y0000301780D03*
X0000010535Y0000327679D03*
X0000019982Y0000324530D03*
X0000023131Y0000324530D03*
X0000016833Y0000327679D03*
X0000010535Y0000324530D03*
X0000016833Y0000324530D03*
X0000013684Y0000324530D03*
X0000013684Y0000327679D03*
X0000023131Y0000327679D03*
X0000015362Y0000314948D03*
X0000026330Y0000293040D03*
X0000026330Y0000289891D03*
X0000026330Y0000283593D03*
X0000026330Y0000286742D03*
X0000029680Y0000302530D03*
X0000026300Y0000310485D03*
X0000026260Y0000308350D03*
X0000026330Y0000305636D03*
X0000026330Y0000302487D03*
X0000029780Y0000299338D03*
X0000026330Y0000299338D03*
X0000026330Y0000324530D03*
X0000026330Y0000321381D03*
X0000026330Y0000314325D03*
X0000026330Y0000318232D03*
G54D17*
G01X0000145380Y0000185230D02*
X0000131650Y0000171500D01*
X0000097432Y0000171500D01*
X0000091339Y0000177593D01*
X-0000202820Y0000187030D03*
X-0000202820Y0000182730D03*
X-0000151220Y0000187030D03*
X-0000151320Y0000181730D03*
X-0000007022Y0000227376D03*
X-0000007022Y0000231376D03*
G54D26*
X0000034237Y0000363991D03*
X0000091323Y0000363991D03*
G54D18*
X-0000207320Y0000207030D03*
X-0000212320Y0000217030D03*
X-0000202320Y0000207030D03*
X-0000202320Y0000217030D03*
X-0000202320Y0000212030D03*
X-0000207320Y0000217030D03*
X-0000212320Y0000212030D03*
X-0000212320Y0000207030D03*
X-0000207320Y0000212030D03*
X-0000207320Y0000221630D03*
X-0000212320Y0000221630D03*
X-0000202320Y0000221630D03*
X-0000198720Y0000303030D03*
X-0000198720Y0000348030D03*
X-0000197320Y0000207030D03*
X-0000197320Y0000217030D03*
X-0000197320Y0000212030D03*
X-0000197320Y0000221030D03*
X-0000197392Y0000241500D03*
X-0000185000Y0000241500D03*
X-0000185542Y0000267000D03*
X-0000193960Y0000290270D03*
X-0000185720Y0000284030D03*
X-0000197551Y0000290030D03*
X-0000189486Y0000292130D03*
X-0000189261Y0000296162D03*
X-0000183220Y0000300280D03*
X-0000189220Y0000300280D03*
X-0000190220Y0000310800D03*
X-0000185200Y0000311020D03*
X-0000193960Y0000336000D03*
X-0000189000Y0000337500D03*
X-0000189261Y0000342412D03*
X-0000183220Y0000346530D03*
X-0000190220Y0000358030D03*
X-0000189220Y0000346530D03*
X-0000184500Y0000358000D03*
X-0000168970Y0000259530D03*
X-0000168970Y0000264101D03*
X-0000168970Y0000277816D03*
X-0000168970Y0000268673D03*
X-0000168970Y0000273244D03*
X-0000168970Y0000282387D03*
X-0000179500Y0000267500D03*
X-0000175500Y0000273454D03*
X-0000168970Y0000286959D03*
X-0000168970Y0000291530D03*
X-0000173220Y0000287000D03*
X-0000179720Y0000284030D03*
X-0000177720Y0000291510D03*
X-0000158220Y0000207030D03*
X-0000163220Y0000217030D03*
X-0000153220Y0000207030D03*
X-0000153220Y0000217030D03*
X-0000153220Y0000212030D03*
X-0000158220Y0000217030D03*
X-0000163220Y0000207030D03*
X-0000163220Y0000212030D03*
X-0000158220Y0000212030D03*
X-0000158220Y0000222030D03*
X-0000163220Y0000222030D03*
X-0000153220Y0000222030D03*
X-0000162570Y0000259530D03*
X-0000162570Y0000264101D03*
X-0000151970Y0000259530D03*
X-0000151970Y0000264101D03*
X-0000156470Y0000259530D03*
X-0000151970Y0000273244D03*
X-0000162570Y0000268673D03*
X-0000162570Y0000273244D03*
X-0000162570Y0000277816D03*
X-0000162570Y0000282387D03*
X-0000151970Y0000268673D03*
X-0000151970Y0000277816D03*
X-0000151970Y0000282387D03*
X-0000156470Y0000277816D03*
X-0000156470Y0000268673D03*
X-0000162570Y0000286959D03*
X-0000162570Y0000291530D03*
X-0000151970Y0000291530D03*
X-0000151970Y0000286959D03*
X-0000156470Y0000286959D03*
X-0000138720Y0000116030D03*
X-0000141470Y0000156780D03*
X-0000134720Y0000172530D03*
X-0000134720Y0000177530D03*
X-0000148220Y0000207030D03*
X-0000148220Y0000217030D03*
X-0000148220Y0000212030D03*
X-0000148220Y0000222030D03*
X-0000145570Y0000264101D03*
X-0000145570Y0000259530D03*
X-0000139470Y0000259530D03*
X-0000145570Y0000268673D03*
X-0000145570Y0000282387D03*
X-0000145570Y0000277816D03*
X-0000145570Y0000273244D03*
X-0000139470Y0000268673D03*
X-0000139470Y0000277816D03*
X-0000145570Y0000291530D03*
X-0000145570Y0000286959D03*
X-0000139470Y0000286959D03*
X-0000136720Y0000303280D03*
X-0000136720Y0000343730D03*
X-0000136500Y0000339500D03*
X-0000134700Y0000332530D03*
X-0000136720Y0000360530D03*
X-0000135720Y0000352530D03*
X-0000140220Y0000360530D03*
X-0000140220Y0000357030D03*
X-0000138500Y0000354500D03*
X-0000135720Y0000356030D03*
X-0000135000Y0000375000D03*
X-0000140000Y0000375000D03*
X-0000135000Y0000380000D03*
X-0000140000Y0000380000D03*
X-0000122500Y0000130000D03*
X-0000123720Y0000144530D03*
X-0000129220Y0000172530D03*
X-0000129220Y0000177530D03*
X-0000119220Y0000192530D03*
X-0000123220Y0000192530D03*
X-0000129120Y0000187530D03*
X-0000128890Y0000197110D03*
X-0000132720Y0000195030D03*
X-0000123600Y0000229400D03*
X-0000122663Y0000223530D03*
X-0000121720Y0000268530D03*
X-0000126720Y0000268530D03*
X-0000127720Y0000277530D03*
X-0000133720Y0000277530D03*
X-0000121000Y0000297000D03*
X-0000119500Y0000289500D03*
X-0000120720Y0000305030D03*
X-0000130500Y0000299000D03*
X-0000120547Y0000309030D03*
X-0000130250Y0000302500D03*
X-0000120740Y0000301185D03*
X-0000120547Y0000312903D03*
X-0000129984Y0000328651D03*
X-0000133921Y0000328651D03*
X-0000124547Y0000328651D03*
X-0000124547Y0000320777D03*
X-0000120704Y0000324714D03*
X-0000124547Y0000324714D03*
X-0000120641Y0000328651D03*
X-0000120610Y0000316840D03*
X-0000124547Y0000316840D03*
X-0000120673Y0000320777D03*
X-0000130000Y0000324500D03*
X-0000124547Y0000332588D03*
X-0000129700Y0000343300D03*
X-0000125700Y0000343600D03*
X-0000120641Y0000332707D03*
X-0000120220Y0000347030D03*
X-0000120220Y0000355030D03*
X-0000120220Y0000351030D03*
X-0000123000Y0000361200D03*
X-0000128000Y0000361200D03*
X-0000132800Y0000361200D03*
X-0000112520Y0000134030D03*
X-0000106020Y0000136880D03*
X-0000114207Y0000144572D03*
X-0000105220Y0000167530D03*
X-0000110620Y0000167530D03*
X-0000114557Y0000167530D03*
X-0000107257Y0000171230D03*
X-0000118220Y0000172530D03*
X-0000118220Y0000177530D03*
X-0000114720Y0000172530D03*
X-0000114720Y0000177530D03*
X-0000114720Y0000182030D03*
X-0000110783Y0000182030D03*
X-0000107257Y0000175167D03*
X-0000116720Y0000223530D03*
X-0000117720Y0000254030D03*
X-0000116177Y0000286323D03*
X-0000107220Y0000313030D03*
X-0000107220Y0000319230D03*
X-0000107220Y0000326730D03*
X-0000109120Y0000343730D03*
X-0000117220Y0000340500D03*
X-0000113220Y0000343730D03*
X-0000107220Y0000334230D03*
X-0000104720Y0000343730D03*
X-0000107220Y0000359030D03*
X-0000107220Y0000355530D03*
X-0000115370Y0000355030D03*
X-0000115370Y0000347030D03*
X-0000115370Y0000351030D03*
X-0000111220Y0000359030D03*
X-0000098520Y0000136880D03*
X-0000102020Y0000136880D03*
X-0000089220Y0000135030D03*
X-0000096470Y0000151280D03*
X-0000090220Y0000167530D03*
X-0000095220Y0000167530D03*
X-0000095220Y0000162530D03*
X-0000100220Y0000167530D03*
X-0000102320Y0000171230D03*
X-0000090220Y0000172530D03*
X-0000102300Y0000175200D03*
X-0000092720Y0000281530D03*
X-0000087720Y0000285030D03*
X-0000087220Y0000313230D03*
X-0000101220Y0000313230D03*
X-0000094220Y0000313230D03*
X-0000087220Y0000326730D03*
X-0000087220Y0000319230D03*
X-0000094220Y0000319230D03*
X-0000101220Y0000319230D03*
X-0000094220Y0000326730D03*
X-0000101220Y0000326730D03*
X-0000101220Y0000334230D03*
X-0000087220Y0000334230D03*
X-0000094220Y0000334230D03*
X-0000088691Y0000343730D03*
X-0000095720Y0000343730D03*
X-0000095120Y0000349580D03*
X-0000089620Y0000353080D03*
X-0000095120Y0000353080D03*
X-0000089620Y0000349580D03*
X-0000088220Y0000357030D03*
X-0000093220Y0000357030D03*
X-0000090000Y0000377500D03*
X-0000092500Y0000380000D03*
X-0000087500Y0000380000D03*
X-0000090000Y0000382500D03*
X-0000095000Y0000382500D03*
X-0000076220Y0000116030D03*
X-0000080220Y0000175030D03*
X-0000080550Y0000280350D03*
X-0000073820Y0000350030D03*
X-0000077720Y0000350030D03*
X-0000083800Y0000353100D03*
X-0000076519Y0000363800D03*
X-0000058820Y0000147430D03*
X-0000058820Y0000157230D03*
X-0000067220Y0000312980D03*
X-0000069720Y0000339530D03*
X-0000055720Y0000340030D03*
X-0000055720Y0000345030D03*
X-0000065220Y0000359030D03*
X-0000069220Y0000359030D03*
X-0000064550Y0000352860D03*
X-0000055720Y0000350030D03*
X-0000058700Y0000359000D03*
X-0000064720Y0000347341D03*
X-0000052720Y0000160030D03*
X-0000049863Y0000296679D03*
X-0000041863Y0000296679D03*
X-0000045863Y0000296679D03*
X-0000045863Y0000289179D03*
X-0000048863Y0000312980D03*
X-0000052363Y0000312980D03*
X-0000045720Y0000312980D03*
X-0000049863Y0000300679D03*
X-0000041863Y0000304679D03*
X-0000041863Y0000300679D03*
X-0000045863Y0000304679D03*
X-0000049863Y0000304679D03*
X-0000045863Y0000300679D03*
X-0000049220Y0000324630D03*
X-0000045720Y0000340030D03*
X-0000045720Y0000345030D03*
X-0000050720Y0000345030D03*
X-0000050720Y0000340030D03*
X-0000048200Y0000359100D03*
X-0000050720Y0000350030D03*
X-0000045720Y0000350030D03*
X-0000043720Y0000377530D03*
X-0000041200Y0000366180D03*
X-0000047720Y0000377530D03*
X-0000045720Y0000393030D03*
X-0000039720Y0000387530D03*
X-0000025220Y0000154130D03*
X-0000034720Y0000297726D03*
X-0000034720Y0000313030D03*
X-0000034720Y0000320730D03*
X-0000034720Y0000327530D03*
X-0000034720Y0000332730D03*
X-0000034720Y0000337530D03*
X-0000025220Y0000342530D03*
X-0000024720Y0000367030D03*
X-0000029600Y0000367200D03*
X-0000035205Y0000387545D03*
X-0000024720Y0000387530D03*
X-0000008720Y0000152030D03*
X-0000008720Y0000156030D03*
X-0000011125Y0000263125D03*
X-0000020220Y0000327530D03*
X-0000014340Y0000370000D03*
X-0000008220Y0000370030D03*
X-0000018220Y0000367030D03*
X-0000014720Y0000387530D03*
X-0000000220Y0000148030D03*
X0000000843Y0000170030D03*
X-0000003094Y0000170030D03*
X-0000007031Y0000170030D03*
X-0000003094Y0000166093D03*
X0000000843Y0000166093D03*
X-0000007031Y0000166030D03*
X-0000000270Y0000157130D03*
X-0000000220Y0000161030D03*
X-0000007031Y0000173967D03*
X0000004780Y0000191530D03*
X0000007820Y0000211870D03*
X-0000007220Y0000223530D03*
X-0000007220Y0000263030D03*
X-0000007220Y0000259030D03*
X0000003091Y0000259504D03*
X-0000002720Y0000342286D03*
X0000003780Y0000367530D03*
X-0000001220Y0000387530D03*
X-0000005720Y0000387530D03*
X0000003280Y0000387530D03*
X0000013280Y0000148030D03*
X0000017280Y0000148030D03*
X0000012280Y0000155030D03*
X0000023780Y0000169030D03*
X0000012780Y0000160030D03*
X0000008780Y0000160030D03*
X0000010900Y0000167700D03*
X0000009100Y0000170100D03*
X0000009200Y0000164600D03*
X0000012900Y0000170100D03*
X0000021800Y0000165100D03*
X0000017680Y0000169230D03*
X0000017800Y0000165300D03*
X0000012500Y0000164700D03*
X0000023780Y0000173030D03*
X0000018031Y0000191780D03*
X0000022280Y0000202030D03*
X0000008918Y0000191798D03*
X0000012280Y0000202030D03*
X0000017280Y0000202030D03*
X0000009780Y0000331180D03*
X0000021780Y0000331180D03*
X0000011780Y0000367030D03*
X0000017030Y0000385030D03*
X0000009530Y0000387530D03*
X0000034500Y0000150000D03*
X0000024780Y0000154530D03*
X0000028780Y0000154953D03*
X0000028280Y0000169030D03*
X0000034500Y0000157530D03*
X0000025680Y0000165230D03*
X0000028280Y0000173030D03*
X0000028280Y0000181030D03*
X0000028280Y0000177030D03*
X0000036280Y0000197030D03*
X0000032361Y0000197030D03*
X0000035780Y0000192030D03*
X0000034280Y0000331185D03*
X0000027030Y0000358400D03*
X0000054000Y0000150500D03*
X0000055800Y0000147200D03*
X0000048374Y0000147000D03*
X0000044437Y0000147000D03*
X0000040500Y0000147000D03*
X0000048874Y0000141500D03*
X0000044937Y0000141500D03*
X0000041000Y0000141500D03*
X0000044680Y0000170030D03*
X0000044680Y0000165030D03*
X0000049680Y0000170030D03*
X0000055600Y0000168400D03*
X0000044680Y0000175030D03*
X0000045880Y0000187130D03*
X0000044680Y0000180030D03*
X0000041680Y0000197030D03*
X0000041780Y0000192830D03*
X0000045780Y0000228530D03*
X0000055280Y0000228530D03*
X0000051100Y0000221700D03*
X0000048500Y0000225359D03*
X0000051000Y0000228500D03*
X0000055611Y0000245630D03*
X0000055280Y0000236030D03*
X0000051830Y0000235980D03*
X0000048000Y0000236000D03*
X0000049000Y0000248530D03*
X0000055280Y0000266030D03*
X0000056049Y0000252000D03*
X0000051000Y0000252000D03*
X0000049000Y0000255530D03*
X0000049478Y0000283030D03*
X0000053280Y0000283030D03*
X0000045280Y0000311730D03*
X0000049780Y0000311730D03*
X0000055780Y0000326530D03*
X0000053000Y0000322500D03*
X0000049780Y0000336030D03*
X0000047032Y0000368530D03*
X0000052937Y0000368530D03*
X0000063528Y0000122030D03*
X0000071337Y0000163400D03*
X0000071100Y0000171000D03*
X0000071100Y0000167300D03*
X0000058700Y0000170900D03*
X0000059680Y0000183630D03*
X0000059680Y0000179530D03*
X0000056780Y0000187030D03*
X0000059680Y0000175030D03*
X0000072000Y0000187600D03*
X0000071800Y0000192000D03*
X0000067700Y0000192030D03*
X0000067717Y0000214030D03*
X0000071654Y0000214030D03*
X0000063802Y0000215055D03*
X0000059865Y0000215055D03*
X0000059843Y0000217967D03*
X0000063780Y0000217967D03*
X0000067717Y0000217967D03*
X0000071654Y0000217967D03*
X0000067717Y0000206530D03*
X0000071654Y0000206530D03*
X0000059843Y0000221904D03*
X0000063780Y0000221904D03*
X0000067717Y0000221904D03*
X0000071654Y0000221904D03*
X0000059780Y0000233030D03*
X0000059843Y0000226530D03*
X0000063780Y0000226530D03*
X0000063780Y0000233030D03*
X0000071717Y0000243530D03*
X0000067717Y0000243530D03*
X0000059780Y0000255660D03*
X0000067780Y0000297530D03*
X0000067780Y0000285530D03*
X0000067780Y0000291530D03*
X0000062780Y0000297530D03*
X0000057780Y0000297530D03*
X0000062780Y0000285530D03*
X0000062780Y0000291530D03*
X0000057780Y0000291530D03*
X0000058280Y0000285530D03*
X0000057800Y0000311600D03*
X0000061600Y0000311700D03*
X0000064780Y0000311730D03*
X0000069280Y0000311730D03*
X0000067780Y0000302030D03*
X0000062780Y0000302030D03*
X0000057780Y0000302030D03*
X0000065796Y0000322530D03*
X0000058843Y0000368530D03*
X0000064749Y0000368530D03*
X0000082600Y0000101500D03*
X0000077280Y0000122530D03*
X0000077280Y0000115030D03*
X0000085780Y0000119030D03*
X0000081100Y0000154600D03*
X0000075974Y0000163400D03*
X0000079811Y0000171000D03*
X0000079811Y0000167300D03*
X0000075874Y0000171000D03*
X0000075874Y0000167300D03*
X0000080900Y0000158500D03*
X0000080700Y0000162500D03*
X0000087402Y0000189530D03*
X0000083465Y0000189530D03*
X0000079528Y0000189530D03*
X0000079528Y0000194030D03*
X0000075591Y0000192030D03*
X0000075591Y0000197030D03*
X0000087402Y0000206530D03*
X0000083465Y0000206530D03*
X0000079528Y0000206530D03*
X0000075591Y0000206530D03*
X0000086780Y0000247030D03*
X0000083780Y0000275530D03*
X0000083780Y0000284030D03*
X0000083780Y0000298530D03*
X0000073280Y0000297530D03*
X0000073280Y0000285530D03*
X0000073280Y0000291530D03*
X0000083780Y0000311730D03*
X0000083780Y0000302530D03*
X0000083280Y0000306530D03*
X0000073780Y0000311730D03*
X0000073280Y0000302030D03*
X0000077607Y0000322530D03*
X0000078100Y0000375800D03*
X0000078281Y0000369030D03*
X0000083000Y0000369000D03*
X0000074780Y0000369030D03*
X0000097600Y0000101500D03*
X0000098016Y0000122030D03*
X0000098016Y0000116030D03*
X0000093000Y0000153280D03*
X0000093000Y0000165780D03*
X0000093000Y0000156900D03*
X0000101200Y0000158030D03*
X0000101000Y0000162200D03*
X0000093000Y0000160400D03*
X0000096900Y0000161900D03*
X0000091339Y0000177593D03*
X0000095276Y0000193467D03*
X0000095276Y0000189530D03*
X0000091339Y0000189530D03*
X0000095276Y0000202593D03*
X0000095276Y0000206530D03*
X0000091339Y0000206530D03*
X0000095780Y0000247530D03*
X0000088280Y0000275530D03*
X0000092280Y0000275530D03*
X0000095300Y0000297350D03*
X0000095280Y0000288530D03*
X0000095200Y0000304400D03*
X0000095200Y0000300800D03*
X0000095280Y0000311030D03*
X0000088780Y0000327530D03*
X0000094189Y0000342421D03*
X0000094080Y0000338530D03*
X0000094080Y0000334530D03*
X0000094080Y0000346530D03*
X0000098007Y0000361957D03*
X0000112600Y0000101500D03*
X0000110280Y0000119030D03*
X0000112616Y0000153280D03*
X0000115780Y0000159630D03*
X0000112616Y0000158030D03*
X0000112800Y0000162300D03*
X0000118430Y0000177130D03*
X0000111530Y0000177593D03*
X0000107280Y0000177593D03*
X0000118601Y0000183709D03*
X0000111434Y0000239784D03*
X0000117280Y0000237530D03*
X0000112434Y0000261984D03*
X0000117280Y0000267030D03*
X0000117280Y0000282030D03*
X0000117280Y0000277530D03*
X0000111780Y0000277530D03*
X0000111780Y0000273796D03*
X0000111686Y0000295936D03*
X0000104952Y0000289358D03*
X0000116957Y0000310707D03*
X0000119780Y0000306530D03*
X0000104952Y0000301358D03*
X0000104952Y0000311358D03*
X0000112127Y0000317877D03*
X0000104952Y0000322530D03*
X0000116280Y0000342530D03*
X0000107000Y0000335000D03*
X0000117780Y0000358530D03*
X0000127600Y0000101500D03*
X0000123016Y0000122294D03*
X0000123016Y0000116266D03*
X0000134780Y0000119030D03*
X0000128780Y0000177130D03*
X0000132780Y0000185630D03*
X0000132780Y0000189130D03*
X0000132280Y0000194030D03*
X0000132280Y0000197530D03*
X0000133280Y0000227530D03*
X0000122280Y0000237530D03*
X0000126780Y0000237530D03*
X0000132280Y0000267030D03*
X0000128280Y0000267030D03*
X0000122280Y0000267030D03*
X0000126780Y0000278030D03*
X0000122280Y0000278030D03*
X0000122280Y0000282030D03*
X0000126780Y0000282030D03*
X0000125280Y0000306530D03*
X0000127280Y0000321500D03*
X0000122280Y0000321500D03*
X0000125627Y0000317877D03*
X0000130600Y0000335300D03*
X0000132479Y0000344367D03*
X0000126300Y0000335200D03*
X0000133900Y0000332700D03*
X0000126200Y0000339817D03*
X0000126200Y0000343800D03*
X0000121780Y0000358530D03*
X0000132000Y0000366313D03*
X0000142600Y0000101500D03*
X0000142268Y0000122018D03*
X0000142268Y0000116030D03*
X0000150280Y0000119030D03*
X0000147280Y0000127530D03*
X0000147280Y0000132530D03*
X0000145380Y0000185230D03*
X0000145380Y0000189130D03*
X0000142280Y0000208530D03*
X0000142280Y0000215630D03*
X0000142280Y0000220530D03*
X0000140780Y0000238030D03*
X0000138934Y0000261984D03*
X0000139186Y0000295936D03*
X0000143592Y0000309030D03*
X0000143592Y0000305030D03*
X0000143593Y0000321905D03*
X0000139433Y0000317877D03*
X0000143592Y0000316030D03*
X0000136416Y0000344367D03*
X0000138500Y0000359000D03*
X0000138500Y0000363500D03*
X0000157280Y0000127530D03*
X0000152280Y0000127530D03*
X0000157280Y0000132530D03*
X0000152280Y0000132530D03*
X0000164780Y0000244030D03*
X0000164000Y0000262500D03*
X0000166435Y0000281530D03*
X0000164780Y0000271030D03*
X0000166435Y0000286030D03*
X0000155280Y0000309530D03*
X0000160280Y0000321030D03*
X0000160426Y0000315540D03*
X0000166280Y0000359530D03*
X0000166780Y0000386530D03*
X0000167137Y0000378363D03*
X0000162500Y0000378500D03*
X0000169500Y0000192500D03*
X0000171333Y0000262500D03*
X0000175000Y0000262500D03*
X0000167667Y0000262500D03*
X0000178500Y0000253000D03*
X0000182678Y0000253000D03*
X0000176780Y0000281530D03*
X0000171435Y0000281530D03*
X0000181454Y0000281530D03*
X0000176780Y0000291030D03*
X0000171435Y0000286030D03*
X0000176780Y0000286030D03*
X0000177280Y0000337530D03*
X0000169780Y0000337619D03*
X0000173780Y0000337619D03*
X0000173780Y0000342619D03*
X0000169780Y0000342619D03*
X0000177280Y0000346530D03*
X0000169780Y0000346619D03*
X0000173780Y0000346619D03*
X0000178423Y0000369000D03*
X0000182280Y0000369000D03*
X0000170709Y0000369180D03*
X0000174566Y0000369066D03*
X0000186780Y0000244030D03*
X0000190000Y0000253000D03*
X0000186339Y0000253000D03*
X0000191454Y0000281530D03*
X0000186454Y0000281530D03*
X0000186780Y0000270030D03*
X0000186454Y0000291030D03*
X0000191454Y0000291030D03*
X0000191454Y0000297619D03*
X0000186454Y0000297619D03*
X0000191454Y0000286030D03*
X0000186454Y0000327619D03*
X0000191454Y0000327619D03*
X0000188454Y0000337619D03*
X0000191454Y0000342619D03*
X0000191454Y0000337619D03*
X0000191454Y0000332619D03*
X0000186454Y0000332619D03*
X0000188454Y0000346619D03*
X0000191454Y0000346619D03*
X0000186780Y0000359530D03*
X0000186780Y0000386530D03*
X0000185500Y0000378500D03*
X0000189000Y0000378500D03*
G54D27*
X0000034237Y0000387495D03*
X0000091323Y0000387495D03*
G54D28*
X0000162371Y0000165030D03*
X0000186780Y0000165030D03*
G54D19*
X-0000186720Y0000329530D03*
X-0000186720Y0000319530D03*
X0000146280Y0000247030D03*
X0000146280Y0000257030D03*
X0000146280Y0000267030D03*
X0000146280Y0000277030D03*
X0000146280Y0000287030D03*
X0000146280Y0000297030D03*
X0000146280Y0000337030D03*
X0000146280Y0000347030D03*
X0000146280Y0000357030D03*
X0000146280Y0000367030D03*
X0000146280Y0000377030D03*
X0000146280Y0000387030D03*
X0000156280Y0000247030D03*
X0000156280Y0000257030D03*
X0000156280Y0000267030D03*
X0000156280Y0000277030D03*
X0000156280Y0000287030D03*
X0000156280Y0000297030D03*
X0000156280Y0000337030D03*
X0000156280Y0000347030D03*
X0000156280Y0000357030D03*
X0000156280Y0000367030D03*
X0000156280Y0000377030D03*
X0000156280Y0000387030D03*
G54D29*
X0000163280Y0000200030D03*
X0000163280Y0000210030D03*
X0000163280Y0000220030D03*
X0000187280Y0000220030D03*
X0000187280Y0000210030D03*
M02*
