G04 ================== begin FILE IDENTIFICATION RECORD ==================*
G04 Layout Name:  C:/Users/lzf/Desktop/ALTERA/0320/max10_dk_c/max10_dk_c.brd*
G04 Film Name:    GND06*
G04 File Format:  Gerber RS274X*
G04 File Origin:  Cadence Allegro 16.6-S023*
G04 Origin Date:  Fri Mar 20 16:34:19 2015*
G04 *
G04 Layer:  ETCH/GND06*
G04 Layer:  PIN/GND06*
G04 Layer:  VIA CLASS/GND06*
G04 *
G04 Offset:    (0.00 0.00)*
G04 Mirror:    No*
G04 Mode:      Positive*
G04 Rotation:  0*
G04 FullContactRelief:  No*
G04 UndefLineWidth:     6.00*
G04 ================== end FILE IDENTIFICATION RECORD ====================*
%FSAX55Y55*MOIN*%
%IR0*IPPOS*OFA0.00000B0.00000*MIA0B0*SFA1.00000B1.00000*%
%ADD26O,.06X.13*%
%ADD27O,.06X.108*%
%ADD22O,.064X.103*%
%ADD17C,.02*%
%ADD23C,.04*%
%ADD18C,.022*%
%ADD25C,.015*%
%ADD19C,.06*%
%ADD24C,.025*%
%ADD20C,.052*%
%ADD14C,.016*%
%ADD28O,.055X.168*%
%ADD30O,.168X.055*%
%ADD13C,.083*%
%ADD10C,.093*%
%ADD29C,.049*%
%ADD16C,.05118*%
%ADD31R,.049X.049*%
%ADD21C,.05906*%
%ADD11C,.15*%
%ADD12C,.11811*%
%ADD15C,.12795*%
%ADD43O,.07002X.14002*%
%ADD44O,.07002X.11802*%
%ADD39C,.03004*%
%ADD40C,.05004*%
%ADD32C,.03204*%
%ADD42C,.06122*%
%ADD38C,.02504*%
%ADD35C,.07004*%
%ADD49C,.06204*%
%ADD37C,.02604*%
%ADD45O,.06502X.17802*%
%ADD50C,.0691*%
%ADD41C,.09304*%
%ADD33C,.05904*%
%ADD47O,.06504X.17804*%
%ADD46O,.17804X.06504*%
%ADD48C,.10304*%
%ADD36C,.16004*%
%ADD34R,.05904X.05904*%
G75*
%LPD*%
G75*
G36*
G01X-0000205218Y0000132942D02*
G02X-0000204567Y0000133253I0000000400J0D01*
G03X-0000204567Y0000138015I0000001923J0000002381D01*
G02X-0000205218Y0000138326I-0000000251J0000000311D01*
G01X-0000205218Y0000140934D01*
G02X-0000204567Y0000141245I0000000400J0D01*
G03X-0000204567Y0000146007I0000001923J0000002381D01*
G02X-0000205218Y0000146318I-0000000251J0000000311D01*
G01X-0000205218Y0000148926D01*
G02X-0000204567Y0000149237I0000000400J0D01*
G03X-0000202317Y0000154661I0000001923J0000002381D01*
G02X-0000202484Y0000155400I0000000042J0000000398D01*
G03X-0000212264Y0000167656I-0000004135J0000006731D01*
G01X-0000231656Y0000167656D01*
X-0000231700Y0000167700D01*
X-0000232900Y0000167700D01*
X-0000233216Y0000168016D01*
X-0000233216Y0000241814D01*
X-0000232500Y0000242530D01*
X-0000199292Y0000242530D01*
G02X-0000198913Y0000242004I0J-0000000400D01*
G03X-0000195871Y0000242004I0000001521J-0000000504D01*
G02X-0000195492Y0000242530I0000000379J0000000126D01*
G01X-0000186900Y0000242530D01*
G02X-0000186521Y0000242004I0J-0000000400D01*
G03X-0000183479Y0000242004I0000001521J-0000000504D01*
G02X-0000183100Y0000242530I0000000379J0000000126D01*
G01X-0000132291Y0000242530D01*
X-0000119291Y0000229530D01*
X-0000107149Y0000229530D01*
X-0000107140Y0000229540D01*
X-0000105646Y0000229540D01*
X-0000104135Y0000228028D01*
X-0000085305Y0000228028D01*
X-0000083718Y0000229615D01*
X-0000083718Y0000231115D01*
X-0000082805Y0000232028D01*
X-0000080428Y0000232028D01*
G02X-0000080029Y0000231634I-0000000001J-0000000400D01*
G03X-0000077425Y0000231634I0000001302J0000000017D01*
G02X-0000077026Y0000232028I0000000400J-0000000006D01*
G01X-0000071718Y0000232028D01*
X-0000071718Y0000233951D01*
G02X-0000071209Y0000234336I0000000400J0D01*
G03X-0000071647Y0000236620I0000000356J0000001252D01*
G01X-0000071786Y0000236513D01*
X-0000073305Y0000238032D01*
X-0000073486Y0000238032D01*
G02X-0000073792Y0000238688I0000000001J0000000400D01*
G03X-0000075788Y0000238688I-0000000998J0000000837D01*
G02X-0000076094Y0000238032I-0000000307J-0000000256D01*
G01X-0000076805Y0000238032D01*
X-0000077612Y0000238838D01*
X-0000077551Y0000238966D01*
G03X-0000079286Y0000240701I-0000001176J0000000559D01*
G01X-0000079414Y0000240640D01*
X-0000081805Y0000243032D01*
X-0000085805Y0000243032D01*
X-0000087218Y0000244445D01*
X-0000087218Y0000252945D01*
X-0000089305Y0000255032D01*
X-0000102805Y0000255032D01*
X-0000103218Y0000255445D01*
X-0000103218Y0000257575D01*
G02X-0000102708Y0000257959I0000000400J-0000000001D01*
G03X-0000103647Y0000259308I0000000359J0000001251D01*
G02X-0000104329Y0000259055I-0000000399J0000000030D01*
G01X-0000106441Y0000261167D01*
G02X-0000106188Y0000261849I0000000283J0000000283D01*
G03X-0000107077Y0000264181I-0000000098J0000001298D01*
G02X-0000107720Y0000264499I-0000000243J0000000318D01*
G01X-0000107720Y0000268101D01*
X-0000109220Y0000269601D01*
X-0000109220Y0000277101D01*
X-0000116177Y0000284058D01*
G02X-0000115951Y0000284737I0000000283J0000000283D01*
G03X-0000117763Y0000286549I-0000000226J0000001586D01*
G02X-0000118442Y0000286323I-0000000396J0000000057D01*
G01X-0000119376Y0000287257D01*
G02X-0000119174Y0000287931I0000000283J0000000282D01*
G03X-0000121069Y0000289826I-0000000326J0000001569D01*
G02X-0000121743Y0000289624I-0000000392J0000000081D01*
G01X-0000124649Y0000292530D01*
X-0000128649Y0000292530D01*
X-0000137117Y0000300998D01*
G02X-0000136812Y0000301681I0000000282J0000000284D01*
G03X-0000138319Y0000303188I0000000092J0000001599D01*
G02X-0000139002Y0000302883I-0000000399J-0000000023D01*
G01X-0000141220Y0000305101D01*
X-0000141220Y0000362950D01*
X-0000140640Y0000363530D01*
X-0000122892Y0000363530D01*
X-0000120250Y0000366172D01*
X-0000120110Y0000366056D01*
G03X-0000119641Y0000370223I0000001591J0000001931D01*
G02X-0000120220Y0000370581I-0000000179J0000000358D01*
G01X-0000120220Y0000371702D01*
X-0000118527Y0000373395D01*
G02X-0000117848Y0000373057I0000000283J-0000000283D01*
G03X-0000113493Y0000374366I0000002478J-0000000346D01*
G02X-0000113193Y0000375030I0000000300J0000000264D01*
G01X-0000111247Y0000375030D01*
G02X-0000110947Y0000374366I0J-0000000400D01*
G03X-0000107193Y0000374366I0000001877J-0000001655D01*
G02X-0000106893Y0000375030I0000000300J0000000264D01*
G01X-0000106048Y0000375030D01*
X-0000104220Y0000373202D01*
X-0000104220Y0000370581D01*
G02X-0000104799Y0000370223I-0000000400J0D01*
G03X-0000104532Y0000365906I-0000001122J-0000002236D01*
G01X-0000104482Y0000365940D01*
X-0000104220Y0000365940D01*
X-0000104220Y0000365702D01*
X-0000101548Y0000363030D01*
X-0000081892Y0000363030D01*
X-0000078778Y0000366144D01*
G02X-0000078222Y0000366154I0000000283J-0000000282D01*
G03X-0000078072Y0000369949I0000001703J0000001833D01*
G02X-0000078720Y0000370262I-0000000248J0000000314D01*
G01X-0000078720Y0000372702D01*
X-0000075892Y0000375530D01*
X-0000074973Y0000375530D01*
G02X-0000074752Y0000374797I0J-0000000400D01*
G03X-0000071988Y0000374797I0000001382J-0000002086D01*
G02X-0000071767Y0000375530I0000000221J0000000333D01*
G01X-0000068673Y0000375530D01*
G02X-0000068452Y0000374797I0J-0000000400D01*
G03X-0000065688Y0000374797I0000001382J-0000002086D01*
G02X-0000065467Y0000375530I0000000221J0000000333D01*
G01X-0000063548Y0000375530D01*
X-0000062220Y0000374202D01*
X-0000062220Y0000370581D01*
G02X-0000062799Y0000370223I-0000000400J0D01*
G03X-0000062218Y0000366154I-0000001122J-0000002236D01*
G02X-0000061662Y0000366144I0000000273J-0000000292D01*
G01X-0000059048Y0000363530D01*
X-0000051392Y0000363530D01*
X-0000048720Y0000366202D01*
X-0000048720Y0000375621D01*
G02X-0000048200Y0000376002I0000000400J-0000000001D01*
G03X-0000048200Y0000379058I0000000480J0000001528D01*
G02X-0000048720Y0000379439I-0000000120J0000000382D01*
G01X-0000048720Y0000394986D01*
X-0000048180Y0000395526D01*
X0000192490Y0000395526D01*
X0000192776Y0000395240D01*
X0000192776Y0000100140D01*
X0000192170Y0000099534D01*
X-0000232300Y0000099534D01*
X-0000233216Y0000100450D01*
X-0000233216Y0000115200D01*
X-0000232888Y0000115528D01*
X-0000214355Y0000115528D01*
G03X-0000202484Y0000123860I0000007735J0000001602D01*
G02X-0000202317Y0000124599I0000000209J0000000341D01*
G03X-0000204567Y0000130023I-0000000327J0000003043D01*
G02X-0000205218Y0000130334I-0000000251J0000000311D01*
G01X-0000205218Y0000132942D01*
G37*
G36*
G01X-0000103306Y0000230030D02*
X-0000104610Y0000231335D01*
X-0000104610Y0000232070D01*
X-0000104220Y0000232459D01*
X-0000104220Y0000236601D01*
X-0000107149Y0000239530D01*
X-0000115149Y0000239530D01*
X-0000128149Y0000252530D01*
X-0000232260Y0000252530D01*
X-0000233216Y0000253486D01*
X-0000233216Y0000394950D01*
X-0000232640Y0000395526D01*
X-0000152066Y0000395526D01*
X-0000151220Y0000394680D01*
X-0000151220Y0000391321D01*
G02X-0000151942Y0000391084I-0000000400J0D01*
G03X-0000151942Y0000386976I-0000002778J-0000002054D01*
G02X-0000151220Y0000386739I0000000322J-0000000237D01*
G01X-0000151220Y0000381321D01*
G02X-0000151942Y0000381084I-0000000400J0D01*
G03X-0000151942Y0000376976I-0000002778J-0000002054D01*
G02X-0000151220Y0000376739I0000000322J-0000000237D01*
G01X-0000151220Y0000371321D01*
G02X-0000151942Y0000371084I-0000000400J0D01*
G03X-0000151942Y0000366976I-0000002778J-0000002054D01*
G02X-0000151220Y0000366739I0000000322J-0000000237D01*
G01X-0000151220Y0000361321D01*
G02X-0000151942Y0000361084I-0000000400J0D01*
G03X-0000151942Y0000356976I-0000002778J-0000002054D01*
G02X-0000151220Y0000356739I0000000322J-0000000237D01*
G01X-0000151220Y0000351321D01*
G02X-0000151942Y0000351084I-0000000400J0D01*
G03X-0000151942Y0000346976I-0000002778J-0000002054D01*
G02X-0000151220Y0000346739I0000000322J-0000000237D01*
G01X-0000151220Y0000341321D01*
G02X-0000151942Y0000341084I-0000000400J0D01*
G03X-0000151942Y0000336976I-0000002778J-0000002054D01*
G02X-0000151220Y0000336739I0000000322J-0000000237D01*
G01X-0000151220Y0000331321D01*
G02X-0000151942Y0000331084I-0000000400J0D01*
G03X-0000151942Y0000326976I-0000002778J-0000002054D01*
G02X-0000151220Y0000326739I0000000322J-0000000237D01*
G01X-0000151220Y0000321321D01*
G02X-0000151942Y0000321084I-0000000400J0D01*
G03X-0000151942Y0000316976I-0000002778J-0000002054D01*
G02X-0000151220Y0000316739I0000000322J-0000000237D01*
G01X-0000151220Y0000311321D01*
G02X-0000151942Y0000311084I-0000000400J0D01*
G03X-0000151942Y0000306976I-0000002778J-0000002054D01*
G02X-0000151220Y0000306739I0000000322J-0000000237D01*
G01X-0000151220Y0000300959D01*
X-0000132791Y0000282530D01*
X-0000128791Y0000282530D01*
X-0000119220Y0000272959D01*
X-0000119220Y0000265459D01*
X-0000114791Y0000261030D01*
X-0000109135Y0000261030D01*
X-0000105220Y0000257116D01*
X-0000105220Y0000254616D01*
X-0000103634Y0000253030D01*
X-0000099518Y0000253030D01*
G02X-0000099258Y0000252326I0J-0000000400D01*
G03X-0000097566Y0000252326I0000000846J-0000000990D01*
G02X-0000097306Y0000253030I0000000260J0000000304D01*
G01X-0000095581Y0000253030D01*
G02X-0000095321Y0000252326I0J-0000000400D01*
G03X-0000093629Y0000252326I0000000846J-0000000990D01*
G02X-0000093369Y0000253030I0000000260J0000000304D01*
G01X-0000090134Y0000253030D01*
X-0000089220Y0000252116D01*
X-0000089220Y0000248832D01*
G02X-0000089836Y0000248495I-0000000400J0D01*
G03X-0000089836Y0000246303I-0000000702J-0000001096D01*
G02X-0000089220Y0000245966I0000000216J-0000000337D01*
G01X-0000089220Y0000244895D01*
G02X-0000089836Y0000244558I-0000000400J0D01*
G03X-0000089338Y0000242956I-0000000702J-0000001097D01*
G02X-0000088687Y0000243083I0000000368J-0000000156D01*
G01X-0000086634Y0000241030D01*
X-0000082634Y0000241030D01*
X-0000079061Y0000237457D01*
G02X-0000079199Y0000236801I-0000000283J-0000000283D01*
G03X-0000079681Y0000234702I0000000472J-0000001213D01*
G02X-0000079974Y0000234030I-0000000293J-0000000272D01*
G01X-0000081417Y0000234030D01*
G02X-0000081710Y0000234702I0J0000000400D01*
G03X-0000083220Y0000234411I-0000000954J0000000886D01*
G01X-0000083106Y0000234357D01*
X-0000083106Y0000234030D01*
X-0000083634Y0000234030D01*
X-0000085104Y0000232560D01*
G02X-0000085672Y0000232563I-0000000283J0000000283D01*
G03X-0000087508Y0000230717I-0000000929J-0000000912D01*
G02X-0000087787Y0000230030I-0000000279J-0000000287D01*
G01X-0000089352Y0000230030D01*
G02X-0000089631Y0000230717I0J0000000400D01*
G03X-0000091445Y0000230717I-0000000907J0000000934D01*
G02X-0000091724Y0000230030I-0000000279J-0000000287D01*
G01X-0000093289Y0000230030D01*
G02X-0000093568Y0000230717I0J0000000400D01*
G03X-0000095382Y0000230717I-0000000907J0000000934D01*
G02X-0000095661Y0000230030I-0000000279J-0000000287D01*
G01X-0000103306Y0000230030D01*
G37*
G36*
G01X-0000094357Y0000367030D02*
G02X-0000094698Y0000367640I0J0000000400D01*
G03X-0000094148Y0000369580I-0000003152J0000001941D01*
G01X-0000094148Y0000373480D01*
G03X-0000100653Y0000375898I-0000003702J0D01*
G02X-0000101238Y0000375876I-0000000303J0000000261D01*
G01X-0000104392Y0000379030D01*
X-0000118548Y0000379030D01*
X-0000122608Y0000374970D01*
G02X-0000123252Y0000375080I-0000000283J0000000282D01*
G03X-0000130292Y0000373480I-0000003338J-0000001600D01*
G01X-0000130292Y0000369580D01*
G03X-0000129979Y0000368091I0000003702J0000000001D01*
G02X-0000130345Y0000367530I-0000000366J-0000000161D01*
G01X-0000140320Y0000367530D01*
X-0000141220Y0000368430D01*
X-0000141220Y0000394866D01*
X-0000140560Y0000395526D01*
X-0000128972Y0000395526D01*
G02X-0000128740Y0000394800I0J-0000000400D01*
G03X-0000130292Y0000391787I0000002149J-0000003013D01*
G01X-0000130292Y0000387887D01*
G03X-0000122888Y0000387887I0000003702J0D01*
G01X-0000122888Y0000391787D01*
G03X-0000124440Y0000394800I-0000003701J0D01*
G02X-0000124208Y0000395526I0000000232J0000000326D01*
G01X-0000100232Y0000395526D01*
G02X-0000100000Y0000394800I0J-0000000400D01*
G03X-0000101552Y0000391787I0000002149J-0000003013D01*
G01X-0000101552Y0000387887D01*
G03X-0000094148Y0000387887I0000003702J0D01*
G01X-0000094148Y0000391787D01*
G03X-0000095700Y0000394800I-0000003701J0D01*
G02X-0000095468Y0000395526I0000000232J0000000326D01*
G01X-0000086972Y0000395526D01*
G02X-0000086740Y0000394800I0J-0000000400D01*
G03X-0000088292Y0000391787I0000002149J-0000003013D01*
G01X-0000088292Y0000387887D01*
G03X-0000080888Y0000387887I0000003702J0D01*
G01X-0000080888Y0000391787D01*
G03X-0000082440Y0000394800I-0000003701J0D01*
G02X-0000082208Y0000395526I0000000232J0000000326D01*
G01X-0000058232Y0000395526D01*
G02X-0000058000Y0000394800I0J-0000000400D01*
G03X-0000059552Y0000391787I0000002149J-0000003013D01*
G01X-0000059552Y0000387887D01*
G03X-0000053386Y0000385125I0000003702J0D01*
G02X-0000052720Y0000384826I0000000266J-0000000299D01*
G01X-0000052720Y0000376541D01*
G02X-0000053386Y0000376242I-0000000400J0D01*
G03X-0000058326Y0000376232I-0000002464J-0000002762D01*
G01X-0000058467Y0000376105D01*
X-0000061892Y0000379530D01*
X-0000077548Y0000379530D01*
X-0000081202Y0000375876D01*
G02X-0000081787Y0000375898I-0000000282J0000000283D01*
G03X-0000088292Y0000373480I-0000002803J-0000002418D01*
G01X-0000088292Y0000369580D01*
G03X-0000087742Y0000367640I0000003702J0000000001D01*
G02X-0000088083Y0000367030I-0000000341J-0000000210D01*
G01X-0000094357Y0000367030D01*
G37*
%LPC*%
G75*
G36*
G01X-0000054823Y0000112789D02*
G02X-0000054871Y0000114808I-0000000846J0000000990D01*
G03X-0000054366Y0000114820I0000000245J0000000316D01*
G02X-0000053056Y0000115046I0000000845J-0000000990D01*
G03X-0000052514Y0000115402I0000000142J0000000374D01*
G02X-0000050372Y0000116335I0000001301J-0000000061D01*
G03X-0000049854Y0000116335I0000000259J0000000305D01*
G02X-0000049854Y0000114347I0000000841J-0000000994D01*
G03X-0000050372Y0000114347I-0000000259J-0000000305D01*
G02X-0000051677Y0000114125I-0000000841J0000000994D01*
G03X-0000052219Y0000113769I-0000000142J-0000000374D01*
G02X-0000054318Y0000112801I-0000001301J0000000061D01*
G03X-0000054823Y0000112789I-0000000245J-0000000316D01*
G37*
G36*
G01X0000024521Y0000113636D02*
G02X0000024521Y0000115624I-0000000841J0000000994D01*
G03X0000025039Y0000115624I0000000259J0000000305D01*
G02X0000026941Y0000115384I0000000841J-0000000994D01*
G03X0000027610Y0000115410I0000000326J0000000232D01*
G02X0000029568Y0000115735I0000001117J-0000000669D01*
G03X0000030086Y0000115735I0000000259J0000000305D01*
G02X0000030086Y0000113747I0000000841J-0000000994D01*
G03X0000029568Y0000113747I-0000000259J-0000000305D01*
G02X0000027666Y0000113987I-0000000841J0000000994D01*
G03X0000026997Y0000113961I-0000000326J-0000000232D01*
G02X0000025039Y0000113636I-0000001117J0000000669D01*
G03X0000024521Y0000113636I-0000000259J-0000000305D01*
G37*
G36*
G01X0000041379Y0000113694D02*
G02X0000041379Y0000115682I-0000000841J0000000994D01*
G03X0000041897Y0000115682I0000000259J0000000305D01*
G02X0000043182Y0000115912I0000000841J-0000000994D01*
G03X0000043708Y0000116374I0000000136J0000000376D01*
G02X0000045821Y0000117648I0000001272J0000000280D01*
G03X0000046339Y0000117648I0000000259J0000000305D01*
G02X0000046339Y0000115660I0000000841J-0000000994D01*
G03X0000045821Y0000115660I-0000000259J-0000000305D01*
G02X0000044536Y0000115430I-0000000841J0000000994D01*
G03X0000044010Y0000114968I-0000000136J-0000000376D01*
G02X0000041897Y0000113694I-0000001272J-0000000280D01*
G03X0000041379Y0000113694I-0000000259J-0000000305D01*
G37*
G36*
G01X0000010967Y0000113736D02*
G02X0000009044Y0000114006I-0000000841J0000000994D01*
G03X0000008381Y0000114008I-0000000332J-0000000223D01*
G02X0000006464Y0000113747I-0000001076J0000000733D01*
G03X0000005946Y0000113747I-0000000259J-0000000305D01*
G02X0000005946Y0000115735I-0000000841J0000000994D01*
G03X0000006464Y0000115735I0000000259J0000000305D01*
G02X0000008387Y0000115465I0000000841J-0000000994D01*
G03X0000009050Y0000115463I0000000332J0000000223D01*
G02X0000010967Y0000115724I0000001076J-0000000733D01*
G03X0000011485Y0000115724I0000000259J0000000305D01*
G02X0000011485Y0000113736I0000000841J-0000000994D01*
G03X0000010967Y0000113736I-0000000259J-0000000305D01*
G37*
G36*
G01X-0000031179Y0000115636D02*
G02X-0000031179Y0000117624I-0000000841J0000000994D01*
G03X-0000030661Y0000117624I0000000259J0000000305D01*
G02X-0000028800Y0000117439I0000000841J-0000000994D01*
G03X-0000028166Y0000117448I0000000314J0000000249D01*
G02X-0000026282Y0000117663I0000001043J-0000000779D01*
G03X-0000025764Y0000117663I0000000259J0000000305D01*
G02X-0000025764Y0000115675I0000000841J-0000000994D01*
G03X-0000026282Y0000115675I-0000000259J-0000000305D01*
G02X-0000028143Y0000115860I-0000000841J0000000994D01*
G03X-0000028777Y0000115851I-0000000314J-0000000249D01*
G02X-0000030661Y0000115636I-0000001043J0000000779D01*
G03X-0000031179Y0000115636I-0000000259J-0000000305D01*
G37*
G36*
G01X-0000045439Y0000136295D02*
G02X-0000046002Y0000137616I-0000001281J0000000235D01*
G03X-0000045388Y0000137878I0000000221J0000000334D01*
G02X-0000043266Y0000138637I0000001281J-0000000235D01*
G03X-0000042748Y0000138637I0000000259J0000000305D01*
G02X-0000040811Y0000138345I0000000841J-0000000994D01*
G03X-0000040156Y0000138319I0000000337J0000000216D01*
G02X-0000040216Y0000136828I0000001036J-0000000788D01*
G03X-0000040871Y0000136854I-0000000337J-0000000216D01*
G02X-0000042748Y0000136649I-0000001036J0000000789D01*
G03X-0000043266Y0000136649I-0000000259J-0000000305D01*
G02X-0000044825Y0000136557I-0000000841J0000000994D01*
G03X-0000045439Y0000136295I-0000000221J-0000000334D01*
G37*
G36*
G01X-0000100620Y0000136102D02*
G02X-0000100620Y0000137658I-0000001400J0000000778D01*
G03X-0000099920Y0000137658I0000000350J0000000194D01*
G02X-0000099920Y0000136102I0000001400J-0000000778D01*
G03X-0000100620Y0000136102I-0000000350J-0000000194D01*
G37*
G36*
G01X0000133558Y0000187030D02*
G02X0000132002Y0000187030I-0000000778J-0000001400D01*
G03X0000132002Y0000187730I-0000000194J0000000350D01*
G02X0000133558Y0000187730I0000000778J0000001400D01*
G03X0000133558Y0000187030I0000000194J-0000000350D01*
G37*
G36*
G01X-0000212328Y0000201187D02*
G02X-0000214458Y0000201397I-0000000992J0000000843D01*
G03X-0000215107Y0000201467I-0000000349J-0000000195D01*
G02X-0000214944Y0000202963I-0000000975J0000000863D01*
G03X-0000214295Y0000202893I0000000349J0000000195D01*
G02X-0000212328Y0000202873I0000000975J-0000000863D01*
G03X-0000211718Y0000202873I0000000305J0000000259D01*
G02X-0000211718Y0000201187I0000000992J-0000000843D01*
G03X-0000212328Y0000201187I-0000000305J-0000000259D01*
G37*
G36*
G01X-0000143105Y0000207177D02*
G02X-0000144335Y0000207177I-0000000615J-0000001147D01*
G03X-0000144335Y0000207883I-0000000189J0000000353D01*
G02X-0000143105Y0000207883I0000000615J0000001147D01*
G03X-0000143105Y0000207177I0000000189J-0000000353D01*
G37*
G36*
G01X-0000176044Y0000210471D02*
G02X-0000178156Y0000211935I-0000001176J0000000559D01*
G03X-0000178191Y0000212523I-0000000288J0000000278D01*
G02X-0000176433Y0000212627I0000000822J0000001009D01*
G03X-0000176398Y0000212039I0000000288J-0000000278D01*
G02X-0000176101Y0000211695I-0000000822J-0000001010D01*
G03X-0000175396Y0000211727I0000000344J0000000204D01*
G02X-0000175157Y0000212072I0000001176J-0000000559D01*
G03X-0000175157Y0000212628I-0000000288J0000000278D01*
G02X-0000173283Y0000212628I0000000937J0000000904D01*
G03X-0000173283Y0000212072I0000000288J-0000000278D01*
G02X-0000175339Y0000210503I-0000000937J-0000000904D01*
G03X-0000176044Y0000210471I-0000000344J-0000000204D01*
G37*
G36*
G01X-0000118354Y0000212605D02*
G02X-0000118381Y0000211376I0000001134J-0000000640D01*
G03X-0000119086Y0000211391I-0000000357J-0000000181D01*
G02X-0000119059Y0000212620I-0000001134J0000000640D01*
G03X-0000118354Y0000212605I0000000357J0000000181D01*
G37*
G36*
G01X-0000135282Y0000216795D02*
G02X-0000137158Y0000216795I-0000000938J-0000000903D01*
G03X-0000137158Y0000217351I-0000000288J0000000278D01*
G02X-0000137157Y0000219158I0000000938J0000000903D01*
G03X-0000137157Y0000219713I-0000000288J0000000278D01*
G02X-0000136846Y0000221759I0000000937J0000000904D01*
G03X-0000136846Y0000222460I-0000000192J0000000350D01*
G02X-0000135594Y0000222460I0000000626J0000001142D01*
G03X-0000135594Y0000221759I0000000192J-0000000351D01*
G02X-0000135283Y0000219713I-0000000626J-0000001142D01*
G03X-0000135283Y0000219158I0000000288J-0000000277D01*
G02X-0000135282Y0000217351I-0000000937J-0000000904D01*
G03X-0000135282Y0000216795I0000000288J-0000000278D01*
G37*
G36*
G01X-0000107340Y0000228478D02*
G02X-0000107385Y0000227015I0000001054J-0000000765D01*
G03X-0000108046Y0000227036I-0000000338J-0000000214D01*
G02X-0000108001Y0000228499I-0000001054J0000000765D01*
G03X-0000107340Y0000228478I0000000338J0000000214D01*
G37*
G36*
G01X0000026699Y0000230952D02*
G02X0000024918Y0000231006I-0000000919J-0000000922D01*
G03X0000024935Y0000231589I-0000000265J0000000299D01*
G02X0000024635Y0000232968I0000000919J0000000922D01*
G03X0000024247Y0000233508I-0000000375J0000000140D01*
G02X0000025424Y0000234352I-0000000042J0000001301D01*
G03X0000025812Y0000233812I0000000375J-0000000140D01*
G02X0000026716Y0000231535I0000000042J-0000001301D01*
G03X0000026699Y0000230952I0000000265J-0000000299D01*
G37*
G36*
G01X-0000017704Y0000258902D02*
G02X-0000018914Y0000258058I0000000009J-0000001302D01*
G03X-0000019291Y0000258598I-0000000375J0000000140D01*
G02X-0000018081Y0000259442I-0000000009J0000001302D01*
G03X-0000017704Y0000258902I0000000375J-0000000140D01*
G37*
G36*
G01X0000096072Y0000298754D02*
G02X0000094448Y0000298707I-0000000772J-0000001404D01*
G03X0000094428Y0000299396I-0000000213J0000000339D01*
G02X0000094499Y0000302240I0000000772J0000001404D01*
G03X0000094499Y0000302960I-0000000175J0000000360D01*
G02X0000094493Y0000305838I0000000701J0000001440D01*
G03X0000094543Y0000306526I-0000000176J0000000359D01*
G02X0000095962Y0000306491I0000000736J0000001074D01*
G03X0000095978Y0000305801I0000000210J-0000000340D01*
G02X0000095901Y0000302960I-0000000778J-0000001400D01*
G03X0000095901Y0000302240I0000000175J-0000000360D01*
G02X0000096052Y0000299443I-0000000701J-0000001440D01*
G03X0000096072Y0000298754I0000000213J-0000000339D01*
G37*
G36*
G01X0000010723Y0000305931D02*
G02X0000009396Y0000305713I-0000000492J-0000001151D01*
G03X0000009287Y0000306379I-0000000267J0000000298D01*
G02X0000010614Y0000306597I0000000492J0000001151D01*
G03X0000010723Y0000305931I0000000267J-0000000298D01*
G37*
G36*
G01X0000027017Y0000306683D02*
G02X0000025590Y0000306646I-0000000687J-0000001047D01*
G03X0000025573Y0000307303I-0000000236J0000000323D01*
G02X0000025320Y0000309177I0000000687J0000001047D01*
G03X0000025330Y0000309694I-0000000300J0000000264D01*
G02X0000027240Y0000309658I0000000970J0000000791D01*
G03X0000027230Y0000309141I0000000300J-0000000264D01*
G02X0000027000Y0000307340I-0000000970J-0000000791D01*
G03X0000027017Y0000306683I0000000236J-0000000323D01*
G37*
G36*
G01X-0000050963Y0000312202D02*
G02X-0000050963Y0000313758I-0000001400J0000000778D01*
G03X-0000050263Y0000313758I0000000350J0000000194D01*
G02X-0000050263Y0000312202I0000001400J-0000000778D01*
G03X-0000050963Y0000312202I-0000000350J-0000000194D01*
G37*
G36*
G01X0000005479Y0000312930D02*
G02X0000005479Y0000314130I-0000001099J0000000600D01*
G03X0000006181Y0000314130I0000000351J0000000192D01*
G02X0000006181Y0000312930I0000001099J-0000000600D01*
G03X0000005479Y0000312930I-0000000351J-0000000192D01*
G37*
G36*
G01X-0000013192Y0000323815D02*
G02X-0000013192Y0000325245I-0000001028J0000000715D01*
G03X-0000012536Y0000325245I0000000328J0000000229D01*
G02X-0000010452Y0000325202I0000001028J-0000000715D01*
G03X-0000009776Y0000325202I0000000338J0000000214D01*
G02X-0000009776Y0000323858I0000001056J-0000000672D01*
G03X-0000010452Y0000323858I-0000000338J-0000000214D01*
G02X-0000012536Y0000323815I-0000001056J0000000672D01*
G03X-0000013192Y0000323815I-0000000328J-0000000229D01*
G37*
G36*
G01X-0000003712Y0000323787D02*
G02X-0000003712Y0000325273I-0000001008J0000000743D01*
G03X-0000003069Y0000325273I0000000321J0000000238D01*
G02X-0000003069Y0000323787I0000001008J-0000000743D01*
G03X-0000003712Y0000323787I-0000000322J-0000000238D01*
G37*
G36*
G01X0000175899Y0000338343D02*
G02X0000175860Y0000336789I0000001381J-0000000812D01*
G03X0000175161Y0000336806I-0000000354J-0000000186D01*
G02X0000175200Y0000338360I-0000001381J0000000812D01*
G03X0000175899Y0000338343I0000000354J0000000186D01*
G37*
G36*
G01X0000175899Y0000347343D02*
G02X0000175860Y0000345789I0000001381J-0000000812D01*
G03X0000175161Y0000345806I-0000000354J-0000000186D01*
G02X0000175200Y0000347360I-0000001381J0000000812D01*
G03X0000175899Y0000347343I0000000354J0000000186D01*
G37*
G36*
G01X0000186900Y0000377722D02*
G02X0000186900Y0000379278I-0000001400J0000000778D01*
G03X0000187600Y0000379278I0000000350J0000000194D01*
G02X0000187600Y0000377722I0000001400J-0000000778D01*
G03X0000186900Y0000377722I-0000000350J-0000000194D01*
G37*
G36*
G01X-0000037361Y0000114535D02*
G03X-0000036843Y0000114535I0000000259J0000000305D01*
G02X-0000036843Y0000112547I0000000841J-0000000994D01*
G03X-0000037361Y0000112547I-0000000259J-0000000305D01*
G02X-0000037361Y0000114535I-0000000841J0000000994D01*
G37*
G36*
G01X-0000013483Y0000114989D02*
G03X-0000013483Y0000114471I0000000305J-0000000259D01*
G02X-0000015471Y0000114471I-0000000994J-0000000841D01*
G03X-0000015471Y0000114989I-0000000305J0000000259D01*
G02X-0000013483Y0000114989I0000000994J0000000841D01*
G37*
G36*
G01X-0000072376Y0000112847D02*
G03X-0000072894Y0000112847I-0000000259J-0000000305D01*
G02X-0000072894Y0000114835I-0000000841J0000000994D01*
G03X-0000072376Y0000114835I0000000259J0000000305D01*
G02X-0000072376Y0000112847I0000000841J-0000000994D01*
G37*
G36*
G01X0000053090Y0000115682D02*
G03X0000053608Y0000115682I0000000259J0000000305D01*
G02X0000053608Y0000113694I0000000841J-0000000994D01*
G03X0000053090Y0000113694I-0000000259J-0000000305D01*
G02X0000053090Y0000115682I-0000000841J0000000994D01*
G37*
G36*
G01X0000017757Y0000115735D02*
G03X0000018275Y0000115735I0000000259J0000000305D01*
G02X0000018275Y0000113747I0000000841J-0000000994D01*
G03X0000017757Y0000113747I-0000000259J-0000000305D01*
G02X0000017757Y0000115735I-0000000841J0000000994D01*
G37*
G36*
G01X0000035474Y0000115735D02*
G03X0000035992Y0000115735I0000000259J0000000305D01*
G02X0000035992Y0000113747I0000000841J-0000000994D01*
G03X0000035474Y0000113747I-0000000259J-0000000305D01*
G02X0000035474Y0000115735I-0000000841J0000000994D01*
G37*
G36*
G01X-0000066371Y0000115694D02*
G03X-0000066889Y0000115694I-0000000259J-0000000305D01*
G02X-0000066889Y0000117682I-0000000841J0000000994D01*
G03X-0000066371Y0000117682I0000000259J0000000305D01*
G02X-0000066371Y0000115694I0000000841J-0000000994D01*
G37*
G36*
G01X-0000060079Y0000117724D02*
G03X-0000059561Y0000117724I0000000259J0000000305D01*
G02X-0000059561Y0000115736I0000000841J-0000000994D01*
G03X-0000060079Y0000115736I-0000000259J-0000000305D01*
G02X-0000060079Y0000117724I-0000000841J0000000994D01*
G37*
G36*
G01X-0000043679Y0000117724D02*
G03X-0000043161Y0000117724I0000000259J0000000305D01*
G02X-0000043161Y0000115736I0000000841J-0000000994D01*
G03X-0000043679Y0000115736I-0000000259J-0000000305D01*
G02X-0000043679Y0000117724I-0000000841J0000000994D01*
G37*
G36*
G01X-0000065726Y0000122689D02*
G03X-0000065726Y0000122171I0000000305J-0000000259D01*
G02X-0000067714Y0000122171I-0000000994J-0000000841D01*
G03X-0000067714Y0000122689I-0000000305J0000000259D01*
G02X-0000065726Y0000122689I0000000994J0000000841D01*
G37*
G36*
G01X-0000050917Y0000122689D02*
G03X-0000050917Y0000122171I0000000305J-0000000259D01*
G02X-0000052905Y0000122171I-0000000994J-0000000841D01*
G03X-0000052905Y0000122689I-0000000305J0000000259D01*
G02X-0000050917Y0000122689I0000000994J0000000841D01*
G37*
G36*
G01X0000039121Y0000122324D02*
G03X0000039639Y0000122324I0000000259J0000000305D01*
G02X0000039639Y0000120336I0000000841J-0000000994D01*
G03X0000039121Y0000120336I-0000000259J-0000000305D01*
G02X0000039121Y0000122324I-0000000841J0000000994D01*
G37*
G36*
G01X-0000019645Y0000122666D02*
G03X-0000019127Y0000122666I0000000259J0000000305D01*
G02X-0000019127Y0000120678I0000000841J-0000000994D01*
G03X-0000019645Y0000120678I-0000000259J-0000000305D01*
G02X-0000019645Y0000122666I-0000000841J0000000994D01*
G37*
G36*
G01X-0000077593Y0000123788D02*
G03X-0000077593Y0000123270I0000000305J-0000000259D01*
G02X-0000079581Y0000123270I-0000000994J-0000000841D01*
G03X-0000079581Y0000123788I-0000000305J0000000259D01*
G02X-0000077593Y0000123788I0000000994J0000000841D01*
G37*
G36*
G01X-0000025661Y0000121436D02*
G03X-0000026178Y0000121436I-0000000259J-0000000305D01*
G02X-0000026178Y0000123424I-0000000841J0000000994D01*
G03X-0000025661Y0000123424I0000000258J0000000305D01*
G02X-0000025661Y0000121436I0000000841J-0000000994D01*
G37*
G36*
G01X-0000037379Y0000124367D02*
G03X-0000036861Y0000124367I0000000259J0000000305D01*
G02X-0000036861Y0000122379I0000000841J-0000000994D01*
G03X-0000037379Y0000122379I-0000000259J-0000000305D01*
G02X-0000037379Y0000124367I-0000000841J0000000994D01*
G37*
G36*
G01X0000030085Y0000122978D02*
G03X0000029568Y0000122978I-0000000259J-0000000305D01*
G02X0000029568Y0000124966I-0000000841J0000000994D01*
G03X0000030085Y0000124966I0000000259J0000000305D01*
G02X0000030085Y0000122978I0000000841J-0000000994D01*
G37*
G36*
G01X0000053190Y0000124966D02*
G03X0000053708Y0000124966I0000000259J0000000305D01*
G02X0000053708Y0000122978I0000000841J-0000000994D01*
G03X0000053190Y0000122978I-0000000259J-0000000305D01*
G02X0000053190Y0000124966I-0000000841J0000000994D01*
G37*
G36*
G01X0000005946Y0000125014D02*
G03X0000006464Y0000125014I0000000259J0000000305D01*
G02X0000008210Y0000124957I0000000841J-0000000994D01*
G03X0000008768Y0000124959I0000000278J0000000287D01*
G02X0000008775Y0000123093I0000000912J-0000000930D01*
G03X0000008217Y0000123091I-0000000278J-0000000287D01*
G02X0000006464Y0000123026I-0000000912J0000000929D01*
G03X0000005946Y0000123026I-0000000259J-0000000305D01*
G02X0000005946Y0000125014I-0000000841J0000000994D01*
G37*
G36*
G01X0000017757Y0000125014D02*
G03X0000018275Y0000125014I0000000259J0000000305D01*
G02X0000018275Y0000123026I0000000841J-0000000994D01*
G03X0000017757Y0000123026I-0000000259J-0000000305D01*
G02X0000017757Y0000125014I-0000000841J0000000994D01*
G37*
G36*
G01X-0000060984Y0000125266D02*
G03X-0000060466Y0000125266I0000000259J0000000305D01*
G02X-0000060466Y0000123278I0000000841J-0000000994D01*
G03X-0000060984Y0000123278I-0000000259J-0000000305D01*
G02X-0000060984Y0000125266I-0000000841J0000000994D01*
G37*
G36*
G01X-0000032419Y0000136347D02*
G03X-0000032854Y0000135991I-0000000037J-0000000398D01*
G02X-0000034026Y0000137426I-0000001295J0000000139D01*
G03X-0000033591Y0000137782I0000000037J0000000398D01*
G02X-0000031455Y0000138637I0000001295J-0000000139D01*
G03X-0000030937Y0000138637I0000000259J0000000305D01*
G02X-0000028801Y0000137782I0000000841J-0000000994D01*
G03X-0000028366Y0000137426I0000000398J0000000042D01*
G02X-0000029539Y0000135991I0000000122J-0000001296D01*
G03X-0000029974Y0000136347I-0000000398J-0000000042D01*
G02X-0000030937Y0000136649I-0000000122J0000001296D01*
G03X-0000031455Y0000136649I-0000000259J-0000000305D01*
G02X-0000032419Y0000136347I-0000000841J0000000994D01*
G37*
G36*
G01X0000013768Y0000135991D02*
G03X0000013333Y0000136347I-0000000398J-0000000042D01*
G02X0000012370Y0000136649I-0000000122J0000001296D01*
G03X0000011852Y0000136649I-0000000259J-0000000305D01*
G02X0000011852Y0000138637I-0000000841J0000000994D01*
G03X0000012370Y0000138637I0000000259J0000000305D01*
G02X0000014506Y0000137782I0000000841J-0000000994D01*
G03X0000014941Y0000137426I0000000398J0000000042D01*
G02X0000013768Y0000135991I0000000122J-0000001296D01*
G37*
G36*
G01X0000022699Y0000136347D02*
G03X0000022264Y0000135991I-0000000037J-0000000398D01*
G02X0000021092Y0000137426I-0000001295J0000000139D01*
G03X0000021527Y0000137782I0000000037J0000000398D01*
G02X0000023663Y0000138637I0000001295J-0000000139D01*
G03X0000024181Y0000138637I0000000259J0000000305D01*
G02X0000026317Y0000137782I0000000841J-0000000994D01*
G03X0000026752Y0000137426I0000000398J0000000042D01*
G02X0000025579Y0000135991I0000000122J-0000001296D01*
G03X0000025144Y0000136347I-0000000398J-0000000042D01*
G02X0000024181Y0000136649I-0000000122J0000001296D01*
G03X0000023663Y0000136649I-0000000259J-0000000305D01*
G02X0000022699Y0000136347I-0000000841J0000000994D01*
G37*
G36*
G01X0000037391Y0000135991D02*
G03X0000036956Y0000136347I-0000000398J-0000000042D01*
G02X0000035992Y0000136649I-0000000123J0000001296D01*
G03X0000035474Y0000136649I-0000000259J-0000000305D01*
G02X0000034277Y0000136391I-0000000841J0000000994D01*
G03X0000033771Y0000136059I-0000000109J-0000000385D01*
G02X0000032836Y0000137482I-0000001291J0000000171D01*
G03X0000033342Y0000137814I0000000109J0000000385D01*
G02X0000035474Y0000138637I0000001291J-0000000171D01*
G03X0000035992Y0000138637I0000000259J0000000305D01*
G02X0000038128Y0000137782I0000000841J-0000000994D01*
G03X0000038563Y0000137426I0000000398J0000000042D01*
G02X0000037391Y0000135991I0000000123J-0000001296D01*
G37*
G36*
G01X0000046321Y0000136347D02*
G03X0000045886Y0000135991I-0000000037J-0000000398D01*
G02X0000044714Y0000137426I-0000001295J0000000139D01*
G03X0000045149Y0000137782I0000000037J0000000398D01*
G02X0000047285Y0000138637I0000001295J-0000000139D01*
G03X0000047803Y0000138637I0000000259J0000000305D01*
G02X0000049926Y0000137870I0000000841J-0000000994D01*
G03X0000050362Y0000137542I0000000394J0000000070D01*
G02X0000049215Y0000136020I0000000135J-0000001295D01*
G03X0000048779Y0000136348I-0000000394J-0000000070D01*
G02X0000047803Y0000136649I-0000000135J0000001295D01*
G03X0000047285Y0000136649I-0000000259J-0000000305D01*
G02X0000046321Y0000136347I-0000000841J0000000994D01*
G37*
G36*
G01X-0000046126Y0000141589D02*
G03X-0000046126Y0000141071I0000000305J-0000000259D01*
G02X-0000048114Y0000141071I-0000000994J-0000000841D01*
G03X-0000048114Y0000141589I-0000000305J0000000259D01*
G02X-0000046126Y0000141589I0000000994J0000000841D01*
G37*
G36*
G01X-0000041568Y0000157689D02*
G03X-0000041568Y0000157079I0000000259J-0000000305D01*
G02X-0000043256Y0000157079I-0000000844J-0000000991D01*
G03X-0000043256Y0000157689I-0000000259J0000000305D01*
G02X-0000041568Y0000157689I0000000844J0000000991D01*
G37*
G36*
G01X-0000162118Y0000201187D02*
G03X-0000162728Y0000201187I-0000000305J-0000000259D01*
G02X-0000162728Y0000202873I-0000000992J0000000843D01*
G03X-0000162118Y0000202873I0000000305J0000000259D01*
G02X-0000162118Y0000201187I0000000992J-0000000843D01*
G37*
G36*
G01X-0000184882Y0000210265D02*
G03X-0000184882Y0000209709I0000000288J-0000000278D01*
G02X-0000186758Y0000209709I-0000000938J-0000000903D01*
G03X-0000186758Y0000210265I-0000000288J0000000278D01*
G02X-0000184882Y0000210265I0000000938J0000000903D01*
G37*
G36*
G01X-0000222883Y0000212628D02*
G03X-0000222883Y0000212072I0000000288J-0000000278D01*
G02X-0000224757Y0000212072I-0000000937J-0000000904D01*
G03X-0000224757Y0000212628I-0000000288J0000000278D01*
G02X-0000222883Y0000212628I0000000937J0000000904D01*
G37*
G36*
G01X0000060951Y0000216810D02*
G03X0000060956Y0000216228I0000000277J-0000000289D01*
G02X0000058757Y0000216212I-0000001091J-0000001173D01*
G03X0000058752Y0000216794I-0000000277J0000000289D01*
G02X0000060951Y0000216810I0000001091J0000001173D01*
G37*
G36*
G01X0000064888Y0000216810D02*
G03X0000064893Y0000216228I0000000277J-0000000289D01*
G02X0000062694Y0000216212I-0000001091J-0000001173D01*
G03X0000062689Y0000216794I-0000000277J0000000289D01*
G02X0000064888Y0000216810I0000001091J0000001173D01*
G37*
G36*
G01X-0000087603Y0000274785D02*
G03X-0000087626Y0000275340I-0000000299J0000000266D01*
G02X-0000085753Y0000275414I0000000901J0000000940D01*
G03X-0000085730Y0000274859I0000000299J-0000000266D01*
G02X-0000087603Y0000274785I-0000000901J-0000000940D01*
G37*
G36*
G01X0000012669Y0000294277D02*
G03X0000013033Y0000294641I-0000000035J0000000399D01*
G02X0000014391Y0000293288I0000001247J-0000000106D01*
G03X0000014027Y0000292924I0000000035J-0000000399D01*
G02X0000012669Y0000294277I-0000001247J0000000106D01*
G37*
G36*
G01X0000006478Y0000294497D02*
G03X0000006985Y0000294497I0000000253J0000000310D01*
G02X0000006985Y0000292563I0000000795J-0000000967D01*
G03X0000006478Y0000292563I-0000000253J-0000000310D01*
G02X0000006478Y0000294497I-0000000795J0000000967D01*
G37*
G36*
G01X0000009716Y0000300913D02*
G03X0000009431Y0000300911I-0000000142J-0000000141D01*
G02X0000009414Y0000302667I-0000000901J0000000869D01*
G03X0000009699Y0000302669I0000000142J0000000141D01*
G02X0000009716Y0000300913I0000000901J-0000000869D01*
G37*
G36*
G01X-0000004125Y0000314055D02*
G03X-0000004405Y0000314046I-0000000135J-0000000147D01*
G02X-0000004466Y0000315827I-0000000910J0000000860D01*
G03X-0000004186Y0000315836I0000000135J0000000147D01*
G02X-0000004125Y0000314055I0000000910J-0000000860D01*
G37*
G36*
G01X0000051063Y0000323377D02*
G03X0000051686Y0000323417I0000000296J0000000269D01*
G02X0000051686Y0000321583I0000001314J-0000000917D01*
G03X0000051063Y0000321623I-0000000327J-0000000229D01*
G02X0000051063Y0000323377I-0000000963J0000000877D01*
G37*
G36*
G01X-0000067605Y0000288883D02*
G03X-0000067605Y0000288177I0000000189J-0000000353D01*
G02X-0000068835Y0000288177I-0000000615J-0000001147D01*
G03X-0000068835Y0000288883I-0000000189J0000000353D01*
G02X-0000067605Y0000288883I0000000615J0000001147D01*
G37*
G36*
G01X-0000193073Y0000258415D02*
G02X-0000193073Y0000259645I-0000001147J0000000615D01*
G03X-0000192367Y0000259645I0000000353J0000000189D01*
G02X-0000192367Y0000258415I0000001147J-0000000615D01*
G03X-0000193073Y0000258415I-0000000353J-0000000189D01*
G37*
G54D43*
X0000034237Y0000363991D03*
X0000091323Y0000363991D03*
G54D44*
X0000034237Y0000387495D03*
X0000091323Y0000387495D03*
G54D39*
X-0000007022Y0000231376D03*
X-0000007022Y0000227376D03*
X-0000151220Y0000187030D03*
X-0000151320Y0000181730D03*
X-0000202820Y0000187030D03*
X-0000202820Y0000182730D03*
G54D40*
X-0000070220Y0000367987D03*
X-0000112220Y0000367987D03*
G54D32*
X0000186780Y0000359530D03*
X0000186339Y0000253000D03*
X0000190000Y0000253000D03*
X0000170709Y0000369180D03*
X0000182280Y0000369000D03*
X0000174566Y0000369066D03*
X0000178423Y0000369000D03*
X0000169780Y0000346619D03*
X0000169780Y0000342619D03*
X0000173780Y0000342619D03*
X0000169780Y0000337619D03*
X0000171435Y0000286030D03*
X0000176780Y0000286030D03*
X0000176780Y0000291030D03*
X0000176780Y0000281530D03*
X0000171435Y0000281530D03*
X0000167667Y0000262500D03*
X0000175000Y0000262500D03*
X0000182678Y0000253000D03*
X0000171333Y0000262500D03*
X0000178500Y0000253000D03*
X0000166780Y0000386530D03*
X0000167137Y0000378363D03*
X0000162500Y0000378500D03*
X0000160280Y0000321030D03*
X0000155280Y0000309530D03*
X0000166435Y0000286030D03*
X0000166435Y0000281530D03*
X0000164780Y0000271030D03*
X0000164000Y0000262500D03*
X0000164780Y0000244030D03*
X0000157280Y0000127530D03*
X0000152280Y0000132530D03*
X0000152280Y0000127530D03*
X0000157280Y0000132530D03*
X0000138500Y0000363500D03*
X0000138500Y0000359000D03*
X0000143592Y0000316030D03*
X0000143592Y0000309030D03*
X0000145380Y0000185230D03*
X0000147280Y0000132530D03*
X0000147280Y0000127530D03*
X0000121780Y0000358530D03*
X0000125280Y0000306530D03*
X0000122280Y0000282030D03*
X0000126780Y0000282030D03*
X0000128280Y0000267030D03*
X0000122280Y0000267030D03*
X0000132280Y0000267030D03*
X0000126780Y0000278030D03*
X0000122280Y0000278030D03*
X0000132280Y0000194030D03*
X0000128780Y0000177130D03*
X0000117780Y0000358530D03*
X0000104952Y0000322530D03*
X0000104952Y0000311358D03*
X0000119780Y0000306530D03*
X0000116957Y0000310707D03*
X0000104952Y0000289358D03*
X0000117280Y0000282030D03*
X0000111780Y0000277530D03*
X0000117280Y0000277530D03*
X0000111780Y0000273796D03*
X0000117280Y0000267030D03*
X0000118601Y0000183709D03*
X0000111530Y0000177593D03*
X0000118430Y0000177130D03*
X0000112616Y0000158030D03*
X0000112800Y0000162300D03*
X0000112616Y0000153280D03*
X0000094080Y0000346530D03*
X0000094080Y0000338530D03*
X0000094080Y0000334530D03*
X0000088280Y0000275530D03*
X0000095780Y0000247530D03*
X0000091339Y0000177593D03*
X0000096900Y0000161900D03*
X0000093000Y0000165780D03*
X0000078281Y0000369030D03*
X0000078100Y0000375800D03*
X0000077607Y0000322530D03*
X0000083780Y0000311730D03*
X0000083780Y0000284030D03*
X0000083780Y0000275530D03*
X0000086780Y0000247030D03*
X0000075591Y0000197030D03*
X0000075591Y0000192030D03*
X0000080900Y0000158500D03*
X0000075874Y0000171000D03*
X0000075874Y0000167300D03*
X0000080700Y0000162500D03*
X0000079811Y0000171000D03*
X0000079811Y0000167300D03*
X0000075974Y0000163400D03*
X0000081100Y0000154600D03*
X0000065796Y0000322530D03*
X0000057800Y0000311600D03*
X0000071717Y0000243530D03*
X0000067717Y0000243530D03*
X0000063780Y0000233030D03*
X0000063780Y0000226530D03*
X0000067717Y0000221904D03*
X0000071654Y0000221904D03*
X0000063780Y0000221904D03*
X0000059843Y0000221904D03*
X0000067717Y0000217967D03*
X0000071654Y0000217967D03*
X0000071654Y0000214030D03*
X0000067717Y0000214030D03*
X0000071800Y0000192000D03*
X0000067700Y0000192030D03*
X0000059680Y0000175030D03*
X0000056780Y0000187030D03*
X0000058700Y0000170900D03*
X0000071100Y0000167300D03*
X0000071100Y0000171000D03*
X0000071337Y0000163400D03*
X0000055780Y0000326530D03*
X0000049478Y0000283030D03*
X0000053280Y0000283030D03*
X0000055280Y0000266030D03*
X0000049000Y0000255530D03*
X0000051000Y0000252000D03*
X0000051830Y0000235980D03*
X0000049000Y0000248530D03*
X0000048000Y0000236000D03*
X0000048500Y0000225359D03*
X0000051100Y0000221700D03*
X0000051000Y0000228500D03*
X0000044680Y0000180030D03*
X0000055600Y0000168400D03*
X0000027030Y0000358400D03*
X0000036280Y0000197030D03*
X0000035780Y0000192030D03*
X0000028280Y0000181030D03*
X0000028280Y0000177030D03*
X0000028280Y0000173030D03*
X0000028280Y0000169030D03*
X0000028780Y0000154953D03*
X0000034500Y0000150000D03*
X0000017030Y0000385030D03*
X0000009530Y0000387530D03*
X0000017280Y0000202030D03*
X0000022280Y0000202030D03*
X0000018031Y0000191780D03*
X0000023780Y0000173030D03*
X0000023780Y0000169030D03*
X0000012780Y0000160030D03*
X0000008780Y0000160030D03*
X0000017280Y0000148030D03*
X0000013280Y0000148030D03*
X-0000005720Y0000387530D03*
X0000003280Y0000387530D03*
X-0000001220Y0000387530D03*
X0000003780Y0000367530D03*
X-0000002720Y0000342286D03*
X0000003091Y0000259504D03*
X-0000007220Y0000223530D03*
X0000007820Y0000211870D03*
X0000004780Y0000191530D03*
X-0000007031Y0000173967D03*
X-0000003094Y0000170030D03*
X-0000007031Y0000170030D03*
X0000000843Y0000166093D03*
X-0000003094Y0000166093D03*
X0000000843Y0000170030D03*
X-0000000270Y0000157130D03*
X-0000000220Y0000161030D03*
X-0000014720Y0000387530D03*
X-0000008220Y0000370030D03*
X-0000018220Y0000367030D03*
X-0000014340Y0000370000D03*
X-0000011125Y0000263125D03*
X-0000008720Y0000156030D03*
X-0000008720Y0000152030D03*
X-0000035205Y0000387545D03*
X-0000025220Y0000342530D03*
X-0000034720Y0000337530D03*
X-0000034720Y0000332730D03*
X-0000034720Y0000327530D03*
X-0000034720Y0000297726D03*
X-0000025220Y0000154130D03*
X-0000045720Y0000393030D03*
X-0000039720Y0000387530D03*
X-0000043720Y0000377530D03*
X-0000041200Y0000366180D03*
X-0000048200Y0000359100D03*
X-0000045863Y0000289179D03*
X-0000064720Y0000347341D03*
X-0000058700Y0000359000D03*
X-0000069220Y0000359030D03*
X-0000065220Y0000359030D03*
X-0000069720Y0000339530D03*
X-0000058820Y0000147430D03*
X-0000077720Y0000350030D03*
X-0000073820Y0000350030D03*
X-0000080550Y0000280350D03*
X-0000095120Y0000349580D03*
X-0000089620Y0000353080D03*
X-0000088691Y0000343730D03*
X-0000095720Y0000343730D03*
X-0000090220Y0000172530D03*
X-0000095220Y0000162530D03*
X-0000095220Y0000167530D03*
X-0000090220Y0000167530D03*
X-0000100220Y0000167530D03*
X-0000096470Y0000151280D03*
X-0000107220Y0000359030D03*
X-0000111220Y0000359030D03*
X-0000104720Y0000343730D03*
X-0000117220Y0000340500D03*
X-0000109120Y0000343730D03*
X-0000106020Y0000136880D03*
X-0000132800Y0000361200D03*
X-0000123000Y0000361200D03*
X-0000128000Y0000361200D03*
X-0000120641Y0000332707D03*
X-0000124547Y0000332588D03*
X-0000129700Y0000343300D03*
X-0000124547Y0000324714D03*
X-0000120673Y0000320777D03*
X-0000120641Y0000328651D03*
X-0000120704Y0000324714D03*
X-0000124547Y0000328651D03*
X-0000120610Y0000316840D03*
X-0000124547Y0000316840D03*
X-0000124547Y0000320777D03*
X-0000130000Y0000324500D03*
X-0000133921Y0000328651D03*
X-0000129984Y0000328651D03*
X-0000120547Y0000312903D03*
X-0000120720Y0000305030D03*
X-0000130250Y0000302500D03*
X-0000120740Y0000301185D03*
X-0000123600Y0000229400D03*
X-0000119220Y0000192530D03*
X-0000128890Y0000197110D03*
X-0000132720Y0000195030D03*
X-0000123220Y0000192530D03*
X-0000129120Y0000187530D03*
X-0000129220Y0000177530D03*
X-0000129220Y0000172530D03*
X-0000123720Y0000144530D03*
X-0000122500Y0000130000D03*
X-0000135720Y0000356030D03*
X-0000134700Y0000332530D03*
X-0000136500Y0000339500D03*
X-0000136720Y0000343730D03*
X-0000134720Y0000172530D03*
X-0000134720Y0000177530D03*
X-0000198720Y0000303030D03*
X-0000198720Y0000348030D03*
X-0000193960Y0000290270D03*
X-0000185720Y0000284030D03*
X-0000189261Y0000296162D03*
X-0000185200Y0000311020D03*
X-0000183220Y0000300280D03*
X-0000193960Y0000336000D03*
X-0000189261Y0000342412D03*
X-0000184500Y0000358000D03*
X-0000183220Y0000346530D03*
X-0000168970Y0000264101D03*
X-0000168970Y0000259530D03*
X-0000179500Y0000267500D03*
X-0000175500Y0000273454D03*
X-0000168970Y0000282387D03*
X-0000168970Y0000277816D03*
X-0000168970Y0000273244D03*
X-0000168970Y0000268673D03*
X-0000168970Y0000286959D03*
X-0000168970Y0000291530D03*
X-0000162570Y0000259530D03*
X-0000162570Y0000264101D03*
X-0000151970Y0000264101D03*
X-0000151970Y0000259530D03*
X-0000162570Y0000282387D03*
X-0000151970Y0000273244D03*
X-0000162570Y0000268673D03*
X-0000162570Y0000273244D03*
X-0000151970Y0000268673D03*
X-0000151970Y0000277816D03*
X-0000151970Y0000282387D03*
X-0000162570Y0000277816D03*
X-0000162570Y0000286959D03*
X-0000162570Y0000291530D03*
X-0000151970Y0000286959D03*
X-0000151970Y0000291530D03*
X-0000145570Y0000259530D03*
X-0000145570Y0000264101D03*
X-0000145570Y0000268673D03*
X-0000145570Y0000282387D03*
X-0000145570Y0000277816D03*
X-0000145570Y0000273244D03*
X-0000145570Y0000286959D03*
X-0000145570Y0000291530D03*
X-0000133720Y0000277530D03*
X-0000127720Y0000277530D03*
X-0000117720Y0000254030D03*
G54D42*
X-0000143116Y0000147622D03*
X-0000143116Y0000131638D03*
X-0000153116Y0000147622D03*
X-0000148116Y0000152622D03*
X-0000163116Y0000147622D03*
X-0000158116Y0000152622D03*
X-0000153116Y0000131638D03*
X-0000148116Y0000126638D03*
X-0000163116Y0000131638D03*
X-0000158116Y0000126638D03*
X-0000168116Y0000152622D03*
X-0000173116Y0000147622D03*
X-0000178116Y0000152622D03*
X-0000168116Y0000126638D03*
X-0000173116Y0000131638D03*
X-0000178116Y0000126638D03*
X-0000188116Y0000152622D03*
X-0000183116Y0000147622D03*
X-0000188116Y0000126638D03*
X-0000183116Y0000131638D03*
X-0000195557Y0000143626D03*
X-0000195557Y0000151618D03*
X-0000195557Y0000135634D03*
X-0000195557Y0000127642D03*
G54D38*
X0000026330Y0000321381D03*
X0000026330Y0000324530D03*
X0000026330Y0000314325D03*
X0000026330Y0000299338D03*
X0000026330Y0000302487D03*
X0000029680Y0000302530D03*
X0000029780Y0000299338D03*
X0000026330Y0000289891D03*
X0000026330Y0000293040D03*
X0000026330Y0000286742D03*
X0000026330Y0000283593D03*
X0000023131Y0000327679D03*
X0000023131Y0000324530D03*
X0000013684Y0000327679D03*
X0000010535Y0000327679D03*
X0000010535Y0000324530D03*
X0000013684Y0000324530D03*
X0000016833Y0000324530D03*
X0000016833Y0000327679D03*
X0000019982Y0000324530D03*
X0000015362Y0000314948D03*
X0000015335Y0000305840D03*
X0000015296Y0000302833D03*
X0000023181Y0000283593D03*
X0000010475Y0000283585D03*
X0000013774Y0000283593D03*
X0000020032Y0000283593D03*
X0000016883Y0000283593D03*
X0000016780Y0000293030D03*
X0000023181Y0000280444D03*
X0000010625Y0000277295D03*
X0000010605Y0000280444D03*
X0000016883Y0000280444D03*
X0000020032Y0000280444D03*
X0000007386Y0000327679D03*
X0000007386Y0000324530D03*
X0000004237Y0000324530D03*
X-0000002061Y0000327679D03*
X0000001088Y0000324530D03*
X0000001088Y0000327679D03*
X0000004237Y0000327679D03*
X-0000001335Y0000311922D03*
X0000004530Y0000301780D03*
X-0000004720Y0000305530D03*
X-0000004720Y0000302530D03*
X0000007100Y0000283593D03*
X0000001128Y0000283593D03*
X-0000005160Y0000283593D03*
X-0000005196Y0000293506D03*
X-0000004720Y0000296381D03*
X-0000001220Y0000296381D03*
X-0000002011Y0000280444D03*
X0000001128Y0000280444D03*
X0000007436Y0000280444D03*
X0000007436Y0000277295D03*
X0000004287Y0000277295D03*
X0000004287Y0000280444D03*
X-0000005160Y0000280444D03*
X-0000017720Y0000321219D03*
X-0000011508Y0000327679D03*
X-0000017720Y0000315530D03*
X-0000014720Y0000315530D03*
X-0000020955Y0000305636D03*
X-0000017806Y0000308680D03*
X-0000014657Y0000305636D03*
X-0000014657Y0000308575D03*
X-0000017806Y0000299338D03*
X-0000014657Y0000299337D03*
X-0000008309Y0000283593D03*
X-0000014657Y0000293040D03*
X-0000014700Y0000296400D03*
G54D35*
X0000156280Y0000387030D03*
X0000156280Y0000367030D03*
X0000156280Y0000377030D03*
X0000156280Y0000357030D03*
X0000156280Y0000337030D03*
X0000156280Y0000347030D03*
X0000156280Y0000287030D03*
X0000156280Y0000297030D03*
X0000156280Y0000277030D03*
X0000156280Y0000257030D03*
X0000156280Y0000267030D03*
X0000156280Y0000247030D03*
X0000146280Y0000387030D03*
X0000146280Y0000377030D03*
X0000146280Y0000367030D03*
X0000146280Y0000357030D03*
X0000146280Y0000337030D03*
X0000146280Y0000347030D03*
X0000146280Y0000287030D03*
X0000146280Y0000297030D03*
X0000146280Y0000277030D03*
X0000146280Y0000257030D03*
X0000146280Y0000267030D03*
X0000146280Y0000247030D03*
X0000150142Y0000108518D03*
X-0000086551Y0000108518D03*
X-0000186720Y0000329530D03*
X-0000186720Y0000319530D03*
G54D49*
X-0000195807Y0000374530D03*
X-0000181634Y0000374530D03*
X-0000188720Y0000381617D03*
G54D37*
X0000092030Y0000354439D03*
X0000095780Y0000354439D03*
X0000093300Y0000314380D03*
X0000091280Y0000258030D03*
X0000091280Y0000262030D03*
X0000088045Y0000124070D03*
X0000090780Y0000114530D03*
X0000094780Y0000114530D03*
X0000076280Y0000354439D03*
X0000082280Y0000354439D03*
X0000072280Y0000354439D03*
X0000073780Y0000278030D03*
X0000073280Y0000266030D03*
X0000082280Y0000262030D03*
X0000086280Y0000262030D03*
X0000077280Y0000262030D03*
X0000084955Y0000124070D03*
X0000077200Y0000126100D03*
X0000081000Y0000126100D03*
X0000081780Y0000114530D03*
X0000085717Y0000114530D03*
X0000081200Y0000122400D03*
X0000071730Y0000322530D03*
X0000060280Y0000322530D03*
X0000057000Y0000322530D03*
X0000069780Y0000278030D03*
X0000065280Y0000278030D03*
X0000068780Y0000266030D03*
X0000063780Y0000266030D03*
X0000063780Y0000262030D03*
X0000059780Y0000262030D03*
X0000059890Y0000266030D03*
X0000063380Y0000125530D03*
X0000058280Y0000136430D03*
X0000065280Y0000115030D03*
X0000060780Y0000114960D03*
X0000056402Y0000101530D03*
X0000041780Y0000332030D03*
X0000041780Y0000327030D03*
X0000046900Y0000322500D03*
X0000055780Y0000278030D03*
X0000052480Y0000278030D03*
X0000051030Y0000245530D03*
X0000043101Y0000218858D03*
X0000043101Y0000215709D03*
X0000043101Y0000212560D03*
X0000043101Y0000206262D03*
X0000043101Y0000209411D03*
X0000050497Y0000101530D03*
X0000044591Y0000101530D03*
X0000034189Y0000354439D03*
X0000039280Y0000354439D03*
X0000032280Y0000335030D03*
X0000032280Y0000342286D03*
X0000038453Y0000305357D03*
X0000038390Y0000301420D03*
X0000034359Y0000305357D03*
X0000034359Y0000289609D03*
X0000034359Y0000293546D03*
X0000038422Y0000285672D03*
X0000034359Y0000297483D03*
X0000038359Y0000289609D03*
X0000034359Y0000285672D03*
X0000038327Y0000297483D03*
X0000038296Y0000293546D03*
X0000024205Y0000272597D03*
X0000024205Y0000269448D03*
X0000027354Y0000269448D03*
X0000034359Y0000281735D03*
X0000038485Y0000281735D03*
X0000039235Y0000278203D03*
X0000024205Y0000260001D03*
X0000027354Y0000260001D03*
X0000024205Y0000256852D03*
X0000027354Y0000256852D03*
X0000024205Y0000253703D03*
X0000027354Y0000253703D03*
X0000027354Y0000263150D03*
X0000024205Y0000266299D03*
X0000024205Y0000263150D03*
X0000027354Y0000266299D03*
X0000039952Y0000256852D03*
X0000037500Y0000264000D03*
X0000027354Y0000247405D03*
X0000027354Y0000237958D03*
X0000027354Y0000241107D03*
X0000024205Y0000237958D03*
X0000024205Y0000244256D03*
X0000024205Y0000250554D03*
X0000027354Y0000250554D03*
X0000024205Y0000241107D03*
X0000027354Y0000244256D03*
X0000024205Y0000247405D03*
X0000039952Y0000250554D03*
X0000036803Y0000241107D03*
X0000030505Y0000234806D03*
X0000036803Y0000234806D03*
X0000030503Y0000222210D03*
X0000030503Y0000225359D03*
X0000030503Y0000231657D03*
X0000030503Y0000219061D03*
X0000027354Y0000222210D03*
X0000039952Y0000231657D03*
X0000039952Y0000222210D03*
X0000036803Y0000228508D03*
X0000033654Y0000228508D03*
X0000036803Y0000225359D03*
X0000033654Y0000231657D03*
X0000039952Y0000225359D03*
X0000033654Y0000219061D03*
X0000033654Y0000225359D03*
X0000027354Y0000225359D03*
X0000027280Y0000219030D03*
X0000039952Y0000209411D03*
X0000033654Y0000209614D03*
X0000030505Y0000215912D03*
X0000033654Y0000212763D03*
X0000036803Y0000209614D03*
X0000033654Y0000215912D03*
X0000039952Y0000215709D03*
X0000039952Y0000206262D03*
X0000024957Y0000216030D03*
X0000037280Y0000187985D03*
X0000037080Y0000183430D03*
X0000035080Y0000185830D03*
X0000038686Y0000101530D03*
X0000032780Y0000101530D03*
X0000026874Y0000101530D03*
X0000019780Y0000354439D03*
X0000019280Y0000335030D03*
X0000019280Y0000343530D03*
X0000011607Y0000256852D03*
X0000017906Y0000234806D03*
X0000014757Y0000234806D03*
X0000011607Y0000250554D03*
X0000014757Y0000237955D03*
X0000021056Y0000219061D03*
X0000011608Y0000219060D03*
X0000011608Y0000225358D03*
X0000017906Y0000228506D03*
X0000017906Y0000222207D03*
X0000014756Y0000219058D03*
X0000014756Y0000225358D03*
X0000017907Y0000219061D03*
X0000017906Y0000231657D03*
X0000017905Y0000225358D03*
X0000021056Y0000225358D03*
X0000008280Y0000219030D03*
X0000011608Y0000215910D03*
X0000021054Y0000209611D03*
X0000014756Y0000209611D03*
X0000014756Y0000212760D03*
X0000014756Y0000215909D03*
X0000017905Y0000212760D03*
X0000017905Y0000215909D03*
X0000021853Y0000216030D03*
X0000009158Y0000101530D03*
X0000015063Y0000101530D03*
X0000020969Y0000101530D03*
X-0000005220Y0000346030D03*
X0000007280Y0000335030D03*
X0000002280Y0000337530D03*
X0000003835Y0000255475D03*
X0000002280Y0000237530D03*
X-0000000770Y0000246530D03*
X0000002780Y0000250375D03*
X0000002780Y0000246530D03*
X-0000000939Y0000228180D03*
X-0000000939Y0000231680D03*
X0000007780Y0000148030D03*
X0000007780Y0000153030D03*
X0000003252Y0000136130D03*
X0000003252Y0000101530D03*
X-0000020220Y0000342530D03*
X-0000020220Y0000332530D03*
X-0000022720Y0000295030D03*
X-0000018220Y0000290380D03*
X-0000019320Y0000295030D03*
X-0000021210Y0000271690D03*
X-0000019672Y0000263147D03*
X-0000019672Y0000255273D03*
X-0000015100Y0000255273D03*
X-0000019672Y0000251336D03*
X-0000015735Y0000219840D03*
X-0000019672Y0000231651D03*
X-0000019672Y0000211966D03*
X-0000015735Y0000208029D03*
X-0000015735Y0000211966D03*
X-0000019672Y0000208029D03*
X-0000019672Y0000196218D03*
X-0000019672Y0000192281D03*
X-0000015735Y0000196218D03*
X-0000016720Y0000155780D03*
X-0000022338Y0000101530D03*
X-0000025220Y0000332530D03*
X-0000025220Y0000327530D03*
X-0000026400Y0000306675D03*
X-0000029720Y0000306680D03*
X-0000034720Y0000306680D03*
X-0000035220Y0000292530D03*
X-0000035220Y0000289130D03*
X-0000039357Y0000267084D03*
X-0000035420Y0000267084D03*
X-0000031483Y0000267084D03*
X-0000039357Y0000255273D03*
X-0000031483Y0000259210D03*
X-0000035420Y0000259210D03*
X-0000031483Y0000263147D03*
X-0000039357Y0000263147D03*
X-0000035420Y0000251336D03*
X-0000023609Y0000251336D03*
X-0000035420Y0000255273D03*
X-0000027546Y0000251336D03*
X-0000039357Y0000259210D03*
X-0000023609Y0000255273D03*
X-0000031483Y0000255273D03*
X-0000031483Y0000251337D03*
X-0000031483Y0000243462D03*
X-0000031483Y0000247399D03*
X-0000031483Y0000239525D03*
X-0000035420Y0000239525D03*
X-0000027546Y0000235588D03*
X-0000039357Y0000239525D03*
X-0000035420Y0000235588D03*
X-0000039357Y0000235588D03*
X-0000035420Y0000231651D03*
X-0000035420Y0000219840D03*
X-0000027546Y0000227714D03*
X-0000031483Y0000227714D03*
X-0000035420Y0000227714D03*
X-0000031483Y0000231651D03*
X-0000039357Y0000219840D03*
X-0000039357Y0000231651D03*
X-0000031483Y0000215903D03*
X-0000035420Y0000204092D03*
X-0000027546Y0000208029D03*
X-0000031483Y0000204092D03*
X-0000031483Y0000211966D03*
X-0000027546Y0000211966D03*
X-0000035420Y0000208029D03*
X-0000035420Y0000211966D03*
X-0000035420Y0000215903D03*
X-0000027546Y0000215903D03*
X-0000039357Y0000215903D03*
X-0000039357Y0000208029D03*
X-0000039357Y0000204092D03*
X-0000023609Y0000211966D03*
X-0000039357Y0000192281D03*
X-0000039357Y0000188344D03*
X-0000039357Y0000196218D03*
X-0000031483Y0000188344D03*
X-0000035420Y0000192281D03*
X-0000035420Y0000200155D03*
X-0000039357Y0000200155D03*
X-0000031483Y0000192281D03*
X-0000035420Y0000196218D03*
X-0000027546Y0000188344D03*
X-0000035420Y0000188344D03*
X-0000027546Y0000200155D03*
X-0000031483Y0000200155D03*
X-0000027546Y0000196218D03*
X-0000027546Y0000192281D03*
X-0000023609Y0000192281D03*
X-0000023609Y0000184407D03*
X-0000027546Y0000180470D03*
X-0000027546Y0000184407D03*
X-0000035420Y0000180470D03*
X-0000031483Y0000180470D03*
X-0000039357Y0000180470D03*
X-0000039357Y0000184407D03*
X-0000031483Y0000184407D03*
X-0000025220Y0000158030D03*
X-0000033720Y0000157530D03*
X-0000023720Y0000136130D03*
X-0000034149Y0000101530D03*
X-0000028244Y0000101530D03*
X-0000048800Y0000317030D03*
X-0000053370Y0000278880D03*
X-0000049720Y0000278930D03*
X-0000051168Y0000267084D03*
X-0000043294Y0000267084D03*
X-0000055105Y0000267084D03*
X-0000047231Y0000267084D03*
X-0000055105Y0000251336D03*
X-0000047231Y0000259210D03*
X-0000055105Y0000255273D03*
X-0000051168Y0000251336D03*
X-0000055105Y0000259210D03*
X-0000051168Y0000263147D03*
X-0000043294Y0000263147D03*
X-0000043294Y0000259210D03*
X-0000051168Y0000259210D03*
X-0000047231Y0000255273D03*
X-0000047231Y0000263147D03*
X-0000047231Y0000251336D03*
X-0000051168Y0000255273D03*
X-0000043294Y0000251336D03*
X-0000047231Y0000239525D03*
X-0000043294Y0000247399D03*
X-0000047231Y0000247399D03*
X-0000055105Y0000239525D03*
X-0000043294Y0000243462D03*
X-0000051168Y0000235588D03*
X-0000055105Y0000243462D03*
X-0000051168Y0000247399D03*
X-0000051168Y0000243462D03*
X-0000055105Y0000235588D03*
X-0000051168Y0000239525D03*
X-0000047231Y0000235588D03*
X-0000043294Y0000239525D03*
X-0000055105Y0000231651D03*
X-0000055105Y0000219840D03*
X-0000047231Y0000227714D03*
X-0000051168Y0000219840D03*
X-0000051168Y0000231651D03*
X-0000047231Y0000231651D03*
X-0000051168Y0000227714D03*
X-0000047231Y0000219840D03*
X-0000043294Y0000227714D03*
X-0000043294Y0000231651D03*
X-0000055105Y0000215903D03*
X-0000051168Y0000215903D03*
X-0000047231Y0000204092D03*
X-0000047231Y0000208029D03*
X-0000051168Y0000208029D03*
X-0000051168Y0000211966D03*
X-0000055105Y0000211966D03*
X-0000047231Y0000211966D03*
X-0000055105Y0000208029D03*
X-0000055105Y0000204092D03*
X-0000043294Y0000215903D03*
X-0000043294Y0000211966D03*
X-0000043294Y0000208029D03*
X-0000043294Y0000188344D03*
X-0000055105Y0000192281D03*
X-0000047231Y0000200155D03*
X-0000051168Y0000196218D03*
X-0000043294Y0000196218D03*
X-0000047231Y0000196218D03*
X-0000051168Y0000188344D03*
X-0000055105Y0000188344D03*
X-0000043294Y0000200155D03*
X-0000051168Y0000200155D03*
X-0000047231Y0000192281D03*
X-0000055105Y0000196218D03*
X-0000043294Y0000192281D03*
X-0000051168Y0000192281D03*
X-0000043294Y0000180470D03*
X-0000043294Y0000184407D03*
X-0000051168Y0000184407D03*
X-0000051168Y0000180470D03*
X-0000055105Y0000180470D03*
X-0000047231Y0000184407D03*
X-0000055105Y0000184407D03*
X-0000051866Y0000136130D03*
X-0000045960Y0000101530D03*
X-0000040055Y0000101530D03*
X-0000051866Y0000101530D03*
X-0000064720Y0000343404D03*
X-0000064720Y0000339467D03*
X-0000063283Y0000320730D03*
X-0000063220Y0000316959D03*
X-0000059425Y0000328651D03*
X-0000055488Y0000328651D03*
X-0000067299Y0000328651D03*
X-0000067220Y0000320730D03*
X-0000063299Y0000324714D03*
X-0000067236Y0000324714D03*
X-0000061593Y0000309093D03*
X-0000056863Y0000306680D03*
X-0000063830Y0000299409D03*
X-0000063830Y0000302909D03*
X-0000069420Y0000303255D03*
X-0000057500Y0000292800D03*
X-0000058141Y0000297601D03*
X-0000059042Y0000267084D03*
X-0000066916Y0000267084D03*
X-0000070853Y0000267084D03*
X-0000059042Y0000263147D03*
X-0000066916Y0000263147D03*
X-0000066916Y0000259210D03*
X-0000059042Y0000255273D03*
X-0000059042Y0000259210D03*
X-0000059042Y0000251336D03*
X-0000070853Y0000259210D03*
X-0000070853Y0000255273D03*
X-0000070853Y0000263147D03*
X-0000066916Y0000251336D03*
X-0000059042Y0000235588D03*
X-0000066916Y0000235588D03*
X-0000066916Y0000239530D03*
X-0000070853Y0000247399D03*
X-0000059042Y0000243462D03*
X-0000059042Y0000247399D03*
X-0000066916Y0000247399D03*
X-0000066916Y0000243462D03*
X-0000059042Y0000239525D03*
X-0000070853Y0000239525D03*
X-0000066916Y0000219840D03*
X-0000059042Y0000219840D03*
X-0000066916Y0000227714D03*
X-0000066916Y0000231651D03*
X-0000070853Y0000227714D03*
X-0000059042Y0000227714D03*
X-0000066916Y0000211966D03*
X-0000066916Y0000208029D03*
X-0000059042Y0000211966D03*
X-0000070853Y0000208029D03*
X-0000070853Y0000215903D03*
X-0000059042Y0000204092D03*
X-0000070853Y0000204092D03*
X-0000066916Y0000204092D03*
X-0000059042Y0000208029D03*
X-0000070853Y0000211966D03*
X-0000059042Y0000192281D03*
X-0000070853Y0000196218D03*
X-0000066916Y0000192281D03*
X-0000066916Y0000188344D03*
X-0000066916Y0000196218D03*
X-0000070853Y0000188344D03*
X-0000059042Y0000196218D03*
X-0000070853Y0000192281D03*
X-0000059042Y0000200155D03*
X-0000066916Y0000200155D03*
X-0000059042Y0000180470D03*
X-0000070853Y0000180470D03*
X-0000066916Y0000180470D03*
X-0000059042Y0000184407D03*
X-0000066916Y0000184407D03*
X-0000070853Y0000184407D03*
X-0000057771Y0000136130D03*
X-0000069582Y0000136130D03*
X-0000063677Y0000136130D03*
X-0000063677Y0000101530D03*
X-0000069582Y0000101530D03*
X-0000057771Y0000101530D03*
X-0000078600Y0000346000D03*
X-0000073720Y0000346030D03*
X-0000073220Y0000335530D03*
X-0000081220Y0000343530D03*
X-0000077188Y0000337089D03*
X-0000083220Y0000304530D03*
X-0000086893Y0000300466D03*
X-0000072900Y0000284800D03*
X-0000082664Y0000267084D03*
X-0000074790Y0000267084D03*
X-0000082664Y0000270530D03*
X-0000086720Y0000270530D03*
X-0000086601Y0000267084D03*
X-0000082664Y0000255273D03*
X-0000078727Y0000251336D03*
X-0000086601Y0000255273D03*
X-0000082664Y0000251336D03*
X-0000078727Y0000259210D03*
X-0000082664Y0000259210D03*
X-0000082664Y0000263147D03*
X-0000074790Y0000255273D03*
X-0000074790Y0000251336D03*
X-0000086601Y0000259210D03*
X-0000078727Y0000255273D03*
X-0000078727Y0000243462D03*
X-0000074790Y0000247399D03*
X-0000078727Y0000247399D03*
X-0000074790Y0000227714D03*
X-0000074790Y0000219840D03*
X-0000078720Y0000219840D03*
X-0000078727Y0000227714D03*
X-0000078727Y0000208029D03*
X-0000082664Y0000204092D03*
X-0000074790Y0000204092D03*
X-0000086601Y0000208029D03*
X-0000082664Y0000211966D03*
X-0000082664Y0000215903D03*
X-0000074790Y0000215903D03*
X-0000078727Y0000215903D03*
X-0000086601Y0000204092D03*
X-0000078727Y0000211966D03*
X-0000082664Y0000208029D03*
X-0000074790Y0000211966D03*
X-0000074790Y0000208029D03*
X-0000074790Y0000196218D03*
X-0000086601Y0000200155D03*
X-0000078727Y0000192281D03*
X-0000074790Y0000192281D03*
X-0000082664Y0000200155D03*
X-0000078727Y0000196218D03*
X-0000078727Y0000188344D03*
X-0000074790Y0000200155D03*
X-0000078727Y0000200155D03*
X-0000082664Y0000196218D03*
X-0000086601Y0000192281D03*
X-0000082664Y0000188344D03*
X-0000082664Y0000192281D03*
X-0000086601Y0000188344D03*
X-0000074790Y0000184407D03*
X-0000078727Y0000184407D03*
X-0000078727Y0000180470D03*
X-0000074790Y0000180470D03*
X-0000082664Y0000180470D03*
X-0000086601Y0000180470D03*
X-0000082664Y0000184407D03*
X-0000086601Y0000184407D03*
X-0000075488Y0000136130D03*
X-0000082620Y0000115830D03*
X-0000102641Y0000304525D03*
X-0000098704Y0000304525D03*
X-0000094767Y0000304525D03*
X-0000090830Y0000304525D03*
X-0000090830Y0000300466D03*
X-0000094767Y0000300466D03*
X-0000098704Y0000300466D03*
X-0000102641Y0000300466D03*
X-0000090720Y0000296530D03*
X-0000102813Y0000291937D03*
X-0000102349Y0000271021D03*
X-0000098412Y0000271021D03*
X-0000094475Y0000267084D03*
X-0000098412Y0000267084D03*
X-0000090538Y0000259210D03*
X-0000098412Y0000259210D03*
X-0000090538Y0000263147D03*
X-0000094475Y0000259210D03*
X-0000098412Y0000219840D03*
X-0000094475Y0000219840D03*
X-0000102349Y0000219840D03*
X-0000094475Y0000208029D03*
X-0000090538Y0000208029D03*
X-0000094475Y0000211966D03*
X-0000090538Y0000211966D03*
X-0000098412Y0000211966D03*
X-0000090538Y0000204092D03*
X-0000102349Y0000204092D03*
X-0000098412Y0000204092D03*
X-0000094475Y0000215903D03*
X-0000102349Y0000215903D03*
X-0000098412Y0000215903D03*
X-0000098412Y0000208029D03*
X-0000090538Y0000215903D03*
X-0000090538Y0000196218D03*
X-0000094475Y0000196218D03*
X-0000094475Y0000188344D03*
X-0000098412Y0000188344D03*
X-0000102349Y0000188344D03*
X-0000094475Y0000192281D03*
X-0000098412Y0000192281D03*
X-0000090538Y0000192281D03*
X-0000102349Y0000192281D03*
X-0000098412Y0000200155D03*
X-0000098412Y0000196218D03*
X-0000094475Y0000200155D03*
X-0000090538Y0000200155D03*
X-0000090538Y0000188344D03*
X-0000090538Y0000184407D03*
X-0000090538Y0000180470D03*
X-0000102349Y0000184407D03*
X-0000098412Y0000180470D03*
X-0000094475Y0000180470D03*
X-0000098412Y0000184407D03*
X-0000102349Y0000180470D03*
X-0000087720Y0000146000D03*
X-0000106090Y0000304550D03*
X-0000106578Y0000300466D03*
X-0000106578Y0000296529D03*
X-0000106220Y0000292030D03*
X-0000115000Y0000219000D03*
X-0000106286Y0000219840D03*
X-0000114160Y0000208530D03*
X-0000110223Y0000204092D03*
X-0000106286Y0000211966D03*
X-0000106286Y0000215903D03*
X-0000106286Y0000204092D03*
X-0000106286Y0000188344D03*
X-0000109700Y0000192200D03*
X-0000106286Y0000200155D03*
X-0000106286Y0000192281D03*
X-0000110223Y0000196218D03*
X-0000114160Y0000196218D03*
X-0000106286Y0000184407D03*
X-0000132220Y0000236990D03*
X-0000122500Y0000219000D03*
X-0000135220Y0000239985D03*
X-0000139500Y0000240030D03*
X-0000146606Y0000225014D03*
X-0000136420Y0000229530D03*
X-0000143530Y0000224921D03*
X-0000143720Y0000219436D03*
X-0000150499Y0000232530D03*
X-0000141052Y0000232530D03*
X-0000144220Y0000232530D03*
X-0000136220Y0000211168D03*
X-0000136220Y0000207530D03*
X-0000143720Y0000213030D03*
X-0000145771Y0000195288D03*
X-0000143700Y0000202500D03*
X-0000142720Y0000195030D03*
X-0000143233Y0000180043D03*
X-0000135720Y0000186780D03*
X-0000139220Y0000186780D03*
X-0000143233Y0000186805D03*
X-0000146753Y0000186830D03*
X-0000166244Y0000235679D03*
X-0000163095Y0000235679D03*
X-0000158720Y0000225210D03*
X-0000159946Y0000232530D03*
X-0000163095Y0000232530D03*
X-0000156797Y0000232530D03*
X-0000153648Y0000232530D03*
X-0000166244Y0000232530D03*
X-0000156401Y0000202030D03*
X-0000156720Y0000194530D03*
X-0000151677Y0000202030D03*
X-0000159223Y0000186780D03*
X-0000155720Y0000180030D03*
X-0000155720Y0000186780D03*
X-0000163220Y0000186780D03*
X-0000177026Y0000240404D03*
X-0000166500Y0000222330D03*
X-0000174220Y0000222979D03*
X-0000172720Y0000232530D03*
X-0000177369Y0000219830D03*
X-0000174220Y0000219830D03*
X-0000174220Y0000229277D03*
X-0000169393Y0000232530D03*
X-0000177369Y0000229277D03*
X-0000166452Y0000217073D03*
X-0000174220Y0000204081D03*
X-0000174220Y0000216681D03*
X-0000177369Y0000216681D03*
X-0000166720Y0000202530D03*
X-0000174220Y0000200932D03*
X-0000172165Y0000189475D03*
X-0000176350Y0000189530D03*
X-0000182020Y0000189530D03*
X-0000166722Y0000180032D03*
X-0000166748Y0000186730D03*
X-0000174220Y0000180030D03*
X-0000181220Y0000175030D03*
X-0000177720Y0000175030D03*
X-0000177820Y0000180030D03*
X-0000173220Y0000175030D03*
X-0000193320Y0000225030D03*
X-0000196552Y0000224780D03*
X-0000183720Y0000232530D03*
X-0000193320Y0000219436D03*
X-0000185820Y0000220617D03*
X-0000183000Y0000223155D03*
X-0000190652Y0000232530D03*
X-0000182720Y0000219530D03*
X-0000193720Y0000232530D03*
X-0000185820Y0000215892D03*
X-0000193220Y0000213030D03*
X-0000193177Y0000209987D03*
X-0000182671Y0000208806D03*
X-0000193320Y0000202900D03*
X-0000195371Y0000194530D03*
X-0000192222Y0000194530D03*
X-0000190820Y0000186780D03*
X-0000185220Y0000180030D03*
X-0000194820Y0000186780D03*
X-0000187320Y0000186780D03*
X-0000192420Y0000175030D03*
X-0000184720Y0000175030D03*
X-0000188220Y0000175030D03*
X-0000212695Y0000235679D03*
X-0000208600Y0000224800D03*
X-0000209546Y0000232530D03*
X-0000212695Y0000232530D03*
X-0000200099Y0000232530D03*
X-0000206397Y0000232530D03*
X-0000203248Y0000232530D03*
X-0000201277Y0000202030D03*
X-0000206001Y0000202030D03*
X-0000206844Y0000194525D03*
X-0000198320Y0000186780D03*
X-0000210320Y0000186780D03*
X-0000213820Y0000186780D03*
X-0000205220Y0000180030D03*
X-0000206820Y0000186730D03*
X-0000198320Y0000180030D03*
X-0000222420Y0000235830D03*
X-0000215844Y0000235679D03*
X-0000226969Y0000219830D03*
X-0000224818Y0000226128D03*
X-0000223820Y0000222979D03*
X-0000216052Y0000221798D03*
X-0000223820Y0000219830D03*
X-0000218993Y0000232530D03*
X-0000215844Y0000232530D03*
X-0000222320Y0000232530D03*
X-0000224818Y0000229277D03*
X-0000216052Y0000217073D03*
X-0000223820Y0000204081D03*
X-0000226969Y0000210383D03*
X-0000226969Y0000216681D03*
X-0000223820Y0000216681D03*
X-0000226969Y0000213532D03*
X-0000223820Y0000200932D03*
X-0000223820Y0000197783D03*
X-0000220320Y0000189930D03*
X-0000227720Y0000190030D03*
X-0000224320Y0000189830D03*
X-0000217320Y0000186780D03*
X-0000217320Y0000180030D03*
X-0000227720Y0000180030D03*
X-0000071600Y0000292530D03*
X-0000187720Y0000259030D03*
X-0000110223Y0000247399D03*
X-0000098412Y0000235588D03*
X-0000094475Y0000235588D03*
X-0000094475Y0000239525D03*
X-0000094475Y0000243462D03*
X-0000098412Y0000239525D03*
X-0000090538Y0000239525D03*
X-0000094475Y0000247399D03*
X-0000098412Y0000247399D03*
X-0000090538Y0000235588D03*
X-0000086601Y0000235588D03*
G54D45*
X0000162371Y0000165030D03*
G54D50*
X-0000164720Y0000299030D03*
X-0000164720Y0000309030D03*
X-0000164720Y0000319030D03*
X-0000164720Y0000329030D03*
X-0000164720Y0000339030D03*
X-0000164720Y0000349030D03*
X-0000164720Y0000359030D03*
X-0000164720Y0000379030D03*
X-0000164720Y0000369030D03*
X-0000164720Y0000389030D03*
X-0000154720Y0000299030D03*
G54D41*
X-0000145636Y0000173114D03*
X-0000161620Y0000106146D03*
X-0000224612Y0000173114D03*
X-0000224612Y0000106146D03*
G54D33*
X0000187280Y0000220030D03*
X0000187280Y0000210030D03*
X0000163280Y0000220030D03*
X0000163280Y0000210030D03*
X0000163280Y0000200030D03*
G54D47*
X0000186780Y0000165030D03*
G54D46*
X0000174969Y0000183534D03*
G54D48*
X-0000226720Y0000259530D03*
X-0000226720Y0000279530D03*
X-0000226720Y0000296530D03*
X-0000226720Y0000316530D03*
X-0000226720Y0000334280D03*
X-0000226720Y0000354280D03*
X-0000206720Y0000259530D03*
X-0000206720Y0000279530D03*
X-0000206720Y0000296530D03*
X-0000206720Y0000316530D03*
X-0000206720Y0000334280D03*
X-0000206720Y0000354280D03*
G54D36*
X0000174280Y0000118530D03*
X0000122280Y0000382530D03*
X-0000105720Y0000118530D03*
X-0000220220Y0000382530D03*
G54D34*
X0000187280Y0000200030D03*
%LPD*%
G75*
G54D10*
X-0000226720Y0000259530D03*
X-0000226720Y0000279530D03*
X-0000226720Y0000296530D03*
X-0000226720Y0000316530D03*
X-0000226720Y0000334280D03*
X-0000226720Y0000354280D03*
X-0000206720Y0000259530D03*
X-0000206720Y0000279530D03*
X-0000206720Y0000296530D03*
X-0000206720Y0000316530D03*
X-0000206720Y0000334280D03*
X-0000206720Y0000354280D03*
G54D11*
X-0000220220Y0000382530D03*
X-0000105720Y0000118530D03*
X0000122280Y0000382530D03*
X0000174280Y0000118530D03*
G54D20*
X-0000181634Y0000374530D03*
X-0000195807Y0000374530D03*
X-0000188720Y0000381617D03*
G54D12*
X-0000221220Y0000087530D03*
X-0000221220Y0000406530D03*
X0000179280Y0000087530D03*
X0000179280Y0000406530D03*
G54D21*
X-0000164720Y0000299030D03*
X-0000164720Y0000309030D03*
X-0000164720Y0000319030D03*
X-0000164720Y0000329030D03*
X-0000164720Y0000339030D03*
X-0000164720Y0000349030D03*
X-0000164720Y0000359030D03*
X-0000164720Y0000379030D03*
X-0000164720Y0000369030D03*
X-0000164720Y0000389030D03*
X-0000154720Y0000299030D03*
X-0000154720Y0000309030D03*
X-0000154720Y0000329030D03*
X-0000154720Y0000319030D03*
X-0000154720Y0000339030D03*
X-0000154720Y0000359030D03*
X-0000154720Y0000349030D03*
X-0000154720Y0000369030D03*
X-0000154720Y0000379030D03*
X-0000154720Y0000389030D03*
G54D30*
X0000174969Y0000183534D03*
G54D31*
X0000187280Y0000200030D03*
G54D13*
X-0000224612Y0000106146D03*
X-0000224612Y0000173114D03*
X-0000161620Y0000106146D03*
X-0000145636Y0000173114D03*
G54D22*
X-0000126590Y0000371530D03*
X-0000126590Y0000389837D03*
X-0000097850Y0000371530D03*
X-0000097850Y0000389837D03*
X-0000084590Y0000371530D03*
X-0000084590Y0000389837D03*
X-0000055850Y0000371530D03*
X-0000055850Y0000389837D03*
G54D14*
X-0000227720Y0000180030D03*
X-0000217320Y0000180030D03*
X-0000217320Y0000186780D03*
X-0000217220Y0000175530D03*
X-0000216082Y0000202330D03*
X-0000224320Y0000189830D03*
X-0000220320Y0000189930D03*
X-0000223820Y0000200932D03*
X-0000217320Y0000194530D03*
X-0000223820Y0000197783D03*
X-0000227720Y0000190030D03*
X-0000223820Y0000204081D03*
X-0000226969Y0000216681D03*
X-0000223820Y0000216681D03*
X-0000223820Y0000213532D03*
X-0000226969Y0000213532D03*
X-0000226969Y0000210383D03*
X-0000223720Y0000207530D03*
X-0000216220Y0000208530D03*
X-0000216220Y0000206030D03*
X-0000216052Y0000217073D03*
X-0000223820Y0000211168D03*
X-0000223820Y0000222979D03*
X-0000218993Y0000232530D03*
X-0000224818Y0000226128D03*
X-0000226969Y0000219830D03*
X-0000224818Y0000229277D03*
X-0000223820Y0000219830D03*
X-0000215844Y0000232530D03*
X-0000222320Y0000232530D03*
X-0000216052Y0000221798D03*
X-0000215844Y0000235679D03*
X-0000222420Y0000235830D03*
X-0000198320Y0000180030D03*
X-0000205220Y0000180030D03*
X-0000210320Y0000186780D03*
X-0000213820Y0000186780D03*
X-0000206820Y0000186730D03*
X-0000198320Y0000186780D03*
X-0000198220Y0000175530D03*
X-0000210726Y0000202030D03*
X-0000201277Y0000202030D03*
X-0000206001Y0000202030D03*
X-0000206844Y0000194525D03*
X-0000213320Y0000202030D03*
X-0000208600Y0000224800D03*
X-0000200099Y0000232530D03*
X-0000212695Y0000232530D03*
X-0000203248Y0000232530D03*
X-0000209546Y0000232530D03*
X-0000206397Y0000232530D03*
X-0000212695Y0000235679D03*
X-0000185220Y0000180030D03*
X-0000184720Y0000175030D03*
X-0000187320Y0000186780D03*
X-0000190820Y0000186780D03*
X-0000194820Y0000186780D03*
X-0000192420Y0000175030D03*
X-0000188220Y0000175030D03*
X-0000193320Y0000202900D03*
X-0000195371Y0000194530D03*
X-0000192222Y0000194530D03*
X-0000189073Y0000194530D03*
X-0000185820Y0000211168D03*
X-0000185820Y0000215892D03*
X-0000193177Y0000209987D03*
X-0000193220Y0000216030D03*
X-0000185820Y0000218254D03*
X-0000185820Y0000204081D03*
X-0000193220Y0000213030D03*
X-0000185820Y0000208806D03*
X-0000182671Y0000208806D03*
X-0000193320Y0000225030D03*
X-0000196552Y0000224780D03*
X-0000193320Y0000219436D03*
X-0000183000Y0000223155D03*
X-0000190652Y0000232530D03*
X-0000182720Y0000219530D03*
X-0000187320Y0000232530D03*
X-0000183720Y0000232530D03*
X-0000185820Y0000220617D03*
X-0000193720Y0000232530D03*
X-0000191220Y0000259030D03*
X-0000187720Y0000259030D03*
X-0000194220Y0000259030D03*
X-0000174220Y0000180030D03*
X-0000166720Y0000175530D03*
X-0000166748Y0000186730D03*
X-0000177720Y0000175030D03*
X-0000181220Y0000175030D03*
X-0000166722Y0000180032D03*
X-0000173220Y0000175030D03*
X-0000177820Y0000180030D03*
X-0000166720Y0000202530D03*
X-0000167720Y0000194530D03*
X-0000176350Y0000189530D03*
X-0000174220Y0000200932D03*
X-0000172165Y0000189475D03*
X-0000182020Y0000189530D03*
X-0000174220Y0000204081D03*
X-0000166720Y0000208530D03*
X-0000166720Y0000206030D03*
X-0000174220Y0000207530D03*
X-0000174220Y0000211168D03*
X-0000166452Y0000217073D03*
X-0000174220Y0000213532D03*
X-0000177369Y0000216681D03*
X-0000177369Y0000213532D03*
X-0000177220Y0000211030D03*
X-0000174220Y0000216681D03*
X-0000174220Y0000222979D03*
X-0000169393Y0000232530D03*
X-0000172720Y0000232530D03*
X-0000166500Y0000222330D03*
X-0000177369Y0000229277D03*
X-0000174220Y0000219830D03*
X-0000174220Y0000229277D03*
X-0000177369Y0000219830D03*
X-0000177026Y0000240404D03*
X-0000155720Y0000180030D03*
X-0000163220Y0000186780D03*
X-0000159223Y0000186780D03*
X-0000155720Y0000186780D03*
X-0000156401Y0000202030D03*
X-0000156720Y0000194530D03*
X-0000161126Y0000202030D03*
X-0000151677Y0000202030D03*
X-0000163720Y0000202030D03*
X-0000158720Y0000225210D03*
X-0000156797Y0000232530D03*
X-0000166244Y0000232530D03*
X-0000153648Y0000232530D03*
X-0000163095Y0000232530D03*
X-0000159946Y0000232530D03*
X-0000153157Y0000240030D03*
X-0000157094Y0000240030D03*
X-0000161031Y0000240030D03*
X-0000164968Y0000240030D03*
X-0000163095Y0000235679D03*
X-0000166244Y0000235679D03*
X-0000143233Y0000180043D03*
X-0000143233Y0000186805D03*
X-0000135720Y0000186780D03*
X-0000139220Y0000186780D03*
X-0000146753Y0000186830D03*
X-0000145771Y0000195288D03*
X-0000143700Y0000202500D03*
X-0000139220Y0000195030D03*
X-0000142720Y0000195030D03*
X-0000136220Y0000211168D03*
X-0000136220Y0000215892D03*
X-0000143720Y0000216030D03*
X-0000136100Y0000203325D03*
X-0000136220Y0000207530D03*
X-0000143720Y0000213030D03*
X-0000143720Y0000209030D03*
X-0000136220Y0000218254D03*
X-0000143720Y0000206030D03*
X-0000146606Y0000225014D03*
X-0000143530Y0000224921D03*
X-0000143720Y0000219436D03*
X-0000137720Y0000232530D03*
X-0000136220Y0000220617D03*
X-0000136420Y0000229530D03*
X-0000150499Y0000232530D03*
X-0000141052Y0000232530D03*
X-0000136220Y0000223602D03*
X-0000144220Y0000232530D03*
X-0000149220Y0000240030D03*
X-0000139500Y0000240030D03*
X-0000135220Y0000239985D03*
X-0000120220Y0000212030D03*
X-0000122500Y0000219000D03*
X-0000132220Y0000236990D03*
X-0000106286Y0000184407D03*
X-0000106286Y0000180470D03*
X-0000106286Y0000188344D03*
X-0000106286Y0000200155D03*
X-0000106286Y0000192281D03*
X-0000109700Y0000192200D03*
X-0000110223Y0000196218D03*
X-0000114160Y0000196218D03*
X-0000106286Y0000211966D03*
X-0000114160Y0000208530D03*
X-0000110223Y0000204092D03*
X-0000106286Y0000215903D03*
X-0000106286Y0000204092D03*
X-0000117220Y0000211966D03*
X-0000109100Y0000227800D03*
X-0000106286Y0000227714D03*
X-0000113720Y0000227485D03*
X-0000106286Y0000219840D03*
X-0000115000Y0000219000D03*
X-0000110223Y0000247399D03*
X-0000110223Y0000243462D03*
X-0000106286Y0000263147D03*
X-0000106286Y0000267084D03*
X-0000106220Y0000292030D03*
X-0000106578Y0000296529D03*
X-0000106578Y0000300466D03*
X-0000106090Y0000304550D03*
X-0000087720Y0000146000D03*
X-0000090538Y0000180470D03*
X-0000102349Y0000184407D03*
X-0000098412Y0000180470D03*
X-0000090538Y0000184407D03*
X-0000094475Y0000184407D03*
X-0000094475Y0000180470D03*
X-0000098412Y0000184407D03*
X-0000102349Y0000180470D03*
X-0000094475Y0000192281D03*
X-0000098412Y0000192281D03*
X-0000090538Y0000192281D03*
X-0000094475Y0000196218D03*
X-0000090538Y0000196218D03*
X-0000094475Y0000188344D03*
X-0000098412Y0000188344D03*
X-0000102349Y0000188344D03*
X-0000102349Y0000192281D03*
X-0000102349Y0000196218D03*
X-0000098412Y0000200155D03*
X-0000098412Y0000196218D03*
X-0000094475Y0000200155D03*
X-0000090538Y0000200155D03*
X-0000090538Y0000188344D03*
X-0000094475Y0000208029D03*
X-0000090538Y0000208029D03*
X-0000094475Y0000211966D03*
X-0000090538Y0000211966D03*
X-0000098412Y0000211966D03*
X-0000090538Y0000204092D03*
X-0000102349Y0000204092D03*
X-0000098412Y0000204092D03*
X-0000094475Y0000215903D03*
X-0000094475Y0000204092D03*
X-0000102349Y0000211966D03*
X-0000102349Y0000215903D03*
X-0000098412Y0000215903D03*
X-0000098412Y0000208029D03*
X-0000090538Y0000215903D03*
X-0000098412Y0000219840D03*
X-0000094475Y0000219840D03*
X-0000090538Y0000231651D03*
X-0000094475Y0000231651D03*
X-0000090538Y0000227714D03*
X-0000094475Y0000227714D03*
X-0000102349Y0000227714D03*
X-0000102349Y0000219840D03*
X-0000090538Y0000243462D03*
X-0000090538Y0000235588D03*
X-0000098412Y0000247399D03*
X-0000094475Y0000247399D03*
X-0000090538Y0000239525D03*
X-0000098412Y0000239525D03*
X-0000094475Y0000243462D03*
X-0000094475Y0000239525D03*
X-0000094475Y0000235588D03*
X-0000090538Y0000247399D03*
X-0000098412Y0000235588D03*
X-0000098412Y0000259210D03*
X-0000090538Y0000259210D03*
X-0000102349Y0000259210D03*
X-0000094475Y0000251336D03*
X-0000098412Y0000251336D03*
X-0000102349Y0000255273D03*
X-0000090538Y0000255273D03*
X-0000090538Y0000263147D03*
X-0000094475Y0000259210D03*
X-0000102349Y0000271021D03*
X-0000098412Y0000271021D03*
X-0000094475Y0000267084D03*
X-0000098412Y0000267084D03*
X-0000090720Y0000296530D03*
X-0000102813Y0000291937D03*
X-0000094767Y0000300466D03*
X-0000090830Y0000300466D03*
X-0000094767Y0000304525D03*
X-0000098704Y0000304525D03*
X-0000098704Y0000300466D03*
X-0000090830Y0000304525D03*
X-0000102641Y0000300466D03*
X-0000102641Y0000304525D03*
X-0000071535Y0000113841D03*
X-0000082620Y0000115830D03*
X-0000073735Y0000113841D03*
X-0000078587Y0000122429D03*
X-0000078587Y0000124629D03*
X-0000075488Y0000136130D03*
X-0000082664Y0000184407D03*
X-0000086601Y0000184407D03*
X-0000074790Y0000184407D03*
X-0000078727Y0000184407D03*
X-0000078727Y0000180470D03*
X-0000082664Y0000180470D03*
X-0000086601Y0000180470D03*
X-0000074790Y0000180470D03*
X-0000086601Y0000200155D03*
X-0000078727Y0000192281D03*
X-0000074790Y0000192281D03*
X-0000082664Y0000200155D03*
X-0000078727Y0000196218D03*
X-0000078727Y0000188344D03*
X-0000074790Y0000196218D03*
X-0000074790Y0000200155D03*
X-0000078727Y0000200155D03*
X-0000082664Y0000196218D03*
X-0000074790Y0000188344D03*
X-0000086601Y0000196218D03*
X-0000086601Y0000192281D03*
X-0000082664Y0000188344D03*
X-0000082664Y0000192281D03*
X-0000086601Y0000188344D03*
X-0000078727Y0000208029D03*
X-0000082664Y0000204092D03*
X-0000082664Y0000215903D03*
X-0000082664Y0000211966D03*
X-0000086601Y0000208029D03*
X-0000074790Y0000204092D03*
X-0000074790Y0000215903D03*
X-0000078727Y0000215903D03*
X-0000078727Y0000204092D03*
X-0000086601Y0000211966D03*
X-0000086601Y0000204092D03*
X-0000078727Y0000211966D03*
X-0000082664Y0000208029D03*
X-0000074790Y0000211966D03*
X-0000074790Y0000208029D03*
X-0000074790Y0000227714D03*
X-0000078727Y0000231651D03*
X-0000086601Y0000231651D03*
X-0000082664Y0000219840D03*
X-0000082664Y0000231651D03*
X-0000074790Y0000231651D03*
X-0000074790Y0000219840D03*
X-0000078720Y0000219840D03*
X-0000078727Y0000227714D03*
X-0000078727Y0000239525D03*
X-0000078727Y0000243462D03*
X-0000082664Y0000235588D03*
X-0000078727Y0000235588D03*
X-0000074790Y0000235588D03*
X-0000082664Y0000247399D03*
X-0000086601Y0000247399D03*
X-0000074790Y0000243462D03*
X-0000082664Y0000243462D03*
X-0000086601Y0000235588D03*
X-0000074790Y0000239525D03*
X-0000074790Y0000247399D03*
X-0000078727Y0000247399D03*
X-0000086601Y0000239525D03*
X-0000082664Y0000255273D03*
X-0000086601Y0000259210D03*
X-0000086601Y0000263147D03*
X-0000074790Y0000263147D03*
X-0000082664Y0000251336D03*
X-0000078727Y0000259210D03*
X-0000082664Y0000259210D03*
X-0000082664Y0000263147D03*
X-0000074790Y0000255273D03*
X-0000074790Y0000251336D03*
X-0000078727Y0000251336D03*
X-0000086601Y0000255273D03*
X-0000078727Y0000255273D03*
X-0000082664Y0000267084D03*
X-0000074790Y0000267084D03*
X-0000086725Y0000276280D03*
X-0000082664Y0000270530D03*
X-0000086720Y0000270530D03*
X-0000086601Y0000267084D03*
X-0000086631Y0000273919D03*
X-0000072900Y0000284800D03*
X-0000071600Y0000292530D03*
X-0000086893Y0000300466D03*
X-0000083220Y0000304530D03*
X-0000086893Y0000304403D03*
X-0000073220Y0000335530D03*
X-0000081220Y0000343530D03*
X-0000081220Y0000339530D03*
X-0000077188Y0000337089D03*
X-0000073720Y0000346030D03*
X-0000078600Y0000346000D03*
X-0000063677Y0000101530D03*
X-0000057771Y0000101530D03*
X-0000069582Y0000101530D03*
X-0000066720Y0000121330D03*
X-0000065530Y0000116688D03*
X-0000067730Y0000116688D03*
X-0000058720Y0000116730D03*
X-0000055669Y0000113779D03*
X-0000060920Y0000116730D03*
X-0000059464Y0000119030D03*
X-0000070720Y0000119030D03*
X-0000059625Y0000124272D03*
X-0000061825Y0000124272D03*
X-0000069220Y0000124530D03*
X-0000057771Y0000136130D03*
X-0000069582Y0000136130D03*
X-0000063677Y0000136130D03*
X-0000066720Y0000123530D03*
X-0000059042Y0000184407D03*
X-0000066916Y0000184407D03*
X-0000070853Y0000184407D03*
X-0000070853Y0000180470D03*
X-0000059042Y0000180470D03*
X-0000066916Y0000180470D03*
X-0000066916Y0000196218D03*
X-0000070853Y0000188344D03*
X-0000059042Y0000196218D03*
X-0000070853Y0000192281D03*
X-0000070853Y0000196218D03*
X-0000066916Y0000192281D03*
X-0000059042Y0000192281D03*
X-0000066916Y0000188344D03*
X-0000059042Y0000200155D03*
X-0000066916Y0000200155D03*
X-0000059042Y0000188344D03*
X-0000070853Y0000200155D03*
X-0000059042Y0000211966D03*
X-0000070853Y0000208029D03*
X-0000070853Y0000215903D03*
X-0000059042Y0000204092D03*
X-0000070853Y0000204092D03*
X-0000066916Y0000204092D03*
X-0000066916Y0000215903D03*
X-0000059042Y0000215903D03*
X-0000066916Y0000211966D03*
X-0000066916Y0000208029D03*
X-0000059042Y0000208029D03*
X-0000070853Y0000211966D03*
X-0000070853Y0000227714D03*
X-0000066916Y0000227714D03*
X-0000066916Y0000219840D03*
X-0000059042Y0000219840D03*
X-0000066916Y0000231651D03*
X-0000059042Y0000227714D03*
X-0000070853Y0000219840D03*
X-0000070853Y0000231651D03*
X-0000059042Y0000231651D03*
X-0000059042Y0000235588D03*
X-0000066916Y0000235588D03*
X-0000066916Y0000239530D03*
X-0000070853Y0000235588D03*
X-0000070853Y0000247399D03*
X-0000070853Y0000243462D03*
X-0000059042Y0000243462D03*
X-0000059042Y0000247399D03*
X-0000066916Y0000247399D03*
X-0000066916Y0000243462D03*
X-0000059042Y0000239525D03*
X-0000070853Y0000239525D03*
X-0000059042Y0000263147D03*
X-0000066916Y0000263147D03*
X-0000066916Y0000259210D03*
X-0000059042Y0000255273D03*
X-0000059042Y0000259210D03*
X-0000059042Y0000251336D03*
X-0000070853Y0000259210D03*
X-0000066916Y0000255273D03*
X-0000070853Y0000255273D03*
X-0000070853Y0000263147D03*
X-0000066916Y0000251336D03*
X-0000059042Y0000267084D03*
X-0000066916Y0000267084D03*
X-0000070853Y0000267084D03*
X-0000070000Y0000285300D03*
X-0000057500Y0000292800D03*
X-0000068220Y0000287030D03*
X-0000068220Y0000290030D03*
X-0000058141Y0000297601D03*
X-0000069420Y0000300155D03*
X-0000069420Y0000303255D03*
X-0000063830Y0000299409D03*
X-0000063830Y0000302909D03*
X-0000056863Y0000306680D03*
X-0000061593Y0000309093D03*
X-0000055488Y0000328651D03*
X-0000059425Y0000328651D03*
X-0000067220Y0000320730D03*
X-0000063220Y0000316959D03*
X-0000067236Y0000324714D03*
X-0000067299Y0000328651D03*
X-0000063299Y0000324714D03*
X-0000063283Y0000320730D03*
X-0000064720Y0000343404D03*
X-0000064720Y0000339467D03*
X-0000064600Y0000335135D03*
X-0000040055Y0000101530D03*
X-0000051866Y0000101530D03*
X-0000045960Y0000101530D03*
X-0000051911Y0000121330D03*
X-0000042320Y0000116730D03*
X-0000051213Y0000115341D03*
X-0000049013Y0000115341D03*
X-0000044520Y0000116730D03*
X-0000053520Y0000113830D03*
X-0000044107Y0000137643D03*
X-0000051911Y0000123530D03*
X-0000041907Y0000137643D03*
X-0000051866Y0000136130D03*
X-0000046720Y0000136530D03*
X-0000047120Y0000140230D03*
X-0000047120Y0000142430D03*
X-0000042412Y0000156088D03*
X-0000042412Y0000158680D03*
X-0000051168Y0000184407D03*
X-0000043294Y0000180470D03*
X-0000051168Y0000180470D03*
X-0000055105Y0000180470D03*
X-0000047231Y0000184407D03*
X-0000043294Y0000184407D03*
X-0000055105Y0000184407D03*
X-0000047231Y0000200155D03*
X-0000051168Y0000196218D03*
X-0000043294Y0000196218D03*
X-0000047231Y0000196218D03*
X-0000051168Y0000188344D03*
X-0000055105Y0000188344D03*
X-0000043294Y0000188344D03*
X-0000055105Y0000192281D03*
X-0000043294Y0000200155D03*
X-0000051168Y0000200155D03*
X-0000047231Y0000188344D03*
X-0000055105Y0000200155D03*
X-0000047231Y0000192281D03*
X-0000055105Y0000196218D03*
X-0000043294Y0000192281D03*
X-0000051168Y0000192281D03*
X-0000047231Y0000204092D03*
X-0000047231Y0000208029D03*
X-0000051168Y0000208029D03*
X-0000051168Y0000211966D03*
X-0000055105Y0000211966D03*
X-0000047231Y0000211966D03*
X-0000055105Y0000208029D03*
X-0000055105Y0000204092D03*
X-0000043294Y0000204092D03*
X-0000051168Y0000204092D03*
X-0000055105Y0000215903D03*
X-0000051168Y0000215903D03*
X-0000043294Y0000215903D03*
X-0000043294Y0000211966D03*
X-0000043294Y0000208029D03*
X-0000055105Y0000231651D03*
X-0000055105Y0000219840D03*
X-0000043294Y0000219840D03*
X-0000055105Y0000227714D03*
X-0000047231Y0000227714D03*
X-0000051168Y0000219840D03*
X-0000051168Y0000231651D03*
X-0000047231Y0000231651D03*
X-0000051168Y0000227714D03*
X-0000047231Y0000219840D03*
X-0000043294Y0000227714D03*
X-0000043294Y0000231651D03*
X-0000047231Y0000239525D03*
X-0000043294Y0000247399D03*
X-0000047231Y0000247399D03*
X-0000055105Y0000239525D03*
X-0000043294Y0000243462D03*
X-0000051168Y0000235588D03*
X-0000043294Y0000235588D03*
X-0000055105Y0000247399D03*
X-0000047231Y0000243462D03*
X-0000055105Y0000243462D03*
X-0000051168Y0000247399D03*
X-0000051168Y0000243462D03*
X-0000055105Y0000235588D03*
X-0000051168Y0000239525D03*
X-0000047231Y0000235588D03*
X-0000043294Y0000239525D03*
X-0000055105Y0000251336D03*
X-0000047231Y0000259210D03*
X-0000055105Y0000255273D03*
X-0000051168Y0000251336D03*
X-0000055105Y0000259210D03*
X-0000051168Y0000263147D03*
X-0000043294Y0000263147D03*
X-0000043294Y0000259210D03*
X-0000051168Y0000259210D03*
X-0000043294Y0000255273D03*
X-0000055105Y0000263147D03*
X-0000047231Y0000255273D03*
X-0000047231Y0000263147D03*
X-0000047231Y0000251336D03*
X-0000051168Y0000255273D03*
X-0000043294Y0000251336D03*
X-0000051168Y0000267084D03*
X-0000043294Y0000267084D03*
X-0000055105Y0000267084D03*
X-0000047231Y0000267084D03*
X-0000049720Y0000278930D03*
X-0000053370Y0000278880D03*
X-0000048800Y0000317030D03*
X-0000034149Y0000101530D03*
X-0000028244Y0000101530D03*
X-0000038220Y0000123373D03*
X-0000024820Y0000122430D03*
X-0000027019Y0000122430D03*
X-0000029820Y0000116630D03*
X-0000027123Y0000116669D03*
X-0000038202Y0000113541D03*
X-0000024923Y0000116669D03*
X-0000032020Y0000116630D03*
X-0000036002Y0000113541D03*
X-0000034464Y0000119030D03*
X-0000036020Y0000123373D03*
X-0000032296Y0000137643D03*
X-0000030096Y0000137643D03*
X-0000039120Y0000137530D03*
X-0000028244Y0000136130D03*
X-0000034149Y0000136130D03*
X-0000023720Y0000136130D03*
X-0000025220Y0000158030D03*
X-0000033720Y0000157530D03*
X-0000039357Y0000184407D03*
X-0000027546Y0000184407D03*
X-0000027546Y0000180470D03*
X-0000035420Y0000180470D03*
X-0000031483Y0000180470D03*
X-0000023609Y0000184407D03*
X-0000039357Y0000180470D03*
X-0000035420Y0000184407D03*
X-0000031483Y0000184407D03*
X-0000039357Y0000192281D03*
X-0000039357Y0000188344D03*
X-0000039357Y0000196218D03*
X-0000031483Y0000188344D03*
X-0000035420Y0000192281D03*
X-0000035420Y0000200155D03*
X-0000039357Y0000200155D03*
X-0000031483Y0000192281D03*
X-0000035420Y0000196218D03*
X-0000027546Y0000188344D03*
X-0000035420Y0000188344D03*
X-0000027546Y0000200155D03*
X-0000031483Y0000200155D03*
X-0000027546Y0000196218D03*
X-0000027546Y0000192281D03*
X-0000023609Y0000192281D03*
X-0000031483Y0000196218D03*
X-0000023609Y0000196218D03*
X-0000031483Y0000215903D03*
X-0000035420Y0000204092D03*
X-0000027546Y0000208029D03*
X-0000031483Y0000204092D03*
X-0000031483Y0000211966D03*
X-0000027546Y0000211966D03*
X-0000035420Y0000208029D03*
X-0000035420Y0000211966D03*
X-0000035420Y0000215903D03*
X-0000023609Y0000208029D03*
X-0000031483Y0000208029D03*
X-0000039357Y0000211966D03*
X-0000027546Y0000215903D03*
X-0000039357Y0000215903D03*
X-0000039357Y0000208029D03*
X-0000039357Y0000204092D03*
X-0000023609Y0000211966D03*
X-0000031483Y0000219840D03*
X-0000039357Y0000227714D03*
X-0000023609Y0000227714D03*
X-0000035420Y0000231651D03*
X-0000035420Y0000219840D03*
X-0000027546Y0000227714D03*
X-0000031483Y0000227714D03*
X-0000035420Y0000227714D03*
X-0000031483Y0000231651D03*
X-0000039357Y0000219840D03*
X-0000039357Y0000231651D03*
X-0000031483Y0000243462D03*
X-0000031483Y0000247399D03*
X-0000023609Y0000247399D03*
X-0000027546Y0000247399D03*
X-0000035420Y0000247399D03*
X-0000027546Y0000243462D03*
X-0000039357Y0000247399D03*
X-0000039357Y0000243462D03*
X-0000035420Y0000243462D03*
X-0000023609Y0000243462D03*
X-0000031483Y0000235588D03*
X-0000031483Y0000239525D03*
X-0000035420Y0000239525D03*
X-0000027546Y0000235588D03*
X-0000039357Y0000239525D03*
X-0000035420Y0000235588D03*
X-0000039357Y0000235588D03*
X-0000039357Y0000255273D03*
X-0000031483Y0000259210D03*
X-0000035420Y0000259210D03*
X-0000031483Y0000263147D03*
X-0000039357Y0000263147D03*
X-0000031483Y0000255273D03*
X-0000035420Y0000251336D03*
X-0000023609Y0000251336D03*
X-0000031483Y0000251337D03*
X-0000035420Y0000255273D03*
X-0000027546Y0000251336D03*
X-0000027546Y0000263147D03*
X-0000027546Y0000255273D03*
X-0000035420Y0000263147D03*
X-0000039357Y0000259210D03*
X-0000023609Y0000255273D03*
X-0000039357Y0000267084D03*
X-0000035420Y0000267084D03*
X-0000031483Y0000267084D03*
X-0000035220Y0000292530D03*
X-0000035220Y0000289130D03*
X-0000029720Y0000306680D03*
X-0000034720Y0000306680D03*
X-0000026400Y0000306675D03*
X-0000025220Y0000327530D03*
X-0000025220Y0000332530D03*
X-0000022338Y0000101530D03*
X-0000014477Y0000115830D03*
X-0000014477Y0000113630D03*
X-0000022720Y0000115230D03*
X-0000020486Y0000121672D03*
X-0000018286Y0000121672D03*
X-0000016720Y0000155780D03*
X-0000019672Y0000180470D03*
X-0000019672Y0000196218D03*
X-0000019672Y0000192281D03*
X-0000015735Y0000196218D03*
X-0000015735Y0000208029D03*
X-0000015735Y0000211966D03*
X-0000019672Y0000211966D03*
X-0000019672Y0000208029D03*
X-0000019672Y0000227714D03*
X-0000015735Y0000219840D03*
X-0000019672Y0000231651D03*
X-0000019672Y0000263147D03*
X-0000019300Y0000259900D03*
X-0000019672Y0000255273D03*
X-0000017695Y0000257600D03*
X-0000015100Y0000255273D03*
X-0000019672Y0000251336D03*
X-0000021210Y0000271690D03*
X-0000019672Y0000267084D03*
X-0000019320Y0000295030D03*
X-0000022720Y0000295030D03*
X-0000018220Y0000290380D03*
X-0000020220Y0000332530D03*
X-0000020220Y0000342530D03*
X0000003252Y0000101530D03*
X0000007305Y0000114741D03*
X0000005105Y0000114741D03*
X0000002280Y0000114530D03*
X0000007780Y0000119030D03*
X0000007305Y0000124020D03*
X0000005105Y0000124020D03*
X0000003252Y0000136130D03*
X0000007780Y0000153030D03*
X0000007780Y0000148030D03*
X-0000000939Y0000231680D03*
X-0000000939Y0000228180D03*
X0000002280Y0000220530D03*
X-0000007220Y0000250530D03*
X-0000007220Y0000240530D03*
X-0000004270Y0000246500D03*
X-0000007220Y0000235530D03*
X-0000000770Y0000246530D03*
X0000002280Y0000237530D03*
X0000002780Y0000246530D03*
X0000002780Y0000250375D03*
X-0000007220Y0000255375D03*
X0000003835Y0000255475D03*
X0000002280Y0000337530D03*
X0000007280Y0000335030D03*
X-0000005220Y0000346030D03*
X0000020969Y0000101530D03*
X0000015063Y0000101530D03*
X0000009158Y0000101530D03*
X0000012326Y0000114730D03*
X0000023680Y0000114630D03*
X0000019116Y0000114741D03*
X0000016916Y0000114741D03*
X0000010126Y0000114730D03*
X0000019276Y0000119030D03*
X0000022822Y0000137643D03*
X0000011011Y0000137643D03*
X0000016916Y0000124020D03*
X0000013211Y0000137643D03*
X0000009680Y0000124030D03*
X0000015063Y0000136130D03*
X0000020969Y0000136130D03*
X0000019116Y0000124020D03*
X0000021853Y0000216030D03*
X0000011607Y0000212760D03*
X0000011607Y0000209611D03*
X0000017905Y0000212760D03*
X0000014756Y0000215909D03*
X0000014756Y0000212760D03*
X0000017905Y0000215909D03*
X0000021054Y0000209611D03*
X0000011608Y0000215910D03*
X0000014756Y0000209611D03*
X0000021056Y0000219061D03*
X0000017905Y0000225358D03*
X0000008280Y0000219030D03*
X0000011608Y0000222209D03*
X0000014757Y0000222209D03*
X0000011608Y0000228508D03*
X0000014756Y0000228507D03*
X0000014756Y0000225358D03*
X0000017907Y0000219061D03*
X0000021056Y0000225358D03*
X0000017906Y0000231657D03*
X0000011608Y0000219060D03*
X0000011608Y0000225358D03*
X0000017906Y0000228506D03*
X0000014756Y0000219058D03*
X0000017906Y0000222207D03*
X0000011607Y0000247405D03*
X0000017906Y0000237955D03*
X0000017906Y0000234806D03*
X0000014757Y0000234806D03*
X0000011607Y0000250554D03*
X0000014757Y0000237955D03*
X0000011607Y0000253703D03*
X0000011607Y0000260001D03*
X0000011607Y0000256852D03*
X0000019280Y0000343530D03*
X0000019280Y0000335030D03*
X0000019780Y0000354439D03*
X0000038686Y0000101530D03*
X0000032780Y0000101530D03*
X0000026874Y0000101530D03*
X0000038280Y0000121330D03*
X0000028727Y0000114741D03*
X0000034633Y0000114741D03*
X0000036833Y0000114741D03*
X0000025880Y0000114630D03*
X0000030927Y0000114741D03*
X0000032780Y0000119030D03*
X0000025022Y0000137643D03*
X0000028727Y0000123972D03*
X0000036833Y0000137643D03*
X0000030926Y0000123972D03*
X0000026874Y0000136130D03*
X0000032480Y0000136230D03*
X0000038686Y0000136130D03*
X0000034633Y0000137643D03*
X0000035080Y0000185830D03*
X0000037080Y0000183430D03*
X0000037280Y0000187985D03*
X0000030505Y0000215912D03*
X0000024957Y0000216030D03*
X0000030505Y0000212763D03*
X0000039952Y0000212763D03*
X0000036803Y0000209614D03*
X0000033654Y0000212763D03*
X0000033654Y0000209614D03*
X0000033654Y0000215912D03*
X0000039952Y0000209411D03*
X0000039952Y0000215709D03*
X0000039952Y0000206262D03*
X0000030503Y0000222210D03*
X0000036803Y0000225359D03*
X0000027354Y0000222210D03*
X0000027280Y0000219030D03*
X0000030503Y0000231657D03*
X0000025854Y0000232511D03*
X0000025780Y0000230030D03*
X0000036803Y0000231657D03*
X0000039952Y0000219059D03*
X0000039952Y0000228508D03*
X0000036803Y0000222210D03*
X0000033654Y0000228508D03*
X0000030503Y0000219061D03*
X0000030503Y0000225359D03*
X0000027354Y0000225359D03*
X0000036803Y0000228508D03*
X0000033654Y0000225359D03*
X0000033654Y0000231657D03*
X0000039952Y0000231657D03*
X0000039952Y0000225359D03*
X0000039952Y0000222210D03*
X0000033654Y0000219061D03*
X0000036803Y0000234806D03*
X0000027354Y0000237958D03*
X0000027354Y0000247405D03*
X0000024205Y0000234809D03*
X0000027354Y0000241107D03*
X0000024205Y0000244256D03*
X0000024205Y0000247405D03*
X0000024205Y0000250554D03*
X0000024205Y0000237958D03*
X0000027354Y0000250554D03*
X0000024205Y0000241107D03*
X0000027354Y0000244256D03*
X0000033654Y0000234806D03*
X0000030505Y0000234806D03*
X0000039952Y0000250554D03*
X0000036803Y0000241107D03*
X0000027354Y0000256852D03*
X0000024205Y0000260001D03*
X0000027354Y0000253703D03*
X0000027354Y0000266299D03*
X0000024205Y0000256852D03*
X0000024205Y0000266299D03*
X0000027354Y0000260001D03*
X0000027354Y0000263150D03*
X0000024205Y0000253703D03*
X0000024205Y0000263150D03*
X0000039952Y0000260001D03*
X0000036803Y0000253703D03*
X0000034750Y0000265500D03*
X0000039952Y0000256852D03*
X0000037500Y0000264000D03*
X0000039235Y0000278203D03*
X0000038485Y0000281735D03*
X0000034359Y0000281735D03*
X0000024205Y0000272597D03*
X0000024205Y0000269448D03*
X0000027354Y0000269448D03*
X0000038422Y0000285672D03*
X0000034359Y0000285672D03*
X0000038359Y0000289609D03*
X0000034359Y0000289609D03*
X0000038296Y0000293546D03*
X0000034359Y0000293546D03*
X0000038327Y0000297483D03*
X0000034359Y0000297483D03*
X0000038390Y0000301420D03*
X0000034359Y0000305357D03*
X0000038453Y0000305357D03*
X0000032280Y0000342286D03*
X0000032280Y0000335030D03*
X0000039280Y0000354439D03*
X0000034189Y0000354439D03*
X0000050497Y0000101530D03*
X0000044591Y0000101530D03*
X0000052249Y0000114688D03*
X0000044980Y0000116654D03*
X0000054449Y0000114688D03*
X0000042738Y0000114688D03*
X0000040538Y0000114688D03*
X0000047180Y0000116654D03*
X0000044276Y0000119030D03*
X0000050280Y0000122030D03*
X0000044780Y0000122030D03*
X0000040480Y0000121330D03*
X0000046444Y0000137643D03*
X0000052349Y0000123972D03*
X0000054549Y0000123972D03*
X0000048644Y0000137643D03*
X0000050497Y0000136247D03*
X0000044591Y0000136130D03*
X0000043101Y0000215709D03*
X0000043101Y0000212560D03*
X0000043101Y0000206262D03*
X0000043101Y0000209411D03*
X0000043101Y0000218858D03*
X0000041780Y0000245530D03*
X0000051030Y0000245530D03*
X0000055780Y0000278030D03*
X0000052480Y0000278030D03*
X0000046900Y0000322500D03*
X0000050100Y0000322500D03*
X0000041780Y0000327030D03*
X0000041780Y0000332030D03*
X0000056402Y0000101530D03*
X0000060780Y0000114960D03*
X0000065280Y0000115030D03*
X0000056280Y0000119030D03*
X0000058280Y0000136430D03*
X0000063380Y0000125530D03*
X0000068780Y0000266030D03*
X0000063780Y0000266030D03*
X0000063780Y0000262030D03*
X0000059780Y0000262030D03*
X0000059890Y0000266030D03*
X0000069780Y0000278030D03*
X0000065280Y0000278030D03*
X0000058950Y0000278050D03*
X0000061800Y0000278000D03*
X0000057000Y0000322530D03*
X0000071730Y0000322530D03*
X0000060280Y0000322530D03*
X0000085717Y0000114530D03*
X0000081780Y0000114530D03*
X0000081200Y0000122400D03*
X0000081000Y0000126100D03*
X0000084955Y0000124070D03*
X0000077200Y0000126100D03*
X0000082280Y0000262030D03*
X0000077280Y0000262030D03*
X0000073280Y0000266030D03*
X0000086280Y0000262030D03*
X0000073780Y0000278030D03*
X0000082280Y0000354439D03*
X0000076280Y0000354439D03*
X0000072280Y0000354439D03*
X0000090780Y0000114530D03*
X0000094780Y0000114530D03*
X0000088045Y0000124070D03*
X0000091280Y0000262030D03*
X0000091280Y0000258030D03*
X0000095280Y0000307600D03*
X0000093300Y0000314380D03*
X0000095780Y0000354439D03*
X0000092030Y0000354439D03*
G54D23*
X-0000118519Y0000367987D03*
X-0000115370Y0000372711D03*
X-0000112220Y0000367987D03*
X-0000109070Y0000372711D03*
X-0000105921Y0000367987D03*
X-0000086551Y0000108518D03*
X-0000076519Y0000367987D03*
X-0000073370Y0000372711D03*
X-0000070220Y0000367987D03*
X-0000067070Y0000372711D03*
X-0000063921Y0000367987D03*
X0000150142Y0000108518D03*
G54D15*
X-0000206620Y0000117130D03*
X-0000206620Y0000162130D03*
G54D24*
X-0000106115Y0000153910D03*
X-0000110840Y0000153910D03*
X-0000108477Y0000153910D03*
X-0000106115Y0000151547D03*
X-0000110840Y0000151547D03*
X-0000108477Y0000151547D03*
X-0000108477Y0000158634D03*
X-0000110840Y0000158634D03*
X-0000106115Y0000158634D03*
X-0000106115Y0000156272D03*
X-0000110840Y0000156272D03*
X-0000108477Y0000156272D03*
X0000014123Y0000177026D03*
X0000011760Y0000177026D03*
X0000016485Y0000177026D03*
X0000016485Y0000179388D03*
X0000011760Y0000179388D03*
X0000014123Y0000179388D03*
X0000016485Y0000181750D03*
X0000011760Y0000181750D03*
X0000014123Y0000181750D03*
X0000016485Y0000184113D03*
X0000011760Y0000184113D03*
X0000014123Y0000184113D03*
X0000102066Y0000194051D03*
X0000102066Y0000198776D03*
X0000102066Y0000196414D03*
X0000116240Y0000198776D03*
X0000116240Y0000196414D03*
X0000118602Y0000198776D03*
X0000118602Y0000196414D03*
X0000111515Y0000194051D03*
X0000109153Y0000194051D03*
X0000106791Y0000194051D03*
X0000104429Y0000194051D03*
X0000113877Y0000194051D03*
X0000116240Y0000194051D03*
X0000118602Y0000194051D03*
X0000113877Y0000198776D03*
X0000113877Y0000196414D03*
X0000104429Y0000196414D03*
X0000104429Y0000198776D03*
X0000106791Y0000196414D03*
X0000106791Y0000198776D03*
X0000109153Y0000196414D03*
X0000109153Y0000198776D03*
X0000111515Y0000196414D03*
X0000111515Y0000198776D03*
X0000120964Y0000198776D03*
X0000120964Y0000196414D03*
X0000123326Y0000198776D03*
X0000123326Y0000196414D03*
X0000120964Y0000194051D03*
X0000123326Y0000194051D03*
X0000167197Y0000308325D03*
X0000167197Y0000313050D03*
X0000167197Y0000310687D03*
X0000174284Y0000310687D03*
X0000174284Y0000313050D03*
X0000174284Y0000308325D03*
X0000171922Y0000308325D03*
X0000171922Y0000313050D03*
X0000171922Y0000310687D03*
X0000169560Y0000308325D03*
X0000169560Y0000313050D03*
X0000169560Y0000310687D03*
G54D16*
X-0000202644Y0000127642D03*
X-0000202644Y0000135634D03*
X-0000195557Y0000127642D03*
X-0000195557Y0000135634D03*
X-0000202644Y0000143626D03*
X-0000202644Y0000151618D03*
X-0000195557Y0000143626D03*
X-0000195557Y0000151618D03*
X-0000188116Y0000126638D03*
X-0000183116Y0000131638D03*
X-0000188116Y0000152622D03*
X-0000183116Y0000147622D03*
X-0000178116Y0000126638D03*
X-0000173116Y0000131638D03*
X-0000168116Y0000126638D03*
X-0000178116Y0000152622D03*
X-0000173116Y0000147622D03*
X-0000168116Y0000152622D03*
X-0000163116Y0000131638D03*
X-0000158116Y0000126638D03*
X-0000153116Y0000131638D03*
X-0000148116Y0000126638D03*
X-0000163116Y0000147622D03*
X-0000158116Y0000152622D03*
X-0000153116Y0000147622D03*
X-0000148116Y0000152622D03*
X-0000143116Y0000131638D03*
X-0000143116Y0000147622D03*
G54D25*
G01X-0000232072Y0000259530D02*
X-0000226720Y0000259530D01*
G01X-0000232072Y0000279530D02*
X-0000226720Y0000279530D01*
G01X-0000232072Y0000296530D02*
X-0000226720Y0000296530D01*
G01X-0000232072Y0000316530D02*
X-0000226720Y0000316530D01*
G01X-0000232072Y0000334280D02*
X-0000226720Y0000334280D01*
G01X-0000232072Y0000354280D02*
X-0000226720Y0000354280D01*
G01X-0000224612Y0000101294D02*
X-0000224612Y0000106146D01*
G01X-0000224612Y0000106146D02*
X-0000224612Y0000110998D01*
G01X-0000229464Y0000106146D02*
X-0000224612Y0000106146D01*
G01X-0000224612Y0000106146D02*
X-0000219760Y0000106146D01*
G01X-0000224612Y0000173114D02*
X-0000224612Y0000177966D01*
G01X-0000229464Y0000173114D02*
X-0000224612Y0000173114D01*
G01X-0000224612Y0000173114D02*
X-0000219760Y0000173114D01*
G01X-0000226720Y0000254178D02*
X-0000226720Y0000259530D01*
G01X-0000226720Y0000259530D02*
X-0000226720Y0000264882D01*
G01X-0000226720Y0000259530D02*
X-0000221368Y0000259530D01*
G01X-0000226720Y0000274178D02*
X-0000226720Y0000279530D01*
G01X-0000226720Y0000279530D02*
X-0000226720Y0000284882D01*
G01X-0000226720Y0000279530D02*
X-0000221368Y0000279530D01*
G01X-0000226720Y0000291178D02*
X-0000226720Y0000296530D01*
G01X-0000226720Y0000296530D02*
X-0000226720Y0000301882D01*
G01X-0000226720Y0000296530D02*
X-0000221368Y0000296530D01*
G01X-0000226720Y0000311178D02*
X-0000226720Y0000316530D01*
G01X-0000226720Y0000328928D02*
X-0000226720Y0000334280D01*
G01X-0000226720Y0000316530D02*
X-0000226720Y0000321882D01*
G01X-0000226720Y0000316530D02*
X-0000221368Y0000316530D01*
G01X-0000226720Y0000334280D02*
X-0000226720Y0000339632D01*
G01X-0000226720Y0000334280D02*
X-0000221368Y0000334280D01*
G01X-0000226720Y0000348928D02*
X-0000226720Y0000354280D01*
G01X-0000226720Y0000354280D02*
X-0000226720Y0000359632D01*
G01X-0000226720Y0000354280D02*
X-0000221368Y0000354280D01*
G01X-0000206720Y0000254178D02*
X-0000206720Y0000259530D01*
G01X-0000206720Y0000259530D02*
X-0000206720Y0000264882D01*
G01X-0000212072Y0000259530D02*
X-0000206720Y0000259530D01*
G01X-0000206720Y0000259530D02*
X-0000201368Y0000259530D01*
G01X-0000206720Y0000274178D02*
X-0000206720Y0000279530D01*
G01X-0000206720Y0000279530D02*
X-0000206720Y0000284882D01*
G01X-0000212072Y0000279530D02*
X-0000206720Y0000279530D01*
G01X-0000206720Y0000279530D02*
X-0000201368Y0000279530D01*
G01X-0000206720Y0000291178D02*
X-0000206720Y0000296530D01*
G01X-0000206720Y0000296530D02*
X-0000206720Y0000301882D01*
G01X-0000212072Y0000296530D02*
X-0000206720Y0000296530D01*
G01X-0000206720Y0000296530D02*
X-0000201368Y0000296530D01*
G01X-0000206720Y0000311178D02*
X-0000206720Y0000316530D01*
G01X-0000206720Y0000328928D02*
X-0000206720Y0000334280D01*
G01X-0000206720Y0000316530D02*
X-0000206720Y0000321882D01*
G01X-0000212072Y0000316530D02*
X-0000206720Y0000316530D01*
G01X-0000206720Y0000316530D02*
X-0000201368Y0000316530D01*
G01X-0000206720Y0000334280D02*
X-0000206720Y0000339632D01*
G01X-0000212072Y0000334280D02*
X-0000206720Y0000334280D01*
G01X-0000206720Y0000334280D02*
X-0000201368Y0000334280D01*
G01X-0000206720Y0000348928D02*
X-0000206720Y0000354280D01*
G01X-0000206720Y0000354280D02*
X-0000206720Y0000359632D01*
G01X-0000212072Y0000354280D02*
X-0000206720Y0000354280D01*
G01X-0000206720Y0000354280D02*
X-0000201368Y0000354280D01*
G01X-0000184936Y0000374530D02*
X-0000181634Y0000374530D01*
G01X-0000168375Y0000339030D02*
X-0000164720Y0000339030D01*
G01X-0000181634Y0000371228D02*
X-0000181634Y0000374530D01*
G01X-0000181634Y0000374530D02*
X-0000181634Y0000377832D01*
G01X-0000181634Y0000374530D02*
X-0000178332Y0000374530D01*
G01X-0000168375Y0000389030D02*
X-0000164720Y0000389030D01*
G01X-0000161620Y0000101294D02*
X-0000161620Y0000106146D01*
G01X-0000161620Y0000106146D02*
X-0000161620Y0000110998D01*
G01X-0000166472Y0000106146D02*
X-0000161620Y0000106146D01*
G01X-0000161620Y0000106146D02*
X-0000156768Y0000106146D01*
G01X-0000154720Y0000335375D02*
X-0000154720Y0000339030D01*
G01X-0000154720Y0000339030D02*
X-0000154720Y0000342685D01*
G01X-0000158375Y0000339030D02*
X-0000154720Y0000339030D01*
G01X-0000164720Y0000335375D02*
X-0000164720Y0000339030D01*
G01X-0000164720Y0000339030D02*
X-0000164720Y0000342685D01*
G01X-0000164720Y0000339030D02*
X-0000161065Y0000339030D01*
G01X-0000154720Y0000385375D02*
X-0000154720Y0000389030D01*
G01X-0000154720Y0000389030D02*
X-0000154720Y0000392685D01*
G01X-0000158375Y0000389030D02*
X-0000154720Y0000389030D01*
G01X-0000164720Y0000385375D02*
X-0000164720Y0000389030D01*
G01X-0000164720Y0000389030D02*
X-0000164720Y0000392685D01*
G01X-0000164720Y0000389030D02*
X-0000161065Y0000389030D01*
G01X-0000145636Y0000168262D02*
X-0000145636Y0000173114D01*
G01X-0000145636Y0000173114D02*
X-0000145636Y0000177966D01*
G01X-0000150488Y0000173114D02*
X-0000145636Y0000173114D01*
G01X-0000145636Y0000173114D02*
X-0000140784Y0000173114D01*
G01X-0000126590Y0000371530D02*
X-0000126590Y0000377382D01*
G01X-0000130492Y0000371530D02*
X-0000126590Y0000371530D01*
G01X-0000126590Y0000383985D02*
X-0000126590Y0000389837D01*
G01X-0000130492Y0000389837D02*
X-0000126590Y0000389837D01*
G01X-0000126590Y0000389837D02*
X-0000122688Y0000389837D01*
G01X-0000118519Y0000365285D02*
X-0000118519Y0000367987D01*
G01X-0000118519Y0000367987D02*
X-0000118519Y0000370689D01*
G01X-0000118519Y0000367987D02*
X-0000115817Y0000367987D01*
G01X-0000088492Y0000371530D02*
X-0000084590Y0000371530D01*
G01X-0000097850Y0000371530D02*
X-0000097850Y0000377382D01*
G01X-0000097850Y0000371530D02*
X-0000093948Y0000371530D01*
G01X-0000088492Y0000389837D02*
X-0000084590Y0000389837D01*
G01X-0000097850Y0000383985D02*
X-0000097850Y0000389837D01*
G01X-0000101752Y0000389837D02*
X-0000097850Y0000389837D01*
G01X-0000097850Y0000389837D02*
X-0000093948Y0000389837D01*
G01X-0000084590Y0000371530D02*
X-0000084590Y0000377382D01*
G01X-0000076519Y0000365285D02*
X-0000076519Y0000367987D01*
G01X-0000076519Y0000367987D02*
X-0000076519Y0000370689D01*
G01X-0000076519Y0000367987D02*
X-0000073817Y0000367987D01*
G01X-0000084590Y0000383985D02*
X-0000084590Y0000389837D01*
G01X-0000084590Y0000389837D02*
X-0000080688Y0000389837D01*
G01X-0000055850Y0000371530D02*
X-0000055850Y0000377730D01*
G01X-0000055850Y0000383985D02*
X-0000055850Y0000389837D01*
G01X-0000059752Y0000389837D02*
X-0000055850Y0000389837D01*
G01X0000034237Y0000356789D02*
X0000034237Y0000363991D01*
G01X0000034237Y0000363991D02*
X0000034237Y0000371193D01*
G01X0000030535Y0000363991D02*
X0000034237Y0000363991D01*
G01X0000034237Y0000363991D02*
X0000037939Y0000363991D01*
G01X0000034237Y0000381393D02*
X0000034237Y0000387495D01*
G01X0000034237Y0000387495D02*
X0000034237Y0000393597D01*
G01X0000030535Y0000387495D02*
X0000034237Y0000387495D01*
G01X0000034237Y0000387495D02*
X0000037939Y0000387495D01*
G01X0000091323Y0000356789D02*
X0000091323Y0000363991D01*
G01X0000091323Y0000363991D02*
X0000091323Y0000371193D01*
G01X0000087621Y0000363991D02*
X0000091323Y0000363991D01*
G01X0000091323Y0000363991D02*
X0000095025Y0000363991D01*
G01X0000091323Y0000381393D02*
X0000091323Y0000387495D01*
G01X0000091323Y0000387495D02*
X0000091323Y0000393597D01*
G01X0000087621Y0000387495D02*
X0000091323Y0000387495D01*
G01X0000091323Y0000387495D02*
X0000095025Y0000387495D01*
G01X0000146280Y0000253328D02*
X0000146280Y0000257030D01*
G01X0000146280Y0000257030D02*
X0000146280Y0000260732D01*
G01X0000142578Y0000257030D02*
X0000146280Y0000257030D01*
G01X0000146280Y0000257030D02*
X0000149982Y0000257030D01*
G01X0000146280Y0000343328D02*
X0000146280Y0000347030D01*
G01X0000146280Y0000347030D02*
X0000146280Y0000350732D01*
G01X0000142578Y0000347030D02*
X0000146280Y0000347030D01*
G01X0000146280Y0000347030D02*
X0000149982Y0000347030D01*
G01X0000165867Y0000183534D02*
X0000174969Y0000183534D01*
G01X0000163280Y0000216878D02*
X0000163280Y0000220030D01*
G01X0000163280Y0000220030D02*
X0000163280Y0000223182D01*
G01X0000160128Y0000220030D02*
X0000163280Y0000220030D01*
G01X0000163280Y0000220030D02*
X0000166432Y0000220030D01*
G01X0000156280Y0000253328D02*
X0000156280Y0000257030D01*
G01X0000156280Y0000257030D02*
X0000156280Y0000260732D01*
G01X0000152578Y0000257030D02*
X0000156280Y0000257030D01*
G01X0000156280Y0000257030D02*
X0000159982Y0000257030D01*
G01X0000156280Y0000343328D02*
X0000156280Y0000347030D01*
G01X0000156280Y0000347030D02*
X0000156280Y0000350732D01*
G01X0000152578Y0000347030D02*
X0000156280Y0000347030D01*
G01X0000156280Y0000347030D02*
X0000159982Y0000347030D01*
G01X0000174969Y0000180082D02*
X0000174969Y0000183534D01*
G01X0000174969Y0000183534D02*
X0000174969Y0000186986D01*
G01X0000174969Y0000183534D02*
X0000184071Y0000183534D01*
G01X0000186780Y0000155928D02*
X0000186780Y0000165030D01*
G01X0000186780Y0000165030D02*
X0000186780Y0000174132D01*
G01X0000183328Y0000165030D02*
X0000186780Y0000165030D01*
G01X0000186780Y0000165030D02*
X0000190232Y0000165030D01*
G01X0000187280Y0000196878D02*
X0000187280Y0000200030D01*
G01X0000187280Y0000200030D02*
X0000187280Y0000203182D01*
G01X0000184128Y0000200030D02*
X0000187280Y0000200030D01*
G01X0000187280Y0000200030D02*
X0000190432Y0000200030D01*
X-0000008309Y0000283593D03*
X-0000014657Y0000293040D03*
X-0000014700Y0000296400D03*
X-0000017806Y0000299338D03*
X-0000014657Y0000299337D03*
X-0000020955Y0000305636D03*
X-0000017806Y0000308680D03*
X-0000014657Y0000308575D03*
X-0000014657Y0000305636D03*
X-0000011508Y0000324530D03*
X-0000011508Y0000327679D03*
X-0000008720Y0000324530D03*
X-0000014220Y0000324530D03*
X-0000014720Y0000315530D03*
X-0000017720Y0000315530D03*
X-0000017720Y0000321219D03*
X-0000002011Y0000280444D03*
X0000001128Y0000280444D03*
X0000007436Y0000280444D03*
X0000007436Y0000277295D03*
X0000004287Y0000277295D03*
X0000004287Y0000280444D03*
X-0000005160Y0000280444D03*
X0000005683Y0000293530D03*
X-0000001220Y0000296381D03*
X0000007100Y0000283593D03*
X-0000004720Y0000296381D03*
X-0000005196Y0000293506D03*
X0000001128Y0000283593D03*
X0000002827Y0000293483D03*
X-0000002021Y0000283593D03*
X0000007780Y0000293530D03*
X-0000005160Y0000283593D03*
X0000007280Y0000313530D03*
X-0000004720Y0000302530D03*
X-0000001335Y0000311922D03*
X0000001030Y0000301780D03*
X0000001600Y0000313500D03*
X-0000004720Y0000299530D03*
X-0000004720Y0000308530D03*
X-0000004720Y0000305530D03*
X0000004530Y0000301780D03*
X0000004380Y0000313530D03*
X0000007386Y0000324530D03*
X-0000003276Y0000314976D03*
X-0000002061Y0000324530D03*
X0000007386Y0000327679D03*
X-0000004720Y0000324530D03*
X0000001088Y0000324530D03*
X0000001088Y0000327679D03*
X0000004237Y0000327679D03*
X-0000002061Y0000327679D03*
X0000004237Y0000324530D03*
X-0000005315Y0000314906D03*
X0000020032Y0000280444D03*
X0000016883Y0000280444D03*
X0000010625Y0000277295D03*
X0000010605Y0000280444D03*
X0000023181Y0000280444D03*
X0000016780Y0000293030D03*
X0000013774Y0000283593D03*
X0000012780Y0000293030D03*
X0000010780Y0000293530D03*
X0000015200Y0000297255D03*
X0000014280Y0000294535D03*
X0000010475Y0000283585D03*
X0000020032Y0000283593D03*
X0000023181Y0000283593D03*
X0000016883Y0000283593D03*
X0000015335Y0000305840D03*
X0000015296Y0000302833D03*
X0000009780Y0000307530D03*
X0000010600Y0000301800D03*
X0000010230Y0000304780D03*
X0000010280Y0000313530D03*
X0000015300Y0000299955D03*
X0000015280Y0000308530D03*
X0000008530Y0000301780D03*
X0000010535Y0000327679D03*
X0000019982Y0000324530D03*
X0000023131Y0000324530D03*
X0000016833Y0000327679D03*
X0000010535Y0000324530D03*
X0000016833Y0000324530D03*
X0000013684Y0000324530D03*
X0000013684Y0000327679D03*
X0000023131Y0000327679D03*
X0000015362Y0000314948D03*
X0000026330Y0000293040D03*
X0000026330Y0000289891D03*
X0000026330Y0000283593D03*
X0000026330Y0000286742D03*
X0000029680Y0000302530D03*
X0000026300Y0000310485D03*
X0000026260Y0000308350D03*
X0000026330Y0000305636D03*
X0000026330Y0000302487D03*
X0000029780Y0000299338D03*
X0000026330Y0000299338D03*
X0000026330Y0000324530D03*
X0000026330Y0000321381D03*
X0000026330Y0000314325D03*
X0000026330Y0000318232D03*
G54D17*
X-0000202820Y0000187030D03*
X-0000202820Y0000182730D03*
X-0000151220Y0000187030D03*
X-0000151320Y0000181730D03*
X-0000007022Y0000227376D03*
X-0000007022Y0000231376D03*
G54D26*
X0000034237Y0000363991D03*
X0000091323Y0000363991D03*
G54D18*
X-0000207320Y0000207030D03*
X-0000212320Y0000217030D03*
X-0000202320Y0000207030D03*
X-0000202320Y0000217030D03*
X-0000202320Y0000212030D03*
X-0000207320Y0000217030D03*
X-0000212320Y0000212030D03*
X-0000212320Y0000207030D03*
X-0000207320Y0000212030D03*
X-0000207320Y0000221630D03*
X-0000212320Y0000221630D03*
X-0000202320Y0000221630D03*
X-0000198720Y0000303030D03*
X-0000198720Y0000348030D03*
X-0000197320Y0000207030D03*
X-0000197320Y0000217030D03*
X-0000197320Y0000212030D03*
X-0000197320Y0000221030D03*
X-0000197392Y0000241500D03*
X-0000185000Y0000241500D03*
X-0000185542Y0000267000D03*
X-0000193960Y0000290270D03*
X-0000185720Y0000284030D03*
X-0000197551Y0000290030D03*
X-0000189486Y0000292130D03*
X-0000189261Y0000296162D03*
X-0000183220Y0000300280D03*
X-0000189220Y0000300280D03*
X-0000190220Y0000310800D03*
X-0000185200Y0000311020D03*
X-0000193960Y0000336000D03*
X-0000189000Y0000337500D03*
X-0000189261Y0000342412D03*
X-0000183220Y0000346530D03*
X-0000190220Y0000358030D03*
X-0000189220Y0000346530D03*
X-0000184500Y0000358000D03*
X-0000168970Y0000259530D03*
X-0000168970Y0000264101D03*
X-0000168970Y0000277816D03*
X-0000168970Y0000268673D03*
X-0000168970Y0000273244D03*
X-0000168970Y0000282387D03*
X-0000179500Y0000267500D03*
X-0000175500Y0000273454D03*
X-0000168970Y0000286959D03*
X-0000168970Y0000291530D03*
X-0000173220Y0000287000D03*
X-0000179720Y0000284030D03*
X-0000177720Y0000291510D03*
X-0000158220Y0000207030D03*
X-0000163220Y0000217030D03*
X-0000153220Y0000207030D03*
X-0000153220Y0000217030D03*
X-0000153220Y0000212030D03*
X-0000158220Y0000217030D03*
X-0000163220Y0000207030D03*
X-0000163220Y0000212030D03*
X-0000158220Y0000212030D03*
X-0000158220Y0000222030D03*
X-0000163220Y0000222030D03*
X-0000153220Y0000222030D03*
X-0000162570Y0000259530D03*
X-0000162570Y0000264101D03*
X-0000151970Y0000259530D03*
X-0000151970Y0000264101D03*
X-0000156470Y0000259530D03*
X-0000151970Y0000273244D03*
X-0000162570Y0000268673D03*
X-0000162570Y0000273244D03*
X-0000162570Y0000277816D03*
X-0000162570Y0000282387D03*
X-0000151970Y0000268673D03*
X-0000151970Y0000277816D03*
X-0000151970Y0000282387D03*
X-0000156470Y0000277816D03*
X-0000156470Y0000268673D03*
X-0000162570Y0000286959D03*
X-0000162570Y0000291530D03*
X-0000151970Y0000291530D03*
X-0000151970Y0000286959D03*
X-0000156470Y0000286959D03*
X-0000138720Y0000116030D03*
X-0000141470Y0000156780D03*
X-0000134720Y0000172530D03*
X-0000134720Y0000177530D03*
X-0000148220Y0000207030D03*
X-0000148220Y0000217030D03*
X-0000148220Y0000212030D03*
X-0000148220Y0000222030D03*
X-0000145570Y0000264101D03*
X-0000145570Y0000259530D03*
X-0000139470Y0000259530D03*
X-0000145570Y0000268673D03*
X-0000145570Y0000282387D03*
X-0000145570Y0000277816D03*
X-0000145570Y0000273244D03*
X-0000139470Y0000268673D03*
X-0000139470Y0000277816D03*
X-0000145570Y0000291530D03*
X-0000145570Y0000286959D03*
X-0000139470Y0000286959D03*
X-0000136720Y0000303280D03*
X-0000136720Y0000343730D03*
X-0000136500Y0000339500D03*
X-0000134700Y0000332530D03*
X-0000136720Y0000360530D03*
X-0000135720Y0000352530D03*
X-0000140220Y0000360530D03*
X-0000140220Y0000357030D03*
X-0000138500Y0000354500D03*
X-0000135720Y0000356030D03*
X-0000135000Y0000375000D03*
X-0000140000Y0000375000D03*
X-0000135000Y0000380000D03*
X-0000140000Y0000380000D03*
X-0000122500Y0000130000D03*
X-0000123720Y0000144530D03*
X-0000129220Y0000172530D03*
X-0000129220Y0000177530D03*
X-0000119220Y0000192530D03*
X-0000123220Y0000192530D03*
X-0000129120Y0000187530D03*
X-0000128890Y0000197110D03*
X-0000132720Y0000195030D03*
X-0000123600Y0000229400D03*
X-0000122663Y0000223530D03*
X-0000121720Y0000268530D03*
X-0000126720Y0000268530D03*
X-0000127720Y0000277530D03*
X-0000133720Y0000277530D03*
X-0000121000Y0000297000D03*
X-0000119500Y0000289500D03*
X-0000120720Y0000305030D03*
X-0000130500Y0000299000D03*
X-0000120547Y0000309030D03*
X-0000130250Y0000302500D03*
X-0000120740Y0000301185D03*
X-0000120547Y0000312903D03*
X-0000129984Y0000328651D03*
X-0000133921Y0000328651D03*
X-0000124547Y0000328651D03*
X-0000124547Y0000320777D03*
X-0000120704Y0000324714D03*
X-0000124547Y0000324714D03*
X-0000120641Y0000328651D03*
X-0000120610Y0000316840D03*
X-0000124547Y0000316840D03*
X-0000120673Y0000320777D03*
X-0000130000Y0000324500D03*
X-0000124547Y0000332588D03*
X-0000129700Y0000343300D03*
X-0000125700Y0000343600D03*
X-0000120641Y0000332707D03*
X-0000120220Y0000347030D03*
X-0000120220Y0000355030D03*
X-0000120220Y0000351030D03*
X-0000123000Y0000361200D03*
X-0000128000Y0000361200D03*
X-0000132800Y0000361200D03*
X-0000112520Y0000134030D03*
X-0000106020Y0000136880D03*
X-0000114207Y0000144572D03*
X-0000105220Y0000167530D03*
X-0000110620Y0000167530D03*
X-0000114557Y0000167530D03*
X-0000107257Y0000171230D03*
X-0000118220Y0000172530D03*
X-0000118220Y0000177530D03*
X-0000114720Y0000172530D03*
X-0000114720Y0000177530D03*
X-0000114720Y0000182030D03*
X-0000110783Y0000182030D03*
X-0000107257Y0000175167D03*
X-0000116720Y0000223530D03*
X-0000117720Y0000254030D03*
X-0000116177Y0000286323D03*
X-0000107220Y0000313030D03*
X-0000107220Y0000319230D03*
X-0000107220Y0000326730D03*
X-0000109120Y0000343730D03*
X-0000117220Y0000340500D03*
X-0000113220Y0000343730D03*
X-0000107220Y0000334230D03*
X-0000104720Y0000343730D03*
X-0000107220Y0000359030D03*
X-0000107220Y0000355530D03*
X-0000115370Y0000355030D03*
X-0000115370Y0000347030D03*
X-0000115370Y0000351030D03*
X-0000111220Y0000359030D03*
X-0000098520Y0000136880D03*
X-0000102020Y0000136880D03*
X-0000089220Y0000135030D03*
X-0000096470Y0000151280D03*
X-0000090220Y0000167530D03*
X-0000095220Y0000167530D03*
X-0000095220Y0000162530D03*
X-0000100220Y0000167530D03*
X-0000102320Y0000171230D03*
X-0000090220Y0000172530D03*
X-0000102300Y0000175200D03*
X-0000092720Y0000281530D03*
X-0000087720Y0000285030D03*
X-0000087220Y0000313230D03*
X-0000101220Y0000313230D03*
X-0000094220Y0000313230D03*
X-0000087220Y0000326730D03*
X-0000087220Y0000319230D03*
X-0000094220Y0000319230D03*
X-0000101220Y0000319230D03*
X-0000094220Y0000326730D03*
X-0000101220Y0000326730D03*
X-0000101220Y0000334230D03*
X-0000087220Y0000334230D03*
X-0000094220Y0000334230D03*
X-0000088691Y0000343730D03*
X-0000095720Y0000343730D03*
X-0000095120Y0000349580D03*
X-0000089620Y0000353080D03*
X-0000095120Y0000353080D03*
X-0000089620Y0000349580D03*
X-0000088220Y0000357030D03*
X-0000093220Y0000357030D03*
X-0000090000Y0000377500D03*
X-0000092500Y0000380000D03*
X-0000087500Y0000380000D03*
X-0000090000Y0000382500D03*
X-0000095000Y0000382500D03*
X-0000076220Y0000116030D03*
X-0000080220Y0000175030D03*
X-0000080550Y0000280350D03*
X-0000073820Y0000350030D03*
X-0000077720Y0000350030D03*
X-0000083800Y0000353100D03*
X-0000076519Y0000363800D03*
X-0000058820Y0000147430D03*
X-0000058820Y0000157230D03*
X-0000067220Y0000312980D03*
X-0000069720Y0000339530D03*
X-0000055720Y0000340030D03*
X-0000055720Y0000345030D03*
X-0000065220Y0000359030D03*
X-0000069220Y0000359030D03*
X-0000064550Y0000352860D03*
X-0000055720Y0000350030D03*
X-0000058700Y0000359000D03*
X-0000064720Y0000347341D03*
X-0000052720Y0000160030D03*
X-0000049863Y0000296679D03*
X-0000041863Y0000296679D03*
X-0000045863Y0000296679D03*
X-0000045863Y0000289179D03*
X-0000048863Y0000312980D03*
X-0000052363Y0000312980D03*
X-0000045720Y0000312980D03*
X-0000049863Y0000300679D03*
X-0000041863Y0000304679D03*
X-0000041863Y0000300679D03*
X-0000045863Y0000304679D03*
X-0000049863Y0000304679D03*
X-0000045863Y0000300679D03*
X-0000049220Y0000324630D03*
X-0000045720Y0000340030D03*
X-0000045720Y0000345030D03*
X-0000050720Y0000345030D03*
X-0000050720Y0000340030D03*
X-0000048200Y0000359100D03*
X-0000050720Y0000350030D03*
X-0000045720Y0000350030D03*
X-0000043720Y0000377530D03*
X-0000041200Y0000366180D03*
X-0000047720Y0000377530D03*
X-0000045720Y0000393030D03*
X-0000039720Y0000387530D03*
X-0000025220Y0000154130D03*
X-0000034720Y0000297726D03*
X-0000034720Y0000313030D03*
X-0000034720Y0000320730D03*
X-0000034720Y0000327530D03*
X-0000034720Y0000332730D03*
X-0000034720Y0000337530D03*
X-0000025220Y0000342530D03*
X-0000024720Y0000367030D03*
X-0000029600Y0000367200D03*
X-0000035205Y0000387545D03*
X-0000024720Y0000387530D03*
X-0000008720Y0000152030D03*
X-0000008720Y0000156030D03*
X-0000011125Y0000263125D03*
X-0000020220Y0000327530D03*
X-0000014340Y0000370000D03*
X-0000008220Y0000370030D03*
X-0000018220Y0000367030D03*
X-0000014720Y0000387530D03*
X-0000000220Y0000148030D03*
X0000000843Y0000170030D03*
X-0000003094Y0000170030D03*
X-0000007031Y0000170030D03*
X-0000003094Y0000166093D03*
X0000000843Y0000166093D03*
X-0000007031Y0000166030D03*
X-0000000270Y0000157130D03*
X-0000000220Y0000161030D03*
X-0000007031Y0000173967D03*
X0000004780Y0000191530D03*
X0000007820Y0000211870D03*
X-0000007220Y0000223530D03*
X-0000007220Y0000263030D03*
X-0000007220Y0000259030D03*
X0000003091Y0000259504D03*
X-0000002720Y0000342286D03*
X0000003780Y0000367530D03*
X-0000001220Y0000387530D03*
X-0000005720Y0000387530D03*
X0000003280Y0000387530D03*
X0000013280Y0000148030D03*
X0000017280Y0000148030D03*
X0000012280Y0000155030D03*
X0000023780Y0000169030D03*
X0000012780Y0000160030D03*
X0000008780Y0000160030D03*
X0000010900Y0000167700D03*
X0000009100Y0000170100D03*
X0000009200Y0000164600D03*
X0000012900Y0000170100D03*
X0000021800Y0000165100D03*
X0000017680Y0000169230D03*
X0000017800Y0000165300D03*
X0000012500Y0000164700D03*
X0000023780Y0000173030D03*
X0000018031Y0000191780D03*
X0000022280Y0000202030D03*
X0000008918Y0000191798D03*
X0000012280Y0000202030D03*
X0000017280Y0000202030D03*
X0000009780Y0000331180D03*
X0000021780Y0000331180D03*
X0000011780Y0000367030D03*
X0000017030Y0000385030D03*
X0000009530Y0000387530D03*
X0000034500Y0000150000D03*
X0000024780Y0000154530D03*
X0000028780Y0000154953D03*
X0000028280Y0000169030D03*
X0000034500Y0000157530D03*
X0000025680Y0000165230D03*
X0000028280Y0000173030D03*
X0000028280Y0000181030D03*
X0000028280Y0000177030D03*
X0000036280Y0000197030D03*
X0000032361Y0000197030D03*
X0000035780Y0000192030D03*
X0000034280Y0000331185D03*
X0000027030Y0000358400D03*
X0000054000Y0000150500D03*
X0000055800Y0000147200D03*
X0000048374Y0000147000D03*
X0000044437Y0000147000D03*
X0000040500Y0000147000D03*
X0000048874Y0000141500D03*
X0000044937Y0000141500D03*
X0000041000Y0000141500D03*
X0000044680Y0000170030D03*
X0000044680Y0000165030D03*
X0000049680Y0000170030D03*
X0000055600Y0000168400D03*
X0000044680Y0000175030D03*
X0000045880Y0000187130D03*
X0000044680Y0000180030D03*
X0000041680Y0000197030D03*
X0000041780Y0000192830D03*
X0000045780Y0000228530D03*
X0000055280Y0000228530D03*
X0000051100Y0000221700D03*
X0000048500Y0000225359D03*
X0000051000Y0000228500D03*
X0000055611Y0000245630D03*
X0000055280Y0000236030D03*
X0000051830Y0000235980D03*
X0000048000Y0000236000D03*
X0000049000Y0000248530D03*
X0000055280Y0000266030D03*
X0000056049Y0000252000D03*
X0000051000Y0000252000D03*
X0000049000Y0000255530D03*
X0000049478Y0000283030D03*
X0000053280Y0000283030D03*
X0000045280Y0000311730D03*
X0000049780Y0000311730D03*
X0000055780Y0000326530D03*
X0000053000Y0000322500D03*
X0000049780Y0000336030D03*
X0000047032Y0000368530D03*
X0000052937Y0000368530D03*
X0000063528Y0000122030D03*
X0000071337Y0000163400D03*
X0000071100Y0000171000D03*
X0000071100Y0000167300D03*
X0000058700Y0000170900D03*
X0000059680Y0000183630D03*
X0000059680Y0000179530D03*
X0000056780Y0000187030D03*
X0000059680Y0000175030D03*
X0000072000Y0000187600D03*
X0000071800Y0000192000D03*
X0000067700Y0000192030D03*
X0000067717Y0000214030D03*
X0000071654Y0000214030D03*
X0000063802Y0000215055D03*
X0000059865Y0000215055D03*
X0000059843Y0000217967D03*
X0000063780Y0000217967D03*
X0000067717Y0000217967D03*
X0000071654Y0000217967D03*
X0000067717Y0000206530D03*
X0000071654Y0000206530D03*
X0000059843Y0000221904D03*
X0000063780Y0000221904D03*
X0000067717Y0000221904D03*
X0000071654Y0000221904D03*
X0000059780Y0000233030D03*
X0000059843Y0000226530D03*
X0000063780Y0000226530D03*
X0000063780Y0000233030D03*
X0000071717Y0000243530D03*
X0000067717Y0000243530D03*
X0000059780Y0000255660D03*
X0000067780Y0000297530D03*
X0000067780Y0000285530D03*
X0000067780Y0000291530D03*
X0000062780Y0000297530D03*
X0000057780Y0000297530D03*
X0000062780Y0000285530D03*
X0000062780Y0000291530D03*
X0000057780Y0000291530D03*
X0000058280Y0000285530D03*
X0000057800Y0000311600D03*
X0000061600Y0000311700D03*
X0000064780Y0000311730D03*
X0000069280Y0000311730D03*
X0000067780Y0000302030D03*
X0000062780Y0000302030D03*
X0000057780Y0000302030D03*
X0000065796Y0000322530D03*
X0000058843Y0000368530D03*
X0000064749Y0000368530D03*
X0000082600Y0000101500D03*
X0000077280Y0000122530D03*
X0000077280Y0000115030D03*
X0000085780Y0000119030D03*
X0000081100Y0000154600D03*
X0000075974Y0000163400D03*
X0000079811Y0000171000D03*
X0000079811Y0000167300D03*
X0000075874Y0000171000D03*
X0000075874Y0000167300D03*
X0000080900Y0000158500D03*
X0000080700Y0000162500D03*
X0000087402Y0000189530D03*
X0000083465Y0000189530D03*
X0000079528Y0000189530D03*
X0000079528Y0000194030D03*
X0000075591Y0000192030D03*
X0000075591Y0000197030D03*
X0000087402Y0000206530D03*
X0000083465Y0000206530D03*
X0000079528Y0000206530D03*
X0000075591Y0000206530D03*
X0000086780Y0000247030D03*
X0000083780Y0000275530D03*
X0000083780Y0000284030D03*
X0000083780Y0000298530D03*
X0000073280Y0000297530D03*
X0000073280Y0000285530D03*
X0000073280Y0000291530D03*
X0000083780Y0000311730D03*
X0000083780Y0000302530D03*
X0000083280Y0000306530D03*
X0000073780Y0000311730D03*
X0000073280Y0000302030D03*
X0000077607Y0000322530D03*
X0000078100Y0000375800D03*
X0000078281Y0000369030D03*
X0000083000Y0000369000D03*
X0000074780Y0000369030D03*
X0000097600Y0000101500D03*
X0000098016Y0000122030D03*
X0000098016Y0000116030D03*
X0000093000Y0000153280D03*
X0000093000Y0000165780D03*
X0000093000Y0000156900D03*
X0000101200Y0000158030D03*
X0000101000Y0000162200D03*
X0000093000Y0000160400D03*
X0000096900Y0000161900D03*
X0000091339Y0000177593D03*
X0000095276Y0000193467D03*
X0000095276Y0000189530D03*
X0000091339Y0000189530D03*
X0000095276Y0000202593D03*
X0000095276Y0000206530D03*
X0000091339Y0000206530D03*
X0000095780Y0000247530D03*
X0000088280Y0000275530D03*
X0000092280Y0000275530D03*
X0000095300Y0000297350D03*
X0000095280Y0000288530D03*
X0000095200Y0000304400D03*
X0000095200Y0000300800D03*
X0000095280Y0000311030D03*
X0000088780Y0000327530D03*
X0000094189Y0000342421D03*
X0000094080Y0000338530D03*
X0000094080Y0000334530D03*
X0000094080Y0000346530D03*
X0000098007Y0000361957D03*
X0000112600Y0000101500D03*
X0000110280Y0000119030D03*
X0000112616Y0000153280D03*
X0000115780Y0000159630D03*
X0000112616Y0000158030D03*
X0000112800Y0000162300D03*
X0000118430Y0000177130D03*
X0000111530Y0000177593D03*
X0000107280Y0000177593D03*
X0000118601Y0000183709D03*
X0000111434Y0000239784D03*
X0000117280Y0000237530D03*
X0000112434Y0000261984D03*
X0000117280Y0000267030D03*
X0000117280Y0000282030D03*
X0000117280Y0000277530D03*
X0000111780Y0000277530D03*
X0000111780Y0000273796D03*
X0000111686Y0000295936D03*
X0000104952Y0000289358D03*
X0000116957Y0000310707D03*
X0000119780Y0000306530D03*
X0000104952Y0000301358D03*
X0000104952Y0000311358D03*
X0000112127Y0000317877D03*
X0000104952Y0000322530D03*
X0000116280Y0000342530D03*
X0000107000Y0000335000D03*
X0000117780Y0000358530D03*
X0000127600Y0000101500D03*
X0000123016Y0000122294D03*
X0000123016Y0000116266D03*
X0000134780Y0000119030D03*
X0000128780Y0000177130D03*
X0000132780Y0000185630D03*
X0000132780Y0000189130D03*
X0000132280Y0000194030D03*
X0000132280Y0000197530D03*
X0000133280Y0000227530D03*
X0000122280Y0000237530D03*
X0000126780Y0000237530D03*
X0000132280Y0000267030D03*
X0000128280Y0000267030D03*
X0000122280Y0000267030D03*
X0000126780Y0000278030D03*
X0000122280Y0000278030D03*
X0000122280Y0000282030D03*
X0000126780Y0000282030D03*
X0000125280Y0000306530D03*
X0000127280Y0000321500D03*
X0000122280Y0000321500D03*
X0000125627Y0000317877D03*
X0000130600Y0000335300D03*
X0000132479Y0000344367D03*
X0000126300Y0000335200D03*
X0000133900Y0000332700D03*
X0000126200Y0000339817D03*
X0000126200Y0000343800D03*
X0000121780Y0000358530D03*
X0000132000Y0000366313D03*
X0000142600Y0000101500D03*
X0000142268Y0000122018D03*
X0000142268Y0000116030D03*
X0000150280Y0000119030D03*
X0000147280Y0000127530D03*
X0000147280Y0000132530D03*
X0000145380Y0000185230D03*
X0000145380Y0000189130D03*
X0000142280Y0000208530D03*
X0000142280Y0000215630D03*
X0000142280Y0000220530D03*
X0000140780Y0000238030D03*
X0000138934Y0000261984D03*
X0000139186Y0000295936D03*
X0000143592Y0000309030D03*
X0000143592Y0000305030D03*
X0000143593Y0000321905D03*
X0000139433Y0000317877D03*
X0000143592Y0000316030D03*
X0000136416Y0000344367D03*
X0000138500Y0000359000D03*
X0000138500Y0000363500D03*
X0000157280Y0000127530D03*
X0000152280Y0000127530D03*
X0000157280Y0000132530D03*
X0000152280Y0000132530D03*
X0000164780Y0000244030D03*
X0000164000Y0000262500D03*
X0000166435Y0000281530D03*
X0000164780Y0000271030D03*
X0000166435Y0000286030D03*
X0000155280Y0000309530D03*
X0000160280Y0000321030D03*
X0000160426Y0000315540D03*
X0000166280Y0000359530D03*
X0000166780Y0000386530D03*
X0000167137Y0000378363D03*
X0000162500Y0000378500D03*
X0000169500Y0000192500D03*
X0000171333Y0000262500D03*
X0000175000Y0000262500D03*
X0000167667Y0000262500D03*
X0000178500Y0000253000D03*
X0000182678Y0000253000D03*
X0000176780Y0000281530D03*
X0000171435Y0000281530D03*
X0000181454Y0000281530D03*
X0000176780Y0000291030D03*
X0000171435Y0000286030D03*
X0000176780Y0000286030D03*
X0000177280Y0000337530D03*
X0000169780Y0000337619D03*
X0000173780Y0000337619D03*
X0000173780Y0000342619D03*
X0000169780Y0000342619D03*
X0000177280Y0000346530D03*
X0000169780Y0000346619D03*
X0000173780Y0000346619D03*
X0000178423Y0000369000D03*
X0000182280Y0000369000D03*
X0000170709Y0000369180D03*
X0000174566Y0000369066D03*
X0000186780Y0000244030D03*
X0000190000Y0000253000D03*
X0000186339Y0000253000D03*
X0000191454Y0000281530D03*
X0000186454Y0000281530D03*
X0000186780Y0000270030D03*
X0000186454Y0000291030D03*
X0000191454Y0000291030D03*
X0000191454Y0000297619D03*
X0000186454Y0000297619D03*
X0000191454Y0000286030D03*
X0000186454Y0000327619D03*
X0000191454Y0000327619D03*
X0000188454Y0000337619D03*
X0000191454Y0000342619D03*
X0000191454Y0000337619D03*
X0000191454Y0000332619D03*
X0000186454Y0000332619D03*
X0000188454Y0000346619D03*
X0000191454Y0000346619D03*
X0000186780Y0000359530D03*
X0000186780Y0000386530D03*
X0000185500Y0000378500D03*
X0000189000Y0000378500D03*
G54D27*
X0000034237Y0000387495D03*
X0000091323Y0000387495D03*
G54D28*
X0000162371Y0000165030D03*
X0000186780Y0000165030D03*
G54D19*
X-0000186720Y0000329530D03*
X-0000186720Y0000319530D03*
X0000146280Y0000247030D03*
X0000146280Y0000257030D03*
X0000146280Y0000267030D03*
X0000146280Y0000277030D03*
X0000146280Y0000287030D03*
X0000146280Y0000297030D03*
X0000146280Y0000337030D03*
X0000146280Y0000347030D03*
X0000146280Y0000357030D03*
X0000146280Y0000367030D03*
X0000146280Y0000377030D03*
X0000146280Y0000387030D03*
X0000156280Y0000247030D03*
X0000156280Y0000257030D03*
X0000156280Y0000267030D03*
X0000156280Y0000277030D03*
X0000156280Y0000287030D03*
X0000156280Y0000297030D03*
X0000156280Y0000337030D03*
X0000156280Y0000347030D03*
X0000156280Y0000357030D03*
X0000156280Y0000367030D03*
X0000156280Y0000377030D03*
X0000156280Y0000387030D03*
G54D29*
X0000163280Y0000200030D03*
X0000163280Y0000210030D03*
X0000163280Y0000220030D03*
X0000187280Y0000220030D03*
X0000187280Y0000210030D03*
M02*
