M48
INCH
T01C.008
T02C.01
T03C.01201
T04C.028
T05C.03
T06C.032
T07C.03543
T08C.03937
T09C.04
T10C.063
T11C.072
T12C.125
T13C.04
T14C.11811
T15C.12795
;LEADER: 12 
;HEADER: 
;CODE  : ASCII 
;FILE  : max10_dk_c-1-10.drl for board #Taaaadx01168.tmp ... layers TOP and BOTTOM
;T01 Holesize 1. = 8.000000 Tolerance = +0.000000/-0.000000 PLATED MILS Quantity = 1105
;T02 Holesize 2. = 10.000000 Tolerance = +0.000000/-0.000000 PLATED MILS Quantity = 669
;T03 Holesize 3. = 12.010000 Tolerance = +0.000000/-0.000000 PLATED MILS Quantity = 66
;T04 Holesize 4. = 28.000000 Tolerance = +0.000000/-0.000000 PLATED MILS Quantity = 10
;T05 Holesize 5. = 30.000000 Tolerance = +0.000000/-0.000000 PLATED MILS Quantity = 6
;T06 Holesize 6. = 32.000000 Tolerance = +0.000000/-0.000000 PLATED MILS Quantity = 3
;T07 Holesize 7. = 35.430000 Tolerance = +0.000000/-0.000000 PLATED MILS Quantity = 28
;T08 Holesize 8. = 39.370000 Tolerance = +0.000000/-0.000000 PLATED MILS Quantity = 20
;T09 Holesize 9. = 40.000000 Tolerance = +0.000000/-0.000000 PLATED MILS Quantity = 26
;T10 Holesize 10. = 63.000000 Tolerance = +0.000000/-0.000000 PLATED MILS Quantity = 4
;T11 Holesize 11. = 72.000000 Tolerance = +0.000000/-0.000000 PLATED MILS Quantity = 12
;T12 Holesize 12. = 125.000000 Tolerance = +0.000000/-0.000000 PLATED MILS Quantity = 4
;T13 Holesize 13. = 40.000000 Tolerance = +0.000000/-0.000000 NON_PLATED MILS Quantity = 2
;T14 Holesize 14. = 118.110000 Tolerance = +0.000000/-0.000000 NON_PLATED MILS Quantity = 4
;T15 Holesize 15. = 127.950000 Tolerance = +0.000000/-0.000000 NON_PLATED MILS Quantity = 2
%
G90
T01
X0000056402Y0000101530
X0000050497Y0000101530
X0000044591Y0000101530
X0000038686Y0000101530
X0000032780Y0000101530
X0000026874Y0000101530
X0000020969Y0000101530
X0000015063Y0000101530
X0000009158Y0000101530
X0000003252Y0000101530
X-0000022338Y0000101530
X-0000028244Y0000101530
X-0000034149Y0000101530
X-0000040055Y0000101530
X-0000045960Y0000101530
X-0000051866Y0000101530
X-0000057771Y0000101530
X-0000063677Y0000101530
X-0000069582Y0000101530
X-0000082620Y0000115830
X-0000073735Y0000113841
X-0000071535Y0000113841
X-0000070720Y0000119030
X-0000067730Y0000116688
X-0000065530Y0000116688
X-0000060920Y0000116730
X-0000059464Y0000119030
X-0000058720Y0000116730
X-0000055669Y0000113779
X-0000053520Y0000113830
X-0000051213Y0000115341
X-0000049013Y0000115341
X-0000044520Y0000116730
X-0000042320Y0000116730
X-0000038202Y0000113541
X-0000036002Y0000113541
X-0000034464Y0000119030
X-0000032020Y0000116630
X-0000029820Y0000116630
X-0000027123Y0000116669
X-0000024923Y0000116669
X-0000022720Y0000115230
X-0000014477Y0000113630
X-0000014477Y0000115830
X0000002280Y0000114530
X0000005105Y0000114741
X0000007305Y0000114741
X0000007780Y0000119030
X0000010126Y0000114730
X0000012326Y0000114730
X0000016916Y0000114741
X0000019116Y0000114741
X0000019276Y0000119030
X0000023680Y0000114630
X0000025880Y0000114630
X0000028727Y0000114741
X0000030927Y0000114741
X0000032780Y0000119030
X0000034633Y0000114741
X0000036833Y0000114741
X0000040538Y0000114688
X0000042738Y0000114688
X0000044276Y0000119030
X0000044980Y0000116654
X0000047180Y0000116654
X0000052249Y0000114688
X0000054449Y0000114688
X0000056280Y0000119030
X0000060780Y0000114960
X0000065280Y0000115030
X0000081780Y0000114530
X0000085717Y0000114530
X0000090780Y0000114530
X0000094780Y0000114530
X0000088045Y0000124070
X0000084955Y0000124070
X0000081200Y0000122400
X0000081000Y0000126100
X0000077200Y0000126100
X0000063380Y0000125530
X0000054549Y0000123972
X0000052349Y0000123972
X0000050280Y0000122030
X0000044780Y0000122030
X0000040480Y0000121330
X0000038280Y0000121330
X0000030926Y0000123972
X0000028727Y0000123972
X0000019116Y0000124020
X0000016916Y0000124020
X0000009680Y0000124030
X0000007305Y0000124020
X0000005105Y0000124020
X-0000018286Y0000121672
X-0000020486Y0000121672
X-0000024820Y0000122430
X-0000027019Y0000122430
X-0000036020Y0000123373
X-0000038220Y0000123373
X-0000051911Y0000123530
X-0000051911Y0000121330
X-0000059625Y0000124272
X-0000061825Y0000124272
X-0000066720Y0000123530
X-0000066720Y0000121330
X-0000069220Y0000124530
X-0000078587Y0000124629
X-0000078587Y0000122429
X-0000075488Y0000136130
X-0000069582Y0000136130
X-0000063677Y0000136130
X-0000057771Y0000136130
X-0000051866Y0000136130
X-0000046720Y0000136530
X-0000044107Y0000137643
X-0000041907Y0000137643
X-0000039120Y0000137530
X-0000034149Y0000136130
X-0000032296Y0000137643
X-0000030096Y0000137643
X-0000028244Y0000136130
X-0000023720Y0000136130
X0000003252Y0000136130
X0000011011Y0000137643
X0000013211Y0000137643
X0000015063Y0000136130
X0000020969Y0000136130
X0000022822Y0000137643
X0000025022Y0000137643
X0000026874Y0000136130
X0000032480Y0000136230
X0000034633Y0000137643
X0000036833Y0000137643
X0000038686Y0000136130
X0000044591Y0000136130
X0000046444Y0000137643
X0000048644Y0000137643
X0000050497Y0000136247
X0000058280Y0000136430
X0000007780Y0000148030
X-0000047120Y0000142430
X-0000047120Y0000140230
X-0000087720Y0000146000
X0000007780Y0000153030
X-0000016720Y0000155780
X-0000025220Y0000158030
X-0000033720Y0000157530
X-0000042412Y0000158680
X-0000042412Y0000156088
X-0000166720Y0000175530
X-0000173220Y0000175030
X-0000177720Y0000175030
X-0000181220Y0000175030
X-0000184720Y0000175030
X-0000188220Y0000175030
X-0000192420Y0000175030
X-0000198220Y0000175530
X-0000217220Y0000175530
X-0000227720Y0000180030
X-0000224320Y0000189830
X-0000220320Y0000189930
X-0000217320Y0000180030
X-0000217320Y0000186780
X-0000213820Y0000186780
X-0000210320Y0000186780
X-0000206820Y0000186730
X-0000205220Y0000180030
X-0000198320Y0000180030
X-0000198320Y0000186780
X-0000194820Y0000186780
X-0000190820Y0000186780
X-0000187320Y0000186780
X-0000185220Y0000180030
X-0000182020Y0000189530
X-0000177820Y0000180030
X-0000176350Y0000189530
X-0000174220Y0000180030
X-0000172165Y0000189475
X-0000166722Y0000180032
X-0000166748Y0000186730
X-0000163220Y0000186780
X-0000159223Y0000186780
X-0000155720Y0000180030
X-0000155720Y0000186780
X-0000146753Y0000186830
X-0000143233Y0000180043
X-0000143233Y0000186805
X-0000139220Y0000186780
X-0000135720Y0000186780
X-0000106286Y0000180470
X-0000106286Y0000184407
X-0000106286Y0000188344
X-0000102349Y0000180470
X-0000102349Y0000184407
X-0000102349Y0000188344
X-0000098412Y0000180470
X-0000098412Y0000184407
X-0000098412Y0000188344
X-0000094475Y0000180470
X-0000094475Y0000184407
X-0000094475Y0000188344
X-0000090538Y0000180470
X-0000090538Y0000184407
X-0000090538Y0000188344
X-0000086601Y0000180470
X-0000086601Y0000184407
X-0000086601Y0000188344
X-0000082664Y0000180470
X-0000082664Y0000184407
X-0000082664Y0000188344
X-0000078727Y0000180470
X-0000078727Y0000184407
X-0000078727Y0000188344
X-0000074790Y0000180470
X-0000074790Y0000184407
X-0000074790Y0000188344
X-0000070853Y0000180470
X-0000070853Y0000184407
X-0000070853Y0000188344
X-0000066916Y0000180470
X-0000066916Y0000184407
X-0000066916Y0000188344
X-0000059042Y0000180470
X-0000059042Y0000184407
X-0000059042Y0000188344
X-0000055105Y0000180470
X-0000055105Y0000184407
X-0000055105Y0000188344
X-0000051168Y0000180470
X-0000051168Y0000184407
X-0000051168Y0000188344
X-0000047231Y0000184407
X-0000047231Y0000188344
X-0000043294Y0000180470
X-0000043294Y0000184407
X-0000043294Y0000188344
X-0000039357Y0000180470
X-0000039357Y0000184407
X-0000039357Y0000188344
X-0000035420Y0000180470
X-0000035420Y0000184407
X-0000035420Y0000188344
X-0000031483Y0000180470
X-0000031483Y0000184407
X-0000031483Y0000188344
X-0000027546Y0000180470
X-0000027546Y0000184407
X-0000027546Y0000188344
X-0000023609Y0000184407
X-0000019672Y0000180470
X0000035080Y0000185830
X0000037080Y0000183430
X0000037280Y0000187985
X-0000015735Y0000196218
X-0000019672Y0000196218
X-0000019672Y0000192281
X-0000023609Y0000196218
X-0000023609Y0000192281
X-0000027546Y0000196218
X-0000027546Y0000192281
X-0000031483Y0000196218
X-0000031483Y0000192281
X-0000035420Y0000196218
X-0000035420Y0000192281
X-0000039357Y0000196218
X-0000039357Y0000192281
X-0000043294Y0000196218
X-0000043294Y0000192281
X-0000047231Y0000196218
X-0000047231Y0000192281
X-0000051168Y0000196218
X-0000051168Y0000192281
X-0000055105Y0000196218
X-0000055105Y0000192281
X-0000059042Y0000196218
X-0000059042Y0000192281
X-0000066916Y0000196218
X-0000066916Y0000192281
X-0000070853Y0000196218
X-0000070853Y0000192281
X-0000074790Y0000196218
X-0000074790Y0000192281
X-0000078727Y0000196218
X-0000078727Y0000192281
X-0000082664Y0000196218
X-0000082664Y0000192281
X-0000086601Y0000196218
X-0000086601Y0000192281
X-0000090538Y0000196218
X-0000090538Y0000192281
X-0000094475Y0000196218
X-0000094475Y0000192281
X-0000098412Y0000196218
X-0000098412Y0000192281
X-0000102349Y0000196218
X-0000102349Y0000192281
X-0000106286Y0000192281
X-0000109700Y0000192200
X-0000110223Y0000196218
X-0000114160Y0000196218
X-0000139220Y0000195030
X-0000142720Y0000195030
X-0000145771Y0000195288
X-0000156720Y0000194530
X-0000167720Y0000194530
X-0000189073Y0000194530
X-0000192222Y0000194530
X-0000195371Y0000194530
X-0000206844Y0000194525
X-0000217320Y0000194530
X-0000223820Y0000197783
X-0000227720Y0000190030
X-0000223820Y0000200932
X-0000223820Y0000204081
X-0000223720Y0000207530
X-0000216220Y0000206030
X-0000216220Y0000208530
X-0000216082Y0000202330
X-0000213320Y0000202030
X-0000210726Y0000202030
X-0000206001Y0000202030
X-0000201277Y0000202030
X-0000193320Y0000202900
X-0000185820Y0000204081
X-0000185820Y0000208806
X-0000182671Y0000208806
X-0000174220Y0000200932
X-0000174220Y0000204081
X-0000174220Y0000207530
X-0000166720Y0000202530
X-0000166720Y0000206030
X-0000166720Y0000208530
X-0000163720Y0000202030
X-0000161126Y0000202030
X-0000156401Y0000202030
X-0000151677Y0000202030
X-0000143700Y0000202500
X-0000143720Y0000206030
X-0000143720Y0000209030
X-0000136220Y0000207530
X-0000136100Y0000203325
X-0000114160Y0000208530
X-0000110223Y0000204092
X-0000106286Y0000200155
X-0000106286Y0000204092
X-0000102349Y0000204092
X-0000098412Y0000200155
X-0000098412Y0000204092
X-0000098412Y0000208029
X-0000094475Y0000200155
X-0000094475Y0000204092
X-0000094475Y0000208029
X-0000090538Y0000200155
X-0000090538Y0000204092
X-0000090538Y0000208029
X-0000086601Y0000200155
X-0000086601Y0000204092
X-0000086601Y0000208029
X-0000082664Y0000200155
X-0000082664Y0000204092
X-0000082664Y0000208029
X-0000078727Y0000200155
X-0000078727Y0000204092
X-0000078727Y0000208029
X-0000074790Y0000200155
X-0000074790Y0000204092
X-0000074790Y0000208029
X-0000070853Y0000200155
X-0000070853Y0000204092
X-0000070853Y0000208029
X-0000066916Y0000200155
X-0000066916Y0000204092
X-0000066916Y0000208029
X-0000059042Y0000200155
X-0000059042Y0000204092
X-0000059042Y0000208029
X-0000055105Y0000200155
X-0000055105Y0000204092
X-0000055105Y0000208029
X-0000051168Y0000200155
X-0000051168Y0000204092
X-0000051168Y0000208029
X-0000047231Y0000200155
X-0000047231Y0000204092
X-0000047231Y0000208029
X-0000043294Y0000200155
X-0000043294Y0000204092
X-0000043294Y0000208029
X-0000039357Y0000200155
X-0000039357Y0000204092
X-0000039357Y0000208029
X-0000035420Y0000200155
X-0000035420Y0000204092
X-0000035420Y0000208029
X-0000031483Y0000200155
X-0000031483Y0000204092
X-0000031483Y0000208029
X-0000027546Y0000200155
X-0000027546Y0000208029
X-0000023609Y0000208029
X-0000019672Y0000208029
X-0000015735Y0000208029
X0000011607Y0000209611
X0000014756Y0000209611
X0000021054Y0000209611
X0000033654Y0000209614
X0000036803Y0000209614
X0000039952Y0000206262
X0000039952Y0000209411
X0000043101Y0000206262
X0000043101Y0000209411
X0000043101Y0000218858
X0000043101Y0000215709
X0000043101Y0000212560
X0000039952Y0000219059
X0000039952Y0000215709
X0000039952Y0000212763
X0000033654Y0000219061
X0000033654Y0000215912
X0000033654Y0000212763
X0000030503Y0000219061
X0000030505Y0000215912
X0000030505Y0000212763
X0000027280Y0000219030
X0000024957Y0000216030
X0000021853Y0000216030
X0000021056Y0000219061
X0000017907Y0000219061
X0000017905Y0000215909
X0000017905Y0000212760
X0000014756Y0000219058
X0000014756Y0000215909
X0000014756Y0000212760
X0000011608Y0000219060
X0000011608Y0000215910
X0000011607Y0000212760
X0000008280Y0000219030
X-0000015735Y0000219840
X-0000015735Y0000211966
X-0000019672Y0000211966
X-0000023609Y0000211966
X-0000027546Y0000215903
X-0000027546Y0000211966
X-0000031483Y0000219840
X-0000031483Y0000215903
X-0000031483Y0000211966
X-0000035420Y0000219840
X-0000035420Y0000215903
X-0000035420Y0000211966
X-0000039357Y0000219840
X-0000039357Y0000215903
X-0000039357Y0000211966
X-0000043294Y0000219840
X-0000043294Y0000215903
X-0000043294Y0000211966
X-0000047231Y0000219840
X-0000047231Y0000211966
X-0000051168Y0000219840
X-0000051168Y0000215903
X-0000051168Y0000211966
X-0000055105Y0000219840
X-0000055105Y0000215903
X-0000055105Y0000211966
X-0000059042Y0000219840
X-0000059042Y0000215903
X-0000059042Y0000211966
X-0000066916Y0000219840
X-0000066916Y0000215903
X-0000066916Y0000211966
X-0000070853Y0000219840
X-0000070853Y0000215903
X-0000070853Y0000211966
X-0000074790Y0000219840
X-0000074790Y0000215903
X-0000074790Y0000211966
X-0000078720Y0000219840
X-0000078727Y0000215903
X-0000078727Y0000211966
X-0000082664Y0000219840
X-0000082664Y0000215903
X-0000082664Y0000211966
X-0000086601Y0000211966
X-0000090538Y0000215903
X-0000090538Y0000211966
X-0000094475Y0000219840
X-0000094475Y0000215903
X-0000094475Y0000211966
X-0000098412Y0000219840
X-0000098412Y0000215903
X-0000098412Y0000211966
X-0000102349Y0000219840
X-0000102349Y0000215903
X-0000102349Y0000211966
X-0000106286Y0000219840
X-0000106286Y0000215903
X-0000106286Y0000211966
X-0000115000Y0000219000
X-0000117220Y0000211966
X-0000120220Y0000212030
X-0000122500Y0000219000
X-0000136220Y0000218254
X-0000136220Y0000215892
X-0000136220Y0000211168
X-0000143720Y0000219436
X-0000143720Y0000216030
X-0000143720Y0000213030
X-0000166452Y0000217073
X-0000174220Y0000219830
X-0000174220Y0000216681
X-0000174220Y0000213532
X-0000174220Y0000211168
X-0000177220Y0000211030
X-0000177369Y0000219830
X-0000177369Y0000216681
X-0000177369Y0000213532
X-0000182720Y0000219530
X-0000185820Y0000218254
X-0000185820Y0000215892
X-0000185820Y0000211168
X-0000193220Y0000216030
X-0000193220Y0000213030
X-0000193177Y0000209987
X-0000193320Y0000219436
X-0000216052Y0000217073
X-0000223820Y0000219830
X-0000223820Y0000216681
X-0000223820Y0000213532
X-0000223820Y0000211168
X-0000226969Y0000219830
X-0000226969Y0000216681
X-0000226969Y0000213532
X-0000226969Y0000210383
X-0000224818Y0000226128
X-0000224818Y0000229277
X-0000223820Y0000222979
X-0000216052Y0000221798
X-0000208600Y0000224800
X-0000196552Y0000224780
X-0000193320Y0000225030
X-0000185820Y0000220617
X-0000183000Y0000223155
X-0000177369Y0000229277
X-0000174220Y0000222979
X-0000174220Y0000229277
X-0000166500Y0000222330
X-0000158720Y0000225210
X-0000146606Y0000225014
X-0000143530Y0000224921
X-0000136420Y0000229530
X-0000136220Y0000220617
X-0000136220Y0000223602
X-0000113720Y0000227485
X-0000109100Y0000227800
X-0000106286Y0000227714
X-0000102349Y0000227714
X-0000094475Y0000227714
X-0000090538Y0000227714
X-0000078727Y0000227714
X-0000074790Y0000227714
X-0000070853Y0000227714
X-0000066916Y0000227714
X-0000059042Y0000227714
X-0000055105Y0000227714
X-0000051168Y0000227714
X-0000047231Y0000227714
X-0000043294Y0000227714
X-0000039357Y0000227714
X-0000035420Y0000227714
X-0000031483Y0000227714
X-0000027546Y0000227714
X-0000023609Y0000227714
X-0000019672Y0000227714
X-0000000939Y0000228180
X0000002280Y0000220530
X0000011608Y0000222209
X0000011608Y0000225358
X0000011608Y0000228508
X0000014757Y0000222209
X0000014756Y0000225358
X0000014756Y0000228507
X0000017906Y0000222207
X0000017905Y0000225358
X0000017906Y0000228506
X0000021056Y0000225358
X0000027354Y0000222210
X0000027354Y0000225359
X0000030503Y0000222210
X0000030503Y0000225359
X0000033654Y0000225359
X0000033654Y0000228508
X0000036803Y0000222210
X0000036803Y0000225359
X0000036803Y0000228508
X0000039952Y0000222210
X0000039952Y0000225359
X0000039952Y0000228508
X0000039952Y0000231657
X0000036803Y0000234806
X0000036803Y0000231657
X0000033654Y0000234806
X0000033654Y0000231657
X0000030505Y0000234806
X0000030503Y0000231657
X0000027354Y0000237958
X0000025854Y0000232511
X0000025780Y0000230030
X0000024205Y0000237958
X0000024205Y0000234809
X0000017906Y0000237955
X0000017906Y0000234806
X0000017906Y0000231657
X0000014757Y0000237955
X0000014757Y0000234806
X0000002280Y0000237530
X-0000000939Y0000231680
X-0000007220Y0000235530
X-0000019672Y0000231651
X-0000027546Y0000235588
X-0000031483Y0000239525
X-0000031483Y0000235588
X-0000031483Y0000231651
X-0000035420Y0000239525
X-0000035420Y0000235588
X-0000035420Y0000231651
X-0000039357Y0000239525
X-0000039357Y0000235588
X-0000039357Y0000231651
X-0000043294Y0000239525
X-0000043294Y0000235588
X-0000043294Y0000231651
X-0000047231Y0000239525
X-0000047231Y0000235588
X-0000047231Y0000231651
X-0000051168Y0000239525
X-0000051168Y0000235588
X-0000051168Y0000231651
X-0000055105Y0000239525
X-0000055105Y0000235588
X-0000055105Y0000231651
X-0000059042Y0000239525
X-0000059042Y0000235588
X-0000059042Y0000231651
X-0000066916Y0000239530
X-0000066916Y0000235588
X-0000066916Y0000231651
X-0000070853Y0000239525
X-0000070853Y0000235588
X-0000070853Y0000231651
X-0000074790Y0000239525
X-0000074790Y0000235588
X-0000074790Y0000231651
X-0000078727Y0000239525
X-0000078727Y0000235588
X-0000078727Y0000231651
X-0000082664Y0000235588
X-0000082664Y0000231651
X-0000086601Y0000239525
X-0000086601Y0000235588
X-0000086601Y0000231651
X-0000090538Y0000239525
X-0000090538Y0000235588
X-0000090538Y0000231651
X-0000094475Y0000239525
X-0000094475Y0000235588
X-0000094475Y0000231651
X-0000098412Y0000239525
X-0000098412Y0000235588
X-0000132220Y0000236990
X-0000137720Y0000232530
X-0000141052Y0000232530
X-0000144220Y0000232530
X-0000150499Y0000232530
X-0000153648Y0000232530
X-0000156797Y0000232530
X-0000159946Y0000232530
X-0000163095Y0000235679
X-0000163095Y0000232530
X-0000166244Y0000235679
X-0000166244Y0000232530
X-0000169393Y0000232530
X-0000172720Y0000232530
X-0000183720Y0000232530
X-0000187320Y0000232530
X-0000190652Y0000232530
X-0000193720Y0000232530
X-0000200099Y0000232530
X-0000203248Y0000232530
X-0000206397Y0000232530
X-0000209546Y0000232530
X-0000212695Y0000235679
X-0000212695Y0000232530
X-0000215844Y0000235679
X-0000215844Y0000232530
X-0000218993Y0000232530
X-0000222320Y0000232530
X-0000222420Y0000235830
X-0000177026Y0000240404
X-0000164968Y0000240030
X-0000161031Y0000240030
X-0000157094Y0000240030
X-0000153157Y0000240030
X-0000149220Y0000240030
X-0000139500Y0000240030
X-0000135220Y0000239985
X-0000110223Y0000243462
X-0000110223Y0000247399
X-0000098412Y0000247399
X-0000094475Y0000243462
X-0000094475Y0000247399
X-0000090538Y0000243462
X-0000090538Y0000247399
X-0000086601Y0000247399
X-0000082664Y0000243462
X-0000082664Y0000247399
X-0000078727Y0000243462
X-0000078727Y0000247399
X-0000074790Y0000243462
X-0000074790Y0000247399
X-0000070853Y0000243462
X-0000070853Y0000247399
X-0000066916Y0000243462
X-0000066916Y0000247399
X-0000059042Y0000243462
X-0000059042Y0000247399
X-0000055105Y0000243462
X-0000055105Y0000247399
X-0000051168Y0000243462
X-0000051168Y0000247399
X-0000047231Y0000243462
X-0000047231Y0000247399
X-0000043294Y0000243462
X-0000043294Y0000247399
X-0000039357Y0000243462
X-0000039357Y0000247399
X-0000035420Y0000243462
X-0000035420Y0000247399
X-0000031483Y0000243462
X-0000031483Y0000247399
X-0000027546Y0000243462
X-0000027546Y0000247399
X-0000023609Y0000243462
X-0000023609Y0000247399
X-0000007220Y0000240530
X-0000004270Y0000246500
X-0000000770Y0000246530
X0000002780Y0000246530
X0000011607Y0000247405
X0000024205Y0000241107
X0000024205Y0000244256
X0000024205Y0000247405
X0000027354Y0000241107
X0000027354Y0000244256
X0000027354Y0000247405
X0000036803Y0000241107
X0000041780Y0000245530
X0000051030Y0000245530
X0000091280Y0000258030
X0000039952Y0000256852
X0000039952Y0000250554
X0000036803Y0000253703
X0000027354Y0000256852
X0000027354Y0000253703
X0000027354Y0000250554
X0000024205Y0000256852
X0000024205Y0000253703
X0000024205Y0000250554
X0000011607Y0000256852
X0000011607Y0000253703
X0000011607Y0000250554
X0000003835Y0000255475
X0000002780Y0000250375
X-0000007220Y0000255375
X-0000007220Y0000250530
X-0000015100Y0000255273
X-0000017695Y0000257600
X-0000019300Y0000259900
X-0000019672Y0000255273
X-0000019672Y0000251336
X-0000023609Y0000255273
X-0000023609Y0000251336
X-0000027546Y0000255273
X-0000027546Y0000251336
X-0000031483Y0000259210
X-0000031483Y0000255273
X-0000031483Y0000251337
X-0000035420Y0000259210
X-0000035420Y0000255273
X-0000035420Y0000251336
X-0000039357Y0000259210
X-0000039357Y0000255273
X-0000043294Y0000259210
X-0000043294Y0000255273
X-0000043294Y0000251336
X-0000047231Y0000259210
X-0000047231Y0000255273
X-0000047231Y0000251336
X-0000051168Y0000259210
X-0000051168Y0000255273
X-0000051168Y0000251336
X-0000055105Y0000259210
X-0000055105Y0000255273
X-0000055105Y0000251336
X-0000059042Y0000259210
X-0000059042Y0000255273
X-0000059042Y0000251336
X-0000066916Y0000259210
X-0000066916Y0000255273
X-0000066916Y0000251336
X-0000070853Y0000259210
X-0000070853Y0000255273
X-0000074790Y0000255273
X-0000074790Y0000251336
X-0000078727Y0000259210
X-0000078727Y0000255273
X-0000078727Y0000251336
X-0000082664Y0000259210
X-0000082664Y0000255273
X-0000082664Y0000251336
X-0000086601Y0000259210
X-0000086601Y0000255273
X-0000090538Y0000259210
X-0000090538Y0000255273
X-0000094475Y0000259210
X-0000094475Y0000251336
X-0000098412Y0000259210
X-0000098412Y0000251336
X-0000102349Y0000259210
X-0000102349Y0000255273
X-0000187720Y0000259030
X-0000191220Y0000259030
X-0000194220Y0000259030
X-0000106286Y0000263147
X-0000106286Y0000267084
X-0000098412Y0000267084
X-0000094475Y0000267084
X-0000090538Y0000263147
X-0000086601Y0000263147
X-0000086601Y0000267084
X-0000082664Y0000263147
X-0000082664Y0000267084
X-0000074790Y0000263147
X-0000074790Y0000267084
X-0000070853Y0000263147
X-0000070853Y0000267084
X-0000066916Y0000263147
X-0000066916Y0000267084
X-0000059042Y0000263147
X-0000059042Y0000267084
X-0000055105Y0000263147
X-0000055105Y0000267084
X-0000051168Y0000263147
X-0000051168Y0000267084
X-0000047231Y0000263147
X-0000047231Y0000267084
X-0000043294Y0000263147
X-0000043294Y0000267084
X-0000039357Y0000263147
X-0000039357Y0000267084
X-0000035420Y0000263147
X-0000035420Y0000267084
X-0000031483Y0000263147
X-0000031483Y0000267084
X-0000027546Y0000263147
X-0000019672Y0000263147
X-0000019672Y0000267084
X0000011607Y0000260001
X0000024205Y0000260001
X0000024205Y0000263150
X0000024205Y0000266299
X0000024205Y0000269448
X0000027354Y0000260001
X0000027354Y0000263150
X0000027354Y0000266299
X0000027354Y0000269448
X0000034750Y0000265500
X0000037500Y0000264000
X0000039952Y0000260001
X0000059780Y0000262030
X0000059890Y0000266030
X0000063780Y0000262030
X0000063780Y0000266030
X0000068780Y0000266030
X0000073280Y0000266030
X0000077280Y0000262030
X0000082280Y0000262030
X0000086280Y0000262030
X0000091280Y0000262030
X0000073780Y0000278030
X0000069780Y0000278030
X0000065280Y0000278030
X0000061800Y0000278000
X0000058950Y0000278050
X0000055780Y0000278030
X0000052480Y0000278030
X0000039235Y0000278203
X0000024205Y0000272597
X0000010625Y0000277295
X0000007436Y0000277295
X0000004287Y0000277295
X-0000021210Y0000271690
X-0000049720Y0000278930
X-0000053370Y0000278880
X-0000082664Y0000270530
X-0000086631Y0000273919
X-0000086725Y0000276280
X-0000086720Y0000270530
X-0000098412Y0000271021
X-0000102349Y0000271021
X-0000072900Y0000284800
X-0000070000Y0000285300
X-0000068220Y0000287030
X-0000035220Y0000289130
X-0000008309Y0000283593
X-0000005160Y0000280444
X-0000005160Y0000283593
X-0000002011Y0000280444
X-0000002021Y0000283593
X0000001128Y0000280444
X0000001128Y0000283593
X0000004287Y0000280444
X0000007100Y0000283593
X0000007436Y0000280444
X0000010475Y0000283585
X0000010605Y0000280444
X0000013774Y0000283593
X0000016883Y0000280444
X0000016883Y0000283593
X0000020032Y0000280444
X0000020032Y0000283593
X0000023181Y0000280444
X0000023181Y0000283593
X0000026330Y0000283593
X0000026330Y0000286742
X0000026330Y0000289891
X0000034359Y0000281735
X0000034359Y0000285672
X0000034359Y0000289609
X0000038422Y0000285672
X0000038359Y0000289609
X0000038485Y0000281735
X0000038327Y0000297483
X0000038296Y0000293546
X0000034359Y0000297483
X0000034359Y0000293546
X0000029780Y0000299338
X0000026330Y0000299338
X0000026330Y0000293040
X0000016780Y0000293030
X0000015200Y0000297255
X0000014280Y0000294535
X0000012780Y0000293030
X0000010780Y0000293530
X0000007780Y0000293530
X0000005683Y0000293530
X0000002827Y0000293483
X-0000001220Y0000296381
X-0000004720Y0000299530
X-0000004720Y0000296381
X-0000005196Y0000293506
X-0000014657Y0000299337
X-0000014700Y0000296400
X-0000014657Y0000293040
X-0000017806Y0000299338
X-0000018220Y0000290380
X-0000019320Y0000295030
X-0000022720Y0000295030
X-0000035220Y0000292530
X-0000057500Y0000292800
X-0000058141Y0000297601
X-0000063830Y0000299409
X-0000068220Y0000290030
X-0000071600Y0000292530
X-0000090720Y0000296530
X-0000102813Y0000291937
X-0000106220Y0000292030
X-0000106578Y0000296529
X-0000106578Y0000300466
X-0000106090Y0000304550
X-0000102641Y0000300466
X-0000102641Y0000304525
X-0000098704Y0000300466
X-0000098704Y0000304525
X-0000094767Y0000300466
X-0000094767Y0000304525
X-0000090830Y0000300466
X-0000090830Y0000304525
X-0000086893Y0000300466
X-0000086893Y0000304403
X-0000083220Y0000304530
X-0000069420Y0000300155
X-0000069420Y0000303255
X-0000063830Y0000302909
X-0000061593Y0000309093
X-0000056863Y0000306680
X-0000034720Y0000306680
X-0000029720Y0000306680
X-0000026400Y0000306675
X-0000020955Y0000305636
X-0000017806Y0000308680
X-0000014657Y0000305636
X-0000014657Y0000308575
X-0000004720Y0000302530
X-0000004720Y0000305530
X-0000004720Y0000308530
X0000001030Y0000301780
X0000004530Y0000301780
X0000008530Y0000301780
X0000009780Y0000307530
X0000010230Y0000304780
X0000010600Y0000301800
X0000015300Y0000299955
X0000015296Y0000302833
X0000015335Y0000305840
X0000015280Y0000308530
X0000026330Y0000302487
X0000026330Y0000305636
X0000026260Y0000308350
X0000029680Y0000302530
X0000034359Y0000305357
X0000038390Y0000301420
X0000038453Y0000305357
X0000095280Y0000307600
X0000093300Y0000314380
X0000026330Y0000318232
X0000026330Y0000314325
X0000026300Y0000310485
X0000015362Y0000314948
X0000010280Y0000313530
X0000007280Y0000313530
X0000004380Y0000313530
X0000001600Y0000313500
X-0000001335Y0000311922
X-0000003276Y0000314976
X-0000005315Y0000314906
X-0000014720Y0000315530
X-0000017720Y0000315530
X-0000048800Y0000317030
X-0000063220Y0000316959
X-0000067299Y0000328651
X-0000067220Y0000320730
X-0000067236Y0000324714
X-0000063283Y0000320730
X-0000063299Y0000324714
X-0000059425Y0000328651
X-0000055488Y0000328651
X-0000025220Y0000327530
X-0000017720Y0000321219
X-0000014220Y0000324530
X-0000011508Y0000324530
X-0000011508Y0000327679
X-0000008720Y0000324530
X-0000004720Y0000324530
X-0000002061Y0000324530
X-0000002061Y0000327679
X0000001088Y0000324530
X0000001088Y0000327679
X0000004237Y0000324530
X0000004237Y0000327679
X0000007386Y0000324530
X0000007386Y0000327679
X0000010535Y0000324530
X0000010535Y0000327679
X0000013684Y0000324530
X0000013684Y0000327679
X0000016833Y0000324530
X0000016833Y0000327679
X0000019982Y0000324530
X0000023131Y0000324530
X0000023131Y0000327679
X0000026330Y0000321381
X0000026330Y0000324530
X0000041780Y0000327030
X0000046900Y0000322500
X0000050100Y0000322500
X0000057000Y0000322530
X0000060280Y0000322530
X0000071730Y0000322530
X0000041780Y0000332030
X0000032280Y0000335030
X0000019280Y0000335030
X0000007280Y0000335030
X0000002280Y0000337530
X-0000020220Y0000332530
X-0000025220Y0000332530
X-0000064600Y0000335135
X-0000064720Y0000339467
X-0000073220Y0000335530
X-0000077188Y0000337089
X-0000081220Y0000339530
X-0000081220Y0000343530
X-0000078600Y0000346000
X-0000073720Y0000346030
X-0000064720Y0000343404
X-0000020220Y0000342530
X-0000005220Y0000346030
X0000019280Y0000343530
X0000032280Y0000342286
X0000019780Y0000354439
X0000034189Y0000354439
X0000039280Y0000354439
X0000072280Y0000354439
X0000076280Y0000354439
X0000082280Y0000354439
X0000092030Y0000354439
X0000095780Y0000354439
T02
X-0000212320Y0000221630
X-0000212320Y0000217030
X-0000212320Y0000212030
X-0000212320Y0000207030
X-0000202820Y0000182730
X-0000202820Y0000187030
X-0000207320Y0000207030
X-0000202320Y0000207030
X-0000197320Y0000207030
X-0000207320Y0000212030
X-0000202320Y0000212030
X-0000197320Y0000212030
X-0000207320Y0000217030
X-0000202320Y0000217030
X-0000197320Y0000217030
X-0000197320Y0000221030
X-0000207320Y0000221630
X-0000202320Y0000221630
X-0000197392Y0000241500
X-0000185000Y0000241500
X-0000185542Y0000267000
X-0000185720Y0000284030
X-0000197551Y0000290030
X-0000193960Y0000290270
X-0000189486Y0000292130
X-0000189261Y0000296162
X-0000189220Y0000300280
X-0000183220Y0000300280
X-0000198720Y0000303030
X-0000190220Y0000310800
X-0000185200Y0000311020
X-0000193960Y0000336000
X-0000189000Y0000337500
X-0000189261Y0000342412
X-0000189220Y0000346530
X-0000183220Y0000346530
X-0000198720Y0000348030
X-0000190220Y0000358030
X-0000184500Y0000358000
X-0000151970Y0000291530
X-0000162570Y0000291530
X-0000168970Y0000291530
X-0000177720Y0000291510
X-0000151970Y0000286959
X-0000156470Y0000286959
X-0000162570Y0000286959
X-0000168970Y0000286959
X-0000173220Y0000287000
X-0000179720Y0000284030
X-0000151970Y0000282387
X-0000162570Y0000282387
X-0000168970Y0000282387
X-0000151970Y0000277816
X-0000156470Y0000277816
X-0000162570Y0000277816
X-0000168970Y0000277816
X-0000175500Y0000273454
X-0000151970Y0000273244
X-0000162570Y0000273244
X-0000168970Y0000273244
X-0000151970Y0000268673
X-0000156470Y0000268673
X-0000162570Y0000268673
X-0000168970Y0000268673
X-0000179500Y0000267500
X-0000151970Y0000264101
X-0000162570Y0000264101
X-0000168970Y0000264101
X-0000151970Y0000259530
X-0000156470Y0000259530
X-0000162570Y0000259530
X-0000168970Y0000259530
X-0000153220Y0000222030
X-0000158220Y0000222030
X-0000163220Y0000222030
X-0000153220Y0000217030
X-0000158220Y0000217030
X-0000163220Y0000217030
X-0000153220Y0000212030
X-0000158220Y0000212030
X-0000163220Y0000212030
X-0000153220Y0000207030
X-0000158220Y0000207030
X-0000163220Y0000207030
X-0000151220Y0000187030
X-0000151320Y0000181730
X-0000138720Y0000116030
X-0000122500Y0000130000
X-0000123720Y0000144530
X-0000141470Y0000156780
X-0000134720Y0000172530
X-0000129220Y0000172530
X-0000134720Y0000177530
X-0000129220Y0000177530
X-0000129120Y0000187530
X-0000123220Y0000192530
X-0000132720Y0000195030
X-0000128890Y0000197110
X-0000148220Y0000207030
X-0000148220Y0000212030
X-0000148220Y0000217030
X-0000148220Y0000222030
X-0000122663Y0000223530
X-0000123600Y0000229400
X-0000145570Y0000259530
X-0000139470Y0000259530
X-0000145570Y0000264101
X-0000126720Y0000268530
X-0000121720Y0000268530
X-0000145570Y0000268673
X-0000139470Y0000268673
X-0000145570Y0000273244
X-0000133720Y0000277530
X-0000127720Y0000277530
X-0000145570Y0000277816
X-0000139470Y0000277816
X-0000145570Y0000282387
X-0000145570Y0000286959
X-0000139470Y0000286959
X-0000145570Y0000291530
X-0000121000Y0000297000
X-0000130500Y0000299000
X-0000120740Y0000301185
X-0000130250Y0000302500
X-0000136720Y0000303280
X-0000120720Y0000305030
X-0000120547Y0000309030
X-0000120547Y0000312903
X-0000124547Y0000316840
X-0000120610Y0000316840
X-0000124547Y0000320777
X-0000120673Y0000320777
X-0000130000Y0000324500
X-0000124547Y0000324714
X-0000120704Y0000324714
X-0000133921Y0000328651
X-0000129984Y0000328651
X-0000124547Y0000328651
X-0000120641Y0000328651
X-0000134700Y0000332530
X-0000124547Y0000332588
X-0000120641Y0000332707
X-0000136500Y0000339500
X-0000129700Y0000343300
X-0000125700Y0000343600
X-0000136720Y0000343730
X-0000120220Y0000347030
X-0000120220Y0000351030
X-0000135720Y0000352530
X-0000138500Y0000354500
X-0000120220Y0000355030
X-0000135720Y0000356030
X-0000140220Y0000357030
X-0000140220Y0000360530
X-0000136720Y0000360530
X-0000132800Y0000361200
X-0000128000Y0000361200
X-0000123000Y0000361200
X-0000140000Y0000375000
X-0000135000Y0000375000
X-0000140000Y0000380000
X-0000135000Y0000380000
X-0000095000Y0000382500
X-0000092500Y0000380000
X-0000107220Y0000359030
X-0000111220Y0000359030
X-0000093220Y0000357030
X-0000107220Y0000355530
X-0000115370Y0000355030
X-0000095120Y0000353080
X-0000115370Y0000351030
X-0000095120Y0000349580
X-0000115370Y0000347030
X-0000095720Y0000343730
X-0000104720Y0000343730
X-0000109120Y0000343730
X-0000113220Y0000343730
X-0000117220Y0000340500
X-0000094220Y0000334230
X-0000101220Y0000334230
X-0000107220Y0000334230
X-0000094220Y0000326730
X-0000101220Y0000326730
X-0000107220Y0000326730
X-0000094220Y0000319230
X-0000101220Y0000319230
X-0000107220Y0000319230
X-0000094220Y0000313230
X-0000101220Y0000313230
X-0000107220Y0000313030
X-0000119500Y0000289500
X-0000116177Y0000286323
X-0000092720Y0000281530
X-0000117720Y0000254030
X-0000116720Y0000223530
X-0000119220Y0000192530
X-0000110783Y0000182030
X-0000114720Y0000182030
X-0000114720Y0000177530
X-0000118220Y0000177530
X-0000102300Y0000175200
X-0000107257Y0000175167
X-0000090220Y0000172530
X-0000114720Y0000172530
X-0000118220Y0000172530
X-0000102320Y0000171230
X-0000107257Y0000171230
X-0000090220Y0000167530
X-0000095220Y0000167530
X-0000100220Y0000167530
X-0000105220Y0000167530
X-0000110620Y0000167530
X-0000114557Y0000167530
X-0000095220Y0000162530
X-0000096470Y0000151280
X-0000114207Y0000144572
X-0000098520Y0000136880
X-0000102020Y0000136880
X-0000106020Y0000136880
X-0000112520Y0000134030
X-0000076220Y0000116030
X-0000089220Y0000135030
X-0000080220Y0000175030
X-0000080550Y0000280350
X-0000087720Y0000285030
X-0000067220Y0000312980
X-0000087220Y0000313230
X-0000087220Y0000319230
X-0000087220Y0000326730
X-0000087220Y0000334230
X-0000069720Y0000339530
X-0000088691Y0000343730
X-0000064720Y0000347341
X-0000089620Y0000349580
X-0000077720Y0000350030
X-0000073820Y0000350030
X-0000064550Y0000352860
X-0000089620Y0000353080
X-0000083800Y0000353100
X-0000088220Y0000357030
X-0000069220Y0000359030
X-0000065220Y0000359030
X-0000076519Y0000363800
X-0000090000Y0000377500
X-0000087500Y0000380000
X-0000090000Y0000382500
X-0000045720Y0000393030
X-0000035205Y0000387545
X-0000039720Y0000387530
X-0000043720Y0000377530
X-0000047720Y0000377530
X-0000041200Y0000366180
X-0000048200Y0000359100
X-0000058700Y0000359000
X-0000045720Y0000350030
X-0000050720Y0000350030
X-0000055720Y0000350030
X-0000045720Y0000345030
X-0000050720Y0000345030
X-0000055720Y0000345030
X-0000045720Y0000340030
X-0000050720Y0000340030
X-0000055720Y0000340030
X-0000034720Y0000337530
X-0000034720Y0000332730
X-0000034720Y0000327530
X-0000049220Y0000324630
X-0000034720Y0000320730
X-0000034720Y0000313030
X-0000045720Y0000312980
X-0000048863Y0000312980
X-0000052363Y0000312980
X-0000041863Y0000304679
X-0000045863Y0000304679
X-0000049863Y0000304679
X-0000041863Y0000300679
X-0000045863Y0000300679
X-0000049863Y0000300679
X-0000034720Y0000297726
X-0000041863Y0000296679
X-0000045863Y0000296679
X-0000049863Y0000296679
X-0000045863Y0000289179
X-0000052720Y0000160030
X-0000058820Y0000157230
X-0000058820Y0000147430
X-0000000220Y0000148030
X-0000008720Y0000152030
X-0000025220Y0000154130
X-0000008720Y0000156030
X-0000000270Y0000157130
X-0000000220Y0000161030
X-0000007031Y0000166030
X-0000003094Y0000166093
X-0000007031Y0000170030
X-0000003094Y0000170030
X-0000007031Y0000173967
X-0000007220Y0000223530
X-0000007022Y0000227376
X-0000007022Y0000231376
X-0000007220Y0000259030
X-0000007220Y0000263030
X-0000011125Y0000263125
X-0000020220Y0000327530
X-0000002720Y0000342286
X-0000025220Y0000342530
X-0000024720Y0000367030
X-0000018220Y0000367030
X-0000029600Y0000367200
X-0000014340Y0000370000
X-0000008220Y0000370030
X-0000024720Y0000387530
X-0000014720Y0000387530
X-0000005720Y0000387530
X-0000001220Y0000387530
X0000009530Y0000387530
X0000003280Y0000387530
X0000017030Y0000385030
X0000003780Y0000367530
X0000011780Y0000367030
X0000027030Y0000358400
X0000021780Y0000331180
X0000009780Y0000331180
X0000003091Y0000259504
X0000007820Y0000211870
X0000022280Y0000202030
X0000017280Y0000202030
X0000012280Y0000202030
X0000018031Y0000191780
X0000008918Y0000191798
X0000004780Y0000191530
X0000028280Y0000181030
X0000028280Y0000177030
X0000028280Y0000173030
X0000023780Y0000173030
X0000012900Y0000170100
X0000009100Y0000170100
X0000000843Y0000170030
X0000017680Y0000169230
X0000028280Y0000169030
X0000023780Y0000169030
X0000010900Y0000167700
X0000000843Y0000166093
X0000017800Y0000165300
X0000025680Y0000165230
X0000021800Y0000165100
X0000012500Y0000164700
X0000009200Y0000164600
X0000012780Y0000160030
X0000008780Y0000160030
X0000028780Y0000154953
X0000012280Y0000155030
X0000024780Y0000154530
X0000017280Y0000148030
X0000013280Y0000148030
X0000041000Y0000141500
X0000044937Y0000141500
X0000048874Y0000141500
X0000040500Y0000147000
X0000044437Y0000147000
X0000048374Y0000147000
X0000055800Y0000147200
X0000034500Y0000150000
X0000054000Y0000150500
X0000034500Y0000157530
X0000044680Y0000165030
X0000055600Y0000168400
X0000044680Y0000170030
X0000049680Y0000170030
X0000058700Y0000170900
X0000044680Y0000175030
X0000059680Y0000175030
X0000059680Y0000179530
X0000044680Y0000180030
X0000059680Y0000183630
X0000056780Y0000187030
X0000045880Y0000187130
X0000035780Y0000192030
X0000041780Y0000192830
X0000032361Y0000197030
X0000036280Y0000197030
X0000041680Y0000197030
X0000059865Y0000215055
X0000059843Y0000217967
X0000051100Y0000221700
X0000059843Y0000221904
X0000048500Y0000225359
X0000059843Y0000226530
X0000045780Y0000228530
X0000051000Y0000228500
X0000055280Y0000228530
X0000059780Y0000233030
X0000048000Y0000236000
X0000051830Y0000235980
X0000055280Y0000236030
X0000055611Y0000245630
X0000049000Y0000248530
X0000051000Y0000252000
X0000056049Y0000252000
X0000049000Y0000255530
X0000059780Y0000255660
X0000055280Y0000266030
X0000049478Y0000283030
X0000053280Y0000283030
X0000058280Y0000285530
X0000057780Y0000291530
X0000057780Y0000297530
X0000057780Y0000302030
X0000057800Y0000311600
X0000045280Y0000311730
X0000049780Y0000311730
X0000053000Y0000322500
X0000055780Y0000326530
X0000034280Y0000331185
X0000049780Y0000336030
X0000047032Y0000368530
X0000052937Y0000368530
X0000058843Y0000368530
X0000078100Y0000375800
X0000083000Y0000369000
X0000078281Y0000369030
X0000074780Y0000369030
X0000064749Y0000368530
X0000088780Y0000327530
X0000077607Y0000322530
X0000065796Y0000322530
X0000083780Y0000311730
X0000073780Y0000311730
X0000069280Y0000311730
X0000064780Y0000311730
X0000061600Y0000311700
X0000083280Y0000306530
X0000083780Y0000302530
X0000073280Y0000302030
X0000067780Y0000302030
X0000062780Y0000302030
X0000083780Y0000298530
X0000073280Y0000297530
X0000067780Y0000297530
X0000062780Y0000297530
X0000073280Y0000291530
X0000067780Y0000291530
X0000062780Y0000291530
X0000073280Y0000285530
X0000067780Y0000285530
X0000062780Y0000285530
X0000083780Y0000284030
X0000088280Y0000275530
X0000083780Y0000275530
X0000086780Y0000247030
X0000071717Y0000243530
X0000067717Y0000243530
X0000063780Y0000233030
X0000063780Y0000226530
X0000071654Y0000221904
X0000067717Y0000221904
X0000063780Y0000221904
X0000071654Y0000217967
X0000067717Y0000217967
X0000063780Y0000217967
X0000063802Y0000215055
X0000071654Y0000214030
X0000067717Y0000214030
X0000087402Y0000206530
X0000083465Y0000206530
X0000079528Y0000206530
X0000075591Y0000206530
X0000071654Y0000206530
X0000067717Y0000206530
X0000075591Y0000197030
X0000079528Y0000194030
X0000075591Y0000192030
X0000071800Y0000192000
X0000067700Y0000192030
X0000087402Y0000189530
X0000083465Y0000189530
X0000079528Y0000189530
X0000072000Y0000187600
X0000079811Y0000171000
X0000075874Y0000171000
X0000071100Y0000171000
X0000079811Y0000167300
X0000075874Y0000167300
X0000071100Y0000167300
X0000075974Y0000163400
X0000071337Y0000163400
X0000080700Y0000162500
X0000080900Y0000158500
X0000081100Y0000154600
X0000077280Y0000122530
X0000063528Y0000122030
X0000085780Y0000119030
X0000077280Y0000115030
X0000082600Y0000101500
X0000097600Y0000101500
X0000112600Y0000101500
X0000098016Y0000116030
X0000110280Y0000119030
X0000098016Y0000122030
X0000093000Y0000153280
X0000112616Y0000153280
X0000093000Y0000156900
X0000101200Y0000158030
X0000112616Y0000158030
X0000115780Y0000159630
X0000093000Y0000160400
X0000096900Y0000161900
X0000101000Y0000162200
X0000112800Y0000162300
X0000093000Y0000165780
X0000118430Y0000177130
X0000091339Y0000177593
X0000107280Y0000177593
X0000111530Y0000177593
X0000118601Y0000183709
X0000091339Y0000189530
X0000095276Y0000189530
X0000095276Y0000193467
X0000095276Y0000202593
X0000091339Y0000206530
X0000095276Y0000206530
X0000117280Y0000237530
X0000111434Y0000239784
X0000095780Y0000247530
X0000112434Y0000261984
X0000117280Y0000267030
X0000111780Y0000273796
X0000092280Y0000275530
X0000111780Y0000277530
X0000117280Y0000277530
X0000117280Y0000282030
X0000095280Y0000288530
X0000104952Y0000289358
X0000111686Y0000295936
X0000095300Y0000297350
X0000095200Y0000300800
X0000104952Y0000301358
X0000095200Y0000304400
X0000119780Y0000306530
X0000116957Y0000310707
X0000095280Y0000311030
X0000104952Y0000311358
X0000112127Y0000317877
X0000104952Y0000322530
X0000094080Y0000334530
X0000107000Y0000335000
X0000094080Y0000338530
X0000094189Y0000342421
X0000116280Y0000342530
X0000094080Y0000346530
X0000117780Y0000358530
X0000098007Y0000361957
X0000132000Y0000366313
X0000138500Y0000363500
X0000138500Y0000359000
X0000121780Y0000358530
X0000136416Y0000344367
X0000132479Y0000344367
X0000126200Y0000343800
X0000126200Y0000339817
X0000130600Y0000335300
X0000126300Y0000335200
X0000133900Y0000332700
X0000143593Y0000321905
X0000127280Y0000321500
X0000122280Y0000321500
X0000139433Y0000317877
X0000125627Y0000317877
X0000143592Y0000316030
X0000143592Y0000309030
X0000125280Y0000306530
X0000143592Y0000305030
X0000139186Y0000295936
X0000126780Y0000282030
X0000122280Y0000282030
X0000126780Y0000278030
X0000122280Y0000278030
X0000132280Y0000267030
X0000128280Y0000267030
X0000122280Y0000267030
X0000138934Y0000261984
X0000140780Y0000238030
X0000126780Y0000237530
X0000122280Y0000237530
X0000133280Y0000227530
X0000142280Y0000220530
X0000142280Y0000215630
X0000142280Y0000208530
X0000132280Y0000197530
X0000132280Y0000194030
X0000145380Y0000189130
X0000132780Y0000189130
X0000132780Y0000185630
X0000145380Y0000185230
X0000128780Y0000177130
X0000147280Y0000132530
X0000147280Y0000127530
X0000123016Y0000122294
X0000142268Y0000122018
X0000134780Y0000119030
X0000123016Y0000116266
X0000142268Y0000116030
X0000142600Y0000101500
X0000127600Y0000101500
X0000150280Y0000119030
X0000152280Y0000127530
X0000157280Y0000127530
X0000152280Y0000132530
X0000157280Y0000132530
X0000169500Y0000192500
X0000164780Y0000244030
X0000178500Y0000253000
X0000164000Y0000262500
X0000167667Y0000262500
X0000171333Y0000262500
X0000175000Y0000262500
X0000164780Y0000271030
X0000166435Y0000281530
X0000171435Y0000281530
X0000176780Y0000281530
X0000166435Y0000286030
X0000171435Y0000286030
X0000176780Y0000286030
X0000176780Y0000291030
X0000155280Y0000309530
X0000160426Y0000315540
X0000160280Y0000321030
X0000177280Y0000337530
X0000169780Y0000337619
X0000173780Y0000337619
X0000169780Y0000342619
X0000173780Y0000342619
X0000177280Y0000346530
X0000169780Y0000346619
X0000173780Y0000346619
X0000166280Y0000359530
X0000178423Y0000369000
X0000174566Y0000369066
X0000170709Y0000369180
X0000167137Y0000378363
X0000162500Y0000378500
X0000166780Y0000386530
X0000186780Y0000386530
X0000189000Y0000378500
X0000185500Y0000378500
X0000182280Y0000369000
X0000186780Y0000359530
X0000191454Y0000346619
X0000188454Y0000346619
X0000191454Y0000342619
X0000191454Y0000337619
X0000188454Y0000337619
X0000191454Y0000332619
X0000186454Y0000332619
X0000191454Y0000327619
X0000186454Y0000327619
X0000191454Y0000297619
X0000186454Y0000297619
X0000191454Y0000291030
X0000186454Y0000291030
X0000191454Y0000286030
X0000191454Y0000281530
X0000186454Y0000281530
X0000181454Y0000281530
X0000186780Y0000270030
X0000190000Y0000253000
X0000186339Y0000253000
X0000182678Y0000253000
X0000186780Y0000244030
T03
X-0000110840Y0000151547
X-0000110840Y0000153910
X-0000110840Y0000156272
X-0000110840Y0000158634
X-0000108477Y0000151547
X-0000108477Y0000153910
X-0000108477Y0000156272
X-0000108477Y0000158634
X-0000106115Y0000151547
X-0000106115Y0000153910
X-0000106115Y0000156272
X-0000106115Y0000158634
X0000011760Y0000177026
X0000011760Y0000179388
X0000014123Y0000177026
X0000014123Y0000179388
X0000016485Y0000177026
X0000016485Y0000179388
X0000011760Y0000181750
X0000011760Y0000184113
X0000014123Y0000181750
X0000014123Y0000184113
X0000016485Y0000181750
X0000016485Y0000184113
X0000102066Y0000194051
X0000102066Y0000196414
X0000102066Y0000198776
X0000104429Y0000194051
X0000104429Y0000196414
X0000104429Y0000198776
X0000106791Y0000194051
X0000106791Y0000196414
X0000106791Y0000198776
X0000109153Y0000194051
X0000109153Y0000196414
X0000109153Y0000198776
X0000111515Y0000194051
X0000111515Y0000196414
X0000111515Y0000198776
X0000113877Y0000194051
X0000113877Y0000196414
X0000113877Y0000198776
X0000116240Y0000194051
X0000116240Y0000196414
X0000116240Y0000198776
X0000118602Y0000194051
X0000118602Y0000196414
X0000118602Y0000198776
X0000120964Y0000194051
X0000120964Y0000196414
X0000120964Y0000198776
X0000123326Y0000194051
X0000123326Y0000196414
X0000123326Y0000198776
X0000167197Y0000308325
X0000169560Y0000308325
X0000171922Y0000308325
X0000174284Y0000308325
X0000174284Y0000313050
X0000174284Y0000310687
X0000171922Y0000313050
X0000171922Y0000310687
X0000169560Y0000313050
X0000169560Y0000310687
X0000167197Y0000313050
X0000167197Y0000310687
T04
X-0000063921Y0000367987
X-0000067070Y0000372711
X-0000070220Y0000367987
X-0000073370Y0000372711
X-0000076519Y0000367987
X-0000105921Y0000367987
X-0000109070Y0000372711
X-0000112220Y0000367987
X-0000115370Y0000372711
X-0000118519Y0000367987
T05
X0000163280Y0000200030
X0000163280Y0000210030
X0000163280Y0000220030
X0000187280Y0000220030
X0000187280Y0000210030
X0000187280Y0000200030
T06
X-0000195807Y0000374530
X-0000188720Y0000381617
X-0000181634Y0000374530
T07
X-0000143116Y0000131638
X-0000148116Y0000126638
X-0000153116Y0000131638
X-0000158116Y0000126638
X-0000163116Y0000131638
X-0000168116Y0000126638
X-0000173116Y0000131638
X-0000178116Y0000126638
X-0000183116Y0000131638
X-0000188116Y0000126638
X-0000195557Y0000135634
X-0000195557Y0000127642
X-0000202644Y0000135634
X-0000202644Y0000127642
X-0000202644Y0000143626
X-0000202644Y0000151618
X-0000195557Y0000143626
X-0000195557Y0000151618
X-0000188116Y0000152622
X-0000183116Y0000147622
X-0000178116Y0000152622
X-0000173116Y0000147622
X-0000168116Y0000152622
X-0000163116Y0000147622
X-0000158116Y0000152622
X-0000153116Y0000147622
X-0000148116Y0000152622
X-0000143116Y0000147622
T08
X-0000154720Y0000299030
X-0000164720Y0000299030
X-0000164720Y0000309030
X-0000154720Y0000309030
X-0000154720Y0000319030
X-0000164720Y0000319030
X-0000164720Y0000329030
X-0000154720Y0000329030
X-0000154720Y0000339030
X-0000164720Y0000339030
X-0000164720Y0000349030
X-0000154720Y0000349030
X-0000154720Y0000359030
X-0000164720Y0000359030
X-0000164720Y0000369030
X-0000154720Y0000369030
X-0000154720Y0000379030
X-0000164720Y0000379030
X-0000164720Y0000389030
X-0000154720Y0000389030
T09
X-0000186720Y0000319530
X-0000186720Y0000329530
X0000146280Y0000387030
X0000146280Y0000377030
X0000146280Y0000367030
X0000146280Y0000357030
X0000146280Y0000347030
X0000146280Y0000337030
X0000146280Y0000297030
X0000146280Y0000287030
X0000146280Y0000277030
X0000146280Y0000267030
X0000146280Y0000257030
X0000146280Y0000247030
X0000156280Y0000247030
X0000156280Y0000257030
X0000156280Y0000267030
X0000156280Y0000277030
X0000156280Y0000287030
X0000156280Y0000297030
X0000156280Y0000337030
X0000156280Y0000347030
X0000156280Y0000357030
X0000156280Y0000367030
X0000156280Y0000377030
X0000156280Y0000387030
T10
X-0000161620Y0000106146
X-0000224612Y0000106146
X-0000224612Y0000173114
X-0000145636Y0000173114
T11
X-0000226720Y0000259530
X-0000226720Y0000279530
X-0000226720Y0000296530
X-0000226720Y0000316530
X-0000226720Y0000334280
X-0000226720Y0000354280
X-0000206720Y0000354280
X-0000206720Y0000334280
X-0000206720Y0000316530
X-0000206720Y0000296530
X-0000206720Y0000279530
X-0000206720Y0000259530
T12
X-0000220220Y0000382530
X-0000105720Y0000118530
X0000174280Y0000118530
X0000122280Y0000382530
T13
X-0000086551Y0000108518
X0000150142Y0000108518
T14
X-0000221220Y0000087530
X-0000221220Y0000406530
X0000179280Y0000406530
X0000179280Y0000087530
T15
X-0000206620Y0000117130
X-0000206620Y0000162130
M30
