M48
INCH
T01C.
;EXTENTS: -19.782 -18.630 37.554  83.024  
;LEADER: 12 
;HEADER: 
;CODE  : ASCII 
;FILE  : C:/Users/lzf/Desktop/ALTERA/0320/max10_dk_c/max10_dk_c.rou for board #Taaaaea01168.tmp
%
G90
F1
M16
T01
M16
G00X-0000099650Y0000369580
G41
M15
G03X-0000096050Y0000369580A0000001800
G01X-0000096050Y0000373480
G03X-0000099650Y0000373480A0000001800
G01X-0000099650Y0000369580
M16
G00X-0000128390Y0000369580
G41
M15
G03X-0000124790Y0000369580A0000001800
G01X-0000124790Y0000373480
G03X-0000128390Y0000373480A0000001800
G01X-0000128390Y0000369580
M16
G00X-0000099650Y0000387887
G41
M15
G03X-0000096050Y0000387887A0000001800
G01X-0000096050Y0000391787
G03X-0000099650Y0000391787A0000001800
G01X-0000099650Y0000387887
M16
G00X-0000128390Y0000387887
G41
M15
G03X-0000124790Y0000387887A0000001800
G01X-0000124790Y0000391787
G03X-0000128390Y0000391787A0000001800
G01X-0000128390Y0000387887
M16
G00X-0000057650Y0000369580
G41
M15
G03X-0000054050Y0000369580A0000001800
G01X-0000054050Y0000373480
G03X-0000057650Y0000373480A0000001800
G01X-0000057650Y0000369580
M16
G00X-0000086390Y0000369580
G41
M15
G03X-0000082790Y0000369580A0000001800
G01X-0000082790Y0000373480
G03X-0000086390Y0000373480A0000001800
G01X-0000086390Y0000369580
M16
G00X-0000057650Y0000387887
G41
M15
G03X-0000054050Y0000387887A0000001800
G01X-0000054050Y0000391787
G03X-0000057650Y0000391787A0000001800
G01X-0000057650Y0000387887
M16
G00X-0000086390Y0000387887
G41
M15
G03X-0000082790Y0000387887A0000001800
G01X-0000082790Y0000391787
G03X-0000086390Y0000391787A0000001800
G01X-0000086390Y0000387887
M16
G00X0000032487Y0000385095
G41
M15
G03X0000035987Y0000385095A0000001750
G01X0000035987Y0000389895
G03X0000032487Y0000389895A0000001750
G01X0000032487Y0000385095
M16
G00X0000032487Y0000360441
G41
M15
G03X0000035987Y0000360441A0000001750
G01X0000035987Y0000367541
G03X0000032487Y0000367541A0000001750
G01X0000032487Y0000360441
M16
G00X0000089573Y0000360441
G41
M15
G03X0000093073Y0000360441A0000001750
G01X0000093073Y0000367541
G03X0000089573Y0000367541A0000001750
G01X0000089573Y0000360441
M16
G00X0000089573Y0000385095
G41
M15
G03X0000093073Y0000385095A0000001750
G01X0000093073Y0000389895
G03X0000089573Y0000389895A0000001750
G01X0000089573Y0000385095
M16
G00X0000185230Y0000159680
G41
M15
G03X0000188330Y0000159680A0000001550
G01X0000188330Y0000170380
G03X0000185230Y0000170380A0000001550
G01X0000185230Y0000159680
M16
G00X0000160821Y0000159680
G41
M15
G03X0000163921Y0000159680A0000001550
G01X0000163921Y0000170380
G03X0000160821Y0000170380A0000001550
G01X0000160821Y0000159680
M16
G00X0000169619Y0000185084
G41
M15
G03X0000169619Y0000181984A0000001550
G01X0000180319Y0000181984
G03X0000180319Y0000185084A0000001550
G01X0000169619Y0000185084
M16
G40
M30
