G04 ================== begin FILE IDENTIFICATION RECORD ==================*
G04 Layout Name:  C:/Users/lzf/Desktop/ALTERA/0320/max10_dk_c/max10_dk_c.brd*
G04 Film Name:    POWER09*
G04 File Format:  Gerber RS274X*
G04 File Origin:  Cadence Allegro 16.6-S023*
G04 Origin Date:  Fri Mar 20 16:34:18 2015*
G04 *
G04 Layer:  ETCH/POWER09*
G04 Layer:  PIN/POWER09*
G04 Layer:  VIA CLASS/POWER09*
G04 *
G04 Offset:    (0.00 0.00)*
G04 Mirror:    No*
G04 Mode:      Positive*
G04 Rotation:  0*
G04 FullContactRelief:  No*
G04 UndefLineWidth:     6.00*
G04 ================== end FILE IDENTIFICATION RECORD ====================*
%FSAX55Y55*MOIN*%
%IR0*IPPOS*OFA0.00000B0.00000*MIA0B0*SFA1.00000B1.00000*%
%ADD26O,.06X.13*%
%ADD27O,.06X.108*%
%ADD22O,.064X.103*%
%ADD17C,.02*%
%ADD23C,.04*%
%ADD18C,.022*%
%ADD25C,.015*%
%ADD19C,.06*%
%ADD24C,.025*%
%ADD20C,.052*%
%ADD14C,.016*%
%ADD28O,.055X.168*%
%ADD30O,.168X.055*%
%ADD13C,.083*%
%ADD10C,.093*%
%ADD29C,.049*%
%ADD16C,.05118*%
%ADD31R,.049X.049*%
%ADD21C,.05906*%
%ADD11C,.15*%
%ADD12C,.11811*%
%ADD15C,.12795*%
%ADD45O,.07002X.14002*%
%ADD35C,.03004*%
%ADD44C,.05004*%
%ADD36C,.03204*%
%ADD43C,.02504*%
%ADD39C,.07004*%
%ADD34C,.06122*%
%ADD40C,.06204*%
%ADD33C,.02604*%
%ADD46O,.06502X.17802*%
%ADD41C,.0691*%
%ADD32C,.09304*%
%ADD42C,.05904*%
%ADD47O,.17804X.06504*%
%ADD38C,.10304*%
%ADD37C,.16004*%
G75*
%LPD*%
G75*
G36*
G01X-0000230220Y0000102030D02*
X-0000230720Y0000102530D01*
X-0000230720Y0000114700D01*
X-0000229892Y0000115528D01*
X-0000214356Y0000115528D01*
G03X-0000202482Y0000123860I0000007736J0000001602D01*
G02X-0000202316Y0000124599I0000000209J0000000341D01*
G03X-0000204566Y0000130024I-0000000328J0000003043D01*
G02X-0000205218Y0000130335I-0000000252J0000000311D01*
G01X-0000205218Y0000132941D01*
G02X-0000204566Y0000133252I0000000400J0D01*
G03X-0000204566Y0000138016I0000001922J0000002382D01*
G02X-0000205218Y0000138327I-0000000252J0000000311D01*
G01X-0000205218Y0000140933D01*
G02X-0000204566Y0000141244I0000000400J0D01*
G03X-0000204566Y0000146008I0000001922J0000002382D01*
G02X-0000205218Y0000146319I-0000000252J0000000311D01*
G01X-0000205218Y0000148925D01*
G02X-0000204566Y0000149236I0000000400J0D01*
G03X-0000202316Y0000154661I0000001922J0000002382D01*
G02X-0000202482Y0000155400I0000000043J0000000398D01*
G03X-0000212265Y0000167658I-0000004139J0000006730D01*
G01X-0000230358Y0000167658D01*
X-0000230720Y0000168020D01*
X-0000230720Y0000242010D01*
X-0000230200Y0000242530D01*
X-0000199292Y0000242530D01*
G02X-0000198913Y0000242004I0J-0000000400D01*
G03X-0000195871Y0000242004I0000001521J-0000000504D01*
G02X-0000195492Y0000242530I0000000379J0000000126D01*
G01X-0000186900Y0000242530D01*
G02X-0000186521Y0000242004I0J-0000000400D01*
G03X-0000183479Y0000242004I0000001521J-0000000504D01*
G02X-0000183100Y0000242530I0000000379J0000000126D01*
G01X-0000132291Y0000242530D01*
X-0000124750Y0000234990D01*
X-0000124750Y0000233750D01*
X-0000128500Y0000230000D01*
X-0000128500Y0000229831D01*
X-0000128502Y0000229829D01*
X-0000128502Y0000189520D01*
G02X-0000128945Y0000189122I-0000000400J0D01*
G03X-0000128945Y0000185938I-0000000175J-0000001592D01*
G02X-0000128502Y0000185540I0000000043J-0000000398D01*
G01X-0000128502Y0000149271D01*
X-0000128500Y0000149269D01*
X-0000128500Y0000102500D01*
X-0000128970Y0000102030D01*
X-0000158198Y0000102030D01*
G02X-0000158468Y0000102724I0000000001J0000000400D01*
G03X-0000164772Y0000102724I-0000003152J0000003422D01*
G02X-0000165042Y0000102030I-0000000271J-0000000294D01*
G01X-0000221190Y0000102030D01*
G02X-0000221460Y0000102724I0000000001J0000000400D01*
G03X-0000227764Y0000102724I-0000003152J0000003422D01*
G02X-0000228034Y0000102030I-0000000271J-0000000294D01*
G01X-0000230220Y0000102030D01*
G37*
G36*
G01X-0000103306Y0000230030D02*
X-0000104220Y0000230945D01*
X-0000104220Y0000236601D01*
X-0000107149Y0000239530D01*
X-0000115149Y0000239530D01*
X-0000128149Y0000252530D01*
X-0000229900Y0000252530D01*
X-0000230720Y0000253350D01*
X-0000230720Y0000255303D01*
G02X-0000230061Y0000255608I0000000400J0D01*
G03X-0000230061Y0000263452I0000003341J0000003922D01*
G02X-0000230720Y0000263757I-0000000259J0000000305D01*
G01X-0000230720Y0000275303D01*
G02X-0000230061Y0000275608I0000000400J0D01*
G03X-0000230061Y0000283452I0000003341J0000003922D01*
G02X-0000230720Y0000283757I-0000000259J0000000305D01*
G01X-0000230720Y0000292303D01*
G02X-0000230061Y0000292608I0000000400J0D01*
G03X-0000230061Y0000300452I0000003341J0000003922D01*
G02X-0000230720Y0000300757I-0000000259J0000000305D01*
G01X-0000230720Y0000312303D01*
G02X-0000230061Y0000312608I0000000400J0D01*
G03X-0000230061Y0000320452I0000003341J0000003922D01*
G02X-0000230720Y0000320757I-0000000259J0000000305D01*
G01X-0000230720Y0000330053D01*
G02X-0000230061Y0000330358I0000000400J0D01*
G03X-0000230061Y0000338202I0000003341J0000003922D01*
G02X-0000230720Y0000338507I-0000000259J0000000305D01*
G01X-0000230720Y0000350053D01*
G02X-0000230061Y0000350358I0000000400J0D01*
G03X-0000230061Y0000358202I0000003341J0000003922D01*
G02X-0000230720Y0000358507I-0000000259J0000000305D01*
G01X-0000230720Y0000391410D01*
X-0000229100Y0000393030D01*
X-0000151950Y0000393030D01*
X-0000151220Y0000392300D01*
X-0000151220Y0000391321D01*
G02X-0000151942Y0000391084I-0000000400J0D01*
G03X-0000151942Y0000386976I-0000002778J-0000002054D01*
G02X-0000151220Y0000386739I0000000322J-0000000237D01*
G01X-0000151220Y0000381321D01*
G02X-0000151942Y0000381084I-0000000400J0D01*
G03X-0000151942Y0000376976I-0000002778J-0000002054D01*
G02X-0000151220Y0000376739I0000000322J-0000000237D01*
G01X-0000151220Y0000371321D01*
G02X-0000151942Y0000371084I-0000000400J0D01*
G03X-0000151942Y0000366976I-0000002778J-0000002054D01*
G02X-0000151220Y0000366739I0000000322J-0000000237D01*
G01X-0000151220Y0000361321D01*
G02X-0000151942Y0000361084I-0000000400J0D01*
G03X-0000151942Y0000356976I-0000002778J-0000002054D01*
G02X-0000151220Y0000356739I0000000322J-0000000237D01*
G01X-0000151220Y0000351321D01*
G02X-0000151942Y0000351084I-0000000400J0D01*
G03X-0000151942Y0000346976I-0000002778J-0000002054D01*
G02X-0000151220Y0000346739I0000000322J-0000000237D01*
G01X-0000151220Y0000341321D01*
G02X-0000151942Y0000341084I-0000000400J0D01*
G03X-0000151942Y0000336976I-0000002778J-0000002054D01*
G02X-0000151220Y0000336739I0000000322J-0000000237D01*
G01X-0000151220Y0000331321D01*
G02X-0000151942Y0000331084I-0000000400J0D01*
G03X-0000151942Y0000326976I-0000002778J-0000002054D01*
G02X-0000151220Y0000326739I0000000322J-0000000237D01*
G01X-0000151220Y0000321321D01*
G02X-0000151942Y0000321084I-0000000400J0D01*
G03X-0000151942Y0000316976I-0000002778J-0000002054D01*
G02X-0000151220Y0000316739I0000000322J-0000000237D01*
G01X-0000151220Y0000311321D01*
G02X-0000151942Y0000311084I-0000000400J0D01*
G03X-0000151942Y0000306976I-0000002778J-0000002054D01*
G02X-0000151220Y0000306739I0000000322J-0000000237D01*
G01X-0000151220Y0000300959D01*
X-0000132791Y0000282530D01*
X-0000120291Y0000282530D01*
X-0000118720Y0000280959D01*
X-0000118720Y0000264959D01*
X-0000114791Y0000261030D01*
X-0000109135Y0000261030D01*
X-0000105220Y0000257116D01*
X-0000105220Y0000254616D01*
X-0000103634Y0000253030D01*
X-0000099518Y0000253030D01*
G02X-0000099258Y0000252326I0J-0000000400D01*
G03X-0000097566Y0000252326I0000000846J-0000000990D01*
G02X-0000097306Y0000253030I0000000260J0000000304D01*
G01X-0000095581Y0000253030D01*
G02X-0000095321Y0000252326I0J-0000000400D01*
G03X-0000093629Y0000252326I0000000846J-0000000990D01*
G02X-0000093369Y0000253030I0000000260J0000000304D01*
G01X-0000090134Y0000253030D01*
X-0000089220Y0000252116D01*
X-0000089220Y0000248832D01*
G02X-0000089836Y0000248495I-0000000400J0D01*
G03X-0000089836Y0000246303I-0000000702J-0000001096D01*
G02X-0000089220Y0000245966I0000000216J-0000000337D01*
G01X-0000089220Y0000244895D01*
G02X-0000089836Y0000244558I-0000000400J0D01*
G03X-0000089338Y0000242956I-0000000702J-0000001097D01*
G02X-0000088687Y0000243083I0000000368J-0000000156D01*
G01X-0000086634Y0000241030D01*
X-0000082634Y0000241030D01*
X-0000079061Y0000237457D01*
G02X-0000079199Y0000236801I-0000000283J-0000000283D01*
G03X-0000079681Y0000234702I0000000472J-0000001213D01*
G02X-0000079974Y0000234030I-0000000293J-0000000272D01*
G01X-0000081417Y0000234030D01*
G02X-0000081710Y0000234702I0J0000000400D01*
G03X-0000083220Y0000234411I-0000000954J0000000886D01*
G01X-0000083106Y0000234357D01*
X-0000083106Y0000234030D01*
X-0000083634Y0000234030D01*
X-0000085104Y0000232560D01*
G02X-0000085672Y0000232563I-0000000283J0000000283D01*
G03X-0000087508Y0000230717I-0000000929J-0000000912D01*
G02X-0000087787Y0000230030I-0000000279J-0000000287D01*
G01X-0000089352Y0000230030D01*
G02X-0000089631Y0000230717I0J0000000400D01*
G03X-0000091445Y0000230717I-0000000907J0000000934D01*
G02X-0000091724Y0000230030I-0000000279J-0000000287D01*
G01X-0000093289Y0000230030D01*
G02X-0000093568Y0000230717I0J0000000400D01*
G03X-0000095382Y0000230717I-0000000907J0000000934D01*
G02X-0000095661Y0000230030I-0000000279J-0000000287D01*
G01X-0000103306Y0000230030D01*
G37*
G36*
G01X-0000125730Y0000102030D02*
X-0000126498Y0000102798D01*
X-0000126498Y0000147502D01*
X-0000126002Y0000147998D01*
X-0000104571Y0000147998D01*
X-0000104569Y0000148000D01*
X-0000104500Y0000148000D01*
X-0000102500Y0000150000D01*
X-0000102500Y0000150069D01*
X-0000102498Y0000150071D01*
X-0000102498Y0000166502D01*
X-0000102219Y0000166781D01*
G02X-0000101593Y0000166705I0000000283J-0000000282D01*
G03X-0000099482Y0000168952I0000001373J0000000825D01*
G02X-0000099580Y0000169589I0000000185J0000000354D01*
G01X-0000099498Y0000169671D01*
X-0000099498Y0000176829D01*
X-0000100000Y0000177331D01*
X-0000100000Y0000177500D01*
X-0000101456Y0000178956D01*
G02X-0000101450Y0000179528I0000000283J0000000283D01*
G03X-0000102739Y0000181712I-0000000899J0000000942D01*
G01X-0000102769Y0000181703D01*
X-0000103000Y0000181703D01*
X-0000103000Y0000182000D01*
X-0000104500Y0000183500D01*
X-0000104661Y0000183500D01*
G02X-0000105043Y0000184019I0J0000000400D01*
G03X-0000106908Y0000185551I-0000001243J0000000388D01*
G02X-0000107498Y0000185902I-0000000190J0000000352D01*
G01X-0000107498Y0000186849D01*
G02X-0000106908Y0000187200I0000000400J-0000000001D01*
G03X-0000106908Y0000189488I0000000622J0000001144D01*
G02X-0000107498Y0000189839I-0000000190J0000000352D01*
G01X-0000107498Y0000190786D01*
G02X-0000106908Y0000191137I0000000400J-0000000001D01*
G03X-0000105327Y0000193162I0000000622J0000001144D01*
G02X-0000105315Y0000193715I0000000295J0000000270D01*
G01X-0000103783Y0000195247D01*
G02X-0000103230Y0000195259I0000000283J-0000000283D01*
G03X-0000101390Y0000197099I0000000881J0000000959D01*
G02X-0000101378Y0000197652I0000000295J0000000270D01*
G01X-0000099846Y0000199184D01*
G02X-0000099293Y0000199196I0000000283J-0000000283D01*
G03X-0000097573Y0000201150I0000000881J0000000959D01*
G01X-0000097579Y0000201156D01*
X-0000097727Y0000201303D01*
X-0000097502Y0000201528D01*
X-0000095871Y0000201528D01*
G02X-0000095543Y0000200900I0J-0000000400D01*
G03X-0000093407Y0000200900I0000001068J-0000000745D01*
G02X-0000093079Y0000201528I0000000328J0000000228D01*
G01X-0000091934Y0000201528D01*
G02X-0000091606Y0000200900I0J-0000000400D01*
G03X-0000089470Y0000200900I0000001068J-0000000745D01*
G02X-0000089142Y0000201528I0000000328J0000000228D01*
G01X-0000087997Y0000201528D01*
G02X-0000087669Y0000200900I0J-0000000400D01*
G03X-0000085533Y0000200900I0000001068J-0000000745D01*
G02X-0000085205Y0000201528I0000000328J0000000228D01*
G01X-0000084060Y0000201528D01*
G02X-0000083732Y0000200900I0J-0000000400D01*
G03X-0000081596Y0000200900I0000001068J-0000000745D01*
G02X-0000081268Y0000201528I0000000328J0000000228D01*
G01X-0000080123Y0000201528D01*
G02X-0000079795Y0000200900I0J-0000000400D01*
G03X-0000077659Y0000200900I0000001068J-0000000745D01*
G02X-0000077331Y0000201528I0000000328J0000000228D01*
G01X-0000076186Y0000201528D01*
G02X-0000075858Y0000200900I0J-0000000400D01*
G03X-0000073722Y0000200900I0000001068J-0000000745D01*
G02X-0000073394Y0000201528I0000000328J0000000228D01*
G01X-0000072249Y0000201528D01*
G02X-0000071921Y0000200900I0J-0000000400D01*
G03X-0000069785Y0000200900I0000001068J-0000000745D01*
G02X-0000069457Y0000201528I0000000328J0000000228D01*
G01X-0000068312Y0000201528D01*
G02X-0000067984Y0000200900I0J-0000000400D01*
G03X-0000065848Y0000200900I0000001068J-0000000745D01*
G02X-0000065520Y0000201528I0000000328J0000000228D01*
G01X-0000060438Y0000201528D01*
G02X-0000060110Y0000200900I0J-0000000400D01*
G03X-0000057974Y0000200900I0000001068J-0000000745D01*
G02X-0000057646Y0000201528I0000000328J0000000228D01*
G01X-0000056501Y0000201528D01*
G02X-0000056173Y0000200900I0J-0000000400D01*
G03X-0000054037Y0000200900I0000001068J-0000000745D01*
G02X-0000053709Y0000201528I0000000328J0000000228D01*
G01X-0000052564Y0000201528D01*
G02X-0000052236Y0000200900I0J-0000000400D01*
G03X-0000050100Y0000200900I0000001068J-0000000745D01*
G02X-0000049772Y0000201528I0000000328J0000000228D01*
G01X-0000048627Y0000201528D01*
G02X-0000048299Y0000200900I0J-0000000400D01*
G03X-0000046163Y0000200900I0000001068J-0000000745D01*
G02X-0000045835Y0000201528I0000000328J0000000228D01*
G01X-0000044632Y0000201528D01*
X-0000044206Y0000201102D01*
X-0000044316Y0000200962D01*
G03X-0000042487Y0000199133I0000001022J-0000000807D01*
G01X-0000042347Y0000199243D01*
X-0000040269Y0000197165D01*
X-0000040379Y0000197025D01*
G03X-0000038550Y0000195196I0000001022J-0000000807D01*
G01X-0000038410Y0000195306D01*
X-0000038222Y0000195118D01*
X-0000038222Y0000195115D01*
X-0000036635Y0000193528D01*
X-0000036297Y0000193528D01*
X-0000036297Y0000193247D01*
X-0000036353Y0000193189D01*
G03X-0000035192Y0000190999I0000000933J-0000000908D01*
G02X-0000034722Y0000190606I0000000070J-0000000394D01*
G01X-0000034722Y0000190019D01*
G02X-0000035192Y0000189626I-0000000400J0000000001D01*
G03X-0000034265Y0000188944I-0000000229J-0000001282D01*
G02X-0000033910Y0000189528I0000000355J0000000184D01*
G01X-0000032993Y0000189528D01*
G02X-0000032638Y0000188944I0J-0000000400D01*
G03X-0000030947Y0000187157I0000001155J-0000000600D01*
G01X-0000030821Y0000187214D01*
X-0000029135Y0000185528D01*
X-0000029087Y0000185528D01*
G02X-0000028725Y0000184959I0J-0000000400D01*
G03X-0000026367Y0000184959I0000001179J-0000000552D01*
G02X-0000026005Y0000185528I0000000362J0000000169D01*
G01X-0000025150Y0000185528D01*
G02X-0000024788Y0000184959I0J-0000000400D01*
G03X-0000022430Y0000184959I0000001179J-0000000552D01*
G02X-0000022068Y0000185528I0000000362J0000000169D01*
G01X0000006259Y0000185528D01*
X0000006261Y0000185530D01*
X0000006530Y0000185530D01*
X0000008000Y0000187000D01*
X0000008000Y0000187269D01*
X0000008002Y0000187271D01*
X0000008002Y0000189864D01*
G02X0000008505Y0000190250I0000000400J0D01*
G03X0000010376Y0000192463I0000000413J0000001548D01*
G02X0000010740Y0000193028I0000000364J0000000165D01*
G01X0000016218Y0000193028D01*
G02X0000016580Y0000192459I0J-0000000400D01*
G03X0000019482Y0000192459I0000001451J-0000000679D01*
G02X0000019844Y0000193028I0000000362J0000000169D01*
G01X0000027695Y0000193028D01*
X0000030614Y0000195947D01*
G02X0000031189Y0000195937I0000000283J-0000000283D01*
G03X0000033700Y0000197909I0000001172J0000001092D01*
G02X0000034034Y0000198528I0000000335J0000000219D01*
G01X0000034607Y0000198528D01*
G02X0000034941Y0000197909I-0000000001J-0000000400D01*
G03X0000037619Y0000197909I0000001339J-0000000879D01*
G02X0000037953Y0000198528I0000000335J0000000219D01*
G01X0000040007Y0000198528D01*
G02X0000040341Y0000197909I-0000000001J-0000000400D01*
G03X0000043019Y0000197909I0000001339J-0000000879D01*
G02X0000043353Y0000198528I0000000335J0000000219D01*
G01X0000044459Y0000198528D01*
X0000054502Y0000208571D01*
X0000054502Y0000226565D01*
G02X0000054977Y0000226957I0000000400J-0000000001D01*
G03X0000054977Y0000230103I0000000303J0000001573D01*
G02X0000054501Y0000230496I-0000000076J0000000393D01*
G01X0000054501Y0000234064D01*
G02X0000054977Y0000234457I0000000400J0D01*
G03X0000054977Y0000237603I0000000303J0000001573D01*
G02X0000054501Y0000237996I-0000000076J0000000393D01*
G01X0000054501Y0000243758D01*
G02X0000055043Y0000244132I0000000400J0D01*
G03X0000055043Y0000247128I0000000568J0000001498D01*
G02X0000054501Y0000247502I-0000000142J0000000374D01*
G01X0000054501Y0000250360D01*
G02X0000055131Y0000250687I0000000400J0D01*
G03X0000055131Y0000253313I0000000918J0000001313D01*
G02X0000054502Y0000253640I-0000000229J0000000328D01*
G01X0000054502Y0000253725D01*
X0000032695Y0000275532D01*
X0000019365Y0000275532D01*
X0000012535Y0000268702D01*
X-0000016029Y0000268702D01*
X-0000016031Y0000268700D01*
X-0000016100Y0000268700D01*
X-0000017712Y0000267088D01*
G02X-0000018389Y0000267304I-0000000283J0000000283D01*
G03X-0000020759Y0000266368I-0000001283J-0000000219D01*
G01X-0000020744Y0000266344D01*
X-0000020727Y0000266291D01*
G02X-0000020918Y0000266032I-0000000191J-0000000059D01*
G01X-0000021135Y0000266032D01*
X-0000022722Y0000264445D01*
X-0000022722Y0000259445D01*
X-0000024135Y0000258032D01*
X-0000029970Y0000258032D01*
G02X-0000030325Y0000258614I0000000001J0000000400D01*
G03X-0000032641Y0000258614I-0000001158J0000000596D01*
G02X-0000032996Y0000258032I-0000000356J-0000000182D01*
G01X-0000033907Y0000258032D01*
G02X-0000034262Y0000258614I0000000001J0000000400D01*
G03X-0000036408Y0000258362I-0000001158J0000000596D01*
G01X-0000036360Y0000258306D01*
X-0000036360Y0000258032D01*
X-0000036635Y0000258032D01*
X-0000038447Y0000256220D01*
X-0000038585Y0000256322D01*
G03X-0000040406Y0000254501I-0000000772J-0000001049D01*
G01X-0000040304Y0000254363D01*
X-0000041222Y0000253445D01*
X-0000041222Y0000250445D01*
X-0000042222Y0000249445D01*
X-0000042222Y0000248962D01*
G02X-0000042780Y0000248595I-0000000400J0D01*
G03X-0000042780Y0000246203I-0000000514J-0000001196D01*
G02X-0000042222Y0000245836I0000000158J-0000000367D01*
G01X-0000042222Y0000245025D01*
G02X-0000042780Y0000244658I-0000000400J0D01*
G03X-0000044531Y0000243056I-0000000514J-0000001196D01*
G02X-0000044911Y0000242532I-0000000380J-0000000124D01*
G01X-0000045614Y0000242532D01*
G02X-0000045994Y0000243056I0J0000000400D01*
G03X-0000048468Y0000243056I-0000001237J0000000406D01*
G02X-0000048848Y0000242532I-0000000380J-0000000124D01*
G01X-0000050222Y0000242532D01*
X-0000050222Y0000241136D01*
G02X-0000050750Y0000240758I-0000000400J0000000001D01*
G03X-0000052286Y0000238859I-0000000418J-0000001233D01*
G01X-0000052273Y0000238836D01*
X-0000052259Y0000238787D01*
G02X-0000052451Y0000238532I-0000000192J-0000000055D01*
G01X-0000052635Y0000238532D01*
X-0000054222Y0000236945D01*
X-0000054222Y0000236726D01*
X-0000054470Y0000236726D01*
X-0000054513Y0000236747D01*
G03X-0000056306Y0000235086I-0000000592J-0000001159D01*
G02X-0000056675Y0000234532I-0000000369J-0000000154D01*
G01X-0000057472Y0000234532D01*
G02X-0000057841Y0000235086I0J0000000400D01*
G03X-0000060243Y0000235086I-0000001201J0000000502D01*
G02X-0000060612Y0000234532I-0000000369J-0000000154D01*
G01X-0000065346Y0000234532D01*
G02X-0000065715Y0000235086I0J0000000400D01*
G03X-0000068117Y0000235086I-0000001201J0000000502D01*
G02X-0000068486Y0000234532I-0000000369J-0000000154D01*
G01X-0000069283Y0000234532D01*
G02X-0000069652Y0000235086I0J0000000400D01*
G03X-0000071778Y0000236505I-0000001201J0000000502D01*
G01X-0000073305Y0000238032D01*
X-0000073486Y0000238032D01*
G02X-0000073792Y0000238688I0000000001J0000000400D01*
G03X-0000075788Y0000238688I-0000000998J0000000837D01*
G02X-0000076094Y0000238032I-0000000307J-0000000256D01*
G01X-0000076805Y0000238032D01*
X-0000077612Y0000238838D01*
X-0000077551Y0000238966D01*
G03X-0000079286Y0000240701I-0000001176J0000000559D01*
G01X-0000079414Y0000240640D01*
X-0000081549Y0000242775D01*
X-0000081488Y0000242903D01*
G03X-0000083966Y0000243439I-0000001176J0000000559D01*
G02X-0000084365Y0000243032I-0000000400J-0000000007D01*
G01X-0000085805Y0000243032D01*
X-0000087218Y0000244445D01*
X-0000087218Y0000245712D01*
G02X-0000086767Y0000246108I0000000400J-0000000001D01*
G03X-0000086767Y0000248690I0000000166J0000001291D01*
G02X-0000087219Y0000249087I-0000000052J0000000397D01*
G01X-0000087219Y0000252945D01*
X-0000089263Y0000254990D01*
X-0000089249Y0000255089D01*
G03X-0000091834Y0000255394I-0000001289J0000000184D01*
G02X-0000092231Y0000255032I-0000000398J0000000038D01*
G01X-0000100656Y0000255032D01*
G02X-0000101053Y0000255394I0000000001J0000000400D01*
G03X-0000102708Y0000256524I-0000001296J-0000000121D01*
G02X-0000103218Y0000256908I-0000000110J0000000385D01*
G01X-0000103218Y0000257575D01*
G02X-0000102708Y0000257959I0000000400J-0000000001D01*
G03X-0000103647Y0000259308I0000000359J0000001251D01*
G02X-0000104329Y0000259055I-0000000399J0000000030D01*
G01X-0000106441Y0000261167D01*
G02X-0000106188Y0000261849I0000000283J0000000283D01*
G03X-0000107077Y0000264181I-0000000098J0000001298D01*
G02X-0000107720Y0000264499I-0000000243J0000000318D01*
G01X-0000107720Y0000265732D01*
G02X-0000107077Y0000266050I0000000400J0D01*
G03X-0000107356Y0000267826I0000000791J0000001034D01*
G01X-0000107415Y0000267740D01*
X-0000107720Y0000267740D01*
X-0000107720Y0000268101D01*
X-0000109360Y0000269741D01*
X-0000109360Y0000277140D01*
X-0000116267Y0000284047D01*
G02X-0000116023Y0000284728I0000000282J0000000283D01*
G03X-0000117772Y0000286477I-0000000154J0000001595D01*
G02X-0000118453Y0000286233I-0000000398J0000000038D01*
G01X-0000119461Y0000287241D01*
G02X-0000119243Y0000287919I0000000283J0000000283D01*
G03X-0000121081Y0000289757I-0000000257J0000001581D01*
G02X-0000121759Y0000289539I-0000000395J0000000065D01*
G01X-0000124750Y0000292530D01*
X-0000128649Y0000292530D01*
X-0000137117Y0000300998D01*
G02X-0000136812Y0000301681I0000000282J0000000284D01*
G03X-0000138319Y0000303188I0000000092J0000001599D01*
G02X-0000139002Y0000302883I-0000000399J-0000000023D01*
G01X-0000141220Y0000305101D01*
X-0000141220Y0000355121D01*
G02X-0000140700Y0000355502I0000000400J-0000000001D01*
G03X-0000140387Y0000355437I0000000481J0000001528D01*
G02X-0000140043Y0000354931I-0000000041J-0000000398D01*
G03X-0000137874Y0000353025I0000001543J-0000000431D01*
G02X-0000137319Y0000352632I0000000156J-0000000368D01*
G03X-0000136346Y0000354005I0000001599J-0000000102D01*
G02X-0000136901Y0000354398I-0000000156J0000000368D01*
G03X-0000138333Y0000356093I-0000001599J0000000102D01*
G02X-0000138677Y0000356599I0000000041J0000000398D01*
G03X-0000139442Y0000358430I-0000001543J0000000431D01*
G02X-0000139442Y0000359130I0000000194J0000000350D01*
G03X-0000138820Y0000359752I-0000000778J0000001400D01*
G02X-0000138120Y0000359752I0000000350J-0000000194D01*
G03X-0000138120Y0000361308I0000001400J0000000778D01*
G02X-0000138820Y0000361308I-0000000350J0000000194D01*
G03X-0000140930Y0000361966I-0000001400J-0000000778D01*
G01X-0000140971Y0000361945D01*
X-0000141220Y0000361945D01*
X-0000141220Y0000362310D01*
X-0000140000Y0000363530D01*
X-0000122892Y0000363530D01*
X-0000120250Y0000366172D01*
X-0000120110Y0000366056D01*
G03X-0000119641Y0000370223I0000001591J0000001931D01*
G02X-0000120220Y0000370581I-0000000179J0000000358D01*
G01X-0000120220Y0000371702D01*
X-0000118527Y0000373395D01*
G02X-0000117848Y0000373057I0000000283J-0000000283D01*
G03X-0000113493Y0000374366I0000002478J-0000000346D01*
G02X-0000113193Y0000375030I0000000300J0000000264D01*
G01X-0000111247Y0000375030D01*
G02X-0000110947Y0000374366I0J-0000000400D01*
G03X-0000107193Y0000374366I0000001877J-0000001655D01*
G02X-0000106893Y0000375030I0000000300J0000000264D01*
G01X-0000106048Y0000375030D01*
X-0000104220Y0000373202D01*
X-0000104220Y0000370581D01*
G02X-0000104799Y0000370223I-0000000400J0D01*
G03X-0000104532Y0000365906I-0000001122J-0000002236D01*
G01X-0000104482Y0000365940D01*
X-0000104220Y0000365940D01*
X-0000104220Y0000365702D01*
X-0000101548Y0000363030D01*
X-0000081892Y0000363030D01*
X-0000078778Y0000366144D01*
G02X-0000078222Y0000366154I0000000283J-0000000282D01*
G03X-0000077594Y0000365728I0000001702J0000001834D01*
G02X-0000077517Y0000365053I-0000000172J-0000000361D01*
G03X-0000075521Y0000365053I0000000998J-0000001253D01*
G02X-0000075444Y0000365728I0000000249J0000000314D01*
G03X-0000078072Y0000369949I-0000001075J0000002259D01*
G02X-0000078720Y0000370262I-0000000248J0000000314D01*
G01X-0000078720Y0000372702D01*
X-0000075892Y0000375530D01*
X-0000074973Y0000375530D01*
G02X-0000074752Y0000374797I0J-0000000400D01*
G03X-0000071988Y0000374797I0000001382J-0000002086D01*
G02X-0000071767Y0000375530I0000000221J0000000333D01*
G01X-0000068673Y0000375530D01*
G02X-0000068452Y0000374797I0J-0000000400D01*
G03X-0000065688Y0000374797I0000001382J-0000002086D01*
G02X-0000065467Y0000375530I0000000221J0000000333D01*
G01X-0000063548Y0000375530D01*
X-0000062220Y0000374202D01*
X-0000062220Y0000370581D01*
G02X-0000062799Y0000370223I-0000000400J0D01*
G03X-0000062218Y0000366154I-0000001122J-0000002236D01*
G02X-0000061662Y0000366144I0000000273J-0000000292D01*
G01X-0000059048Y0000363530D01*
X-0000051392Y0000363530D01*
X-0000048720Y0000366202D01*
X-0000048720Y0000375621D01*
G02X-0000048200Y0000376002I0000000400J-0000000001D01*
G03X-0000048200Y0000379058I0000000480J0000001528D01*
G02X-0000048720Y0000379439I-0000000120J0000000382D01*
G01X-0000048720Y0000392010D01*
X-0000047700Y0000393030D01*
X-0000047332Y0000393030D01*
X-0000047312Y0000392852D01*
G03X-0000044128Y0000392852I0000001592J0000000178D01*
G01X-0000044108Y0000393030D01*
X0000031455Y0000393030D01*
G02X0000031740Y0000392350I0J-0000000400D01*
G03X0000030736Y0000389897I0000002497J-0000002454D01*
G01X0000030736Y0000385095D01*
G03X0000037738Y0000385095I0000003501J0D01*
G01X0000037738Y0000389897D01*
G03X0000036734Y0000392350I-0000003501J-0000000001D01*
G02X0000037019Y0000393030I0000000285J0000000280D01*
G01X0000088541Y0000393030D01*
G02X0000088826Y0000392350I0J-0000000400D01*
G03X0000087822Y0000389897I0000002497J-0000002454D01*
G01X0000087822Y0000385095D01*
G03X0000094824Y0000385095I0000003501J0D01*
G01X0000094824Y0000389897D01*
G03X0000093820Y0000392350I-0000003501J-0000000001D01*
G02X0000094105Y0000393030I0000000285J0000000280D01*
G01X0000189550Y0000393030D01*
X0000190280Y0000392300D01*
X0000190280Y0000380298D01*
G02X0000189704Y0000379939I-0000000400J0D01*
G03X0000187600Y0000379278I-0000000704J-0000001439D01*
G02X0000186900Y0000379278I-0000000350J0000000194D01*
G03X0000186900Y0000377722I-0000001400J-0000000778D01*
G02X0000187600Y0000377722I0000000350J-0000000194D01*
G03X0000189704Y0000377061I0000001400J0000000778D01*
G02X0000190280Y0000376702I0000000176J-0000000359D01*
G01X0000190280Y0000347709D01*
G03X0000190146Y0000347545I0000001171J-0000001094D01*
G01X0000190119Y0000347506D01*
X0000189954Y0000347418D01*
X0000189789Y0000347506D01*
X0000189762Y0000347545D01*
G03X0000189762Y0000345693I-0000001308J-0000000926D01*
G01X0000189789Y0000345732D01*
X0000189954Y0000345820D01*
X0000190119Y0000345732D01*
X0000190146Y0000345693D01*
G03X0000190280Y0000345529I0000001305J0000000930D01*
G01X0000190280Y0000343709D01*
G03X0000190280Y0000341529I0000001174J-0000001090D01*
G01X0000190280Y0000338709D01*
G03X0000190146Y0000338545I0000001171J-0000001094D01*
G01X0000190119Y0000338506D01*
X0000189954Y0000338418D01*
X0000189789Y0000338506D01*
X0000189762Y0000338545D01*
G03X0000189762Y0000336693I-0000001308J-0000000926D01*
G01X0000189789Y0000336732D01*
X0000189954Y0000336820D01*
X0000190119Y0000336732D01*
X0000190146Y0000336693D01*
G03X0000190280Y0000336529I0000001305J0000000930D01*
G01X0000190280Y0000333709D01*
G03X0000190280Y0000331529I0000001174J-0000001090D01*
G01X0000190280Y0000328709D01*
G03X0000190280Y0000326529I0000001174J-0000001090D01*
G01X0000190280Y0000298709D01*
G03X0000190280Y0000296529I0000001174J-0000001090D01*
G01X0000190280Y0000292120D01*
G03X0000190280Y0000289940I0000001174J-0000001090D01*
G01X0000190280Y0000287120D01*
G03X0000190280Y0000284940I0000001174J-0000001090D01*
G01X0000190280Y0000282620D01*
G03X0000190280Y0000280440I0000001174J-0000001090D01*
G01X0000190280Y0000254998D01*
G02X0000189904Y0000254599I-0000000400J0D01*
G03X0000189904Y0000251401I0000000096J-0000001599D01*
G02X0000190280Y0000251002I-0000000024J-0000000399D01*
G01X0000190280Y0000222145D01*
G02X0000189570Y0000221893I-0000000400J0000000001D01*
G03X0000189570Y0000218167I-0000002290J-0000001863D01*
G02X0000190280Y0000217915I0000000310J-0000000253D01*
G01X0000190280Y0000212145D01*
G02X0000189570Y0000211893I-0000000400J0000000001D01*
G03X0000189570Y0000208167I-0000002290J-0000001863D01*
G02X0000190280Y0000207915I0000000310J-0000000253D01*
G01X0000190280Y0000202982D01*
X0000184328Y0000202982D01*
X0000184328Y0000197078D01*
X0000190280Y0000197078D01*
X0000190280Y0000172608D01*
G02X0000189540Y0000172398I-0000000400J0000000001D01*
G03X0000183528Y0000170680I-0000002761J-0000001718D01*
G01X0000183528Y0000159380D01*
G03X0000189540Y0000157662I0000003251J0D01*
G02X0000190280Y0000157452I0000000340J-0000000211D01*
G01X0000190280Y0000102730D01*
X0000189580Y0000102030D01*
X0000144118Y0000102030D01*
X0000144065Y0000102149D01*
G03X0000141135Y0000102149I-0000001465J-0000000649D01*
G01X0000141082Y0000102030D01*
X0000129118Y0000102030D01*
X0000129065Y0000102149D01*
G03X0000126135Y0000102149I-0000001465J-0000000649D01*
G01X0000126082Y0000102030D01*
X0000114118Y0000102030D01*
X0000114065Y0000102149D01*
G03X0000111135Y0000102149I-0000001465J-0000000649D01*
G01X0000111082Y0000102030D01*
X0000099118Y0000102030D01*
X0000099065Y0000102149D01*
G03X0000096135Y0000102149I-0000001465J-0000000649D01*
G01X0000096082Y0000102030D01*
X0000084118Y0000102030D01*
X0000084065Y0000102149D01*
G03X0000081135Y0000102149I-0000001465J-0000000649D01*
G01X0000081082Y0000102030D01*
X0000057610Y0000102030D01*
X0000057554Y0000102137D01*
G03X0000055250Y0000102137I-0000001152J-0000000607D01*
G01X0000055194Y0000102030D01*
X0000051705Y0000102030D01*
X0000051649Y0000102137D01*
G03X0000049345Y0000102137I-0000001152J-0000000607D01*
G01X0000049289Y0000102030D01*
X0000045799Y0000102030D01*
X0000045743Y0000102137D01*
G03X0000043439Y0000102137I-0000001152J-0000000607D01*
G01X0000043383Y0000102030D01*
X0000039894Y0000102030D01*
X0000039838Y0000102137D01*
G03X0000037534Y0000102137I-0000001152J-0000000607D01*
G01X0000037478Y0000102030D01*
X0000033988Y0000102030D01*
X0000033932Y0000102137D01*
G03X0000031628Y0000102137I-0000001152J-0000000607D01*
G01X0000031572Y0000102030D01*
X0000028082Y0000102030D01*
X0000028026Y0000102137D01*
G03X0000025722Y0000102137I-0000001152J-0000000607D01*
G01X0000025666Y0000102030D01*
X0000022177Y0000102030D01*
X0000022121Y0000102137D01*
G03X0000019817Y0000102137I-0000001152J-0000000607D01*
G01X0000019761Y0000102030D01*
X0000016271Y0000102030D01*
X0000016215Y0000102137D01*
G03X0000013911Y0000102137I-0000001152J-0000000607D01*
G01X0000013855Y0000102030D01*
X0000010366Y0000102030D01*
X0000010310Y0000102137D01*
G03X0000008006Y0000102137I-0000001152J-0000000607D01*
G01X0000007950Y0000102030D01*
X0000004460Y0000102030D01*
X0000004404Y0000102137D01*
G03X0000002100Y0000102137I-0000001152J-0000000607D01*
G01X0000002044Y0000102030D01*
X-0000021130Y0000102030D01*
X-0000021186Y0000102137D01*
G03X-0000023490Y0000102137I-0000001152J-0000000607D01*
G01X-0000023546Y0000102030D01*
X-0000027036Y0000102030D01*
X-0000027092Y0000102137D01*
G03X-0000029396Y0000102137I-0000001152J-0000000607D01*
G01X-0000029452Y0000102030D01*
X-0000032941Y0000102030D01*
X-0000032997Y0000102137D01*
G03X-0000035301Y0000102137I-0000001152J-0000000607D01*
G01X-0000035357Y0000102030D01*
X-0000038847Y0000102030D01*
X-0000038903Y0000102137D01*
G03X-0000041207Y0000102137I-0000001152J-0000000607D01*
G01X-0000041263Y0000102030D01*
X-0000044752Y0000102030D01*
X-0000044808Y0000102137D01*
G03X-0000047112Y0000102137I-0000001152J-0000000607D01*
G01X-0000047168Y0000102030D01*
X-0000050658Y0000102030D01*
X-0000050714Y0000102137D01*
G03X-0000053018Y0000102137I-0000001152J-0000000607D01*
G01X-0000053074Y0000102030D01*
X-0000056563Y0000102030D01*
X-0000056619Y0000102137D01*
G03X-0000058923Y0000102137I-0000001152J-0000000607D01*
G01X-0000058979Y0000102030D01*
X-0000062469Y0000102030D01*
X-0000062525Y0000102137D01*
G03X-0000064829Y0000102137I-0000001152J-0000000607D01*
G01X-0000064885Y0000102030D01*
X-0000068374Y0000102030D01*
X-0000068430Y0000102137D01*
G03X-0000070734Y0000102137I-0000001152J-0000000607D01*
G01X-0000070790Y0000102030D01*
X-0000125730Y0000102030D01*
G37*
G36*
G01X-0000052720Y0000384826D02*
X-0000052720Y0000376541D01*
G02X-0000053386Y0000376242I-0000000400J0D01*
G03X-0000058326Y0000376232I-0000002464J-0000002762D01*
G01X-0000058467Y0000376105D01*
X-0000061892Y0000379530D01*
X-0000077548Y0000379530D01*
X-0000081202Y0000375876D01*
G02X-0000081787Y0000375898I-0000000282J0000000283D01*
G03X-0000088292Y0000373480I-0000002803J-0000002418D01*
G01X-0000088292Y0000369580D01*
G03X-0000087742Y0000367640I0000003702J0000000001D01*
G02X-0000088083Y0000367030I-0000000341J-0000000210D01*
G01X-0000094357Y0000367030D01*
G02X-0000094698Y0000367640I0J0000000400D01*
G03X-0000094148Y0000369580I-0000003152J0000001941D01*
G01X-0000094148Y0000373480D01*
G03X-0000100653Y0000375898I-0000003702J0D01*
G02X-0000101238Y0000375876I-0000000303J0000000261D01*
G01X-0000104392Y0000379030D01*
X-0000118548Y0000379030D01*
X-0000122608Y0000374970D01*
G02X-0000123252Y0000375080I-0000000283J0000000282D01*
G03X-0000130292Y0000373480I-0000003338J-0000001600D01*
G01X-0000130292Y0000369580D01*
G03X-0000129979Y0000368091I0000003702J0000000001D01*
G02X-0000130345Y0000367530I-0000000366J-0000000161D01*
G01X-0000140600Y0000367530D01*
X-0000141220Y0000368150D01*
X-0000141220Y0000392190D01*
X-0000140380Y0000393030D01*
X-0000130604Y0000393030D01*
G02X-0000130212Y0000392548I0J-0000000400D01*
G03X-0000130292Y0000391787I0000003622J-0000000765D01*
G01X-0000130292Y0000387887D01*
G03X-0000122888Y0000387887I0000003702J0D01*
G01X-0000122888Y0000391787D01*
G03X-0000122968Y0000392548I-0000003702J-0000000004D01*
G02X-0000122576Y0000393030I0000000392J0000000082D01*
G01X-0000101864Y0000393030D01*
G02X-0000101472Y0000392548I0J-0000000400D01*
G03X-0000101552Y0000391787I0000003622J-0000000765D01*
G01X-0000101552Y0000387887D01*
G03X-0000094148Y0000387887I0000003702J0D01*
G01X-0000094148Y0000391787D01*
G03X-0000094228Y0000392548I-0000003702J-0000000004D01*
G02X-0000093836Y0000393030I0000000392J0000000082D01*
G01X-0000088604Y0000393030D01*
G02X-0000088212Y0000392548I0J-0000000400D01*
G03X-0000088292Y0000391787I0000003622J-0000000765D01*
G01X-0000088292Y0000387887D01*
G03X-0000080888Y0000387887I0000003702J0D01*
G01X-0000080888Y0000391787D01*
G03X-0000080968Y0000392548I-0000003702J-0000000004D01*
G02X-0000080576Y0000393030I0000000392J0000000082D01*
G01X-0000059864Y0000393030D01*
G02X-0000059472Y0000392548I0J-0000000400D01*
G03X-0000059552Y0000391787I0000003622J-0000000765D01*
G01X-0000059552Y0000387887D01*
G03X-0000053386Y0000385125I0000003702J0D01*
G02X-0000052720Y0000384826I0000000266J-0000000299D01*
G37*
G36*
G01X-0000126400Y0000150000D02*
X-0000126500Y0000150100D01*
X-0000126500Y0000229000D01*
X-0000125884Y0000229616D01*
G02X-0000125201Y0000229347I0000000283J-0000000282D01*
G03X-0000123967Y0000230959I0000001601J0000000053D01*
G01X-0000124076Y0000230934D01*
X-0000124296Y0000231154D01*
X-0000123850Y0000231600D01*
X-0000121400Y0000231600D01*
X-0000119315Y0000229515D01*
X-0000114515Y0000229515D01*
X-0000114500Y0000229530D01*
X-0000107149Y0000229530D01*
X-0000107140Y0000229540D01*
X-0000105646Y0000229540D01*
X-0000104136Y0000228028D01*
X-0000085305Y0000228028D01*
X-0000083718Y0000229615D01*
X-0000083718Y0000231115D01*
X-0000082805Y0000232028D01*
X-0000080429Y0000232028D01*
G02X-0000080029Y0000231634I0J-0000000400D01*
G03X-0000077425Y0000231634I0000001302J0000000017D01*
G02X-0000077025Y0000232028I0000000400J-0000000006D01*
G01X-0000073305Y0000232028D01*
X-0000073303Y0000232030D01*
X-0000072806Y0000232030D01*
X-0000072306Y0000232530D01*
X-0000068549Y0000232530D01*
G02X-0000068165Y0000232017I0J-0000000400D01*
G03X-0000065667Y0000232017I0000001249J-0000000366D01*
G02X-0000065283Y0000232530I0000000384J0000000113D01*
G01X-0000056738Y0000232530D01*
G02X-0000056354Y0000232017I0J-0000000400D01*
G03X-0000054734Y0000230403I0000001249J-0000000366D01*
G02X-0000054220Y0000230020I0000000114J-0000000383D01*
G01X-0000054220Y0000221471D01*
G02X-0000054734Y0000221088I-0000000400J0D01*
G03X-0000054494Y0000218690I-0000000371J-0000001248D01*
G01X-0000054364Y0000218760D01*
X-0000052626Y0000217022D01*
G02X-0000052345Y0000216459I-0000000081J-0000000392D01*
G03X-0000052236Y0000215159I0000001177J-0000000556D01*
G02X-0000052564Y0000214530I-0000000328J-0000000229D01*
G01X-0000052634Y0000214530D01*
X-0000054232Y0000212932D01*
G03X-0000054734Y0000210718I-0000000873J-0000000966D01*
G02X-0000054220Y0000210335I0000000114J-0000000383D01*
G01X-0000054220Y0000209660D01*
G02X-0000054734Y0000209277I-0000000400J0D01*
G03X-0000054734Y0000206781I-0000000371J-0000001248D01*
G02X-0000054220Y0000206398I0000000114J-0000000383D01*
G01X-0000054220Y0000205723D01*
G02X-0000054734Y0000205340I-0000000400J0D01*
G03X-0000056401Y0000203968I-0000000371J-0000001248D01*
G02X-0000056799Y0000203530I-0000000398J-0000000038D01*
G01X-0000057348Y0000203530D01*
G02X-0000057746Y0000203968I0J0000000400D01*
G03X-0000060338Y0000203968I-0000001296J0000000124D01*
G02X-0000060736Y0000203530I-0000000398J-0000000038D01*
G01X-0000065222Y0000203530D01*
G02X-0000065620Y0000203968I0J0000000400D01*
G03X-0000068212Y0000203968I-0000001296J0000000124D01*
G02X-0000068610Y0000203530I-0000000398J-0000000038D01*
G01X-0000069159Y0000203530D01*
G02X-0000069557Y0000203968I0J0000000400D01*
G03X-0000072149Y0000203968I-0000001296J0000000124D01*
G02X-0000072547Y0000203530I-0000000398J-0000000038D01*
G01X-0000073096Y0000203530D01*
G02X-0000073494Y0000203968I0J0000000400D01*
G03X-0000076086Y0000203968I-0000001296J0000000124D01*
G02X-0000076484Y0000203530I-0000000398J-0000000038D01*
G01X-0000080970Y0000203530D01*
G02X-0000081368Y0000203968I0J0000000400D01*
G03X-0000083960Y0000203968I-0000001296J0000000124D01*
G02X-0000084358Y0000203530I-0000000398J-0000000038D01*
G01X-0000084907Y0000203530D01*
G02X-0000085305Y0000203968I0J0000000400D01*
G03X-0000087897Y0000203968I-0000001296J0000000124D01*
G02X-0000088295Y0000203530I-0000000398J-0000000038D01*
G01X-0000088844Y0000203530D01*
G02X-0000089242Y0000203968I0J0000000400D01*
G03X-0000091834Y0000203968I-0000001296J0000000124D01*
G02X-0000092232Y0000203530I-0000000398J-0000000038D01*
G01X-0000096718Y0000203530D01*
G02X-0000097116Y0000203968I0J0000000400D01*
G03X-0000099367Y0000203207I-0000001296J0000000124D01*
G02X-0000099378Y0000202652I-0000000293J-0000000272D01*
G01X-0000108839Y0000193191D01*
X-0000108976Y0000193282D01*
G03X-0000109700Y0000190898I-0000000724J-0000001082D01*
G02X-0000109500Y0000190698I0J-0000000200D01*
G01X-0000109500Y0000183000D01*
X-0000108000Y0000181500D01*
X-0000107000Y0000181500D01*
X-0000101500Y0000176000D01*
X-0000101500Y0000170500D01*
X-0000104500Y0000167500D01*
X-0000104500Y0000150900D01*
X-0000105400Y0000150000D01*
X-0000126400Y0000150000D01*
G37*
G36*
G01X-0000025895Y0000187530D02*
G02X-0000026283Y0000188027I0J0000000400D01*
G03X-0000028372Y0000189351I-0000001263J0000000317D01*
G01X-0000028512Y0000189236D01*
X-0000030591Y0000191315D01*
X-0000030476Y0000191455D01*
G03X-0000032123Y0000193415I-0000001007J0000000826D01*
G02X-0000032720Y0000193763I-0000000197J0000000348D01*
G01X-0000032720Y0000193944D01*
X-0000034306Y0000195530D01*
X-0000034245Y0000195657D01*
G03X-0000035726Y0000197484I-0000001175J0000000561D01*
G02X-0000036220Y0000197872I-0000000094J0000000389D01*
G01X-0000036220Y0000198000D01*
X-0000038084Y0000199864D01*
X-0000038069Y0000199964D01*
G03X-0000039548Y0000201443I-0000001288J0000000191D01*
G01X-0000039648Y0000201428D01*
X-0000041750Y0000203530D01*
X-0000042036Y0000203530D01*
X-0000042036Y0000203754D01*
X-0000042030Y0000203778D01*
G03X-0000044590Y0000203968I-0000001264J0000000314D01*
G02X-0000044988Y0000203530I-0000000398J-0000000038D01*
G01X-0000045537Y0000203530D01*
G02X-0000045935Y0000203968I0J0000000400D01*
G03X-0000048527Y0000203968I-0000001296J0000000124D01*
G02X-0000048925Y0000203530I-0000000398J-0000000038D01*
G01X-0000049474Y0000203530D01*
G02X-0000049872Y0000203968I0J0000000400D01*
G03X-0000051666Y0000205295I-0000001296J0000000124D01*
G02X-0000052218Y0000205665I-0000000152J0000000370D01*
G01X-0000052218Y0000206456D01*
G02X-0000051666Y0000206826I0000000400J0D01*
G03X-0000051666Y0000209232I0000000498J0000001203D01*
G02X-0000052218Y0000209602I-0000000152J0000000370D01*
G01X-0000052218Y0000210393D01*
G02X-0000051666Y0000210763I0000000400J0D01*
G03X-0000049907Y0000212288I0000000498J0000001203D01*
G01X-0000049935Y0000212399D01*
X-0000047718Y0000214615D01*
X-0000047718Y0000217445D01*
X-0000049305Y0000219032D01*
X-0000049516Y0000219032D01*
G02X-0000049904Y0000219527I0J0000000400D01*
G03X-0000051666Y0000221043I-0000001264J0000000313D01*
G02X-0000052218Y0000221413I-0000000152J0000000370D01*
G01X-0000052218Y0000226141D01*
G02X-0000051666Y0000226511I0000000400J0D01*
G03X-0000051666Y0000228917I0000000498J0000001203D01*
G02X-0000052218Y0000229287I-0000000152J0000000370D01*
G01X-0000052218Y0000230078D01*
G02X-0000051666Y0000230448I0000000400J0D01*
G03X-0000051666Y0000232854I0000000498J0000001203D01*
G02X-0000052218Y0000233224I-0000000152J0000000370D01*
G01X-0000052218Y0000234015D01*
G02X-0000051666Y0000234385I0000000400J0D01*
G03X-0000050036Y0000236231I0000000498J0000001203D01*
G01X-0000050062Y0000236277D01*
X-0000050062Y0000236530D01*
X-0000049806Y0000236530D01*
X-0000048220Y0000238116D01*
X-0000048220Y0000238247D01*
G02X-0000047915Y0000238417I0000000200J0D01*
G03X-0000046014Y0000239988I0000000684J0000001108D01*
G02X-0000045640Y0000240530I0000000374J0000000142D01*
G01X-0000044885Y0000240530D01*
G02X-0000044511Y0000239988I0J-0000000400D01*
G03X-0000042355Y0000240427I0000001217J-0000000463D01*
G02X-0000042349Y0000240987I0000000289J0000000277D01*
G01X-0000040819Y0000242517D01*
G02X-0000040259Y0000242523I0000000283J-0000000283D01*
G03X-0000039711Y0000244715I0000000902J0000000939D01*
G02X-0000040220Y0000245100I-0000000109J0000000385D01*
G01X-0000040220Y0000245761D01*
G02X-0000039711Y0000246146I0000000400J0D01*
G03X-0000039221Y0000248694I0000000354J0000001253D01*
G02X-0000039462Y0000249374I0000000042J0000000398D01*
G01X-0000039220Y0000249616D01*
X-0000039220Y0000252616D01*
X-0000037160Y0000254676D01*
G02X-0000036535Y0000254600I0000000283J-0000000283D01*
G03X-0000034147Y0000255546I0000001115J0000000673D01*
G02X-0000033756Y0000256030I0000000391J0000000084D01*
G01X-0000033147Y0000256030D01*
G02X-0000032756Y0000255546I0J-0000000400D01*
G03X-0000030210Y0000255546I0000001273J-0000000273D01*
G02X-0000029819Y0000256030I0000000391J0000000084D01*
G01X-0000029210Y0000256030D01*
G02X-0000028819Y0000255546I0J-0000000400D01*
G03X-0000026273Y0000255546I0000001273J-0000000273D01*
G02X-0000025882Y0000256030I0000000391J0000000084D01*
G01X-0000025273Y0000256030D01*
G02X-0000024882Y0000255546I0J-0000000400D01*
G03X-0000022647Y0000256150I0000001273J-0000000273D01*
G02X-0000022634Y0000256702I0000000296J0000000269D01*
G01X-0000020710Y0000258626D01*
G02X-0000020080Y0000258858I0000000390J-0000000088D01*
G03X-0000019291Y0000258598I0000000781J0000001042D01*
G02X-0000018914Y0000258058I0000000002J-0000000400D01*
G03X-0000017704Y0000258902I0000001219J-0000000458D01*
G02X-0000018081Y0000259442I-0000000002J0000000400D01*
G03X-0000020080Y0000260942I-0000001219J0000000458D01*
G02X-0000020720Y0000261262I-0000000240J0000000320D01*
G01X-0000020720Y0000261573D01*
G02X-0000020168Y0000261943I0000000400J0D01*
G03X-0000018424Y0000263517I0000000496J0000001204D01*
G02X-0000018040Y0000264030I0000000384J0000000113D01*
G01X-0000017870Y0000264030D01*
X-0000015200Y0000266700D01*
X0000013364Y0000266700D01*
X0000020194Y0000273530D01*
X0000022589Y0000273530D01*
G02X0000022969Y0000273005I0J-0000000400D01*
G03X0000025441Y0000273005I0000001236J-0000000408D01*
G02X0000025821Y0000273530I0000000380J0000000125D01*
G01X0000031866Y0000273530D01*
X0000052500Y0000252896D01*
X0000052500Y0000246854D01*
G02X0000051849Y0000246542I-0000000400J-0000000001D01*
G03X0000051849Y0000244518I-0000000819J-0000001012D01*
G02X0000052500Y0000244206I0000000251J-0000000311D01*
G01X0000052500Y0000237964D01*
G02X0000052046Y0000237567I-0000000400J-0000000001D01*
G03X0000052046Y0000234393I-0000000216J-0000001587D01*
G02X0000052500Y0000233996I0000000054J-0000000396D01*
G01X0000052500Y0000209400D01*
X0000043630Y0000200530D01*
X0000032366Y0000200530D01*
X0000026866Y0000195030D01*
X0000007900Y0000195030D01*
X0000006000Y0000193130D01*
X0000006000Y0000193016D01*
G02X0000005687Y0000192851I-0000000200J0D01*
G03X0000005436Y0000190069I-0000000907J-0000001320D01*
G02X0000006000Y0000189704I0000000164J-0000000365D01*
G01X0000006000Y0000188100D01*
X0000005430Y0000187530D01*
X-0000025895Y0000187530D01*
G37*
%LPC*%
G75*
G36*
G01X-0000135282Y0000217351D02*
G03X-0000135282Y0000216795I0000000288J-0000000278D01*
G02X-0000137158Y0000216795I-0000000938J-0000000903D01*
G03X-0000137158Y0000217351I-0000000288J0000000278D01*
G02X-0000135282Y0000217351I0000000938J0000000903D01*
G37*
G36*
G01X-0000184882Y0000217351D02*
G03X-0000184882Y0000216795I0000000288J-0000000278D01*
G02X-0000186758Y0000216795I-0000000938J-0000000903D01*
G03X-0000186758Y0000217351I-0000000288J0000000278D01*
G02X-0000184882Y0000217351I0000000938J0000000903D01*
G37*
G36*
G01X-0000178156Y0000211935D02*
G03X-0000178191Y0000212523I-0000000288J0000000278D01*
G02X-0000176433Y0000212627I0000000822J0000001009D01*
G03X-0000176398Y0000212039I0000000288J-0000000278D01*
G02X-0000178156Y0000211935I-0000000822J-0000001009D01*
G37*
G36*
G01X-0000165836Y0000207574D02*
G03X-0000165836Y0000206986I0000000271J-0000000294D01*
G02X-0000167604Y0000206986I-0000000884J-0000000956D01*
G03X-0000167604Y0000207574I-0000000271J0000000294D01*
G02X-0000165836Y0000207574I0000000884J0000000956D01*
G37*
G36*
G01X-0000215336Y0000207574D02*
G03X-0000215336Y0000206986I0000000271J-0000000294D01*
G02X-0000217104Y0000206986I-0000000884J-0000000956D01*
G03X-0000217104Y0000207574I-0000000271J0000000294D01*
G02X-0000215336Y0000207574I0000000884J0000000956D01*
G37*
G36*
G01X-0000162118Y0000201187D02*
G03X-0000162728Y0000201187I-0000000305J-0000000259D01*
G02X-0000162728Y0000202873I-0000000992J0000000843D01*
G03X-0000162118Y0000202873I0000000305J0000000259D01*
G02X-0000162118Y0000201187I0000000992J-0000000843D01*
G37*
G36*
G01X-0000157721Y0000223552D02*
G02X-0000159163Y0000223325I-0000000499J-0000001522D01*
G03X-0000159239Y0000224016I-0000000235J0000000324D01*
G02X-0000157860Y0000224232I0000000519J0000001194D01*
G03X-0000157721Y0000223552I0000000264J-0000000300D01*
G37*
G36*
G01X-0000143105Y0000207177D02*
G02X-0000144335Y0000207177I-0000000615J-0000001147D01*
G03X-0000144335Y0000207883I-0000000189J0000000353D01*
G02X-0000143105Y0000207883I0000000615J0000001147D01*
G03X-0000143105Y0000207177I0000000189J-0000000353D01*
G37*
G36*
G01X-0000212328Y0000201187D02*
G02X-0000214458Y0000201397I-0000000992J0000000843D01*
G03X-0000215107Y0000201467I-0000000349J-0000000195D01*
G02X-0000214944Y0000202963I-0000000975J0000000863D01*
G03X-0000214295Y0000202893I0000000349J0000000195D01*
G02X-0000212328Y0000202873I0000000975J-0000000863D01*
G03X-0000211718Y0000202873I0000000305J0000000259D01*
G02X-0000211718Y0000201187I0000000992J-0000000843D01*
G03X-0000212328Y0000201187I-0000000305J-0000000259D01*
G37*
G36*
G01X-0000193073Y0000258415D02*
G02X-0000193073Y0000259645I-0000001147J0000000615D01*
G03X-0000192367Y0000259645I0000000353J0000000189D01*
G02X-0000192367Y0000258415I0000001147J-0000000615D01*
G03X-0000193073Y0000258415I-0000000353J-0000000189D01*
G37*
G36*
G01X-0000054823Y0000112789D02*
G02X-0000054871Y0000114808I-0000000846J0000000990D01*
G03X-0000054366Y0000114820I0000000245J0000000316D01*
G02X-0000053056Y0000115046I0000000845J-0000000990D01*
G03X-0000052514Y0000115402I0000000142J0000000374D01*
G02X-0000050372Y0000116335I0000001301J-0000000061D01*
G03X-0000049854Y0000116335I0000000259J0000000305D01*
G02X-0000049854Y0000114347I0000000841J-0000000994D01*
G03X-0000050372Y0000114347I-0000000259J-0000000305D01*
G02X-0000051677Y0000114125I-0000000841J0000000994D01*
G03X-0000052219Y0000113769I-0000000142J-0000000374D01*
G02X-0000054318Y0000112801I-0000001301J0000000061D01*
G03X-0000054823Y0000112789I-0000000245J-0000000316D01*
G37*
G36*
G01X0000003414Y0000113891D02*
G02X0000003307Y0000115331I-0000001134J0000000640D01*
G03X0000003971Y0000115380I0000000316J0000000246D01*
G02X0000005946Y0000115735I0000001134J-0000000639D01*
G03X0000006464Y0000115735I0000000259J0000000305D01*
G02X0000008387Y0000115465I0000000841J-0000000994D01*
G03X0000009050Y0000115463I0000000332J0000000223D01*
G02X0000010967Y0000115724I0000001076J-0000000733D01*
G03X0000011485Y0000115724I0000000259J0000000305D01*
G02X0000011485Y0000113736I0000000841J-0000000994D01*
G03X0000010967Y0000113736I-0000000259J-0000000305D01*
G02X0000009044Y0000114006I-0000000841J0000000994D01*
G03X0000008381Y0000114008I-0000000332J-0000000223D01*
G02X0000006464Y0000113747I-0000001076J0000000733D01*
G03X0000005946Y0000113747I-0000000259J-0000000305D01*
G02X0000004078Y0000113940I-0000000841J0000000994D01*
G03X0000003414Y0000113891I-0000000316J-0000000246D01*
G37*
G36*
G01X0000024521Y0000113636D02*
G02X0000024521Y0000115624I-0000000841J0000000994D01*
G03X0000025039Y0000115624I0000000259J0000000305D01*
G02X0000026941Y0000115384I0000000841J-0000000994D01*
G03X0000027610Y0000115410I0000000326J0000000232D01*
G02X0000029568Y0000115735I0000001117J-0000000669D01*
G03X0000030086Y0000115735I0000000259J0000000305D01*
G02X0000030086Y0000113747I0000000841J-0000000994D01*
G03X0000029568Y0000113747I-0000000259J-0000000305D01*
G02X0000027666Y0000113987I-0000000841J0000000994D01*
G03X0000026997Y0000113961I-0000000326J-0000000232D01*
G02X0000025039Y0000113636I-0000001117J0000000669D01*
G03X0000024521Y0000113636I-0000000259J-0000000305D01*
G37*
G36*
G01X0000041379Y0000113694D02*
G02X0000041379Y0000115682I-0000000841J0000000994D01*
G03X0000041897Y0000115682I0000000259J0000000305D01*
G02X0000043182Y0000115912I0000000841J-0000000994D01*
G03X0000043708Y0000116374I0000000136J0000000376D01*
G02X0000043855Y0000117309I0000001272J0000000279D01*
G03X0000043689Y0000117868I-0000000346J0000000202D01*
G02X0000045401Y0000118375I0000000587J0000001162D01*
G03X0000045567Y0000117816I0000000346J-0000000202D01*
G02X0000045821Y0000117648I-0000000586J-0000001162D01*
G03X0000046339Y0000117648I0000000259J0000000305D01*
G02X0000046339Y0000115660I0000000841J-0000000994D01*
G03X0000045821Y0000115660I-0000000259J-0000000305D01*
G02X0000044536Y0000115430I-0000000841J0000000994D01*
G03X0000044010Y0000114968I-0000000136J-0000000376D01*
G02X0000041897Y0000113694I-0000001272J-0000000280D01*
G03X0000041379Y0000113694I-0000000259J-0000000305D01*
G37*
G36*
G01X-0000023111Y0000116472D02*
G02X-0000024014Y0000115089I0000000391J-0000001242D01*
G03X-0000024532Y0000115427I-0000000398J-0000000044D01*
G02X-0000025764Y0000115675I-0000000391J0000001242D01*
G03X-0000026282Y0000115675I-0000000259J-0000000305D01*
G02X-0000028143Y0000115860I-0000000841J0000000994D01*
G03X-0000028777Y0000115851I-0000000314J-0000000249D01*
G02X-0000030661Y0000115636I-0000001043J0000000779D01*
G03X-0000031179Y0000115636I-0000000259J-0000000305D01*
G02X-0000031179Y0000117624I-0000000841J0000000994D01*
G03X-0000030661Y0000117624I0000000259J0000000305D01*
G02X-0000028800Y0000117439I0000000841J-0000000994D01*
G03X-0000028166Y0000117448I0000000314J0000000249D01*
G02X-0000026282Y0000117663I0000001043J-0000000779D01*
G03X-0000025764Y0000117663I0000000259J0000000305D01*
G02X-0000023629Y0000116810I0000000841J-0000000994D01*
G03X-0000023111Y0000116472I0000000398J0000000044D01*
G37*
G36*
G01X-0000065726Y0000122171D02*
G02X-0000067714Y0000122171I-0000000994J-0000000841D01*
G03X-0000067714Y0000122689I-0000000305J0000000259D01*
G02X-0000067972Y0000123173I0000000994J0000000841D01*
G03X-0000068560Y0000123408I-0000000385J-0000000110D01*
G02X-0000067968Y0000124887I-0000000660J0000001122D01*
G03X-0000067380Y0000124652I0000000385J0000000110D01*
G02X-0000065726Y0000122689I0000000660J-0000001122D01*
G03X-0000065726Y0000122171I0000000305J-0000000259D01*
G37*
G36*
G01X0000051564Y0000122248D02*
G02X0000050579Y0000123297I-0000001284J-0000000218D01*
G03X0000051065Y0000123754I0000000092J0000000389D01*
G02X0000053190Y0000124966I0000001284J0000000218D01*
G03X0000053708Y0000124966I0000000259J0000000305D01*
G02X0000053708Y0000122978I0000000841J-0000000994D01*
G03X0000053190Y0000122978I-0000000259J-0000000305D01*
G02X0000052050Y0000122705I-0000000841J0000000994D01*
G03X0000051564Y0000122248I-0000000092J-0000000389D01*
G37*
G36*
G01X-0000100620Y0000136102D02*
G02X-0000100620Y0000137658I-0000001400J0000000778D01*
G03X-0000099920Y0000137658I0000000350J0000000194D01*
G02X-0000099920Y0000136102I0000001400J-0000000778D01*
G03X-0000100620Y0000136102I-0000000350J-0000000194D01*
G37*
G36*
G01X0000093778Y0000158300D02*
G02X0000092222Y0000158300I-0000000778J-0000001400D01*
G03X0000092222Y0000159000I-0000000194J0000000350D01*
G02X0000093778Y0000159000I0000000778J0000001400D01*
G03X0000093778Y0000158300I0000000194J-0000000350D01*
G37*
G36*
G01X0000114218Y0000158006D02*
G02X0000113546Y0000159334I-0000001602J0000000023D01*
G03X0000114178Y0000159654I0000000232J0000000326D01*
G02X0000114850Y0000158326I0000001602J-0000000023D01*
G03X0000114218Y0000158006I-0000000232J-0000000326D01*
G37*
G36*
G01X0000010548Y0000163734D02*
G02X0000009221Y0000166202I-0000001348J0000000866D01*
G03X0000009561Y0000166821I0000000005J0000000400D01*
G02X0000009331Y0000168024I0000001339J0000000879D01*
G03X0000008971Y0000168503I-0000000392J0000000080D01*
G02X0000010669Y0000169776I0000000129J0000001597D01*
G03X0000011029Y0000169297I0000000392J-0000000080D01*
G02X0000011175Y0000169278I-0000000134J-0000001596D01*
G03X0000011397Y0000169544I0000000034J0000000197D01*
G02X0000012870Y0000168498I0000001503J0000000556D01*
G03X0000012470Y0000168019I-0000000008J-0000000400D01*
G02X0000012287Y0000166898I-0000001570J-0000000319D01*
G03X0000012606Y0000166298I0000000346J-0000000201D01*
G02X0000011207Y0000163754I-0000000106J-0000001598D01*
G03X0000010548Y0000163734I-0000000323J-0000000236D01*
G37*
G36*
G01X0000133558Y0000187030D02*
G02X0000132002Y0000187030I-0000000778J-0000001400D01*
G03X0000132002Y0000187730I-0000000194J0000000350D01*
G02X0000133558Y0000187730I0000000778J0000001400D01*
G03X0000133558Y0000187030I0000000194J-0000000350D01*
G37*
G36*
G01X0000133058Y0000195430D02*
G02X0000131502Y0000195430I-0000000778J-0000001400D01*
G03X0000131502Y0000196130I-0000000194J0000000350D01*
G02X0000133058Y0000196130I0000000778J0000001400D01*
G03X0000133058Y0000195430I0000000194J-0000000350D01*
G37*
G36*
G01X0000060722Y0000278731D02*
G02X0000060697Y0000277308I0000001078J-0000000731D01*
G03X0000060028Y0000277319I-0000000338J-0000000213D01*
G02X0000060053Y0000278742I-0000001078J0000000731D01*
G03X0000060722Y0000278731I0000000338J0000000213D01*
G37*
G36*
G01X0000014027Y0000292924D02*
G02X0000011704Y0000292390I-0000001247J0000000106D01*
G03X0000011428Y0000292459I-0000000172J-0000000102D01*
G02X0000011856Y0000294170I-0000000648J0000001071D01*
G03X0000012132Y0000294101I0000000172J0000000102D01*
G02X0000012669Y0000294277I0000000648J-0000001071D01*
G03X0000013033Y0000294641I-0000000035J0000000399D01*
G02X0000014042Y0000295764I0000001247J-0000000106D01*
G03X0000014265Y0000296423I-0000000076J0000000393D01*
G02X0000014518Y0000298305I0000000935J0000000832D01*
G03X0000014542Y0000298959I-0000000218J0000000335D01*
G02X0000014684Y0000301045I0000000758J0000000996D01*
G03X0000014683Y0000301742I-0000000197J0000000348D01*
G02X0000015912Y0000301743I0000000614J0000001091D01*
G03X0000015913Y0000301046I0000000197J-0000000348D01*
G02X0000015982Y0000298905I-0000000613J-0000001091D01*
G03X0000015958Y0000298251I0000000218J-0000000335D01*
G02X0000015438Y0000296026I-0000000758J-0000000996D01*
G03X0000015215Y0000295367I0000000076J-0000000393D01*
G02X0000014391Y0000293288I-0000000935J-0000000832D01*
G03X0000014027Y0000292924I0000000035J-0000000399D01*
G37*
G36*
G01X0000003920Y0000292872D02*
G02X0000003899Y0000294130I-0000001093J0000000611D01*
G03X0000004590Y0000294141I0000000342J0000000207D01*
G02X0000004611Y0000292883I0000001093J-0000000611D01*
G03X0000003920Y0000292872I-0000000342J-0000000207D01*
G37*
G36*
G01X0000096072Y0000298754D02*
G02X0000094448Y0000298707I-0000000772J-0000001404D01*
G03X0000094428Y0000299396I-0000000213J0000000339D01*
G02X0000094499Y0000302240I0000000772J0000001404D01*
G03X0000094499Y0000302960I-0000000175J0000000360D01*
G02X0000094493Y0000305838I0000000701J0000001440D01*
G03X0000094543Y0000306526I-0000000176J0000000359D01*
G02X0000095962Y0000306491I0000000736J0000001074D01*
G03X0000095978Y0000305801I0000000210J-0000000340D01*
G02X0000095901Y0000302960I-0000000778J-0000001400D01*
G03X0000095901Y0000302240I0000000175J-0000000360D01*
G02X0000096052Y0000299443I-0000000701J-0000001440D01*
G03X0000096072Y0000298754I0000000213J-0000000339D01*
G37*
G36*
G01X0000010723Y0000305931D02*
G02X0000009396Y0000305713I-0000000492J-0000001151D01*
G03X0000009287Y0000306379I-0000000267J0000000298D01*
G02X0000010614Y0000306597I0000000492J0000001151D01*
G03X0000010723Y0000305931I0000000267J-0000000298D01*
G37*
G36*
G01X0000027017Y0000306683D02*
G02X0000025590Y0000306646I-0000000687J-0000001047D01*
G03X0000025573Y0000307303I-0000000236J0000000323D01*
G02X0000025320Y0000309177I0000000687J0000001047D01*
G03X0000025330Y0000309694I-0000000300J0000000264D01*
G02X0000027240Y0000309658I0000000970J0000000791D01*
G03X0000027230Y0000309141I0000000300J-0000000264D01*
G02X0000027000Y0000307340I-0000000970J-0000000791D01*
G03X0000027017Y0000306683I0000000236J-0000000323D01*
G37*
G36*
G01X0000016041Y0000306874D02*
G02X0000014588Y0000306844I-0000000705J-0000001034D01*
G03X0000014574Y0000307496I-0000000239J0000000321D01*
G02X0000016027Y0000307526I0000000705J0000001034D01*
G03X0000016041Y0000306874I0000000239J-0000000321D01*
G37*
G36*
G01X-0000050963Y0000312202D02*
G02X-0000050963Y0000313758I-0000001400J0000000778D01*
G03X-0000050263Y0000313758I0000000350J0000000194D01*
G02X-0000047605Y0000313972I0000001400J-0000000778D01*
G03X-0000046978Y0000313972I0000000313J0000000248D01*
G02X-0000046978Y0000311988I0000001258J-0000000992D01*
G03X-0000047605Y0000311988I-0000000314J-0000000248D01*
G02X-0000050263Y0000312202I-0000001258J0000000992D01*
G03X-0000050963Y0000312202I-0000000350J-0000000194D01*
G37*
G36*
G01X-0000013192Y0000323815D02*
G02X-0000013192Y0000325245I-0000001028J0000000715D01*
G03X-0000012536Y0000325245I0000000328J0000000229D01*
G02X-0000010452Y0000325202I0000001028J-0000000715D01*
G03X-0000009776Y0000325202I0000000338J0000000214D01*
G02X-0000009776Y0000323858I0000001056J-0000000672D01*
G03X-0000010452Y0000323858I-0000000338J-0000000214D01*
G02X-0000012536Y0000323815I-0000001056J0000000672D01*
G03X-0000013192Y0000323815I-0000000328J-0000000229D01*
G37*
G36*
G01X-0000003712Y0000323787D02*
G02X-0000003712Y0000325273I-0000001008J0000000743D01*
G03X-0000003069Y0000325273I0000000321J0000000238D01*
G02X-0000003069Y0000323787I0000001008J-0000000743D01*
G03X-0000003712Y0000323787I-0000000322J-0000000238D01*
G37*
G36*
G01X-0000094342Y0000350980D02*
G02X-0000095898Y0000350980I-0000000778J-0000001400D01*
G03X-0000095898Y0000351680I-0000000194J0000000350D01*
G02X-0000094342Y0000351680I0000000778J0000001400D01*
G03X-0000094342Y0000350980I0000000194J-0000000350D01*
G37*
G36*
G01X-0000088842Y0000350980D02*
G02X-0000090398Y0000350980I-0000000778J-0000001400D01*
G03X-0000090398Y0000351680I-0000000194J0000000350D01*
G02X-0000088842Y0000351680I0000000778J0000001400D01*
G03X-0000088842Y0000350980I0000000194J-0000000350D01*
G37*
G36*
G01X-0000106442Y0000356930D02*
G02X-0000107998Y0000356930I-0000000778J-0000001400D01*
G03X-0000107998Y0000357630I-0000000194J0000000350D01*
G02X-0000106442Y0000357630I0000000778J0000001400D01*
G03X-0000106442Y0000356930I0000000194J-0000000350D01*
G37*
G36*
G01X0000076181Y0000368253D02*
G02X0000076181Y0000369807I-0000001401J0000000777D01*
G03X0000076880Y0000369807I0000000350J0000000194D01*
G02X0000076880Y0000368253I0000001401J-0000000777D01*
G03X0000076181Y0000368253I-0000000349J-0000000194D01*
G37*
G36*
G01X-0000037361Y0000114535D02*
G03X-0000036843Y0000114535I0000000259J0000000305D01*
G02X-0000036843Y0000112547I0000000841J-0000000994D01*
G03X-0000037361Y0000112547I-0000000259J-0000000305D01*
G02X-0000037361Y0000114535I-0000000841J0000000994D01*
G37*
G36*
G01X-0000013483Y0000114989D02*
G03X-0000013483Y0000114471I0000000305J-0000000259D01*
G02X-0000015471Y0000114471I-0000000994J-0000000841D01*
G03X-0000015471Y0000114989I-0000000305J0000000259D01*
G02X-0000013483Y0000114989I0000000994J0000000841D01*
G37*
G36*
G01X-0000072376Y0000112847D02*
G03X-0000072894Y0000112847I-0000000259J-0000000305D01*
G02X-0000072894Y0000114835I-0000000841J0000000994D01*
G03X-0000072376Y0000114835I0000000259J0000000305D01*
G02X-0000072376Y0000112847I0000000841J-0000000994D01*
G37*
G36*
G01X0000053090Y0000115682D02*
G03X0000053608Y0000115682I0000000259J0000000305D01*
G02X0000053608Y0000113694I0000000841J-0000000994D01*
G03X0000053090Y0000113694I-0000000259J-0000000305D01*
G02X0000053090Y0000115682I-0000000841J0000000994D01*
G37*
G36*
G01X0000017757Y0000115735D02*
G03X0000018275Y0000115735I0000000259J0000000305D01*
G02X0000018275Y0000113747I0000000841J-0000000994D01*
G03X0000017757Y0000113747I-0000000259J-0000000305D01*
G02X0000017757Y0000115735I-0000000841J0000000994D01*
G37*
G36*
G01X0000035474Y0000115735D02*
G03X0000035992Y0000115735I0000000259J0000000305D01*
G02X0000035992Y0000113747I0000000841J-0000000994D01*
G03X0000035474Y0000113747I-0000000259J-0000000305D01*
G02X0000035474Y0000115735I-0000000841J0000000994D01*
G37*
G36*
G01X-0000066371Y0000115694D02*
G03X-0000066889Y0000115694I-0000000259J-0000000305D01*
G02X-0000066889Y0000117682I-0000000841J0000000994D01*
G03X-0000066371Y0000117682I0000000259J0000000305D01*
G02X-0000066371Y0000115694I0000000841J-0000000994D01*
G37*
G36*
G01X-0000059561Y0000115736D02*
G03X-0000060079Y0000115736I-0000000259J-0000000305D01*
G02X-0000061024Y0000118028I-0000000841J0000000994D01*
G03X-0000060681Y0000118568I-0000000031J0000000399D01*
G02X-0000058307Y0000118432I0000001217J0000000462D01*
G03X-0000058132Y0000117892I0000000355J-0000000183D01*
G02X-0000059561Y0000115736I-0000000588J-0000001162D01*
G37*
G36*
G01X-0000043679Y0000117724D02*
G03X-0000043161Y0000117724I0000000259J0000000305D01*
G02X-0000043161Y0000115736I0000000841J-0000000994D01*
G03X-0000043679Y0000115736I-0000000259J-0000000305D01*
G02X-0000043679Y0000117724I-0000000841J0000000994D01*
G37*
G36*
G01X-0000050917Y0000122689D02*
G03X-0000050917Y0000122171I0000000305J-0000000259D01*
G02X-0000052905Y0000122171I-0000000994J-0000000841D01*
G03X-0000052905Y0000122689I-0000000305J0000000259D01*
G02X-0000050917Y0000122689I0000000994J0000000841D01*
G37*
G36*
G01X0000039121Y0000122324D02*
G03X0000039639Y0000122324I0000000259J0000000305D01*
G02X0000039639Y0000120336I0000000841J-0000000994D01*
G03X0000039121Y0000120336I-0000000259J-0000000305D01*
G02X0000039121Y0000122324I-0000000841J0000000994D01*
G37*
G36*
G01X-0000019645Y0000122666D02*
G03X-0000019127Y0000122666I0000000259J0000000305D01*
G02X-0000019127Y0000120678I0000000841J-0000000994D01*
G03X-0000019645Y0000120678I-0000000259J-0000000305D01*
G02X-0000019645Y0000122666I-0000000841J0000000994D01*
G37*
G36*
G01X-0000077593Y0000123788D02*
G03X-0000077593Y0000123270I0000000305J-0000000259D01*
G02X-0000079581Y0000123270I-0000000994J-0000000841D01*
G03X-0000079581Y0000123788I-0000000305J0000000259D01*
G02X-0000077593Y0000123788I0000000994J0000000841D01*
G37*
G36*
G01X-0000025661Y0000121436D02*
G03X-0000026178Y0000121436I-0000000259J-0000000305D01*
G02X-0000026178Y0000123424I-0000000841J0000000994D01*
G03X-0000025661Y0000123424I0000000258J0000000305D01*
G02X-0000025661Y0000121436I0000000841J-0000000994D01*
G37*
G36*
G01X-0000037379Y0000124367D02*
G03X-0000036861Y0000124367I0000000259J0000000305D01*
G02X-0000036861Y0000122379I0000000841J-0000000994D01*
G03X-0000037379Y0000122379I-0000000259J-0000000305D01*
G02X-0000037379Y0000124367I-0000000841J0000000994D01*
G37*
G36*
G01X0000030085Y0000122978D02*
G03X0000029568Y0000122978I-0000000259J-0000000305D01*
G02X0000029568Y0000124966I-0000000841J0000000994D01*
G03X0000030085Y0000124966I0000000259J0000000305D01*
G02X0000030085Y0000122978I0000000841J-0000000994D01*
G37*
G36*
G01X0000005946Y0000125014D02*
G03X0000006464Y0000125014I0000000259J0000000305D01*
G02X0000006464Y0000123026I0000000841J-0000000994D01*
G03X0000005946Y0000123026I-0000000259J-0000000305D01*
G02X0000005946Y0000125014I-0000000841J0000000994D01*
G37*
G36*
G01X0000017757Y0000125014D02*
G03X0000018275Y0000125014I0000000259J0000000305D01*
G02X0000018275Y0000123026I0000000841J-0000000994D01*
G03X0000017757Y0000123026I-0000000259J-0000000305D01*
G02X0000017757Y0000125014I-0000000841J0000000994D01*
G37*
G36*
G01X-0000060984Y0000125266D02*
G03X-0000060466Y0000125266I0000000259J0000000305D01*
G02X-0000060466Y0000123278I0000000841J-0000000994D01*
G03X-0000060984Y0000123278I-0000000259J-0000000305D01*
G02X-0000060984Y0000125266I-0000000841J0000000994D01*
G37*
G36*
G01X-0000043266Y0000138637D02*
G03X-0000042748Y0000138637I0000000259J0000000305D01*
G02X-0000042748Y0000136649I0000000841J-0000000994D01*
G03X-0000043266Y0000136649I-0000000259J-0000000305D01*
G02X-0000043266Y0000138637I-0000000841J0000000994D01*
G37*
G36*
G01X-0000031455Y0000138637D02*
G03X-0000030937Y0000138637I0000000259J0000000305D01*
G02X-0000030937Y0000136649I0000000841J-0000000994D01*
G03X-0000031455Y0000136649I-0000000259J-0000000305D01*
G02X-0000031455Y0000138637I-0000000841J0000000994D01*
G37*
G36*
G01X0000011852Y0000138637D02*
G03X0000012370Y0000138637I0000000259J0000000305D01*
G02X0000012370Y0000136649I0000000841J-0000000994D01*
G03X0000011852Y0000136649I-0000000259J-0000000305D01*
G02X0000011852Y0000138637I-0000000841J0000000994D01*
G37*
G36*
G01X0000023663Y0000138637D02*
G03X0000024181Y0000138637I0000000259J0000000305D01*
G02X0000024181Y0000136649I0000000841J-0000000994D01*
G03X0000023663Y0000136649I-0000000259J-0000000305D01*
G02X0000023663Y0000138637I-0000000841J0000000994D01*
G37*
G36*
G01X0000035474Y0000138637D02*
G03X0000035992Y0000138637I0000000259J0000000305D01*
G02X0000035992Y0000136649I0000000841J-0000000994D01*
G03X0000035474Y0000136649I-0000000259J-0000000305D01*
G02X0000035474Y0000138637I-0000000841J0000000994D01*
G37*
G36*
G01X0000047285Y0000138637D02*
G03X0000047803Y0000138637I0000000259J0000000305D01*
G02X0000047803Y0000136649I0000000841J-0000000994D01*
G03X0000047285Y0000136649I-0000000259J-0000000305D01*
G02X0000047285Y0000138637I-0000000841J0000000994D01*
G37*
G36*
G01X-0000046126Y0000141589D02*
G03X-0000046126Y0000141071I0000000305J-0000000259D01*
G02X-0000048114Y0000141071I-0000000994J-0000000841D01*
G03X-0000048114Y0000141589I-0000000305J0000000259D01*
G02X-0000046126Y0000141589I0000000994J0000000841D01*
G37*
G36*
G01X-0000041568Y0000157689D02*
G03X-0000041568Y0000157079I0000000259J-0000000305D01*
G02X-0000043256Y0000157079I-0000000844J-0000000991D01*
G03X-0000043256Y0000157689I-0000000259J0000000305D01*
G02X-0000041568Y0000157689I0000000844J0000000991D01*
G37*
G36*
G01X0000010466Y0000182932D02*
G02X0000012942Y0000185407I0000001294J0000001181D01*
G02X0000015304Y0000185407I0000001181J-0000001294D01*
G02X0000017779Y0000182932I0000001181J-0000001294D01*
G02X0000017779Y0000180569I-0000001294J-0000001181D01*
G02X0000017779Y0000178207I-0000001294J-0000001181D01*
G02X0000015304Y0000175732I-0000001294J-0000001181D01*
G02X0000012942Y0000175732I-0000001181J0000001294D01*
G02X0000010466Y0000178207I-0000001182J0000001294D01*
G02X0000010466Y0000180569I0000001294J0000001181D01*
G02X0000010466Y0000182932I0000001294J0000001182D01*
G37*
G36*
G01X0000103248Y0000200070D02*
G02X0000105610Y0000200070I0000001181J-0000001294D01*
G02X0000107972Y0000200070I0000001181J-0000001294D01*
G02X0000110334Y0000200070I0000001181J-0000001294D01*
G02X0000112696Y0000200070I0000001181J-0000001294D01*
G02X0000115058Y0000200070I0000001181J-0000001294D01*
G02X0000117421Y0000200070I0000001182J-0000001294D01*
G02X0000119783Y0000200070I0000001181J-0000001294D01*
G02X0000122145Y0000200070I0000001181J-0000001294D01*
G02X0000124620Y0000197595I0000001181J-0000001294D01*
G02X0000124620Y0000195232I-0000001294J-0000001182D01*
G02X0000122145Y0000192757I-0000001294J-0000001181D01*
G02X0000119783Y0000192757I-0000001181J0000001294D01*
G02X0000117421Y0000192757I-0000001181J0000001294D01*
G02X0000115058Y0000192757I-0000001181J0000001294D01*
G02X0000112696Y0000192757I-0000001181J0000001294D01*
G02X0000110334Y0000192757I-0000001181J0000001294D01*
G02X0000107972Y0000192757I-0000001181J0000001294D01*
G02X0000105610Y0000192757I-0000001181J0000001294D01*
G02X0000103248Y0000192757I-0000001181J0000001294D01*
G02X0000100772Y0000195232I-0000001182J0000001294D01*
G02X0000100772Y0000197595I0000001294J0000001181D01*
G02X0000103248Y0000200070I0000001294J0000001181D01*
G37*
G36*
G01X0000058757Y0000216212D02*
G03X0000058752Y0000216794I-0000000277J0000000289D01*
G02X0000060951Y0000216810I0000001091J0000001173D01*
G03X0000060956Y0000216228I0000000277J-0000000289D01*
G02X0000058757Y0000216212I-0000001091J-0000001173D01*
G37*
G36*
G01X0000064888Y0000216810D02*
G03X0000064893Y0000216228I0000000277J-0000000289D01*
G02X0000062694Y0000216212I-0000001091J-0000001173D01*
G03X0000062689Y0000216794I-0000000277J0000000289D01*
G02X0000064888Y0000216810I0000001091J0000001173D01*
G37*
G36*
G01X-0000087603Y0000274785D02*
G03X-0000087626Y0000275340I-0000000299J0000000266D01*
G02X-0000085753Y0000275414I0000000901J0000000940D01*
G03X-0000085730Y0000274859I0000000299J-0000000266D01*
G02X-0000087603Y0000274785I-0000000901J-0000000940D01*
G37*
G36*
G01X0000170741Y0000307031D02*
G02X0000168378Y0000307031I-0000001182J0000001294D01*
G02X0000165903Y0000309506I-0000001181J0000001294D01*
G02X0000165903Y0000311868I0000001294J0000001181D01*
G02X0000168378Y0000314344I0000001294J0000001182D01*
G02X0000170741Y0000314344I0000001181J-0000001294D01*
G02X0000173103Y0000314344I0000001181J-0000001294D01*
G02X0000175578Y0000311868I0000001181J-0000001294D01*
G02X0000175578Y0000309506I-0000001294J-0000001181D01*
G02X0000173103Y0000307031I-0000001294J-0000001181D01*
G02X0000170741Y0000307031I-0000001181J0000001294D01*
G37*
G36*
G01X0000063517Y0000310745D02*
G03X0000062882Y0000310739I-0000000315J-0000000246D01*
G02X0000062863Y0000312685I-0000001282J0000000961D01*
G03X0000063498Y0000312691I0000000315J0000000246D01*
G02X0000063517Y0000310745I0000001282J-0000000961D01*
G37*
G36*
G01X0000051063Y0000323377D02*
G03X0000051686Y0000323417I0000000296J0000000269D01*
G02X0000051686Y0000321583I0000001314J-0000000917D01*
G03X0000051063Y0000321623I-0000000327J-0000000229D01*
G02X0000051063Y0000323377I-0000000963J0000000877D01*
G37*
G36*
G01X-0000071680Y0000284346D02*
G02X-0000071902Y0000285636I-0000001220J0000000454D01*
G03X-0000071220Y0000285754I0000000307J0000000257D01*
G02X-0000069940Y0000286601I0000001220J-0000000454D01*
G03X-0000069522Y0000287007I0000000018J0000000399D01*
G02X-0000068835Y0000288177I0000001302J0000000022D01*
G03X-0000068835Y0000288883I-0000000189J0000000353D01*
G02X-0000067605Y0000288883I0000000615J0000001147D01*
G03X-0000067605Y0000288177I0000000189J-0000000353D01*
G02X-0000068280Y0000285729I-0000000615J-0000001147D01*
G03X-0000068698Y0000285323I-0000000018J-0000000399D01*
G02X-0000070998Y0000284464I-0000001302J-0000000023D01*
G03X-0000071680Y0000284346I-0000000307J-0000000257D01*
G37*
G36*
G01X-0000107340Y0000228478D02*
G02X-0000107385Y0000227015I0000001054J-0000000765D01*
G03X-0000108046Y0000227036I-0000000338J-0000000214D01*
G02X-0000108001Y0000228499I-0000001054J0000000765D01*
G03X-0000107340Y0000228478I0000000338J0000000214D01*
G37*
G36*
G01X-0000118354Y0000212605D02*
G02X-0000118381Y0000211376I0000001134J-0000000640D01*
G03X-0000119086Y0000211391I-0000000357J-0000000181D01*
G02X-0000119059Y0000212620I-0000001134J0000000640D01*
G03X-0000118354Y0000212605I0000000357J0000000181D01*
G37*
G36*
G01X0000026699Y0000230952D02*
G02X0000024918Y0000231006I-0000000919J-0000000922D01*
G03X0000024935Y0000231589I-0000000265J0000000299D01*
G02X0000024635Y0000232968I0000000919J0000000922D01*
G03X0000024247Y0000233508I-0000000375J0000000140D01*
G02X0000025424Y0000234352I-0000000042J0000001301D01*
G03X0000025812Y0000233812I0000000375J-0000000140D01*
G02X0000026716Y0000231535I0000000042J-0000001301D01*
G03X0000026699Y0000230952I0000000265J-0000000299D01*
G37*
G54D45*
X0000034237Y0000363991D03*
X0000091323Y0000363991D03*
G54D35*
X-0000202820Y0000187030D03*
X-0000202820Y0000182730D03*
X-0000151220Y0000187030D03*
X-0000151320Y0000181730D03*
X-0000007022Y0000227376D03*
X-0000007022Y0000231376D03*
G54D44*
X-0000070220Y0000367987D03*
X-0000112220Y0000367987D03*
G54D36*
X-0000207320Y0000207030D03*
X-0000212320Y0000217030D03*
X-0000202320Y0000207030D03*
X-0000202320Y0000217030D03*
X-0000202320Y0000212030D03*
X-0000207320Y0000217030D03*
X-0000212320Y0000212030D03*
X-0000212320Y0000207030D03*
X-0000207320Y0000212030D03*
X-0000207320Y0000221630D03*
X-0000212320Y0000221630D03*
X-0000202320Y0000221630D03*
X-0000197320Y0000207030D03*
X-0000197320Y0000217030D03*
X-0000197320Y0000212030D03*
X-0000197320Y0000221030D03*
X-0000158220Y0000207030D03*
X-0000163220Y0000217030D03*
X-0000153220Y0000207030D03*
X-0000153220Y0000217030D03*
X-0000153220Y0000212030D03*
X-0000158220Y0000217030D03*
X-0000163220Y0000207030D03*
X-0000163220Y0000212030D03*
X-0000158220Y0000212030D03*
X-0000163220Y0000222030D03*
X-0000153220Y0000222030D03*
X-0000138720Y0000116030D03*
X-0000141470Y0000156780D03*
X-0000148220Y0000207030D03*
X-0000148220Y0000217030D03*
X-0000148220Y0000212030D03*
X-0000148220Y0000222030D03*
X-0000198720Y0000303030D03*
X-0000198720Y0000348030D03*
X-0000193960Y0000290270D03*
X-0000185720Y0000284030D03*
X-0000189261Y0000296162D03*
X-0000185200Y0000311020D03*
X-0000183220Y0000300280D03*
X-0000193960Y0000336000D03*
X-0000189261Y0000342412D03*
X-0000184500Y0000358000D03*
X-0000183220Y0000346530D03*
X-0000168970Y0000264101D03*
X-0000168970Y0000259530D03*
X-0000179500Y0000267500D03*
X-0000175500Y0000273454D03*
X-0000168970Y0000282387D03*
X-0000168970Y0000277816D03*
X-0000168970Y0000273244D03*
X-0000168970Y0000268673D03*
X-0000168970Y0000286959D03*
X-0000168970Y0000291530D03*
X-0000162570Y0000259530D03*
X-0000162570Y0000264101D03*
X-0000151970Y0000264101D03*
X-0000151970Y0000259530D03*
X-0000162570Y0000282387D03*
X-0000151970Y0000273244D03*
X-0000162570Y0000268673D03*
X-0000162570Y0000273244D03*
X-0000151970Y0000268673D03*
X-0000151970Y0000277816D03*
X-0000151970Y0000282387D03*
X-0000162570Y0000277816D03*
X-0000162570Y0000286959D03*
X-0000162570Y0000291530D03*
X-0000151970Y0000286959D03*
X-0000151970Y0000291530D03*
X-0000145570Y0000259530D03*
X-0000145570Y0000264101D03*
X-0000145570Y0000268673D03*
X-0000145570Y0000282387D03*
X-0000145570Y0000277816D03*
X-0000145570Y0000273244D03*
X-0000145570Y0000286959D03*
X-0000145570Y0000291530D03*
X-0000133720Y0000277530D03*
X-0000127720Y0000277530D03*
X-0000117720Y0000254030D03*
X0000186780Y0000386530D03*
X0000186454Y0000332619D03*
X0000186454Y0000327619D03*
X0000186454Y0000291030D03*
X0000186454Y0000297619D03*
X0000186454Y0000281530D03*
X0000186780Y0000270030D03*
X0000186339Y0000253000D03*
X0000186780Y0000244030D03*
X0000170709Y0000369180D03*
X0000182280Y0000369000D03*
X0000174566Y0000369066D03*
X0000178423Y0000369000D03*
X0000171435Y0000286030D03*
X0000176780Y0000286030D03*
X0000176780Y0000291030D03*
X0000176780Y0000281530D03*
X0000171435Y0000281530D03*
X0000181454Y0000281530D03*
X0000167667Y0000262500D03*
X0000175000Y0000262500D03*
X0000182678Y0000253000D03*
X0000171333Y0000262500D03*
X0000178500Y0000253000D03*
X0000169500Y0000192500D03*
X0000167137Y0000378363D03*
X0000162500Y0000378500D03*
X0000166280Y0000359530D03*
X0000160426Y0000315540D03*
X0000160280Y0000321030D03*
X0000155280Y0000309530D03*
X0000166435Y0000286030D03*
X0000166435Y0000281530D03*
X0000164000Y0000262500D03*
X0000157280Y0000127530D03*
X0000152280Y0000132530D03*
X0000152280Y0000127530D03*
X0000157280Y0000132530D03*
X0000136416Y0000344367D03*
X0000139433Y0000317877D03*
X0000143593Y0000321905D03*
X0000143592Y0000305030D03*
X0000143592Y0000309030D03*
X0000139186Y0000295936D03*
X0000138934Y0000261984D03*
X0000140780Y0000238030D03*
X0000142280Y0000220530D03*
X0000142280Y0000215630D03*
X0000142280Y0000208530D03*
X0000145380Y0000189130D03*
X0000145380Y0000185230D03*
X0000147280Y0000132530D03*
X0000147280Y0000127530D03*
X0000150280Y0000119030D03*
X0000142268Y0000122018D03*
X0000142268Y0000116030D03*
X0000132000Y0000366313D03*
X0000126200Y0000343800D03*
X0000133900Y0000332700D03*
X0000126200Y0000339817D03*
X0000126300Y0000335200D03*
X0000132479Y0000344367D03*
X0000130600Y0000335300D03*
X0000122280Y0000321500D03*
X0000127280Y0000321500D03*
X0000125627Y0000317877D03*
X0000125280Y0000306530D03*
X0000128280Y0000267030D03*
X0000122280Y0000267030D03*
X0000132280Y0000267030D03*
X0000126780Y0000278030D03*
X0000122280Y0000278030D03*
X0000126780Y0000237530D03*
X0000122280Y0000237530D03*
X0000133280Y0000227530D03*
X0000128780Y0000177130D03*
X0000134780Y0000119030D03*
X0000123016Y0000116266D03*
X0000123016Y0000122294D03*
X0000116280Y0000342530D03*
X0000107000Y0000335000D03*
X0000104952Y0000322530D03*
X0000112127Y0000317877D03*
X0000104952Y0000311358D03*
X0000104952Y0000301358D03*
X0000119780Y0000306530D03*
X0000116957Y0000310707D03*
X0000111686Y0000295936D03*
X0000104952Y0000289358D03*
X0000117280Y0000282030D03*
X0000111780Y0000277530D03*
X0000117280Y0000277530D03*
X0000111780Y0000273796D03*
X0000117280Y0000267030D03*
X0000112434Y0000261984D03*
X0000117280Y0000237530D03*
X0000111434Y0000239784D03*
X0000118601Y0000183709D03*
X0000107280Y0000177593D03*
X0000111530Y0000177593D03*
X0000118430Y0000177130D03*
X0000112800Y0000162300D03*
X0000112616Y0000153280D03*
X0000110280Y0000119030D03*
X0000098007Y0000361957D03*
X0000094080Y0000346530D03*
X0000094080Y0000338530D03*
X0000094080Y0000334530D03*
X0000094189Y0000342421D03*
X0000088780Y0000327530D03*
X0000095280Y0000311030D03*
X0000095280Y0000288530D03*
X0000088280Y0000275530D03*
X0000092280Y0000275530D03*
X0000095780Y0000247530D03*
X0000091339Y0000206530D03*
X0000095276Y0000206530D03*
X0000091339Y0000189530D03*
X0000095276Y0000189530D03*
X0000095276Y0000193467D03*
X0000095276Y0000202593D03*
X0000091339Y0000177593D03*
X0000101000Y0000162200D03*
X0000101200Y0000158030D03*
X0000096900Y0000161900D03*
X0000093000Y0000165780D03*
X0000093000Y0000153280D03*
X0000098016Y0000116030D03*
X0000098016Y0000122030D03*
X0000078100Y0000375800D03*
X0000083000Y0000369000D03*
X0000077607Y0000322530D03*
X0000083780Y0000311730D03*
X0000083280Y0000306530D03*
X0000083780Y0000302530D03*
X0000073780Y0000311730D03*
X0000073280Y0000302030D03*
X0000083780Y0000298530D03*
X0000083780Y0000284030D03*
X0000073280Y0000297530D03*
X0000073280Y0000285530D03*
X0000073280Y0000291530D03*
X0000083780Y0000275530D03*
X0000075591Y0000206530D03*
X0000079528Y0000206530D03*
X0000083465Y0000206530D03*
X0000087402Y0000206530D03*
X0000075591Y0000197030D03*
X0000075591Y0000192030D03*
X0000079528Y0000194030D03*
X0000079528Y0000189530D03*
X0000083465Y0000189530D03*
X0000087402Y0000189530D03*
X0000080900Y0000158500D03*
X0000075874Y0000171000D03*
X0000075874Y0000167300D03*
X0000080700Y0000162500D03*
X0000079811Y0000171000D03*
X0000079811Y0000167300D03*
X0000075974Y0000163400D03*
X0000081100Y0000154600D03*
X0000077280Y0000115030D03*
X0000085780Y0000119030D03*
X0000077280Y0000122530D03*
X0000064749Y0000368530D03*
X0000058843Y0000368530D03*
X0000065796Y0000322530D03*
X0000069280Y0000311730D03*
X0000057800Y0000311600D03*
X0000067780Y0000302030D03*
X0000062780Y0000302030D03*
X0000057780Y0000302030D03*
X0000058280Y0000285530D03*
X0000067780Y0000297530D03*
X0000067780Y0000285530D03*
X0000067780Y0000291530D03*
X0000062780Y0000297530D03*
X0000057780Y0000297530D03*
X0000062780Y0000285530D03*
X0000062780Y0000291530D03*
X0000057780Y0000291530D03*
X0000059780Y0000255660D03*
X0000071717Y0000243530D03*
X0000067717Y0000243530D03*
X0000063780Y0000233030D03*
X0000059780Y0000233030D03*
X0000063780Y0000226530D03*
X0000067717Y0000221904D03*
X0000071654Y0000221904D03*
X0000063780Y0000221904D03*
X0000059843Y0000226530D03*
X0000059843Y0000221904D03*
X0000067717Y0000217967D03*
X0000071654Y0000206530D03*
X0000071654Y0000217967D03*
X0000071654Y0000214030D03*
X0000067717Y0000206530D03*
X0000067717Y0000214030D03*
X0000071800Y0000192000D03*
X0000067700Y0000192030D03*
X0000072000Y0000187600D03*
X0000059680Y0000179530D03*
X0000059680Y0000183630D03*
X0000056780Y0000187030D03*
X0000071100Y0000167300D03*
X0000071100Y0000171000D03*
X0000071337Y0000163400D03*
X0000063528Y0000122030D03*
X0000047032Y0000368530D03*
X0000052937Y0000368530D03*
X0000049780Y0000336030D03*
X0000055780Y0000326530D03*
X0000049780Y0000311730D03*
X0000045280Y0000311730D03*
X0000055280Y0000266030D03*
X0000041780Y0000192830D03*
X0000044680Y0000175030D03*
X0000045880Y0000187130D03*
X0000044680Y0000180030D03*
X0000044680Y0000165030D03*
X0000049680Y0000170030D03*
X0000044680Y0000170030D03*
X0000048874Y0000141500D03*
X0000041000Y0000141500D03*
X0000040500Y0000147000D03*
X0000055800Y0000147200D03*
X0000044437Y0000147000D03*
X0000054000Y0000150500D03*
X0000048374Y0000147000D03*
X0000044937Y0000141500D03*
X0000034280Y0000331185D03*
X0000028280Y0000181030D03*
X0000028280Y0000177030D03*
X0000028280Y0000173030D03*
X0000028280Y0000169030D03*
X0000034500Y0000157530D03*
X0000025680Y0000165230D03*
X0000034500Y0000150000D03*
X0000024780Y0000154530D03*
X0000017030Y0000385030D03*
X0000009530Y0000387530D03*
X0000011780Y0000367030D03*
X0000009780Y0000331180D03*
X0000021780Y0000331180D03*
X0000023780Y0000173030D03*
X0000023780Y0000169030D03*
X0000012780Y0000160030D03*
X0000008780Y0000160030D03*
X0000017680Y0000169230D03*
X0000021800Y0000165100D03*
X0000017800Y0000165300D03*
X0000012280Y0000155030D03*
X0000017280Y0000148030D03*
X0000013280Y0000148030D03*
X-0000001220Y0000387530D03*
X-0000002720Y0000342286D03*
X-0000007031Y0000173967D03*
X-0000003094Y0000170030D03*
X-0000007031Y0000170030D03*
X0000000843Y0000166093D03*
X-0000003094Y0000166093D03*
X0000000843Y0000170030D03*
X-0000007031Y0000166030D03*
X-0000000220Y0000148030D03*
X-0000014720Y0000387530D03*
X-0000008220Y0000370030D03*
X-0000014340Y0000370000D03*
X-0000020220Y0000327530D03*
X-0000008720Y0000156030D03*
X-0000008720Y0000152030D03*
X-0000024720Y0000387530D03*
X-0000035205Y0000387545D03*
X-0000024720Y0000367030D03*
X-0000029600Y0000367200D03*
X-0000034720Y0000337530D03*
X-0000034720Y0000332730D03*
X-0000034720Y0000320730D03*
X-0000034720Y0000313030D03*
X-0000034720Y0000297726D03*
X-0000025220Y0000154130D03*
X-0000043720Y0000377530D03*
X-0000041200Y0000366180D03*
X-0000048200Y0000359100D03*
X-0000050720Y0000350030D03*
X-0000045720Y0000350030D03*
X-0000045720Y0000345030D03*
X-0000050720Y0000345030D03*
X-0000045720Y0000340030D03*
X-0000050720Y0000340030D03*
X-0000049220Y0000324630D03*
X-0000041863Y0000304679D03*
X-0000041863Y0000300679D03*
X-0000045863Y0000304679D03*
X-0000049863Y0000304679D03*
X-0000049863Y0000300679D03*
X-0000045863Y0000300679D03*
X-0000045863Y0000289179D03*
X-0000041863Y0000296679D03*
X-0000049863Y0000296679D03*
X-0000045863Y0000296679D03*
X-0000052720Y0000160030D03*
X-0000064720Y0000347341D03*
X-0000058700Y0000359000D03*
X-0000069220Y0000359030D03*
X-0000064550Y0000352860D03*
X-0000065220Y0000359030D03*
X-0000055720Y0000350030D03*
X-0000069720Y0000339530D03*
X-0000055720Y0000345030D03*
X-0000055720Y0000340030D03*
X-0000067220Y0000312980D03*
X-0000058820Y0000157230D03*
X-0000058820Y0000147430D03*
X-0000077720Y0000350030D03*
X-0000073820Y0000350030D03*
X-0000083800Y0000353100D03*
X-0000080550Y0000280350D03*
X-0000080220Y0000175030D03*
X-0000076220Y0000116030D03*
X-0000088220Y0000357030D03*
X-0000093220Y0000357030D03*
X-0000101220Y0000334230D03*
X-0000094220Y0000334230D03*
X-0000087220Y0000334230D03*
X-0000101220Y0000326730D03*
X-0000094220Y0000326730D03*
X-0000101220Y0000319230D03*
X-0000094220Y0000319230D03*
X-0000087220Y0000326730D03*
X-0000087220Y0000319230D03*
X-0000094220Y0000313230D03*
X-0000101220Y0000313230D03*
X-0000087220Y0000313230D03*
X-0000087720Y0000285030D03*
X-0000092720Y0000281530D03*
X-0000090220Y0000172530D03*
X-0000095220Y0000162530D03*
X-0000095220Y0000167530D03*
X-0000090220Y0000167530D03*
X-0000096470Y0000151280D03*
X-0000089220Y0000135030D03*
X-0000111220Y0000359030D03*
X-0000115370Y0000355030D03*
X-0000115370Y0000347030D03*
X-0000115370Y0000351030D03*
X-0000113220Y0000343730D03*
X-0000107220Y0000334230D03*
X-0000117220Y0000340500D03*
X-0000109120Y0000343730D03*
X-0000107220Y0000326730D03*
X-0000107220Y0000319230D03*
X-0000107220Y0000313030D03*
X-0000114207Y0000144572D03*
X-0000112520Y0000134030D03*
X-0000120220Y0000351030D03*
X-0000120220Y0000347030D03*
X-0000120220Y0000355030D03*
X-0000132800Y0000361200D03*
X-0000123000Y0000361200D03*
X-0000128000Y0000361200D03*
X-0000124547Y0000332588D03*
X-0000129700Y0000343300D03*
X-0000125700Y0000343600D03*
X-0000124547Y0000324714D03*
X-0000120673Y0000320777D03*
X-0000120641Y0000328651D03*
X-0000120704Y0000324714D03*
X-0000124547Y0000328651D03*
X-0000120610Y0000316840D03*
X-0000124547Y0000316840D03*
X-0000124547Y0000320777D03*
X-0000133921Y0000328651D03*
X-0000129984Y0000328651D03*
X-0000120547Y0000309030D03*
X-0000120720Y0000305030D03*
X-0000130500Y0000299000D03*
X-0000121000Y0000297000D03*
X-0000123720Y0000144530D03*
X-0000119220Y0000192530D03*
X-0000123220Y0000192530D03*
X0000007820Y0000211870D03*
X-0000007220Y0000223530D03*
X-0000007220Y0000259030D03*
X-0000007220Y0000263030D03*
X0000003091Y0000259504D03*
X0000012280Y0000202030D03*
X0000022280Y0000202030D03*
X0000017280Y0000202030D03*
X0000045780Y0000228530D03*
G54D43*
X0000026330Y0000321381D03*
X0000026330Y0000324530D03*
X0000026330Y0000314325D03*
X0000026330Y0000318232D03*
X0000026330Y0000299338D03*
X0000026330Y0000302487D03*
X0000029680Y0000302530D03*
X0000029780Y0000299338D03*
X0000026330Y0000289891D03*
X0000026330Y0000293040D03*
X0000026330Y0000286742D03*
X0000026330Y0000283593D03*
X0000023131Y0000327679D03*
X0000023131Y0000324530D03*
X0000013684Y0000327679D03*
X0000010535Y0000327679D03*
X0000010535Y0000324530D03*
X0000013684Y0000324530D03*
X0000016833Y0000324530D03*
X0000016833Y0000327679D03*
X0000019982Y0000324530D03*
X0000010280Y0000313530D03*
X0000010600Y0000301800D03*
X0000023181Y0000283593D03*
X0000010475Y0000283585D03*
X0000013774Y0000283593D03*
X0000020032Y0000283593D03*
X0000016883Y0000283593D03*
X0000016780Y0000293030D03*
X0000023181Y0000280444D03*
X0000010625Y0000277295D03*
X0000010605Y0000280444D03*
X0000016883Y0000280444D03*
X0000020032Y0000280444D03*
X-0000003276Y0000314976D03*
X0000007386Y0000327679D03*
X0000007386Y0000324530D03*
X0000004237Y0000324530D03*
X-0000002061Y0000327679D03*
X0000001088Y0000324530D03*
X0000001088Y0000327679D03*
X0000004237Y0000327679D03*
X0000001600Y0000313500D03*
X-0000001335Y0000311922D03*
X0000007280Y0000313530D03*
X-0000004720Y0000299530D03*
X0000001030Y0000301780D03*
X-0000004720Y0000308530D03*
X-0000004720Y0000302530D03*
X0000007100Y0000283593D03*
X0000001128Y0000283593D03*
X-0000002021Y0000283593D03*
X-0000005196Y0000293506D03*
X-0000004720Y0000296381D03*
X-0000001220Y0000296381D03*
X-0000002011Y0000280444D03*
X0000001128Y0000280444D03*
X0000007436Y0000280444D03*
X0000007436Y0000277295D03*
X0000004287Y0000277295D03*
X0000004287Y0000280444D03*
X-0000005160Y0000280444D03*
X-0000017720Y0000321219D03*
X-0000011508Y0000327679D03*
X-0000017720Y0000315530D03*
X-0000014720Y0000315530D03*
X-0000020955Y0000305636D03*
X-0000017806Y0000308680D03*
X-0000014657Y0000305636D03*
X-0000014657Y0000308575D03*
X-0000017806Y0000299338D03*
X-0000014657Y0000299337D03*
X-0000008309Y0000283593D03*
X-0000014657Y0000293040D03*
X-0000014700Y0000296400D03*
G54D39*
X-0000186720Y0000329530D03*
X-0000186720Y0000319530D03*
X0000156280Y0000387030D03*
X0000156280Y0000367030D03*
X0000156280Y0000377030D03*
X0000156280Y0000357030D03*
X0000156280Y0000337030D03*
X0000156280Y0000347030D03*
X0000156280Y0000287030D03*
X0000156280Y0000297030D03*
X0000156280Y0000277030D03*
X0000156280Y0000257030D03*
X0000156280Y0000267030D03*
X0000156280Y0000247030D03*
X0000146280Y0000387030D03*
X0000146280Y0000377030D03*
X0000146280Y0000367030D03*
X0000146280Y0000357030D03*
X0000146280Y0000337030D03*
X0000146280Y0000347030D03*
X0000146280Y0000287030D03*
X0000146280Y0000297030D03*
X0000146280Y0000277030D03*
X0000146280Y0000257030D03*
X0000146280Y0000267030D03*
X0000146280Y0000247030D03*
X0000150142Y0000108518D03*
X-0000086551Y0000108518D03*
G54D34*
X-0000195557Y0000127642D03*
X-0000195557Y0000135634D03*
X-0000195557Y0000143626D03*
X-0000195557Y0000151618D03*
X-0000188116Y0000126638D03*
X-0000183116Y0000131638D03*
X-0000188116Y0000152622D03*
X-0000183116Y0000147622D03*
X-0000178116Y0000126638D03*
X-0000173116Y0000131638D03*
X-0000168116Y0000126638D03*
X-0000178116Y0000152622D03*
X-0000173116Y0000147622D03*
X-0000168116Y0000152622D03*
X-0000163116Y0000131638D03*
X-0000158116Y0000126638D03*
X-0000153116Y0000131638D03*
X-0000148116Y0000126638D03*
X-0000163116Y0000147622D03*
X-0000158116Y0000152622D03*
X-0000153116Y0000147622D03*
X-0000148116Y0000152622D03*
X-0000143116Y0000131638D03*
X-0000143116Y0000147622D03*
G54D40*
X-0000195807Y0000374530D03*
X-0000181634Y0000374530D03*
X-0000188720Y0000381617D03*
G54D33*
X-0000227720Y0000180030D03*
X-0000217320Y0000180030D03*
X-0000217320Y0000186780D03*
X-0000217220Y0000175530D03*
X-0000224320Y0000189830D03*
X-0000220320Y0000189930D03*
X-0000223820Y0000200932D03*
X-0000217320Y0000194530D03*
X-0000223820Y0000197783D03*
X-0000227720Y0000190030D03*
X-0000223820Y0000204081D03*
X-0000226969Y0000216681D03*
X-0000223820Y0000216681D03*
X-0000223820Y0000213532D03*
X-0000226969Y0000213532D03*
X-0000226969Y0000210383D03*
X-0000223720Y0000207530D03*
X-0000223820Y0000222979D03*
X-0000218993Y0000232530D03*
X-0000224818Y0000226128D03*
X-0000226969Y0000219830D03*
X-0000224818Y0000229277D03*
X-0000223820Y0000219830D03*
X-0000215844Y0000232530D03*
X-0000215844Y0000235679D03*
X-0000222420Y0000235830D03*
X-0000198320Y0000180030D03*
X-0000205220Y0000180030D03*
X-0000210320Y0000186780D03*
X-0000213820Y0000186780D03*
X-0000206820Y0000186730D03*
X-0000198320Y0000186780D03*
X-0000198220Y0000175530D03*
X-0000201277Y0000202030D03*
X-0000206001Y0000202030D03*
X-0000206844Y0000194525D03*
X-0000208600Y0000224800D03*
X-0000200099Y0000232530D03*
X-0000212695Y0000232530D03*
X-0000203248Y0000232530D03*
X-0000209546Y0000232530D03*
X-0000212695Y0000235679D03*
X-0000185220Y0000180030D03*
X-0000184720Y0000175030D03*
X-0000187320Y0000186780D03*
X-0000190820Y0000186780D03*
X-0000194820Y0000186780D03*
X-0000192420Y0000175030D03*
X-0000188220Y0000175030D03*
X-0000193320Y0000202900D03*
X-0000195371Y0000194530D03*
X-0000192222Y0000194530D03*
X-0000189073Y0000194530D03*
X-0000185820Y0000211168D03*
X-0000193177Y0000209987D03*
X-0000193220Y0000216030D03*
X-0000185820Y0000204081D03*
X-0000182671Y0000208806D03*
X-0000193320Y0000225030D03*
X-0000196552Y0000224780D03*
X-0000193320Y0000219436D03*
X-0000183000Y0000223155D03*
X-0000190652Y0000232530D03*
X-0000182720Y0000219530D03*
X-0000187320Y0000232530D03*
X-0000193720Y0000232530D03*
X-0000174220Y0000180030D03*
X-0000166720Y0000175530D03*
X-0000166748Y0000186730D03*
X-0000177720Y0000175030D03*
X-0000181220Y0000175030D03*
X-0000166722Y0000180032D03*
X-0000173220Y0000175030D03*
X-0000177820Y0000180030D03*
X-0000166720Y0000202530D03*
X-0000167720Y0000194530D03*
X-0000176350Y0000189530D03*
X-0000174220Y0000200932D03*
X-0000172165Y0000189475D03*
X-0000182020Y0000189530D03*
X-0000174220Y0000204081D03*
X-0000174220Y0000207530D03*
X-0000174220Y0000213532D03*
X-0000177369Y0000216681D03*
X-0000174220Y0000216681D03*
X-0000174220Y0000222979D03*
X-0000169393Y0000232530D03*
X-0000177369Y0000229277D03*
X-0000174220Y0000219830D03*
X-0000174220Y0000229277D03*
X-0000177369Y0000219830D03*
X-0000177026Y0000240404D03*
X-0000155720Y0000180030D03*
X-0000163220Y0000186780D03*
X-0000159223Y0000186780D03*
X-0000155720Y0000186780D03*
X-0000156401Y0000202030D03*
X-0000156720Y0000194530D03*
X-0000151677Y0000202030D03*
X-0000166244Y0000232530D03*
X-0000153648Y0000232530D03*
X-0000163095Y0000232530D03*
X-0000159946Y0000232530D03*
X-0000153157Y0000240030D03*
X-0000157094Y0000240030D03*
X-0000161031Y0000240030D03*
X-0000164968Y0000240030D03*
X-0000163095Y0000235679D03*
X-0000166244Y0000235679D03*
X-0000143233Y0000180043D03*
X-0000143233Y0000186805D03*
X-0000135720Y0000186780D03*
X-0000139220Y0000186780D03*
X-0000146753Y0000186830D03*
X-0000145771Y0000195288D03*
X-0000143700Y0000202500D03*
X-0000139220Y0000195030D03*
X-0000142720Y0000195030D03*
X-0000136220Y0000211168D03*
X-0000143720Y0000216030D03*
X-0000136100Y0000203325D03*
X-0000146606Y0000225014D03*
X-0000143530Y0000224921D03*
X-0000143720Y0000219436D03*
X-0000137720Y0000232530D03*
X-0000150499Y0000232530D03*
X-0000141052Y0000232530D03*
X-0000136220Y0000223602D03*
X-0000144220Y0000232530D03*
X-0000149220Y0000240030D03*
X-0000139500Y0000240030D03*
X-0000135220Y0000239985D03*
X-0000132220Y0000236990D03*
X-0000187720Y0000259030D03*
X-0000110223Y0000247399D03*
X-0000098412Y0000235588D03*
X-0000094475Y0000235588D03*
X-0000094475Y0000239525D03*
X-0000094475Y0000243462D03*
X-0000098412Y0000239525D03*
X-0000090538Y0000239525D03*
X-0000094475Y0000247399D03*
X-0000098412Y0000247399D03*
X-0000090538Y0000235588D03*
X-0000086601Y0000235588D03*
X0000095780Y0000354439D03*
X0000093300Y0000314380D03*
X0000091280Y0000258030D03*
X0000091280Y0000262030D03*
X0000088045Y0000124070D03*
X0000090780Y0000114530D03*
X0000094780Y0000114530D03*
X0000076280Y0000354439D03*
X0000082280Y0000354439D03*
X0000072280Y0000354439D03*
X0000073780Y0000278030D03*
X0000073280Y0000266030D03*
X0000082280Y0000262030D03*
X0000086280Y0000262030D03*
X0000077280Y0000262030D03*
X0000084955Y0000124070D03*
X0000077200Y0000126100D03*
X0000081000Y0000126100D03*
X0000081780Y0000114530D03*
X0000085717Y0000114530D03*
X0000081200Y0000122400D03*
X0000071730Y0000322530D03*
X0000060280Y0000322530D03*
X0000057000Y0000322530D03*
X0000069780Y0000278030D03*
X0000065280Y0000278030D03*
X0000068780Y0000266030D03*
X0000063780Y0000266030D03*
X0000063780Y0000262030D03*
X0000059780Y0000262030D03*
X0000059890Y0000266030D03*
X0000063380Y0000125530D03*
X0000056280Y0000119030D03*
X0000065280Y0000115030D03*
X0000060780Y0000114960D03*
X0000041780Y0000332030D03*
X0000041780Y0000327030D03*
X0000046900Y0000322500D03*
X0000055780Y0000278030D03*
X0000052480Y0000278030D03*
X0000044780Y0000122030D03*
X0000034189Y0000354439D03*
X0000039280Y0000354439D03*
X0000032280Y0000335030D03*
X0000032280Y0000342286D03*
X0000038453Y0000305357D03*
X0000038390Y0000301420D03*
X0000034359Y0000305357D03*
X0000034359Y0000289609D03*
X0000034359Y0000293546D03*
X0000038422Y0000285672D03*
X0000034359Y0000297483D03*
X0000038359Y0000289609D03*
X0000034359Y0000285672D03*
X0000038327Y0000297483D03*
X0000038296Y0000293546D03*
X0000034359Y0000281735D03*
X0000038485Y0000281735D03*
X0000039235Y0000278203D03*
X0000037280Y0000187985D03*
X0000037080Y0000183430D03*
X0000035080Y0000185830D03*
X0000032780Y0000119030D03*
X0000019780Y0000354439D03*
X0000019280Y0000335030D03*
X0000019280Y0000343530D03*
X0000019276Y0000119030D03*
X-0000005220Y0000346030D03*
X0000007280Y0000335030D03*
X0000002280Y0000337530D03*
X0000007780Y0000148030D03*
X0000007780Y0000153030D03*
X0000007780Y0000119030D03*
X-0000020220Y0000342530D03*
X-0000020220Y0000332530D03*
X-0000022720Y0000295030D03*
X-0000018220Y0000290380D03*
X-0000019320Y0000295030D03*
X-0000021210Y0000271690D03*
X-0000019672Y0000180470D03*
X-0000016720Y0000155780D03*
X-0000025220Y0000332530D03*
X-0000025220Y0000327530D03*
X-0000026400Y0000306675D03*
X-0000034720Y0000306680D03*
X-0000035220Y0000289130D03*
X-0000039357Y0000267084D03*
X-0000035420Y0000267084D03*
X-0000031483Y0000267084D03*
X-0000031483Y0000263147D03*
X-0000039357Y0000263147D03*
X-0000035420Y0000263147D03*
X-0000039357Y0000259210D03*
X-0000027546Y0000263147D03*
X-0000039357Y0000192281D03*
X-0000039357Y0000188344D03*
X-0000027546Y0000180470D03*
X-0000035420Y0000180470D03*
X-0000031483Y0000180470D03*
X-0000039357Y0000180470D03*
X-0000039357Y0000184407D03*
X-0000035420Y0000184407D03*
X-0000031483Y0000184407D03*
X-0000025220Y0000158030D03*
X-0000033720Y0000157530D03*
X-0000034464Y0000119030D03*
X-0000048800Y0000317030D03*
X-0000053370Y0000278880D03*
X-0000049720Y0000278930D03*
X-0000051168Y0000267084D03*
X-0000043294Y0000267084D03*
X-0000055105Y0000267084D03*
X-0000047231Y0000267084D03*
X-0000055105Y0000251336D03*
X-0000047231Y0000259210D03*
X-0000055105Y0000255273D03*
X-0000051168Y0000251336D03*
X-0000055105Y0000259210D03*
X-0000051168Y0000263147D03*
X-0000043294Y0000263147D03*
X-0000043294Y0000259210D03*
X-0000051168Y0000259210D03*
X-0000043294Y0000255273D03*
X-0000055105Y0000263147D03*
X-0000047231Y0000255273D03*
X-0000047231Y0000263147D03*
X-0000047231Y0000251336D03*
X-0000051168Y0000255273D03*
X-0000043294Y0000251336D03*
X-0000047231Y0000247399D03*
X-0000055105Y0000239525D03*
X-0000055105Y0000247399D03*
X-0000043294Y0000188344D03*
X-0000055105Y0000192281D03*
X-0000051168Y0000196218D03*
X-0000043294Y0000196218D03*
X-0000047231Y0000196218D03*
X-0000051168Y0000188344D03*
X-0000055105Y0000188344D03*
X-0000047231Y0000188344D03*
X-0000047231Y0000192281D03*
X-0000055105Y0000196218D03*
X-0000043294Y0000192281D03*
X-0000051168Y0000192281D03*
X-0000043294Y0000180470D03*
X-0000043294Y0000184407D03*
X-0000051168Y0000184407D03*
X-0000051168Y0000180470D03*
X-0000055105Y0000180470D03*
X-0000047231Y0000184407D03*
X-0000055105Y0000184407D03*
X-0000064600Y0000335135D03*
X-0000064720Y0000343404D03*
X-0000064720Y0000339467D03*
X-0000063283Y0000320730D03*
X-0000063220Y0000316959D03*
X-0000059425Y0000328651D03*
X-0000055488Y0000328651D03*
X-0000067299Y0000328651D03*
X-0000067220Y0000320730D03*
X-0000063299Y0000324714D03*
X-0000067236Y0000324714D03*
X-0000061593Y0000309093D03*
X-0000056863Y0000306680D03*
X-0000063830Y0000299409D03*
X-0000063830Y0000302909D03*
X-0000069420Y0000300155D03*
X-0000057500Y0000292800D03*
X-0000058141Y0000297601D03*
X-0000059042Y0000267084D03*
X-0000066916Y0000267084D03*
X-0000070853Y0000267084D03*
X-0000059042Y0000263147D03*
X-0000066916Y0000263147D03*
X-0000066916Y0000259210D03*
X-0000059042Y0000255273D03*
X-0000059042Y0000259210D03*
X-0000059042Y0000251336D03*
X-0000070853Y0000259210D03*
X-0000066916Y0000255273D03*
X-0000070853Y0000255273D03*
X-0000070853Y0000263147D03*
X-0000066916Y0000251336D03*
X-0000066916Y0000239530D03*
X-0000070853Y0000247399D03*
X-0000070853Y0000243462D03*
X-0000059042Y0000239525D03*
X-0000070853Y0000239525D03*
X-0000059042Y0000192281D03*
X-0000070853Y0000196218D03*
X-0000066916Y0000192281D03*
X-0000066916Y0000188344D03*
X-0000066916Y0000196218D03*
X-0000070853Y0000188344D03*
X-0000059042Y0000196218D03*
X-0000070853Y0000192281D03*
X-0000059042Y0000188344D03*
X-0000059042Y0000180470D03*
X-0000070853Y0000180470D03*
X-0000066916Y0000180470D03*
X-0000059042Y0000184407D03*
X-0000066916Y0000184407D03*
X-0000070853Y0000184407D03*
X-0000070720Y0000119030D03*
X-0000078600Y0000346000D03*
X-0000073720Y0000346030D03*
X-0000081220Y0000339530D03*
X-0000073220Y0000335530D03*
X-0000081220Y0000343530D03*
X-0000083220Y0000304530D03*
X-0000086893Y0000300466D03*
X-0000086893Y0000304403D03*
X-0000082664Y0000267084D03*
X-0000074790Y0000267084D03*
X-0000082664Y0000270530D03*
X-0000086720Y0000270530D03*
X-0000086601Y0000267084D03*
X-0000082664Y0000255273D03*
X-0000078727Y0000251336D03*
X-0000086601Y0000255273D03*
X-0000086601Y0000263147D03*
X-0000074790Y0000263147D03*
X-0000082664Y0000251336D03*
X-0000078727Y0000259210D03*
X-0000082664Y0000259210D03*
X-0000082664Y0000263147D03*
X-0000074790Y0000255273D03*
X-0000074790Y0000251336D03*
X-0000086601Y0000259210D03*
X-0000078727Y0000255273D03*
X-0000078727Y0000243462D03*
X-0000082664Y0000247399D03*
X-0000074790Y0000243462D03*
X-0000078727Y0000247399D03*
X-0000074790Y0000196218D03*
X-0000078727Y0000192281D03*
X-0000074790Y0000192281D03*
X-0000078727Y0000196218D03*
X-0000078727Y0000188344D03*
X-0000082664Y0000196218D03*
X-0000074790Y0000188344D03*
X-0000086601Y0000196218D03*
X-0000086601Y0000192281D03*
X-0000082664Y0000188344D03*
X-0000082664Y0000192281D03*
X-0000086601Y0000188344D03*
X-0000074790Y0000184407D03*
X-0000078727Y0000184407D03*
X-0000078727Y0000180470D03*
X-0000074790Y0000180470D03*
X-0000082664Y0000180470D03*
X-0000086601Y0000180470D03*
X-0000082664Y0000184407D03*
X-0000086601Y0000184407D03*
X-0000082620Y0000115830D03*
X-0000102641Y0000304525D03*
X-0000098704Y0000304525D03*
X-0000094767Y0000304525D03*
X-0000090830Y0000304525D03*
X-0000090830Y0000300466D03*
X-0000094767Y0000300466D03*
X-0000098704Y0000300466D03*
X-0000102641Y0000300466D03*
X-0000090720Y0000296530D03*
X-0000102813Y0000291937D03*
X-0000102349Y0000271021D03*
X-0000098412Y0000271021D03*
X-0000094475Y0000267084D03*
X-0000098412Y0000267084D03*
X-0000090538Y0000259210D03*
X-0000098412Y0000259210D03*
X-0000090538Y0000263147D03*
X-0000094475Y0000259210D03*
X-0000090538Y0000196218D03*
X-0000094475Y0000196218D03*
X-0000094475Y0000188344D03*
X-0000098412Y0000188344D03*
X-0000102349Y0000188344D03*
X-0000094475Y0000192281D03*
X-0000098412Y0000192281D03*
X-0000090538Y0000192281D03*
X-0000102349Y0000192281D03*
X-0000098412Y0000196218D03*
X-0000090538Y0000188344D03*
X-0000090538Y0000184407D03*
X-0000090538Y0000180470D03*
X-0000102349Y0000184407D03*
X-0000098412Y0000180470D03*
X-0000094475Y0000184407D03*
X-0000094475Y0000180470D03*
X-0000098412Y0000184407D03*
X-0000087720Y0000146000D03*
X-0000106578Y0000300466D03*
X-0000106578Y0000296529D03*
X-0000106220Y0000292030D03*
X-0000122500Y0000219000D03*
X-0000106286Y0000200155D03*
X-0000110223Y0000196218D03*
X-0000114160Y0000196218D03*
X-0000106286Y0000211966D03*
X-0000114160Y0000208530D03*
X-0000110223Y0000204092D03*
X-0000106286Y0000215903D03*
X-0000106286Y0000204092D03*
X-0000106286Y0000219840D03*
X-0000115000Y0000219000D03*
X-0000094475Y0000208029D03*
X-0000090538Y0000208029D03*
X-0000094475Y0000211966D03*
X-0000090538Y0000211966D03*
X-0000098412Y0000211966D03*
X-0000102349Y0000204092D03*
X-0000094475Y0000215903D03*
X-0000102349Y0000215903D03*
X-0000098412Y0000215903D03*
X-0000098412Y0000208029D03*
X-0000090538Y0000215903D03*
X-0000098412Y0000219840D03*
X-0000094475Y0000219840D03*
X-0000102349Y0000219840D03*
X-0000078727Y0000208029D03*
X-0000082664Y0000215903D03*
X-0000082664Y0000211966D03*
X-0000086601Y0000208029D03*
X-0000074790Y0000215903D03*
X-0000078727Y0000215903D03*
X-0000078727Y0000211966D03*
X-0000082664Y0000208029D03*
X-0000074790Y0000211966D03*
X-0000074790Y0000208029D03*
X-0000074790Y0000227714D03*
X-0000074790Y0000219840D03*
X-0000078720Y0000219840D03*
X-0000078727Y0000227714D03*
X-0000059042Y0000211966D03*
X-0000070853Y0000208029D03*
X-0000070853Y0000215903D03*
X-0000066916Y0000211966D03*
X-0000066916Y0000208029D03*
X-0000059042Y0000208029D03*
X-0000070853Y0000211966D03*
X-0000070853Y0000227714D03*
X-0000066916Y0000227714D03*
X-0000066916Y0000219840D03*
X-0000059042Y0000219840D03*
X-0000059042Y0000227714D03*
X-0000055105Y0000215903D03*
X-0000043294Y0000208029D03*
X-0000043294Y0000211966D03*
X-0000043294Y0000215903D03*
X-0000047231Y0000211966D03*
X-0000047231Y0000208029D03*
X-0000043294Y0000231651D03*
X-0000043294Y0000227714D03*
X-0000047231Y0000219840D03*
X-0000047231Y0000231651D03*
X-0000047231Y0000227714D03*
X-0000043294Y0000219840D03*
X-0000047231Y0000235588D03*
X-0000043294Y0000235588D03*
X-0000023609Y0000196218D03*
X-0000031483Y0000196218D03*
X-0000023609Y0000192281D03*
X-0000027546Y0000192281D03*
X-0000027546Y0000196218D03*
X-0000031483Y0000200155D03*
X-0000027546Y0000200155D03*
X-0000035420Y0000200155D03*
X-0000023609Y0000211966D03*
X-0000039357Y0000204092D03*
X-0000039357Y0000208029D03*
X-0000039357Y0000215903D03*
X-0000027546Y0000215903D03*
X-0000039357Y0000211966D03*
X-0000031483Y0000208029D03*
X-0000023609Y0000208029D03*
X-0000035420Y0000215903D03*
X-0000035420Y0000211966D03*
X-0000035420Y0000208029D03*
X-0000027546Y0000211966D03*
X-0000031483Y0000211966D03*
X-0000031483Y0000204092D03*
X-0000027546Y0000208029D03*
X-0000035420Y0000204092D03*
X-0000031483Y0000215903D03*
X-0000039357Y0000231651D03*
X-0000039357Y0000219840D03*
X-0000031483Y0000231651D03*
X-0000035420Y0000227714D03*
X-0000031483Y0000227714D03*
X-0000027546Y0000227714D03*
X-0000035420Y0000219840D03*
X-0000035420Y0000231651D03*
X-0000023609Y0000227714D03*
X-0000039357Y0000227714D03*
X-0000031483Y0000219840D03*
X-0000035420Y0000247399D03*
X-0000027546Y0000247399D03*
X-0000023609Y0000247399D03*
X-0000039357Y0000235588D03*
X-0000035420Y0000235588D03*
X-0000039357Y0000239525D03*
X-0000027546Y0000235588D03*
X-0000035420Y0000239525D03*
X-0000031483Y0000239525D03*
X-0000031483Y0000235588D03*
X-0000023609Y0000243462D03*
X-0000035420Y0000243462D03*
X-0000031483Y0000247399D03*
X-0000031483Y0000243462D03*
X-0000027546Y0000243462D03*
X-0000031483Y0000251337D03*
X-0000027546Y0000251336D03*
X-0000023609Y0000251336D03*
X-0000035420Y0000251336D03*
X-0000015735Y0000196218D03*
X-0000019672Y0000192281D03*
X-0000019672Y0000196218D03*
X-0000019672Y0000208029D03*
X-0000015735Y0000211966D03*
X-0000015735Y0000208029D03*
X-0000019672Y0000211966D03*
X-0000019672Y0000231651D03*
X-0000015735Y0000219840D03*
X-0000019672Y0000227714D03*
X-0000019672Y0000251336D03*
X-0000015100Y0000255273D03*
X-0000019672Y0000255273D03*
X0000002280Y0000220530D03*
X-0000000939Y0000231680D03*
X-0000000939Y0000228180D03*
X-0000000770Y0000246530D03*
X-0000007220Y0000235530D03*
X-0000004270Y0000246500D03*
X-0000007220Y0000240530D03*
X0000002280Y0000237530D03*
X-0000007220Y0000250530D03*
X-0000007220Y0000255375D03*
X0000021853Y0000216030D03*
X0000017905Y0000215909D03*
X0000017905Y0000212760D03*
X0000014756Y0000215909D03*
X0000014756Y0000212760D03*
X0000011607Y0000209611D03*
X0000021054Y0000209611D03*
X0000011607Y0000212760D03*
X0000008280Y0000219030D03*
X0000021056Y0000225358D03*
X0000017905Y0000225358D03*
X0000017906Y0000231657D03*
X0000017907Y0000219061D03*
X0000011608Y0000228508D03*
X0000014756Y0000225358D03*
X0000017906Y0000222207D03*
X0000014756Y0000228507D03*
X0000014757Y0000222209D03*
X0000011608Y0000222209D03*
X0000021056Y0000219061D03*
X0000017906Y0000237955D03*
X0000011607Y0000247405D03*
X0000017906Y0000234806D03*
X0000011607Y0000260001D03*
X0000011607Y0000253703D03*
X0000024957Y0000216030D03*
X0000036803Y0000209614D03*
X0000030505Y0000212763D03*
X0000033654Y0000212763D03*
X0000039952Y0000212763D03*
X0000030505Y0000215912D03*
X0000033654Y0000209614D03*
X0000027280Y0000219030D03*
X0000027354Y0000225359D03*
X0000033654Y0000225359D03*
X0000036803Y0000225359D03*
X0000036803Y0000222210D03*
X0000033654Y0000228508D03*
X0000039952Y0000228508D03*
X0000036803Y0000228508D03*
X0000036803Y0000231657D03*
X0000027354Y0000222210D03*
X0000030503Y0000219061D03*
X0000030503Y0000231657D03*
X0000030503Y0000225359D03*
X0000030503Y0000222210D03*
X0000039952Y0000219059D03*
X0000036803Y0000234806D03*
X0000030505Y0000234806D03*
X0000033654Y0000234806D03*
X0000024205Y0000247405D03*
X0000027354Y0000244256D03*
X0000024205Y0000241107D03*
X0000027354Y0000250554D03*
X0000024205Y0000250554D03*
X0000024205Y0000244256D03*
X0000024205Y0000237958D03*
X0000027354Y0000241107D03*
X0000027354Y0000237958D03*
X0000027354Y0000247405D03*
X0000034750Y0000265500D03*
X0000036803Y0000253703D03*
X0000039952Y0000260001D03*
X0000027354Y0000266299D03*
X0000024205Y0000263150D03*
X0000024205Y0000266299D03*
X0000027354Y0000263150D03*
X0000027354Y0000253703D03*
X0000024205Y0000253703D03*
X0000027354Y0000256852D03*
X0000024205Y0000256852D03*
X0000027354Y0000260001D03*
X0000024205Y0000260001D03*
X0000027354Y0000269448D03*
X0000024205Y0000269448D03*
X0000041780Y0000245530D03*
G54D46*
X0000162371Y0000165030D03*
G54D41*
X-0000164720Y0000299030D03*
X-0000164720Y0000309030D03*
X-0000164720Y0000319030D03*
X-0000164720Y0000329030D03*
X-0000164720Y0000339030D03*
X-0000164720Y0000349030D03*
X-0000164720Y0000359030D03*
X-0000164720Y0000379030D03*
X-0000164720Y0000369030D03*
X-0000164720Y0000389030D03*
X-0000154720Y0000299030D03*
G54D32*
X-0000224612Y0000173114D03*
X-0000145636Y0000173114D03*
G54D42*
X0000163280Y0000220030D03*
X0000163280Y0000210030D03*
X0000163280Y0000200030D03*
G54D47*
X0000174969Y0000183534D03*
G54D38*
X-0000206720Y0000259530D03*
X-0000206720Y0000279530D03*
X-0000206720Y0000296530D03*
X-0000206720Y0000316530D03*
X-0000206720Y0000334280D03*
X-0000206720Y0000354280D03*
G54D37*
X-0000220220Y0000382530D03*
X0000174280Y0000118530D03*
X0000122280Y0000382530D03*
X-0000105720Y0000118530D03*
%LPD*%
G75*
G54D10*
X-0000226720Y0000259530D03*
X-0000226720Y0000279530D03*
X-0000226720Y0000296530D03*
X-0000226720Y0000316530D03*
X-0000226720Y0000334280D03*
X-0000226720Y0000354280D03*
X-0000206720Y0000259530D03*
X-0000206720Y0000279530D03*
X-0000206720Y0000296530D03*
X-0000206720Y0000316530D03*
X-0000206720Y0000334280D03*
X-0000206720Y0000354280D03*
G54D11*
X-0000220220Y0000382530D03*
X-0000105720Y0000118530D03*
X0000122280Y0000382530D03*
X0000174280Y0000118530D03*
G54D20*
X-0000181634Y0000374530D03*
X-0000195807Y0000374530D03*
X-0000188720Y0000381617D03*
G54D12*
X-0000221220Y0000087530D03*
X-0000221220Y0000406530D03*
X0000179280Y0000087530D03*
X0000179280Y0000406530D03*
G54D21*
X-0000164720Y0000299030D03*
X-0000164720Y0000309030D03*
X-0000164720Y0000319030D03*
X-0000164720Y0000329030D03*
X-0000164720Y0000339030D03*
X-0000164720Y0000349030D03*
X-0000164720Y0000359030D03*
X-0000164720Y0000379030D03*
X-0000164720Y0000369030D03*
X-0000164720Y0000389030D03*
X-0000154720Y0000299030D03*
X-0000154720Y0000309030D03*
X-0000154720Y0000329030D03*
X-0000154720Y0000319030D03*
X-0000154720Y0000339030D03*
X-0000154720Y0000359030D03*
X-0000154720Y0000349030D03*
X-0000154720Y0000369030D03*
X-0000154720Y0000379030D03*
X-0000154720Y0000389030D03*
G54D30*
X0000174969Y0000183534D03*
G54D31*
X0000187280Y0000200030D03*
G54D13*
X-0000224612Y0000106146D03*
X-0000224612Y0000173114D03*
X-0000161620Y0000106146D03*
X-0000145636Y0000173114D03*
G54D22*
X-0000126590Y0000371530D03*
X-0000126590Y0000389837D03*
X-0000097850Y0000371530D03*
X-0000097850Y0000389837D03*
X-0000084590Y0000371530D03*
X-0000084590Y0000389837D03*
X-0000055850Y0000371530D03*
X-0000055850Y0000389837D03*
G54D14*
X-0000227720Y0000180030D03*
X-0000217320Y0000180030D03*
X-0000217320Y0000186780D03*
X-0000217220Y0000175530D03*
X-0000216082Y0000202330D03*
X-0000224320Y0000189830D03*
X-0000220320Y0000189930D03*
X-0000223820Y0000200932D03*
X-0000217320Y0000194530D03*
X-0000223820Y0000197783D03*
X-0000227720Y0000190030D03*
X-0000223820Y0000204081D03*
X-0000226969Y0000216681D03*
X-0000223820Y0000216681D03*
X-0000223820Y0000213532D03*
X-0000226969Y0000213532D03*
X-0000226969Y0000210383D03*
X-0000223720Y0000207530D03*
X-0000216220Y0000208530D03*
X-0000216220Y0000206030D03*
X-0000216052Y0000217073D03*
X-0000223820Y0000211168D03*
X-0000223820Y0000222979D03*
X-0000218993Y0000232530D03*
X-0000224818Y0000226128D03*
X-0000226969Y0000219830D03*
X-0000224818Y0000229277D03*
X-0000223820Y0000219830D03*
X-0000215844Y0000232530D03*
X-0000222320Y0000232530D03*
X-0000216052Y0000221798D03*
X-0000215844Y0000235679D03*
X-0000222420Y0000235830D03*
X-0000198320Y0000180030D03*
X-0000205220Y0000180030D03*
X-0000210320Y0000186780D03*
X-0000213820Y0000186780D03*
X-0000206820Y0000186730D03*
X-0000198320Y0000186780D03*
X-0000198220Y0000175530D03*
X-0000210726Y0000202030D03*
X-0000201277Y0000202030D03*
X-0000206001Y0000202030D03*
X-0000206844Y0000194525D03*
X-0000213320Y0000202030D03*
X-0000208600Y0000224800D03*
X-0000200099Y0000232530D03*
X-0000212695Y0000232530D03*
X-0000203248Y0000232530D03*
X-0000209546Y0000232530D03*
X-0000206397Y0000232530D03*
X-0000212695Y0000235679D03*
X-0000185220Y0000180030D03*
X-0000184720Y0000175030D03*
X-0000187320Y0000186780D03*
X-0000190820Y0000186780D03*
X-0000194820Y0000186780D03*
X-0000192420Y0000175030D03*
X-0000188220Y0000175030D03*
X-0000193320Y0000202900D03*
X-0000195371Y0000194530D03*
X-0000192222Y0000194530D03*
X-0000189073Y0000194530D03*
X-0000185820Y0000211168D03*
X-0000185820Y0000215892D03*
X-0000193177Y0000209987D03*
X-0000193220Y0000216030D03*
X-0000185820Y0000218254D03*
X-0000185820Y0000204081D03*
X-0000193220Y0000213030D03*
X-0000185820Y0000208806D03*
X-0000182671Y0000208806D03*
X-0000193320Y0000225030D03*
X-0000196552Y0000224780D03*
X-0000193320Y0000219436D03*
X-0000183000Y0000223155D03*
X-0000190652Y0000232530D03*
X-0000182720Y0000219530D03*
X-0000187320Y0000232530D03*
X-0000183720Y0000232530D03*
X-0000185820Y0000220617D03*
X-0000193720Y0000232530D03*
X-0000191220Y0000259030D03*
X-0000187720Y0000259030D03*
X-0000194220Y0000259030D03*
X-0000174220Y0000180030D03*
X-0000166720Y0000175530D03*
X-0000166748Y0000186730D03*
X-0000177720Y0000175030D03*
X-0000181220Y0000175030D03*
X-0000166722Y0000180032D03*
X-0000173220Y0000175030D03*
X-0000177820Y0000180030D03*
X-0000166720Y0000202530D03*
X-0000167720Y0000194530D03*
X-0000176350Y0000189530D03*
X-0000174220Y0000200932D03*
X-0000172165Y0000189475D03*
X-0000182020Y0000189530D03*
X-0000174220Y0000204081D03*
X-0000166720Y0000208530D03*
X-0000166720Y0000206030D03*
X-0000174220Y0000207530D03*
X-0000174220Y0000211168D03*
X-0000166452Y0000217073D03*
X-0000174220Y0000213532D03*
X-0000177369Y0000216681D03*
X-0000177369Y0000213532D03*
X-0000177220Y0000211030D03*
X-0000174220Y0000216681D03*
X-0000174220Y0000222979D03*
X-0000169393Y0000232530D03*
X-0000172720Y0000232530D03*
X-0000166500Y0000222330D03*
X-0000177369Y0000229277D03*
X-0000174220Y0000219830D03*
X-0000174220Y0000229277D03*
X-0000177369Y0000219830D03*
X-0000177026Y0000240404D03*
X-0000155720Y0000180030D03*
X-0000163220Y0000186780D03*
X-0000159223Y0000186780D03*
X-0000155720Y0000186780D03*
X-0000156401Y0000202030D03*
X-0000156720Y0000194530D03*
X-0000161126Y0000202030D03*
X-0000151677Y0000202030D03*
X-0000163720Y0000202030D03*
X-0000158720Y0000225210D03*
X-0000156797Y0000232530D03*
X-0000166244Y0000232530D03*
X-0000153648Y0000232530D03*
X-0000163095Y0000232530D03*
X-0000159946Y0000232530D03*
X-0000153157Y0000240030D03*
X-0000157094Y0000240030D03*
X-0000161031Y0000240030D03*
X-0000164968Y0000240030D03*
X-0000163095Y0000235679D03*
X-0000166244Y0000235679D03*
X-0000143233Y0000180043D03*
X-0000143233Y0000186805D03*
X-0000135720Y0000186780D03*
X-0000139220Y0000186780D03*
X-0000146753Y0000186830D03*
X-0000145771Y0000195288D03*
X-0000143700Y0000202500D03*
X-0000139220Y0000195030D03*
X-0000142720Y0000195030D03*
X-0000136220Y0000211168D03*
X-0000136220Y0000215892D03*
X-0000143720Y0000216030D03*
X-0000136100Y0000203325D03*
X-0000136220Y0000207530D03*
X-0000143720Y0000213030D03*
X-0000143720Y0000209030D03*
X-0000136220Y0000218254D03*
X-0000143720Y0000206030D03*
X-0000146606Y0000225014D03*
X-0000143530Y0000224921D03*
X-0000143720Y0000219436D03*
X-0000137720Y0000232530D03*
X-0000136220Y0000220617D03*
X-0000136420Y0000229530D03*
X-0000150499Y0000232530D03*
X-0000141052Y0000232530D03*
X-0000136220Y0000223602D03*
X-0000144220Y0000232530D03*
X-0000149220Y0000240030D03*
X-0000139500Y0000240030D03*
X-0000135220Y0000239985D03*
X-0000120220Y0000212030D03*
X-0000122500Y0000219000D03*
X-0000132220Y0000236990D03*
X-0000106286Y0000184407D03*
X-0000106286Y0000180470D03*
X-0000106286Y0000188344D03*
X-0000106286Y0000200155D03*
X-0000106286Y0000192281D03*
X-0000109700Y0000192200D03*
X-0000110223Y0000196218D03*
X-0000114160Y0000196218D03*
X-0000106286Y0000211966D03*
X-0000114160Y0000208530D03*
X-0000110223Y0000204092D03*
X-0000106286Y0000215903D03*
X-0000106286Y0000204092D03*
X-0000117220Y0000211966D03*
X-0000109100Y0000227800D03*
X-0000106286Y0000227714D03*
X-0000113720Y0000227485D03*
X-0000106286Y0000219840D03*
X-0000115000Y0000219000D03*
X-0000110223Y0000247399D03*
X-0000110223Y0000243462D03*
X-0000106286Y0000263147D03*
X-0000106286Y0000267084D03*
X-0000106220Y0000292030D03*
X-0000106578Y0000296529D03*
X-0000106578Y0000300466D03*
X-0000106090Y0000304550D03*
X-0000087720Y0000146000D03*
X-0000090538Y0000180470D03*
X-0000102349Y0000184407D03*
X-0000098412Y0000180470D03*
X-0000090538Y0000184407D03*
X-0000094475Y0000184407D03*
X-0000094475Y0000180470D03*
X-0000098412Y0000184407D03*
X-0000102349Y0000180470D03*
X-0000094475Y0000192281D03*
X-0000098412Y0000192281D03*
X-0000090538Y0000192281D03*
X-0000094475Y0000196218D03*
X-0000090538Y0000196218D03*
X-0000094475Y0000188344D03*
X-0000098412Y0000188344D03*
X-0000102349Y0000188344D03*
X-0000102349Y0000192281D03*
X-0000102349Y0000196218D03*
X-0000098412Y0000200155D03*
X-0000098412Y0000196218D03*
X-0000094475Y0000200155D03*
X-0000090538Y0000200155D03*
X-0000090538Y0000188344D03*
X-0000094475Y0000208029D03*
X-0000090538Y0000208029D03*
X-0000094475Y0000211966D03*
X-0000090538Y0000211966D03*
X-0000098412Y0000211966D03*
X-0000090538Y0000204092D03*
X-0000102349Y0000204092D03*
X-0000098412Y0000204092D03*
X-0000094475Y0000215903D03*
X-0000094475Y0000204092D03*
X-0000102349Y0000211966D03*
X-0000102349Y0000215903D03*
X-0000098412Y0000215903D03*
X-0000098412Y0000208029D03*
X-0000090538Y0000215903D03*
X-0000098412Y0000219840D03*
X-0000094475Y0000219840D03*
X-0000090538Y0000231651D03*
X-0000094475Y0000231651D03*
X-0000090538Y0000227714D03*
X-0000094475Y0000227714D03*
X-0000102349Y0000227714D03*
X-0000102349Y0000219840D03*
X-0000090538Y0000243462D03*
X-0000090538Y0000235588D03*
X-0000098412Y0000247399D03*
X-0000094475Y0000247399D03*
X-0000090538Y0000239525D03*
X-0000098412Y0000239525D03*
X-0000094475Y0000243462D03*
X-0000094475Y0000239525D03*
X-0000094475Y0000235588D03*
X-0000090538Y0000247399D03*
X-0000098412Y0000235588D03*
X-0000098412Y0000259210D03*
X-0000090538Y0000259210D03*
X-0000102349Y0000259210D03*
X-0000094475Y0000251336D03*
X-0000098412Y0000251336D03*
X-0000102349Y0000255273D03*
X-0000090538Y0000255273D03*
X-0000090538Y0000263147D03*
X-0000094475Y0000259210D03*
X-0000102349Y0000271021D03*
X-0000098412Y0000271021D03*
X-0000094475Y0000267084D03*
X-0000098412Y0000267084D03*
X-0000090720Y0000296530D03*
X-0000102813Y0000291937D03*
X-0000094767Y0000300466D03*
X-0000090830Y0000300466D03*
X-0000094767Y0000304525D03*
X-0000098704Y0000304525D03*
X-0000098704Y0000300466D03*
X-0000090830Y0000304525D03*
X-0000102641Y0000300466D03*
X-0000102641Y0000304525D03*
X-0000071535Y0000113841D03*
X-0000082620Y0000115830D03*
X-0000073735Y0000113841D03*
X-0000078587Y0000122429D03*
X-0000078587Y0000124629D03*
X-0000075488Y0000136130D03*
X-0000082664Y0000184407D03*
X-0000086601Y0000184407D03*
X-0000074790Y0000184407D03*
X-0000078727Y0000184407D03*
X-0000078727Y0000180470D03*
X-0000082664Y0000180470D03*
X-0000086601Y0000180470D03*
X-0000074790Y0000180470D03*
X-0000086601Y0000200155D03*
X-0000078727Y0000192281D03*
X-0000074790Y0000192281D03*
X-0000082664Y0000200155D03*
X-0000078727Y0000196218D03*
X-0000078727Y0000188344D03*
X-0000074790Y0000196218D03*
X-0000074790Y0000200155D03*
X-0000078727Y0000200155D03*
X-0000082664Y0000196218D03*
X-0000074790Y0000188344D03*
X-0000086601Y0000196218D03*
X-0000086601Y0000192281D03*
X-0000082664Y0000188344D03*
X-0000082664Y0000192281D03*
X-0000086601Y0000188344D03*
X-0000078727Y0000208029D03*
X-0000082664Y0000204092D03*
X-0000082664Y0000215903D03*
X-0000082664Y0000211966D03*
X-0000086601Y0000208029D03*
X-0000074790Y0000204092D03*
X-0000074790Y0000215903D03*
X-0000078727Y0000215903D03*
X-0000078727Y0000204092D03*
X-0000086601Y0000211966D03*
X-0000086601Y0000204092D03*
X-0000078727Y0000211966D03*
X-0000082664Y0000208029D03*
X-0000074790Y0000211966D03*
X-0000074790Y0000208029D03*
X-0000074790Y0000227714D03*
X-0000078727Y0000231651D03*
X-0000086601Y0000231651D03*
X-0000082664Y0000219840D03*
X-0000082664Y0000231651D03*
X-0000074790Y0000231651D03*
X-0000074790Y0000219840D03*
X-0000078720Y0000219840D03*
X-0000078727Y0000227714D03*
X-0000078727Y0000239525D03*
X-0000078727Y0000243462D03*
X-0000082664Y0000235588D03*
X-0000078727Y0000235588D03*
X-0000074790Y0000235588D03*
X-0000082664Y0000247399D03*
X-0000086601Y0000247399D03*
X-0000074790Y0000243462D03*
X-0000082664Y0000243462D03*
X-0000086601Y0000235588D03*
X-0000074790Y0000239525D03*
X-0000074790Y0000247399D03*
X-0000078727Y0000247399D03*
X-0000086601Y0000239525D03*
X-0000082664Y0000255273D03*
X-0000086601Y0000259210D03*
X-0000086601Y0000263147D03*
X-0000074790Y0000263147D03*
X-0000082664Y0000251336D03*
X-0000078727Y0000259210D03*
X-0000082664Y0000259210D03*
X-0000082664Y0000263147D03*
X-0000074790Y0000255273D03*
X-0000074790Y0000251336D03*
X-0000078727Y0000251336D03*
X-0000086601Y0000255273D03*
X-0000078727Y0000255273D03*
X-0000082664Y0000267084D03*
X-0000074790Y0000267084D03*
X-0000086725Y0000276280D03*
X-0000082664Y0000270530D03*
X-0000086720Y0000270530D03*
X-0000086601Y0000267084D03*
X-0000086631Y0000273919D03*
X-0000072900Y0000284800D03*
X-0000071600Y0000292530D03*
X-0000086893Y0000300466D03*
X-0000083220Y0000304530D03*
X-0000086893Y0000304403D03*
X-0000073220Y0000335530D03*
X-0000081220Y0000343530D03*
X-0000081220Y0000339530D03*
X-0000077188Y0000337089D03*
X-0000073720Y0000346030D03*
X-0000078600Y0000346000D03*
X-0000063677Y0000101530D03*
X-0000057771Y0000101530D03*
X-0000069582Y0000101530D03*
X-0000066720Y0000121330D03*
X-0000065530Y0000116688D03*
X-0000067730Y0000116688D03*
X-0000058720Y0000116730D03*
X-0000055669Y0000113779D03*
X-0000060920Y0000116730D03*
X-0000059464Y0000119030D03*
X-0000070720Y0000119030D03*
X-0000059625Y0000124272D03*
X-0000061825Y0000124272D03*
X-0000069220Y0000124530D03*
X-0000057771Y0000136130D03*
X-0000069582Y0000136130D03*
X-0000063677Y0000136130D03*
X-0000066720Y0000123530D03*
X-0000059042Y0000184407D03*
X-0000066916Y0000184407D03*
X-0000070853Y0000184407D03*
X-0000070853Y0000180470D03*
X-0000059042Y0000180470D03*
X-0000066916Y0000180470D03*
X-0000066916Y0000196218D03*
X-0000070853Y0000188344D03*
X-0000059042Y0000196218D03*
X-0000070853Y0000192281D03*
X-0000070853Y0000196218D03*
X-0000066916Y0000192281D03*
X-0000059042Y0000192281D03*
X-0000066916Y0000188344D03*
X-0000059042Y0000200155D03*
X-0000066916Y0000200155D03*
X-0000059042Y0000188344D03*
X-0000070853Y0000200155D03*
X-0000059042Y0000211966D03*
X-0000070853Y0000208029D03*
X-0000070853Y0000215903D03*
X-0000059042Y0000204092D03*
X-0000070853Y0000204092D03*
X-0000066916Y0000204092D03*
X-0000066916Y0000215903D03*
X-0000059042Y0000215903D03*
X-0000066916Y0000211966D03*
X-0000066916Y0000208029D03*
X-0000059042Y0000208029D03*
X-0000070853Y0000211966D03*
X-0000070853Y0000227714D03*
X-0000066916Y0000227714D03*
X-0000066916Y0000219840D03*
X-0000059042Y0000219840D03*
X-0000066916Y0000231651D03*
X-0000059042Y0000227714D03*
X-0000070853Y0000219840D03*
X-0000070853Y0000231651D03*
X-0000059042Y0000231651D03*
X-0000059042Y0000235588D03*
X-0000066916Y0000235588D03*
X-0000066916Y0000239530D03*
X-0000070853Y0000235588D03*
X-0000070853Y0000247399D03*
X-0000070853Y0000243462D03*
X-0000059042Y0000243462D03*
X-0000059042Y0000247399D03*
X-0000066916Y0000247399D03*
X-0000066916Y0000243462D03*
X-0000059042Y0000239525D03*
X-0000070853Y0000239525D03*
X-0000059042Y0000263147D03*
X-0000066916Y0000263147D03*
X-0000066916Y0000259210D03*
X-0000059042Y0000255273D03*
X-0000059042Y0000259210D03*
X-0000059042Y0000251336D03*
X-0000070853Y0000259210D03*
X-0000066916Y0000255273D03*
X-0000070853Y0000255273D03*
X-0000070853Y0000263147D03*
X-0000066916Y0000251336D03*
X-0000059042Y0000267084D03*
X-0000066916Y0000267084D03*
X-0000070853Y0000267084D03*
X-0000070000Y0000285300D03*
X-0000057500Y0000292800D03*
X-0000068220Y0000287030D03*
X-0000068220Y0000290030D03*
X-0000058141Y0000297601D03*
X-0000069420Y0000300155D03*
X-0000069420Y0000303255D03*
X-0000063830Y0000299409D03*
X-0000063830Y0000302909D03*
X-0000056863Y0000306680D03*
X-0000061593Y0000309093D03*
X-0000055488Y0000328651D03*
X-0000059425Y0000328651D03*
X-0000067220Y0000320730D03*
X-0000063220Y0000316959D03*
X-0000067236Y0000324714D03*
X-0000067299Y0000328651D03*
X-0000063299Y0000324714D03*
X-0000063283Y0000320730D03*
X-0000064720Y0000343404D03*
X-0000064720Y0000339467D03*
X-0000064600Y0000335135D03*
X-0000040055Y0000101530D03*
X-0000051866Y0000101530D03*
X-0000045960Y0000101530D03*
X-0000051911Y0000121330D03*
X-0000042320Y0000116730D03*
X-0000051213Y0000115341D03*
X-0000049013Y0000115341D03*
X-0000044520Y0000116730D03*
X-0000053520Y0000113830D03*
X-0000044107Y0000137643D03*
X-0000051911Y0000123530D03*
X-0000041907Y0000137643D03*
X-0000051866Y0000136130D03*
X-0000046720Y0000136530D03*
X-0000047120Y0000140230D03*
X-0000047120Y0000142430D03*
X-0000042412Y0000156088D03*
X-0000042412Y0000158680D03*
X-0000051168Y0000184407D03*
X-0000043294Y0000180470D03*
X-0000051168Y0000180470D03*
X-0000055105Y0000180470D03*
X-0000047231Y0000184407D03*
X-0000043294Y0000184407D03*
X-0000055105Y0000184407D03*
X-0000047231Y0000200155D03*
X-0000051168Y0000196218D03*
X-0000043294Y0000196218D03*
X-0000047231Y0000196218D03*
X-0000051168Y0000188344D03*
X-0000055105Y0000188344D03*
X-0000043294Y0000188344D03*
X-0000055105Y0000192281D03*
X-0000043294Y0000200155D03*
X-0000051168Y0000200155D03*
X-0000047231Y0000188344D03*
X-0000055105Y0000200155D03*
X-0000047231Y0000192281D03*
X-0000055105Y0000196218D03*
X-0000043294Y0000192281D03*
X-0000051168Y0000192281D03*
X-0000047231Y0000204092D03*
X-0000047231Y0000208029D03*
X-0000051168Y0000208029D03*
X-0000051168Y0000211966D03*
X-0000055105Y0000211966D03*
X-0000047231Y0000211966D03*
X-0000055105Y0000208029D03*
X-0000055105Y0000204092D03*
X-0000043294Y0000204092D03*
X-0000051168Y0000204092D03*
X-0000055105Y0000215903D03*
X-0000051168Y0000215903D03*
X-0000043294Y0000215903D03*
X-0000043294Y0000211966D03*
X-0000043294Y0000208029D03*
X-0000055105Y0000231651D03*
X-0000055105Y0000219840D03*
X-0000043294Y0000219840D03*
X-0000055105Y0000227714D03*
X-0000047231Y0000227714D03*
X-0000051168Y0000219840D03*
X-0000051168Y0000231651D03*
X-0000047231Y0000231651D03*
X-0000051168Y0000227714D03*
X-0000047231Y0000219840D03*
X-0000043294Y0000227714D03*
X-0000043294Y0000231651D03*
X-0000047231Y0000239525D03*
X-0000043294Y0000247399D03*
X-0000047231Y0000247399D03*
X-0000055105Y0000239525D03*
X-0000043294Y0000243462D03*
X-0000051168Y0000235588D03*
X-0000043294Y0000235588D03*
X-0000055105Y0000247399D03*
X-0000047231Y0000243462D03*
X-0000055105Y0000243462D03*
X-0000051168Y0000247399D03*
X-0000051168Y0000243462D03*
X-0000055105Y0000235588D03*
X-0000051168Y0000239525D03*
X-0000047231Y0000235588D03*
X-0000043294Y0000239525D03*
X-0000055105Y0000251336D03*
X-0000047231Y0000259210D03*
X-0000055105Y0000255273D03*
X-0000051168Y0000251336D03*
X-0000055105Y0000259210D03*
X-0000051168Y0000263147D03*
X-0000043294Y0000263147D03*
X-0000043294Y0000259210D03*
X-0000051168Y0000259210D03*
X-0000043294Y0000255273D03*
X-0000055105Y0000263147D03*
X-0000047231Y0000255273D03*
X-0000047231Y0000263147D03*
X-0000047231Y0000251336D03*
X-0000051168Y0000255273D03*
X-0000043294Y0000251336D03*
X-0000051168Y0000267084D03*
X-0000043294Y0000267084D03*
X-0000055105Y0000267084D03*
X-0000047231Y0000267084D03*
X-0000049720Y0000278930D03*
X-0000053370Y0000278880D03*
X-0000048800Y0000317030D03*
X-0000034149Y0000101530D03*
X-0000028244Y0000101530D03*
X-0000038220Y0000123373D03*
X-0000024820Y0000122430D03*
X-0000027019Y0000122430D03*
X-0000029820Y0000116630D03*
X-0000027123Y0000116669D03*
X-0000038202Y0000113541D03*
X-0000024923Y0000116669D03*
X-0000032020Y0000116630D03*
X-0000036002Y0000113541D03*
X-0000034464Y0000119030D03*
X-0000036020Y0000123373D03*
X-0000032296Y0000137643D03*
X-0000030096Y0000137643D03*
X-0000039120Y0000137530D03*
X-0000028244Y0000136130D03*
X-0000034149Y0000136130D03*
X-0000023720Y0000136130D03*
X-0000025220Y0000158030D03*
X-0000033720Y0000157530D03*
X-0000039357Y0000184407D03*
X-0000027546Y0000184407D03*
X-0000027546Y0000180470D03*
X-0000035420Y0000180470D03*
X-0000031483Y0000180470D03*
X-0000023609Y0000184407D03*
X-0000039357Y0000180470D03*
X-0000035420Y0000184407D03*
X-0000031483Y0000184407D03*
X-0000039357Y0000192281D03*
X-0000039357Y0000188344D03*
X-0000039357Y0000196218D03*
X-0000031483Y0000188344D03*
X-0000035420Y0000192281D03*
X-0000035420Y0000200155D03*
X-0000039357Y0000200155D03*
X-0000031483Y0000192281D03*
X-0000035420Y0000196218D03*
X-0000027546Y0000188344D03*
X-0000035420Y0000188344D03*
X-0000027546Y0000200155D03*
X-0000031483Y0000200155D03*
X-0000027546Y0000196218D03*
X-0000027546Y0000192281D03*
X-0000023609Y0000192281D03*
X-0000031483Y0000196218D03*
X-0000023609Y0000196218D03*
X-0000031483Y0000215903D03*
X-0000035420Y0000204092D03*
X-0000027546Y0000208029D03*
X-0000031483Y0000204092D03*
X-0000031483Y0000211966D03*
X-0000027546Y0000211966D03*
X-0000035420Y0000208029D03*
X-0000035420Y0000211966D03*
X-0000035420Y0000215903D03*
X-0000023609Y0000208029D03*
X-0000031483Y0000208029D03*
X-0000039357Y0000211966D03*
X-0000027546Y0000215903D03*
X-0000039357Y0000215903D03*
X-0000039357Y0000208029D03*
X-0000039357Y0000204092D03*
X-0000023609Y0000211966D03*
X-0000031483Y0000219840D03*
X-0000039357Y0000227714D03*
X-0000023609Y0000227714D03*
X-0000035420Y0000231651D03*
X-0000035420Y0000219840D03*
X-0000027546Y0000227714D03*
X-0000031483Y0000227714D03*
X-0000035420Y0000227714D03*
X-0000031483Y0000231651D03*
X-0000039357Y0000219840D03*
X-0000039357Y0000231651D03*
X-0000031483Y0000243462D03*
X-0000031483Y0000247399D03*
X-0000023609Y0000247399D03*
X-0000027546Y0000247399D03*
X-0000035420Y0000247399D03*
X-0000027546Y0000243462D03*
X-0000039357Y0000247399D03*
X-0000039357Y0000243462D03*
X-0000035420Y0000243462D03*
X-0000023609Y0000243462D03*
X-0000031483Y0000235588D03*
X-0000031483Y0000239525D03*
X-0000035420Y0000239525D03*
X-0000027546Y0000235588D03*
X-0000039357Y0000239525D03*
X-0000035420Y0000235588D03*
X-0000039357Y0000235588D03*
X-0000039357Y0000255273D03*
X-0000031483Y0000259210D03*
X-0000035420Y0000259210D03*
X-0000031483Y0000263147D03*
X-0000039357Y0000263147D03*
X-0000031483Y0000255273D03*
X-0000035420Y0000251336D03*
X-0000023609Y0000251336D03*
X-0000031483Y0000251337D03*
X-0000035420Y0000255273D03*
X-0000027546Y0000251336D03*
X-0000027546Y0000263147D03*
X-0000027546Y0000255273D03*
X-0000035420Y0000263147D03*
X-0000039357Y0000259210D03*
X-0000023609Y0000255273D03*
X-0000039357Y0000267084D03*
X-0000035420Y0000267084D03*
X-0000031483Y0000267084D03*
X-0000035220Y0000292530D03*
X-0000035220Y0000289130D03*
X-0000029720Y0000306680D03*
X-0000034720Y0000306680D03*
X-0000026400Y0000306675D03*
X-0000025220Y0000327530D03*
X-0000025220Y0000332530D03*
X-0000022338Y0000101530D03*
X-0000014477Y0000115830D03*
X-0000014477Y0000113630D03*
X-0000022720Y0000115230D03*
X-0000020486Y0000121672D03*
X-0000018286Y0000121672D03*
X-0000016720Y0000155780D03*
X-0000019672Y0000180470D03*
X-0000019672Y0000196218D03*
X-0000019672Y0000192281D03*
X-0000015735Y0000196218D03*
X-0000015735Y0000208029D03*
X-0000015735Y0000211966D03*
X-0000019672Y0000211966D03*
X-0000019672Y0000208029D03*
X-0000019672Y0000227714D03*
X-0000015735Y0000219840D03*
X-0000019672Y0000231651D03*
X-0000019672Y0000263147D03*
X-0000019300Y0000259900D03*
X-0000019672Y0000255273D03*
X-0000017695Y0000257600D03*
X-0000015100Y0000255273D03*
X-0000019672Y0000251336D03*
X-0000021210Y0000271690D03*
X-0000019672Y0000267084D03*
X-0000019320Y0000295030D03*
X-0000022720Y0000295030D03*
X-0000018220Y0000290380D03*
X-0000020220Y0000332530D03*
X-0000020220Y0000342530D03*
X0000003252Y0000101530D03*
X0000007305Y0000114741D03*
X0000005105Y0000114741D03*
X0000002280Y0000114530D03*
X0000007780Y0000119030D03*
X0000007305Y0000124020D03*
X0000005105Y0000124020D03*
X0000003252Y0000136130D03*
X0000007780Y0000153030D03*
X0000007780Y0000148030D03*
X-0000000939Y0000231680D03*
X-0000000939Y0000228180D03*
X0000002280Y0000220530D03*
X-0000007220Y0000250530D03*
X-0000007220Y0000240530D03*
X-0000004270Y0000246500D03*
X-0000007220Y0000235530D03*
X-0000000770Y0000246530D03*
X0000002280Y0000237530D03*
X0000002780Y0000246530D03*
X0000002780Y0000250375D03*
X-0000007220Y0000255375D03*
X0000003835Y0000255475D03*
X0000002280Y0000337530D03*
X0000007280Y0000335030D03*
X-0000005220Y0000346030D03*
X0000020969Y0000101530D03*
X0000015063Y0000101530D03*
X0000009158Y0000101530D03*
X0000012326Y0000114730D03*
X0000023680Y0000114630D03*
X0000019116Y0000114741D03*
X0000016916Y0000114741D03*
X0000010126Y0000114730D03*
X0000019276Y0000119030D03*
X0000022822Y0000137643D03*
X0000011011Y0000137643D03*
X0000016916Y0000124020D03*
X0000013211Y0000137643D03*
X0000009680Y0000124030D03*
X0000015063Y0000136130D03*
X0000020969Y0000136130D03*
X0000019116Y0000124020D03*
X0000021853Y0000216030D03*
X0000011607Y0000212760D03*
X0000011607Y0000209611D03*
X0000017905Y0000212760D03*
X0000014756Y0000215909D03*
X0000014756Y0000212760D03*
X0000017905Y0000215909D03*
X0000021054Y0000209611D03*
X0000011608Y0000215910D03*
X0000014756Y0000209611D03*
X0000021056Y0000219061D03*
X0000017905Y0000225358D03*
X0000008280Y0000219030D03*
X0000011608Y0000222209D03*
X0000014757Y0000222209D03*
X0000011608Y0000228508D03*
X0000014756Y0000228507D03*
X0000014756Y0000225358D03*
X0000017907Y0000219061D03*
X0000021056Y0000225358D03*
X0000017906Y0000231657D03*
X0000011608Y0000219060D03*
X0000011608Y0000225358D03*
X0000017906Y0000228506D03*
X0000014756Y0000219058D03*
X0000017906Y0000222207D03*
X0000011607Y0000247405D03*
X0000017906Y0000237955D03*
X0000017906Y0000234806D03*
X0000014757Y0000234806D03*
X0000011607Y0000250554D03*
X0000014757Y0000237955D03*
X0000011607Y0000253703D03*
X0000011607Y0000260001D03*
X0000011607Y0000256852D03*
X0000019280Y0000343530D03*
X0000019280Y0000335030D03*
X0000019780Y0000354439D03*
X0000038686Y0000101530D03*
X0000032780Y0000101530D03*
X0000026874Y0000101530D03*
X0000038280Y0000121330D03*
X0000028727Y0000114741D03*
X0000034633Y0000114741D03*
X0000036833Y0000114741D03*
X0000025880Y0000114630D03*
X0000030927Y0000114741D03*
X0000032780Y0000119030D03*
X0000025022Y0000137643D03*
X0000028727Y0000123972D03*
X0000036833Y0000137643D03*
X0000030926Y0000123972D03*
X0000026874Y0000136130D03*
X0000032480Y0000136230D03*
X0000038686Y0000136130D03*
X0000034633Y0000137643D03*
X0000035080Y0000185830D03*
X0000037080Y0000183430D03*
X0000037280Y0000187985D03*
X0000030505Y0000215912D03*
X0000024957Y0000216030D03*
X0000030505Y0000212763D03*
X0000039952Y0000212763D03*
X0000036803Y0000209614D03*
X0000033654Y0000212763D03*
X0000033654Y0000209614D03*
X0000033654Y0000215912D03*
X0000039952Y0000209411D03*
X0000039952Y0000215709D03*
X0000039952Y0000206262D03*
X0000030503Y0000222210D03*
X0000036803Y0000225359D03*
X0000027354Y0000222210D03*
X0000027280Y0000219030D03*
X0000030503Y0000231657D03*
X0000025854Y0000232511D03*
X0000025780Y0000230030D03*
X0000036803Y0000231657D03*
X0000039952Y0000219059D03*
X0000039952Y0000228508D03*
X0000036803Y0000222210D03*
X0000033654Y0000228508D03*
X0000030503Y0000219061D03*
X0000030503Y0000225359D03*
X0000027354Y0000225359D03*
X0000036803Y0000228508D03*
X0000033654Y0000225359D03*
X0000033654Y0000231657D03*
X0000039952Y0000231657D03*
X0000039952Y0000225359D03*
X0000039952Y0000222210D03*
X0000033654Y0000219061D03*
X0000036803Y0000234806D03*
X0000027354Y0000237958D03*
X0000027354Y0000247405D03*
X0000024205Y0000234809D03*
X0000027354Y0000241107D03*
X0000024205Y0000244256D03*
X0000024205Y0000247405D03*
X0000024205Y0000250554D03*
X0000024205Y0000237958D03*
X0000027354Y0000250554D03*
X0000024205Y0000241107D03*
X0000027354Y0000244256D03*
X0000033654Y0000234806D03*
X0000030505Y0000234806D03*
X0000039952Y0000250554D03*
X0000036803Y0000241107D03*
X0000027354Y0000256852D03*
X0000024205Y0000260001D03*
X0000027354Y0000253703D03*
X0000027354Y0000266299D03*
X0000024205Y0000256852D03*
X0000024205Y0000266299D03*
X0000027354Y0000260001D03*
X0000027354Y0000263150D03*
X0000024205Y0000253703D03*
X0000024205Y0000263150D03*
X0000039952Y0000260001D03*
X0000036803Y0000253703D03*
X0000034750Y0000265500D03*
X0000039952Y0000256852D03*
X0000037500Y0000264000D03*
X0000039235Y0000278203D03*
X0000038485Y0000281735D03*
X0000034359Y0000281735D03*
X0000024205Y0000272597D03*
X0000024205Y0000269448D03*
X0000027354Y0000269448D03*
X0000038422Y0000285672D03*
X0000034359Y0000285672D03*
X0000038359Y0000289609D03*
X0000034359Y0000289609D03*
X0000038296Y0000293546D03*
X0000034359Y0000293546D03*
X0000038327Y0000297483D03*
X0000034359Y0000297483D03*
X0000038390Y0000301420D03*
X0000034359Y0000305357D03*
X0000038453Y0000305357D03*
X0000032280Y0000342286D03*
X0000032280Y0000335030D03*
X0000039280Y0000354439D03*
X0000034189Y0000354439D03*
X0000050497Y0000101530D03*
X0000044591Y0000101530D03*
X0000052249Y0000114688D03*
X0000044980Y0000116654D03*
X0000054449Y0000114688D03*
X0000042738Y0000114688D03*
X0000040538Y0000114688D03*
X0000047180Y0000116654D03*
X0000044276Y0000119030D03*
X0000050280Y0000122030D03*
X0000044780Y0000122030D03*
X0000040480Y0000121330D03*
X0000046444Y0000137643D03*
X0000052349Y0000123972D03*
X0000054549Y0000123972D03*
X0000048644Y0000137643D03*
X0000050497Y0000136247D03*
X0000044591Y0000136130D03*
X0000043101Y0000215709D03*
X0000043101Y0000212560D03*
X0000043101Y0000206262D03*
X0000043101Y0000209411D03*
X0000043101Y0000218858D03*
X0000041780Y0000245530D03*
X0000051030Y0000245530D03*
X0000055780Y0000278030D03*
X0000052480Y0000278030D03*
X0000046900Y0000322500D03*
X0000050100Y0000322500D03*
X0000041780Y0000327030D03*
X0000041780Y0000332030D03*
X0000056402Y0000101530D03*
X0000060780Y0000114960D03*
X0000065280Y0000115030D03*
X0000056280Y0000119030D03*
X0000058280Y0000136430D03*
X0000063380Y0000125530D03*
X0000068780Y0000266030D03*
X0000063780Y0000266030D03*
X0000063780Y0000262030D03*
X0000059780Y0000262030D03*
X0000059890Y0000266030D03*
X0000069780Y0000278030D03*
X0000065280Y0000278030D03*
X0000058950Y0000278050D03*
X0000061800Y0000278000D03*
X0000057000Y0000322530D03*
X0000071730Y0000322530D03*
X0000060280Y0000322530D03*
X0000085717Y0000114530D03*
X0000081780Y0000114530D03*
X0000081200Y0000122400D03*
X0000081000Y0000126100D03*
X0000084955Y0000124070D03*
X0000077200Y0000126100D03*
X0000082280Y0000262030D03*
X0000077280Y0000262030D03*
X0000073280Y0000266030D03*
X0000086280Y0000262030D03*
X0000073780Y0000278030D03*
X0000082280Y0000354439D03*
X0000076280Y0000354439D03*
X0000072280Y0000354439D03*
X0000090780Y0000114530D03*
X0000094780Y0000114530D03*
X0000088045Y0000124070D03*
X0000091280Y0000262030D03*
X0000091280Y0000258030D03*
X0000095280Y0000307600D03*
X0000093300Y0000314380D03*
X0000095780Y0000354439D03*
X0000092030Y0000354439D03*
G54D23*
X-0000118519Y0000367987D03*
X-0000115370Y0000372711D03*
X-0000112220Y0000367987D03*
X-0000109070Y0000372711D03*
X-0000105921Y0000367987D03*
X-0000086551Y0000108518D03*
X-0000076519Y0000367987D03*
X-0000073370Y0000372711D03*
X-0000070220Y0000367987D03*
X-0000067070Y0000372711D03*
X-0000063921Y0000367987D03*
X0000150142Y0000108518D03*
G54D15*
X-0000206620Y0000117130D03*
X-0000206620Y0000162130D03*
G54D24*
X-0000106115Y0000153910D03*
X-0000110840Y0000153910D03*
X-0000108477Y0000153910D03*
X-0000106115Y0000151547D03*
X-0000110840Y0000151547D03*
X-0000108477Y0000151547D03*
X-0000108477Y0000158634D03*
X-0000110840Y0000158634D03*
X-0000106115Y0000158634D03*
X-0000106115Y0000156272D03*
X-0000110840Y0000156272D03*
X-0000108477Y0000156272D03*
X0000014123Y0000177026D03*
X0000011760Y0000177026D03*
X0000016485Y0000177026D03*
X0000016485Y0000179388D03*
X0000011760Y0000179388D03*
X0000014123Y0000179388D03*
X0000016485Y0000181750D03*
X0000011760Y0000181750D03*
X0000014123Y0000181750D03*
X0000016485Y0000184113D03*
X0000011760Y0000184113D03*
X0000014123Y0000184113D03*
X0000102066Y0000194051D03*
X0000102066Y0000198776D03*
X0000102066Y0000196414D03*
X0000116240Y0000198776D03*
X0000116240Y0000196414D03*
X0000118602Y0000198776D03*
X0000118602Y0000196414D03*
X0000111515Y0000194051D03*
X0000109153Y0000194051D03*
X0000106791Y0000194051D03*
X0000104429Y0000194051D03*
X0000113877Y0000194051D03*
X0000116240Y0000194051D03*
X0000118602Y0000194051D03*
X0000113877Y0000198776D03*
X0000113877Y0000196414D03*
X0000104429Y0000196414D03*
X0000104429Y0000198776D03*
X0000106791Y0000196414D03*
X0000106791Y0000198776D03*
X0000109153Y0000196414D03*
X0000109153Y0000198776D03*
X0000111515Y0000196414D03*
X0000111515Y0000198776D03*
X0000120964Y0000198776D03*
X0000120964Y0000196414D03*
X0000123326Y0000198776D03*
X0000123326Y0000196414D03*
X0000120964Y0000194051D03*
X0000123326Y0000194051D03*
X0000167197Y0000308325D03*
X0000167197Y0000313050D03*
X0000167197Y0000310687D03*
X0000174284Y0000310687D03*
X0000174284Y0000313050D03*
X0000174284Y0000308325D03*
X0000171922Y0000308325D03*
X0000171922Y0000313050D03*
X0000171922Y0000310687D03*
X0000169560Y0000308325D03*
X0000169560Y0000313050D03*
X0000169560Y0000310687D03*
G54D16*
X-0000202644Y0000127642D03*
X-0000202644Y0000135634D03*
X-0000195557Y0000127642D03*
X-0000195557Y0000135634D03*
X-0000202644Y0000143626D03*
X-0000202644Y0000151618D03*
X-0000195557Y0000143626D03*
X-0000195557Y0000151618D03*
X-0000188116Y0000126638D03*
X-0000183116Y0000131638D03*
X-0000188116Y0000152622D03*
X-0000183116Y0000147622D03*
X-0000178116Y0000126638D03*
X-0000173116Y0000131638D03*
X-0000168116Y0000126638D03*
X-0000178116Y0000152622D03*
X-0000173116Y0000147622D03*
X-0000168116Y0000152622D03*
X-0000163116Y0000131638D03*
X-0000158116Y0000126638D03*
X-0000153116Y0000131638D03*
X-0000148116Y0000126638D03*
X-0000163116Y0000147622D03*
X-0000158116Y0000152622D03*
X-0000153116Y0000147622D03*
X-0000148116Y0000152622D03*
X-0000143116Y0000131638D03*
X-0000143116Y0000147622D03*
G54D25*
G01X-0000226720Y0000254178D02*
X-0000226720Y0000259530D01*
G01X-0000226720Y0000259530D02*
X-0000226720Y0000264882D01*
G01X-0000226720Y0000259530D02*
X-0000221368Y0000259530D01*
G01X-0000226720Y0000274178D02*
X-0000226720Y0000279530D01*
G01X-0000226720Y0000279530D02*
X-0000226720Y0000284882D01*
G01X-0000226720Y0000279530D02*
X-0000221368Y0000279530D01*
G01X-0000226720Y0000291178D02*
X-0000226720Y0000296530D01*
G01X-0000226720Y0000296530D02*
X-0000226720Y0000301882D01*
G01X-0000226720Y0000296530D02*
X-0000221368Y0000296530D01*
G01X-0000226720Y0000311178D02*
X-0000226720Y0000316530D01*
G01X-0000226720Y0000328928D02*
X-0000226720Y0000334280D01*
G01X-0000226720Y0000316530D02*
X-0000226720Y0000321882D01*
G01X-0000226720Y0000316530D02*
X-0000221368Y0000316530D01*
G01X-0000226720Y0000334280D02*
X-0000226720Y0000339632D01*
G01X-0000226720Y0000334280D02*
X-0000221368Y0000334280D01*
G01X-0000226720Y0000348928D02*
X-0000226720Y0000354280D01*
G01X-0000226720Y0000354280D02*
X-0000226720Y0000359632D01*
G01X-0000226720Y0000354280D02*
X-0000221368Y0000354280D01*
G01X-0000206720Y0000254178D02*
X-0000206720Y0000259530D01*
G01X-0000206720Y0000259530D02*
X-0000206720Y0000264882D01*
G01X-0000212072Y0000259530D02*
X-0000206720Y0000259530D01*
G01X-0000206720Y0000259530D02*
X-0000201368Y0000259530D01*
G01X-0000206720Y0000274178D02*
X-0000206720Y0000279530D01*
G01X-0000206720Y0000279530D02*
X-0000206720Y0000284882D01*
G01X-0000212072Y0000279530D02*
X-0000206720Y0000279530D01*
G01X-0000206720Y0000279530D02*
X-0000201368Y0000279530D01*
G01X-0000206720Y0000291178D02*
X-0000206720Y0000296530D01*
G01X-0000206720Y0000296530D02*
X-0000206720Y0000301882D01*
G01X-0000212072Y0000296530D02*
X-0000206720Y0000296530D01*
G01X-0000206720Y0000296530D02*
X-0000201368Y0000296530D01*
G01X-0000206720Y0000311178D02*
X-0000206720Y0000316530D01*
G01X-0000206720Y0000328928D02*
X-0000206720Y0000334280D01*
G01X-0000206720Y0000316530D02*
X-0000206720Y0000321882D01*
G01X-0000212072Y0000316530D02*
X-0000206720Y0000316530D01*
G01X-0000206720Y0000316530D02*
X-0000201368Y0000316530D01*
G01X-0000206720Y0000334280D02*
X-0000206720Y0000339632D01*
G01X-0000212072Y0000334280D02*
X-0000206720Y0000334280D01*
G01X-0000206720Y0000334280D02*
X-0000201368Y0000334280D01*
G01X-0000206720Y0000348928D02*
X-0000206720Y0000354280D01*
G01X-0000206720Y0000354280D02*
X-0000206720Y0000359632D01*
G01X-0000212072Y0000354280D02*
X-0000206720Y0000354280D01*
G01X-0000206720Y0000354280D02*
X-0000201368Y0000354280D01*
G01X-0000184936Y0000374530D02*
X-0000181634Y0000374530D01*
G01X-0000168375Y0000339030D02*
X-0000164720Y0000339030D01*
G01X-0000181634Y0000371228D02*
X-0000181634Y0000374530D01*
G01X-0000181634Y0000374530D02*
X-0000181634Y0000377832D01*
G01X-0000181634Y0000374530D02*
X-0000178332Y0000374530D01*
G01X-0000168375Y0000389030D02*
X-0000164720Y0000389030D01*
G01X-0000154720Y0000335375D02*
X-0000154720Y0000339030D01*
G01X-0000154720Y0000339030D02*
X-0000154720Y0000342685D01*
G01X-0000158375Y0000339030D02*
X-0000154720Y0000339030D01*
G01X-0000164720Y0000335375D02*
X-0000164720Y0000339030D01*
G01X-0000164720Y0000339030D02*
X-0000164720Y0000342685D01*
G01X-0000164720Y0000339030D02*
X-0000161065Y0000339030D01*
G01X-0000154720Y0000385375D02*
X-0000154720Y0000389030D01*
G01X-0000154720Y0000389030D02*
X-0000154720Y0000392685D01*
G01X-0000158375Y0000389030D02*
X-0000154720Y0000389030D01*
G01X-0000164720Y0000385375D02*
X-0000164720Y0000389030D01*
G01X-0000164720Y0000389030D02*
X-0000164720Y0000392685D01*
G01X-0000164720Y0000389030D02*
X-0000161065Y0000389030D01*
G01X-0000126590Y0000371530D02*
X-0000126590Y0000377382D01*
G01X-0000130492Y0000371530D02*
X-0000126590Y0000371530D01*
G01X-0000126590Y0000383985D02*
X-0000126590Y0000389837D01*
G01X-0000130492Y0000389837D02*
X-0000126590Y0000389837D01*
G01X-0000126590Y0000389837D02*
X-0000122688Y0000389837D01*
G01X-0000088492Y0000371530D02*
X-0000084590Y0000371530D01*
G01X-0000097850Y0000371530D02*
X-0000097850Y0000377382D01*
G01X-0000097850Y0000371530D02*
X-0000093948Y0000371530D01*
G01X-0000088492Y0000389837D02*
X-0000084590Y0000389837D01*
G01X-0000097850Y0000383985D02*
X-0000097850Y0000389837D01*
G01X-0000101752Y0000389837D02*
X-0000097850Y0000389837D01*
G01X-0000097850Y0000389837D02*
X-0000093948Y0000389837D01*
G01X-0000084590Y0000371530D02*
X-0000084590Y0000377382D01*
G01X-0000084590Y0000383985D02*
X-0000084590Y0000389837D01*
G01X-0000084590Y0000389837D02*
X-0000080688Y0000389837D01*
G01X-0000055850Y0000383985D02*
X-0000055850Y0000389837D01*
G01X-0000059752Y0000389837D02*
X-0000055850Y0000389837D01*
G01X0000146280Y0000243328D02*
X0000146280Y0000247030D01*
G01X0000146280Y0000247030D02*
X0000146280Y0000250732D01*
G01X0000142578Y0000247030D02*
X0000146280Y0000247030D01*
G01X0000146280Y0000247030D02*
X0000149982Y0000247030D01*
G01X0000146280Y0000333328D02*
X0000146280Y0000337030D01*
G01X0000146280Y0000337030D02*
X0000146280Y0000340732D01*
G01X0000142578Y0000337030D02*
X0000146280Y0000337030D01*
G01X0000146280Y0000337030D02*
X0000149982Y0000337030D01*
G01X0000156280Y0000243328D02*
X0000156280Y0000247030D01*
G01X0000156280Y0000247030D02*
X0000156280Y0000250732D01*
G01X0000152578Y0000247030D02*
X0000156280Y0000247030D01*
G01X0000156280Y0000247030D02*
X0000159982Y0000247030D01*
G01X0000156280Y0000333328D02*
X0000156280Y0000337030D01*
G01X0000156280Y0000337030D02*
X0000156280Y0000340732D01*
G01X0000152578Y0000337030D02*
X0000156280Y0000337030D01*
G01X0000156280Y0000337030D02*
X0000159982Y0000337030D01*
X-0000008309Y0000283593D03*
X-0000014657Y0000293040D03*
X-0000014700Y0000296400D03*
X-0000017806Y0000299338D03*
X-0000014657Y0000299337D03*
X-0000020955Y0000305636D03*
X-0000017806Y0000308680D03*
X-0000014657Y0000308575D03*
X-0000014657Y0000305636D03*
X-0000011508Y0000324530D03*
X-0000011508Y0000327679D03*
X-0000008720Y0000324530D03*
X-0000014220Y0000324530D03*
X-0000014720Y0000315530D03*
X-0000017720Y0000315530D03*
X-0000017720Y0000321219D03*
X-0000002011Y0000280444D03*
X0000001128Y0000280444D03*
X0000007436Y0000280444D03*
X0000007436Y0000277295D03*
X0000004287Y0000277295D03*
X0000004287Y0000280444D03*
X-0000005160Y0000280444D03*
X0000005683Y0000293530D03*
X-0000001220Y0000296381D03*
X0000007100Y0000283593D03*
X-0000004720Y0000296381D03*
X-0000005196Y0000293506D03*
X0000001128Y0000283593D03*
X0000002827Y0000293483D03*
X-0000002021Y0000283593D03*
X0000007780Y0000293530D03*
X-0000005160Y0000283593D03*
X0000007280Y0000313530D03*
X-0000004720Y0000302530D03*
X-0000001335Y0000311922D03*
X0000001030Y0000301780D03*
X0000001600Y0000313500D03*
X-0000004720Y0000299530D03*
X-0000004720Y0000308530D03*
X-0000004720Y0000305530D03*
X0000004530Y0000301780D03*
X0000004380Y0000313530D03*
X0000007386Y0000324530D03*
X-0000003276Y0000314976D03*
X-0000002061Y0000324530D03*
X0000007386Y0000327679D03*
X-0000004720Y0000324530D03*
X0000001088Y0000324530D03*
X0000001088Y0000327679D03*
X0000004237Y0000327679D03*
X-0000002061Y0000327679D03*
X0000004237Y0000324530D03*
X-0000005315Y0000314906D03*
X0000020032Y0000280444D03*
X0000016883Y0000280444D03*
X0000010625Y0000277295D03*
X0000010605Y0000280444D03*
X0000023181Y0000280444D03*
X0000016780Y0000293030D03*
X0000013774Y0000283593D03*
X0000012780Y0000293030D03*
X0000010780Y0000293530D03*
X0000015200Y0000297255D03*
X0000014280Y0000294535D03*
X0000010475Y0000283585D03*
X0000020032Y0000283593D03*
X0000023181Y0000283593D03*
X0000016883Y0000283593D03*
X0000015335Y0000305840D03*
X0000015296Y0000302833D03*
X0000009780Y0000307530D03*
X0000010600Y0000301800D03*
X0000010230Y0000304780D03*
X0000010280Y0000313530D03*
X0000015300Y0000299955D03*
X0000015280Y0000308530D03*
X0000008530Y0000301780D03*
X0000010535Y0000327679D03*
X0000019982Y0000324530D03*
X0000023131Y0000324530D03*
X0000016833Y0000327679D03*
X0000010535Y0000324530D03*
X0000016833Y0000324530D03*
X0000013684Y0000324530D03*
X0000013684Y0000327679D03*
X0000023131Y0000327679D03*
X0000015362Y0000314948D03*
X0000026330Y0000293040D03*
X0000026330Y0000289891D03*
X0000026330Y0000283593D03*
X0000026330Y0000286742D03*
X0000029680Y0000302530D03*
X0000026300Y0000310485D03*
X0000026260Y0000308350D03*
X0000026330Y0000305636D03*
X0000026330Y0000302487D03*
X0000029780Y0000299338D03*
X0000026330Y0000299338D03*
X0000026330Y0000324530D03*
X0000026330Y0000321381D03*
X0000026330Y0000314325D03*
X0000026330Y0000318232D03*
G54D17*
X-0000202820Y0000187030D03*
X-0000202820Y0000182730D03*
X-0000151220Y0000187030D03*
X-0000151320Y0000181730D03*
X-0000007022Y0000227376D03*
X-0000007022Y0000231376D03*
G54D26*
X0000034237Y0000363991D03*
X0000091323Y0000363991D03*
G54D18*
X-0000207320Y0000207030D03*
X-0000212320Y0000217030D03*
X-0000202320Y0000207030D03*
X-0000202320Y0000217030D03*
X-0000202320Y0000212030D03*
X-0000207320Y0000217030D03*
X-0000212320Y0000212030D03*
X-0000212320Y0000207030D03*
X-0000207320Y0000212030D03*
X-0000207320Y0000221630D03*
X-0000212320Y0000221630D03*
X-0000202320Y0000221630D03*
X-0000198720Y0000303030D03*
X-0000198720Y0000348030D03*
X-0000197320Y0000207030D03*
X-0000197320Y0000217030D03*
X-0000197320Y0000212030D03*
X-0000197320Y0000221030D03*
X-0000197392Y0000241500D03*
X-0000185000Y0000241500D03*
X-0000185542Y0000267000D03*
X-0000193960Y0000290270D03*
X-0000185720Y0000284030D03*
X-0000197551Y0000290030D03*
X-0000189486Y0000292130D03*
X-0000189261Y0000296162D03*
X-0000183220Y0000300280D03*
X-0000189220Y0000300280D03*
X-0000190220Y0000310800D03*
X-0000185200Y0000311020D03*
X-0000193960Y0000336000D03*
X-0000189000Y0000337500D03*
X-0000189261Y0000342412D03*
X-0000183220Y0000346530D03*
X-0000190220Y0000358030D03*
X-0000189220Y0000346530D03*
X-0000184500Y0000358000D03*
X-0000168970Y0000259530D03*
X-0000168970Y0000264101D03*
X-0000168970Y0000277816D03*
X-0000168970Y0000268673D03*
X-0000168970Y0000273244D03*
X-0000168970Y0000282387D03*
X-0000179500Y0000267500D03*
X-0000175500Y0000273454D03*
X-0000168970Y0000286959D03*
X-0000168970Y0000291530D03*
X-0000173220Y0000287000D03*
X-0000179720Y0000284030D03*
X-0000177720Y0000291510D03*
X-0000158220Y0000207030D03*
X-0000163220Y0000217030D03*
X-0000153220Y0000207030D03*
X-0000153220Y0000217030D03*
X-0000153220Y0000212030D03*
X-0000158220Y0000217030D03*
X-0000163220Y0000207030D03*
X-0000163220Y0000212030D03*
X-0000158220Y0000212030D03*
X-0000158220Y0000222030D03*
X-0000163220Y0000222030D03*
X-0000153220Y0000222030D03*
X-0000162570Y0000259530D03*
X-0000162570Y0000264101D03*
X-0000151970Y0000259530D03*
X-0000151970Y0000264101D03*
X-0000156470Y0000259530D03*
X-0000151970Y0000273244D03*
X-0000162570Y0000268673D03*
X-0000162570Y0000273244D03*
X-0000162570Y0000277816D03*
X-0000162570Y0000282387D03*
X-0000151970Y0000268673D03*
X-0000151970Y0000277816D03*
X-0000151970Y0000282387D03*
X-0000156470Y0000277816D03*
X-0000156470Y0000268673D03*
X-0000162570Y0000286959D03*
X-0000162570Y0000291530D03*
X-0000151970Y0000291530D03*
X-0000151970Y0000286959D03*
X-0000156470Y0000286959D03*
X-0000138720Y0000116030D03*
X-0000141470Y0000156780D03*
X-0000134720Y0000172530D03*
X-0000134720Y0000177530D03*
X-0000148220Y0000207030D03*
X-0000148220Y0000217030D03*
X-0000148220Y0000212030D03*
X-0000148220Y0000222030D03*
X-0000145570Y0000264101D03*
X-0000145570Y0000259530D03*
X-0000139470Y0000259530D03*
X-0000145570Y0000268673D03*
X-0000145570Y0000282387D03*
X-0000145570Y0000277816D03*
X-0000145570Y0000273244D03*
X-0000139470Y0000268673D03*
X-0000139470Y0000277816D03*
X-0000145570Y0000291530D03*
X-0000145570Y0000286959D03*
X-0000139470Y0000286959D03*
X-0000136720Y0000303280D03*
X-0000136720Y0000343730D03*
X-0000136500Y0000339500D03*
X-0000134700Y0000332530D03*
X-0000136720Y0000360530D03*
X-0000135720Y0000352530D03*
X-0000140220Y0000360530D03*
X-0000140220Y0000357030D03*
X-0000138500Y0000354500D03*
X-0000135720Y0000356030D03*
X-0000135000Y0000375000D03*
X-0000140000Y0000375000D03*
X-0000135000Y0000380000D03*
X-0000140000Y0000380000D03*
X-0000122500Y0000130000D03*
X-0000123720Y0000144530D03*
X-0000129220Y0000172530D03*
X-0000129220Y0000177530D03*
X-0000119220Y0000192530D03*
X-0000123220Y0000192530D03*
X-0000129120Y0000187530D03*
X-0000128890Y0000197110D03*
X-0000132720Y0000195030D03*
X-0000123600Y0000229400D03*
X-0000122663Y0000223530D03*
X-0000121720Y0000268530D03*
X-0000126720Y0000268530D03*
X-0000127720Y0000277530D03*
X-0000133720Y0000277530D03*
X-0000121000Y0000297000D03*
X-0000119500Y0000289500D03*
X-0000120720Y0000305030D03*
X-0000130500Y0000299000D03*
X-0000120547Y0000309030D03*
X-0000130250Y0000302500D03*
X-0000120740Y0000301185D03*
X-0000120547Y0000312903D03*
X-0000129984Y0000328651D03*
X-0000133921Y0000328651D03*
X-0000124547Y0000328651D03*
X-0000124547Y0000320777D03*
X-0000120704Y0000324714D03*
X-0000124547Y0000324714D03*
X-0000120641Y0000328651D03*
X-0000120610Y0000316840D03*
X-0000124547Y0000316840D03*
X-0000120673Y0000320777D03*
X-0000130000Y0000324500D03*
X-0000124547Y0000332588D03*
X-0000129700Y0000343300D03*
X-0000125700Y0000343600D03*
X-0000120641Y0000332707D03*
X-0000120220Y0000347030D03*
X-0000120220Y0000355030D03*
X-0000120220Y0000351030D03*
X-0000123000Y0000361200D03*
X-0000128000Y0000361200D03*
X-0000132800Y0000361200D03*
X-0000112520Y0000134030D03*
X-0000106020Y0000136880D03*
X-0000114207Y0000144572D03*
X-0000105220Y0000167530D03*
X-0000110620Y0000167530D03*
X-0000114557Y0000167530D03*
X-0000107257Y0000171230D03*
X-0000118220Y0000172530D03*
X-0000118220Y0000177530D03*
X-0000114720Y0000172530D03*
X-0000114720Y0000177530D03*
X-0000114720Y0000182030D03*
X-0000110783Y0000182030D03*
X-0000107257Y0000175167D03*
X-0000116720Y0000223530D03*
X-0000117720Y0000254030D03*
X-0000116177Y0000286323D03*
X-0000107220Y0000313030D03*
X-0000107220Y0000319230D03*
X-0000107220Y0000326730D03*
X-0000109120Y0000343730D03*
X-0000117220Y0000340500D03*
X-0000113220Y0000343730D03*
X-0000107220Y0000334230D03*
X-0000104720Y0000343730D03*
X-0000107220Y0000359030D03*
X-0000107220Y0000355530D03*
X-0000115370Y0000355030D03*
X-0000115370Y0000347030D03*
X-0000115370Y0000351030D03*
X-0000111220Y0000359030D03*
X-0000098520Y0000136880D03*
X-0000102020Y0000136880D03*
X-0000089220Y0000135030D03*
X-0000096470Y0000151280D03*
X-0000090220Y0000167530D03*
X-0000095220Y0000167530D03*
X-0000095220Y0000162530D03*
X-0000100220Y0000167530D03*
X-0000102320Y0000171230D03*
X-0000090220Y0000172530D03*
X-0000102300Y0000175200D03*
X-0000092720Y0000281530D03*
X-0000087720Y0000285030D03*
X-0000087220Y0000313230D03*
X-0000101220Y0000313230D03*
X-0000094220Y0000313230D03*
X-0000087220Y0000326730D03*
X-0000087220Y0000319230D03*
X-0000094220Y0000319230D03*
X-0000101220Y0000319230D03*
X-0000094220Y0000326730D03*
X-0000101220Y0000326730D03*
X-0000101220Y0000334230D03*
X-0000087220Y0000334230D03*
X-0000094220Y0000334230D03*
X-0000088691Y0000343730D03*
X-0000095720Y0000343730D03*
X-0000095120Y0000349580D03*
X-0000089620Y0000353080D03*
X-0000095120Y0000353080D03*
X-0000089620Y0000349580D03*
X-0000088220Y0000357030D03*
X-0000093220Y0000357030D03*
X-0000090000Y0000377500D03*
X-0000092500Y0000380000D03*
X-0000087500Y0000380000D03*
X-0000090000Y0000382500D03*
X-0000095000Y0000382500D03*
X-0000076220Y0000116030D03*
X-0000080220Y0000175030D03*
X-0000080550Y0000280350D03*
X-0000073820Y0000350030D03*
X-0000077720Y0000350030D03*
X-0000083800Y0000353100D03*
X-0000076519Y0000363800D03*
X-0000058820Y0000147430D03*
X-0000058820Y0000157230D03*
X-0000067220Y0000312980D03*
X-0000069720Y0000339530D03*
X-0000055720Y0000340030D03*
X-0000055720Y0000345030D03*
X-0000065220Y0000359030D03*
X-0000069220Y0000359030D03*
X-0000064550Y0000352860D03*
X-0000055720Y0000350030D03*
X-0000058700Y0000359000D03*
X-0000064720Y0000347341D03*
X-0000052720Y0000160030D03*
X-0000049863Y0000296679D03*
X-0000041863Y0000296679D03*
X-0000045863Y0000296679D03*
X-0000045863Y0000289179D03*
X-0000048863Y0000312980D03*
X-0000052363Y0000312980D03*
X-0000045720Y0000312980D03*
X-0000049863Y0000300679D03*
X-0000041863Y0000304679D03*
X-0000041863Y0000300679D03*
X-0000045863Y0000304679D03*
X-0000049863Y0000304679D03*
X-0000045863Y0000300679D03*
X-0000049220Y0000324630D03*
X-0000045720Y0000340030D03*
X-0000045720Y0000345030D03*
X-0000050720Y0000345030D03*
X-0000050720Y0000340030D03*
X-0000048200Y0000359100D03*
X-0000050720Y0000350030D03*
X-0000045720Y0000350030D03*
X-0000043720Y0000377530D03*
X-0000041200Y0000366180D03*
X-0000047720Y0000377530D03*
X-0000045720Y0000393030D03*
X-0000039720Y0000387530D03*
X-0000025220Y0000154130D03*
X-0000034720Y0000297726D03*
X-0000034720Y0000313030D03*
X-0000034720Y0000320730D03*
X-0000034720Y0000327530D03*
X-0000034720Y0000332730D03*
X-0000034720Y0000337530D03*
X-0000025220Y0000342530D03*
X-0000024720Y0000367030D03*
X-0000029600Y0000367200D03*
X-0000035205Y0000387545D03*
X-0000024720Y0000387530D03*
X-0000008720Y0000152030D03*
X-0000008720Y0000156030D03*
X-0000011125Y0000263125D03*
X-0000020220Y0000327530D03*
X-0000014340Y0000370000D03*
X-0000008220Y0000370030D03*
X-0000018220Y0000367030D03*
X-0000014720Y0000387530D03*
X-0000000220Y0000148030D03*
X0000000843Y0000170030D03*
X-0000003094Y0000170030D03*
X-0000007031Y0000170030D03*
X-0000003094Y0000166093D03*
X0000000843Y0000166093D03*
X-0000007031Y0000166030D03*
X-0000000270Y0000157130D03*
X-0000000220Y0000161030D03*
X-0000007031Y0000173967D03*
X0000004780Y0000191530D03*
X0000007820Y0000211870D03*
X-0000007220Y0000223530D03*
X-0000007220Y0000263030D03*
X-0000007220Y0000259030D03*
X0000003091Y0000259504D03*
X-0000002720Y0000342286D03*
X0000003780Y0000367530D03*
X-0000001220Y0000387530D03*
X-0000005720Y0000387530D03*
X0000003280Y0000387530D03*
X0000013280Y0000148030D03*
X0000017280Y0000148030D03*
X0000012280Y0000155030D03*
X0000023780Y0000169030D03*
X0000012780Y0000160030D03*
X0000008780Y0000160030D03*
X0000010900Y0000167700D03*
X0000009100Y0000170100D03*
X0000009200Y0000164600D03*
X0000012900Y0000170100D03*
X0000021800Y0000165100D03*
X0000017680Y0000169230D03*
X0000017800Y0000165300D03*
X0000012500Y0000164700D03*
X0000023780Y0000173030D03*
X0000018031Y0000191780D03*
X0000022280Y0000202030D03*
X0000008918Y0000191798D03*
X0000012280Y0000202030D03*
X0000017280Y0000202030D03*
X0000009780Y0000331180D03*
X0000021780Y0000331180D03*
X0000011780Y0000367030D03*
X0000017030Y0000385030D03*
X0000009530Y0000387530D03*
X0000034500Y0000150000D03*
X0000024780Y0000154530D03*
X0000028780Y0000154953D03*
X0000028280Y0000169030D03*
X0000034500Y0000157530D03*
X0000025680Y0000165230D03*
X0000028280Y0000173030D03*
X0000028280Y0000181030D03*
X0000028280Y0000177030D03*
X0000036280Y0000197030D03*
X0000032361Y0000197030D03*
X0000035780Y0000192030D03*
X0000034280Y0000331185D03*
X0000027030Y0000358400D03*
X0000054000Y0000150500D03*
X0000055800Y0000147200D03*
X0000048374Y0000147000D03*
X0000044437Y0000147000D03*
X0000040500Y0000147000D03*
X0000048874Y0000141500D03*
X0000044937Y0000141500D03*
X0000041000Y0000141500D03*
X0000044680Y0000170030D03*
X0000044680Y0000165030D03*
X0000049680Y0000170030D03*
X0000055600Y0000168400D03*
X0000044680Y0000175030D03*
X0000045880Y0000187130D03*
X0000044680Y0000180030D03*
X0000041680Y0000197030D03*
X0000041780Y0000192830D03*
X0000045780Y0000228530D03*
X0000055280Y0000228530D03*
X0000051100Y0000221700D03*
X0000048500Y0000225359D03*
X0000051000Y0000228500D03*
X0000055611Y0000245630D03*
X0000055280Y0000236030D03*
X0000051830Y0000235980D03*
X0000048000Y0000236000D03*
X0000049000Y0000248530D03*
X0000055280Y0000266030D03*
X0000056049Y0000252000D03*
X0000051000Y0000252000D03*
X0000049000Y0000255530D03*
X0000049478Y0000283030D03*
X0000053280Y0000283030D03*
X0000045280Y0000311730D03*
X0000049780Y0000311730D03*
X0000055780Y0000326530D03*
X0000053000Y0000322500D03*
X0000049780Y0000336030D03*
X0000047032Y0000368530D03*
X0000052937Y0000368530D03*
X0000063528Y0000122030D03*
X0000071337Y0000163400D03*
X0000071100Y0000171000D03*
X0000071100Y0000167300D03*
X0000058700Y0000170900D03*
X0000059680Y0000183630D03*
X0000059680Y0000179530D03*
X0000056780Y0000187030D03*
X0000059680Y0000175030D03*
X0000072000Y0000187600D03*
X0000071800Y0000192000D03*
X0000067700Y0000192030D03*
X0000067717Y0000214030D03*
X0000071654Y0000214030D03*
X0000063802Y0000215055D03*
X0000059865Y0000215055D03*
X0000059843Y0000217967D03*
X0000063780Y0000217967D03*
X0000067717Y0000217967D03*
X0000071654Y0000217967D03*
X0000067717Y0000206530D03*
X0000071654Y0000206530D03*
X0000059843Y0000221904D03*
X0000063780Y0000221904D03*
X0000067717Y0000221904D03*
X0000071654Y0000221904D03*
X0000059780Y0000233030D03*
X0000059843Y0000226530D03*
X0000063780Y0000226530D03*
X0000063780Y0000233030D03*
X0000071717Y0000243530D03*
X0000067717Y0000243530D03*
X0000059780Y0000255660D03*
X0000067780Y0000297530D03*
X0000067780Y0000285530D03*
X0000067780Y0000291530D03*
X0000062780Y0000297530D03*
X0000057780Y0000297530D03*
X0000062780Y0000285530D03*
X0000062780Y0000291530D03*
X0000057780Y0000291530D03*
X0000058280Y0000285530D03*
X0000057800Y0000311600D03*
X0000061600Y0000311700D03*
X0000064780Y0000311730D03*
X0000069280Y0000311730D03*
X0000067780Y0000302030D03*
X0000062780Y0000302030D03*
X0000057780Y0000302030D03*
X0000065796Y0000322530D03*
X0000058843Y0000368530D03*
X0000064749Y0000368530D03*
X0000082600Y0000101500D03*
X0000077280Y0000122530D03*
X0000077280Y0000115030D03*
X0000085780Y0000119030D03*
X0000081100Y0000154600D03*
X0000075974Y0000163400D03*
X0000079811Y0000171000D03*
X0000079811Y0000167300D03*
X0000075874Y0000171000D03*
X0000075874Y0000167300D03*
X0000080900Y0000158500D03*
X0000080700Y0000162500D03*
X0000087402Y0000189530D03*
X0000083465Y0000189530D03*
X0000079528Y0000189530D03*
X0000079528Y0000194030D03*
X0000075591Y0000192030D03*
X0000075591Y0000197030D03*
X0000087402Y0000206530D03*
X0000083465Y0000206530D03*
X0000079528Y0000206530D03*
X0000075591Y0000206530D03*
X0000086780Y0000247030D03*
X0000083780Y0000275530D03*
X0000083780Y0000284030D03*
X0000083780Y0000298530D03*
X0000073280Y0000297530D03*
X0000073280Y0000285530D03*
X0000073280Y0000291530D03*
X0000083780Y0000311730D03*
X0000083780Y0000302530D03*
X0000083280Y0000306530D03*
X0000073780Y0000311730D03*
X0000073280Y0000302030D03*
X0000077607Y0000322530D03*
X0000078100Y0000375800D03*
X0000078281Y0000369030D03*
X0000083000Y0000369000D03*
X0000074780Y0000369030D03*
X0000097600Y0000101500D03*
X0000098016Y0000122030D03*
X0000098016Y0000116030D03*
X0000093000Y0000153280D03*
X0000093000Y0000165780D03*
X0000093000Y0000156900D03*
X0000101200Y0000158030D03*
X0000101000Y0000162200D03*
X0000093000Y0000160400D03*
X0000096900Y0000161900D03*
X0000091339Y0000177593D03*
X0000095276Y0000193467D03*
X0000095276Y0000189530D03*
X0000091339Y0000189530D03*
X0000095276Y0000202593D03*
X0000095276Y0000206530D03*
X0000091339Y0000206530D03*
X0000095780Y0000247530D03*
X0000088280Y0000275530D03*
X0000092280Y0000275530D03*
X0000095300Y0000297350D03*
X0000095280Y0000288530D03*
X0000095200Y0000304400D03*
X0000095200Y0000300800D03*
X0000095280Y0000311030D03*
X0000088780Y0000327530D03*
X0000094189Y0000342421D03*
X0000094080Y0000338530D03*
X0000094080Y0000334530D03*
X0000094080Y0000346530D03*
X0000098007Y0000361957D03*
X0000112600Y0000101500D03*
X0000110280Y0000119030D03*
X0000112616Y0000153280D03*
X0000115780Y0000159630D03*
X0000112616Y0000158030D03*
X0000112800Y0000162300D03*
X0000118430Y0000177130D03*
X0000111530Y0000177593D03*
X0000107280Y0000177593D03*
X0000118601Y0000183709D03*
X0000111434Y0000239784D03*
X0000117280Y0000237530D03*
X0000112434Y0000261984D03*
X0000117280Y0000267030D03*
X0000117280Y0000282030D03*
X0000117280Y0000277530D03*
X0000111780Y0000277530D03*
X0000111780Y0000273796D03*
X0000111686Y0000295936D03*
X0000104952Y0000289358D03*
X0000116957Y0000310707D03*
X0000119780Y0000306530D03*
X0000104952Y0000301358D03*
X0000104952Y0000311358D03*
X0000112127Y0000317877D03*
X0000104952Y0000322530D03*
X0000116280Y0000342530D03*
X0000107000Y0000335000D03*
X0000117780Y0000358530D03*
X0000127600Y0000101500D03*
X0000123016Y0000122294D03*
X0000123016Y0000116266D03*
X0000134780Y0000119030D03*
X0000128780Y0000177130D03*
X0000132780Y0000185630D03*
X0000132780Y0000189130D03*
X0000132280Y0000194030D03*
X0000132280Y0000197530D03*
X0000133280Y0000227530D03*
X0000122280Y0000237530D03*
X0000126780Y0000237530D03*
X0000132280Y0000267030D03*
X0000128280Y0000267030D03*
X0000122280Y0000267030D03*
X0000126780Y0000278030D03*
X0000122280Y0000278030D03*
X0000122280Y0000282030D03*
X0000126780Y0000282030D03*
X0000125280Y0000306530D03*
X0000127280Y0000321500D03*
X0000122280Y0000321500D03*
X0000125627Y0000317877D03*
X0000130600Y0000335300D03*
X0000132479Y0000344367D03*
X0000126300Y0000335200D03*
X0000133900Y0000332700D03*
X0000126200Y0000339817D03*
X0000126200Y0000343800D03*
X0000121780Y0000358530D03*
X0000132000Y0000366313D03*
X0000142600Y0000101500D03*
X0000142268Y0000122018D03*
X0000142268Y0000116030D03*
X0000150280Y0000119030D03*
X0000147280Y0000127530D03*
X0000147280Y0000132530D03*
X0000145380Y0000185230D03*
X0000145380Y0000189130D03*
X0000142280Y0000208530D03*
X0000142280Y0000215630D03*
X0000142280Y0000220530D03*
X0000140780Y0000238030D03*
X0000138934Y0000261984D03*
X0000139186Y0000295936D03*
X0000143592Y0000309030D03*
X0000143592Y0000305030D03*
X0000143593Y0000321905D03*
X0000139433Y0000317877D03*
X0000143592Y0000316030D03*
X0000136416Y0000344367D03*
X0000138500Y0000359000D03*
X0000138500Y0000363500D03*
X0000157280Y0000127530D03*
X0000152280Y0000127530D03*
X0000157280Y0000132530D03*
X0000152280Y0000132530D03*
X0000164780Y0000244030D03*
X0000164000Y0000262500D03*
X0000166435Y0000281530D03*
X0000164780Y0000271030D03*
X0000166435Y0000286030D03*
X0000155280Y0000309530D03*
X0000160280Y0000321030D03*
X0000160426Y0000315540D03*
X0000166280Y0000359530D03*
X0000166780Y0000386530D03*
X0000167137Y0000378363D03*
X0000162500Y0000378500D03*
X0000169500Y0000192500D03*
X0000171333Y0000262500D03*
X0000175000Y0000262500D03*
X0000167667Y0000262500D03*
X0000178500Y0000253000D03*
X0000182678Y0000253000D03*
X0000176780Y0000281530D03*
X0000171435Y0000281530D03*
X0000181454Y0000281530D03*
X0000176780Y0000291030D03*
X0000171435Y0000286030D03*
X0000176780Y0000286030D03*
X0000177280Y0000337530D03*
X0000169780Y0000337619D03*
X0000173780Y0000337619D03*
X0000173780Y0000342619D03*
X0000169780Y0000342619D03*
X0000177280Y0000346530D03*
X0000169780Y0000346619D03*
X0000173780Y0000346619D03*
X0000178423Y0000369000D03*
X0000182280Y0000369000D03*
X0000170709Y0000369180D03*
X0000174566Y0000369066D03*
X0000186780Y0000244030D03*
X0000190000Y0000253000D03*
X0000186339Y0000253000D03*
X0000191454Y0000281530D03*
X0000186454Y0000281530D03*
X0000186780Y0000270030D03*
X0000186454Y0000291030D03*
X0000191454Y0000291030D03*
X0000191454Y0000297619D03*
X0000186454Y0000297619D03*
X0000191454Y0000286030D03*
X0000186454Y0000327619D03*
X0000191454Y0000327619D03*
X0000188454Y0000337619D03*
X0000191454Y0000342619D03*
X0000191454Y0000337619D03*
X0000191454Y0000332619D03*
X0000186454Y0000332619D03*
X0000188454Y0000346619D03*
X0000191454Y0000346619D03*
X0000186780Y0000359530D03*
X0000186780Y0000386530D03*
X0000185500Y0000378500D03*
X0000189000Y0000378500D03*
G54D27*
X0000034237Y0000387495D03*
X0000091323Y0000387495D03*
G54D28*
X0000162371Y0000165030D03*
X0000186780Y0000165030D03*
G54D19*
X-0000186720Y0000329530D03*
X-0000186720Y0000319530D03*
X0000146280Y0000247030D03*
X0000146280Y0000257030D03*
X0000146280Y0000267030D03*
X0000146280Y0000277030D03*
X0000146280Y0000287030D03*
X0000146280Y0000297030D03*
X0000146280Y0000337030D03*
X0000146280Y0000347030D03*
X0000146280Y0000357030D03*
X0000146280Y0000367030D03*
X0000146280Y0000377030D03*
X0000146280Y0000387030D03*
X0000156280Y0000247030D03*
X0000156280Y0000257030D03*
X0000156280Y0000267030D03*
X0000156280Y0000277030D03*
X0000156280Y0000287030D03*
X0000156280Y0000297030D03*
X0000156280Y0000337030D03*
X0000156280Y0000347030D03*
X0000156280Y0000357030D03*
X0000156280Y0000367030D03*
X0000156280Y0000377030D03*
X0000156280Y0000387030D03*
G54D29*
X0000163280Y0000200030D03*
X0000163280Y0000210030D03*
X0000163280Y0000220030D03*
X0000187280Y0000220030D03*
X0000187280Y0000210030D03*
M02*
