G04 ================== begin FILE IDENTIFICATION RECORD ==================*
G04 Layout Name:  C:/Users/lzf/Desktop/ALTERA/0320/max10_dk_c/max10_dk_c.brd*
G04 Film Name:    SOLDER_BOT*
G04 File Format:  Gerber RS274X*
G04 File Origin:  Cadence Allegro 16.6-S023*
G04 Origin Date:  Fri Mar 20 16:34:20 2015*
G04 *
G04 Layer:  BOARD GEOMETRY/SOLDERMASK_BOTTOM*
G04 Layer:  PACKAGE GEOMETRY/SOLDERMASK_BOTTOM*
G04 Layer:  PIN/SOLDERMASK_BOTTOM*
G04 Layer:  VIA CLASS/SOLDERMASK_BOTTOM*
G04 Layer:  BOARD GEOMETRY/OUTLINE*
G04 *
G04 Offset:    (0.00 0.00)*
G04 Mirror:    No*
G04 Mode:      Positive*
G04 Rotation:  0*
G04 FullContactRelief:  No*
G04 UndefLineWidth:     6.00*
G04 ================== end FILE IDENTIFICATION RECORD ====================*
%FSAX55Y55*MOIN*%
%IR0*IPPOS*OFA0.00000B0.00000*MIA0B0*SFA1.00000B1.00000*%
%ADD58O,.064X.112*%
%ADD57O,.064X.134*%
%ADD38R,.08X.106*%
%ADD36O,.07X.109*%
%ADD32R,.075X.11*%
%ADD66R,.106X.08*%
%ADD64O,.061X.174*%
%ADD44C,.02*%
%ADD67O,.174X.061*%
%ADD43P,.031324X8X22.5*%
%ADD18C,.024*%
%ADD55C,.025*%
%ADD49R,.054X.129*%
%ADD15C,.08*%
%ADD19C,.027*%
%ADD65C,.055*%
%ADD42C,.046*%
%ADD23C,.064*%
%AMMACRO47*
21,1,.024,.024,0.0,0.0,45.*%
%ADD47MACRO47*%
%ADD24C,.058*%
%ADD14R,.024X.024*%
%ADD56C,.02165*%
%ADD69R,.055X.055*%
%ADD22R,.064X.064*%
%ADD13C,.089*%
%ADD25R,.058X.058*%
%ADD17C,.05906*%
%ADD28R,.11417X.07087*%
%ADD48R,.07087X.11417*%
%ADD27C,.06693*%
%ADD26R,.06693X.06693*%
%ADD59R,.012X.026*%
%ADD41R,.012X.016*%
%ADD60R,.026X.012*%
%ADD54R,.025X.022*%
%ADD53R,.041X.016*%
%ADD37O,.046X.051*%
%ADD33R,.044X.044*%
%ADD29R,.029X.014*%
%ADD63R,.034X.054*%
%ADD52R,.024X.038*%
%ADD35R,.044X.044*%
%ADD30R,.014X.029*%
%ADD62R,.064X.054*%
%ADD10C,.109*%
%ADD61R,.054X.064*%
%ADD50R,.074X.054*%
%ADD11C,.254*%
%ADD39R,.054X.074*%
%ADD45R,.055X.065*%
%ADD51R,.039X.038*%
%ADD34R,.067X.056*%
%ADD46R,.089X.071*%
%ADD31R,.056X.067*%
%ADD16C,.13583*%
%ADD40O,.09449X.0315*%
%ADD12C,.12598*%
%ADD68R,.06299X.0315*%
%ADD21R,.0315X.06299*%
%ADD20R,.04724X.06299*%
%ADD70C,.006*%
%ADD71C,.005*%
G75*
%LPD*%
G75*
G54D10*
X-0000226720Y0000259530D03*
X-0000226720Y0000279530D03*
X-0000226720Y0000296530D03*
X-0000226720Y0000316530D03*
X-0000226720Y0000334280D03*
X-0000226720Y0000354280D03*
X-0000206720Y0000259530D03*
X-0000206720Y0000279530D03*
X-0000206720Y0000296530D03*
X-0000206720Y0000316530D03*
X-0000206720Y0000334280D03*
X-0000206720Y0000354280D03*
G54D20*
X-0000190000Y0000270669D03*
X-0000186260Y0000279331D03*
X-0000193740Y0000279331D03*
G54D11*
X-0000220220Y0000382530D03*
X-0000105720Y0000118530D03*
X0000122280Y0000382530D03*
X0000174280Y0000118530D03*
G54D21*
X-0000193960Y0000296162D03*
X-0000186480Y0000296162D03*
X-0000186480Y0000306398D03*
X-0000190220Y0000306398D03*
X-0000193960Y0000306398D03*
X-0000193960Y0000342412D03*
X-0000186480Y0000342412D03*
X-0000186480Y0000352648D03*
X-0000190220Y0000352648D03*
X-0000193960Y0000352648D03*
G54D12*
X-0000221220Y0000087530D03*
X-0000221220Y0000406530D03*
X0000179280Y0000087530D03*
X0000179280Y0000406530D03*
G54D30*
X-0000121194Y0000147650D03*
X-0000123163Y0000147650D03*
X-0000125131Y0000147650D03*
X-0000125131Y0000162610D03*
X-0000123163Y0000162610D03*
X-0000121194Y0000162610D03*
X-0000103477Y0000147650D03*
X-0000105446Y0000147650D03*
X-0000107414Y0000147650D03*
X-0000109383Y0000147650D03*
X-0000111351Y0000147650D03*
X-0000113320Y0000147650D03*
X-0000115289Y0000147650D03*
X-0000117257Y0000147650D03*
X-0000119226Y0000147650D03*
X-0000119226Y0000162610D03*
X-0000117257Y0000162610D03*
X-0000115289Y0000162610D03*
X-0000113320Y0000162610D03*
X-0000111351Y0000162610D03*
X-0000109383Y0000162610D03*
X-0000107414Y0000162610D03*
X-0000105446Y0000162610D03*
X-0000103477Y0000162610D03*
X-0000101509Y0000147650D03*
X-0000101509Y0000162610D03*
X0000165859Y0000302144D03*
X0000165859Y0000328916D03*
X0000175701Y0000302144D03*
X0000173733Y0000302144D03*
X0000171764Y0000302144D03*
X0000169796Y0000302144D03*
X0000167827Y0000302144D03*
X0000167827Y0000328916D03*
X0000169796Y0000328916D03*
X0000171764Y0000328916D03*
X0000173733Y0000328916D03*
X0000175701Y0000328916D03*
G54D40*
X-0000113826Y0000296530D03*
X-0000113826Y0000311530D03*
X-0000113826Y0000306530D03*
X-0000113826Y0000301530D03*
X-0000113826Y0000326530D03*
X-0000113826Y0000321530D03*
X-0000113826Y0000316530D03*
X-0000113826Y0000331530D03*
X-0000077614Y0000296530D03*
X-0000077614Y0000301530D03*
X-0000077614Y0000306530D03*
X-0000077614Y0000311530D03*
X-0000077614Y0000316530D03*
X-0000077614Y0000321530D03*
X-0000077614Y0000326530D03*
X-0000077614Y0000331530D03*
G54D31*
X-0000127460Y0000171530D03*
X-0000119980Y0000171530D03*
X-0000127460Y0000187430D03*
X-0000119980Y0000187430D03*
X-0000127460Y0000179480D03*
X-0000119980Y0000179480D03*
X-0000001910Y0000183020D03*
X0000005570Y0000183020D03*
X-0000001910Y0000174820D03*
X0000005570Y0000174820D03*
X0000068140Y0000154900D03*
X0000060660Y0000154900D03*
X0000179240Y0000345930D03*
X0000179240Y0000337730D03*
X0000186720Y0000345930D03*
X0000186720Y0000337730D03*
G54D13*
X-0000224612Y0000106146D03*
X-0000224612Y0000173114D03*
X-0000161620Y0000106146D03*
X-0000145636Y0000173114D03*
G54D22*
X-0000186720Y0000329530D03*
X0000146280Y0000297030D03*
X0000146280Y0000387030D03*
G54D50*
X-0000010720Y0000109030D03*
X-0000010720Y0000121030D03*
G54D41*
X-0000109220Y0000357660D03*
X-0000107842Y0000361400D03*
X-0000110598Y0000361400D03*
X-0000067220Y0000357660D03*
X-0000065842Y0000361400D03*
X-0000068598Y0000361400D03*
G54D14*
X-0000217334Y0000183330D03*
X-0000217070Y0000200030D03*
X-0000220570Y0000200030D03*
X-0000217070Y0000196830D03*
X-0000220570Y0000196830D03*
X-0000218070Y0000219530D03*
X-0000214570Y0000219530D03*
X-0000221820Y0000229780D03*
X-0000221820Y0000226280D03*
X-0000214570Y0000226280D03*
X-0000218320Y0000229780D03*
X-0000218320Y0000226280D03*
X-0000198371Y0000183260D03*
X-0000210370Y0000183310D03*
X-0000206870Y0000183310D03*
X-0000213834Y0000183330D03*
X-0000203620Y0000200780D03*
X-0000208320Y0000200780D03*
X-0000203620Y0000204280D03*
X-0000208320Y0000204280D03*
X-0000205820Y0000229780D03*
X-0000205820Y0000226280D03*
X-0000199070Y0000226280D03*
X-0000202570Y0000226280D03*
X-0000211070Y0000226280D03*
X-0000184720Y0000168780D03*
X-0000192420Y0000168780D03*
X-0000188220Y0000168780D03*
X-0000190867Y0000183276D03*
X-0000187367Y0000183276D03*
X-0000194871Y0000183260D03*
X-0000184720Y0000172280D03*
X-0000192420Y0000172280D03*
X-0000188220Y0000172280D03*
X-0000192470Y0000197030D03*
X-0000188970Y0000197030D03*
X-0000195820Y0000200780D03*
X-0000188320Y0000208280D03*
X-0000188320Y0000204780D03*
X-0000195820Y0000204280D03*
X-0000188320Y0000215780D03*
X-0000188320Y0000225280D03*
X-0000188320Y0000228780D03*
X-0000188320Y0000219280D03*
X-0000191070Y0000222030D03*
X-0000194570Y0000222030D03*
X-0000188500Y0000253150D03*
X-0000188500Y0000256650D03*
X-0000192000Y0000253150D03*
X-0000192000Y0000256650D03*
X-0000184970Y0000262030D03*
X-0000188470Y0000262030D03*
X-0000192470Y0000262030D03*
X-0000195970Y0000262030D03*
X-0000193740Y0000287000D03*
X-0000197240Y0000287000D03*
X-0000189850Y0000369000D03*
X-0000186350Y0000369000D03*
X-0000177720Y0000168780D03*
X-0000181220Y0000168780D03*
X-0000174020Y0000168780D03*
X-0000166722Y0000183278D03*
X-0000177720Y0000172280D03*
X-0000181220Y0000172280D03*
X-0000174020Y0000172280D03*
X-0000167470Y0000200030D03*
X-0000170970Y0000200030D03*
X-0000168520Y0000229780D03*
X-0000168520Y0000226280D03*
X-0000171820Y0000229780D03*
X-0000171820Y0000226280D03*
X-0000168970Y0000219530D03*
X-0000168970Y0000259530D03*
X-0000168970Y0000264101D03*
X-0000168970Y0000273244D03*
X-0000168970Y0000268673D03*
X-0000168970Y0000277816D03*
X-0000179500Y0000277750D03*
X-0000179500Y0000281250D03*
X-0000168970Y0000291530D03*
X-0000168970Y0000282387D03*
X-0000168970Y0000286959D03*
X-0000159222Y0000183278D03*
X-0000155722Y0000183278D03*
X-0000163222Y0000183278D03*
X-0000154020Y0000200780D03*
X-0000158720Y0000200780D03*
X-0000154020Y0000204280D03*
X-0000158720Y0000204280D03*
X-0000152970Y0000226280D03*
X-0000161470Y0000226280D03*
X-0000164970Y0000226280D03*
X-0000156220Y0000229780D03*
X-0000156220Y0000226280D03*
X-0000165470Y0000219530D03*
X-0000165470Y0000259530D03*
X-0000165470Y0000264101D03*
X-0000151970Y0000259530D03*
X-0000151970Y0000264101D03*
X-0000159970Y0000259530D03*
X-0000156470Y0000259530D03*
X-0000159970Y0000264101D03*
X-0000156470Y0000264101D03*
X-0000165470Y0000273244D03*
X-0000165470Y0000268673D03*
X-0000165470Y0000277816D03*
X-0000151970Y0000268673D03*
X-0000151970Y0000277816D03*
X-0000151970Y0000273244D03*
X-0000159970Y0000273244D03*
X-0000156470Y0000273244D03*
X-0000159970Y0000268673D03*
X-0000156470Y0000268673D03*
X-0000159970Y0000277816D03*
X-0000156470Y0000277816D03*
X-0000165470Y0000291530D03*
X-0000165470Y0000282387D03*
X-0000151970Y0000291530D03*
X-0000151970Y0000286959D03*
X-0000151970Y0000282387D03*
X-0000165470Y0000286959D03*
X-0000159970Y0000291530D03*
X-0000156470Y0000291530D03*
X-0000159970Y0000282387D03*
X-0000156470Y0000282387D03*
X-0000159970Y0000286959D03*
X-0000156470Y0000286959D03*
X-0000138720Y0000122280D03*
X-0000138720Y0000125780D03*
X-0000138220Y0000153280D03*
X-0000138220Y0000156780D03*
X-0000146748Y0000183328D03*
X-0000143248Y0000183328D03*
X-0000146220Y0000200780D03*
X-0000143470Y0000197530D03*
X-0000139970Y0000197530D03*
X-0000146220Y0000204280D03*
X-0000138720Y0000212780D03*
X-0000138720Y0000216280D03*
X-0000138720Y0000208280D03*
X-0000138720Y0000204780D03*
X-0000141470Y0000222030D03*
X-0000144970Y0000222030D03*
X-0000149470Y0000226280D03*
X-0000138720Y0000225280D03*
X-0000138720Y0000228780D03*
X-0000148470Y0000259530D03*
X-0000148470Y0000264101D03*
X-0000142970Y0000259530D03*
X-0000139470Y0000259530D03*
X-0000142970Y0000264101D03*
X-0000139470Y0000264101D03*
X-0000148470Y0000268673D03*
X-0000148470Y0000277816D03*
X-0000148470Y0000273244D03*
X-0000142970Y0000268673D03*
X-0000139470Y0000268673D03*
X-0000142970Y0000277816D03*
X-0000139470Y0000277816D03*
X-0000142970Y0000273244D03*
X-0000139470Y0000273244D03*
X-0000148470Y0000291530D03*
X-0000148470Y0000286959D03*
X-0000148470Y0000282387D03*
X-0000142970Y0000291530D03*
X-0000139470Y0000291530D03*
X-0000142970Y0000286959D03*
X-0000139470Y0000286959D03*
X-0000142970Y0000282387D03*
X-0000139470Y0000282387D03*
X-0000140220Y0000366780D03*
X-0000140220Y0000363280D03*
X-0000136720Y0000363280D03*
X-0000136720Y0000366780D03*
X-0000119420Y0000137080D03*
X-0000119420Y0000133580D03*
X-0000119470Y0000140380D03*
X-0000120220Y0000248530D03*
X-0000120220Y0000252030D03*
X-0000127220Y0000323030D03*
X-0000127220Y0000326530D03*
X-0000131470Y0000332530D03*
X-0000127970Y0000332530D03*
X-0000127970Y0000336030D03*
X-0000131470Y0000336030D03*
X-0000121570Y0000340530D03*
X-0000125070Y0000340530D03*
X-0000115970Y0000137080D03*
X-0000115970Y0000133580D03*
X-0000106020Y0000136880D03*
X-0000109220Y0000136880D03*
X-0000112520Y0000136880D03*
X-0000115970Y0000140380D03*
X-0000106020Y0000140380D03*
X-0000109220Y0000140380D03*
X-0000112520Y0000140380D03*
X-0000106070Y0000184330D03*
X-0000109352Y0000191930D03*
X-0000109352Y0000188430D03*
X-0000106070Y0000188430D03*
X-0000103470Y0000244962D03*
X-0000103470Y0000241730D03*
X-0000104170Y0000340530D03*
X-0000115370Y0000361280D03*
X-0000115370Y0000357780D03*
X-0000091820Y0000136880D03*
X-0000098520Y0000136880D03*
X-0000102020Y0000136880D03*
X-0000095200Y0000136880D03*
X-0000093320Y0000154880D03*
X-0000091820Y0000140380D03*
X-0000098520Y0000140380D03*
X-0000102020Y0000140380D03*
X-0000093220Y0000151280D03*
X-0000093220Y0000147780D03*
X-0000095200Y0000140380D03*
X-0000093320Y0000158380D03*
X-0000102570Y0000184330D03*
X-0000090520Y0000184080D03*
X-0000090520Y0000180580D03*
X-0000094170Y0000196330D03*
X-0000090670Y0000196330D03*
X-0000102570Y0000188430D03*
X-0000098170Y0000188330D03*
X-0000094670Y0000188330D03*
X-0000099970Y0000244962D03*
X-0000099970Y0000241730D03*
X-0000093852Y0000275030D03*
X-0000093852Y0000278530D03*
X-0000095670Y0000340530D03*
X-0000092170Y0000340530D03*
X-0000088170Y0000340530D03*
X-0000100670Y0000340530D03*
X-0000089620Y0000353080D03*
X-0000089620Y0000349580D03*
X-0000095120Y0000349580D03*
X-0000095120Y0000353080D03*
X-0000072970Y0000177030D03*
X-0000078720Y0000184080D03*
X-0000078720Y0000180580D03*
X-0000074820Y0000184080D03*
X-0000074820Y0000180580D03*
X-0000086370Y0000180430D03*
X-0000082870Y0000180430D03*
X-0000074578Y0000196261D03*
X-0000084670Y0000340530D03*
X-0000073970Y0000340530D03*
X-0000077470Y0000340530D03*
X-0000085220Y0000357780D03*
X-0000085220Y0000361280D03*
X-0000073370Y0000357780D03*
X-0000073370Y0000361280D03*
X-0000081720Y0000361280D03*
X-0000081720Y0000357780D03*
X-0000056220Y0000150780D03*
X-0000056220Y0000154280D03*
X-0000069470Y0000177030D03*
X-0000070670Y0000180430D03*
X-0000067170Y0000180430D03*
X-0000058848Y0000180430D03*
X-0000055348Y0000180430D03*
X-0000071078Y0000196261D03*
X-0000058843Y0000192300D03*
X-0000055343Y0000192300D03*
X-0000066869Y0000191888D03*
X-0000066869Y0000188388D03*
X-0000066920Y0000211680D03*
X-0000066920Y0000208180D03*
X-0000059550Y0000288550D03*
X-0000063050Y0000288550D03*
X-0000060150Y0000295300D03*
X-0000056650Y0000295300D03*
X-0000067700Y0000296650D03*
X-0000067700Y0000293150D03*
X-0000064300Y0000293150D03*
X-0000064300Y0000296650D03*
X-0000056113Y0000310179D03*
X-0000056413Y0000303679D03*
X-0000056413Y0000299679D03*
X-0000067700Y0000305750D03*
X-0000067700Y0000309250D03*
X-0000064300Y0000309250D03*
X-0000064300Y0000305750D03*
X-0000061020Y0000342780D03*
X-0000061020Y0000346280D03*
X-0000057470Y0000356030D03*
X-0000061020Y0000349780D03*
X-0000061020Y0000353280D03*
X-0000057470Y0000352730D03*
X-0000045020Y0000152280D03*
X-0000045020Y0000155780D03*
X-0000051220Y0000184080D03*
X-0000051220Y0000180580D03*
X-0000043120Y0000180580D03*
X-0000043120Y0000184080D03*
X-0000054980Y0000215830D03*
X-0000051480Y0000215830D03*
X-0000048113Y0000293279D03*
X-0000051613Y0000293279D03*
X-0000044613Y0000293279D03*
X-0000041113Y0000293279D03*
X-0000055200Y0000292050D03*
X-0000055200Y0000288550D03*
X-0000052613Y0000310179D03*
X-0000052913Y0000303679D03*
X-0000052913Y0000299679D03*
X-0000039470Y0000345280D03*
X-0000039494Y0000331280D03*
X-0000039494Y0000334780D03*
X-0000039494Y0000338093D03*
X-0000042994Y0000338093D03*
X-0000039470Y0000341640D03*
X-0000042970Y0000341640D03*
X-0000044970Y0000354530D03*
X-0000048470Y0000354530D03*
X-0000039470Y0000348780D03*
X-0000053970Y0000356030D03*
X-0000053970Y0000352730D03*
X-0000045720Y0000369780D03*
X-0000045720Y0000373280D03*
X-0000045720Y0000385780D03*
X-0000045720Y0000389280D03*
X-0000038720Y0000152280D03*
X-0000029720Y0000152280D03*
X-0000038720Y0000155780D03*
X-0000029720Y0000155780D03*
X-0000027284Y0000184383D03*
X-0000023784Y0000184383D03*
X-0000039170Y0000180430D03*
X-0000035670Y0000180430D03*
X-0000031470Y0000180430D03*
X-0000027970Y0000180430D03*
X-0000025070Y0000198730D03*
X-0000023970Y0000205680D03*
X-0000027470Y0000205680D03*
X-0000035313Y0000304079D03*
X-0000038813Y0000304079D03*
X-0000035313Y0000300579D03*
X-0000038813Y0000300579D03*
X-0000028031Y0000324780D03*
X-0000028031Y0000321280D03*
X-0000024531Y0000324780D03*
X-0000024531Y0000321280D03*
X-0000024720Y0000390530D03*
X-0000028220Y0000390530D03*
X-0000021220Y0000152280D03*
X-0000012720Y0000152280D03*
X-0000021220Y0000155780D03*
X-0000012720Y0000155780D03*
X-0000021570Y0000198730D03*
X-0000009720Y0000289780D03*
X-0000009720Y0000286280D03*
X-0000012270Y0000299030D03*
X-0000008770Y0000299030D03*
X-0000020531Y0000321280D03*
X-0000020531Y0000324780D03*
X-0000016720Y0000338780D03*
X-0000016720Y0000342280D03*
X-0000008220Y0000390530D03*
X-0000000551Y0000234830D03*
X-0000004051Y0000234830D03*
X-0000000770Y0000243430D03*
X-0000004270Y0000243430D03*
X-0000004270Y0000249530D03*
X-0000000770Y0000249530D03*
X-0000004270Y0000254530D03*
X-0000000770Y0000254530D03*
X0000006880Y0000289780D03*
X0000006880Y0000286280D03*
X-0000005220Y0000286280D03*
X-0000005220Y0000289780D03*
X0000002880Y0000286280D03*
X0000002880Y0000289780D03*
X-0000001120Y0000289780D03*
X-0000001120Y0000286280D03*
X0000005030Y0000296030D03*
X0000001530Y0000296030D03*
X0000004530Y0000307530D03*
X0000001030Y0000307530D03*
X0000004530Y0000304030D03*
X0000001030Y0000304030D03*
X-0000002220Y0000306080D03*
X-0000002220Y0000309580D03*
X-0000002220Y0000302530D03*
X-0000002220Y0000299030D03*
X0000004530Y0000311030D03*
X0000001030Y0000311030D03*
X0000008030Y0000311030D03*
X-0000000820Y0000317530D03*
X-0000004320Y0000317530D03*
X-0000006720Y0000338780D03*
X-0000006720Y0000342280D03*
X0000002780Y0000345530D03*
X-0000000720Y0000345530D03*
X-0000004720Y0000390530D03*
X0000016280Y0000290030D03*
X0000016280Y0000286530D03*
X0000012780Y0000290030D03*
X0000012780Y0000286530D03*
X0000020030Y0000293530D03*
X0000023530Y0000293530D03*
X0000020030Y0000286530D03*
X0000023530Y0000286530D03*
X0000020030Y0000290030D03*
X0000023530Y0000290030D03*
X0000008530Y0000296030D03*
X0000012030Y0000296030D03*
X0000020030Y0000299530D03*
X0000023530Y0000299530D03*
X0000020030Y0000305030D03*
X0000023530Y0000305030D03*
X0000020030Y0000309030D03*
X0000023530Y0000309030D03*
X0000020030Y0000313530D03*
X0000023530Y0000313530D03*
X0000008530Y0000299530D03*
X0000012030Y0000299530D03*
X0000011530Y0000311030D03*
X0000012780Y0000303780D03*
X0000012780Y0000307280D03*
X0000023530Y0000317780D03*
X0000023530Y0000321280D03*
X0000019780Y0000317780D03*
X0000019780Y0000321280D03*
X0000014280Y0000345530D03*
X0000010780Y0000345530D03*
X0000022280Y0000345530D03*
X0000031250Y0000272500D03*
X0000034750Y0000272500D03*
X0000031250Y0000269030D03*
X0000034750Y0000269030D03*
X0000025780Y0000345530D03*
X0000052330Y0000218030D03*
X0000055830Y0000218030D03*
X0000052330Y0000233030D03*
X0000055830Y0000233030D03*
X0000052111Y0000239530D03*
X0000055611Y0000239530D03*
X0000052111Y0000243030D03*
X0000055611Y0000243030D03*
X0000055830Y0000248530D03*
X0000052330Y0000248530D03*
X0000052330Y0000255530D03*
X0000055830Y0000255530D03*
X0000042030Y0000305030D03*
X0000045530Y0000305030D03*
X0000042030Y0000301530D03*
X0000045530Y0000301530D03*
X0000049780Y0000319280D03*
X0000049780Y0000315780D03*
X0000053607Y0000315780D03*
X0000053607Y0000319280D03*
X0000046280Y0000315780D03*
X0000046280Y0000319280D03*
X0000064180Y0000177243D03*
X0000064180Y0000173743D03*
X0000059780Y0000273780D03*
X0000059780Y0000270280D03*
X0000056280Y0000270280D03*
X0000056280Y0000273780D03*
X0000068230Y0000319280D03*
X0000071730Y0000319280D03*
X0000061030Y0000319280D03*
X0000057530Y0000319280D03*
X0000071730Y0000315780D03*
X0000068230Y0000315780D03*
X0000057530Y0000315780D03*
X0000061030Y0000315780D03*
X0000064780Y0000319280D03*
X0000064780Y0000315780D03*
X0000084030Y0000155030D03*
X0000087530Y0000155030D03*
X0000087550Y0000166000D03*
X0000084050Y0000166000D03*
X0000084030Y0000159030D03*
X0000087530Y0000159030D03*
X0000087550Y0000162300D03*
X0000084050Y0000162300D03*
X0000075280Y0000319280D03*
X0000075280Y0000315780D03*
X0000081497Y0000358280D03*
X0000073497Y0000358280D03*
X0000077497Y0000358280D03*
X0000081497Y0000361780D03*
X0000073497Y0000361780D03*
X0000077497Y0000361780D03*
X0000088250Y0000278500D03*
X0000091750Y0000278500D03*
X0000096000Y0000294750D03*
X0000096000Y0000291250D03*
X0000088030Y0000308530D03*
X0000091530Y0000308530D03*
X0000091530Y0000301530D03*
X0000088030Y0000301530D03*
X0000088030Y0000312030D03*
X0000091530Y0000312030D03*
X0000091530Y0000305030D03*
X0000088030Y0000305030D03*
X0000108530Y0000151030D03*
X0000105030Y0000151030D03*
X0000108530Y0000154530D03*
X0000105030Y0000154530D03*
X0000105030Y0000158030D03*
X0000108530Y0000158030D03*
X0000105030Y0000161530D03*
X0000108530Y0000161530D03*
X0000104880Y0000280280D03*
X0000117280Y0000271280D03*
X0000117280Y0000274780D03*
X0000104899Y0000272780D03*
X0000104899Y0000276280D03*
X0000117280Y0000288280D03*
X0000117280Y0000284780D03*
X0000104880Y0000283780D03*
X0000104530Y0000304991D03*
X0000108030Y0000304991D03*
X0000104530Y0000325330D03*
X0000108030Y0000325330D03*
X0000117418Y0000338500D03*
X0000117418Y0000335000D03*
X0000128680Y0000185630D03*
X0000128680Y0000189130D03*
X0000128680Y0000194380D03*
X0000128680Y0000197880D03*
X0000122280Y0000271280D03*
X0000122280Y0000274780D03*
X0000127280Y0000271280D03*
X0000127280Y0000274780D03*
X0000132280Y0000271280D03*
X0000132280Y0000274780D03*
X0000132280Y0000288280D03*
X0000132280Y0000284780D03*
X0000127280Y0000288280D03*
X0000127280Y0000284780D03*
X0000122280Y0000288280D03*
X0000122280Y0000284780D03*
X0000120918Y0000338500D03*
X0000120918Y0000335000D03*
X0000124030Y0000363030D03*
X0000127530Y0000363030D03*
X0000146530Y0000305030D03*
X0000150030Y0000305030D03*
X0000146530Y0000308405D03*
X0000150030Y0000308405D03*
X0000150030Y0000311780D03*
X0000146530Y0000311780D03*
X0000150030Y0000325355D03*
X0000146530Y0000325355D03*
X0000150030Y0000315155D03*
X0000146530Y0000315155D03*
X0000146530Y0000318530D03*
X0000150030Y0000318530D03*
X0000146530Y0000321905D03*
X0000150030Y0000321905D03*
X0000150030Y0000329330D03*
X0000146530Y0000329330D03*
X0000166780Y0000192500D03*
X0000163280Y0000192500D03*
X0000166000Y0000259280D03*
X0000166000Y0000255780D03*
X0000153530Y0000328855D03*
X0000153530Y0000325355D03*
X0000163280Y0000371780D03*
X0000163280Y0000375280D03*
X0000175763Y0000259280D03*
X0000175763Y0000255780D03*
X0000172509Y0000259280D03*
X0000172509Y0000255780D03*
X0000169254Y0000259280D03*
X0000169254Y0000255780D03*
X0000179017Y0000259280D03*
X0000179017Y0000255780D03*
X0000182271Y0000259280D03*
X0000182271Y0000255780D03*
X0000167780Y0000290780D03*
X0000167780Y0000294280D03*
X0000178423Y0000371780D03*
X0000178423Y0000375280D03*
X0000167137Y0000371780D03*
X0000167137Y0000375280D03*
X0000174566Y0000371780D03*
X0000174566Y0000375280D03*
X0000182280Y0000371780D03*
X0000182280Y0000375280D03*
X0000170709Y0000371780D03*
X0000170709Y0000375280D03*
X0000188780Y0000259280D03*
X0000188780Y0000255780D03*
X0000185526Y0000259280D03*
X0000185526Y0000255780D03*
X0000189000Y0000371750D03*
X0000189000Y0000375250D03*
X0000185500Y0000371750D03*
X0000185500Y0000375250D03*
G54D23*
X-0000186720Y0000319530D03*
X0000146280Y0000247030D03*
X0000146280Y0000257030D03*
X0000146280Y0000267030D03*
X0000146280Y0000277030D03*
X0000146280Y0000287030D03*
X0000146280Y0000337030D03*
X0000146280Y0000347030D03*
X0000146280Y0000357030D03*
X0000146280Y0000367030D03*
X0000146280Y0000377030D03*
X0000156280Y0000247030D03*
X0000156280Y0000257030D03*
X0000156280Y0000267030D03*
X0000156280Y0000277030D03*
X0000156280Y0000287030D03*
X0000156280Y0000297030D03*
X0000156280Y0000337030D03*
X0000156280Y0000347030D03*
X0000156280Y0000357030D03*
X0000156280Y0000367030D03*
X0000156280Y0000377030D03*
X0000156280Y0000387030D03*
G54D32*
X-0000128870Y0000204830D03*
X-0000111570Y0000204830D03*
G54D51*
X-0000010270Y0000304480D03*
G54D33*
X-0000122856Y0000230280D03*
X-0000122856Y0000224280D03*
X-0000113584Y0000185930D03*
X-0000113584Y0000191930D03*
X-0000114220Y0000248530D03*
X-0000114220Y0000242530D03*
X-0000098584Y0000275030D03*
X-0000098584Y0000281030D03*
X-0000051220Y0000150030D03*
X-0000051220Y0000156030D03*
X-0000013720Y0000226030D03*
X-0000013720Y0000232030D03*
X-0000001220Y0000132530D03*
X-0000001220Y0000126530D03*
X0000078280Y0000275530D03*
X0000078280Y0000281530D03*
X0000103220Y0000340970D03*
X0000103220Y0000346970D03*
X0000109220Y0000340970D03*
X0000109220Y0000346970D03*
X0000137280Y0000355030D03*
X0000137280Y0000349030D03*
G54D60*
X0000048046Y0000181967D03*
X0000048046Y0000180392D03*
X0000048046Y0000178817D03*
X0000048046Y0000177243D03*
X0000048046Y0000175668D03*
X0000048046Y0000174093D03*
X0000056314Y0000174093D03*
X0000056314Y0000175668D03*
X0000056314Y0000177243D03*
X0000056314Y0000178817D03*
X0000056314Y0000180392D03*
X0000056314Y0000181967D03*
X0000118654Y0000351817D03*
X0000118654Y0000350243D03*
X0000127906Y0000350243D03*
X0000127906Y0000351817D03*
G54D24*
X-0000181634Y0000374530D03*
X-0000188720Y0000381617D03*
G54D42*
X-0000086551Y0000108518D03*
X0000150142Y0000108518D03*
G54D15*
X-0000197720Y0000087030D03*
X-0000200220Y0000407030D03*
X-0000128720Y0000111030D03*
X0000042000Y0000159000D03*
X0000066000Y0000183500D03*
X0000101280Y0000373530D03*
X0000140000Y0000328500D03*
X0000156280Y0000088030D03*
X0000163280Y0000138530D03*
G54D70*
G01X0000194780Y0000397530D02*
X0000194780Y0000097530D01*
X-0000235220Y0000097530D01*
X-0000235220Y0000397530D01*
X0000194780Y0000397530D01*
G54D16*
X-0000206620Y0000117130D03*
X-0000206620Y0000162130D03*
G54D34*
X-0000129720Y0000224800D03*
X-0000129720Y0000232280D03*
X-0000105720Y0000282510D03*
X-0000105720Y0000275030D03*
G54D61*
X0000051780Y0000289030D03*
X0000051780Y0000297030D03*
G54D52*
X-0000017070Y0000304480D03*
X-0000017070Y0000311780D03*
X-0000009470Y0000311780D03*
G54D25*
X-0000195807Y0000374530D03*
G54D43*
X-0000092589Y0000206030D03*
X-0000088651Y0000206030D03*
X-0000088589Y0000213780D03*
X-0000088589Y0000209893D03*
X-0000088532Y0000241489D03*
X-0000088532Y0000245425D03*
X-0000088432Y0000237500D03*
X-0000092368Y0000237500D03*
X-0000084600Y0000202069D03*
X-0000084600Y0000198131D03*
X-0000076839Y0000202130D03*
X-0000072901Y0000202130D03*
X-0000076720Y0000209999D03*
X-0000076720Y0000206061D03*
X-0000084651Y0000213780D03*
X-0000080600Y0000210069D03*
X-0000080600Y0000206131D03*
X-0000084651Y0000209893D03*
X-0000072800Y0000229669D03*
X-0000072800Y0000225731D03*
X-0000076731Y0000233600D03*
X-0000080669Y0000233600D03*
X-0000080669Y0000229700D03*
X-0000076731Y0000229700D03*
X-0000076689Y0000241530D03*
X-0000072751Y0000241530D03*
X-0000076689Y0000245530D03*
X-0000072751Y0000245530D03*
X-0000084520Y0000241499D03*
X-0000084520Y0000237561D03*
X-0000068851Y0000202130D03*
X-0000064913Y0000202130D03*
X-0000057051Y0000202130D03*
X-0000060989Y0000202130D03*
X-0000061020Y0000213998D03*
X-0000061020Y0000217936D03*
X-0000064959Y0000217791D03*
X-0000068883Y0000233599D03*
X-0000068883Y0000229661D03*
X-0000057080Y0000225799D03*
X-0000057080Y0000221861D03*
X-0000064920Y0000233599D03*
X-0000064920Y0000229661D03*
X-0000057080Y0000233699D03*
X-0000057080Y0000229761D03*
X-0000064959Y0000221729D03*
X-0000057051Y0000245530D03*
X-0000060989Y0000245530D03*
X-0000064951Y0000245530D03*
X-0000068889Y0000245530D03*
X-0000068889Y0000241530D03*
X-0000064951Y0000241530D03*
X-0000045120Y0000198061D03*
X-0000045120Y0000201999D03*
X-0000049151Y0000202130D03*
X-0000053089Y0000202130D03*
X-0000049151Y0000206030D03*
X-0000053089Y0000206030D03*
X-0000041300Y0000206131D03*
X-0000041300Y0000210069D03*
X-0000041220Y0000217861D03*
X-0000045220Y0000210049D03*
X-0000045220Y0000206111D03*
X-0000041189Y0000213930D03*
X-0000053120Y0000225761D03*
X-0000053120Y0000229699D03*
X-0000049214Y0000221730D03*
X-0000053152Y0000221730D03*
X-0000041220Y0000221799D03*
X-0000041408Y0000225698D03*
X-0000041408Y0000229668D03*
X-0000045267Y0000233624D03*
X-0000041329Y0000233624D03*
X-0000049289Y0000237630D03*
X-0000045351Y0000237630D03*
X-0000053189Y0000245530D03*
X-0000049251Y0000245530D03*
X-0000041189Y0000241530D03*
X-0000037389Y0000206012D03*
X-0000033451Y0000206012D03*
X-0000037389Y0000209948D03*
X-0000033451Y0000209948D03*
X-0000037251Y0000213930D03*
X-0000025532Y0000209944D03*
X-0000025532Y0000213882D03*
X-0000037470Y0000225698D03*
X-0000037470Y0000229668D03*
X-0000033466Y0000233610D03*
X-0000037404Y0000233610D03*
X-0000033351Y0000221730D03*
X-0000037289Y0000221730D03*
X-0000037251Y0000241530D03*
X-0000025532Y0000253300D03*
X-0000021594Y0000253300D03*
G54D71*
G01X0000194780Y0000097530D02*
X0000194780Y0000082530D01*
G02X0000189780Y0000077530I-0000005000J0D01*
G01X-0000230220Y0000077530D01*
G02X-0000235220Y0000082530I0J0000005000D01*
G01X-0000235220Y0000097530D01*
G01X0000194780Y0000397530D02*
X-0000235220Y0000397530D01*
X-0000235220Y0000097530D01*
X0000194780Y0000097530D01*
X0000194780Y0000412530D01*
G03X0000189780Y0000417530I-0000005000J0D01*
G01X-0000230220Y0000417530D01*
G03X-0000235220Y0000412530I0J-0000005000D01*
G01X-0000235220Y0000397530D01*
G54D62*
X0000089000Y0000270530D03*
X0000089000Y0000284000D03*
X0000089280Y0000318530D03*
X0000097000Y0000270530D03*
X0000097000Y0000284000D03*
X0000097280Y0000318530D03*
G54D35*
X-0000130470Y0000355970D03*
X-0000124470Y0000355970D03*
X-0000130470Y0000349970D03*
X-0000124470Y0000349970D03*
X-0000109720Y0000224030D03*
X-0000115720Y0000224030D03*
X0000056180Y0000164530D03*
X0000050180Y0000164530D03*
X0000051880Y0000192030D03*
X0000045880Y0000192030D03*
X0000051880Y0000198030D03*
X0000045880Y0000198030D03*
X0000050049Y0000212030D03*
X0000056049Y0000212030D03*
X0000055280Y0000307030D03*
X0000061280Y0000307030D03*
X0000072280Y0000307030D03*
X0000086200Y0000291700D03*
X0000080200Y0000291700D03*
X0000078280Y0000307030D03*
X0000117680Y0000189130D03*
X0000123680Y0000189130D03*
G54D53*
X0000003717Y0000151093D03*
X0000003717Y0000153061D03*
X0000003717Y0000155030D03*
X0000003717Y0000156999D03*
X0000003717Y0000158967D03*
X0000020843Y0000153061D03*
X0000020843Y0000151093D03*
X0000020843Y0000158967D03*
X0000020843Y0000156999D03*
X0000020843Y0000155030D03*
G54D26*
X-0000164720Y0000299030D03*
G54D17*
X-0000202644Y0000127642D03*
X-0000202644Y0000135634D03*
X-0000195557Y0000127642D03*
X-0000195557Y0000135634D03*
X-0000202644Y0000143626D03*
X-0000202644Y0000151618D03*
X-0000195557Y0000143626D03*
X-0000195557Y0000151618D03*
X-0000188116Y0000126638D03*
X-0000183116Y0000131638D03*
X-0000188116Y0000152622D03*
X-0000183116Y0000147622D03*
X-0000178116Y0000126638D03*
X-0000173116Y0000131638D03*
X-0000168116Y0000126638D03*
X-0000178116Y0000152622D03*
X-0000173116Y0000147622D03*
X-0000168116Y0000152622D03*
X-0000163116Y0000131638D03*
X-0000158116Y0000126638D03*
X-0000153116Y0000131638D03*
X-0000148116Y0000126638D03*
X-0000163116Y0000147622D03*
X-0000158116Y0000152622D03*
X-0000153116Y0000147622D03*
X-0000148116Y0000152622D03*
X-0000143116Y0000131638D03*
X-0000143116Y0000147622D03*
G54D44*
X-0000071535Y0000113841D03*
X-0000073735Y0000113841D03*
X-0000078587Y0000122429D03*
X-0000078587Y0000124629D03*
X-0000066720Y0000121330D03*
X-0000065530Y0000116688D03*
X-0000067730Y0000116688D03*
X-0000058720Y0000116730D03*
X-0000055669Y0000113779D03*
X-0000060920Y0000116730D03*
X-0000059464Y0000119030D03*
X-0000059625Y0000124272D03*
X-0000061825Y0000124272D03*
X-0000066720Y0000123530D03*
X-0000051911Y0000121330D03*
X-0000042320Y0000116730D03*
X-0000051213Y0000115341D03*
X-0000049013Y0000115341D03*
X-0000044520Y0000116730D03*
X-0000053520Y0000113830D03*
X-0000044107Y0000137643D03*
X-0000051911Y0000123530D03*
X-0000041907Y0000137643D03*
X-0000047120Y0000140230D03*
X-0000047120Y0000142430D03*
X-0000038220Y0000123373D03*
X-0000024820Y0000122430D03*
X-0000027019Y0000122430D03*
X-0000029820Y0000116630D03*
X-0000027123Y0000116669D03*
X-0000038202Y0000113541D03*
X-0000024923Y0000116669D03*
X-0000032020Y0000116630D03*
X-0000036002Y0000113541D03*
X-0000034464Y0000119030D03*
X-0000036020Y0000123373D03*
X-0000032296Y0000137643D03*
X-0000030096Y0000137643D03*
X-0000014477Y0000115830D03*
X-0000014477Y0000113630D03*
X-0000020486Y0000121672D03*
X-0000018286Y0000121672D03*
X0000007305Y0000114741D03*
X0000005105Y0000114741D03*
X0000007305Y0000124020D03*
X0000005105Y0000124020D03*
X0000012326Y0000114730D03*
X0000023680Y0000114630D03*
X0000019116Y0000114741D03*
X0000016916Y0000114741D03*
X0000010126Y0000114730D03*
X0000019276Y0000119030D03*
X0000022822Y0000137643D03*
X0000011011Y0000137643D03*
X0000016916Y0000124020D03*
X0000013211Y0000137643D03*
X0000019116Y0000124020D03*
X0000038280Y0000121330D03*
X0000028727Y0000114741D03*
X0000034633Y0000114741D03*
X0000036833Y0000114741D03*
X0000025880Y0000114630D03*
X0000030927Y0000114741D03*
X0000025022Y0000137643D03*
X0000028727Y0000123972D03*
X0000036833Y0000137643D03*
X0000030926Y0000123972D03*
X0000034633Y0000137643D03*
X0000052249Y0000114688D03*
X0000044980Y0000116654D03*
X0000054449Y0000114688D03*
X0000042738Y0000114688D03*
X0000040538Y0000114688D03*
X0000047180Y0000116654D03*
X0000044276Y0000119030D03*
X0000040480Y0000121330D03*
X0000046444Y0000137643D03*
X0000052349Y0000123972D03*
X0000054549Y0000123972D03*
X0000048644Y0000137643D03*
G54D45*
X-0000073220Y0000145300D03*
X-0000073220Y0000167760D03*
G54D63*
X0000117280Y0000232530D03*
X0000117280Y0000262530D03*
X0000117280Y0000296030D03*
X0000117280Y0000326030D03*
X0000132280Y0000232530D03*
X0000127280Y0000232530D03*
X0000122280Y0000232530D03*
X0000122280Y0000262530D03*
X0000127280Y0000262530D03*
X0000132280Y0000262530D03*
X0000132280Y0000296030D03*
X0000127280Y0000296030D03*
X0000122280Y0000296030D03*
X0000122280Y0000326030D03*
X0000127280Y0000326030D03*
X0000132280Y0000326030D03*
G54D54*
X0000006280Y0000330790D03*
X0000006280Y0000338270D03*
X-0000000720Y0000334530D03*
X0000017780Y0000330790D03*
X0000017780Y0000338270D03*
X0000010780Y0000334530D03*
X0000022280Y0000334530D03*
X0000029280Y0000330790D03*
X0000029280Y0000338270D03*
G54D27*
X-0000164720Y0000309030D03*
X-0000164720Y0000319030D03*
X-0000164720Y0000329030D03*
X-0000164720Y0000339030D03*
X-0000164720Y0000349030D03*
X-0000164720Y0000359030D03*
X-0000164720Y0000379030D03*
X-0000164720Y0000369030D03*
X-0000164720Y0000389030D03*
X-0000154720Y0000299030D03*
X-0000154720Y0000309030D03*
X-0000154720Y0000329030D03*
X-0000154720Y0000319030D03*
X-0000154720Y0000339030D03*
X-0000154720Y0000359030D03*
X-0000154720Y0000349030D03*
X-0000154720Y0000369030D03*
X-0000154720Y0000379030D03*
X-0000154720Y0000389030D03*
G54D18*
X-0000202820Y0000187030D03*
X-0000202820Y0000182730D03*
X-0000151220Y0000187030D03*
X-0000151320Y0000181730D03*
X-0000007022Y0000227376D03*
X-0000007022Y0000231376D03*
G54D36*
X-0000126590Y0000371530D03*
X-0000126590Y0000389837D03*
X-0000097850Y0000371530D03*
X-0000097850Y0000389837D03*
X-0000084590Y0000371530D03*
X-0000084590Y0000389837D03*
X-0000055850Y0000371530D03*
X-0000055850Y0000389837D03*
G54D46*
X-0000081488Y0000146530D03*
X-0000081488Y0000156530D03*
X-0000081488Y0000166530D03*
X-0000064952Y0000156530D03*
X-0000064952Y0000146530D03*
X-0000064952Y0000166530D03*
G54D37*
X-0000118519Y0000367987D03*
X-0000115370Y0000372711D03*
X-0000112220Y0000367987D03*
X-0000109070Y0000372711D03*
X-0000105921Y0000367987D03*
X-0000076519Y0000367987D03*
X-0000073370Y0000372711D03*
X-0000070220Y0000367987D03*
X-0000067070Y0000372711D03*
X-0000063921Y0000367987D03*
G54D28*
X-0000136720Y0000308518D03*
X-0000136720Y0000319542D03*
G54D19*
X-0000207320Y0000207030D03*
X-0000212320Y0000217030D03*
X-0000202320Y0000207030D03*
X-0000202320Y0000217030D03*
X-0000202320Y0000212030D03*
X-0000207320Y0000217030D03*
X-0000212320Y0000212030D03*
X-0000212320Y0000207030D03*
X-0000207320Y0000212030D03*
X-0000207320Y0000221630D03*
X-0000212320Y0000221630D03*
X-0000202320Y0000221630D03*
X-0000197320Y0000207030D03*
X-0000197320Y0000217030D03*
X-0000197320Y0000212030D03*
X-0000197320Y0000221030D03*
X-0000158220Y0000207030D03*
X-0000163220Y0000217030D03*
X-0000153220Y0000207030D03*
X-0000153220Y0000217030D03*
X-0000153220Y0000212030D03*
X-0000158220Y0000217030D03*
X-0000163220Y0000207030D03*
X-0000163220Y0000212030D03*
X-0000158220Y0000212030D03*
X-0000158220Y0000222030D03*
X-0000163220Y0000222030D03*
X-0000153220Y0000222030D03*
X-0000148220Y0000207030D03*
X-0000148220Y0000217030D03*
X-0000148220Y0000212030D03*
X-0000148220Y0000222030D03*
X-0000107220Y0000313030D03*
X-0000107220Y0000319230D03*
X-0000107220Y0000326730D03*
X-0000107220Y0000334230D03*
X-0000087220Y0000313230D03*
X-0000101220Y0000313230D03*
X-0000094220Y0000313230D03*
X-0000087220Y0000326730D03*
X-0000087220Y0000319230D03*
X-0000094220Y0000319230D03*
X-0000101220Y0000319230D03*
X-0000094220Y0000326730D03*
X-0000101220Y0000326730D03*
X-0000101220Y0000334230D03*
X-0000087220Y0000334230D03*
X-0000094220Y0000334230D03*
X-0000055720Y0000340030D03*
X-0000055720Y0000345030D03*
X-0000055720Y0000350030D03*
X-0000049863Y0000296679D03*
X-0000041863Y0000296679D03*
X-0000045863Y0000296679D03*
X-0000049863Y0000300679D03*
X-0000041863Y0000304679D03*
X-0000041863Y0000300679D03*
X-0000045863Y0000304679D03*
X-0000049863Y0000304679D03*
X-0000045863Y0000300679D03*
X-0000045720Y0000340030D03*
X-0000045720Y0000345030D03*
X-0000050720Y0000345030D03*
X-0000050720Y0000340030D03*
X-0000050720Y0000350030D03*
X-0000045720Y0000350030D03*
X0000067780Y0000297530D03*
X0000067780Y0000285530D03*
X0000067780Y0000291530D03*
X0000062780Y0000297530D03*
X0000057780Y0000297530D03*
X0000062780Y0000285530D03*
X0000062780Y0000291530D03*
X0000057780Y0000291530D03*
X0000058280Y0000285530D03*
X0000067780Y0000302030D03*
X0000062780Y0000302030D03*
X0000057780Y0000302030D03*
X0000073280Y0000297530D03*
X0000073280Y0000285530D03*
X0000073280Y0000291530D03*
X0000073280Y0000302030D03*
G54D55*
X0000014123Y0000177026D03*
X0000011760Y0000177026D03*
X0000016485Y0000177026D03*
X0000016485Y0000179388D03*
X0000011760Y0000179388D03*
X0000014123Y0000179388D03*
X0000016485Y0000181750D03*
X0000011760Y0000181750D03*
X0000014123Y0000181750D03*
X0000016485Y0000184113D03*
X0000011760Y0000184113D03*
X0000014123Y0000184113D03*
X0000102066Y0000194051D03*
X0000102066Y0000198776D03*
X0000102066Y0000196414D03*
X0000116240Y0000198776D03*
X0000116240Y0000196414D03*
X0000118602Y0000198776D03*
X0000118602Y0000196414D03*
X0000111515Y0000194051D03*
X0000109153Y0000194051D03*
X0000106791Y0000194051D03*
X0000104429Y0000194051D03*
X0000113877Y0000194051D03*
X0000116240Y0000194051D03*
X0000118602Y0000194051D03*
X0000113877Y0000198776D03*
X0000113877Y0000196414D03*
X0000104429Y0000196414D03*
X0000104429Y0000198776D03*
X0000106791Y0000196414D03*
X0000106791Y0000198776D03*
X0000109153Y0000196414D03*
X0000109153Y0000198776D03*
X0000111515Y0000196414D03*
X0000111515Y0000198776D03*
X0000120964Y0000198776D03*
X0000120964Y0000196414D03*
X0000123326Y0000198776D03*
X0000123326Y0000196414D03*
X0000120964Y0000194051D03*
X0000123326Y0000194051D03*
G54D64*
X0000162371Y0000165030D03*
X0000186780Y0000165030D03*
G54D29*
X-0000126706Y0000150209D03*
X-0000126706Y0000152177D03*
X-0000126706Y0000154146D03*
X-0000126706Y0000156114D03*
X-0000126706Y0000158083D03*
X-0000126706Y0000160051D03*
X-0000099934Y0000154146D03*
X-0000099934Y0000152177D03*
X-0000099934Y0000150209D03*
X-0000099934Y0000160051D03*
X-0000099934Y0000158083D03*
X-0000099934Y0000156114D03*
X0000163300Y0000303719D03*
X0000163300Y0000305687D03*
X0000163300Y0000307656D03*
X0000163300Y0000309624D03*
X0000163300Y0000311593D03*
X0000163300Y0000313561D03*
X0000163300Y0000315530D03*
X0000163300Y0000317499D03*
X0000163300Y0000319467D03*
X0000163300Y0000321436D03*
X0000163300Y0000323404D03*
X0000163300Y0000325373D03*
X0000163300Y0000327341D03*
X0000178260Y0000313561D03*
X0000178260Y0000311593D03*
X0000178260Y0000309624D03*
X0000178260Y0000307656D03*
X0000178260Y0000305687D03*
X0000178260Y0000303719D03*
X0000178260Y0000327341D03*
X0000178260Y0000325373D03*
X0000178260Y0000323404D03*
X0000178260Y0000321436D03*
X0000178260Y0000319467D03*
X0000178260Y0000317499D03*
X0000178260Y0000315530D03*
G54D56*
X0000016331Y0000220632D03*
X0000019481Y0000220632D03*
X0000013182Y0000220632D03*
X0000016331Y0000223782D03*
X0000019481Y0000223782D03*
X0000013182Y0000223782D03*
X0000016331Y0000226932D03*
X0000019481Y0000226932D03*
X0000013182Y0000226932D03*
X0000016331Y0000230081D03*
X0000019481Y0000230081D03*
X0000013182Y0000230081D03*
X0000016331Y0000233231D03*
X0000019481Y0000233231D03*
X0000013182Y0000233231D03*
X0000016331Y0000236380D03*
X0000019481Y0000236380D03*
X0000013182Y0000236380D03*
X0000016331Y0000239530D03*
X0000019481Y0000239530D03*
X0000013182Y0000239530D03*
X0000016331Y0000242680D03*
X0000019481Y0000242680D03*
X0000013182Y0000242680D03*
X0000016331Y0000245829D03*
X0000019481Y0000245829D03*
X0000013182Y0000245829D03*
X0000016331Y0000248979D03*
X0000019481Y0000248979D03*
X0000013182Y0000248979D03*
X0000016331Y0000252128D03*
X0000019481Y0000252128D03*
X0000013182Y0000252128D03*
X0000016331Y0000255278D03*
X0000019481Y0000255278D03*
X0000013182Y0000255278D03*
X0000016331Y0000258428D03*
X0000019481Y0000258428D03*
X0000013182Y0000258428D03*
X0000035229Y0000220632D03*
X0000038378Y0000220632D03*
X0000032079Y0000220632D03*
X0000035229Y0000223782D03*
X0000038378Y0000223782D03*
X0000032079Y0000223782D03*
X0000035229Y0000226932D03*
X0000038378Y0000226932D03*
X0000032079Y0000226932D03*
X0000035229Y0000230081D03*
X0000038378Y0000230081D03*
X0000032079Y0000230081D03*
X0000035229Y0000233231D03*
X0000038378Y0000233231D03*
X0000032079Y0000233231D03*
X0000035229Y0000236380D03*
X0000038378Y0000236380D03*
X0000032079Y0000236380D03*
X0000035229Y0000239530D03*
X0000038378Y0000239530D03*
X0000032079Y0000239530D03*
X0000035229Y0000242680D03*
X0000038378Y0000242680D03*
X0000032079Y0000242680D03*
X0000035229Y0000245829D03*
X0000038378Y0000245829D03*
X0000032079Y0000245829D03*
X0000035229Y0000248979D03*
X0000038378Y0000248979D03*
X0000032079Y0000248979D03*
X0000035229Y0000252128D03*
X0000038378Y0000252128D03*
X0000032079Y0000252128D03*
X0000035229Y0000255278D03*
X0000038378Y0000255278D03*
X0000032079Y0000255278D03*
X0000035229Y0000258428D03*
X0000038378Y0000258428D03*
X0000032079Y0000258428D03*
G54D47*
X-0000046764Y0000185379D03*
X-0000044290Y0000187853D03*
G54D65*
X0000163280Y0000200030D03*
X0000163280Y0000210030D03*
X0000163280Y0000220030D03*
X0000187280Y0000220030D03*
X0000187280Y0000210030D03*
G54D38*
X-0000108379Y0000155130D03*
G54D39*
X-0000106420Y0000173030D03*
X-0000094420Y0000173030D03*
X0000174720Y0000291530D03*
X0000186720Y0000291530D03*
G54D48*
X-0000022008Y0000171530D03*
X-0000033032Y0000171530D03*
X-0000011232Y0000212030D03*
X-0000000208Y0000212030D03*
G54D66*
X0000170780Y0000310589D03*
G54D57*
X0000034237Y0000363991D03*
X0000091323Y0000363991D03*
G54D49*
X-0000028220Y0000357780D03*
X-0000028220Y0000379280D03*
X-0000018220Y0000357780D03*
X-0000008220Y0000357780D03*
X-0000018220Y0000379280D03*
X-0000008220Y0000379280D03*
X0000001780Y0000357780D03*
X0000001780Y0000379280D03*
X0000011780Y0000357780D03*
X0000011780Y0000379280D03*
G54D67*
X0000174969Y0000183534D03*
G54D58*
X0000034237Y0000387495D03*
X0000091323Y0000387495D03*
G54D68*
X0000171662Y0000247770D03*
X0000171662Y0000240290D03*
X0000181898Y0000240290D03*
X0000181898Y0000244030D03*
X0000181898Y0000247770D03*
X0000171662Y0000244030D03*
X0000171662Y0000266290D03*
X0000181898Y0000266290D03*
X0000171662Y0000273770D03*
X0000181898Y0000270030D03*
X0000181898Y0000273770D03*
X0000171662Y0000270030D03*
X0000181898Y0000355790D03*
X0000171662Y0000359530D03*
X0000171662Y0000355790D03*
X0000181898Y0000359530D03*
X0000181898Y0000363270D03*
X0000171662Y0000363270D03*
X0000171662Y0000390270D03*
X0000171662Y0000382790D03*
X0000181898Y0000382790D03*
X0000181898Y0000386530D03*
X0000181898Y0000390270D03*
X0000171662Y0000386530D03*
G54D59*
X0000051393Y0000173404D03*
X0000052967Y0000173404D03*
X0000052967Y0000182656D03*
X0000051393Y0000182656D03*
X0000127217Y0000355164D03*
X0000125642Y0000355164D03*
X0000124067Y0000355164D03*
X0000122493Y0000355164D03*
X0000120918Y0000355164D03*
X0000119343Y0000355164D03*
X0000119343Y0000346896D03*
X0000120918Y0000346896D03*
X0000122493Y0000346896D03*
X0000124067Y0000346896D03*
X0000125642Y0000346896D03*
X0000127217Y0000346896D03*
G54D69*
X0000187280Y0000200030D03*
M02*
