G04 ================== begin FILE IDENTIFICATION RECORD ==================*
G04 Layout Name:  C:/Users/lzf/Desktop/ALTERA/0320/max10_dk_c/max10_dk_c.brd*
G04 Film Name:    SOLDER_TOP*
G04 File Format:  Gerber RS274X*
G04 File Origin:  Cadence Allegro 16.6-S023*
G04 Origin Date:  Fri Mar 20 16:34:20 2015*
G04 *
G04 Layer:  BOARD GEOMETRY/SOLDERMASK_TOP*
G04 Layer:  PACKAGE GEOMETRY/SOLDERMASK_TOP*
G04 Layer:  PIN/SOLDERMASK_TOP*
G04 Layer:  VIA CLASS/SOLDERMASK_TOP*
G04 Layer:  BOARD GEOMETRY/OUTLINE*
G04 *
G04 Offset:    (0.00 0.00)*
G04 Mirror:    No*
G04 Mode:      Positive*
G04 Rotation:  0*
G04 FullContactRelief:  No*
G04 UndefLineWidth:     6.00*
G04 ================== end FILE IDENTIFICATION RECORD ====================*
%FSAX55Y55*MOIN*%
%IR0*IPPOS*OFA0.00000B0.00000*MIA0B0*SFA1.00000B1.00000*%
%ADD67O,.064X.112*%
%ADD66O,.064X.134*%
%ADD62R,.08X.106*%
%ADD37O,.07X.109*%
%ADD84O,.061X.174*%
%ADD50C,.02*%
%ADD86O,.174X.061*%
%ADD58C,.013*%
%ADD21C,.024*%
%ADD57R,.054X.129*%
%ADD49R,.105X.02093*%
%ADD39C,.025*%
%ADD31C,.044*%
%ADD18C,.08*%
%ADD23C,.027*%
%ADD17C,.036*%
%ADD85C,.055*%
%ADD44C,.046*%
%ADD26C,.064*%
%ADD27C,.058*%
%ADD14R,.024X.024*%
%ADD63C,.02165*%
%ADD40C,.0248*%
%ADD87R,.055X.055*%
%ADD25R,.064X.064*%
%ADD13C,.089*%
%ADD28R,.058X.058*%
%ADD20C,.05906*%
%ADD51R,.18904X.02093*%
%ADD32C,.06693*%
%ADD83R,.12408X.09691*%
%ADD79R,.24016X.08693*%
%ADD30R,.06693X.06693*%
%ADD15R,.016X.02*%
%ADD16R,.02X.016*%
%ADD35R,.012X.026*%
%ADD71O,.02X.076*%
%ADD46O,.066X.03*%
%ADD36R,.026X.012*%
%ADD78O,.086X.02*%
%ADD76O,.076X.02*%
%ADD59R,.041X.016*%
%ADD22R,.194X.202*%
%ADD38O,.046X.051*%
%ADD72R,.02X.076*%
%ADD47R,.041X.037*%
%ADD81R,.021X.039*%
%ADD77R,.076X.02*%
%ADD60R,.029X.014*%
%ADD29R,.044X.044*%
%ADD68R,.10236X.1063*%
%ADD64R,.063X.043*%
%ADD61R,.014X.029*%
%ADD34R,.044X.044*%
%ADD24R,.021X.049*%
%ADD55R,.043X.047*%
%ADD45R,.047X.043*%
%ADD10C,.109*%
%ADD65R,.074X.054*%
%ADD11C,.254*%
%ADD74R,.054X.074*%
%ADD73R,.015X.096*%
%ADD56R,.106X.106*%
%ADD33R,.067X.056*%
%AMMACRO82*
4,1,16,.04689,.04271,
.04689,-.04271,
-.04689,-.04271,
-.04689,.04271,
-.02989,.04271,
-.02989,.02698,
-.0213,.02698,
-.0213,.04271,
-.0043,.04271,
-.0043,.02698,
.0043,.02698,
.0043,.04271,
.0213,.04271,
.0213,.02698,
.02989,.02698,
.02989,.04271,
.04689,.04271,
0.0*
%
%ADD82MACRO82*%
%ADD41R,.235X.235*%
%ADD75R,.21063X.21063*%
%ADD19C,.13583*%
%ADD48R,.01502X.09437*%
%ADD42O,.03701X.01598*%
%ADD54O,.01496X.03543*%
%ADD43O,.01598X.03701*%
%ADD80R,.08465X.06102*%
%ADD53O,.03543X.01496*%
%ADD12C,.12598*%
%ADD70O,.01496X.0748*%
%ADD69O,.0748X.01496*%
%ADD52R,.12992X.12992*%
%ADD88C,.006*%
%ADD89C,.005*%
G75*
%LPD*%
G75*
G36*
G01X0000125400Y0000161094D02*
X0000125400Y0000152094D01*
X0000135200Y0000152094D01*
X0000135200Y0000161094D01*
X0000133070Y0000161094D01*
X0000133070Y0000159494D01*
X0000132630Y0000159494D01*
X0000132630Y0000161094D01*
X0000130520Y0000161094D01*
X0000130520Y0000159494D01*
X0000130080Y0000159494D01*
X0000130080Y0000161094D01*
X0000127960Y0000161094D01*
X0000127960Y0000159494D01*
X0000127520Y0000159494D01*
X0000127520Y0000161094D01*
X0000125400Y0000161094D01*
G37*
G54D10*
X-0000226720Y0000259530D03*
X-0000226720Y0000279530D03*
X-0000226720Y0000296530D03*
X-0000226720Y0000316530D03*
X-0000226720Y0000334280D03*
X-0000226720Y0000354280D03*
X-0000206720Y0000259530D03*
X-0000206720Y0000279530D03*
X-0000206720Y0000296530D03*
X-0000206720Y0000316530D03*
X-0000206720Y0000334280D03*
X-0000206720Y0000354280D03*
G54D11*
X-0000220220Y0000382530D03*
X-0000105720Y0000118530D03*
X0000122280Y0000382530D03*
X0000174280Y0000118530D03*
G54D20*
X-0000202644Y0000127642D03*
X-0000202644Y0000135634D03*
X-0000195557Y0000127642D03*
X-0000195557Y0000135634D03*
X-0000202644Y0000143626D03*
X-0000202644Y0000151618D03*
X-0000195557Y0000143626D03*
X-0000195557Y0000151618D03*
X-0000188116Y0000126638D03*
X-0000183116Y0000131638D03*
X-0000188116Y0000152622D03*
X-0000183116Y0000147622D03*
X-0000178116Y0000126638D03*
X-0000173116Y0000131638D03*
X-0000168116Y0000126638D03*
X-0000178116Y0000152622D03*
X-0000173116Y0000147622D03*
X-0000168116Y0000152622D03*
X-0000163116Y0000131638D03*
X-0000158116Y0000126638D03*
X-0000153116Y0000131638D03*
X-0000148116Y0000126638D03*
X-0000163116Y0000147622D03*
X-0000158116Y0000152622D03*
X-0000153116Y0000147622D03*
X-0000148116Y0000152622D03*
X-0000143116Y0000131638D03*
X-0000143116Y0000147622D03*
G54D12*
X-0000221220Y0000087530D03*
X-0000221220Y0000406530D03*
X0000179280Y0000087530D03*
X0000179280Y0000406530D03*
G54D30*
X-0000164720Y0000299030D03*
G54D21*
X-0000202820Y0000187030D03*
X-0000202820Y0000182730D03*
X-0000151220Y0000187030D03*
X-0000151320Y0000181730D03*
X-0000007022Y0000227376D03*
X-0000007022Y0000231376D03*
X0000141180Y0000205130D03*
G54D22*
X-0000204820Y0000213530D03*
X-0000155220Y0000213530D03*
G54D13*
X-0000224612Y0000106146D03*
X-0000224612Y0000173114D03*
X-0000161620Y0000106146D03*
X-0000145636Y0000173114D03*
G54D40*
X-0000104318Y0000186375D03*
X-0000104318Y0000182438D03*
X-0000104318Y0000202123D03*
X-0000104318Y0000198186D03*
X-0000104318Y0000194249D03*
X-0000104318Y0000190312D03*
X-0000104318Y0000217871D03*
X-0000104318Y0000213934D03*
X-0000104318Y0000209997D03*
X-0000104318Y0000206060D03*
X-0000104318Y0000233620D03*
X-0000104318Y0000229683D03*
X-0000104318Y0000225746D03*
X-0000104318Y0000221808D03*
X-0000104318Y0000249368D03*
X-0000104318Y0000245431D03*
X-0000104318Y0000241494D03*
X-0000104318Y0000237557D03*
X-0000104318Y0000265116D03*
X-0000104318Y0000261179D03*
X-0000104318Y0000257242D03*
X-0000104318Y0000253305D03*
X-0000100381Y0000186375D03*
X-0000096444Y0000186375D03*
X-0000092507Y0000186375D03*
X-0000088570Y0000186375D03*
X-0000100381Y0000182438D03*
X-0000096444Y0000182438D03*
X-0000092507Y0000182438D03*
X-0000088570Y0000182438D03*
X-0000100381Y0000202123D03*
X-0000096444Y0000202123D03*
X-0000092507Y0000202123D03*
X-0000088570Y0000202123D03*
X-0000100381Y0000198186D03*
X-0000096444Y0000198186D03*
X-0000092507Y0000198186D03*
X-0000088570Y0000198186D03*
X-0000100381Y0000194249D03*
X-0000096444Y0000194249D03*
X-0000092507Y0000194249D03*
X-0000088570Y0000194249D03*
X-0000100381Y0000190312D03*
X-0000096444Y0000190312D03*
X-0000092507Y0000190312D03*
X-0000088570Y0000190312D03*
X-0000100381Y0000217871D03*
X-0000096444Y0000217871D03*
X-0000092507Y0000217871D03*
X-0000088570Y0000217871D03*
X-0000100381Y0000213934D03*
X-0000096444Y0000213934D03*
X-0000092507Y0000213934D03*
X-0000088570Y0000213934D03*
X-0000100381Y0000209997D03*
X-0000096444Y0000209997D03*
X-0000092507Y0000209997D03*
X-0000088570Y0000209997D03*
X-0000100381Y0000206060D03*
X-0000096444Y0000206060D03*
X-0000092507Y0000206060D03*
X-0000088570Y0000206060D03*
X-0000100381Y0000233620D03*
X-0000096444Y0000233620D03*
X-0000092507Y0000233620D03*
X-0000088570Y0000233620D03*
X-0000100381Y0000229683D03*
X-0000096444Y0000229683D03*
X-0000092507Y0000229683D03*
X-0000088570Y0000229683D03*
X-0000100381Y0000225746D03*
X-0000096444Y0000225746D03*
X-0000092507Y0000225746D03*
X-0000088570Y0000225746D03*
X-0000100381Y0000221808D03*
X-0000096444Y0000221808D03*
X-0000092507Y0000221808D03*
X-0000088570Y0000221808D03*
X-0000100381Y0000249368D03*
X-0000096444Y0000249368D03*
X-0000092507Y0000249368D03*
X-0000088570Y0000249368D03*
X-0000100381Y0000245431D03*
X-0000096444Y0000245431D03*
X-0000092507Y0000245431D03*
X-0000088570Y0000245431D03*
X-0000100381Y0000241494D03*
X-0000096444Y0000241494D03*
X-0000092507Y0000241494D03*
X-0000088570Y0000241494D03*
X-0000100381Y0000237557D03*
X-0000096444Y0000237557D03*
X-0000092507Y0000237557D03*
X-0000088570Y0000237557D03*
X-0000100381Y0000265116D03*
X-0000096444Y0000265116D03*
X-0000092507Y0000265116D03*
X-0000088570Y0000265116D03*
X-0000100381Y0000261179D03*
X-0000096444Y0000261179D03*
X-0000092507Y0000261179D03*
X-0000088570Y0000261179D03*
X-0000100381Y0000257242D03*
X-0000096444Y0000257242D03*
X-0000092507Y0000257242D03*
X-0000088570Y0000257242D03*
X-0000100381Y0000253305D03*
X-0000096444Y0000253305D03*
X-0000092507Y0000253305D03*
X-0000088570Y0000253305D03*
X-0000084633Y0000186375D03*
X-0000080696Y0000186375D03*
X-0000076759Y0000186375D03*
X-0000072822Y0000186375D03*
X-0000084633Y0000182438D03*
X-0000080696Y0000182438D03*
X-0000076759Y0000182438D03*
X-0000072822Y0000182438D03*
X-0000084633Y0000202123D03*
X-0000080696Y0000202123D03*
X-0000076759Y0000202123D03*
X-0000072822Y0000202123D03*
X-0000084633Y0000198186D03*
X-0000080696Y0000198186D03*
X-0000076759Y0000198186D03*
X-0000072822Y0000198186D03*
X-0000084633Y0000194249D03*
X-0000080696Y0000194249D03*
X-0000076759Y0000194249D03*
X-0000072822Y0000194249D03*
X-0000084633Y0000190312D03*
X-0000080696Y0000190312D03*
X-0000076759Y0000190312D03*
X-0000072822Y0000190312D03*
X-0000084633Y0000217871D03*
X-0000080696Y0000217871D03*
X-0000076759Y0000217871D03*
X-0000072822Y0000217871D03*
X-0000084633Y0000213934D03*
X-0000080696Y0000213934D03*
X-0000076759Y0000213934D03*
X-0000072822Y0000213934D03*
X-0000084633Y0000209997D03*
X-0000080696Y0000209997D03*
X-0000076759Y0000209997D03*
X-0000072822Y0000209997D03*
X-0000084633Y0000206060D03*
X-0000080696Y0000206060D03*
X-0000076759Y0000206060D03*
X-0000072822Y0000206060D03*
X-0000084633Y0000233620D03*
X-0000080696Y0000233620D03*
X-0000076759Y0000233620D03*
X-0000072822Y0000233620D03*
X-0000084633Y0000229683D03*
X-0000080696Y0000229683D03*
X-0000076759Y0000229683D03*
X-0000072822Y0000229683D03*
X-0000084633Y0000225746D03*
X-0000080696Y0000225746D03*
X-0000076759Y0000225746D03*
X-0000072822Y0000225746D03*
X-0000084633Y0000221808D03*
X-0000080696Y0000221808D03*
X-0000076759Y0000221808D03*
X-0000072822Y0000221808D03*
X-0000084633Y0000249368D03*
X-0000080696Y0000249368D03*
X-0000076759Y0000249368D03*
X-0000072822Y0000249368D03*
X-0000084633Y0000245431D03*
X-0000080696Y0000245431D03*
X-0000076759Y0000245431D03*
X-0000072822Y0000245431D03*
X-0000084633Y0000241494D03*
X-0000080696Y0000241494D03*
X-0000076759Y0000241494D03*
X-0000072822Y0000241494D03*
X-0000084633Y0000237557D03*
X-0000080696Y0000237557D03*
X-0000076759Y0000237557D03*
X-0000072822Y0000237557D03*
X-0000084633Y0000265116D03*
X-0000080696Y0000265116D03*
X-0000076759Y0000265116D03*
X-0000072822Y0000265116D03*
X-0000084633Y0000261179D03*
X-0000080696Y0000261179D03*
X-0000076759Y0000261179D03*
X-0000072822Y0000261179D03*
X-0000084633Y0000257242D03*
X-0000080696Y0000257242D03*
X-0000076759Y0000257242D03*
X-0000072822Y0000257242D03*
X-0000084633Y0000253305D03*
X-0000080696Y0000253305D03*
X-0000076759Y0000253305D03*
X-0000072822Y0000253305D03*
X-0000068885Y0000186375D03*
X-0000064948Y0000186375D03*
X-0000061010Y0000186375D03*
X-0000057073Y0000186375D03*
X-0000068885Y0000182438D03*
X-0000064948Y0000182438D03*
X-0000061010Y0000182438D03*
X-0000057073Y0000182438D03*
X-0000068885Y0000202123D03*
X-0000064948Y0000202123D03*
X-0000061010Y0000202123D03*
X-0000057073Y0000202123D03*
X-0000068885Y0000198186D03*
X-0000064948Y0000198186D03*
X-0000061010Y0000198186D03*
X-0000057073Y0000198186D03*
X-0000068885Y0000194249D03*
X-0000064948Y0000194249D03*
X-0000061010Y0000194249D03*
X-0000057073Y0000194249D03*
X-0000068885Y0000190312D03*
X-0000064948Y0000190312D03*
X-0000061010Y0000190312D03*
X-0000057073Y0000190312D03*
X-0000068885Y0000217871D03*
X-0000064948Y0000217871D03*
X-0000061010Y0000217871D03*
X-0000057073Y0000217871D03*
X-0000068885Y0000213934D03*
X-0000064948Y0000213934D03*
X-0000061010Y0000213934D03*
X-0000057073Y0000213934D03*
X-0000068885Y0000209997D03*
X-0000064948Y0000209997D03*
X-0000061010Y0000209997D03*
X-0000057073Y0000209997D03*
X-0000068885Y0000206060D03*
X-0000064948Y0000206060D03*
X-0000061010Y0000206060D03*
X-0000057073Y0000206060D03*
X-0000068885Y0000233620D03*
X-0000064948Y0000233620D03*
X-0000061010Y0000233620D03*
X-0000057073Y0000233620D03*
X-0000068885Y0000229683D03*
X-0000064948Y0000229683D03*
X-0000061010Y0000229683D03*
X-0000057073Y0000229683D03*
X-0000068885Y0000225746D03*
X-0000064948Y0000225746D03*
X-0000061010Y0000225746D03*
X-0000057073Y0000225746D03*
X-0000068885Y0000221808D03*
X-0000064948Y0000221808D03*
X-0000061010Y0000221808D03*
X-0000057073Y0000221808D03*
X-0000068885Y0000249368D03*
X-0000064948Y0000249368D03*
X-0000061010Y0000249368D03*
X-0000057073Y0000249368D03*
X-0000068885Y0000245431D03*
X-0000064948Y0000245431D03*
X-0000061010Y0000245431D03*
X-0000057073Y0000245431D03*
X-0000068885Y0000241494D03*
X-0000064948Y0000241494D03*
X-0000061010Y0000241494D03*
X-0000057073Y0000241494D03*
X-0000068885Y0000237557D03*
X-0000064948Y0000237557D03*
X-0000061010Y0000237557D03*
X-0000057073Y0000237557D03*
X-0000068885Y0000265116D03*
X-0000064948Y0000265116D03*
X-0000061010Y0000265116D03*
X-0000057073Y0000265116D03*
X-0000068885Y0000261179D03*
X-0000064948Y0000261179D03*
X-0000061010Y0000261179D03*
X-0000057073Y0000261179D03*
X-0000068885Y0000257242D03*
X-0000064948Y0000257242D03*
X-0000061010Y0000257242D03*
X-0000057073Y0000257242D03*
X-0000068885Y0000253305D03*
X-0000064948Y0000253305D03*
X-0000061010Y0000253305D03*
X-0000057073Y0000253305D03*
X-0000053136Y0000186375D03*
X-0000049199Y0000186375D03*
X-0000045262Y0000186375D03*
X-0000041325Y0000186375D03*
X-0000053136Y0000182438D03*
X-0000049199Y0000182438D03*
X-0000045262Y0000182438D03*
X-0000041325Y0000182438D03*
X-0000053136Y0000202123D03*
X-0000049199Y0000202123D03*
X-0000045262Y0000202123D03*
X-0000041325Y0000202123D03*
X-0000053136Y0000198186D03*
X-0000049199Y0000198186D03*
X-0000045262Y0000198186D03*
X-0000041325Y0000198186D03*
X-0000053136Y0000194249D03*
X-0000049199Y0000194249D03*
X-0000045262Y0000194249D03*
X-0000041325Y0000194249D03*
X-0000053136Y0000190312D03*
X-0000049199Y0000190312D03*
X-0000045262Y0000190312D03*
X-0000041325Y0000190312D03*
X-0000053136Y0000217871D03*
X-0000049199Y0000217871D03*
X-0000045262Y0000217871D03*
X-0000041325Y0000217871D03*
X-0000053136Y0000213934D03*
X-0000049199Y0000213934D03*
X-0000045262Y0000213934D03*
X-0000041325Y0000213934D03*
X-0000053136Y0000209997D03*
X-0000049199Y0000209997D03*
X-0000045262Y0000209997D03*
X-0000041325Y0000209997D03*
X-0000053136Y0000206060D03*
X-0000049199Y0000206060D03*
X-0000045262Y0000206060D03*
X-0000041325Y0000206060D03*
X-0000053136Y0000233620D03*
X-0000049199Y0000233620D03*
X-0000045262Y0000233620D03*
X-0000041325Y0000233620D03*
X-0000053136Y0000229683D03*
X-0000049199Y0000229683D03*
X-0000045262Y0000229683D03*
X-0000041325Y0000229683D03*
X-0000053136Y0000225746D03*
X-0000049199Y0000225746D03*
X-0000045262Y0000225746D03*
X-0000041325Y0000225746D03*
X-0000053136Y0000221808D03*
X-0000049199Y0000221808D03*
X-0000045262Y0000221808D03*
X-0000041325Y0000221808D03*
X-0000053136Y0000249368D03*
X-0000049199Y0000249368D03*
X-0000045262Y0000249368D03*
X-0000041325Y0000249368D03*
X-0000053136Y0000245431D03*
X-0000049199Y0000245431D03*
X-0000045262Y0000245431D03*
X-0000041325Y0000245431D03*
X-0000053136Y0000241494D03*
X-0000049199Y0000241494D03*
X-0000045262Y0000241494D03*
X-0000041325Y0000241494D03*
X-0000053136Y0000237557D03*
X-0000049199Y0000237557D03*
X-0000045262Y0000237557D03*
X-0000041325Y0000237557D03*
X-0000053136Y0000265116D03*
X-0000049199Y0000265116D03*
X-0000045262Y0000265116D03*
X-0000041325Y0000265116D03*
X-0000053136Y0000261179D03*
X-0000049199Y0000261179D03*
X-0000045262Y0000261179D03*
X-0000041325Y0000261179D03*
X-0000053136Y0000257242D03*
X-0000049199Y0000257242D03*
X-0000045262Y0000257242D03*
X-0000041325Y0000257242D03*
X-0000053136Y0000253305D03*
X-0000049199Y0000253305D03*
X-0000045262Y0000253305D03*
X-0000041325Y0000253305D03*
X-0000037388Y0000186375D03*
X-0000033451Y0000186375D03*
X-0000029514Y0000186375D03*
X-0000025577Y0000186375D03*
X-0000037388Y0000182438D03*
X-0000033451Y0000182438D03*
X-0000029514Y0000182438D03*
X-0000025577Y0000182438D03*
X-0000037388Y0000202123D03*
X-0000033451Y0000202123D03*
X-0000029514Y0000202123D03*
X-0000025577Y0000202123D03*
X-0000037388Y0000198186D03*
X-0000033451Y0000198186D03*
X-0000029514Y0000198186D03*
X-0000025577Y0000198186D03*
X-0000037388Y0000194249D03*
X-0000033451Y0000194249D03*
X-0000029514Y0000194249D03*
X-0000025577Y0000194249D03*
X-0000037388Y0000190312D03*
X-0000033451Y0000190312D03*
X-0000029514Y0000190312D03*
X-0000025577Y0000190312D03*
X-0000037388Y0000217871D03*
X-0000033451Y0000217871D03*
X-0000029514Y0000217871D03*
X-0000025577Y0000217871D03*
X-0000037388Y0000213934D03*
X-0000033451Y0000213934D03*
X-0000029514Y0000213934D03*
X-0000025577Y0000213934D03*
X-0000037388Y0000209997D03*
X-0000033451Y0000209997D03*
X-0000029514Y0000209997D03*
X-0000025577Y0000209997D03*
X-0000037388Y0000206060D03*
X-0000033451Y0000206060D03*
X-0000029514Y0000206060D03*
X-0000025577Y0000206060D03*
X-0000037388Y0000233620D03*
X-0000033451Y0000233620D03*
X-0000029514Y0000233620D03*
X-0000025577Y0000233620D03*
X-0000037388Y0000229683D03*
X-0000033451Y0000229683D03*
X-0000029514Y0000229683D03*
X-0000025577Y0000229683D03*
X-0000037388Y0000225746D03*
X-0000033451Y0000225746D03*
X-0000029514Y0000225746D03*
X-0000025577Y0000225746D03*
X-0000037388Y0000221808D03*
X-0000033451Y0000221808D03*
X-0000029514Y0000221808D03*
X-0000025577Y0000221808D03*
X-0000037388Y0000249368D03*
X-0000033451Y0000249368D03*
X-0000029514Y0000249368D03*
X-0000025577Y0000249368D03*
X-0000037388Y0000245431D03*
X-0000033451Y0000245431D03*
X-0000029514Y0000245431D03*
X-0000025577Y0000245431D03*
X-0000037388Y0000241494D03*
X-0000033451Y0000241494D03*
X-0000029514Y0000241494D03*
X-0000025577Y0000241494D03*
X-0000037388Y0000237557D03*
X-0000033451Y0000237557D03*
X-0000029514Y0000237557D03*
X-0000025577Y0000237557D03*
X-0000037388Y0000265116D03*
X-0000033451Y0000265116D03*
X-0000029514Y0000265116D03*
X-0000025577Y0000265116D03*
X-0000037388Y0000261179D03*
X-0000033451Y0000261179D03*
X-0000029514Y0000261179D03*
X-0000025577Y0000261179D03*
X-0000037388Y0000257242D03*
X-0000033451Y0000257242D03*
X-0000029514Y0000257242D03*
X-0000025577Y0000257242D03*
X-0000037388Y0000253305D03*
X-0000033451Y0000253305D03*
X-0000029514Y0000253305D03*
X-0000025577Y0000253305D03*
X-0000021640Y0000186375D03*
X-0000021640Y0000182438D03*
X-0000021640Y0000202123D03*
X-0000021640Y0000198186D03*
X-0000021640Y0000194249D03*
X-0000021640Y0000190312D03*
X-0000021640Y0000217871D03*
X-0000021640Y0000213934D03*
X-0000021640Y0000209997D03*
X-0000021640Y0000206060D03*
X-0000021640Y0000233620D03*
X-0000021640Y0000229683D03*
X-0000021640Y0000225746D03*
X-0000021640Y0000221808D03*
X-0000021640Y0000249368D03*
X-0000021640Y0000245431D03*
X-0000021640Y0000241494D03*
X-0000021640Y0000237557D03*
X-0000021640Y0000265116D03*
X-0000021640Y0000261179D03*
X-0000021640Y0000257242D03*
X-0000021640Y0000253305D03*
G54D31*
X-0000177220Y0000311530D03*
X-0000176700Y0000356300D03*
X-0000103220Y0000355030D03*
X-0000068920Y0000295530D03*
X0000048400Y0000174100D03*
X0000092780Y0000323530D03*
G54D41*
X-0000097720Y0000323730D03*
G54D32*
X-0000164720Y0000309030D03*
X-0000164720Y0000319030D03*
X-0000164720Y0000329030D03*
X-0000164720Y0000339030D03*
X-0000164720Y0000349030D03*
X-0000164720Y0000359030D03*
X-0000164720Y0000379030D03*
X-0000164720Y0000369030D03*
X-0000164720Y0000389030D03*
X-0000154720Y0000299030D03*
X-0000154720Y0000309030D03*
X-0000154720Y0000329030D03*
X-0000154720Y0000319030D03*
X-0000154720Y0000339030D03*
X-0000154720Y0000359030D03*
X-0000154720Y0000349030D03*
X-0000154720Y0000369030D03*
X-0000154720Y0000379030D03*
X-0000154720Y0000389030D03*
G54D14*
X-0000224320Y0000183280D03*
X-0000224320Y0000186780D03*
X-0000220820Y0000186780D03*
X-0000220820Y0000183280D03*
X-0000217320Y0000183280D03*
X-0000217320Y0000186780D03*
X-0000227720Y0000183280D03*
X-0000227720Y0000186780D03*
X-0000198320Y0000183280D03*
X-0000198320Y0000186780D03*
X-0000206820Y0000183280D03*
X-0000206820Y0000186780D03*
X-0000210320Y0000183280D03*
X-0000210320Y0000186780D03*
X-0000213820Y0000183280D03*
X-0000213820Y0000186780D03*
X-0000187320Y0000183280D03*
X-0000187320Y0000186780D03*
X-0000190820Y0000183280D03*
X-0000190820Y0000186780D03*
X-0000194820Y0000183280D03*
X-0000194820Y0000186780D03*
X-0000189720Y0000287030D03*
X-0000193220Y0000287030D03*
X-0000192220Y0000296280D03*
X-0000195720Y0000296280D03*
X-0000195750Y0000292800D03*
X-0000192250Y0000292800D03*
X-0000195720Y0000303030D03*
X-0000195720Y0000306530D03*
X-0000184220Y0000306530D03*
X-0000184220Y0000303030D03*
X-0000188220Y0000303030D03*
X-0000188220Y0000306530D03*
X-0000192220Y0000303030D03*
X-0000192220Y0000306530D03*
X-0000192220Y0000299780D03*
X-0000195720Y0000299780D03*
X-0000192220Y0000342530D03*
X-0000195720Y0000342530D03*
X-0000195750Y0000339000D03*
X-0000192250Y0000339000D03*
X-0000195720Y0000349280D03*
X-0000195720Y0000352780D03*
X-0000184220Y0000352780D03*
X-0000184220Y0000349280D03*
X-0000188220Y0000349280D03*
X-0000188220Y0000352780D03*
X-0000192220Y0000346030D03*
X-0000195720Y0000346030D03*
X-0000192220Y0000349280D03*
X-0000192220Y0000352780D03*
X-0000170720Y0000186780D03*
X-0000170720Y0000183280D03*
X-0000166748Y0000183230D03*
X-0000166748Y0000186730D03*
X-0000174220Y0000183280D03*
X-0000174220Y0000186780D03*
X-0000180320Y0000215280D03*
X-0000180320Y0000218780D03*
X-0000180320Y0000218780D03*
X-0000180320Y0000222280D03*
X-0000177720Y0000278280D03*
X-0000177720Y0000281780D03*
X-0000173220Y0000271280D03*
X-0000173220Y0000267780D03*
X-0000155720Y0000183280D03*
X-0000155720Y0000186780D03*
X-0000159223Y0000183280D03*
X-0000159223Y0000186780D03*
X-0000163220Y0000183280D03*
X-0000163220Y0000186780D03*
X-0000135720Y0000183280D03*
X-0000135720Y0000186780D03*
X-0000139220Y0000183280D03*
X-0000139220Y0000186780D03*
X-0000143233Y0000183305D03*
X-0000143233Y0000186805D03*
X-0000146753Y0000183330D03*
X-0000146753Y0000186830D03*
X-0000139500Y0000344750D03*
X-0000139500Y0000341250D03*
X-0000139500Y0000351750D03*
X-0000139500Y0000348250D03*
X-0000131720Y0000186780D03*
X-0000131720Y0000183280D03*
X-0000130220Y0000215280D03*
X-0000119500Y0000216750D03*
X-0000130220Y0000218780D03*
X-0000130220Y0000218780D03*
X-0000130220Y0000222280D03*
X-0000119500Y0000220250D03*
X-0000121720Y0000256530D03*
X-0000121720Y0000260030D03*
X-0000123780Y0000297750D03*
X-0000127280Y0000297750D03*
X-0000123750Y0000305030D03*
X-0000127250Y0000305030D03*
X-0000123780Y0000301250D03*
X-0000123720Y0000312780D03*
X-0000123720Y0000309280D03*
X-0000127280Y0000301250D03*
X-0000107650Y0000146500D03*
X-0000104150Y0000146500D03*
X-0000109120Y0000351530D03*
X-0000112620Y0000351530D03*
X-0000109120Y0000348030D03*
X-0000112620Y0000348030D03*
X-0000074470Y0000289030D03*
X-0000074470Y0000292530D03*
X-0000073470Y0000309480D03*
X-0000073470Y0000312980D03*
X-0000073470Y0000305780D03*
X-0000073470Y0000302280D03*
X-0000073470Y0000316930D03*
X-0000073470Y0000320730D03*
X-0000071220Y0000350030D03*
X-0000060330Y0000290073D03*
X-0000063830Y0000290073D03*
X-0000060330Y0000286573D03*
X-0000063830Y0000286573D03*
X-0000063770Y0000294530D03*
X-0000060270Y0000294530D03*
X-0000060330Y0000302909D03*
X-0000063830Y0000302909D03*
X-0000060330Y0000299409D03*
X-0000063830Y0000299409D03*
X-0000069970Y0000312980D03*
X-0000069970Y0000309480D03*
X-0000060330Y0000312980D03*
X-0000063830Y0000312980D03*
X-0000060330Y0000306530D03*
X-0000063830Y0000306530D03*
X-0000069970Y0000316930D03*
X-0000069970Y0000320730D03*
X-0000060220Y0000322780D03*
X-0000060220Y0000319280D03*
X-0000056220Y0000322780D03*
X-0000056220Y0000319280D03*
X-0000067720Y0000342780D03*
X-0000067720Y0000346280D03*
X-0000067720Y0000350030D03*
X-0000045863Y0000281929D03*
X-0000049363Y0000281929D03*
X-0000045863Y0000285429D03*
X-0000049363Y0000285429D03*
X-0000041970Y0000283302D03*
X-0000046113Y0000316179D03*
X-0000042613Y0000316179D03*
X-0000039613Y0000316179D03*
X-0000029470Y0000297030D03*
X-0000025970Y0000297030D03*
X-0000038470Y0000283302D03*
X-0000025970Y0000290291D03*
X-0000029470Y0000290291D03*
X-0000025970Y0000293530D03*
X-0000029470Y0000293530D03*
X-0000029470Y0000300530D03*
X-0000025970Y0000300530D03*
X-0000025970Y0000303983D03*
X-0000029470Y0000303983D03*
X-0000036113Y0000316179D03*
X-0000029220Y0000326780D03*
X-0000029220Y0000323280D03*
X-0000035205Y0000390522D03*
X-0000038705Y0000390522D03*
X-0000028220Y0000390530D03*
X-0000031720Y0000390530D03*
X-0000008220Y0000390530D03*
X-0000018220Y0000390530D03*
X-0000014720Y0000390530D03*
X-0000002970Y0000158030D03*
X-0000006470Y0000158030D03*
X-0000002970Y0000162030D03*
X-0000006470Y0000162030D03*
X0000007000Y0000195750D03*
X0000007000Y0000199250D03*
X0000003250Y0000199250D03*
X-0000000250Y0000199250D03*
X0000003250Y0000195750D03*
X-0000000250Y0000195750D03*
X-0000004220Y0000217033D03*
X-0000000720Y0000217033D03*
X-0000000720Y0000213631D03*
X-0000004220Y0000213631D03*
X-0000000939Y0000231680D03*
X-0000000939Y0000228180D03*
X-0000004220Y0000224175D03*
X-0000000720Y0000224175D03*
X-0000000720Y0000220530D03*
X-0000004220Y0000220530D03*
X-0000000770Y0000235530D03*
X-0000004270Y0000235530D03*
X-0000000770Y0000239530D03*
X-0000004270Y0000239530D03*
X-0000000770Y0000243530D03*
X-0000004270Y0000243530D03*
X-0000004270Y0000249730D03*
X-0000000770Y0000249730D03*
X-0000000770Y0000258530D03*
X-0000004270Y0000258530D03*
X-0000004270Y0000262030D03*
X-0000000770Y0000262030D03*
X-0000000770Y0000265530D03*
X-0000004270Y0000265530D03*
X-0000004270Y0000254530D03*
X-0000000770Y0000254530D03*
X-0000004270Y0000269030D03*
X-0000000770Y0000269030D03*
X0000001530Y0000342286D03*
X0000005030Y0000342286D03*
X-0000001220Y0000390530D03*
X0000002280Y0000390530D03*
X-0000004720Y0000390530D03*
X0000006030Y0000390530D03*
X0000019155Y0000195780D03*
X0000019155Y0000199280D03*
X0000015280Y0000199280D03*
X0000015280Y0000195780D03*
X0000023030Y0000195780D03*
X0000023030Y0000199280D03*
X0000011905Y0000199280D03*
X0000011905Y0000195780D03*
X0000023530Y0000354530D03*
X0000013530Y0000390530D03*
X0000017030Y0000390530D03*
X0000009530Y0000390530D03*
X0000031222Y0000148593D03*
X0000027722Y0000148593D03*
X0000031222Y0000152353D03*
X0000027722Y0000152353D03*
X0000027722Y0000158030D03*
X0000031222Y0000158030D03*
X0000032030Y0000184030D03*
X0000028530Y0000184030D03*
X0000029780Y0000199280D03*
X0000029780Y0000195780D03*
X0000026405Y0000199280D03*
X0000026405Y0000195780D03*
X0000027030Y0000354530D03*
X0000050930Y0000180030D03*
X0000047430Y0000180030D03*
X0000050930Y0000183530D03*
X0000047430Y0000183530D03*
X0000051830Y0000233030D03*
X0000055330Y0000233030D03*
X0000055830Y0000225530D03*
X0000052330Y0000225530D03*
X0000071250Y0000181180D03*
X0000074750Y0000181180D03*
X0000093030Y0000247530D03*
X0000089530Y0000247530D03*
X0000095530Y0000351230D03*
X0000092030Y0000351230D03*
X0000119280Y0000149647D03*
X0000115780Y0000149647D03*
X0000119280Y0000153423D03*
X0000115780Y0000153423D03*
X0000115780Y0000157030D03*
X0000119280Y0000157030D03*
X0000114930Y0000177130D03*
X0000118430Y0000177130D03*
X0000111530Y0000180630D03*
X0000108030Y0000180630D03*
X0000114930Y0000180630D03*
X0000118430Y0000180630D03*
X0000125430Y0000177130D03*
X0000121930Y0000177130D03*
X0000121930Y0000180630D03*
X0000125430Y0000180630D03*
X0000135680Y0000185630D03*
X0000139280Y0000185230D03*
X0000142780Y0000185230D03*
X0000135680Y0000193880D03*
X0000135680Y0000197380D03*
X0000142780Y0000189130D03*
X0000139280Y0000189130D03*
X0000143430Y0000197380D03*
X0000146930Y0000197380D03*
X0000139280Y0000197380D03*
X0000139280Y0000200880D03*
X0000135680Y0000189130D03*
X0000135680Y0000200880D03*
X0000146930Y0000200880D03*
X0000143430Y0000200880D03*
X0000139280Y0000215630D03*
X0000135780Y0000215630D03*
X0000135780Y0000212030D03*
X0000139280Y0000212030D03*
X0000135680Y0000204380D03*
X0000135780Y0000208530D03*
X0000139280Y0000208530D03*
X0000135780Y0000219130D03*
X0000139280Y0000219130D03*
X0000154500Y0000206530D03*
X0000154500Y0000210030D03*
G54D23*
X-0000207320Y0000207030D03*
X-0000212320Y0000217030D03*
X-0000202320Y0000207030D03*
X-0000202320Y0000217030D03*
X-0000202320Y0000212030D03*
X-0000207320Y0000217030D03*
X-0000212320Y0000212030D03*
X-0000212320Y0000207030D03*
X-0000207320Y0000212030D03*
X-0000207320Y0000221630D03*
X-0000212320Y0000221630D03*
X-0000202320Y0000221630D03*
X-0000197320Y0000207030D03*
X-0000197320Y0000217030D03*
X-0000197320Y0000212030D03*
X-0000197320Y0000221030D03*
X-0000158220Y0000207030D03*
X-0000163220Y0000217030D03*
X-0000153220Y0000207030D03*
X-0000153220Y0000217030D03*
X-0000153220Y0000212030D03*
X-0000158220Y0000217030D03*
X-0000163220Y0000207030D03*
X-0000163220Y0000212030D03*
X-0000158220Y0000212030D03*
X-0000158220Y0000222030D03*
X-0000163220Y0000222030D03*
X-0000153220Y0000222030D03*
X-0000148220Y0000207030D03*
X-0000148220Y0000217030D03*
X-0000148220Y0000212030D03*
X-0000148220Y0000222030D03*
X-0000107220Y0000313030D03*
X-0000107220Y0000319230D03*
X-0000107220Y0000326730D03*
X-0000107220Y0000334230D03*
X-0000087220Y0000313230D03*
X-0000101220Y0000313230D03*
X-0000094220Y0000313230D03*
X-0000087220Y0000326730D03*
X-0000087220Y0000319230D03*
X-0000094220Y0000319230D03*
X-0000101220Y0000319230D03*
X-0000094220Y0000326730D03*
X-0000101220Y0000326730D03*
X-0000101220Y0000334230D03*
X-0000087220Y0000334230D03*
X-0000094220Y0000334230D03*
X-0000055720Y0000340030D03*
X-0000055720Y0000345030D03*
X-0000055720Y0000350030D03*
X-0000049863Y0000296679D03*
X-0000041863Y0000296679D03*
X-0000045863Y0000296679D03*
X-0000049863Y0000300679D03*
X-0000041863Y0000304679D03*
X-0000041863Y0000300679D03*
X-0000045863Y0000304679D03*
X-0000049863Y0000304679D03*
X-0000045863Y0000300679D03*
X-0000045720Y0000340030D03*
X-0000045720Y0000345030D03*
X-0000050720Y0000345030D03*
X-0000050720Y0000340030D03*
X-0000050720Y0000350030D03*
X-0000045720Y0000350030D03*
X0000067780Y0000297530D03*
X0000067780Y0000285530D03*
X0000067780Y0000291530D03*
X0000062780Y0000297530D03*
X0000057780Y0000297530D03*
X0000062780Y0000285530D03*
X0000062780Y0000291530D03*
X0000057780Y0000291530D03*
X0000058280Y0000285530D03*
X0000067780Y0000302030D03*
X0000062780Y0000302030D03*
X0000057780Y0000302030D03*
X0000073280Y0000297530D03*
X0000073280Y0000285530D03*
X0000073280Y0000291530D03*
X0000073280Y0000302030D03*
G54D50*
X-0000071535Y0000113841D03*
X-0000073735Y0000113841D03*
X-0000078587Y0000122429D03*
X-0000078587Y0000124629D03*
X-0000066720Y0000121330D03*
X-0000065530Y0000116688D03*
X-0000067730Y0000116688D03*
X-0000058720Y0000116730D03*
X-0000055669Y0000113779D03*
X-0000060920Y0000116730D03*
X-0000059464Y0000119030D03*
X-0000059625Y0000124272D03*
X-0000061825Y0000124272D03*
X-0000066720Y0000123530D03*
X-0000051911Y0000121330D03*
X-0000042320Y0000116730D03*
X-0000051213Y0000115341D03*
X-0000049013Y0000115341D03*
X-0000044520Y0000116730D03*
X-0000053520Y0000113830D03*
X-0000044107Y0000137643D03*
X-0000051911Y0000123530D03*
X-0000041907Y0000137643D03*
X-0000047120Y0000140230D03*
X-0000047120Y0000142430D03*
X-0000038220Y0000123373D03*
X-0000024820Y0000122430D03*
X-0000027019Y0000122430D03*
X-0000029820Y0000116630D03*
X-0000027123Y0000116669D03*
X-0000038202Y0000113541D03*
X-0000024923Y0000116669D03*
X-0000032020Y0000116630D03*
X-0000036002Y0000113541D03*
X-0000034464Y0000119030D03*
X-0000036020Y0000123373D03*
X-0000032296Y0000137643D03*
X-0000030096Y0000137643D03*
X-0000014477Y0000115830D03*
X-0000014477Y0000113630D03*
X-0000020486Y0000121672D03*
X-0000018286Y0000121672D03*
X0000007305Y0000114741D03*
X0000005105Y0000114741D03*
X0000007305Y0000124020D03*
X0000005105Y0000124020D03*
X0000012326Y0000114730D03*
X0000023680Y0000114630D03*
X0000019116Y0000114741D03*
X0000016916Y0000114741D03*
X0000010126Y0000114730D03*
X0000019276Y0000119030D03*
X0000022822Y0000137643D03*
X0000011011Y0000137643D03*
X0000016916Y0000124020D03*
X0000013211Y0000137643D03*
X0000019116Y0000124020D03*
X0000038280Y0000121330D03*
X0000028727Y0000114741D03*
X0000034633Y0000114741D03*
X0000036833Y0000114741D03*
X0000025880Y0000114630D03*
X0000030927Y0000114741D03*
X0000025022Y0000137643D03*
X0000028727Y0000123972D03*
X0000036833Y0000137643D03*
X0000030926Y0000123972D03*
X0000034633Y0000137643D03*
X0000052249Y0000114688D03*
X0000044980Y0000116654D03*
X0000054449Y0000114688D03*
X0000042738Y0000114688D03*
X0000040538Y0000114688D03*
X0000047180Y0000116654D03*
X0000044276Y0000119030D03*
X0000040480Y0000121330D03*
X0000046444Y0000137643D03*
X0000052349Y0000123972D03*
X0000054549Y0000123972D03*
X0000048644Y0000137643D03*
G54D42*
X-0000113074Y0000312903D03*
X-0000113074Y0000310935D03*
X-0000113074Y0000328651D03*
X-0000113074Y0000326683D03*
X-0000113074Y0000324714D03*
X-0000113074Y0000322746D03*
X-0000113074Y0000320777D03*
X-0000113074Y0000318809D03*
X-0000113074Y0000316840D03*
X-0000113074Y0000314872D03*
X-0000113074Y0000336525D03*
X-0000113074Y0000334557D03*
X-0000113074Y0000332588D03*
X-0000113074Y0000330620D03*
X-0000082366Y0000310935D03*
X-0000082366Y0000312903D03*
X-0000082366Y0000314872D03*
X-0000082366Y0000316840D03*
X-0000082366Y0000318809D03*
X-0000082366Y0000320777D03*
X-0000082366Y0000322746D03*
X-0000082366Y0000324714D03*
X-0000082366Y0000326683D03*
X-0000082366Y0000328651D03*
X-0000082366Y0000330620D03*
X-0000082366Y0000332588D03*
X-0000082366Y0000334557D03*
X-0000082366Y0000336525D03*
X-0000053540Y0000297726D03*
X-0000053540Y0000295758D03*
X-0000053540Y0000305600D03*
X-0000053540Y0000303632D03*
X-0000053540Y0000301663D03*
X-0000053540Y0000299695D03*
X-0000038186Y0000295758D03*
X-0000038186Y0000297726D03*
X-0000038186Y0000299695D03*
X-0000038186Y0000301663D03*
X-0000038186Y0000303632D03*
X-0000038186Y0000305600D03*
G54D33*
X-0000144220Y0000251270D03*
X-0000144220Y0000243790D03*
X-0000124720Y0000283790D03*
X-0000124720Y0000291270D03*
X0000061780Y0000213270D03*
X0000061780Y0000205790D03*
G54D24*
X-0000185542Y0000262979D03*
X-0000188101Y0000262979D03*
X-0000190661Y0000262979D03*
X-0000193220Y0000262979D03*
X-0000193220Y0000279081D03*
X-0000190661Y0000279081D03*
X-0000188101Y0000279081D03*
X-0000185542Y0000279081D03*
G54D60*
X-0000004106Y0000185451D03*
X-0000004106Y0000183483D03*
X-0000004106Y0000181514D03*
X-0000004106Y0000179546D03*
X-0000004106Y0000177577D03*
X-0000004106Y0000175609D03*
X0000022666Y0000175609D03*
X0000022666Y0000177577D03*
X0000022666Y0000179546D03*
X0000022666Y0000181514D03*
X0000022666Y0000183483D03*
X0000022666Y0000185451D03*
X0000098326Y0000190429D03*
X0000098326Y0000192398D03*
X0000098326Y0000194366D03*
X0000098326Y0000196335D03*
X0000098326Y0000198303D03*
X0000098326Y0000200272D03*
X0000098326Y0000202240D03*
X0000098326Y0000204209D03*
X0000098326Y0000206177D03*
X0000098326Y0000208146D03*
X0000098326Y0000210114D03*
X0000098326Y0000212083D03*
X0000098326Y0000214051D03*
X0000098326Y0000216020D03*
X0000098326Y0000217988D03*
X0000098326Y0000219957D03*
X0000098326Y0000221925D03*
X0000098326Y0000223894D03*
X0000098326Y0000225862D03*
X0000098326Y0000227831D03*
X0000129034Y0000202240D03*
X0000129034Y0000200272D03*
X0000129034Y0000198303D03*
X0000129034Y0000196335D03*
X0000129034Y0000194366D03*
X0000129034Y0000192398D03*
X0000129034Y0000190429D03*
X0000129034Y0000217988D03*
X0000129034Y0000216020D03*
X0000129034Y0000214051D03*
X0000129034Y0000212083D03*
X0000129034Y0000210114D03*
X0000129034Y0000208146D03*
X0000129034Y0000206177D03*
X0000129034Y0000204209D03*
X0000129034Y0000227831D03*
X0000129034Y0000225862D03*
X0000129034Y0000223894D03*
X0000129034Y0000221925D03*
X0000129034Y0000219957D03*
G54D15*
X-0000218993Y0000197388D03*
X-0000216631Y0000197388D03*
X-0000215450Y0000199750D03*
X-0000217812Y0000199750D03*
X-0000216631Y0000229672D03*
X-0000215450Y0000227310D03*
X-0000218993Y0000229672D03*
X-0000214269Y0000197388D03*
X-0000211907Y0000197388D03*
X-0000210726Y0000199750D03*
X-0000213088Y0000199750D03*
X-0000209544Y0000197388D03*
X-0000207182Y0000197388D03*
X-0000204820Y0000197388D03*
X-0000202458Y0000197388D03*
X-0000200096Y0000197388D03*
X-0000198914Y0000199750D03*
X-0000201277Y0000199750D03*
X-0000203639Y0000199750D03*
X-0000206001Y0000199750D03*
X-0000208363Y0000199750D03*
X-0000198914Y0000227310D03*
X-0000200096Y0000229672D03*
X-0000202458Y0000229672D03*
X-0000204820Y0000229672D03*
X-0000207182Y0000229672D03*
X-0000209544Y0000229672D03*
X-0000211907Y0000229672D03*
X-0000214269Y0000229672D03*
X-0000213088Y0000227310D03*
X-0000210726Y0000227310D03*
X-0000208363Y0000227310D03*
X-0000206001Y0000227310D03*
X-0000203639Y0000227310D03*
X-0000201277Y0000227310D03*
X-0000191828Y0000199750D03*
X-0000197733Y0000197388D03*
X-0000195371Y0000197388D03*
X-0000193009Y0000197388D03*
X-0000194190Y0000199750D03*
X-0000196552Y0000199750D03*
X-0000190647Y0000197388D03*
X-0000190647Y0000229672D03*
X-0000193009Y0000229672D03*
X-0000195371Y0000229672D03*
X-0000197733Y0000229672D03*
X-0000196552Y0000227310D03*
X-0000194190Y0000227310D03*
X-0000169393Y0000197388D03*
X-0000167031Y0000197388D03*
X-0000168212Y0000199750D03*
X-0000167031Y0000229672D03*
X-0000169393Y0000229672D03*
X-0000164669Y0000197388D03*
X-0000162307Y0000197388D03*
X-0000161126Y0000199750D03*
X-0000163488Y0000199750D03*
X-0000165850Y0000199750D03*
X-0000159944Y0000197388D03*
X-0000157582Y0000197388D03*
X-0000155220Y0000197388D03*
X-0000152858Y0000197388D03*
X-0000151677Y0000199750D03*
X-0000154039Y0000199750D03*
X-0000156401Y0000199750D03*
X-0000158763Y0000199750D03*
X-0000152858Y0000229672D03*
X-0000155220Y0000229672D03*
X-0000157582Y0000229672D03*
X-0000159944Y0000229672D03*
X-0000162307Y0000229672D03*
X-0000164669Y0000229672D03*
X-0000165850Y0000227310D03*
X-0000163488Y0000227310D03*
X-0000161126Y0000227310D03*
X-0000158763Y0000227310D03*
X-0000156401Y0000227310D03*
X-0000154039Y0000227310D03*
X-0000151677Y0000227310D03*
X-0000142228Y0000199750D03*
X-0000150496Y0000197388D03*
X-0000148133Y0000197388D03*
X-0000145771Y0000197388D03*
X-0000143409Y0000197388D03*
X-0000144590Y0000199750D03*
X-0000146952Y0000199750D03*
X-0000149314Y0000199750D03*
X-0000141047Y0000197388D03*
X-0000141047Y0000229672D03*
X-0000143409Y0000229672D03*
X-0000145771Y0000229672D03*
X-0000148133Y0000229672D03*
X-0000149314Y0000227310D03*
X-0000146952Y0000227310D03*
X-0000144590Y0000227310D03*
X-0000150496Y0000229672D03*
G54D51*
X-0000059464Y0000119030D03*
X-0000034464Y0000119030D03*
X0000019276Y0000119030D03*
X0000044276Y0000119030D03*
X0000098016Y0000119030D03*
X0000123016Y0000119030D03*
G54D52*
X-0000051220Y0000345030D03*
G54D70*
X0000052016Y0000272089D03*
X0000053985Y0000272089D03*
X0000053985Y0000316971D03*
X0000052016Y0000316971D03*
X0000055953Y0000272089D03*
X0000057922Y0000272089D03*
X0000059890Y0000272089D03*
X0000061859Y0000272089D03*
X0000063827Y0000272089D03*
X0000065796Y0000272089D03*
X0000067764Y0000272089D03*
X0000069733Y0000272089D03*
X0000069733Y0000316971D03*
X0000067764Y0000316971D03*
X0000065796Y0000316971D03*
X0000063827Y0000316971D03*
X0000061859Y0000316971D03*
X0000059890Y0000316971D03*
X0000057922Y0000316971D03*
X0000055953Y0000316971D03*
X0000071701Y0000272089D03*
X0000073670Y0000272089D03*
X0000075638Y0000272089D03*
X0000077607Y0000272089D03*
X0000079575Y0000272089D03*
X0000081544Y0000272089D03*
X0000081544Y0000316971D03*
X0000079575Y0000316971D03*
X0000077607Y0000316971D03*
X0000075638Y0000316971D03*
X0000073670Y0000316971D03*
X0000071701Y0000316971D03*
G54D43*
X-0000110515Y0000308376D03*
X-0000108547Y0000308376D03*
X-0000106578Y0000308376D03*
X-0000104610Y0000308376D03*
X-0000104610Y0000339084D03*
X-0000106578Y0000339084D03*
X-0000108547Y0000339084D03*
X-0000110515Y0000339084D03*
X-0000102641Y0000308376D03*
X-0000100673Y0000308376D03*
X-0000098704Y0000308376D03*
X-0000096736Y0000308376D03*
X-0000094767Y0000308376D03*
X-0000092799Y0000308376D03*
X-0000090830Y0000308376D03*
X-0000088862Y0000308376D03*
X-0000088862Y0000339084D03*
X-0000090830Y0000339084D03*
X-0000092799Y0000339084D03*
X-0000094767Y0000339084D03*
X-0000096736Y0000339084D03*
X-0000098704Y0000339084D03*
X-0000100673Y0000339084D03*
X-0000102641Y0000339084D03*
X-0000086893Y0000308376D03*
X-0000084925Y0000308376D03*
X-0000084925Y0000339084D03*
X-0000086893Y0000339084D03*
X-0000050784Y0000293002D03*
X-0000048816Y0000293002D03*
X-0000046847Y0000293002D03*
X-0000044879Y0000293002D03*
X-0000042910Y0000293002D03*
X-0000040942Y0000293002D03*
X-0000040942Y0000308356D03*
X-0000042910Y0000308356D03*
X-0000044879Y0000308356D03*
X-0000046847Y0000308356D03*
X-0000048816Y0000308356D03*
X-0000050784Y0000308356D03*
G54D34*
X-0000131720Y0000337530D03*
X-0000125720Y0000337530D03*
G54D61*
X-0000002531Y0000173050D03*
X-0000000563Y0000173050D03*
X0000001406Y0000173050D03*
X0000003374Y0000173050D03*
X0000005343Y0000173050D03*
X0000007311Y0000173050D03*
X0000007311Y0000188010D03*
X0000005343Y0000188010D03*
X0000003374Y0000188010D03*
X0000001406Y0000188010D03*
X-0000000563Y0000188010D03*
X-0000002531Y0000188010D03*
X0000009280Y0000173050D03*
X0000011249Y0000173050D03*
X0000013217Y0000173050D03*
X0000015186Y0000173050D03*
X0000017154Y0000173050D03*
X0000019123Y0000173050D03*
X0000021091Y0000173050D03*
X0000021091Y0000188010D03*
X0000019123Y0000188010D03*
X0000017154Y0000188010D03*
X0000015186Y0000188010D03*
X0000013217Y0000188010D03*
X0000011249Y0000188010D03*
X0000009280Y0000188010D03*
X0000102853Y0000187870D03*
X0000100885Y0000187870D03*
X0000100885Y0000230390D03*
X0000102853Y0000230390D03*
X0000118601Y0000187870D03*
X0000116633Y0000187870D03*
X0000114664Y0000187870D03*
X0000112696Y0000187870D03*
X0000110727Y0000187870D03*
X0000108759Y0000187870D03*
X0000106790Y0000187870D03*
X0000104822Y0000187870D03*
X0000104822Y0000230390D03*
X0000106790Y0000230390D03*
X0000108759Y0000230390D03*
X0000110727Y0000230390D03*
X0000112696Y0000230390D03*
X0000114664Y0000230390D03*
X0000116633Y0000230390D03*
X0000118601Y0000230390D03*
X0000126475Y0000187870D03*
X0000124507Y0000187870D03*
X0000122538Y0000187870D03*
X0000120570Y0000187870D03*
X0000120570Y0000230390D03*
X0000122538Y0000230390D03*
X0000124507Y0000230390D03*
X0000126475Y0000230390D03*
G54D16*
X-0000220962Y0000199357D03*
X-0000220962Y0000201719D03*
X-0000218600Y0000202900D03*
X-0000218600Y0000205262D03*
X-0000218600Y0000207624D03*
X-0000218600Y0000209987D03*
X-0000218600Y0000212349D03*
X-0000218600Y0000214711D03*
X-0000218600Y0000217073D03*
X-0000220962Y0000204081D03*
X-0000220962Y0000206443D03*
X-0000220962Y0000208806D03*
X-0000220962Y0000211168D03*
X-0000220962Y0000213530D03*
X-0000220962Y0000215892D03*
X-0000220962Y0000218254D03*
X-0000218600Y0000219436D03*
X-0000218600Y0000221798D03*
X-0000218600Y0000224160D03*
X-0000218600Y0000226522D03*
X-0000220962Y0000220617D03*
X-0000220962Y0000222979D03*
X-0000220962Y0000225341D03*
X-0000220962Y0000227703D03*
X-0000188678Y0000199357D03*
X-0000188678Y0000201719D03*
X-0000188678Y0000204081D03*
X-0000188678Y0000206443D03*
X-0000191040Y0000207624D03*
X-0000191040Y0000205262D03*
X-0000191040Y0000202900D03*
X-0000188678Y0000208806D03*
X-0000188678Y0000211168D03*
X-0000188678Y0000213530D03*
X-0000188678Y0000215892D03*
X-0000188678Y0000218254D03*
X-0000191040Y0000217073D03*
X-0000191040Y0000214711D03*
X-0000191040Y0000212349D03*
X-0000191040Y0000209987D03*
X-0000191040Y0000226522D03*
X-0000188678Y0000220617D03*
X-0000188678Y0000222979D03*
X-0000188678Y0000225341D03*
X-0000191040Y0000224160D03*
X-0000191040Y0000221798D03*
X-0000191040Y0000219436D03*
X-0000188678Y0000227703D03*
X-0000171362Y0000199357D03*
X-0000171362Y0000201719D03*
X-0000169000Y0000202900D03*
X-0000169000Y0000205262D03*
X-0000169000Y0000207624D03*
X-0000169000Y0000209987D03*
X-0000169000Y0000212349D03*
X-0000169000Y0000214711D03*
X-0000169000Y0000217073D03*
X-0000171362Y0000204081D03*
X-0000171362Y0000206443D03*
X-0000171362Y0000208806D03*
X-0000171362Y0000211168D03*
X-0000171362Y0000213530D03*
X-0000171362Y0000215892D03*
X-0000171362Y0000218254D03*
X-0000169000Y0000219436D03*
X-0000169000Y0000221798D03*
X-0000169000Y0000224160D03*
X-0000169000Y0000226522D03*
X-0000171362Y0000220617D03*
X-0000171362Y0000222979D03*
X-0000171362Y0000225341D03*
X-0000171362Y0000227703D03*
X-0000139078Y0000199357D03*
X-0000139078Y0000201719D03*
X-0000139078Y0000204081D03*
X-0000139078Y0000206443D03*
X-0000141440Y0000207624D03*
X-0000141440Y0000205262D03*
X-0000141440Y0000202900D03*
X-0000139078Y0000208806D03*
X-0000139078Y0000211168D03*
X-0000139078Y0000213530D03*
X-0000139078Y0000215892D03*
X-0000139078Y0000218254D03*
X-0000141440Y0000217073D03*
X-0000141440Y0000214711D03*
X-0000141440Y0000212349D03*
X-0000141440Y0000209987D03*
X-0000141440Y0000226522D03*
X-0000139078Y0000220617D03*
X-0000139078Y0000222979D03*
X-0000139078Y0000225341D03*
X-0000141440Y0000224160D03*
X-0000141440Y0000221798D03*
X-0000141440Y0000219436D03*
X-0000139078Y0000227703D03*
G54D25*
X-0000186720Y0000329530D03*
X0000146280Y0000297030D03*
X0000146280Y0000387030D03*
G54D53*
X-0000060866Y0000344046D03*
X-0000060866Y0000342077D03*
X-0000060866Y0000340109D03*
X-0000060866Y0000338140D03*
X-0000060866Y0000351920D03*
X-0000060866Y0000349951D03*
X-0000060866Y0000347983D03*
X-0000060866Y0000346014D03*
X-0000041574Y0000338140D03*
X-0000041574Y0000340109D03*
X-0000041574Y0000342077D03*
X-0000041574Y0000344046D03*
X-0000041574Y0000346014D03*
X-0000041574Y0000347983D03*
X-0000041574Y0000349951D03*
X-0000041574Y0000351920D03*
G54D80*
X0000105048Y0000251596D03*
X0000105048Y0000239784D03*
X0000105048Y0000261984D03*
X0000105048Y0000273796D03*
X0000105048Y0000284124D03*
X0000105048Y0000295936D03*
X0000105048Y0000306065D03*
X0000105048Y0000317877D03*
X0000105048Y0000328005D03*
X0000105048Y0000339817D03*
X0000105048Y0000350145D03*
X0000105048Y0000361957D03*
X0000132608Y0000251596D03*
X0000132608Y0000239784D03*
X0000132608Y0000261984D03*
X0000132608Y0000273796D03*
X0000132608Y0000284124D03*
X0000132608Y0000295936D03*
X0000132608Y0000306065D03*
X0000132608Y0000317877D03*
X0000132608Y0000328005D03*
X0000132608Y0000339817D03*
X0000132608Y0000350145D03*
X0000132608Y0000361957D03*
G54D71*
X0000045758Y0000330210D03*
X0000048317Y0000330210D03*
X0000050877Y0000330210D03*
X0000053436Y0000330210D03*
X0000045758Y0000347928D03*
X0000048317Y0000347928D03*
X0000050877Y0000347928D03*
G54D35*
X-0000126933Y0000346404D03*
X-0000128507Y0000346404D03*
X-0000128507Y0000355656D03*
X-0000126933Y0000355656D03*
G54D26*
X-0000186720Y0000319530D03*
X0000146280Y0000247030D03*
X0000146280Y0000257030D03*
X0000146280Y0000267030D03*
X0000146280Y0000277030D03*
X0000146280Y0000287030D03*
X0000146280Y0000337030D03*
X0000146280Y0000347030D03*
X0000146280Y0000357030D03*
X0000146280Y0000367030D03*
X0000146280Y0000377030D03*
X0000156280Y0000247030D03*
X0000156280Y0000257030D03*
X0000156280Y0000267030D03*
X0000156280Y0000277030D03*
X0000156280Y0000287030D03*
X0000156280Y0000297030D03*
X0000156280Y0000337030D03*
X0000156280Y0000347030D03*
X0000156280Y0000357030D03*
X0000156280Y0000367030D03*
X0000156280Y0000377030D03*
X0000156280Y0000387030D03*
G54D44*
X-0000086551Y0000108518D03*
X0000150142Y0000108518D03*
G54D17*
X-0000216720Y0000269530D03*
X-0000216720Y0000306530D03*
X-0000216720Y0000344280D03*
G54D62*
X0000014221Y0000180530D03*
G54D54*
X-0000058110Y0000335384D03*
X-0000056141Y0000335384D03*
X-0000056141Y0000354676D03*
X-0000058110Y0000354676D03*
X-0000054173Y0000335384D03*
X-0000052204Y0000335384D03*
X-0000050236Y0000335384D03*
X-0000048267Y0000335384D03*
X-0000046299Y0000335384D03*
X-0000044330Y0000335384D03*
X-0000044330Y0000354676D03*
X-0000046299Y0000354676D03*
X-0000048267Y0000354676D03*
X-0000050236Y0000354676D03*
X-0000052204Y0000354676D03*
X-0000054173Y0000354676D03*
G54D45*
X-0000098350Y0000146500D03*
X-0000091650Y0000146500D03*
X-0000033421Y0000283302D03*
X-0000026721Y0000283302D03*
G54D81*
X0000126461Y0000147889D03*
X0000129020Y0000147889D03*
X0000131580Y0000147889D03*
X0000134139Y0000147889D03*
G54D72*
X0000053436Y0000347928D03*
G54D36*
X-0000131854Y0000347093D03*
X-0000131854Y0000348668D03*
X-0000131854Y0000350243D03*
X-0000131854Y0000351817D03*
X-0000131854Y0000353392D03*
X-0000131854Y0000354967D03*
X-0000123586Y0000354967D03*
X-0000123586Y0000353392D03*
X-0000123586Y0000351817D03*
X-0000123586Y0000350243D03*
X-0000123586Y0000348668D03*
X-0000123586Y0000347093D03*
G54D63*
X0000016331Y0000211184D03*
X0000013182Y0000211184D03*
X0000019481Y0000211184D03*
X0000016331Y0000214334D03*
X0000013182Y0000214334D03*
X0000019481Y0000214334D03*
X0000016331Y0000217483D03*
X0000013182Y0000217483D03*
X0000019481Y0000217483D03*
X0000016331Y0000220633D03*
X0000013182Y0000220633D03*
X0000019481Y0000220633D03*
X0000016331Y0000223782D03*
X0000013182Y0000223782D03*
X0000019481Y0000223782D03*
X0000016331Y0000226932D03*
X0000013182Y0000226932D03*
X0000019481Y0000226932D03*
X0000016331Y0000230082D03*
X0000013182Y0000230082D03*
X0000019481Y0000230082D03*
X0000016331Y0000233231D03*
X0000013182Y0000233231D03*
X0000019481Y0000233231D03*
X0000016331Y0000236381D03*
X0000013182Y0000236381D03*
X0000019481Y0000236381D03*
X0000016331Y0000239530D03*
X0000013182Y0000239530D03*
X0000019481Y0000239530D03*
X0000016331Y0000242680D03*
X0000013182Y0000242680D03*
X0000019481Y0000242680D03*
X0000016331Y0000245830D03*
X0000013182Y0000245830D03*
X0000019481Y0000245830D03*
X0000016331Y0000248979D03*
X0000013182Y0000248979D03*
X0000019481Y0000248979D03*
X0000016331Y0000252129D03*
X0000013182Y0000252129D03*
X0000019481Y0000252129D03*
X0000016331Y0000255278D03*
X0000013182Y0000255278D03*
X0000019481Y0000255278D03*
X0000016331Y0000258428D03*
X0000019481Y0000258428D03*
X0000013182Y0000258428D03*
X0000035229Y0000211184D03*
X0000032079Y0000211184D03*
X0000038378Y0000211184D03*
X0000035229Y0000214334D03*
X0000032079Y0000214334D03*
X0000038378Y0000214334D03*
X0000035229Y0000217483D03*
X0000032079Y0000217483D03*
X0000038378Y0000217483D03*
X0000035229Y0000220633D03*
X0000032079Y0000220633D03*
X0000038378Y0000220633D03*
X0000035229Y0000223782D03*
X0000032079Y0000223782D03*
X0000038378Y0000223782D03*
X0000035229Y0000226932D03*
X0000032079Y0000226932D03*
X0000038378Y0000226932D03*
X0000035229Y0000230082D03*
X0000032079Y0000230082D03*
X0000038378Y0000230082D03*
X0000035229Y0000233231D03*
X0000032079Y0000233231D03*
X0000038378Y0000233231D03*
X0000035229Y0000236381D03*
X0000032079Y0000236381D03*
X0000038378Y0000236381D03*
X0000035229Y0000239530D03*
X0000032079Y0000239530D03*
X0000038378Y0000239530D03*
X0000035229Y0000242680D03*
X0000032079Y0000242680D03*
X0000038378Y0000242680D03*
X0000035229Y0000245830D03*
X0000032079Y0000245830D03*
X0000038378Y0000245830D03*
X0000035229Y0000248979D03*
X0000032079Y0000248979D03*
X0000038378Y0000248979D03*
X0000035229Y0000252129D03*
X0000032079Y0000252129D03*
X0000038378Y0000252129D03*
X0000035229Y0000255278D03*
X0000032079Y0000255278D03*
X0000038378Y0000255278D03*
X0000038378Y0000258428D03*
X0000032079Y0000258428D03*
X0000035229Y0000258428D03*
G54D27*
X-0000181634Y0000374530D03*
X-0000188720Y0000381617D03*
G54D18*
X-0000197720Y0000087030D03*
X-0000200220Y0000407030D03*
X-0000136500Y0000322900D03*
X-0000138300Y0000366900D03*
X-0000128720Y0000111030D03*
X-0000113500Y0000294500D03*
X-0000074700Y0000356200D03*
X-0000034500Y0000347500D03*
X-0000015500Y0000275500D03*
X0000041000Y0000320500D03*
X0000093000Y0000267500D03*
X0000101280Y0000373530D03*
X0000156280Y0000088030D03*
X0000163280Y0000138530D03*
G54D19*
X-0000206620Y0000117130D03*
X-0000206620Y0000162130D03*
G54D82*
X0000130300Y0000156591D03*
G54D73*
X0000054906Y0000361530D03*
X0000052937Y0000361530D03*
X0000050969Y0000361530D03*
X0000049000Y0000361530D03*
X0000047032Y0000361530D03*
X0000045063Y0000361530D03*
X0000070654Y0000361530D03*
X0000068686Y0000361530D03*
X0000066717Y0000361530D03*
X0000064749Y0000361530D03*
X0000062780Y0000361530D03*
X0000060811Y0000361530D03*
X0000058843Y0000361530D03*
X0000056874Y0000361530D03*
X0000080497Y0000361530D03*
X0000078528Y0000361530D03*
X0000076560Y0000361530D03*
X0000074591Y0000361530D03*
X0000072623Y0000361530D03*
G54D55*
X-0000047220Y0000158680D03*
X-0000047220Y0000165380D03*
X-0000038720Y0000158680D03*
X-0000038720Y0000165380D03*
X-0000045720Y0000372880D03*
X-0000045720Y0000366180D03*
X-0000045720Y0000388880D03*
X-0000045720Y0000382180D03*
X-0000029720Y0000158680D03*
X-0000029720Y0000165380D03*
X-0000029220Y0000311680D03*
X-0000029220Y0000318380D03*
X-0000021220Y0000158680D03*
X-0000021220Y0000165380D03*
X-0000012920Y0000158680D03*
X-0000012920Y0000165380D03*
X-0000006448Y0000342231D03*
X-0000006448Y0000335531D03*
X-0000016448Y0000342231D03*
X-0000016448Y0000335531D03*
X0000065280Y0000181180D03*
X0000065280Y0000187880D03*
G54D64*
X0000013890Y0000336774D03*
X0000013890Y0000342286D03*
X0000027670Y0000342286D03*
X0000027670Y0000336774D03*
G54D46*
X-0000097700Y0000284030D03*
X-0000097700Y0000289030D03*
X-0000097700Y0000294030D03*
X-0000082740Y0000294030D03*
X-0000082740Y0000289030D03*
X-0000082740Y0000284030D03*
G54D28*
X-0000195807Y0000374530D03*
G54D37*
X-0000126590Y0000371530D03*
X-0000126590Y0000389837D03*
X-0000097850Y0000371530D03*
X-0000097850Y0000389837D03*
X-0000084590Y0000371530D03*
X-0000084590Y0000389837D03*
X-0000055850Y0000371530D03*
X-0000055850Y0000389837D03*
G54D56*
X-0000045863Y0000300679D03*
G54D74*
X0000063200Y0000169700D03*
X0000075200Y0000169700D03*
G54D65*
X0000033480Y0000163530D03*
X0000033480Y0000175530D03*
X0000070780Y0000201430D03*
X0000070780Y0000213430D03*
X0000088180Y0000182030D03*
X0000088180Y0000201430D03*
X0000079480Y0000201430D03*
X0000088180Y0000194030D03*
X0000088180Y0000213430D03*
X0000079480Y0000213430D03*
G54D29*
X-0000173220Y0000277030D03*
X-0000173220Y0000283030D03*
X-0000126720Y0000256530D03*
X-0000126720Y0000262530D03*
G54D47*
X-0000095074Y0000348966D03*
X-0000089366Y0000348966D03*
X-0000089366Y0000353494D03*
X-0000095074Y0000353494D03*
X-0000044217Y0000321415D03*
X-0000044217Y0000325943D03*
X-0000038509Y0000321415D03*
X-0000038509Y0000325943D03*
G54D38*
X-0000118519Y0000367987D03*
X-0000115370Y0000372711D03*
X-0000112220Y0000367987D03*
X-0000109070Y0000372711D03*
X-0000105921Y0000367987D03*
X-0000076519Y0000367987D03*
X-0000073370Y0000372711D03*
X-0000070220Y0000367987D03*
X-0000067070Y0000372711D03*
X-0000063921Y0000367987D03*
G54D83*
X0000146534Y0000174266D03*
X0000146534Y0000159462D03*
G54D48*
X-0000073519Y0000107731D03*
X-0000075488Y0000107731D03*
X-0000073519Y0000130329D03*
X-0000075488Y0000130329D03*
X-0000055803Y0000107731D03*
X-0000059740Y0000107731D03*
X-0000061708Y0000107731D03*
X-0000065645Y0000107731D03*
X-0000067614Y0000107731D03*
X-0000071551Y0000107731D03*
X-0000057771Y0000107731D03*
X-0000063677Y0000107731D03*
X-0000069582Y0000107731D03*
X-0000055803Y0000130329D03*
X-0000059740Y0000130329D03*
X-0000061708Y0000130329D03*
X-0000065645Y0000130329D03*
X-0000067614Y0000130329D03*
X-0000071551Y0000130329D03*
X-0000057771Y0000130329D03*
X-0000063677Y0000130329D03*
X-0000069582Y0000130329D03*
X-0000042023Y0000107731D03*
X-0000043992Y0000107731D03*
X-0000047929Y0000107731D03*
X-0000049897Y0000107731D03*
X-0000053834Y0000107731D03*
X-0000040055Y0000107731D03*
X-0000045960Y0000107731D03*
X-0000051866Y0000107731D03*
X-0000042023Y0000130329D03*
X-0000043992Y0000130329D03*
X-0000047929Y0000130329D03*
X-0000049897Y0000130329D03*
X-0000053834Y0000130329D03*
X-0000040055Y0000130329D03*
X-0000045960Y0000130329D03*
X-0000051866Y0000130329D03*
X-0000024307Y0000107731D03*
X-0000026275Y0000107731D03*
X-0000030212Y0000107731D03*
X-0000032181Y0000107731D03*
X-0000036118Y0000107731D03*
X-0000038086Y0000107731D03*
X-0000028244Y0000107731D03*
X-0000034149Y0000107731D03*
X-0000024307Y0000130329D03*
X-0000026275Y0000130329D03*
X-0000030212Y0000130329D03*
X-0000032181Y0000130329D03*
X-0000036118Y0000130329D03*
X-0000038086Y0000130329D03*
X-0000028244Y0000130329D03*
X-0000034149Y0000130329D03*
X-0000018401Y0000107731D03*
X-0000020370Y0000107731D03*
X-0000022338Y0000107731D03*
X-0000018401Y0000130329D03*
X-0000020370Y0000130329D03*
X-0000022338Y0000130329D03*
X0000007189Y0000107731D03*
X0000005221Y0000107731D03*
X0000003252Y0000107731D03*
X0000007189Y0000130329D03*
X0000005221Y0000130329D03*
X0000003252Y0000130329D03*
X0000022937Y0000107731D03*
X0000019000Y0000107731D03*
X0000017032Y0000107731D03*
X0000013095Y0000107731D03*
X0000011126Y0000107731D03*
X0000020969Y0000107731D03*
X0000015063Y0000107731D03*
X0000009158Y0000107731D03*
X0000022937Y0000130329D03*
X0000019000Y0000130329D03*
X0000017032Y0000130329D03*
X0000013095Y0000130329D03*
X0000011126Y0000130329D03*
X0000020969Y0000130329D03*
X0000015063Y0000130329D03*
X0000009158Y0000130329D03*
X0000036717Y0000107731D03*
X0000034749Y0000107731D03*
X0000030811Y0000107731D03*
X0000028843Y0000107731D03*
X0000024906Y0000107731D03*
X0000038686Y0000107731D03*
X0000032780Y0000107731D03*
X0000026874Y0000107731D03*
X0000036717Y0000130329D03*
X0000034749Y0000130329D03*
X0000030811Y0000130329D03*
X0000028843Y0000130329D03*
X0000024906Y0000130329D03*
X0000038686Y0000130329D03*
X0000032780Y0000130329D03*
X0000026874Y0000130329D03*
X0000054434Y0000107731D03*
X0000052465Y0000107731D03*
X0000048528Y0000107731D03*
X0000046560Y0000107731D03*
X0000042623Y0000107731D03*
X0000040654Y0000107731D03*
X0000050497Y0000107731D03*
X0000044591Y0000107731D03*
X0000054434Y0000130329D03*
X0000052465Y0000130329D03*
X0000048528Y0000130329D03*
X0000046560Y0000130329D03*
X0000042623Y0000130329D03*
X0000040654Y0000130329D03*
X0000050497Y0000130329D03*
X0000044591Y0000130329D03*
X0000060339Y0000107731D03*
X0000058371Y0000107731D03*
X0000056402Y0000107731D03*
X0000060339Y0000130329D03*
X0000058371Y0000130329D03*
X0000056402Y0000130329D03*
X0000085930Y0000107731D03*
X0000083961Y0000107731D03*
X0000085930Y0000130329D03*
X0000083961Y0000130329D03*
X0000101678Y0000107731D03*
X0000097741Y0000107731D03*
X0000095772Y0000107731D03*
X0000091835Y0000107731D03*
X0000089867Y0000107731D03*
X0000101678Y0000130329D03*
X0000097741Y0000130329D03*
X0000095772Y0000130329D03*
X0000091835Y0000130329D03*
X0000089867Y0000130329D03*
X0000115457Y0000107731D03*
X0000113489Y0000107731D03*
X0000109552Y0000107731D03*
X0000107583Y0000107731D03*
X0000103646Y0000107731D03*
X0000115457Y0000130329D03*
X0000113489Y0000130329D03*
X0000109552Y0000130329D03*
X0000107583Y0000130329D03*
X0000103646Y0000130329D03*
X0000133174Y0000107731D03*
X0000131205Y0000107731D03*
X0000127268Y0000107731D03*
X0000125300Y0000107731D03*
X0000121363Y0000107731D03*
X0000119394Y0000107731D03*
X0000133174Y0000130329D03*
X0000131205Y0000130329D03*
X0000127268Y0000130329D03*
X0000125300Y0000130329D03*
X0000121363Y0000130329D03*
X0000119394Y0000130329D03*
X0000139079Y0000107731D03*
X0000137111Y0000107731D03*
X0000139079Y0000130329D03*
X0000137111Y0000130329D03*
G54D75*
X0000066780Y0000294530D03*
G54D39*
X-0000106115Y0000153910D03*
X-0000110840Y0000153910D03*
X-0000108477Y0000153910D03*
X-0000106115Y0000151547D03*
X-0000110840Y0000151547D03*
X-0000108477Y0000151547D03*
X-0000108477Y0000158634D03*
X-0000110840Y0000158634D03*
X-0000106115Y0000158634D03*
X-0000106115Y0000156272D03*
X-0000110840Y0000156272D03*
X-0000108477Y0000156272D03*
X0000167197Y0000308325D03*
X0000167197Y0000313050D03*
X0000167197Y0000310687D03*
X0000174284Y0000310687D03*
X0000174284Y0000313050D03*
X0000174284Y0000308325D03*
X0000171922Y0000308325D03*
X0000171922Y0000313050D03*
X0000171922Y0000310687D03*
X0000169560Y0000308325D03*
X0000169560Y0000313050D03*
X0000169560Y0000310687D03*
G54D57*
X-0000028220Y0000357780D03*
X-0000028220Y0000379280D03*
X-0000008220Y0000357780D03*
X-0000018220Y0000357780D03*
X-0000008220Y0000379280D03*
X-0000018220Y0000379280D03*
X0000001780Y0000357780D03*
X0000001780Y0000379280D03*
X0000011780Y0000357780D03*
X0000011780Y0000379280D03*
G54D84*
X0000162371Y0000165030D03*
X0000186780Y0000165030D03*
G54D66*
X0000034237Y0000363991D03*
X0000091323Y0000363991D03*
G54D76*
X0000069882Y0000337302D03*
X0000069882Y0000339861D03*
X0000069882Y0000342421D03*
X0000087600Y0000337302D03*
X0000087600Y0000339861D03*
X0000087600Y0000342421D03*
X0000087600Y0000344980D03*
G54D85*
X0000163280Y0000200030D03*
X0000163280Y0000210030D03*
X0000163280Y0000220030D03*
X0000187280Y0000220030D03*
X0000187280Y0000210030D03*
G54D49*
X-0000078716Y0000119030D03*
X-0000015212Y0000119030D03*
X0000000024Y0000119030D03*
X0000063528Y0000119030D03*
X0000078764Y0000119030D03*
X0000142268Y0000119030D03*
G54D58*
X-0000008984Y0000297140D03*
X-0000008984Y0000295172D03*
X-0000008984Y0000293203D03*
X-0000008984Y0000291235D03*
X-0000008984Y0000289266D03*
X-0000008984Y0000287298D03*
X-0000008984Y0000285329D03*
X-0000010952Y0000297140D03*
X-0000010952Y0000295172D03*
X-0000010952Y0000293203D03*
X-0000010952Y0000291235D03*
X-0000010952Y0000289266D03*
X-0000010952Y0000287298D03*
X-0000010952Y0000285329D03*
X-0000012921Y0000297140D03*
X-0000012921Y0000295172D03*
X-0000012921Y0000293203D03*
X-0000012921Y0000291235D03*
X-0000012921Y0000289266D03*
X-0000012921Y0000287298D03*
X-0000012921Y0000285329D03*
X-0000008984Y0000312888D03*
X-0000008984Y0000310920D03*
X-0000008984Y0000308951D03*
X-0000008984Y0000306983D03*
X-0000008984Y0000305014D03*
X-0000008984Y0000303046D03*
X-0000008984Y0000301077D03*
X-0000008984Y0000299109D03*
X-0000010952Y0000312888D03*
X-0000010952Y0000310920D03*
X-0000010952Y0000308951D03*
X-0000010952Y0000306983D03*
X-0000010952Y0000305014D03*
X-0000010952Y0000303046D03*
X-0000010952Y0000301077D03*
X-0000010952Y0000299109D03*
X-0000012921Y0000312888D03*
X-0000012921Y0000310920D03*
X-0000012921Y0000308951D03*
X-0000012921Y0000306983D03*
X-0000012921Y0000305014D03*
X-0000012921Y0000303046D03*
X-0000012921Y0000301077D03*
X-0000012921Y0000299109D03*
X-0000008984Y0000322731D03*
X-0000008984Y0000320762D03*
X-0000008984Y0000318794D03*
X-0000008984Y0000316825D03*
X-0000008984Y0000314857D03*
X-0000010952Y0000322731D03*
X-0000010952Y0000320762D03*
X-0000010952Y0000318794D03*
X-0000010952Y0000316825D03*
X-0000010952Y0000314857D03*
X-0000012921Y0000322731D03*
X-0000012921Y0000320762D03*
X-0000012921Y0000318794D03*
X-0000012921Y0000316825D03*
X-0000012921Y0000314857D03*
X0000006764Y0000291235D03*
X0000006764Y0000289266D03*
X0000006764Y0000287298D03*
X0000006764Y0000285329D03*
X0000004796Y0000291235D03*
X0000004796Y0000289266D03*
X0000004796Y0000287298D03*
X0000004796Y0000285329D03*
X0000002827Y0000291235D03*
X0000002827Y0000289266D03*
X0000002827Y0000287298D03*
X0000002827Y0000285329D03*
X0000000859Y0000291235D03*
X0000000859Y0000289266D03*
X0000000859Y0000287298D03*
X0000000859Y0000285329D03*
X-0000001110Y0000291235D03*
X-0000001110Y0000289266D03*
X-0000001110Y0000287298D03*
X-0000001110Y0000285329D03*
X-0000003078Y0000291235D03*
X-0000003078Y0000289266D03*
X-0000003078Y0000287298D03*
X-0000003078Y0000285329D03*
X-0000005047Y0000291235D03*
X-0000005047Y0000289266D03*
X-0000005047Y0000287298D03*
X-0000005047Y0000285329D03*
X-0000007015Y0000297140D03*
X-0000007015Y0000295172D03*
X-0000007015Y0000293203D03*
X-0000007015Y0000291235D03*
X-0000007015Y0000289266D03*
X-0000007015Y0000287298D03*
X-0000007015Y0000285329D03*
X-0000007015Y0000312888D03*
X-0000007015Y0000310920D03*
X-0000007015Y0000308951D03*
X-0000007015Y0000306983D03*
X-0000007015Y0000305014D03*
X-0000007015Y0000303046D03*
X-0000007015Y0000301077D03*
X-0000007015Y0000299109D03*
X0000006764Y0000322731D03*
X0000006764Y0000320762D03*
X0000006764Y0000318794D03*
X0000006764Y0000316825D03*
X0000004796Y0000322731D03*
X0000004796Y0000320762D03*
X0000004796Y0000318794D03*
X0000004796Y0000316825D03*
X0000002827Y0000322731D03*
X0000002827Y0000320762D03*
X0000002827Y0000318794D03*
X0000002827Y0000316825D03*
X0000000859Y0000322731D03*
X0000000859Y0000320762D03*
X0000000859Y0000318794D03*
X0000000859Y0000316825D03*
X-0000001110Y0000322731D03*
X-0000001110Y0000320762D03*
X-0000001110Y0000318794D03*
X-0000001110Y0000316825D03*
X-0000003078Y0000322731D03*
X-0000003078Y0000320762D03*
X-0000003078Y0000318794D03*
X-0000003078Y0000316825D03*
X-0000005047Y0000322731D03*
X-0000005047Y0000320762D03*
X-0000005047Y0000318794D03*
X-0000005047Y0000316825D03*
X-0000007015Y0000322731D03*
X-0000007015Y0000320762D03*
X-0000007015Y0000318794D03*
X-0000007015Y0000316825D03*
X-0000007015Y0000314857D03*
X0000022512Y0000297140D03*
X0000022512Y0000295172D03*
X0000022512Y0000293203D03*
X0000022512Y0000291235D03*
X0000022512Y0000289266D03*
X0000022512Y0000287298D03*
X0000022512Y0000285329D03*
X0000020544Y0000297140D03*
X0000020544Y0000295172D03*
X0000020544Y0000293203D03*
X0000020544Y0000291235D03*
X0000020544Y0000289266D03*
X0000020544Y0000287298D03*
X0000020544Y0000285329D03*
X0000018575Y0000297140D03*
X0000018575Y0000295172D03*
X0000018575Y0000293203D03*
X0000018575Y0000291235D03*
X0000018575Y0000289266D03*
X0000018575Y0000287298D03*
X0000018575Y0000285329D03*
X0000016607Y0000291235D03*
X0000016607Y0000289266D03*
X0000016607Y0000287298D03*
X0000016607Y0000285329D03*
X0000014638Y0000291235D03*
X0000014638Y0000289266D03*
X0000014638Y0000287298D03*
X0000014638Y0000285329D03*
X0000012670Y0000291235D03*
X0000012670Y0000289266D03*
X0000012670Y0000287298D03*
X0000012670Y0000285329D03*
X0000010701Y0000291235D03*
X0000010701Y0000289266D03*
X0000010701Y0000287298D03*
X0000010701Y0000285329D03*
X0000008733Y0000291235D03*
X0000008733Y0000289266D03*
X0000008733Y0000287298D03*
X0000008733Y0000285329D03*
X0000022512Y0000312888D03*
X0000022512Y0000310920D03*
X0000022512Y0000308951D03*
X0000022512Y0000306983D03*
X0000022512Y0000305014D03*
X0000022512Y0000303046D03*
X0000022512Y0000301077D03*
X0000022512Y0000299109D03*
X0000020544Y0000312888D03*
X0000020544Y0000310920D03*
X0000020544Y0000308951D03*
X0000020544Y0000306983D03*
X0000020544Y0000305014D03*
X0000020544Y0000303046D03*
X0000020544Y0000301077D03*
X0000020544Y0000299109D03*
X0000018575Y0000312888D03*
X0000018575Y0000310920D03*
X0000018575Y0000308951D03*
X0000018575Y0000306983D03*
X0000018575Y0000305014D03*
X0000018575Y0000303046D03*
X0000018575Y0000301077D03*
X0000018575Y0000299109D03*
X0000022512Y0000322731D03*
X0000022512Y0000320762D03*
X0000022512Y0000318794D03*
X0000022512Y0000316825D03*
X0000022512Y0000314857D03*
X0000020544Y0000322731D03*
X0000020544Y0000320762D03*
X0000020544Y0000318794D03*
X0000020544Y0000316825D03*
X0000020544Y0000314857D03*
X0000018575Y0000322731D03*
X0000018575Y0000320762D03*
X0000018575Y0000318794D03*
X0000018575Y0000316825D03*
X0000018575Y0000314857D03*
X0000016607Y0000322731D03*
X0000016607Y0000320762D03*
X0000016607Y0000318794D03*
X0000016607Y0000316825D03*
X0000014638Y0000322731D03*
X0000014638Y0000320762D03*
X0000014638Y0000318794D03*
X0000014638Y0000316825D03*
X0000012670Y0000322731D03*
X0000012670Y0000320762D03*
X0000012670Y0000318794D03*
X0000012670Y0000316825D03*
X0000010701Y0000322731D03*
X0000010701Y0000320762D03*
X0000010701Y0000318794D03*
X0000010701Y0000316825D03*
X0000008733Y0000322731D03*
X0000008733Y0000320762D03*
X0000008733Y0000318794D03*
X0000008733Y0000316825D03*
X0000024481Y0000297140D03*
X0000024481Y0000295172D03*
X0000024481Y0000293203D03*
X0000024481Y0000291235D03*
X0000024481Y0000289266D03*
X0000024481Y0000287298D03*
X0000024481Y0000285329D03*
X0000024481Y0000312888D03*
X0000024481Y0000310920D03*
X0000024481Y0000308951D03*
X0000024481Y0000306983D03*
X0000024481Y0000305014D03*
X0000024481Y0000303046D03*
X0000024481Y0000301077D03*
X0000024481Y0000299109D03*
X0000024481Y0000322731D03*
X0000024481Y0000320762D03*
X0000024481Y0000318794D03*
X0000024481Y0000316825D03*
X0000024481Y0000314857D03*
G54D67*
X0000034237Y0000387495D03*
X0000091323Y0000387495D03*
G54D68*
X0000045980Y0000154130D03*
X0000071980Y0000154130D03*
G54D77*
X0000069882Y0000344980D03*
G54D59*
X0000003717Y0000153061D03*
X0000003717Y0000151093D03*
X0000003717Y0000158967D03*
X0000003717Y0000156999D03*
X0000003717Y0000155030D03*
X0000020843Y0000151093D03*
X0000020843Y0000153061D03*
X0000020843Y0000155030D03*
X0000020843Y0000156999D03*
X0000020843Y0000158967D03*
G54D86*
X0000174969Y0000183534D03*
G54D69*
X0000044339Y0000281735D03*
X0000044339Y0000279766D03*
X0000044339Y0000297483D03*
X0000044339Y0000295514D03*
X0000044339Y0000293546D03*
X0000044339Y0000291577D03*
X0000044339Y0000289609D03*
X0000044339Y0000287640D03*
X0000044339Y0000285672D03*
X0000044339Y0000283703D03*
X0000044339Y0000309294D03*
X0000044339Y0000307325D03*
X0000044339Y0000305357D03*
X0000044339Y0000303388D03*
X0000044339Y0000301420D03*
X0000044339Y0000299451D03*
X0000089221Y0000279766D03*
X0000089221Y0000281735D03*
X0000089221Y0000283703D03*
X0000089221Y0000285672D03*
X0000089221Y0000287640D03*
X0000089221Y0000289609D03*
X0000089221Y0000291577D03*
X0000089221Y0000293546D03*
X0000089221Y0000295514D03*
X0000089221Y0000297483D03*
X0000089221Y0000299451D03*
X0000089221Y0000301420D03*
X0000089221Y0000303388D03*
X0000089221Y0000305357D03*
X0000089221Y0000307325D03*
X0000089221Y0000309294D03*
G54D78*
X0000086544Y0000150780D03*
X0000086544Y0000153280D03*
X0000086544Y0000155780D03*
X0000086544Y0000158280D03*
X0000086544Y0000160780D03*
X0000086544Y0000163280D03*
X0000086544Y0000165780D03*
X0000086544Y0000168280D03*
X0000107016Y0000153280D03*
X0000107016Y0000150780D03*
X0000107016Y0000168280D03*
X0000107016Y0000165780D03*
X0000107016Y0000163280D03*
X0000107016Y0000160780D03*
X0000107016Y0000158280D03*
X0000107016Y0000155780D03*
G54D87*
X0000187280Y0000200030D03*
G54D88*
G01X0000194780Y0000397530D02*
X0000194780Y0000097530D01*
X-0000235220Y0000097530D01*
X-0000235220Y0000397530D01*
X0000194780Y0000397530D01*
G54D79*
X0000112696Y0000196414D03*
G54D89*
G01X0000194780Y0000097530D02*
X0000194780Y0000082530D01*
G02X0000189780Y0000077530I-0000005000J0D01*
G01X-0000230220Y0000077530D01*
G02X-0000235220Y0000082530I0J0000005000D01*
G01X-0000235220Y0000097530D01*
G01X0000194780Y0000397530D02*
X-0000235220Y0000397530D01*
X-0000235220Y0000097530D01*
X0000194780Y0000097530D01*
X0000194780Y0000412530D01*
G03X0000189780Y0000417530I-0000005000J0D01*
G01X-0000230220Y0000417530D01*
G03X-0000235220Y0000412530I0J-0000005000D01*
G01X-0000235220Y0000397530D01*
M02*
